<?xml version="1.0" encoding="UTF-8" standalone="no"?>
<!DOCTYPE svg PUBLIC "-//W3C//DTD SVG 1.1//EN"
 "http://www.w3.org/Graphics/SVG/1.1/DTD/svg11.dtd">
<!-- Generated by graphviz version 14.0.2 (20251019.1705)
 -->
<!-- Pages: 1 -->
<svg width="835pt" height="362pt"
 viewBox="0.00 0.00 835.00 362.00" xmlns="http://www.w3.org/2000/svg" xmlns:xlink="http://www.w3.org/1999/xlink">
<g id="graph0" class="graph" transform="scale(1 1) rotate(0) translate(4 358)">
<polygon fill="white" stroke="none" points="-4,4 -4,-358 830.89,-358 830.89,4 -4,4"/>
<g id="clust1" class="cluster">
<title>cluster_source</title>
</g>
<g id="clust2" class="cluster">
<title>cluster_all</title>
<polygon fill="none" stroke="black" points="47.6,-8 47.6,-346 818.89,-346 818.89,-8 47.6,-8"/>
<text xml:space="preserve" text-anchor="middle" x="433.24" y="-315.4" font-family="Sans-Serif" font-size="28.00">Names</text>
</g>
<!-- EMPTY -->
<g id="node1" class="node">
<title>EMPTY</title>
<ellipse fill="black" stroke="black" cx="17.8" cy="-159" rx="1.8" ry="1.8"/>
</g>
<!-- N1 -->
<g id="node3" class="node">
<title>N1</title>
<polygon fill="none" stroke="black" stroke-dasharray="1,5" points="467.6,-73.75 55.6,-73.75 55.6,-16.25 467.6,-16.25 467.6,-73.75"/>
<text xml:space="preserve" text-anchor="start" x="146.1" y="-56.45" font-family="Courier,monospace" font-size="14.00">@ rows_axis @ columns_axis ?</text>
<text xml:space="preserve" text-anchor="start" x="257.47" y="-39.95" font-family="Courier,monospace" font-size="14.00"> </text>
<text xml:space="preserve" text-anchor="start" x="63.6" y="-23.45" font-family="Courier,monospace" font-size="14.00">Axis(rows_axis) |&gt; Axis(columns_axis) |&gt; Names()</text>
</g>
<!-- EMPTY&#45;&gt;N1 -->
<g id="edge9" class="edge">
<title>EMPTY&#45;&gt;N1:w</title>
<path fill="none" stroke="black" d="M18.94,-157.39C20.01,-145.53 27.28,-71.71 44.81,-50.62"/>
<polygon fill="black" stroke="black" points="46.36,-53.77 53.29,-45.75 42.87,-47.7 46.36,-53.77"/>
</g>
<!-- N2 -->
<g id="node5" class="node">
<title>N2</title>
<polygon fill="none" stroke="black" stroke-dasharray="1,5" points="356.22,-149.75 166.97,-149.75 166.97,-92.25 356.22,-92.25 356.22,-149.75"/>
<text xml:space="preserve" text-anchor="start" x="228.6" y="-132.45" font-family="Courier,monospace" font-size="14.00">@ axis ?</text>
<text xml:space="preserve" text-anchor="start" x="257.47" y="-115.95" font-family="Courier,monospace" font-size="14.00"> </text>
<text xml:space="preserve" text-anchor="start" x="174.97" y="-99.45" font-family="Courier,monospace" font-size="14.00">Axis(axis) |&gt; Names()</text>
</g>
<!-- EMPTY&#45;&gt;N2 -->
<g id="edge10" class="edge">
<title>EMPTY&#45;&gt;N2:w</title>
<path fill="none" stroke="black" d="M19.95,-158.46C29.33,-154.12 94.53,-124.87 154.47,-121.35"/>
<polygon fill="black" stroke="black" points="154.57,-124.85 164.46,-121.05 154.36,-117.85 154.57,-124.85"/>
</g>
<!-- N3 -->
<g id="node7" class="node">
<title>N3</title>
<polygon fill="none" stroke="black" stroke-dasharray="1,5" points="339.72,-225.75 183.47,-225.75 183.47,-168.25 339.72,-168.25 339.72,-225.75"/>
<text xml:space="preserve" text-anchor="start" x="249.22" y="-208.45" font-family="Courier,monospace" font-size="14.00">@ ?</text>
<text xml:space="preserve" text-anchor="start" x="257.47" y="-191.95" font-family="Courier,monospace" font-size="14.00"> </text>
<text xml:space="preserve" text-anchor="start" x="191.47" y="-175.45" font-family="Courier,monospace" font-size="14.00">Axis() |&gt; Names()</text>
</g>
<!-- EMPTY&#45;&gt;N3 -->
<g id="edge11" class="edge">
<title>EMPTY&#45;&gt;N3:w</title>
<path fill="none" stroke="black" d="M19.82,-159.43C29.34,-163.38 103.95,-193.56 171.31,-196.73"/>
<polygon fill="black" stroke="black" points="170.88,-200.22 180.96,-196.96 171.05,-193.22 170.88,-200.22"/>
</g>
<!-- N4 -->
<g id="node9" class="node">
<title>N4</title>
<polygon fill="none" stroke="black" stroke-dasharray="1,5" points="298.47,-301.75 224.72,-301.75 224.72,-244.25 298.47,-244.25 298.47,-301.75"/>
<text xml:space="preserve" text-anchor="start" x="257.47" y="-284.45" font-family="Courier,monospace" font-size="14.00">?</text>
<text xml:space="preserve" text-anchor="start" x="257.47" y="-267.95" font-family="Courier,monospace" font-size="14.00"> </text>
<text xml:space="preserve" text-anchor="start" x="232.72" y="-251.45" font-family="Courier,monospace" font-size="14.00">Names()</text>
</g>
<!-- EMPTY&#45;&gt;N4 -->
<g id="edge12" class="edge">
<title>EMPTY&#45;&gt;N4:w</title>
<path fill="none" stroke="black" d="M18.88,-160.78C19.42,-170.13 23.21,-214.02 47.6,-235 105.34,-284.68 140.13,-274.23 212.31,-273.09"/>
<polygon fill="black" stroke="black" points="212.24,-276.59 222.21,-273.01 212.18,-269.59 212.24,-276.59"/>
</g>
<!-- NamesState -->
<g id="node2" class="node">
<title>NamesState</title>
<polygon fill="none" stroke="black" points="806.89,-150.54 806.89,-165.46 769.38,-176 716.35,-176 678.85,-165.46 678.85,-150.54 716.35,-140 769.38,-140 806.89,-150.54"/>
<polygon fill="none" stroke="black" points="810.89,-147.51 810.89,-168.49 769.94,-180 715.8,-180 674.85,-168.49 674.85,-147.51 715.8,-136 769.94,-136 810.89,-147.51"/>
<text xml:space="preserve" text-anchor="middle" x="742.87" y="-152.2" font-family="Sans-Serif" font-size="14.00">NamesState</text>
</g>
<!-- N1_ -->
<g id="node4" class="node">
<title>N1_</title>
<polygon fill="none" stroke="black" points="626.85,-70 503.6,-70 503.6,-46 626.85,-46 638.85,-58 626.85,-70"/>
<text xml:space="preserve" text-anchor="middle" x="571.22" y="-52.2" font-family="Sans-Serif" font-size="14.00">names_of_matrices</text>
</g>
<!-- N1&#45;&gt;N1_ -->
<g id="edge1" class="edge">
<title>N1:e&#45;&gt;N1_:w</title>
<path fill="none" stroke="black" d="M467.6,-45C479.96,-45 484.38,-51.86 492.4,-55.62"/>
<polygon fill="black" stroke="black" points="491.61,-59.03 502.12,-57.68 493.07,-52.18 491.61,-59.03"/>
</g>
<!-- N1_&#45;&gt;NamesState -->
<g id="edge2" class="edge">
<title>N1_:e&#45;&gt;NamesState</title>
<path fill="none" stroke="black" d="M638.85,-58C678.54,-58 708.71,-96.69 725.85,-125.93"/>
<polygon fill="black" stroke="black" points="722.69,-127.46 730.62,-134.49 728.8,-124.05 722.69,-127.46"/>
</g>
<!-- N2_ -->
<g id="node6" class="node">
<title>N2_</title>
<polygon fill="none" stroke="black" points="622.72,-138 507.72,-138 507.72,-114 622.72,-114 634.72,-126 622.72,-138"/>
<text xml:space="preserve" text-anchor="middle" x="571.22" y="-120.2" font-family="Sans-Serif" font-size="14.00">names_of_vectors</text>
</g>
<!-- N2&#45;&gt;N2_ -->
<g id="edge3" class="edge">
<title>N2:e&#45;&gt;N2_:w</title>
<path fill="none" stroke="black" d="M357.22,-121C419.7,-121 437.99,-125.43 495.29,-125.95"/>
<polygon fill="black" stroke="black" points="494.93,-129.45 504.94,-125.99 494.96,-122.45 494.93,-129.45"/>
</g>
<!-- N2_&#45;&gt;NamesState -->
<g id="edge4" class="edge">
<title>N2_:e&#45;&gt;NamesState</title>
<path fill="none" stroke="black" d="M635.99,-126C654.19,-126 673.41,-130.38 690.42,-135.91"/>
<polygon fill="black" stroke="black" points="689.22,-139.19 699.81,-139.17 691.51,-132.58 689.22,-139.19"/>
</g>
<!-- N3_ -->
<g id="node8" class="node">
<title>N3_</title>
<polygon fill="none" stroke="black" points="615.22,-203 515.22,-203 515.22,-179 615.22,-179 627.22,-191 615.22,-203"/>
<text xml:space="preserve" text-anchor="middle" x="571.22" y="-185.2" font-family="Sans-Serif" font-size="14.00">names_of_axes</text>
</g>
<!-- N3&#45;&gt;N3_ -->
<g id="edge5" class="edge">
<title>N3:e&#45;&gt;N3_:w</title>
<path fill="none" stroke="black" d="M340.72,-197C413.86,-197 434.84,-191.59 502.68,-191.04"/>
<polygon fill="black" stroke="black" points="502.49,-194.55 512.48,-191.01 502.46,-187.55 502.49,-194.55"/>
</g>
<!-- N3_&#45;&gt;NamesState -->
<g id="edge6" class="edge">
<title>N3_:e&#45;&gt;NamesState</title>
<path fill="none" stroke="black" d="M628.46,-191C648.94,-191 670.71,-185.98 689.64,-179.85"/>
<polygon fill="black" stroke="black" points="690.67,-183.19 698.99,-176.63 688.4,-176.57 690.67,-183.19"/>
</g>
<!-- N4_ -->
<g id="node10" class="node">
<title>N4_</title>
<polygon fill="none" stroke="black" points="622.35,-273 508.1,-273 508.1,-249 622.35,-249 634.35,-261 622.35,-273"/>
<text xml:space="preserve" text-anchor="middle" x="571.22" y="-255.2" font-family="Sans-Serif" font-size="14.00">names_of_scalars</text>
</g>
<!-- N4&#45;&gt;N4_ -->
<g id="edge7" class="edge">
<title>N4:e&#45;&gt;N4_:w</title>
<path fill="none" stroke="black" d="M299.47,-273C387.91,-273 412.49,-261.99 495.56,-261.06"/>
<polygon fill="black" stroke="black" points="495.34,-264.56 505.32,-261.01 495.3,-257.56 495.34,-264.56"/>
</g>
<!-- N4_&#45;&gt;NamesState -->
<g id="edge8" class="edge">
<title>N4_:e&#45;&gt;NamesState</title>
<path fill="none" stroke="black" d="M635.62,-261C676.93,-261 708.27,-220.35 725.86,-190.13"/>
<polygon fill="black" stroke="black" points="728.76,-192.11 730.56,-181.67 722.64,-188.71 728.76,-192.11"/>
</g>
</g>
</svg>
