<?xml version="1.0" encoding="UTF-8" standalone="no"?>
<!DOCTYPE svg PUBLIC "-//W3C//DTD SVG 1.1//EN"
 "http://www.w3.org/Graphics/SVG/1.1/DTD/svg11.dtd">
<!-- Generated by graphviz version 14.0.2 (20251019.1705)
 -->
<!-- Pages: 1 -->
<svg width="2151pt" height="399pt"
 viewBox="0.00 0.00 2151.00 399.00" xmlns="http://www.w3.org/2000/svg" xmlns:xlink="http://www.w3.org/1999/xlink">
<g id="graph0" class="graph" transform="scale(1 1) rotate(0) translate(4 395)">
<polygon fill="white" stroke="none" points="-4,4 -4,-395 2147.4,-395 2147.4,4 -4,4"/>
<g id="clust1" class="cluster">
<title>cluster_source</title>
</g>
<g id="clust2" class="cluster">
<title>cluster_all</title>
<polygon fill="none" stroke="black" points="130.5,-8 130.5,-383 2135.4,-383 2135.4,-8 130.5,-8"/>
<text xml:space="preserve" text-anchor="middle" x="1132.95" y="-352.4" font-family="Sans-Serif" font-size="28.00">Scalar</text>
</g>
<!-- EMPTY -->
<g id="node1" class="node">
<title>EMPTY</title>
<ellipse fill="black" stroke="black" cx="59.25" cy="-177" rx="1.8" ry="1.8"/>
</g>
<!-- X10 -->
<g id="node11" class="node">
<title>X10</title>
<polygon fill="none" stroke="black" stroke-dasharray="1,5" points="1350.75,-66 138.5,-66 138.5,-16 1350.75,-16 1350.75,-66"/>
<text xml:space="preserve" text-anchor="start" x="381.62" y="-49.7" font-family="Courier,monospace" font-size="14.00">@ row_axis = row_value @ column_axis = column_value :: matrix_property </text>
<text xml:space="preserve" text-anchor="start" x="967.38" y="-49.7" font-family="Courier,monospace" font-size="14.00" fill="gray">|| default_value </text>
<text xml:space="preserve" text-anchor="start" x="740.5" y="-35.7" font-family="Courier,monospace" font-size="14.00"> </text>
<text xml:space="preserve" text-anchor="start" x="146.5" y="-21.7" font-family="Courier,monospace" font-size="14.00">Axis(rows_axis) |&gt; IsEqual(row_value) |&gt; Axis(columns_axis) |&gt; IsEqual(column_value) |&gt; LookupMatrix(matrix_property) </text>
<text xml:space="preserve" text-anchor="start" x="1120" y="-21.7" font-family="Courier,monospace" font-size="14.00" fill="gray">|&gt; IfMissing(default_value)</text>
</g>
<!-- EMPTY&#45;&gt;X10 -->
<g id="edge18" class="edge">
<title>EMPTY&#45;&gt;X10:w</title>
<path fill="none" stroke="black" d="M60.38,-175.08C61.57,-159.55 71.55,-54.86 126.34,-42.24"/>
<polygon fill="black" stroke="black" points="126.45,-45.75 136,-41.17 125.67,-38.8 126.45,-45.75"/>
</g>
<!-- X5 -->
<g id="node13" class="node">
<title>X5</title>
<polygon fill="none" stroke="black" stroke-dasharray="1,5" points="1119.75,-134 369.5,-134 369.5,-84 1119.75,-84 1119.75,-134"/>
<text xml:space="preserve" text-anchor="start" x="538.38" y="-117.7" font-family="Courier,monospace" font-size="14.00">@ axis = value : vector_property </text>
<text xml:space="preserve" text-anchor="start" x="810.62" y="-117.7" font-family="Courier,monospace" font-size="14.00" fill="gray"> || default_value</text>
<text xml:space="preserve" text-anchor="start" x="740.5" y="-103.7" font-family="Courier,monospace" font-size="14.00"> </text>
<text xml:space="preserve" text-anchor="start" x="377.5" y="-89.7" font-family="Courier,monospace" font-size="14.00">LookupVector(vector_property) </text>
<text xml:space="preserve" text-anchor="start" x="625" y="-89.7" font-family="Courier,monospace" font-size="14.00" fill="gray">|&gt; IfMissing(default_value)</text>
<text xml:space="preserve" text-anchor="start" x="847.75" y="-89.7" font-family="Courier,monospace" font-size="14.00"> |&gt; Axis(axis) |&gt; IsEqual(value)</text>
</g>
<!-- EMPTY&#45;&gt;X5 -->
<g id="edge16" class="edge">
<title>EMPTY&#45;&gt;X5:w</title>
<path fill="none" stroke="black" d="M61.19,-176.4C67.17,-172.64 100.44,-152.18 130.5,-143 229,-112.93 259.46,-109.24 357.22,-109.01"/>
<polygon fill="black" stroke="black" points="356.99,-112.51 366.99,-109 356.98,-105.51 356.99,-112.51"/>
</g>
<!-- X6 -->
<g id="node15" class="node">
<title>X6</title>
<polygon fill="none" stroke="black" stroke-dasharray="1,5" points="987.75,-202 501.5,-202 501.5,-152 987.75,-152 987.75,-202"/>
<text xml:space="preserve" text-anchor="start" x="604.38" y="-185.7" font-family="Courier,monospace" font-size="14.00">. scalar_property </text>
<text xml:space="preserve" text-anchor="start" x="752.88" y="-185.7" font-family="Courier,monospace" font-size="14.00" fill="gray">|| default_value</text>
<text xml:space="preserve" text-anchor="start" x="740.5" y="-171.7" font-family="Courier,monospace" font-size="14.00"> </text>
<text xml:space="preserve" text-anchor="start" x="509.5" y="-157.7" font-family="Courier,monospace" font-size="14.00">LookupScalar(scalar_property) </text>
<text xml:space="preserve" text-anchor="start" x="757" y="-157.7" font-family="Courier,monospace" font-size="14.00" fill="gray">|&gt; IfMissing(default_value)</text>
</g>
<!-- EMPTY&#45;&gt;X6 -->
<g id="edge17" class="edge">
<title>EMPTY&#45;&gt;X6:w</title>
<path fill="none" stroke="black" d="M61.35,-177C78.92,-177 303.23,-177 489.16,-177"/>
<polygon fill="black" stroke="black" points="488.99,-180.5 498.99,-177 488.99,-173.5 488.99,-180.5"/>
</g>
<!-- VectorState -->
<g id="node2" class="node">
<title>VectorState</title>
<polygon fill="none" stroke="black" points="102.5,-233 16,-233 16,-197 102.5,-197 102.5,-233"/>
<text xml:space="preserve" text-anchor="middle" x="59.25" y="-209.2" font-family="Sans-Serif" font-size="14.00">VectorState</text>
</g>
<!-- X8 -->
<g id="node9" class="node">
<title>X8</title>
<polygon fill="none" stroke="black" stroke-dasharray="1,5" points="987.75,-270 501.5,-270 501.5,-220 987.75,-220 987.75,-270"/>
<text xml:space="preserve" text-anchor="start" x="559" y="-253.7" font-family="Courier,monospace" font-size="14.00">&gt;&gt; Reduction </text>
<text xml:space="preserve" text-anchor="start" x="666.25" y="-253.7" font-family="Courier,monospace" font-size="14.00" fill="gray">param value ... || default_value</text>
<text xml:space="preserve" text-anchor="start" x="740.5" y="-239.7" font-family="Courier,monospace" font-size="14.00"> </text>
<text xml:space="preserve" text-anchor="start" x="509.5" y="-225.7" font-family="Courier,monospace" font-size="14.00">Reduction(</text>
<text xml:space="preserve" text-anchor="start" x="592" y="-225.7" font-family="Courier,monospace" font-size="14.00" fill="gray">param = value, ...</text>
<text xml:space="preserve" text-anchor="start" x="740.5" y="-225.7" font-family="Courier,monospace" font-size="14.00">) </text>
<text xml:space="preserve" text-anchor="start" x="757" y="-225.7" font-family="Courier,monospace" font-size="14.00" fill="gray">|&gt; IfMissing(default_value)</text>
</g>
<!-- VectorState&#45;&gt;X8 -->
<g id="edge15" class="edge">
<title>VectorState&#45;&gt;X8:w</title>
<path fill="none" stroke="black" d="M102.99,-219.85C179.58,-228.13 345.65,-244.16 489.32,-244.97"/>
<polygon fill="black" stroke="black" points="488.98,-248.47 498.99,-245 489,-241.47 488.98,-248.47"/>
</g>
<!-- MatrixState -->
<g id="node3" class="node">
<title>MatrixState</title>
<polygon fill="none" stroke="black" points="101.75,-287 16.75,-287 16.75,-251 101.75,-251 101.75,-287"/>
<text xml:space="preserve" text-anchor="middle" x="59.25" y="-263.2" font-family="Sans-Serif" font-size="14.00">MatrixState</text>
</g>
<!-- X9 -->
<g id="node7" class="node">
<title>X9</title>
<polygon fill="none" stroke="black" stroke-dasharray="1,5" points="987.75,-338 501.5,-338 501.5,-288 987.75,-288 987.75,-338"/>
<text xml:space="preserve" text-anchor="start" x="575.5" y="-321.7" font-family="Courier,monospace" font-size="14.00">&gt;&gt; Reduction </text>
<text xml:space="preserve" text-anchor="start" x="682.75" y="-321.7" font-family="Courier,monospace" font-size="14.00" fill="gray">param value || default_value</text>
<text xml:space="preserve" text-anchor="start" x="740.5" y="-307.7" font-family="Courier,monospace" font-size="14.00"> </text>
<text xml:space="preserve" text-anchor="start" x="509.5" y="-293.7" font-family="Courier,monospace" font-size="14.00">Reduction(</text>
<text xml:space="preserve" text-anchor="start" x="592" y="-293.7" font-family="Courier,monospace" font-size="14.00" fill="gray">param = value, ...</text>
<text xml:space="preserve" text-anchor="start" x="740.5" y="-293.7" font-family="Courier,monospace" font-size="14.00">) </text>
<text xml:space="preserve" text-anchor="start" x="757" y="-293.7" font-family="Courier,monospace" font-size="14.00" fill="gray">|&gt; IfMissing(default_value)</text>
</g>
<!-- MatrixState&#45;&gt;X9 -->
<g id="edge14" class="edge">
<title>MatrixState&#45;&gt;X9:w</title>
<path fill="none" stroke="black" d="M102,-275.97C178.04,-288.06 344.66,-311.76 489.25,-312.95"/>
<polygon fill="black" stroke="black" points="488.97,-316.45 498.99,-312.99 489,-309.45 488.97,-316.45"/>
</g>
<!-- ScalarState -->
<g id="node4" class="node">
<title>ScalarState</title>
<polygon fill="none" stroke="black" points="1711.9,-169.54 1711.9,-184.46 1676.56,-195 1626.59,-195 1591.25,-184.46 1591.25,-169.54 1626.59,-159 1676.56,-159 1711.9,-169.54"/>
<polygon fill="none" stroke="black" points="1715.9,-166.56 1715.9,-187.44 1677.15,-199 1626,-199 1587.25,-187.44 1587.25,-166.56 1626,-155 1677.15,-155 1715.9,-166.56"/>
<text xml:space="preserve" text-anchor="middle" x="1651.57" y="-171.2" font-family="Sans-Serif" font-size="14.00">ScalarState</text>
</g>
<!-- X7 -->
<g id="node5" class="node">
<title>X7</title>
<polygon fill="none" stroke="black" stroke-dasharray="1,5" points="1990.65,-224 1751.9,-224 1751.9,-174 1990.65,-174 1990.65,-224"/>
<text xml:space="preserve" text-anchor="start" x="1768.15" y="-207.7" font-family="Courier,monospace" font-size="14.00">% Eltwise </text>
<text xml:space="preserve" text-anchor="start" x="1850.65" y="-207.7" font-family="Courier,monospace" font-size="14.00" fill="gray">param value ...</text>
<text xml:space="preserve" text-anchor="start" x="1867.15" y="-193.7" font-family="Courier,monospace" font-size="14.00"> </text>
<text xml:space="preserve" text-anchor="start" x="1759.9" y="-179.7" font-family="Courier,monospace" font-size="14.00">Eltwise(</text>
<text xml:space="preserve" text-anchor="start" x="1825.9" y="-179.7" font-family="Courier,monospace" font-size="14.00" fill="gray">param = value, ...</text>
<text xml:space="preserve" text-anchor="start" x="1974.4" y="-179.7" font-family="Courier,monospace" font-size="14.00">)</text>
</g>
<!-- ScalarState&#45;&gt;X7 -->
<g id="edge1" class="edge">
<title>ScalarState&#45;&gt;X7:w</title>
<path fill="none" stroke="black" d="M1701.36,-192.22C1713.69,-195.15 1727.2,-197.6 1740.4,-198.56"/>
<polygon fill="black" stroke="black" points="1740.26,-202.06 1750.39,-198.94 1740.53,-195.07 1740.26,-202.06"/>
</g>
<!-- X7_ -->
<g id="node6" class="node">
<title>X7_</title>
<polygon fill="none" stroke="black" points="2115.4,-198 2026.65,-198 2026.65,-174 2115.4,-174 2127.4,-186 2115.4,-198"/>
<text xml:space="preserve" text-anchor="middle" x="2077.02" y="-180.2" font-family="Sans-Serif" font-size="14.00">eltwise_scalar</text>
</g>
<!-- X7&#45;&gt;X7_ -->
<g id="edge2" class="edge">
<title>X7:e&#45;&gt;X7_:w</title>
<path fill="none" stroke="black" d="M1990.65,-199C2003.01,-199 2007.43,-192.14 2015.45,-188.38"/>
<polygon fill="black" stroke="black" points="2016.12,-191.82 2025.17,-186.32 2014.66,-184.97 2016.12,-191.82"/>
</g>
<!-- X7_&#45;&gt;ScalarState -->
<g id="edge3" class="edge">
<title>X7_:se&#45;&gt;ScalarState</title>
<path fill="none" stroke="black" d="M2096.26,-167.76C2206.21,-57.81 1867.03,-126.97 1718.55,-161.16"/>
<polygon fill="black" stroke="black" points="1718.19,-157.65 1709.24,-163.32 1719.78,-164.47 1718.19,-157.65"/>
</g>
<!-- X9_ -->
<g id="node8" class="node">
<title>X9_</title>
<polygon fill="none" stroke="black" points="1539.25,-314 1386.75,-314 1386.75,-290 1539.25,-290 1551.25,-302 1539.25,-314"/>
<text xml:space="preserve" text-anchor="middle" x="1469" y="-296.2" font-family="Sans-Serif" font-size="14.00">reduce_matrix_to_scalar</text>
</g>
<!-- X9&#45;&gt;X9_ -->
<g id="edge4" class="edge">
<title>X9:e&#45;&gt;X9_:w</title>
<path fill="none" stroke="black" d="M988.75,-313C1161.82,-313 1207.79,-302.48 1375.28,-302.02"/>
<polygon fill="black" stroke="black" points="1375.24,-305.52 1385.24,-302 1375.23,-298.52 1375.24,-305.52"/>
</g>
<!-- X9_&#45;&gt;ScalarState -->
<g id="edge5" class="edge">
<title>X9_:e&#45;&gt;ScalarState</title>
<path fill="none" stroke="black" d="M1551.25,-302C1598.22,-302 1626.53,-247.22 1640.3,-210.19"/>
<polygon fill="black" stroke="black" points="1643.6,-211.37 1643.61,-200.78 1636.99,-209.05 1643.6,-211.37"/>
</g>
<!-- X8_ -->
<g id="node10" class="node">
<title>X8_</title>
<polygon fill="none" stroke="black" points="1538.88,-250 1387.12,-250 1387.12,-226 1538.88,-226 1550.88,-238 1538.88,-250"/>
<text xml:space="preserve" text-anchor="middle" x="1469" y="-232.2" font-family="Sans-Serif" font-size="14.00">reduce_vector_to_scalar</text>
</g>
<!-- X8&#45;&gt;X8_ -->
<g id="edge6" class="edge">
<title>X8:e&#45;&gt;X8_:w</title>
<path fill="none" stroke="black" d="M988.75,-245C1161.78,-245 1207.83,-238.3 1375.28,-238.01"/>
<polygon fill="black" stroke="black" points="1375.24,-241.51 1385.24,-238 1375.23,-234.51 1375.24,-241.51"/>
</g>
<!-- X8_&#45;&gt;ScalarState -->
<g id="edge7" class="edge">
<title>X8_:e&#45;&gt;ScalarState</title>
<path fill="none" stroke="black" d="M1551.25,-238C1577.51,-238 1602.67,-222.33 1621.09,-206.87"/>
<polygon fill="black" stroke="black" points="1623.27,-209.62 1628.44,-200.37 1618.63,-204.37 1623.27,-209.62"/>
</g>
<!-- X10_ -->
<g id="node12" class="node">
<title>X10_</title>
<polygon fill="none" stroke="black" points="1526.12,-63 1399.88,-63 1399.88,-39 1526.12,-39 1538.12,-51 1526.12,-63"/>
<text xml:space="preserve" text-anchor="middle" x="1469" y="-45.2" font-family="Sans-Serif" font-size="14.00">lookup_matrix_entry</text>
</g>
<!-- X10&#45;&gt;X10_ -->
<g id="edge8" class="edge">
<title>X10:e&#45;&gt;X10_:w</title>
<path fill="none" stroke="black" d="M1350.75,-41C1368.06,-41 1374.36,-47.35 1387.2,-49.93"/>
<polygon fill="black" stroke="black" points="1386.79,-53.41 1397.08,-50.86 1387.45,-46.44 1386.79,-53.41"/>
</g>
<!-- X10_&#45;&gt;ScalarState -->
<g id="edge9" class="edge">
<title>X10_:e&#45;&gt;ScalarState</title>
<path fill="none" stroke="black" d="M1539.42,-51C1589.2,-51 1622,-106.99 1638.35,-144.33"/>
<polygon fill="black" stroke="black" points="1635.04,-145.49 1642.12,-153.37 1641.5,-142.79 1635.04,-145.49"/>
</g>
<!-- X5_ -->
<g id="node14" class="node">
<title>X5_</title>
<polygon fill="none" stroke="black" points="1525.75,-128 1400.25,-128 1400.25,-104 1525.75,-104 1537.75,-116 1525.75,-128"/>
<text xml:space="preserve" text-anchor="middle" x="1469" y="-110.2" font-family="Sans-Serif" font-size="14.00">lookup_vector_entry</text>
</g>
<!-- X5&#45;&gt;X5_ -->
<g id="edge10" class="edge">
<title>X5:e&#45;&gt;X5_:w</title>
<path fill="none" stroke="black" d="M1120.75,-109C1240.57,-109 1273.25,-115.57 1387.63,-115.98"/>
<polygon fill="black" stroke="black" points="1387.44,-119.48 1397.45,-116 1387.45,-112.48 1387.44,-119.48"/>
</g>
<!-- X5_&#45;&gt;ScalarState -->
<g id="edge11" class="edge">
<title>X5_:e&#45;&gt;ScalarState</title>
<path fill="none" stroke="black" d="M1539.04,-116C1567.94,-116 1596.46,-131.96 1617.42,-147.55"/>
<polygon fill="black" stroke="black" points="1615.26,-150.31 1625.3,-153.7 1619.57,-144.79 1615.26,-150.31"/>
</g>
<!-- X6_ -->
<g id="node16" class="node">
<title>X6_</title>
<polygon fill="none" stroke="black" points="1506.62,-189 1419.38,-189 1419.38,-165 1506.62,-165 1518.62,-177 1506.62,-189"/>
<text xml:space="preserve" text-anchor="middle" x="1469" y="-171.2" font-family="Sans-Serif" font-size="14.00">lookup_scalar</text>
</g>
<!-- X6&#45;&gt;X6_ -->
<g id="edge12" class="edge">
<title>X6:e&#45;&gt;X6_:w</title>
<path fill="none" stroke="black" d="M988.75,-177C1175.67,-177 1225.21,-177 1406.62,-177"/>
<polygon fill="black" stroke="black" points="1406.4,-180.5 1416.4,-177 1406.4,-173.5 1406.4,-180.5"/>
</g>
<!-- X6_&#45;&gt;ScalarState -->
<g id="edge13" class="edge">
<title>X6_:e&#45;&gt;ScalarState</title>
<path fill="none" stroke="black" d="M1520.09,-177C1538.01,-177 1557.32,-177 1575.45,-177"/>
<polygon fill="black" stroke="black" points="1575.35,-180.5 1585.35,-177 1575.35,-173.5 1575.35,-180.5"/>
</g>
</g>
</svg>
