<?xml version="1.0" encoding="UTF-8" standalone="no"?>
<!DOCTYPE svg PUBLIC "-//W3C//DTD SVG 1.1//EN"
 "http://www.w3.org/Graphics/SVG/1.1/DTD/svg11.dtd">
<!-- Generated by graphviz version 14.0.2 (20251019.1705)
 -->
<!-- Pages: 1 -->
<svg width="2606pt" height="331pt"
 viewBox="0.00 0.00 2606.00 331.00" xmlns="http://www.w3.org/2000/svg" xmlns:xlink="http://www.w3.org/1999/xlink">
<g id="graph0" class="graph" transform="scale(1 1) rotate(0) translate(4 327)">
<polygon fill="white" stroke="none" points="-4,4 -4,-327 2601.5,-327 2601.5,4 -4,4"/>
<g id="clust1" class="cluster">
<title>cluster_component</title>
<polygon fill="none" stroke="black" points="153.5,-8 153.5,-315 2449.25,-315 2449.25,-8 153.5,-8"/>
<text xml:space="preserve" text-anchor="middle" x="1301.38" y="-284.4" font-family="Sans-Serif" font-size="28.00">VectorGroup</text>
</g>
<!-- ..., vector_is_axis -->
<g id="node1" class="node">
<title>..., vector_is_axis</title>
<polygon fill="none" stroke="black" points="2597.5,-83 2477.25,-83 2477.25,-33 2597.5,-33 2597.5,-83"/>
<text xml:space="preserve" text-anchor="start" x="2531.75" y="-66.7" font-family="Sans-Serif" font-size="14.00">...</text>
<text xml:space="preserve" text-anchor="start" x="2485.25" y="-52.7" font-family="Sans-Serif" font-size="14.00">VectorState </text>
<text xml:space="preserve" text-anchor="start" x="2559.5" y="-52.7" font-family="Sans-Serif" font-style="italic" baseline-shift="sub" font-size="14.00" fill="gray">axis   </text>
<text xml:space="preserve" text-anchor="start" x="2535.5" y="-38.7" font-family="Sans-Serif" font-size="14.00"> </text>
</g>
<!-- ..., VectorState -->
<g id="node2" class="node">
<title>..., VectorState</title>
<polygon fill="none" stroke="black" points="2580.62,-145 2494.12,-145 2494.12,-107 2580.62,-107 2580.62,-145"/>
<text xml:space="preserve" text-anchor="start" x="2531.75" y="-127.7" font-family="Sans-Serif" font-size="14.00">...</text>
<text xml:space="preserve" text-anchor="start" x="2502.12" y="-112.7" font-family="Sans-Serif" font-size="14.00">VectorState</text>
</g>
<!-- ..., base_vector -->
<g id="node3" class="node">
<title>..., base_vector</title>
<polygon fill="none" stroke="black" points="125.5,-168 0,-168 0,-118 125.5,-118 125.5,-168"/>
<text xml:space="preserve" text-anchor="start" x="57.12" y="-151.7" font-family="Sans-Serif" font-size="14.00">...</text>
<text xml:space="preserve" text-anchor="start" x="8" y="-137.7" font-family="Sans-Serif" font-size="14.00">VectorState </text>
<text xml:space="preserve" text-anchor="start" x="82.25" y="-137.7" font-family="Sans-Serif" font-style="italic" baseline-shift="sub" font-size="14.00" fill="gray">base   </text>
<text xml:space="preserve" text-anchor="start" x="60.88" y="-123.7" font-family="Sans-Serif" font-size="14.00"> </text>
</g>
<!-- VG1 -->
<g id="node5" class="node">
<title>VG1</title>
<polygon fill="none" stroke="black" stroke-dasharray="1,5" points="1184,-66 161.5,-66 161.5,-16 1184,-16 1184,-66"/>
<text xml:space="preserve" text-anchor="start" x="412.88" y="-49.7" font-family="Courier,monospace" font-size="14.00">/ matrix_property </text>
<text xml:space="preserve" text-anchor="start" x="561.38" y="-49.7" font-family="Courier,monospace" font-size="14.00" fill="gray">|| default_value</text>
<text xml:space="preserve" text-anchor="start" x="693.38" y="-49.7" font-family="Courier,monospace" font-size="14.00"> @ columns_axis = column_name</text>
<text xml:space="preserve" text-anchor="start" x="668.62" y="-35.7" font-family="Courier,monospace" font-size="14.00"> </text>
<text xml:space="preserve" text-anchor="start" x="169.5" y="-21.7" font-family="Courier,monospace" font-size="14.00" fill="gray">IfEmpty(final_value) |&gt;</text>
<text xml:space="preserve" text-anchor="start" x="359.25" y="-21.7" font-family="Courier,monospace" font-size="14.00"> GroupBy(matrix_property) </text>
<text xml:space="preserve" text-anchor="start" x="573.75" y="-21.7" font-family="Courier,monospace" font-size="14.00" fill="gray">|&gt; IfMissing(default_value)</text>
<text xml:space="preserve" text-anchor="start" x="796.5" y="-21.7" font-family="Courier,monospace" font-size="14.00"> |&gt; Axis(columns_axis) |&gt; IsEqual(column_name)</text>
</g>
<!-- ..., base_vector&#45;&gt;VG1 -->
<g id="edge16" class="edge">
<title>..., base_vector&#45;&gt;VG1:w</title>
<path fill="none" stroke="black" d="M74.48,-117.52C87.79,-90.03 113.25,-49.19 149.46,-42.08"/>
<polygon fill="black" stroke="black" points="149.38,-45.6 158.99,-41.15 148.7,-38.63 149.38,-45.6"/>
</g>
<!-- VG2 -->
<g id="node7" class="node">
<title>VG2</title>
<polygon fill="none" stroke="black" stroke-dasharray="1,5" points="1047.88,-134 297.62,-134 297.62,-84 1047.88,-84 1047.88,-134"/>
<text xml:space="preserve" text-anchor="start" x="441.75" y="-117.7" font-family="Courier,monospace" font-size="14.00">/ square_matrix_property </text>
<text xml:space="preserve" text-anchor="start" x="648" y="-117.7" font-family="Courier,monospace" font-size="14.00" fill="gray">|| default_value</text>
<text xml:space="preserve" text-anchor="start" x="780" y="-117.7" font-family="Courier,monospace" font-size="14.00"> |= column_name</text>
<text xml:space="preserve" text-anchor="start" x="668.62" y="-103.7" font-family="Courier,monospace" font-size="14.00"> </text>
<text xml:space="preserve" text-anchor="start" x="305.62" y="-89.7" font-family="Courier,monospace" font-size="14.00">GroupBy(square_matrix_property) </text>
<text xml:space="preserve" text-anchor="start" x="569.62" y="-89.7" font-family="Courier,monospace" font-size="14.00" fill="gray">|&gt; IfMissing(default_value)</text>
<text xml:space="preserve" text-anchor="start" x="792.38" y="-89.7" font-family="Courier,monospace" font-size="14.00"> |&gt; ColumnIsEqual(column_name)</text>
</g>
<!-- ..., base_vector&#45;&gt;VG2 -->
<g id="edge17" class="edge">
<title>..., base_vector&#45;&gt;VG2:w</title>
<path fill="none" stroke="black" d="M125.66,-128.97C169.37,-120.21 229.79,-110.36 285.24,-109.13"/>
<polygon fill="black" stroke="black" points="285.15,-112.63 295.11,-109.02 285.07,-105.63 285.15,-112.63"/>
</g>
<!-- VG3 -->
<g id="node9" class="node">
<title>VG3</title>
<polygon fill="none" stroke="black" stroke-dasharray="1,5" points="1023.12,-202 322.38,-202 322.38,-152 1023.12,-152 1023.12,-202"/>
<text xml:space="preserve" text-anchor="start" x="454.12" y="-185.7" font-family="Courier,monospace" font-size="14.00">/ square_matrix_property </text>
<text xml:space="preserve" text-anchor="start" x="660.38" y="-185.7" font-family="Courier,monospace" font-size="14.00" fill="gray">|| default_value</text>
<text xml:space="preserve" text-anchor="start" x="792.38" y="-185.7" font-family="Courier,monospace" font-size="14.00"> &#45;= row_name</text>
<text xml:space="preserve" text-anchor="start" x="668.62" y="-171.7" font-family="Courier,monospace" font-size="14.00"> </text>
<text xml:space="preserve" text-anchor="start" x="330.38" y="-157.7" font-family="Courier,monospace" font-size="14.00">GroupBy(square_matrix_property) </text>
<text xml:space="preserve" text-anchor="start" x="594.38" y="-157.7" font-family="Courier,monospace" font-size="14.00" fill="gray">|&gt; IfMissing(default_value) |&gt;</text>
<text xml:space="preserve" text-anchor="start" x="841.88" y="-157.7" font-family="Courier,monospace" font-size="14.00"> RowIsEqual(row_name)</text>
</g>
<!-- ..., base_vector&#45;&gt;VG3 -->
<g id="edge18" class="edge">
<title>..., base_vector&#45;&gt;VG3:w</title>
<path fill="none" stroke="black" d="M125.92,-155.85C174.96,-164.94 245.6,-175.7 309.87,-176.89"/>
<polygon fill="black" stroke="black" points="309.83,-180.39 319.86,-176.99 309.89,-173.39 309.83,-180.39"/>
</g>
<!-- VG4 -->
<g id="node11" class="node">
<title>VG4</title>
<polygon fill="none" stroke="black" stroke-dasharray="1,5" points="998.38,-270 347.12,-270 347.12,-220 998.38,-220 998.38,-270"/>
<text xml:space="preserve" text-anchor="start" x="532.5" y="-253.7" font-family="Courier,monospace" font-size="14.00">/ vector_property </text>
<text xml:space="preserve" text-anchor="start" x="681" y="-253.7" font-family="Courier,monospace" font-size="14.00" fill="gray">|| default_value</text>
<text xml:space="preserve" text-anchor="start" x="668.62" y="-239.7" font-family="Courier,monospace" font-size="14.00"> </text>
<text xml:space="preserve" text-anchor="start" x="355.12" y="-225.7" font-family="Courier,monospace" font-size="14.00" fill="gray"> IfEmpty(final_value) |&gt; </text>
<text xml:space="preserve" text-anchor="start" x="561.38" y="-225.7" font-family="Courier,monospace" font-size="14.00">GroupBy(vector_property)</text>
<text xml:space="preserve" text-anchor="start" x="759.38" y="-225.7" font-family="Courier,monospace" font-size="14.00" fill="gray"> |&gt; IfMissing(default_value)</text>
</g>
<!-- ..., base_vector&#45;&gt;VG4 -->
<g id="edge19" class="edge">
<title>..., base_vector&#45;&gt;VG4:w</title>
<path fill="none" stroke="black" d="M90.26,-168.48C107.08,-183.19 130.03,-200.76 153.5,-211 229.6,-244.21 256.74,-245 334.77,-245"/>
<polygon fill="black" stroke="black" points="334.61,-248.5 344.61,-245 334.61,-241.5 334.61,-248.5"/>
</g>
<!-- ..., VectorState, GroupBy, VectorState -->
<g id="node4" class="node">
<title>..., VectorState, GroupBy, VectorState</title>
<polygon fill="none" stroke="black" points="1609,-172 1473,-172 1473,-80 1609,-80 1609,-172"/>
<text xml:space="preserve" text-anchor="start" x="1535.38" y="-155.7" font-family="Sans-Serif" font-size="14.00">...</text>
<text xml:space="preserve" text-anchor="start" x="1486.25" y="-141.7" font-family="Sans-Serif" font-size="14.00">VectorState </text>
<text xml:space="preserve" text-anchor="start" x="1560.5" y="-141.7" font-family="Sans-Serif" font-style="italic" baseline-shift="sub" font-size="14.00" fill="gray">base   </text>
<text xml:space="preserve" text-anchor="start" x="1539.12" y="-127.7" font-family="Sans-Serif" font-size="14.00"> </text>
<text xml:space="preserve" text-anchor="start" x="1514" y="-113.7" font-family="Sans-Serif" font-size="14.00">GroupBy</text>
<text xml:space="preserve" text-anchor="start" x="1481" y="-99.7" font-family="Sans-Serif" font-size="14.00">VectorState </text>
<text xml:space="preserve" text-anchor="start" x="1555.25" y="-99.7" font-family="Sans-Serif" font-style="italic" baseline-shift="sub" font-size="14.00" fill="gray">groups   </text>
<text xml:space="preserve" text-anchor="start" x="1539.12" y="-85.7" font-family="Sans-Serif" font-size="14.00"> </text>
</g>
<!-- VectorAxis -->
<g id="node14" class="node">
<title>VectorAxis</title>
<polygon fill="none" stroke="black" points="1986.12,-205 1905.62,-205 1905.62,-201 1901.62,-201 1901.62,-197 1905.62,-197 1905.62,-177 1901.62,-177 1901.62,-173 1905.62,-173 1905.62,-169 1986.12,-169 1986.12,-205"/>
<polyline fill="none" stroke="black" points="1905.62,-201 1909.62,-201 1909.62,-197 1905.62,-197"/>
<polyline fill="none" stroke="black" points="1905.62,-177 1909.62,-177 1909.62,-173 1905.62,-173"/>
<text xml:space="preserve" text-anchor="middle" x="1945.88" y="-181.2" font-family="Sans-Serif" font-size="14.00">VectorAxis</text>
</g>
<!-- ..., VectorState, GroupBy, VectorState&#45;&gt;VectorAxis -->
<g id="edge9" class="edge">
<title>..., VectorState, GroupBy, VectorState&#45;&gt;VectorAxis</title>
<path fill="none" stroke="black" d="M1609.27,-150.65C1621.05,-154.26 1633.29,-157.57 1645,-160 1731.13,-177.85 1833.61,-183.9 1893.72,-185.95"/>
<polygon fill="black" stroke="black" points="1893.54,-189.44 1903.64,-186.26 1893.76,-182.45 1893.54,-189.44"/>
</g>
<!-- VG5 -->
<g id="node15" class="node">
<title>VG5</title>
<polygon fill="none" stroke="black" stroke-dasharray="1,5" points="2189,-151 1702.75,-151 1702.75,-101 2189,-101 2189,-151"/>
<text xml:space="preserve" text-anchor="start" x="1760.25" y="-134.7" font-family="Courier,monospace" font-size="14.00">&gt;&gt; Reduction </text>
<text xml:space="preserve" text-anchor="start" x="1867.5" y="-134.7" font-family="Courier,monospace" font-size="14.00" fill="gray">param value ... || default_value</text>
<text xml:space="preserve" text-anchor="start" x="1941.75" y="-120.7" font-family="Courier,monospace" font-size="14.00"> </text>
<text xml:space="preserve" text-anchor="start" x="1710.75" y="-106.7" font-family="Courier,monospace" font-size="14.00">Reduction(</text>
<text xml:space="preserve" text-anchor="start" x="1793.25" y="-106.7" font-family="Courier,monospace" font-size="14.00" fill="gray">param = value, ...</text>
<text xml:space="preserve" text-anchor="start" x="1941.75" y="-106.7" font-family="Courier,monospace" font-size="14.00">) </text>
<text xml:space="preserve" text-anchor="start" x="1958.25" y="-106.7" font-family="Courier,monospace" font-size="14.00" fill="gray">|&gt; IfMissing(default_value)</text>
</g>
<!-- ..., VectorState, GroupBy, VectorState&#45;&gt;VG5 -->
<g id="edge12" class="edge">
<title>..., VectorState, GroupBy, VectorState&#45;&gt;VG5:w</title>
<path fill="none" stroke="black" d="M1609.23,-126C1634.31,-126 1663.31,-126 1690.59,-126"/>
<polygon fill="black" stroke="black" points="1690.24,-129.5 1700.24,-126 1690.24,-122.5 1690.24,-129.5"/>
</g>
<!-- VG6 -->
<g id="node17" class="node">
<title>VG6</title>
<polygon fill="none" stroke="black" stroke-dasharray="1,5" points="2246.75,-83 1645,-83 1645,-33 2246.75,-33 2246.75,-83"/>
<text xml:space="preserve" text-anchor="start" x="1731.38" y="-66.7" font-family="Courier,monospace" font-size="14.00">@ </text>
<text xml:space="preserve" text-anchor="start" x="1747.88" y="-66.7" font-family="Courier,monospace" font-size="14.00" fill="gray">axis</text>
<text xml:space="preserve" text-anchor="start" x="1780.88" y="-66.7" font-family="Courier,monospace" font-size="14.00"> &gt;&gt; Reduction </text>
<text xml:space="preserve" text-anchor="start" x="1896.38" y="-66.7" font-family="Courier,monospace" font-size="14.00" fill="gray">param value ... || default_value</text>
<text xml:space="preserve" text-anchor="start" x="1941.75" y="-52.7" font-family="Courier,monospace" font-size="14.00"> </text>
<text xml:space="preserve" text-anchor="start" x="1653" y="-38.7" font-family="Courier,monospace" font-size="14.00">Axis(</text>
<text xml:space="preserve" text-anchor="start" x="1694.25" y="-38.7" font-family="Courier,monospace" font-size="14.00" fill="gray">axis</text>
<text xml:space="preserve" text-anchor="start" x="1727.25" y="-38.7" font-family="Courier,monospace" font-size="14.00">) |&gt; Reduction(</text>
<text xml:space="preserve" text-anchor="start" x="1851" y="-38.7" font-family="Courier,monospace" font-size="14.00" fill="gray">param = value, ...</text>
<text xml:space="preserve" text-anchor="start" x="1999.5" y="-38.7" font-family="Courier,monospace" font-size="14.00">) </text>
<text xml:space="preserve" text-anchor="start" x="2016" y="-38.7" font-family="Courier,monospace" font-size="14.00" fill="gray">|&gt; IfMissing(default_value)</text>
</g>
<!-- ..., VectorState, GroupBy, VectorState&#45;&gt;VG6 -->
<g id="edge14" class="edge">
<title>..., VectorState, GroupBy, VectorState&#45;&gt;VG6:w</title>
<path fill="none" stroke="black" d="M1588.3,-79.52C1601.71,-69.8 1617.18,-61.67 1633.54,-58.96"/>
<polygon fill="black" stroke="black" points="1633.82,-62.45 1643.49,-58.13 1633.23,-55.47 1633.82,-62.45"/>
</g>
<!-- VG1_ -->
<g id="node6" class="node">
<title>VG1_</title>
<polygon fill="none" stroke="black" points="1423.12,-61 1221.88,-61 1221.88,-37 1423.12,-37 1435.12,-49 1423.12,-61"/>
<text xml:space="preserve" text-anchor="middle" x="1328.5" y="-43.2" font-family="Sans-Serif" font-size="14.00">group_vector_by_matrix_column</text>
</g>
<!-- VG1&#45;&gt;VG1_ -->
<g id="edge1" class="edge">
<title>VG1:e&#45;&gt;VG1_:w</title>
<path fill="none" stroke="black" d="M1184,-41C1196.04,-41 1201.07,-45.22 1209.27,-47.53"/>
<polygon fill="black" stroke="black" points="1208.55,-50.97 1218.93,-48.8 1209.47,-44.03 1208.55,-50.97"/>
</g>
<!-- VG1_&#45;&gt;..., VectorState, GroupBy, VectorState -->
<g id="edge2" class="edge">
<title>VG1_:e&#45;&gt;..., VectorState, GroupBy, VectorState</title>
<path fill="none" stroke="black" d="M1436.57,-49C1457.54,-49 1477.01,-59.31 1493.27,-72.38"/>
<polygon fill="black" stroke="black" points="1490.96,-75.01 1500.81,-78.89 1495.53,-69.7 1490.96,-75.01"/>
</g>
<!-- VG2_ -->
<g id="node8" class="node">
<title>VG2_</title>
<polygon fill="none" stroke="black" points="1425,-124 1220,-124 1220,-100 1425,-100 1437,-112 1425,-124"/>
<text xml:space="preserve" text-anchor="middle" x="1328.5" y="-106.2" font-family="Sans-Serif" font-size="14.00">group_vector_by_square_column</text>
</g>
<!-- VG2&#45;&gt;VG2_ -->
<g id="edge3" class="edge">
<title>VG2:e&#45;&gt;VG2_:w</title>
<path fill="none" stroke="black" d="M1048.88,-109C1121.08,-109 1141.86,-111.7 1208.84,-111.98"/>
<polygon fill="black" stroke="black" points="1208.48,-115.48 1218.49,-112 1208.49,-108.48 1208.48,-115.48"/>
</g>
<!-- VG2_&#45;&gt;..., VectorState, GroupBy, VectorState -->
<g id="edge4" class="edge">
<title>VG2_:e&#45;&gt;..., VectorState, GroupBy, VectorState</title>
<path fill="none" stroke="black" d="M1437,-112C1444.85,-112 1453.01,-112.4 1461.14,-113.08"/>
<polygon fill="black" stroke="black" points="1460.79,-116.56 1471.08,-114.04 1461.46,-109.59 1460.79,-116.56"/>
</g>
<!-- VG3_ -->
<g id="node10" class="node">
<title>VG3_</title>
<polygon fill="none" stroke="black" points="1413.75,-185 1231.25,-185 1231.25,-161 1413.75,-161 1425.75,-173 1413.75,-185"/>
<text xml:space="preserve" text-anchor="middle" x="1328.5" y="-167.2" font-family="Sans-Serif" font-size="14.00">group_vector_by_square_row</text>
</g>
<!-- VG3&#45;&gt;VG3_ -->
<g id="edge5" class="edge">
<title>VG3:e&#45;&gt;VG3_:w</title>
<path fill="none" stroke="black" d="M1024.12,-177C1111.64,-177 1136.31,-173.34 1218.42,-173.02"/>
<polygon fill="black" stroke="black" points="1218.33,-176.52 1228.33,-173 1218.32,-169.52 1218.33,-176.52"/>
</g>
<!-- VG3_&#45;&gt;..., VectorState, GroupBy, VectorState -->
<g id="edge6" class="edge">
<title>VG3_:e&#45;&gt;..., VectorState, GroupBy, VectorState</title>
<path fill="none" stroke="black" d="M1427.16,-173C1438.74,-173 1450.51,-170.86 1461.86,-167.5"/>
<polygon fill="black" stroke="black" points="1462.77,-170.89 1471.16,-164.42 1460.57,-164.25 1462.77,-170.89"/>
</g>
<!-- VG4_ -->
<g id="node12" class="node">
<title>VG4_</title>
<polygon fill="none" stroke="black" points="1396.88,-249 1248.12,-249 1248.12,-225 1396.88,-225 1408.88,-237 1396.88,-249"/>
<text xml:space="preserve" text-anchor="middle" x="1328.5" y="-231.2" font-family="Sans-Serif" font-size="14.00">group_vector_by_vector</text>
</g>
<!-- VG4&#45;&gt;VG4_ -->
<g id="edge7" class="edge">
<title>VG4:e&#45;&gt;VG4_:w</title>
<path fill="none" stroke="black" d="M999.38,-245C1105.53,-245 1134.74,-237.55 1235.48,-237.03"/>
<polygon fill="black" stroke="black" points="1235.28,-240.53 1245.27,-237 1235.26,-233.53 1235.28,-240.53"/>
</g>
<!-- VG4_&#45;&gt;..., VectorState, GroupBy, VectorState -->
<g id="edge8" class="edge">
<title>VG4_:e&#45;&gt;..., VectorState, GroupBy, VectorState</title>
<path fill="none" stroke="black" d="M1410.21,-237C1448.2,-237 1480.68,-209.19 1503.64,-181.41"/>
<polygon fill="black" stroke="black" points="1506.35,-183.63 1509.82,-173.62 1500.86,-179.28 1506.35,-183.63"/>
</g>
<!-- VectorLookup -->
<g id="node13" class="node">
<title>VectorLookup</title>
<polygon fill="none" stroke="black" points="2411.62,-205 2312.38,-205 2312.38,-201 2308.38,-201 2308.38,-197 2312.38,-197 2312.38,-177 2308.38,-177 2308.38,-173 2312.38,-173 2312.38,-169 2411.62,-169 2411.62,-205"/>
<polyline fill="none" stroke="black" points="2312.38,-201 2316.38,-201 2316.38,-197 2312.38,-197"/>
<polyline fill="none" stroke="black" points="2312.38,-177 2316.38,-177 2316.38,-173 2312.38,-173"/>
<text xml:space="preserve" text-anchor="middle" x="2362" y="-181.2" font-family="Sans-Serif" font-size="14.00">VectorLookup</text>
</g>
<!-- VectorLookup&#45;&gt;..., VectorState, GroupBy, VectorState -->
<g id="edge11" class="edge">
<title>VectorLookup&#45;&gt;..., VectorState, GroupBy, VectorState</title>
<path fill="none" stroke="black" d="M2312.1,-201.23C2193.31,-233.22 1881.9,-301.42 1645,-214 1625.27,-206.72 1606.75,-193.78 1591.01,-180.03"/>
<polygon fill="black" stroke="black" points="1593.43,-177.5 1583.68,-173.36 1588.72,-182.68 1593.43,-177.5"/>
</g>
<!-- VectorAxis&#45;&gt;VectorLookup -->
<g id="edge10" class="edge">
<title>VectorAxis&#45;&gt;VectorLookup</title>
<path fill="none" stroke="black" d="M1986.58,-187C2059.36,-187 2214.51,-187 2300.49,-187"/>
<polygon fill="black" stroke="black" points="2300.38,-190.5 2310.38,-187 2300.38,-183.5 2300.38,-190.5"/>
</g>
<!-- VG5_ -->
<g id="node16" class="node">
<title>VG5_</title>
<polygon fill="none" stroke="black" points="2429.25,-138 2282.75,-138 2282.75,-114 2429.25,-114 2441.25,-126 2429.25,-138"/>
<text xml:space="preserve" text-anchor="middle" x="2362" y="-120.2" font-family="Sans-Serif" font-size="14.00">reduce_grouped_vector</text>
</g>
<!-- VG5&#45;&gt;VG5_ -->
<g id="edge13" class="edge">
<title>VG5:e&#45;&gt;VG5_:w</title>
<path fill="none" stroke="black" d="M2190,-126C2227.2,-126 2239.22,-126 2271.5,-126"/>
<polygon fill="black" stroke="black" points="2271.24,-129.5 2281.24,-126 2271.24,-122.5 2271.24,-129.5"/>
</g>
<!-- VG5_&#45;&gt;..., VectorState -->
<g id="edge21" class="edge">
<title>VG5_:e&#45;&gt;..., VectorState:w</title>
<path fill="none" stroke="black" d="M2442.58,-126C2460.66,-126 2467.83,-126 2481.64,-126"/>
<polygon fill="black" stroke="black" points="2481.61,-129.5 2491.61,-126 2481.61,-122.5 2481.61,-129.5"/>
</g>
<!-- VG6_ -->
<g id="node18" class="node">
<title>VG6_</title>
<polygon fill="none" stroke="black" points="2429.25,-70 2282.75,-70 2282.75,-46 2429.25,-46 2441.25,-58 2429.25,-70"/>
<text xml:space="preserve" text-anchor="middle" x="2362" y="-52.2" font-family="Sans-Serif" font-size="14.00">reduce_grouped_vector</text>
</g>
<!-- VG6&#45;&gt;VG6_ -->
<g id="edge15" class="edge">
<title>VG6:e&#45;&gt;VG6_:w</title>
<path fill="none" stroke="black" d="M2246.75,-58C2258.12,-58 2263.43,-58 2271.3,-58"/>
<polygon fill="black" stroke="black" points="2271.24,-61.5 2281.24,-58 2271.24,-54.5 2271.24,-61.5"/>
</g>
<!-- VG6_&#45;&gt;..., vector_is_axis -->
<g id="edge20" class="edge">
<title>VG6_:e&#45;&gt;..., vector_is_axis:w</title>
<path fill="none" stroke="black" d="M2442.58,-58C2453.42,-58 2458.54,-58 2465.98,-58"/>
<polygon fill="black" stroke="black" points="2465.74,-61.5 2475.74,-58 2465.74,-54.5 2465.74,-61.5"/>
</g>
</g>
</svg>
