<?xml version="1.0" encoding="UTF-8" standalone="no"?>
<!DOCTYPE svg PUBLIC "-//W3C//DTD SVG 1.1//EN"
 "http://www.w3.org/Graphics/SVG/1.1/DTD/svg11.dtd">
<!-- Generated by graphviz version 14.0.2 (20251019.1705)
 -->
<!-- Pages: 1 -->
<svg width="569pt" height="181pt"
 viewBox="0.00 0.00 569.00 181.00" xmlns="http://www.w3.org/2000/svg" xmlns:xlink="http://www.w3.org/1999/xlink">
<g id="graph0" class="graph" transform="scale(1 1) rotate(0) translate(4 177)">
<polygon fill="white" stroke="none" points="-4,4 -4,-177 564.5,-177 564.5,4 -4,4"/>
<g id="clust1" class="cluster">
<title>cluster_all</title>
<polygon fill="none" stroke="black" points="114.5,-8 114.5,-165 412.25,-165 412.25,-8 114.5,-8"/>
<text xml:space="preserve" text-anchor="middle" x="263.38" y="-134.4" font-family="Sans-Serif" font-size="28.00">VectorAxis</text>
</g>
<!-- ..., vector_is_axis -->
<g id="node1" class="node">
<title>..., vector_is_axis</title>
<polygon fill="none" stroke="black" points="560.5,-96 440.25,-96 440.25,-46 560.5,-46 560.5,-96"/>
<text xml:space="preserve" text-anchor="start" x="494.75" y="-79.7" font-family="Sans-Serif" font-size="14.00">...</text>
<text xml:space="preserve" text-anchor="start" x="448.25" y="-65.7" font-family="Sans-Serif" font-size="14.00">VectorState </text>
<text xml:space="preserve" text-anchor="start" x="522.5" y="-65.7" font-family="Sans-Serif" font-style="italic" baseline-shift="sub" font-size="14.00" fill="gray">axis   </text>
<text xml:space="preserve" text-anchor="start" x="498.5" y="-51.7" font-family="Sans-Serif" font-size="14.00"> </text>
</g>
<!-- ..., VectorState -->
<g id="node2" class="node">
<title>..., VectorState</title>
<polygon fill="none" stroke="black" points="86.5,-90 0,-90 0,-52 86.5,-52 86.5,-90"/>
<text xml:space="preserve" text-anchor="start" x="37.62" y="-72.7" font-family="Sans-Serif" font-size="14.00">...</text>
<text xml:space="preserve" text-anchor="start" x="8" y="-57.7" font-family="Sans-Serif" font-size="14.00">VectorState</text>
</g>
<!-- VA1 -->
<g id="node3" class="node">
<title>VA1</title>
<polygon fill="none" stroke="black" stroke-dasharray="1,5" points="241.62,-66 143.12,-66 143.12,-16 241.62,-16 241.62,-66"/>
<text xml:space="preserve" text-anchor="start" x="167.62" y="-49.7" font-family="Courier,monospace" font-size="14.00">@ </text>
<text xml:space="preserve" text-anchor="start" x="184.12" y="-49.7" font-family="Courier,monospace" font-size="14.00" fill="gray">axis</text>
<text xml:space="preserve" text-anchor="start" x="188.25" y="-35.7" font-family="Courier,monospace" font-size="14.00"> </text>
<text xml:space="preserve" text-anchor="start" x="151.12" y="-21.7" font-family="Courier,monospace" font-size="14.00">Axis(</text>
<text xml:space="preserve" text-anchor="start" x="192.38" y="-21.7" font-family="Courier,monospace" font-size="14.00" fill="gray">axis</text>
<text xml:space="preserve" text-anchor="start" x="225.38" y="-21.7" font-family="Courier,monospace" font-size="14.00">)</text>
</g>
<!-- ..., VectorState&#45;&gt;VA1 -->
<g id="edge4" class="edge">
<title>..., VectorState&#45;&gt;VA1:w</title>
<path fill="none" stroke="black" d="M86.76,-52C100.22,-47.26 115.53,-43.09 130.64,-41.59"/>
<polygon fill="black" stroke="black" points="130.81,-45.09 140.61,-41.08 130.45,-38.1 130.81,-45.09"/>
</g>
<!-- VA2 -->
<g id="node5" class="node">
<title>VA2</title>
<polygon fill="none" stroke="black" stroke-dasharray="1,5" points="250.25,-114 122.5,-114 122.5,-90 250.25,-90 262.25,-102 250.25,-114"/>
<text xml:space="preserve" text-anchor="start" x="130.5" y="-96.95" font-family="Courier,monospace" font-size="14.00" fill="gray">implicit Axis()</text>
</g>
<!-- ..., VectorState&#45;&gt;VA2 -->
<g id="edge5" class="edge">
<title>..., VectorState&#45;&gt;VA2:w</title>
<path fill="none" stroke="black" d="M76.83,-90.46C86.9,-95.18 98.42,-99.37 110.06,-101.13"/>
<polygon fill="black" stroke="black" points="109.45,-104.59 119.7,-101.88 110,-97.61 109.45,-104.59"/>
</g>
<!-- VA1_ -->
<g id="node4" class="node">
<title>VA1_</title>
<polygon fill="none" stroke="black" points="392.25,-83 298.25,-83 298.25,-59 392.25,-59 404.25,-71 392.25,-83"/>
<text xml:space="preserve" text-anchor="middle" x="351.25" y="-65.2" font-family="Sans-Serif" font-size="14.00">vector_as_axis</text>
</g>
<!-- VA1&#45;&gt;VA1_ -->
<g id="edge1" class="edge">
<title>VA1:e&#45;&gt;VA1_</title>
<path fill="none" stroke="black" d="M242.62,-41C259.65,-41 277.64,-44.52 293.95,-49.16"/>
<polygon fill="black" stroke="black" points="292.9,-52.5 303.49,-52.07 294.94,-45.8 292.9,-52.5"/>
</g>
<!-- VA1_&#45;&gt;..., vector_is_axis -->
<g id="edge3" class="edge">
<title>VA1_:e&#45;&gt;..., vector_is_axis</title>
<path fill="none" stroke="black" d="M405.75,-71C413.17,-71 420.93,-71 428.67,-71"/>
<polygon fill="black" stroke="black" points="428.43,-74.5 438.43,-71 428.43,-67.5 428.43,-74.5"/>
</g>
<!-- VA2&#45;&gt;VA1_ -->
<g id="edge2" class="edge">
<title>VA2:e&#45;&gt;VA1_</title>
<path fill="none" stroke="black" d="M262.25,-102C276.56,-102 291.48,-98.31 304.88,-93.47"/>
<polygon fill="black" stroke="black" points="305.83,-96.86 313.85,-89.94 303.27,-90.34 305.83,-96.86"/>
</g>
</g>
</svg>
