<?xml version="1.0" encoding="UTF-8" standalone="no"?>
<!DOCTYPE svg PUBLIC "-//W3C//DTD SVG 1.1//EN"
 "http://www.w3.org/Graphics/SVG/1.1/DTD/svg11.dtd">
<!-- Generated by graphviz version 14.0.2 (20251019.1705)
 -->
<!-- Pages: 1 -->
<svg width="3964pt" height="441pt"
 viewBox="0.00 0.00 3964.00 441.00" xmlns="http://www.w3.org/2000/svg" xmlns:xlink="http://www.w3.org/1999/xlink">
<g id="graph0" class="graph" transform="scale(1 1) rotate(0) translate(4 437.07)">
<polygon fill="white" stroke="none" points="-4,4 -4,-437.07 3959.5,-437.07 3959.5,4 -4,4"/>
<g id="clust1" class="cluster">
<title>cluster_component</title>
<polygon fill="none" stroke="black" points="177.5,-8 177.5,-411 3762.25,-411 3762.25,-8 177.5,-8"/>
<text xml:space="preserve" text-anchor="middle" x="1969.88" y="-380.4" font-family="Sans-Serif" font-size="28.00">VectorMask</text>
</g>
<!-- ..., base_vector -->
<g id="node1" class="node">
<title>..., base_vector</title>
<polygon fill="none" stroke="black" points="149.5,-196 0,-196 0,-146 149.5,-146 149.5,-196"/>
<text xml:space="preserve" text-anchor="start" x="69.12" y="-179.7" font-family="Sans-Serif" font-size="14.00">...</text>
<text xml:space="preserve" text-anchor="start" x="8" y="-165.7" font-family="Sans-Serif" font-size="14.00">VectorState </text>
<text xml:space="preserve" text-anchor="start" x="82.25" y="-165.7" font-family="Sans-Serif" font-style="italic" baseline-shift="sub" font-size="14.00" fill="gray">base axis   </text>
<text xml:space="preserve" text-anchor="start" x="72.88" y="-151.7" font-family="Sans-Serif" font-size="14.00"> </text>
</g>
<!-- VG4 -->
<g id="node7" class="node">
<title>VG4</title>
<polygon fill="none" stroke="black" stroke-dasharray="1,5" points="898.62,-298 379.38,-298 379.38,-248 898.62,-248 898.62,-298"/>
<text xml:space="preserve" text-anchor="start" x="490.5" y="-281.7" font-family="Courier,monospace" font-size="14.00">[ </text>
<text xml:space="preserve" text-anchor="start" x="507" y="-281.7" font-family="Courier,monospace" font-size="14.00" fill="gray">!</text>
<text xml:space="preserve" text-anchor="start" x="515.25" y="-281.7" font-family="Courier,monospace" font-size="14.00"> vector_property </text>
<text xml:space="preserve" text-anchor="start" x="655.5" y="-281.7" font-family="Courier,monospace" font-size="14.00" fill="gray">|| default_value</text>
<text xml:space="preserve" text-anchor="start" x="634.88" y="-267.7" font-family="Courier,monospace" font-size="14.00"> </text>
<text xml:space="preserve" text-anchor="start" x="387.38" y="-253.7" font-family="Courier,monospace" font-size="14.00">Begin</text>
<text xml:space="preserve" text-anchor="start" x="428.62" y="-253.7" font-family="Courier,monospace" font-size="14.00" fill="gray">Negated</text>
<text xml:space="preserve" text-anchor="start" x="486.38" y="-253.7" font-family="Courier,monospace" font-size="14.00">Mask(vector_property) </text>
<text xml:space="preserve" text-anchor="start" x="667.88" y="-253.7" font-family="Courier,monospace" font-size="14.00" fill="gray">|&gt; IfMissing(default_value)</text>
</g>
<!-- ..., base_vector&#45;&gt;VG4 -->
<g id="edge34" class="edge">
<title>..., base_vector&#45;&gt;VG4:w</title>
<path fill="none" stroke="black" d="M106.34,-196.45C125.6,-211.15 151.64,-228.72 177.5,-239 258.03,-271.01 285.47,-272.89 367.05,-272.99"/>
<polygon fill="black" stroke="black" points="366.86,-276.49 376.86,-273 366.86,-269.49 366.86,-276.49"/>
</g>
<!-- VG1 -->
<g id="node9" class="node">
<title>VG1</title>
<polygon fill="none" stroke="black" stroke-dasharray="1,5" points="1001.75,-94 276.25,-94 276.25,-44 1001.75,-44 1001.75,-94"/>
<text xml:space="preserve" text-anchor="start" x="436.88" y="-77.7" font-family="Courier,monospace" font-size="14.00">[ </text>
<text xml:space="preserve" text-anchor="start" x="453.38" y="-77.7" font-family="Courier,monospace" font-size="14.00" fill="gray">!</text>
<text xml:space="preserve" text-anchor="start" x="461.62" y="-77.7" font-family="Courier,monospace" font-size="14.00"> matrix_property </text>
<text xml:space="preserve" text-anchor="start" x="601.88" y="-77.7" font-family="Courier,monospace" font-size="14.00" fill="gray">|| default_value</text>
<text xml:space="preserve" text-anchor="start" x="733.88" y="-77.7" font-family="Courier,monospace" font-size="14.00"> &#45;= row_value</text>
<text xml:space="preserve" text-anchor="start" x="634.88" y="-63.7" font-family="Courier,monospace" font-size="14.00"> </text>
<text xml:space="preserve" text-anchor="start" x="284.25" y="-49.7" font-family="Courier,monospace" font-size="14.00">Begin</text>
<text xml:space="preserve" text-anchor="start" x="325.5" y="-49.7" font-family="Courier,monospace" font-size="14.00" fill="gray">Negated</text>
<text xml:space="preserve" text-anchor="start" x="383.25" y="-49.7" font-family="Courier,monospace" font-size="14.00">Mask(matrix_property) </text>
<text xml:space="preserve" text-anchor="start" x="564.75" y="-49.7" font-family="Courier,monospace" font-size="14.00" fill="gray">|&gt; IfMissing(default_value)</text>
<text xml:space="preserve" text-anchor="start" x="787.5" y="-49.7" font-family="Courier,monospace" font-size="14.00"> |&gt; RowIsEqual(row_value)</text>
</g>
<!-- ..., base_vector&#45;&gt;VG1 -->
<g id="edge31" class="edge">
<title>..., base_vector&#45;&gt;VG1:w</title>
<path fill="none" stroke="black" d="M104.16,-145.52C138.81,-117.02 200.63,-74.19 263.85,-69.43"/>
<polygon fill="black" stroke="black" points="263.88,-72.94 273.74,-69.06 263.61,-65.94 263.88,-72.94"/>
</g>
<!-- VG2 -->
<g id="node10" class="node">
<title>VG2</title>
<polygon fill="none" stroke="black" stroke-dasharray="1,5" points="1026.5,-162 251.5,-162 251.5,-112 1026.5,-112 1026.5,-162"/>
<text xml:space="preserve" text-anchor="start" x="424.5" y="-145.7" font-family="Courier,monospace" font-size="14.00">[ </text>
<text xml:space="preserve" text-anchor="start" x="441" y="-145.7" font-family="Courier,monospace" font-size="14.00" fill="gray">!</text>
<text xml:space="preserve" text-anchor="start" x="449.25" y="-145.7" font-family="Courier,monospace" font-size="14.00"> matrix_property </text>
<text xml:space="preserve" text-anchor="start" x="589.5" y="-145.7" font-family="Courier,monospace" font-size="14.00" fill="gray">|| default_value</text>
<text xml:space="preserve" text-anchor="start" x="721.5" y="-145.7" font-family="Courier,monospace" font-size="14.00"> |= column_value</text>
<text xml:space="preserve" text-anchor="start" x="634.88" y="-131.7" font-family="Courier,monospace" font-size="14.00"> </text>
<text xml:space="preserve" text-anchor="start" x="259.5" y="-117.7" font-family="Courier,monospace" font-size="14.00">Begin</text>
<text xml:space="preserve" text-anchor="start" x="300.75" y="-117.7" font-family="Courier,monospace" font-size="14.00" fill="gray">Negated</text>
<text xml:space="preserve" text-anchor="start" x="358.5" y="-117.7" font-family="Courier,monospace" font-size="14.00">Mask(matrix_property) </text>
<text xml:space="preserve" text-anchor="start" x="540" y="-117.7" font-family="Courier,monospace" font-size="14.00" fill="gray">|&gt; IfMissing(default_value)</text>
<text xml:space="preserve" text-anchor="start" x="762.75" y="-117.7" font-family="Courier,monospace" font-size="14.00"> |&gt; ColumnIsEqual(column_value)</text>
</g>
<!-- ..., base_vector&#45;&gt;VG2 -->
<g id="edge32" class="edge">
<title>..., base_vector&#45;&gt;VG2:w</title>
<path fill="none" stroke="black" d="M149.97,-150.05C177.31,-143.84 208.96,-138.38 239.06,-137.23"/>
<polygon fill="black" stroke="black" points="239.06,-140.73 248.99,-137.03 238.92,-133.73 239.06,-140.73"/>
</g>
<!-- VG3 -->
<g id="node12" class="node">
<title>VG3</title>
<polygon fill="none" stroke="black" stroke-dasharray="1,5" points="1092.5,-230 185.5,-230 185.5,-180 1092.5,-180 1092.5,-230"/>
<text xml:space="preserve" text-anchor="start" x="366.75" y="-213.7" font-family="Courier,monospace" font-size="14.00">[ </text>
<text xml:space="preserve" text-anchor="start" x="383.25" y="-213.7" font-family="Courier,monospace" font-size="14.00" fill="gray">!</text>
<text xml:space="preserve" text-anchor="start" x="391.5" y="-213.7" font-family="Courier,monospace" font-size="14.00"> matrix_property </text>
<text xml:space="preserve" text-anchor="start" x="531.75" y="-213.7" font-family="Courier,monospace" font-size="14.00" fill="gray">|| default_value</text>
<text xml:space="preserve" text-anchor="start" x="663.75" y="-213.7" font-family="Courier,monospace" font-size="14.00"> / columns_axis = column_value</text>
<text xml:space="preserve" text-anchor="start" x="634.88" y="-199.7" font-family="Courier,monospace" font-size="14.00"> </text>
<text xml:space="preserve" text-anchor="start" x="193.5" y="-185.7" font-family="Courier,monospace" font-size="14.00">Begin</text>
<text xml:space="preserve" text-anchor="start" x="234.75" y="-185.7" font-family="Courier,monospace" font-size="14.00" fill="gray">Negated</text>
<text xml:space="preserve" text-anchor="start" x="292.5" y="-185.7" font-family="Courier,monospace" font-size="14.00">Mask(matrix_property) </text>
<text xml:space="preserve" text-anchor="start" x="474" y="-185.7" font-family="Courier,monospace" font-size="14.00" fill="gray">|&gt; IfMissing(default_value)</text>
<text xml:space="preserve" text-anchor="start" x="696.75" y="-185.7" font-family="Courier,monospace" font-size="14.00"> |&gt; Axis(columns_axis) |&gt; IsEqual(column_value)</text>
</g>
<!-- ..., base_vector&#45;&gt;VG3 -->
<g id="edge33" class="edge">
<title>..., base_vector&#45;&gt;VG3:w</title>
<path fill="none" stroke="black" d="M134.56,-196.42C146.86,-200.22 160.07,-203.28 173.11,-204.46"/>
<polygon fill="black" stroke="black" points="172.83,-207.96 182.99,-204.93 173.16,-200.96 172.83,-207.96"/>
</g>
<!-- ..., axis_vector -->
<g id="node2" class="node">
<title>..., axis_vector</title>
<polygon fill="none" stroke="black" points="3955.5,-108 3790.25,-108 3790.25,-58 3955.5,-58 3955.5,-108"/>
<text xml:space="preserve" text-anchor="start" x="3867.25" y="-91.7" font-family="Sans-Serif" font-size="14.00">...</text>
<text xml:space="preserve" text-anchor="start" x="3798.25" y="-77.7" font-family="Sans-Serif" font-size="14.00">VectorState </text>
<text xml:space="preserve" text-anchor="start" x="3872.5" y="-77.7" font-family="Sans-Serif" font-style="italic" baseline-shift="sub" font-size="14.00" fill="gray">masked axis   </text>
<text xml:space="preserve" text-anchor="start" x="3871" y="-63.7" font-family="Sans-Serif" font-size="14.00"> </text>
</g>
<!-- ..., base_vector, BeginAnyMask, VectorState -->
<g id="node3" class="node">
<title>..., base_vector, BeginAnyMask, VectorState</title>
<polygon fill="none" stroke="black" points="1600.75,-238 1380.75,-238 1380.75,-132 1600.75,-132 1600.75,-238"/>
<text xml:space="preserve" text-anchor="start" x="1485.12" y="-221.7" font-family="Sans-Serif" font-size="14.00">...</text>
<text xml:space="preserve" text-anchor="start" x="1424" y="-207.7" font-family="Sans-Serif" font-size="14.00">VectorState </text>
<text xml:space="preserve" text-anchor="start" x="1498.25" y="-207.7" font-family="Sans-Serif" font-style="italic" baseline-shift="sub" font-size="14.00" fill="gray">base axis   </text>
<text xml:space="preserve" text-anchor="start" x="1488.88" y="-193.7" font-family="Sans-Serif" font-size="14.00"> </text>
<text xml:space="preserve" text-anchor="start" x="1388.75" y="-179.7" font-family="Sans-Serif" font-size="14.00">BeginMask </text>
<text xml:space="preserve" text-anchor="start" x="1460" y="-179.7" font-family="Sans-Serif" baseline-shift="sub" font-size="14.00">or</text>
<text xml:space="preserve" text-anchor="start" x="1470.5" y="-179.7" font-family="Sans-Serif" font-size="14.00"> BeginNegatedMask</text>
<text xml:space="preserve" text-anchor="start" x="1488.88" y="-165.7" font-family="Sans-Serif" font-size="14.00"> </text>
<text xml:space="preserve" text-anchor="start" x="1434.88" y="-151.7" font-family="Sans-Serif" font-size="14.00">VectorState </text>
<text xml:space="preserve" text-anchor="start" x="1509.12" y="-151.7" font-family="Sans-Serif" font-style="italic" baseline-shift="sub" font-size="14.00" fill="gray">mask   </text>
<text xml:space="preserve" text-anchor="start" x="1488.88" y="-137.7" font-family="Sans-Serif" font-size="14.00"> </text>
</g>
<!-- VectorAxisLookup1 -->
<g id="node5" class="node">
<title>VectorAxisLookup1</title>
<polygon fill="none" stroke="black" points="1542.25,-98 1439.25,-98 1439.25,-94 1435.25,-94 1435.25,-90 1439.25,-90 1439.25,-68 1435.25,-68 1435.25,-64 1439.25,-64 1439.25,-60 1542.25,-60 1542.25,-98"/>
<polyline fill="none" stroke="black" points="1439.25,-94 1443.25,-94 1443.25,-90 1439.25,-90"/>
<polyline fill="none" stroke="black" points="1439.25,-68 1443.25,-68 1443.25,-64 1439.25,-64"/>
<text xml:space="preserve" text-anchor="start" x="1456.62" y="-80.7" font-family="Sans-Serif" font-size="14.00"> VectorAxis</text>
<text xml:space="preserve" text-anchor="start" x="1447.25" y="-65.7" font-family="Sans-Serif" font-size="14.00">VectorLookup </text>
</g>
<!-- ..., base_vector, BeginAnyMask, VectorState&#45;&gt;VectorAxisLookup1 -->
<g id="edge1" class="edge">
<title>..., base_vector, BeginAnyMask, VectorState&#45;&gt;VectorAxisLookup1</title>
<path fill="none" stroke="black" d="M1529.37,-131.59C1529.28,-123.48 1526.48,-115.37 1520.96,-107.26"/>
<polygon fill="black" stroke="black" points="1523.84,-105.26 1514.85,-99.64 1518.38,-109.63 1523.84,-105.26"/>
</g>
<!-- VG10 -->
<g id="node14" class="node">
<title>VG10</title>
<polygon fill="none" stroke="black" stroke-dasharray="1,5" points="2418.12,-346 1830.62,-346 1830.62,-296 2418.12,-296 2418.12,-346"/>
<text xml:space="preserve" text-anchor="start" x="1921.12" y="-329.7" font-family="Courier,monospace" font-size="14.00">&amp; </text>
<text xml:space="preserve" text-anchor="start" x="1937.62" y="-329.7" font-family="Courier,monospace" font-size="14.00" fill="gray">!</text>
<text xml:space="preserve" text-anchor="start" x="1945.88" y="-329.7" font-family="Courier,monospace" font-size="14.00"> </text>
<text xml:space="preserve" text-anchor="start" x="1954.12" y="-329.7" font-family="Courier,monospace" baseline-shift="sub" font-size="14.00">or</text>
<text xml:space="preserve" text-anchor="start" x="1967.62" y="-329.7" font-family="Courier,monospace" font-size="14.00"> | </text>
<text xml:space="preserve" text-anchor="start" x="1992.38" y="-329.7" font-family="Courier,monospace" font-size="14.00" fill="gray">!</text>
<text xml:space="preserve" text-anchor="start" x="2000.62" y="-329.7" font-family="Courier,monospace" font-size="14.00"> </text>
<text xml:space="preserve" text-anchor="start" x="2008.88" y="-329.7" font-family="Courier,monospace" baseline-shift="sub" font-size="14.00">or</text>
<text xml:space="preserve" text-anchor="start" x="2022.38" y="-329.7" font-family="Courier,monospace" font-size="14.00"> ^ </text>
<text xml:space="preserve" text-anchor="start" x="2047.12" y="-329.7" font-family="Courier,monospace" font-size="14.00" fill="gray">!</text>
<text xml:space="preserve" text-anchor="start" x="2055.38" y="-329.7" font-family="Courier,monospace" font-size="14.00"> vector_property </text>
<text xml:space="preserve" text-anchor="start" x="2195.62" y="-329.7" font-family="Courier,monospace" font-size="14.00" fill="gray">|| default_value</text>
<text xml:space="preserve" text-anchor="start" x="2120.25" y="-315.7" font-family="Courier,monospace" font-size="14.00"> </text>
<text xml:space="preserve" text-anchor="start" x="1838.62" y="-301.7" font-family="Courier,monospace" font-size="14.00">And</text>
<text xml:space="preserve" text-anchor="start" x="1863.38" y="-301.7" font-family="Courier,monospace" font-size="14.00" fill="gray">Not</text>
<text xml:space="preserve" text-anchor="start" x="1888.12" y="-301.7" font-family="Courier,monospace" font-size="14.00"> </text>
<text xml:space="preserve" text-anchor="start" x="1896.38" y="-301.7" font-family="Courier,monospace" baseline-shift="sub" font-size="14.00">or</text>
<text xml:space="preserve" text-anchor="start" x="1909.88" y="-301.7" font-family="Courier,monospace" font-size="14.00"> Or</text>
<text xml:space="preserve" text-anchor="start" x="1934.62" y="-301.7" font-family="Courier,monospace" font-size="14.00" fill="gray">Not</text>
<text xml:space="preserve" text-anchor="start" x="1959.38" y="-301.7" font-family="Courier,monospace" font-size="14.00"> </text>
<text xml:space="preserve" text-anchor="start" x="1967.62" y="-301.7" font-family="Courier,monospace" baseline-shift="sub" font-size="14.00">or</text>
<text xml:space="preserve" text-anchor="start" x="1981.12" y="-301.7" font-family="Courier,monospace" font-size="14.00"> Xor</text>
<text xml:space="preserve" text-anchor="start" x="2014.12" y="-301.7" font-family="Courier,monospace" font-size="14.00" fill="gray">Not</text>
<text xml:space="preserve" text-anchor="start" x="2038.88" y="-301.7" font-family="Courier,monospace" font-size="14.00">(matrix_property) </text>
<text xml:space="preserve" text-anchor="start" x="2187.38" y="-301.7" font-family="Courier,monospace" font-size="14.00" fill="gray">|&gt; IfMissing(default_value)</text>
</g>
<!-- ..., base_vector, BeginAnyMask, VectorState&#45;&gt;VG10 -->
<g id="edge12" class="edge">
<title>..., base_vector, BeginAnyMask, VectorState&#45;&gt;VG10:w</title>
<path fill="none" stroke="black" d="M1554.56,-238.25C1578.85,-256.32 1607.76,-274.96 1636.75,-287 1713.52,-318.9 1740.18,-320.88 1818.26,-320.99"/>
<polygon fill="black" stroke="black" points="1818.11,-324.49 1828.11,-321 1818.11,-317.49 1818.11,-324.49"/>
</g>
<!-- VG7 -->
<g id="node16" class="node">
<title>VG7</title>
<polygon fill="none" stroke="black" stroke-dasharray="1,5" points="2521.25,-142 1727.5,-142 1727.5,-92 2521.25,-92 2521.25,-142"/>
<text xml:space="preserve" text-anchor="start" x="1867.5" y="-125.7" font-family="Courier,monospace" font-size="14.00">&amp; </text>
<text xml:space="preserve" text-anchor="start" x="1884" y="-125.7" font-family="Courier,monospace" font-size="14.00" fill="gray">!</text>
<text xml:space="preserve" text-anchor="start" x="1892.25" y="-125.7" font-family="Courier,monospace" font-size="14.00"> </text>
<text xml:space="preserve" text-anchor="start" x="1900.5" y="-125.7" font-family="Courier,monospace" baseline-shift="sub" font-size="14.00">or</text>
<text xml:space="preserve" text-anchor="start" x="1914" y="-125.7" font-family="Courier,monospace" font-size="14.00"> | </text>
<text xml:space="preserve" text-anchor="start" x="1938.75" y="-125.7" font-family="Courier,monospace" font-size="14.00" fill="gray">!</text>
<text xml:space="preserve" text-anchor="start" x="1947" y="-125.7" font-family="Courier,monospace" font-size="14.00"> </text>
<text xml:space="preserve" text-anchor="start" x="1955.25" y="-125.7" font-family="Courier,monospace" baseline-shift="sub" font-size="14.00">or</text>
<text xml:space="preserve" text-anchor="start" x="1968.75" y="-125.7" font-family="Courier,monospace" font-size="14.00"> ^ </text>
<text xml:space="preserve" text-anchor="start" x="1993.5" y="-125.7" font-family="Courier,monospace" font-size="14.00" fill="gray">!</text>
<text xml:space="preserve" text-anchor="start" x="2001.75" y="-125.7" font-family="Courier,monospace" font-size="14.00"> matrix_property </text>
<text xml:space="preserve" text-anchor="start" x="2142" y="-125.7" font-family="Courier,monospace" font-size="14.00" fill="gray">|| default_value</text>
<text xml:space="preserve" text-anchor="start" x="2274" y="-125.7" font-family="Courier,monospace" font-size="14.00"> &#45;= row_value</text>
<text xml:space="preserve" text-anchor="start" x="2120.25" y="-111.7" font-family="Courier,monospace" font-size="14.00"> </text>
<text xml:space="preserve" text-anchor="start" x="1735.5" y="-97.7" font-family="Courier,monospace" font-size="14.00">And</text>
<text xml:space="preserve" text-anchor="start" x="1760.25" y="-97.7" font-family="Courier,monospace" font-size="14.00" fill="gray">Not</text>
<text xml:space="preserve" text-anchor="start" x="1785" y="-97.7" font-family="Courier,monospace" font-size="14.00"> </text>
<text xml:space="preserve" text-anchor="start" x="1793.25" y="-97.7" font-family="Courier,monospace" baseline-shift="sub" font-size="14.00">or</text>
<text xml:space="preserve" text-anchor="start" x="1806.75" y="-97.7" font-family="Courier,monospace" font-size="14.00"> Or</text>
<text xml:space="preserve" text-anchor="start" x="1831.5" y="-97.7" font-family="Courier,monospace" font-size="14.00" fill="gray">Not</text>
<text xml:space="preserve" text-anchor="start" x="1856.25" y="-97.7" font-family="Courier,monospace" font-size="14.00"> </text>
<text xml:space="preserve" text-anchor="start" x="1864.5" y="-97.7" font-family="Courier,monospace" baseline-shift="sub" font-size="14.00">or</text>
<text xml:space="preserve" text-anchor="start" x="1878" y="-97.7" font-family="Courier,monospace" font-size="14.00"> Xor</text>
<text xml:space="preserve" text-anchor="start" x="1911" y="-97.7" font-family="Courier,monospace" font-size="14.00" fill="gray">Not</text>
<text xml:space="preserve" text-anchor="start" x="1935.75" y="-97.7" font-family="Courier,monospace" font-size="14.00">(matrix_property) </text>
<text xml:space="preserve" text-anchor="start" x="2084.25" y="-97.7" font-family="Courier,monospace" font-size="14.00" fill="gray">|&gt; IfMissing(default_value)</text>
<text xml:space="preserve" text-anchor="start" x="2307" y="-97.7" font-family="Courier,monospace" font-size="14.00"> |&gt; RowIsEqual(row_value)</text>
</g>
<!-- ..., base_vector, BeginAnyMask, VectorState&#45;&gt;VG7 -->
<g id="edge15" class="edge">
<title>..., base_vector, BeginAnyMask, VectorState&#45;&gt;VG7:w</title>
<path fill="none" stroke="black" d="M1601.23,-139.55C1636.6,-128.23 1676.65,-118.84 1715.15,-117.24"/>
<polygon fill="black" stroke="black" points="1715.06,-120.74 1724.99,-117.03 1714.92,-113.74 1715.06,-120.74"/>
</g>
<!-- VG8 -->
<g id="node18" class="node">
<title>VG8</title>
<polygon fill="none" stroke="black" stroke-dasharray="1,5" points="2546,-210 1702.75,-210 1702.75,-160 2546,-160 2546,-210"/>
<text xml:space="preserve" text-anchor="start" x="1855.12" y="-193.7" font-family="Courier,monospace" font-size="14.00">&amp; </text>
<text xml:space="preserve" text-anchor="start" x="1871.62" y="-193.7" font-family="Courier,monospace" font-size="14.00" fill="gray">!</text>
<text xml:space="preserve" text-anchor="start" x="1879.88" y="-193.7" font-family="Courier,monospace" font-size="14.00"> </text>
<text xml:space="preserve" text-anchor="start" x="1888.12" y="-193.7" font-family="Courier,monospace" baseline-shift="sub" font-size="14.00">or</text>
<text xml:space="preserve" text-anchor="start" x="1901.62" y="-193.7" font-family="Courier,monospace" font-size="14.00"> | </text>
<text xml:space="preserve" text-anchor="start" x="1926.38" y="-193.7" font-family="Courier,monospace" font-size="14.00" fill="gray">!</text>
<text xml:space="preserve" text-anchor="start" x="1934.62" y="-193.7" font-family="Courier,monospace" font-size="14.00"> </text>
<text xml:space="preserve" text-anchor="start" x="1942.88" y="-193.7" font-family="Courier,monospace" baseline-shift="sub" font-size="14.00">or</text>
<text xml:space="preserve" text-anchor="start" x="1956.38" y="-193.7" font-family="Courier,monospace" font-size="14.00"> ^ </text>
<text xml:space="preserve" text-anchor="start" x="1981.12" y="-193.7" font-family="Courier,monospace" font-size="14.00" fill="gray">!</text>
<text xml:space="preserve" text-anchor="start" x="1989.38" y="-193.7" font-family="Courier,monospace" font-size="14.00"> matrix_property </text>
<text xml:space="preserve" text-anchor="start" x="2129.62" y="-193.7" font-family="Courier,monospace" font-size="14.00" fill="gray">|| default_value</text>
<text xml:space="preserve" text-anchor="start" x="2261.62" y="-193.7" font-family="Courier,monospace" font-size="14.00"> &#45;= column_value</text>
<text xml:space="preserve" text-anchor="start" x="2120.25" y="-179.7" font-family="Courier,monospace" font-size="14.00"> </text>
<text xml:space="preserve" text-anchor="start" x="1710.75" y="-165.7" font-family="Courier,monospace" font-size="14.00">And</text>
<text xml:space="preserve" text-anchor="start" x="1735.5" y="-165.7" font-family="Courier,monospace" font-size="14.00" fill="gray">Not</text>
<text xml:space="preserve" text-anchor="start" x="1760.25" y="-165.7" font-family="Courier,monospace" font-size="14.00"> </text>
<text xml:space="preserve" text-anchor="start" x="1768.5" y="-165.7" font-family="Courier,monospace" baseline-shift="sub" font-size="14.00">or</text>
<text xml:space="preserve" text-anchor="start" x="1782" y="-165.7" font-family="Courier,monospace" font-size="14.00"> Or</text>
<text xml:space="preserve" text-anchor="start" x="1806.75" y="-165.7" font-family="Courier,monospace" font-size="14.00" fill="gray">Not</text>
<text xml:space="preserve" text-anchor="start" x="1831.5" y="-165.7" font-family="Courier,monospace" font-size="14.00"> </text>
<text xml:space="preserve" text-anchor="start" x="1839.75" y="-165.7" font-family="Courier,monospace" baseline-shift="sub" font-size="14.00">or</text>
<text xml:space="preserve" text-anchor="start" x="1853.25" y="-165.7" font-family="Courier,monospace" font-size="14.00"> Xor</text>
<text xml:space="preserve" text-anchor="start" x="1886.25" y="-165.7" font-family="Courier,monospace" font-size="14.00" fill="gray">Not</text>
<text xml:space="preserve" text-anchor="start" x="1911" y="-165.7" font-family="Courier,monospace" font-size="14.00">(matrix_property) </text>
<text xml:space="preserve" text-anchor="start" x="2059.5" y="-165.7" font-family="Courier,monospace" font-size="14.00" fill="gray">|&gt; IfMissing(default_value)</text>
<text xml:space="preserve" text-anchor="start" x="2282.25" y="-165.7" font-family="Courier,monospace" font-size="14.00"> |&gt; ColumnIsEqual(column_value)</text>
</g>
<!-- ..., base_vector, BeginAnyMask, VectorState&#45;&gt;VG8 -->
<g id="edge18" class="edge">
<title>..., base_vector, BeginAnyMask, VectorState&#45;&gt;VG8:w</title>
<path fill="none" stroke="black" d="M1601.01,-185C1629.77,-185 1661.01,-185 1690.53,-185"/>
<polygon fill="black" stroke="black" points="1690.24,-188.5 1700.24,-185 1690.24,-181.5 1690.24,-188.5"/>
</g>
<!-- VG9 -->
<g id="node20" class="node">
<title>VG9</title>
<polygon fill="none" stroke="black" stroke-dasharray="1,5" points="2612,-278 1636.75,-278 1636.75,-228 2612,-228 2612,-278"/>
<text xml:space="preserve" text-anchor="start" x="1797.38" y="-261.7" font-family="Courier,monospace" font-size="14.00">&amp; </text>
<text xml:space="preserve" text-anchor="start" x="1813.88" y="-261.7" font-family="Courier,monospace" font-size="14.00" fill="gray">!</text>
<text xml:space="preserve" text-anchor="start" x="1822.12" y="-261.7" font-family="Courier,monospace" font-size="14.00"> </text>
<text xml:space="preserve" text-anchor="start" x="1830.38" y="-261.7" font-family="Courier,monospace" baseline-shift="sub" font-size="14.00">or</text>
<text xml:space="preserve" text-anchor="start" x="1843.88" y="-261.7" font-family="Courier,monospace" font-size="14.00"> | </text>
<text xml:space="preserve" text-anchor="start" x="1868.62" y="-261.7" font-family="Courier,monospace" font-size="14.00" fill="gray">!</text>
<text xml:space="preserve" text-anchor="start" x="1876.88" y="-261.7" font-family="Courier,monospace" font-size="14.00"> </text>
<text xml:space="preserve" text-anchor="start" x="1885.12" y="-261.7" font-family="Courier,monospace" baseline-shift="sub" font-size="14.00">or</text>
<text xml:space="preserve" text-anchor="start" x="1898.62" y="-261.7" font-family="Courier,monospace" font-size="14.00"> ^ </text>
<text xml:space="preserve" text-anchor="start" x="1923.38" y="-261.7" font-family="Courier,monospace" font-size="14.00" fill="gray">!</text>
<text xml:space="preserve" text-anchor="start" x="1931.62" y="-261.7" font-family="Courier,monospace" font-size="14.00"> matrix_property </text>
<text xml:space="preserve" text-anchor="start" x="2071.88" y="-261.7" font-family="Courier,monospace" font-size="14.00" fill="gray">|| default_value</text>
<text xml:space="preserve" text-anchor="start" x="2203.88" y="-261.7" font-family="Courier,monospace" font-size="14.00"> @ columns_axis = column_value</text>
<text xml:space="preserve" text-anchor="start" x="2120.25" y="-247.7" font-family="Courier,monospace" font-size="14.00"> </text>
<text xml:space="preserve" text-anchor="start" x="1644.75" y="-233.7" font-family="Courier,monospace" font-size="14.00">And</text>
<text xml:space="preserve" text-anchor="start" x="1669.5" y="-233.7" font-family="Courier,monospace" font-size="14.00" fill="gray">Not</text>
<text xml:space="preserve" text-anchor="start" x="1694.25" y="-233.7" font-family="Courier,monospace" font-size="14.00"> </text>
<text xml:space="preserve" text-anchor="start" x="1702.5" y="-233.7" font-family="Courier,monospace" baseline-shift="sub" font-size="14.00">or</text>
<text xml:space="preserve" text-anchor="start" x="1716" y="-233.7" font-family="Courier,monospace" font-size="14.00"> Or</text>
<text xml:space="preserve" text-anchor="start" x="1740.75" y="-233.7" font-family="Courier,monospace" font-size="14.00" fill="gray">Not</text>
<text xml:space="preserve" text-anchor="start" x="1765.5" y="-233.7" font-family="Courier,monospace" font-size="14.00"> </text>
<text xml:space="preserve" text-anchor="start" x="1773.75" y="-233.7" font-family="Courier,monospace" baseline-shift="sub" font-size="14.00">or</text>
<text xml:space="preserve" text-anchor="start" x="1787.25" y="-233.7" font-family="Courier,monospace" font-size="14.00"> Xor</text>
<text xml:space="preserve" text-anchor="start" x="1820.25" y="-233.7" font-family="Courier,monospace" font-size="14.00" fill="gray">Not</text>
<text xml:space="preserve" text-anchor="start" x="1845" y="-233.7" font-family="Courier,monospace" font-size="14.00">(matrix_property) </text>
<text xml:space="preserve" text-anchor="start" x="1993.5" y="-233.7" font-family="Courier,monospace" font-size="14.00" fill="gray">|&gt; IfMissing(default_value)</text>
<text xml:space="preserve" text-anchor="start" x="2216.25" y="-233.7" font-family="Courier,monospace" font-size="14.00"> |&gt; Axis(columns_axis) |&gt; IsEqual(column_value)</text>
</g>
<!-- ..., base_vector, BeginAnyMask, VectorState&#45;&gt;VG9 -->
<g id="edge21" class="edge">
<title>..., base_vector, BeginAnyMask, VectorState&#45;&gt;VG9:w</title>
<path fill="none" stroke="black" d="M1574.27,-238.41C1590.43,-245.4 1607.81,-250.74 1625.27,-252.43"/>
<polygon fill="black" stroke="black" points="1625.08,-255.93 1635.24,-252.93 1625.42,-248.94 1625.08,-255.93"/>
</g>
<!-- VG12 -->
<g id="node24" class="node">
<title>VG12</title>
<polygon fill="none" stroke="black" stroke-dasharray="1,5" points="2169.5,-73.75 2079.25,-73.75 2079.25,-16.25 2169.5,-16.25 2169.5,-73.75"/>
<text xml:space="preserve" text-anchor="start" x="2120.25" y="-56.45" font-family="Courier,monospace" font-size="14.00">]</text>
<text xml:space="preserve" text-anchor="start" x="2120.25" y="-39.95" font-family="Courier,monospace" font-size="14.00"> </text>
<text xml:space="preserve" text-anchor="start" x="2087.25" y="-23.45" font-family="Courier,monospace" font-size="14.00">EndMask()</text>
</g>
<!-- ..., base_vector, BeginAnyMask, VectorState&#45;&gt;VG12 -->
<g id="edge29" class="edge">
<title>..., base_vector, BeginAnyMask, VectorState&#45;&gt;VG12</title>
<path fill="none" stroke="black" d="M1566.69,-131.66C1600.96,-107.38 1634.52,-83.8 1636.75,-83 1785.09,-29.61 1974.83,-33.75 2067.45,-40"/>
<polygon fill="black" stroke="black" points="2067.06,-43.48 2077.28,-40.7 2067.56,-36.5 2067.06,-43.48"/>
</g>
<!-- ..., base_vector, BeginAnyMask, VectorState, MaskOperation, VectorState -->
<g id="node4" class="node">
<title>..., base_vector, BeginAnyMask, VectorState, MaskOperation, VectorState</title>
<polygon fill="none" stroke="black" points="3499.75,-312 2923.5,-312 2923.5,-150 3499.75,-150 3499.75,-312"/>
<text xml:space="preserve" text-anchor="start" x="3206" y="-295.7" font-family="Sans-Serif" font-size="14.00">...</text>
<text xml:space="preserve" text-anchor="start" x="3144.88" y="-281.7" font-family="Sans-Serif" font-size="14.00">VectorState </text>
<text xml:space="preserve" text-anchor="start" x="3219.12" y="-281.7" font-family="Sans-Serif" font-style="italic" baseline-shift="sub" font-size="14.00" fill="gray">base axis   </text>
<text xml:space="preserve" text-anchor="start" x="3209.75" y="-267.7" font-family="Sans-Serif" font-size="14.00"> </text>
<text xml:space="preserve" text-anchor="start" x="3109.62" y="-253.7" font-family="Sans-Serif" font-size="14.00">BeginMask </text>
<text xml:space="preserve" text-anchor="start" x="3180.88" y="-253.7" font-family="Sans-Serif" baseline-shift="sub" font-size="14.00">or</text>
<text xml:space="preserve" text-anchor="start" x="3191.38" y="-253.7" font-family="Sans-Serif" font-size="14.00"> BeginNegatedMask</text>
<text xml:space="preserve" text-anchor="start" x="3209.75" y="-239.7" font-family="Sans-Serif" font-size="14.00"> </text>
<text xml:space="preserve" text-anchor="start" x="3146.75" y="-225.7" font-family="Sans-Serif" font-size="14.00">VectorState </text>
<text xml:space="preserve" text-anchor="start" x="3221" y="-225.7" font-family="Sans-Serif" font-style="italic" baseline-shift="sub" font-size="14.00" fill="gray">left mask   </text>
<text xml:space="preserve" text-anchor="start" x="3209.75" y="-211.7" font-family="Sans-Serif" font-size="14.00"> </text>
<text xml:space="preserve" text-anchor="start" x="2931.5" y="-197.7" font-family="Sans-Serif" font-size="14.00">AndMask </text>
<text xml:space="preserve" text-anchor="start" x="2992.25" y="-197.7" font-family="Sans-Serif" baseline-shift="sub" font-size="14.00">or</text>
<text xml:space="preserve" text-anchor="start" x="3002.75" y="-197.7" font-family="Sans-Serif" font-size="14.00"> AndNotMask </text>
<text xml:space="preserve" text-anchor="start" x="3088.25" y="-197.7" font-family="Sans-Serif" baseline-shift="sub" font-size="14.00">or</text>
<text xml:space="preserve" text-anchor="start" x="3098.75" y="-197.7" font-family="Sans-Serif" font-size="14.00"> OrMask </text>
<text xml:space="preserve" text-anchor="start" x="3155" y="-197.7" font-family="Sans-Serif" baseline-shift="sub" font-size="14.00">or</text>
<text xml:space="preserve" text-anchor="start" x="3165.5" y="-197.7" font-family="Sans-Serif" font-size="14.00"> OrNotMask </text>
<text xml:space="preserve" text-anchor="start" x="3242.75" y="-197.7" font-family="Sans-Serif" baseline-shift="sub" font-size="14.00">or</text>
<text xml:space="preserve" text-anchor="start" x="3253.25" y="-197.7" font-family="Sans-Serif" font-size="14.00"> OrNotMask </text>
<text xml:space="preserve" text-anchor="start" x="3330.5" y="-197.7" font-family="Sans-Serif" baseline-shift="sub" font-size="14.00">or</text>
<text xml:space="preserve" text-anchor="start" x="3341" y="-197.7" font-family="Sans-Serif" font-size="14.00"> XorMask </text>
<text xml:space="preserve" text-anchor="start" x="3402.5" y="-197.7" font-family="Sans-Serif" baseline-shift="sub" font-size="14.00">or</text>
<text xml:space="preserve" text-anchor="start" x="3413" y="-197.7" font-family="Sans-Serif" font-size="14.00"> XorNotMask</text>
<text xml:space="preserve" text-anchor="start" x="3209.75" y="-183.7" font-family="Sans-Serif" font-size="14.00"> </text>
<text xml:space="preserve" text-anchor="start" x="3143" y="-169.7" font-family="Sans-Serif" font-size="14.00">VectorState </text>
<text xml:space="preserve" text-anchor="start" x="3217.25" y="-169.7" font-family="Sans-Serif" font-style="italic" baseline-shift="sub" font-size="14.00" fill="gray">right mask   </text>
<text xml:space="preserve" text-anchor="start" x="3209.75" y="-155.7" font-family="Sans-Serif" font-size="14.00"> </text>
</g>
<!-- VG11_ -->
<g id="node22" class="node">
<title>VG11_</title>
<polygon fill="none" stroke="black" stroke-dasharray="1,5" points="3742.25,-180 3535.75,-180 3535.75,-156 3742.25,-156 3754.25,-168 3742.25,-180"/>
<text xml:space="preserve" text-anchor="middle" x="3645" y="-162.2" font-family="Sans-Serif" font-size="14.00">implicit compute_mask_operation</text>
</g>
<!-- ..., base_vector, BeginAnyMask, VectorState, MaskOperation, VectorState&#45;&gt;VG11_ -->
<g id="edge24" class="edge">
<title>..., base_vector, BeginAnyMask, VectorState, MaskOperation, VectorState:e&#45;&gt;VG11_:w</title>
<path fill="none" stroke="black" d="M3499.75,-231C3527.21,-231 3510.62,-185.32 3525.01,-171.75"/>
<polygon fill="black" stroke="black" points="3526.03,-175.1 3534.32,-168.5 3523.73,-168.49 3526.03,-175.1"/>
</g>
<!-- VectorAxisLookup2 -->
<g id="node23" class="node">
<title>VectorAxisLookup2</title>
<polygon fill="none" stroke="black" points="3263.12,-132 3160.12,-132 3160.12,-128 3156.12,-128 3156.12,-124 3160.12,-124 3160.12,-102 3156.12,-102 3156.12,-98 3160.12,-98 3160.12,-94 3263.12,-94 3263.12,-132"/>
<polyline fill="none" stroke="black" points="3160.12,-128 3164.12,-128 3164.12,-124 3160.12,-124"/>
<polyline fill="none" stroke="black" points="3160.12,-102 3164.12,-102 3164.12,-98 3160.12,-98"/>
<text xml:space="preserve" text-anchor="start" x="3177.5" y="-114.7" font-family="Sans-Serif" font-size="14.00"> VectorAxis</text>
<text xml:space="preserve" text-anchor="start" x="3168.12" y="-99.7" font-family="Sans-Serif" font-size="14.00">VectorLookup </text>
</g>
<!-- ..., base_vector, BeginAnyMask, VectorState, MaskOperation, VectorState&#45;&gt;VectorAxisLookup2 -->
<g id="edge26" class="edge">
<title>..., base_vector, BeginAnyMask, VectorState, MaskOperation, VectorState&#45;&gt;VectorAxisLookup2</title>
<path fill="none" stroke="black" d="M3244.73,-149.7C3243.35,-146.9 3241.7,-144.1 3239.79,-141.3"/>
<polygon fill="black" stroke="black" points="3242.66,-139.28 3233.75,-133.55 3237.14,-143.59 3242.66,-139.28"/>
</g>
<!-- VectorAxisLookup1&#45;&gt;..., base_vector, BeginAnyMask, VectorState -->
<g id="edge2" class="edge">
<title>VectorAxisLookup1&#45;&gt;..., base_vector, BeginAnyMask, VectorState</title>
<path fill="none" stroke="black" d="M1467.59,-98.46C1460.83,-105.79 1456.28,-113.13 1453.96,-120.46"/>
<polygon fill="black" stroke="black" points="1450.54,-119.66 1452.37,-130.1 1457.45,-120.8 1450.54,-119.66"/>
</g>
<!-- VG1_ -->
<g id="node6" class="node">
<title>VG1_</title>
<polygon fill="none" stroke="black" points="1321.5,-91 1139.75,-91 1139.75,-67 1321.5,-67 1333.5,-79 1321.5,-91"/>
<text xml:space="preserve" text-anchor="middle" x="1236.62" y="-73.2" font-family="Sans-Serif" font-size="14.00">mask_by_square_matrix_row</text>
</g>
<!-- VG1_&#45;&gt;..., base_vector, BeginAnyMask, VectorState -->
<g id="edge7" class="edge">
<title>VG1_:e&#45;&gt;..., base_vector, BeginAnyMask, VectorState</title>
<path fill="none" stroke="black" d="M1334.91,-79C1339.67,-79 1372.45,-101.16 1406.62,-125.21"/>
<polygon fill="black" stroke="black" points="1404.38,-127.91 1414.56,-130.82 1408.41,-122.19 1404.38,-127.91"/>
</g>
<!-- VG1_&#45;&gt;VectorAxisLookup1 -->
<!-- VG4_ -->
<g id="node8" class="node">
<title>VG4_</title>
<polygon fill="none" stroke="black" points="1282.12,-277 1179.12,-277 1179.12,-253 1282.12,-253 1294.12,-265 1282.12,-277"/>
<text xml:space="preserve" text-anchor="middle" x="1236.62" y="-259.2" font-family="Sans-Serif" font-size="14.00">mask_by_vector</text>
</g>
<!-- VG4&#45;&gt;VG4_ -->
<g id="edge4" class="edge">
<title>VG4:e&#45;&gt;VG4_:w</title>
<path fill="none" stroke="black" d="M899.62,-273C1019.48,-273 1052.15,-265.49 1166.55,-265.02"/>
<polygon fill="black" stroke="black" points="1166.38,-268.52 1176.37,-265 1166.36,-261.52 1166.38,-268.52"/>
</g>
<!-- VG4_&#45;&gt;..., base_vector, BeginAnyMask, VectorState -->
<g id="edge5" class="edge">
<title>VG4_:e&#45;&gt;..., base_vector, BeginAnyMask, VectorState</title>
<path fill="none" stroke="black" d="M1295.37,-265C1327.68,-265 1360.9,-255.43 1390.54,-242.9"/>
<polygon fill="black" stroke="black" points="1391.73,-246.2 1399.47,-238.97 1388.91,-239.79 1391.73,-246.2"/>
</g>
<!-- VG1&#45;&gt;VG1_ -->
<g id="edge6" class="edge">
<title>VG1:e&#45;&gt;VG1_:w</title>
<path fill="none" stroke="black" d="M1002.75,-69C1059.16,-69 1075.76,-77.72 1126.88,-78.87"/>
<polygon fill="black" stroke="black" points="1126.79,-82.37 1136.83,-78.98 1126.87,-75.37 1126.79,-82.37"/>
</g>
<!-- VG2_ -->
<g id="node11" class="node">
<title>VG2_</title>
<polygon fill="none" stroke="black" points="1332.75,-152 1128.5,-152 1128.5,-128 1332.75,-128 1344.75,-140 1332.75,-152"/>
<text xml:space="preserve" text-anchor="middle" x="1236.62" y="-134.2" font-family="Sans-Serif" font-size="14.00">mask_by_square_matrix_column</text>
</g>
<!-- VG2&#45;&gt;VG2_ -->
<g id="edge8" class="edge">
<title>VG2:e&#45;&gt;VG2_:w</title>
<path fill="none" stroke="black" d="M1027.5,-137C1068.37,-137 1081.31,-139.49 1117.16,-139.93"/>
<polygon fill="black" stroke="black" points="1116.97,-143.43 1126.99,-139.99 1117.01,-136.43 1116.97,-143.43"/>
</g>
<!-- VG2_&#45;&gt;..., base_vector, BeginAnyMask, VectorState -->
<g id="edge9" class="edge">
<title>VG2_:e&#45;&gt;..., base_vector, BeginAnyMask, VectorState</title>
<path fill="none" stroke="black" d="M1344.75,-140C1352.81,-140 1361.02,-140.64 1369.22,-141.77"/>
<polygon fill="black" stroke="black" points="1368.46,-145.2 1378.9,-143.36 1369.59,-138.29 1368.46,-145.2"/>
</g>
<!-- VG3_ -->
<g id="node13" class="node">
<title>VG3_</title>
<polygon fill="none" stroke="black" points="1308.38,-213 1152.88,-213 1152.88,-189 1308.38,-189 1320.38,-201 1308.38,-213"/>
<text xml:space="preserve" text-anchor="middle" x="1236.62" y="-195.2" font-family="Sans-Serif" font-size="14.00">mask_by_matrix_column</text>
</g>
<!-- VG3&#45;&gt;VG3_ -->
<g id="edge10" class="edge">
<title>VG3:e&#45;&gt;VG3_:w</title>
<path fill="none" stroke="black" d="M1092.5,-205C1114.68,-205 1122.73,-202.15 1140.5,-201.26"/>
<polygon fill="black" stroke="black" points="1140.1,-204.77 1150.01,-201.04 1139.93,-197.78 1140.1,-204.77"/>
</g>
<!-- VG3_&#45;&gt;..., base_vector, BeginAnyMask, VectorState -->
<g id="edge11" class="edge">
<title>VG3_:e&#45;&gt;..., base_vector, BeginAnyMask, VectorState</title>
<path fill="none" stroke="black" d="M1321.73,-201C1337.2,-201 1353.44,-200.32 1369.48,-199.24"/>
<polygon fill="black" stroke="black" points="1369.3,-202.76 1379.02,-198.54 1368.79,-195.78 1369.3,-202.76"/>
</g>
<!-- VG10_ -->
<g id="node15" class="node">
<title>VG10_</title>
<polygon fill="none" stroke="black" points="2824.88,-325 2698.62,-325 2698.62,-301 2824.88,-301 2836.88,-313 2824.88,-325"/>
<text xml:space="preserve" text-anchor="middle" x="2767.75" y="-307.2" font-family="Sans-Serif" font-size="14.00">operation_by_vector</text>
</g>
<!-- VG10&#45;&gt;VG10_ -->
<g id="edge13" class="edge">
<title>VG10:e&#45;&gt;VG10_:w</title>
<path fill="none" stroke="black" d="M2419.12,-321C2538.96,-321 2571.62,-313.49 2686,-313.02"/>
<polygon fill="black" stroke="black" points="2685.83,-316.52 2695.82,-313 2685.81,-309.52 2685.83,-316.52"/>
</g>
<!-- VG10_&#45;&gt;..., base_vector, BeginAnyMask, VectorState, MaskOperation, VectorState -->
<g id="edge14" class="edge">
<title>VG10_:e&#45;&gt;..., base_vector, BeginAnyMask, VectorState, MaskOperation, VectorState</title>
<path fill="none" stroke="black" d="M2838.17,-313C2862.28,-313 2887.07,-311.34 2911.86,-308.49"/>
<polygon fill="black" stroke="black" points="2912.25,-311.97 2921.75,-307.29 2911.4,-305.02 2912.25,-311.97"/>
</g>
<!-- VG7_ -->
<g id="node17" class="node">
<title>VG7_</title>
<polygon fill="none" stroke="black" points="2864.25,-129 2659.25,-129 2659.25,-105 2864.25,-105 2876.25,-117 2864.25,-129"/>
<text xml:space="preserve" text-anchor="middle" x="2767.75" y="-111.2" font-family="Sans-Serif" font-size="14.00">operation_by_square_matrix_row</text>
</g>
<!-- VG7&#45;&gt;VG7_ -->
<g id="edge16" class="edge">
<title>VG7:e&#45;&gt;VG7_:w</title>
<path fill="none" stroke="black" d="M2522.25,-117C2578.49,-117 2595.35,-117 2646.36,-117"/>
<polygon fill="black" stroke="black" points="2646.28,-120.5 2656.28,-117 2646.28,-113.5 2646.28,-120.5"/>
</g>
<!-- VG7_&#45;&gt;..., base_vector, BeginAnyMask, VectorState, MaskOperation, VectorState -->
<g id="edge17" class="edge">
<title>VG7_:e&#45;&gt;..., base_vector, BeginAnyMask, VectorState, MaskOperation, VectorState</title>
<path fill="none" stroke="black" d="M2877.71,-117C2900.68,-117 2902.28,-132.19 2923.5,-141 2927.11,-142.5 2930.75,-143.98 2934.42,-145.46"/>
<polygon fill="black" stroke="black" points="2932.84,-148.6 2943.43,-149.03 2935.42,-142.09 2932.84,-148.6"/>
</g>
<!-- VG7_&#45;&gt;VectorAxisLookup2 -->
<!-- VG8_ -->
<g id="node19" class="node">
<title>VG8_</title>
<polygon fill="none" stroke="black" points="2875.5,-200 2648,-200 2648,-176 2875.5,-176 2887.5,-188 2875.5,-200"/>
<text xml:space="preserve" text-anchor="middle" x="2767.75" y="-182.2" font-family="Sans-Serif" font-size="14.00">operation_by_square_matrix_column</text>
</g>
<!-- VG8&#45;&gt;VG8_ -->
<g id="edge19" class="edge">
<title>VG8:e&#45;&gt;VG8_:w</title>
<path fill="none" stroke="black" d="M2547,-185C2587.87,-185 2600.81,-187.49 2636.66,-187.93"/>
<polygon fill="black" stroke="black" points="2636.47,-191.43 2646.49,-187.99 2636.51,-184.43 2636.47,-191.43"/>
</g>
<!-- VG8_&#45;&gt;..., base_vector, BeginAnyMask, VectorState, MaskOperation, VectorState -->
<g id="edge20" class="edge">
<title>VG8_:e&#45;&gt;..., base_vector, BeginAnyMask, VectorState, MaskOperation, VectorState</title>
<path fill="none" stroke="black" d="M2887.5,-188C2895.57,-188 2903.75,-188.13 2911.99,-188.39"/>
<polygon fill="black" stroke="black" points="2911.64,-191.87 2921.76,-188.75 2911.9,-184.88 2911.64,-191.87"/>
</g>
<!-- VG9_ -->
<g id="node21" class="node">
<title>VG9_</title>
<polygon fill="none" stroke="black" points="2851.12,-261 2672.38,-261 2672.38,-237 2851.12,-237 2863.12,-249 2851.12,-261"/>
<text xml:space="preserve" text-anchor="middle" x="2767.75" y="-243.2" font-family="Sans-Serif" font-size="14.00">operation_by_matrix_column</text>
</g>
<!-- VG9&#45;&gt;VG9_ -->
<g id="edge22" class="edge">
<title>VG9:e&#45;&gt;VG9_:w</title>
<path fill="none" stroke="black" d="M2612,-253C2633.96,-253 2642.06,-250.2 2659.47,-249.29"/>
<polygon fill="black" stroke="black" points="2659.55,-252.79 2669.46,-249.04 2659.38,-245.79 2659.55,-252.79"/>
</g>
<!-- VG9_&#45;&gt;..., base_vector, BeginAnyMask, VectorState, MaskOperation, VectorState -->
<g id="edge23" class="edge">
<title>VG9_:e&#45;&gt;..., base_vector, BeginAnyMask, VectorState, MaskOperation, VectorState</title>
<path fill="none" stroke="black" d="M2864.53,-249C2880.05,-249 2895.96,-248.82 2912.01,-248.49"/>
<polygon fill="black" stroke="black" points="2911.72,-252 2921.64,-248.27 2911.56,-245 2911.72,-252"/>
</g>
<!-- VG11_&#45;&gt;..., axis_vector -->
<!-- VG11_&#45;&gt;..., base_vector, BeginAnyMask, VectorState -->
<g id="edge25" class="edge">
<title>VG11_:e&#45;&gt;..., base_vector, BeginAnyMask, VectorState:n</title>
<path fill="none" stroke="black" d="M3755.71,-168C3821.98,-168 3563.74,-303.8 3499.75,-321 3099.88,-428.5 2027.71,-491.41 1636.75,-355 1562.17,-328.98 1497.12,-322.47 1491.19,-250.16"/>
<polygon fill="black" stroke="black" points="1494.7,-250.37 1490.81,-240.51 1487.71,-250.64 1494.7,-250.37"/>
</g>
<!-- VectorAxisLookup2&#45;&gt;..., base_vector, BeginAnyMask, VectorState, MaskOperation, VectorState -->
<g id="edge27" class="edge">
<title>VectorAxisLookup2&#45;&gt;..., base_vector, BeginAnyMask, VectorState, MaskOperation, VectorState</title>
<path fill="none" stroke="black" d="M3190.44,-132.36C3188.21,-134.89 3186.2,-137.42 3184.4,-139.95"/>
<polygon fill="black" stroke="black" points="3181.47,-138.03 3179.3,-148.4 3187.46,-141.65 3181.47,-138.03"/>
</g>
<!-- VG12_ -->
<g id="node25" class="node">
<title>VG12_</title>
<polygon fill="none" stroke="black" points="2795.25,-60 2728.25,-60 2728.25,-36 2795.25,-36 2807.25,-48 2795.25,-60"/>
<text xml:space="preserve" text-anchor="middle" x="2767.75" y="-42.2" font-family="Sans-Serif" font-size="14.00">end_mask</text>
</g>
<!-- VG12&#45;&gt;VG12_ -->
<g id="edge30" class="edge">
<title>VG12:e&#45;&gt;VG12_:w</title>
<path fill="none" stroke="black" d="M2170.5,-45C2413.92,-45 2477.62,-47.91 2715.42,-48"/>
<polygon fill="black" stroke="black" points="2715.37,-51.5 2725.37,-48 2715.37,-44.5 2715.37,-51.5"/>
</g>
<!-- VG12_&#45;&gt;..., axis_vector -->
<g id="edge36" class="edge">
<title>VG12_:e&#45;&gt;..., axis_vector</title>
<path fill="none" stroke="black" d="M2808.62,-48C3167.26,-48 3593.59,-68.14 3778.56,-77.86"/>
<polygon fill="black" stroke="black" points="3778.18,-81.35 3788.35,-78.38 3778.55,-74.36 3778.18,-81.35"/>
</g>
</g>
</svg>
