<?xml version="1.0" encoding="UTF-8" standalone="no"?>
<!DOCTYPE svg PUBLIC "-//W3C//DTD SVG 1.1//EN"
 "http://www.w3.org/Graphics/SVG/1.1/DTD/svg11.dtd">
<!-- Generated by graphviz version 14.0.2 (20251019.1705)
 -->
<!-- Pages: 1 -->
<svg width="1588pt" height="331pt"
 viewBox="0.00 0.00 1588.00 331.00" xmlns="http://www.w3.org/2000/svg" xmlns:xlink="http://www.w3.org/1999/xlink">
<g id="graph0" class="graph" transform="scale(1 1) rotate(0) translate(4 327)">
<polygon fill="white" stroke="none" points="-4,4 -4,-327 1583.75,-327 1583.75,4 -4,4"/>
<g id="clust1" class="cluster">
<title>cluster_component</title>
<polygon fill="none" stroke="black" points="148.25,-8 148.25,-315 1465.25,-315 1465.25,-8 148.25,-8"/>
<text xml:space="preserve" text-anchor="middle" x="806.75" y="-284.4" font-family="Sans-Serif" font-size="28.00">VectorLookup</text>
</g>
<!-- ..., vector_is_axis -->
<g id="node1" class="node">
<title>..., vector_is_axis</title>
<polygon fill="none" stroke="black" points="120.25,-168 0,-168 0,-118 120.25,-118 120.25,-168"/>
<text xml:space="preserve" text-anchor="start" x="54.5" y="-151.7" font-family="Sans-Serif" font-size="14.00">...</text>
<text xml:space="preserve" text-anchor="start" x="8" y="-137.7" font-family="Sans-Serif" font-size="14.00">VectorState </text>
<text xml:space="preserve" text-anchor="start" x="82.25" y="-137.7" font-family="Sans-Serif" font-style="italic" baseline-shift="sub" font-size="14.00" fill="gray">axis   </text>
</g>
<!-- VL1 -->
<g id="node3" class="node">
<title>VL1</title>
<polygon fill="none" stroke="black" stroke-dasharray="1,5" points="1145.75,-66 230.5,-66 230.5,-16 1145.75,-16 1145.75,-66"/>
<text xml:space="preserve" text-anchor="start" x="407.62" y="-49.7" font-family="Courier,monospace" font-size="14.00" fill="gray">?? final_value</text>
<text xml:space="preserve" text-anchor="start" x="523.12" y="-49.7" font-family="Courier,monospace" font-size="14.00">:: square_matrix_property </text>
<text xml:space="preserve" text-anchor="start" x="737.62" y="-49.7" font-family="Courier,monospace" font-size="14.00" fill="gray">|| default_value</text>
<text xml:space="preserve" text-anchor="start" x="869.62" y="-49.7" font-family="Courier,monospace" font-size="14.00"> |= row_name</text>
<text xml:space="preserve" text-anchor="start" x="238.5" y="-21.7" font-family="Courier,monospace" font-size="14.00" fill="gray">IfEmpty(final_value) |&gt;</text>
<text xml:space="preserve" text-anchor="start" x="428.25" y="-21.7" font-family="Courier,monospace" font-size="14.00"> LookupMatrix(square_matrix_property) </text>
<text xml:space="preserve" text-anchor="start" x="741.75" y="-21.7" font-family="Courier,monospace" font-size="14.00" fill="gray">|&gt; IfMissing(default_value)</text>
<text xml:space="preserve" text-anchor="start" x="964.5" y="-21.7" font-family="Courier,monospace" font-size="14.00"> RowIsEqual(row_name)</text>
</g>
<!-- ..., vector_is_axis&#45;&gt;VL1 -->
<g id="edge5" class="edge">
<title>..., vector_is_axis&#45;&gt;VL1:w</title>
<path fill="none" stroke="black" d="M84.36,-117.52C112.64,-89.26 163.44,-46.9 218.14,-41.56"/>
<polygon fill="black" stroke="black" points="218.17,-45.06 227.99,-41.07 217.83,-38.07 218.17,-45.06"/>
</g>
<!-- VL2 -->
<g id="node5" class="node">
<title>VL2</title>
<polygon fill="none" stroke="black" stroke-dasharray="1,5" points="1170.5,-134 205.75,-134 205.75,-84 1170.5,-84 1170.5,-134"/>
<text xml:space="preserve" text-anchor="start" x="391.12" y="-117.7" font-family="Courier,monospace" font-size="14.00" fill="gray">?? final_value</text>
<text xml:space="preserve" text-anchor="start" x="506.62" y="-117.7" font-family="Courier,monospace" font-size="14.00"> :: square_matrix_property </text>
<text xml:space="preserve" text-anchor="start" x="729.38" y="-117.7" font-family="Courier,monospace" font-size="14.00" fill="gray">|| default_value</text>
<text xml:space="preserve" text-anchor="start" x="861.38" y="-117.7" font-family="Courier,monospace" font-size="14.00"> |= column_name</text>
<text xml:space="preserve" text-anchor="start" x="213.75" y="-89.7" font-family="Courier,monospace" font-size="14.00" fill="gray">IfEmpty(final_value) |&gt;</text>
<text xml:space="preserve" text-anchor="start" x="403.5" y="-89.7" font-family="Courier,monospace" font-size="14.00"> LookupMatrix(square_matrix_property) </text>
<text xml:space="preserve" text-anchor="start" x="717" y="-89.7" font-family="Courier,monospace" font-size="14.00" fill="gray">|&gt; IfMissing(default_value)</text>
<text xml:space="preserve" text-anchor="start" x="939.75" y="-89.7" font-family="Courier,monospace" font-size="14.00"> ColumnIsEqual(column_name)</text>
</g>
<!-- ..., vector_is_axis&#45;&gt;VL2 -->
<g id="edge6" class="edge">
<title>..., vector_is_axis&#45;&gt;VL2:w</title>
<path fill="none" stroke="black" d="M120.48,-122.44C142.68,-116.23 168.55,-110.68 193.41,-109.32"/>
<polygon fill="black" stroke="black" points="193.34,-112.82 203.24,-109.04 193.14,-105.83 193.34,-112.82"/>
</g>
<!-- VL3 -->
<g id="node7" class="node">
<title>VL3</title>
<polygon fill="none" stroke="black" stroke-dasharray="1,5" points="1220,-202 156.25,-202 156.25,-152 1220,-152 1220,-202"/>
<text xml:space="preserve" text-anchor="start" x="362.25" y="-185.7" font-family="Courier,monospace" font-size="14.00" fill="gray">?? final_value</text>
<text xml:space="preserve" text-anchor="start" x="477.75" y="-185.7" font-family="Courier,monospace" font-size="14.00"> :: matrix_property </text>
<text xml:space="preserve" text-anchor="start" x="642.75" y="-185.7" font-family="Courier,monospace" font-size="14.00" fill="gray">|| default_value</text>
<text xml:space="preserve" text-anchor="start" x="774.75" y="-185.7" font-family="Courier,monospace" font-size="14.00"> / columns_axis = column_name</text>
<text xml:space="preserve" text-anchor="start" x="164.25" y="-157.7" font-family="Courier,monospace" font-size="14.00" fill="gray">IfEmpty(final_value) |&gt;</text>
<text xml:space="preserve" text-anchor="start" x="354" y="-157.7" font-family="Courier,monospace" font-size="14.00"> LookupMatrix(matrix_property) </text>
<text xml:space="preserve" text-anchor="start" x="609.75" y="-157.7" font-family="Courier,monospace" font-size="14.00" fill="gray">|&gt; IfMissing(default_value)</text>
<text xml:space="preserve" text-anchor="start" x="832.5" y="-157.7" font-family="Courier,monospace" font-size="14.00"> |&gt; Axis(columns_axis) |&gt; IsEqual(column_name)</text>
</g>
<!-- ..., vector_is_axis&#45;&gt;VL3 -->
<g id="edge7" class="edge">
<title>..., vector_is_axis&#45;&gt;VL3:w</title>
<path fill="none" stroke="black" d="M111.73,-168.42C121.95,-172.07 132.93,-175.03 143.88,-176.31"/>
<polygon fill="black" stroke="black" points="143.55,-179.8 153.74,-176.91 143.97,-172.81 143.55,-179.8"/>
</g>
<!-- VL4 -->
<g id="node9" class="node">
<title>VL4</title>
<polygon fill="none" stroke="black" stroke-dasharray="1,5" points="1030.25,-270 346,-270 346,-220 1030.25,-220 1030.25,-270"/>
<text xml:space="preserve" text-anchor="start" x="486" y="-253.7" font-family="Courier,monospace" font-size="14.00" fill="gray">?? final_value</text>
<text xml:space="preserve" text-anchor="start" x="601.5" y="-253.7" font-family="Courier,monospace" font-size="14.00"> : vector_property </text>
<text xml:space="preserve" text-anchor="start" x="758.25" y="-253.7" font-family="Courier,monospace" font-size="14.00" fill="gray">|| default_value</text>
<text xml:space="preserve" text-anchor="start" x="354" y="-225.7" font-family="Courier,monospace" font-size="14.00" fill="gray">IfEmpty(final_value) |&gt;</text>
<text xml:space="preserve" text-anchor="start" x="543.75" y="-225.7" font-family="Courier,monospace" font-size="14.00"> LookupVector(vector_property) </text>
<text xml:space="preserve" text-anchor="start" x="799.5" y="-225.7" font-family="Courier,monospace" font-size="14.00" fill="gray">|&gt; IfMissing(default_value)</text>
</g>
<!-- ..., vector_is_axis&#45;&gt;VL4 -->
<g id="edge8" class="edge">
<title>..., vector_is_axis&#45;&gt;VL4:w</title>
<path fill="none" stroke="black" d="M86.35,-168.19C102.65,-182.99 125.09,-200.74 148.25,-211 225.9,-245.39 253.85,-245.1 333.89,-245.01"/>
<polygon fill="black" stroke="black" points="333.49,-248.51 343.49,-245 333.48,-241.51 333.49,-248.51"/>
</g>
<!-- ..., VectorState -->
<g id="node2" class="node">
<title>..., VectorState</title>
<polygon fill="none" stroke="black" points="1579.75,-161 1493.25,-161 1493.25,-123 1579.75,-123 1579.75,-161"/>
<text xml:space="preserve" text-anchor="start" x="1530.88" y="-143.7" font-family="Sans-Serif" font-size="14.00">...</text>
<text xml:space="preserve" text-anchor="start" x="1501.25" y="-128.7" font-family="Sans-Serif" font-size="14.00">VectorState</text>
</g>
<!-- VL1_ -->
<g id="node4" class="node">
<title>VL1_</title>
<polygon fill="none" stroke="black" points="1434,-61 1267.25,-61 1267.25,-37 1434,-37 1446,-49 1434,-61"/>
<text xml:space="preserve" text-anchor="middle" x="1356.62" y="-43.2" font-family="Sans-Serif" font-size="14.00">lookup_square_matrix_row</text>
</g>
<!-- VL1&#45;&gt;VL1_ -->
<g id="edge1" class="edge">
<title>VL1&#45;&gt;VL1_</title>
<path fill="none" stroke="black" d="M1146.11,-46.49C1186.34,-46.97 1223.77,-47.42 1255.54,-47.8"/>
<polygon fill="black" stroke="black" points="1255.42,-51.3 1265.46,-47.92 1255.51,-44.3 1255.42,-51.3"/>
</g>
<!-- VL1_&#45;&gt;..., VectorState -->
<g id="edge9" class="edge">
<title>VL1_:e&#45;&gt;..., VectorState</title>
<path fill="none" stroke="black" d="M1447.38,-49C1482.92,-49 1508.42,-85.23 1522.58,-112.47"/>
<polygon fill="black" stroke="black" points="1519.4,-113.93 1526.94,-121.37 1525.68,-110.85 1519.4,-113.93"/>
</g>
<!-- VL2_ -->
<g id="node6" class="node">
<title>VL2_</title>
<polygon fill="none" stroke="black" points="1445.25,-124 1256,-124 1256,-100 1445.25,-100 1457.25,-112 1445.25,-124"/>
<text xml:space="preserve" text-anchor="middle" x="1356.62" y="-106.2" font-family="Sans-Serif" font-size="14.00">lookup_square_matrix_column</text>
</g>
<!-- VL2&#45;&gt;VL2_ -->
<g id="edge2" class="edge">
<title>VL2:e&#45;&gt;VL2_:w</title>
<path fill="none" stroke="black" d="M1171.5,-109C1204.97,-109 1216.04,-111.38 1244.61,-111.9"/>
<polygon fill="black" stroke="black" points="1244.46,-115.4 1254.49,-111.99 1244.52,-108.4 1244.46,-115.4"/>
</g>
<!-- VL2_&#45;&gt;..., VectorState -->
<g id="edge10" class="edge">
<title>VL2_:e&#45;&gt;..., VectorState</title>
<path fill="none" stroke="black" d="M1458.67,-112C1469.62,-112 1480.88,-114.68 1491.29,-118.43"/>
<polygon fill="black" stroke="black" points="1489.79,-121.6 1500.38,-122.09 1492.41,-115.11 1489.79,-121.6"/>
</g>
<!-- VL3_ -->
<g id="node8" class="node">
<title>VL3_</title>
<polygon fill="none" stroke="black" points="1420.88,-185 1280.38,-185 1280.38,-161 1420.88,-161 1432.88,-173 1420.88,-185"/>
<text xml:space="preserve" text-anchor="middle" x="1356.62" y="-167.2" font-family="Sans-Serif" font-size="14.00">lookup_matrix_column</text>
</g>
<!-- VL3&#45;&gt;VL3_ -->
<g id="edge3" class="edge">
<title>VL3:e&#45;&gt;VL3_:w</title>
<path fill="none" stroke="black" d="M1220,-177C1242.2,-177 1250.25,-174.15 1268.03,-173.26"/>
<polygon fill="black" stroke="black" points="1267.63,-176.77 1277.54,-173.04 1267.46,-169.78 1267.63,-176.77"/>
</g>
<!-- VL3_&#45;&gt;..., VectorState -->
<g id="edge11" class="edge">
<title>VL3_:e&#45;&gt;..., VectorState</title>
<path fill="none" stroke="black" d="M1434.2,-173C1450.18,-173 1466.99,-169.43 1482.21,-164.71"/>
<polygon fill="black" stroke="black" points="1483.18,-168.08 1491.55,-161.58 1480.96,-161.44 1483.18,-168.08"/>
</g>
<!-- VL4_ -->
<g id="node10" class="node">
<title>VL4_</title>
<polygon fill="none" stroke="black" points="1394.62,-249 1306.62,-249 1306.62,-225 1394.62,-225 1406.62,-237 1394.62,-249"/>
<text xml:space="preserve" text-anchor="middle" x="1356.62" y="-231.2" font-family="Sans-Serif" font-size="14.00">lookup_vector</text>
</g>
<!-- VL4&#45;&gt;VL4_ -->
<g id="edge4" class="edge">
<title>VL4:e&#45;&gt;VL4_:w</title>
<path fill="none" stroke="black" d="M1031.25,-245C1149.11,-245 1181.32,-237.51 1293.66,-237.02"/>
<polygon fill="black" stroke="black" points="1293.65,-240.52 1303.64,-237 1293.64,-233.52 1293.65,-240.52"/>
</g>
<!-- VL4_&#45;&gt;..., VectorState -->
<g id="edge12" class="edge">
<title>VL4_:e&#45;&gt;..., VectorState</title>
<path fill="none" stroke="black" d="M1408.09,-237C1453.21,-237 1492.67,-198.24 1515.29,-170.24"/>
<polygon fill="black" stroke="black" points="1518,-172.46 1521.38,-162.42 1512.47,-168.16 1518,-172.46"/>
</g>
</g>
</svg>
