<?xml version="1.0" encoding="UTF-8" standalone="no"?>
<!DOCTYPE svg PUBLIC "-//W3C//DTD SVG 1.1//EN"
 "http://www.w3.org/Graphics/SVG/1.1/DTD/svg11.dtd">
<!-- Generated by graphviz version 12.2.1 (20241206.2353)
 -->
<!-- Pages: 1 -->
<svg width="696pt" height="415pt"
 viewBox="0.00 0.00 696.19 414.56" xmlns="http://www.w3.org/2000/svg" xmlns:xlink="http://www.w3.org/1999/xlink">
<g id="graph0" class="graph" transform="scale(1 1) rotate(0) translate(4 410.56)">
<polygon fill="white" stroke="none" points="-4,4 -4,-410.56 692.19,-410.56 692.19,4 -4,4"/>
<!-- Copies -->
<g id="node1" class="node">
<title>Copies</title>
<g id="a_node1"><a xlink:href="../copies.html" xlink:title="Copies" target="_top">
<polygon fill="none" stroke="white" points="266.19,-185.28 219.87,-185.28 219.87,-165.96 266.19,-165.96 266.19,-185.28"/>
<text text-anchor="middle" x="243.03" y="-169.82" font-family="Sans-Serif" font-size="14.00">Copies</text>
</a>
</g>
</g>
<!-- Adapters -->
<g id="node3" class="node">
<title>Adapters</title>
<g id="a_node3"><a xlink:href="../adapters.html" xlink:title="Adapters" target="_top">
<polygon fill="none" stroke="white" points="372.19,-19.32 313.87,-19.32 313.87,0 372.19,0 372.19,-19.32"/>
<text text-anchor="middle" x="343.03" y="-3.86" font-family="Sans-Serif" font-size="14.00">Adapters</text>
</a>
</g>
</g>
<!-- Copies&#45;&gt;Adapters -->
<g id="edge4" class="edge">
<title>Copies&#45;&gt;Adapters</title>
<path fill="none" stroke="black" d="M248.41,-165.8C264.15,-140 310.35,-64.26 331.82,-29.04"/>
<polygon fill="black" stroke="black" points="334.62,-31.17 336.84,-20.81 328.65,-27.53 334.62,-31.17"/>
</g>
<!-- Concat -->
<g id="node23" class="node">
<title>Concat</title>
<g id="a_node23"><a xlink:href="../concat.html" xlink:title="Concat" target="_top">
<polygon fill="none" stroke="white" points="368.57,-129.96 321.5,-129.96 321.5,-110.64 368.57,-110.64 368.57,-129.96"/>
<text text-anchor="middle" x="345.03" y="-114.5" font-family="Sans-Serif" font-size="14.00">Concat</text>
</a>
</g>
</g>
<!-- Copies&#45;&gt;Concat -->
<g id="edge30" class="edge">
<title>Copies&#45;&gt;Concat</title>
<path fill="none" stroke="black" d="M260.34,-165.57C276.02,-157.38 299.39,-145.16 317.61,-135.64"/>
<polygon fill="black" stroke="black" points="319.07,-138.83 326.31,-131.09 315.82,-132.62 319.07,-138.83"/>
</g>
<!-- Writers -->
<g id="node2" class="node">
<title>Writers</title>
<g id="a_node2"><a xlink:href="../writers.html" xlink:title="Writers" target="_top">
<polygon fill="none" stroke="white" points="350.57,-240.6 303.5,-240.6 303.5,-221.28 350.57,-221.28 350.57,-240.6"/>
<text text-anchor="middle" x="327.03" y="-225.14" font-family="Sans-Serif" font-size="14.00">Writers</text>
</a>
</g>
</g>
<!-- Writers&#45;&gt;Copies -->
<g id="edge1" class="edge">
<title>Writers&#45;&gt;Copies</title>
<path fill="none" stroke="black" d="M312.79,-220.89C300.24,-212.93 281.7,-201.16 266.89,-191.76"/>
<polygon fill="black" stroke="black" points="268.95,-188.92 258.63,-186.52 265.2,-194.83 268.95,-188.92"/>
</g>
<!-- Chains -->
<g id="node4" class="node">
<title>Chains</title>
<g id="a_node4"><a xlink:href="../chains.html" xlink:title="Chains" target="_top">
<polygon fill="none" stroke="white" points="424.19,-185.28 377.87,-185.28 377.87,-165.96 424.19,-165.96 424.19,-185.28"/>
<text text-anchor="middle" x="401.03" y="-169.82" font-family="Sans-Serif" font-size="14.00">Chains</text>
</a>
</g>
</g>
<!-- Writers&#45;&gt;Chains -->
<g id="edge24" class="edge">
<title>Writers&#45;&gt;Chains</title>
<path fill="none" stroke="black" d="M339.59,-220.89C350.5,-213.03 366.54,-201.48 379.5,-192.14"/>
<polygon fill="black" stroke="black" points="381.37,-195.1 387.44,-186.42 377.28,-189.42 381.37,-195.1"/>
</g>
<!-- MemoryFormat -->
<g id="node5" class="node">
<title>MemoryFormat</title>
<g id="a_node5"><a xlink:href="../memory_format.html" xlink:title="MemoryFormat" target="_top">
<polygon fill="none" stroke="white" points="202.07,-185.28 104,-185.28 104,-165.96 202.07,-165.96 202.07,-185.28"/>
<text text-anchor="middle" x="153.03" y="-169.82" font-family="Sans-Serif" font-size="14.00">MemoryFormat</text>
</a>
</g>
</g>
<!-- Writers&#45;&gt;MemoryFormat -->
<g id="edge17" class="edge">
<title>Writers&#45;&gt;MemoryFormat</title>
<path fill="none" stroke="black" d="M303.21,-222.64C275.03,-214 227.66,-199.49 193.65,-189.07"/>
<polygon fill="black" stroke="black" points="194.71,-185.73 184.13,-186.15 192.66,-192.42 194.71,-185.73"/>
</g>
<!-- H5dfFormat -->
<g id="node19" class="node">
<title>H5dfFormat</title>
<g id="a_node19"><a xlink:href="../h5df_format.html" xlink:title="H5dfFormat" target="_top">
<polygon fill="none" stroke="white" points="360.19,-185.28 283.88,-185.28 283.88,-165.96 360.19,-165.96 360.19,-185.28"/>
<text text-anchor="middle" x="322.03" y="-169.82" font-family="Sans-Serif" font-size="14.00">H5dfFormat</text>
</a>
</g>
</g>
<!-- Writers&#45;&gt;H5dfFormat -->
<g id="edge20" class="edge">
<title>Writers&#45;&gt;H5dfFormat</title>
<path fill="none" stroke="black" d="M326.21,-221.14C325.59,-214.54 324.72,-205.24 323.93,-196.85"/>
<polygon fill="black" stroke="black" points="327.44,-196.75 323.02,-187.12 320.47,-197.41 327.44,-196.75"/>
</g>
<!-- FilesFormat -->
<g id="node22" class="node">
<title>FilesFormat</title>
<g id="a_node22"><a xlink:href="../files_format.html" xlink:title="FilesFormat" target="_top">
<polygon fill="none" stroke="white" points="518.19,-185.28 441.88,-185.28 441.88,-165.96 518.19,-165.96 518.19,-185.28"/>
<text text-anchor="middle" x="480.03" y="-169.82" font-family="Sans-Serif" font-size="14.00">FilesFormat</text>
</a>
</g>
</g>
<!-- Writers&#45;&gt;FilesFormat -->
<g id="edge26" class="edge">
<title>Writers&#45;&gt;FilesFormat</title>
<path fill="none" stroke="black" d="M350.94,-221.61C375.65,-213 414.54,-199.44 443.19,-189.46"/>
<polygon fill="black" stroke="black" points="444.27,-192.79 452.56,-186.19 441.97,-186.18 444.27,-192.79"/>
</g>
<!-- Reconstruction -->
<g id="node24" class="node">
<title>Reconstruction</title>
<g id="a_node24"><a xlink:href="../reconstruction.html" xlink:title="Reconstruction" target="_top">
<polygon fill="none" stroke="white" points="630.19,-185.28 535.88,-185.28 535.88,-165.96 630.19,-165.96 630.19,-185.28"/>
<text text-anchor="middle" x="583.03" y="-169.82" font-family="Sans-Serif" font-size="14.00">Reconstruction</text>
</a>
</g>
</g>
<!-- Writers&#45;&gt;Reconstruction -->
<g id="edge32" class="edge">
<title>Writers&#45;&gt;Reconstruction</title>
<path fill="none" stroke="black" d="M350.76,-223.33C353.54,-222.61 356.35,-221.91 359.03,-221.28 414.91,-208.17 479.2,-195.6 524.54,-187.16"/>
<polygon fill="black" stroke="black" points="524.96,-190.65 534.15,-185.38 523.68,-183.76 524.96,-190.65"/>
</g>
<!-- Chains&#45;&gt;Adapters -->
<g id="edge2" class="edge">
<title>Chains&#45;&gt;Adapters</title>
<path fill="none" stroke="black" d="M397.92,-165.8C388.87,-140.23 362.46,-65.56 349.86,-29.96"/>
<polygon fill="black" stroke="black" points="353.31,-29.21 346.67,-20.95 346.71,-31.54 353.31,-29.21"/>
</g>
<!-- MemoryFormat&#45;&gt;Adapters -->
<g id="edge3" class="edge">
<title>MemoryFormat&#45;&gt;Adapters</title>
<path fill="none" stroke="black" d="M165.73,-165.75C178.08,-156.99 197.23,-143.04 213.03,-129.96 255.08,-95.18 301.55,-51.04 325.94,-27.41"/>
<polygon fill="black" stroke="black" points="328.06,-30.22 332.79,-20.74 323.18,-25.21 328.06,-30.22"/>
</g>
<!-- ExampleData -->
<g id="node18" class="node">
<title>ExampleData</title>
<g id="a_node18"><a xlink:href="../example_data.html" xlink:title="ExampleData" target="_top">
<polygon fill="none" stroke="white" points="86.07,-129.96 0,-129.96 0,-110.64 86.07,-110.64 86.07,-129.96"/>
<text text-anchor="middle" x="43.03" y="-114.5" font-family="Sans-Serif" font-size="14.00">ExampleData</text>
</a>
</g>
</g>
<!-- MemoryFormat&#45;&gt;ExampleData -->
<g id="edge16" class="edge">
<title>MemoryFormat&#45;&gt;ExampleData</title>
<path fill="none" stroke="black" d="M134.37,-165.57C117.31,-157.3 91.79,-144.93 72.06,-135.37"/>
<polygon fill="black" stroke="black" points="73.67,-132.26 63.15,-131.05 70.62,-138.56 73.67,-132.26"/>
</g>
<!-- AnnDataFormat -->
<g id="node21" class="node">
<title>AnnDataFormat</title>
<g id="a_node21"><a xlink:href="../anndata_format.html" xlink:title="AnnDataFormat" target="_top">
<polygon fill="none" stroke="white" points="204.19,-129.96 103.87,-129.96 103.87,-110.64 204.19,-110.64 204.19,-129.96"/>
<text text-anchor="middle" x="154.03" y="-114.5" font-family="Sans-Serif" font-size="14.00">AnnDataFormat</text>
</a>
</g>
</g>
<!-- MemoryFormat&#45;&gt;AnnDataFormat -->
<g id="edge25" class="edge">
<title>MemoryFormat&#45;&gt;AnnDataFormat</title>
<path fill="none" stroke="black" d="M153.2,-165.82C153.32,-159.22 153.5,-149.92 153.66,-141.53"/>
<polygon fill="black" stroke="black" points="157.15,-141.87 153.84,-131.81 150.15,-141.74 157.15,-141.87"/>
</g>
<!-- Computations -->
<g id="node6" class="node">
<title>Computations</title>
<g id="a_node6"><a xlink:href="../computations.html" xlink:title="Computations" target="_top">
<polygon fill="none" stroke="white" points="565.19,-74.64 476.88,-74.64 476.88,-55.32 565.19,-55.32 565.19,-74.64"/>
<text text-anchor="middle" x="521.03" y="-59.18" font-family="Sans-Serif" font-size="14.00">Computations</text>
</a>
</g>
</g>
<!-- Computations&#45;&gt;Adapters -->
<g id="edge5" class="edge">
<title>Computations&#45;&gt;Adapters</title>
<path fill="none" stroke="black" d="M490.84,-54.93C461.29,-46.08 416.1,-32.55 383.46,-22.77"/>
<polygon fill="black" stroke="black" points="384.52,-19.43 373.94,-19.92 382.51,-26.14 384.52,-19.43"/>
</g>
<!-- Views -->
<g id="node7" class="node">
<title>Views</title>
<g id="a_node7"><a xlink:href="../views.html" xlink:title="Views" target="_top">
<polygon fill="none" stroke="white" points="688.19,-185.28 647.88,-185.28 647.88,-165.96 688.19,-165.96 688.19,-185.28"/>
<text text-anchor="middle" x="668.03" y="-169.82" font-family="Sans-Serif" font-size="14.00">Views</text>
</a>
</g>
</g>
<!-- Contracts -->
<g id="node14" class="node">
<title>Contracts</title>
<g id="a_node14"><a xlink:href="../contracts.html" xlink:title="Contracts" target="_top">
<polygon fill="none" stroke="white" points="649.07,-129.96 587,-129.96 587,-110.64 649.07,-110.64 649.07,-129.96"/>
<text text-anchor="middle" x="618.03" y="-114.5" font-family="Sans-Serif" font-size="14.00">Contracts</text>
</a>
</g>
</g>
<!-- Views&#45;&gt;Contracts -->
<g id="edge12" class="edge">
<title>Views&#45;&gt;Contracts</title>
<path fill="none" stroke="black" d="M659.78,-165.82C652.87,-158.45 642.81,-147.72 634.3,-138.64"/>
<polygon fill="black" stroke="black" points="636.9,-136.3 627.51,-131.4 631.79,-141.09 636.9,-136.3"/>
</g>
<!-- Views&#45;&gt;Concat -->
<g id="edge29" class="edge">
<title>Views&#45;&gt;Concat</title>
<path fill="none" stroke="black" d="M647.53,-168.11C644.69,-167.32 641.8,-166.58 639.03,-165.96 546.58,-145.24 435.58,-131.27 380.15,-125.03"/>
<polygon fill="black" stroke="black" points="380.7,-121.57 370.38,-123.95 379.93,-128.53 380.7,-121.57"/>
</g>
<!-- ReadOnly -->
<g id="node8" class="node">
<title>ReadOnly</title>
<g id="a_node8"><a xlink:href="../read_only.html" xlink:title="ReadOnly" target="_top">
<polygon fill="none" stroke="white" points="433.57,-240.6 368.5,-240.6 368.5,-221.28 433.57,-221.28 433.57,-240.6"/>
<text text-anchor="middle" x="401.03" y="-225.14" font-family="Sans-Serif" font-size="14.00">ReadOnly</text>
</a>
</g>
</g>
<!-- ReadOnly&#45;&gt;Chains -->
<g id="edge23" class="edge">
<title>ReadOnly&#45;&gt;Chains</title>
<path fill="none" stroke="black" d="M401.03,-221.14C401.03,-214.54 401.03,-205.24 401.03,-196.85"/>
<polygon fill="black" stroke="black" points="404.54,-197.13 401.04,-187.13 397.54,-197.13 404.54,-197.13"/>
</g>
<!-- ReadOnly&#45;&gt;Views -->
<g id="edge6" class="edge">
<title>ReadOnly&#45;&gt;Views</title>
<path fill="none" stroke="black" d="M433.69,-222.96C436.51,-222.38 439.32,-221.81 442.03,-221.28 525.87,-204.77 550.53,-205.92 636.44,-185.7"/>
<polygon fill="black" stroke="black" points="637.13,-189.13 646.04,-183.4 635.5,-182.32 637.13,-189.13"/>
</g>
<!-- ReadOnly&#45;&gt;H5dfFormat -->
<g id="edge19" class="edge">
<title>ReadOnly&#45;&gt;H5dfFormat</title>
<path fill="none" stroke="black" d="M387.63,-220.89C375.94,-213.01 358.73,-201.39 344.87,-192.04"/>
<polygon fill="black" stroke="black" points="347,-189.25 336.76,-186.56 343.09,-195.05 347,-189.25"/>
</g>
<!-- ReadOnly&#45;&gt;FilesFormat -->
<g id="edge27" class="edge">
<title>ReadOnly&#45;&gt;FilesFormat</title>
<path fill="none" stroke="black" d="M414.44,-220.89C426.13,-213.01 443.34,-201.39 457.2,-192.04"/>
<polygon fill="black" stroke="black" points="458.98,-195.05 465.31,-186.56 455.07,-189.25 458.98,-195.05"/>
</g>
<!-- Queries -->
<g id="node9" class="node">
<title>Queries</title>
<g id="a_node9"><a xlink:href="../queries.html" xlink:title="Queries" target="_top">
<polygon fill="none" stroke="white" points="609.19,-240.6 556.88,-240.6 556.88,-221.28 609.19,-221.28 609.19,-240.6"/>
<text text-anchor="middle" x="583.03" y="-225.14" font-family="Sans-Serif" font-size="14.00">Queries</text>
</a>
</g>
</g>
<!-- Queries&#45;&gt;Views -->
<g id="edge7" class="edge">
<title>Queries&#45;&gt;Views</title>
<path fill="none" stroke="black" d="M597.45,-220.89C610.15,-212.93 628.91,-201.16 643.89,-191.76"/>
<polygon fill="black" stroke="black" points="645.65,-194.79 652.26,-186.51 641.93,-188.86 645.65,-194.79"/>
</g>
<!-- Queries&#45;&gt;Reconstruction -->
<g id="edge33" class="edge">
<title>Queries&#45;&gt;Reconstruction</title>
<path fill="none" stroke="black" d="M583.03,-221.14C583.03,-214.54 583.03,-205.24 583.03,-196.85"/>
<polygon fill="black" stroke="black" points="586.54,-197.13 583.04,-187.13 579.54,-197.13 586.54,-197.13"/>
</g>
<!-- Operations -->
<g id="node10" class="node">
<title>Operations</title>
<g id="a_node10"><a xlink:href="../operations.html" xlink:title="Operations" target="_top">
<polygon fill="none" stroke="white" points="585.57,-295.92 514.5,-295.92 514.5,-276.6 585.57,-276.6 585.57,-295.92"/>
<text text-anchor="middle" x="550.03" y="-280.46" font-family="Sans-Serif" font-size="14.00">Operations</text>
</a>
</g>
</g>
<!-- Operations&#45;&gt;Queries -->
<g id="edge10" class="edge">
<title>Operations&#45;&gt;Queries</title>
<path fill="none" stroke="black" d="M555.48,-276.46C559.81,-269.47 566,-259.47 571.42,-250.71"/>
<polygon fill="black" stroke="black" points="574.38,-252.57 576.67,-242.22 568.43,-248.88 574.38,-252.57"/>
</g>
<!-- Operations&#45;&gt;FilesFormat -->
<g id="edge28" class="edge">
<title>Operations&#45;&gt;FilesFormat</title>
<path fill="none" stroke="black" d="M544.69,-276.51C537.1,-264.14 522.72,-240.85 510.03,-221.28 504.38,-212.56 497.98,-202.99 492.54,-194.94"/>
<polygon fill="black" stroke="black" points="495.46,-193.02 486.95,-186.71 489.67,-196.95 495.46,-193.02"/>
</g>
<!-- Registry -->
<g id="node11" class="node">
<title>Registry</title>
<g id="a_node11"><a xlink:href="../registry.html" xlink:title="Registry" target="_top">
<polygon fill="none" stroke="white" points="591.94,-351.24 538.12,-351.24 538.12,-331.92 591.94,-331.92 591.94,-351.24"/>
<text text-anchor="middle" x="565.03" y="-335.78" font-family="Sans-Serif" font-size="14.00">Registry</text>
</a>
</g>
</g>
<!-- Registry&#45;&gt;Operations -->
<g id="edge8" class="edge">
<title>Registry&#45;&gt;Operations</title>
<path fill="none" stroke="black" d="M562.56,-331.78C560.68,-325.1 558.03,-315.66 555.64,-307.19"/>
<polygon fill="black" stroke="black" points="559.05,-306.39 552.98,-297.71 552.31,-308.29 559.05,-306.39"/>
</g>
<!-- Tokens -->
<g id="node12" class="node">
<title>Tokens</title>
<g id="a_node12"><a xlink:href="../tokens.html" xlink:title="Tokens" target="_top">
<polygon fill="none" stroke="white" points="502.57,-406.56 455.5,-406.56 455.5,-387.24 502.57,-387.24 502.57,-406.56"/>
<text text-anchor="middle" x="479.03" y="-391.1" font-family="Sans-Serif" font-size="14.00">Tokens</text>
</a>
</g>
</g>
<!-- Tokens&#45;&gt;Operations -->
<g id="edge9" class="edge">
<title>Tokens&#45;&gt;Operations</title>
<path fill="none" stroke="black" d="M484.85,-387.01C496.39,-369.34 522.44,-329.49 537.88,-305.85"/>
<polygon fill="black" stroke="black" points="540.78,-307.83 543.32,-297.54 534.92,-304 540.78,-307.83"/>
</g>
<!-- Formats -->
<g id="node15" class="node">
<title>Formats</title>
<g id="a_node15"><a xlink:href="../formats.html" xlink:title="Formats" target="_top">
<polygon fill="none" stroke="white" points="482.32,-351.24 427.75,-351.24 427.75,-331.92 482.32,-331.92 482.32,-351.24"/>
<text text-anchor="middle" x="455.03" y="-335.78" font-family="Sans-Serif" font-size="14.00">Formats</text>
</a>
</g>
</g>
<!-- Tokens&#45;&gt;Formats -->
<g id="edge14" class="edge">
<title>Tokens&#45;&gt;Formats</title>
<path fill="none" stroke="black" d="M475.07,-387.1C472,-380.27 467.62,-370.55 463.75,-361.93"/>
<polygon fill="black" stroke="black" points="467,-360.64 459.71,-352.96 460.62,-363.51 467,-360.64"/>
</g>
<!-- Readers -->
<g id="node13" class="node">
<title>Readers</title>
<g id="a_node13"><a xlink:href="../readers.html" xlink:title="Readers" target="_top">
<polygon fill="none" stroke="white" points="482.69,-295.92 427.37,-295.92 427.37,-276.6 482.69,-276.6 482.69,-295.92"/>
<text text-anchor="middle" x="455.03" y="-280.46" font-family="Sans-Serif" font-size="14.00">Readers</text>
</a>
</g>
</g>
<!-- Readers&#45;&gt;Writers -->
<g id="edge22" class="edge">
<title>Readers&#45;&gt;Writers</title>
<path fill="none" stroke="black" d="M433.32,-276.21C413,-267.75 382.39,-255 359.23,-245.35"/>
<polygon fill="black" stroke="black" points="360.83,-242.23 350.25,-241.61 358.14,-248.69 360.83,-242.23"/>
</g>
<!-- Readers&#45;&gt;ReadOnly -->
<g id="edge34" class="edge">
<title>Readers&#45;&gt;ReadOnly</title>
<path fill="none" stroke="black" d="M446.12,-276.46C438.58,-269.01 427.57,-258.14 418.31,-249"/>
<polygon fill="black" stroke="black" points="420.8,-246.54 411.22,-242 415.88,-251.52 420.8,-246.54"/>
</g>
<!-- Readers&#45;&gt;Queries -->
<g id="edge11" class="edge">
<title>Readers&#45;&gt;Queries</title>
<path fill="none" stroke="black" d="M476.75,-276.21C497.07,-267.75 527.68,-255 550.84,-245.35"/>
<polygon fill="black" stroke="black" points="551.93,-248.69 559.82,-241.61 549.24,-242.23 551.93,-248.69"/>
</g>
<!-- Groups -->
<g id="node20" class="node">
<title>Groups</title>
<g id="a_node20"><a xlink:href="../groups.html" xlink:title="Groups" target="_top">
<polygon fill="none" stroke="white" points="500.69,-240.6 451.37,-240.6 451.37,-221.28 500.69,-221.28 500.69,-240.6"/>
<text text-anchor="middle" x="476.03" y="-225.14" font-family="Sans-Serif" font-size="14.00">Groups</text>
</a>
</g>
</g>
<!-- Readers&#45;&gt;Groups -->
<g id="edge21" class="edge">
<title>Readers&#45;&gt;Groups</title>
<path fill="none" stroke="black" d="M458.5,-276.46C461.16,-269.7 464.93,-260.13 468.3,-251.58"/>
<polygon fill="black" stroke="black" points="471.53,-252.93 471.94,-242.34 465.02,-250.37 471.53,-252.93"/>
</g>
<!-- Contracts&#45;&gt;Computations -->
<g id="edge31" class="edge">
<title>Contracts&#45;&gt;Computations</title>
<path fill="none" stroke="black" d="M601.58,-110.25C586.81,-102.14 564.86,-90.07 547.6,-80.58"/>
<polygon fill="black" stroke="black" points="549.35,-77.55 538.9,-75.8 545.97,-83.68 549.35,-77.55"/>
</g>
<!-- Formats&#45;&gt;Readers -->
<g id="edge35" class="edge">
<title>Formats&#45;&gt;Readers</title>
<path fill="none" stroke="black" d="M455.03,-331.78C455.03,-325.18 455.03,-315.88 455.03,-307.49"/>
<polygon fill="black" stroke="black" points="458.54,-307.77 455.04,-297.77 451.54,-307.77 458.54,-307.77"/>
</g>
<!-- StorageTypes -->
<g id="node16" class="node">
<title>StorageTypes</title>
<g id="a_node16"><a xlink:href="../storage_types.html" xlink:title="StorageTypes" target="_top">
<polygon fill="none" stroke="white" points="609.19,-406.56 520.88,-406.56 520.88,-387.24 609.19,-387.24 609.19,-406.56"/>
<text text-anchor="middle" x="565.03" y="-391.1" font-family="Sans-Serif" font-size="14.00">StorageTypes</text>
</a>
</g>
</g>
<!-- StorageTypes&#45;&gt;Registry -->
<g id="edge18" class="edge">
<title>StorageTypes&#45;&gt;Registry</title>
<path fill="none" stroke="black" d="M565.03,-387.1C565.03,-380.5 565.03,-371.2 565.03,-362.81"/>
<polygon fill="black" stroke="black" points="568.54,-363.09 565.04,-353.09 561.54,-363.09 568.54,-363.09"/>
</g>
<!-- StorageTypes&#45;&gt;Formats -->
<g id="edge13" class="edge">
<title>StorageTypes&#45;&gt;Formats</title>
<path fill="none" stroke="black" d="M546.37,-386.85C529.31,-378.58 503.79,-366.21 484.06,-356.65"/>
<polygon fill="black" stroke="black" points="485.67,-353.54 475.15,-352.33 482.62,-359.84 485.67,-353.54"/>
</g>
<!-- Keys -->
<g id="node17" class="node">
<title>Keys</title>
<g id="a_node17"><a xlink:href="../keys.html" xlink:title="Keys" target="_top">
<polygon fill="none" stroke="white" points="437.19,-406.56 402.87,-406.56 402.87,-387.24 437.19,-387.24 437.19,-406.56"/>
<text text-anchor="middle" x="420.03" y="-391.1" font-family="Sans-Serif" font-size="14.00">Keys</text>
</a>
</g>
</g>
<!-- Keys&#45;&gt;Formats -->
<g id="edge15" class="edge">
<title>Keys&#45;&gt;Formats</title>
<path fill="none" stroke="black" d="M425.81,-387.1C430.45,-380.04 437.11,-369.89 442.9,-361.06"/>
<polygon fill="black" stroke="black" points="445.74,-363.12 448.3,-352.84 439.89,-359.28 445.74,-363.12"/>
</g>
</g>
</svg>
