<?xml version="1.0" encoding="UTF-8" standalone="no"?>
<!DOCTYPE svg PUBLIC "-//W3C//DTD SVG 1.1//EN"
 "http://www.w3.org/Graphics/SVG/1.1/DTD/svg11.dtd">
<!-- Generated by graphviz version 14.1.1 (20251213.1925)
 -->
<!-- Pages: 1 -->
<svg width="643pt" height="415pt"
 viewBox="0.00 0.00 643.00 415.00" xmlns="http://www.w3.org/2000/svg" xmlns:xlink="http://www.w3.org/1999/xlink">
<g id="graph0" class="graph" transform="scale(1 1) rotate(0) translate(4 410.56)">
<polygon fill="white" stroke="none" points="-4,4 -4,-410.56 639.32,-410.56 639.32,4 -4,4"/>
<!-- Copies -->
<g id="node1" class="node">
<title>Copies</title>
<g id="a_node1"><a xlink:href="../copies.html" xlink:title="Copies" target="_top">
<polygon fill="none" stroke="white" points="213.32,-185.28 167,-185.28 167,-165.96 213.32,-165.96 213.32,-185.28"/>
<text xml:space="preserve" text-anchor="middle" x="190.16" y="-169.82" font-family="Sans-Serif" font-size="14.00">Copies</text>
</a>
</g>
</g>
<!-- Adapters -->
<g id="node3" class="node">
<title>Adapters</title>
<g id="a_node3"><a xlink:href="../adapters.html" xlink:title="Adapters" target="_top">
<polygon fill="none" stroke="white" points="299.32,-19.32 241,-19.32 241,0 299.32,0 299.32,-19.32"/>
<text xml:space="preserve" text-anchor="middle" x="270.16" y="-3.86" font-family="Sans-Serif" font-size="14.00">Adapters</text>
</a>
</g>
</g>
<!-- Copies&#45;&gt;Adapters -->
<g id="edge3" class="edge">
<title>Copies&#45;&gt;Adapters</title>
<path fill="none" stroke="black" d="M187.14,-165.6C183.41,-152.91 178.32,-129.25 185.16,-110.64 197.91,-75.96 228.61,-45.1 249.41,-27.13"/>
<polygon fill="black" stroke="black" points="251.57,-29.89 257.01,-20.79 247.09,-24.51 251.57,-29.89"/>
</g>
<!-- Concat -->
<g id="node24" class="node">
<title>Concat</title>
<g id="a_node24"><a xlink:href="../concat.html" xlink:title="Concat" target="_top">
<polygon fill="none" stroke="white" points="345.69,-129.96 298.62,-129.96 298.62,-110.64 345.69,-110.64 345.69,-129.96"/>
<text xml:space="preserve" text-anchor="middle" x="322.16" y="-114.5" font-family="Sans-Serif" font-size="14.00">Concat</text>
</a>
</g>
</g>
<!-- Copies&#45;&gt;Concat -->
<g id="edge35" class="edge">
<title>Copies&#45;&gt;Concat</title>
<path fill="none" stroke="black" d="M212.55,-165.57C233.6,-157.07 265.36,-144.24 289.28,-134.58"/>
<polygon fill="black" stroke="black" points="290.29,-137.95 298.25,-130.96 287.67,-131.46 290.29,-137.95"/>
</g>
<!-- Writers -->
<g id="node2" class="node">
<title>Writers</title>
<g id="a_node2"><a xlink:href="../writers.html" xlink:title="Writers" target="_top">
<polygon fill="none" stroke="white" points="356.69,-240.6 309.62,-240.6 309.62,-221.28 356.69,-221.28 356.69,-240.6"/>
<text xml:space="preserve" text-anchor="middle" x="333.16" y="-225.14" font-family="Sans-Serif" font-size="14.00">Writers</text>
</a>
</g>
</g>
<!-- Writers&#45;&gt;Copies -->
<g id="edge1" class="edge">
<title>Writers&#45;&gt;Copies</title>
<path fill="none" stroke="black" d="M309.23,-221.02C285.99,-212.35 250.49,-199.11 224.29,-189.35"/>
<polygon fill="black" stroke="black" points="225.71,-186.14 215.12,-185.93 223.26,-192.7 225.71,-186.14"/>
</g>
<!-- MemoryFormat -->
<g id="node4" class="node">
<title>MemoryFormat</title>
<g id="a_node4"><a xlink:href="../memory_format.html" xlink:title="MemoryFormat" target="_top">
<polygon fill="none" stroke="white" points="149.19,-185.28 51.12,-185.28 51.12,-165.96 149.19,-165.96 149.19,-185.28"/>
<text xml:space="preserve" text-anchor="middle" x="100.16" y="-169.82" font-family="Sans-Serif" font-size="14.00">MemoryFormat</text>
</a>
</g>
</g>
<!-- Writers&#45;&gt;MemoryFormat -->
<g id="edge23" class="edge">
<title>Writers&#45;&gt;MemoryFormat</title>
<path fill="none" stroke="black" d="M309.43,-223.39C306.64,-222.66 303.84,-221.94 301.16,-221.28 251.93,-209.16 195.55,-196.76 155.06,-188.11"/>
<polygon fill="black" stroke="black" points="155.81,-184.69 145.3,-186.03 154.35,-191.54 155.81,-184.69"/>
</g>
<!-- Chains -->
<g id="node6" class="node">
<title>Chains</title>
<g id="a_node6"><a xlink:href="../chains.html" xlink:title="Chains" target="_top">
<polygon fill="none" stroke="white" points="277.32,-185.28 231,-185.28 231,-165.96 277.32,-165.96 277.32,-185.28"/>
<text xml:space="preserve" text-anchor="middle" x="254.16" y="-169.82" font-family="Sans-Serif" font-size="14.00">Chains</text>
</a>
</g>
</g>
<!-- Writers&#45;&gt;Chains -->
<g id="edge29" class="edge">
<title>Writers&#45;&gt;Chains</title>
<path fill="none" stroke="black" d="M319.76,-220.89C308.07,-213.01 290.86,-201.39 277,-192.04"/>
<polygon fill="black" stroke="black" points="279.13,-189.25 268.88,-186.56 275.21,-195.05 279.13,-189.25"/>
</g>
<!-- H5dfFormat -->
<g id="node15" class="node">
<title>H5dfFormat</title>
<g id="a_node15"><a xlink:href="../h5df_format.html" xlink:title="H5dfFormat" target="_top">
<polygon fill="none" stroke="white" points="371.32,-185.28 295,-185.28 295,-165.96 371.32,-165.96 371.32,-185.28"/>
<text xml:space="preserve" text-anchor="middle" x="333.16" y="-169.82" font-family="Sans-Serif" font-size="14.00">H5dfFormat</text>
</a>
</g>
</g>
<!-- Writers&#45;&gt;H5dfFormat -->
<g id="edge26" class="edge">
<title>Writers&#45;&gt;H5dfFormat</title>
<path fill="none" stroke="black" d="M333.16,-221.14C333.16,-214.54 333.16,-205.24 333.16,-196.85"/>
<polygon fill="black" stroke="black" points="336.66,-197.13 333.16,-187.13 329.66,-197.13 336.66,-197.13"/>
</g>
<!-- FilesFormat -->
<g id="node16" class="node">
<title>FilesFormat</title>
<g id="a_node16"><a xlink:href="../files_format.html" xlink:title="FilesFormat" target="_top">
<polygon fill="none" stroke="white" points="465.32,-185.28 389,-185.28 389,-165.96 465.32,-165.96 465.32,-185.28"/>
<text xml:space="preserve" text-anchor="middle" x="427.16" y="-169.82" font-family="Sans-Serif" font-size="14.00">FilesFormat</text>
</a>
</g>
</g>
<!-- Writers&#45;&gt;FilesFormat -->
<g id="edge34" class="edge">
<title>Writers&#45;&gt;FilesFormat</title>
<path fill="none" stroke="black" d="M349.11,-220.89C363.42,-212.78 384.69,-200.71 401.41,-191.22"/>
<polygon fill="black" stroke="black" points="402.85,-194.43 409.82,-186.46 399.39,-188.35 402.85,-194.43"/>
</g>
<!-- Reconstruction -->
<g id="node25" class="node">
<title>Reconstruction</title>
<g id="a_node25"><a xlink:href="../reconstruction.html" xlink:title="Reconstruction" target="_top">
<polygon fill="none" stroke="white" points="577.32,-185.28 483,-185.28 483,-165.96 577.32,-165.96 577.32,-185.28"/>
<text xml:space="preserve" text-anchor="middle" x="530.16" y="-169.82" font-family="Sans-Serif" font-size="14.00">Reconstruction</text>
</a>
</g>
</g>
<!-- Writers&#45;&gt;Reconstruction -->
<g id="edge39" class="edge">
<title>Writers&#45;&gt;Reconstruction</title>
<path fill="none" stroke="black" d="M356.92,-223.51C388.66,-214.92 445.51,-199.53 485.4,-188.73"/>
<polygon fill="black" stroke="black" points="486.22,-192.14 494.96,-186.15 484.4,-185.38 486.22,-192.14"/>
</g>
<!-- MemoryFormat&#45;&gt;Adapters -->
<g id="edge2" class="edge">
<title>MemoryFormat&#45;&gt;Adapters</title>
<path fill="none" stroke="black" d="M106.57,-165.48C121.62,-144.42 161.06,-91.53 202.16,-55.32 214.87,-44.12 230.6,-33.61 243.72,-25.61"/>
<polygon fill="black" stroke="black" points="245.47,-28.64 252.28,-20.53 241.9,-22.62 245.47,-28.64"/>
</g>
<!-- ExampleData -->
<g id="node21" class="node">
<title>ExampleData</title>
<g id="a_node21"><a xlink:href="../example_data.html" xlink:title="ExampleData" target="_top">
<polygon fill="none" stroke="white" points="280.19,-129.96 194.12,-129.96 194.12,-110.64 280.19,-110.64 280.19,-129.96"/>
<text xml:space="preserve" text-anchor="middle" x="237.16" y="-114.5" font-family="Sans-Serif" font-size="14.00">ExampleData</text>
</a>
</g>
</g>
<!-- MemoryFormat&#45;&gt;ExampleData -->
<g id="edge20" class="edge">
<title>MemoryFormat&#45;&gt;ExampleData</title>
<path fill="none" stroke="black" d="M123.4,-165.57C145.35,-157.03 178.51,-144.13 203.37,-134.45"/>
<polygon fill="black" stroke="black" points="204.35,-137.83 212.4,-130.94 201.81,-131.3 204.35,-137.83"/>
</g>
<!-- AnnDataFormat -->
<g id="node23" class="node">
<title>AnnDataFormat</title>
<g id="a_node23"><a xlink:href="../anndata_format.html" xlink:title="AnnDataFormat" target="_top">
<polygon fill="none" stroke="white" points="100.32,-129.96 0,-129.96 0,-110.64 100.32,-110.64 100.32,-129.96"/>
<text xml:space="preserve" text-anchor="middle" x="50.16" y="-114.5" font-family="Sans-Serif" font-size="14.00">AnnDataFormat</text>
</a>
</g>
</g>
<!-- MemoryFormat&#45;&gt;AnnDataFormat -->
<g id="edge31" class="edge">
<title>MemoryFormat&#45;&gt;AnnDataFormat</title>
<path fill="none" stroke="black" d="M91.9,-165.82C85,-158.45 74.94,-147.72 66.42,-138.64"/>
<polygon fill="black" stroke="black" points="69.02,-136.3 59.63,-131.4 63.92,-141.09 69.02,-136.3"/>
</g>
<!-- Computations -->
<g id="node5" class="node">
<title>Computations</title>
<g id="a_node5"><a xlink:href="../computations.html" xlink:title="Computations" target="_top">
<polygon fill="none" stroke="white" points="550.32,-74.64 462,-74.64 462,-55.32 550.32,-55.32 550.32,-74.64"/>
<text xml:space="preserve" text-anchor="middle" x="506.16" y="-59.18" font-family="Sans-Serif" font-size="14.00">Computations</text>
</a>
</g>
</g>
<!-- Computations&#45;&gt;Adapters -->
<g id="edge4" class="edge">
<title>Computations&#45;&gt;Adapters</title>
<path fill="none" stroke="black" d="M465.86,-54.87C422.47,-45.07 353.86,-29.57 310.47,-19.77"/>
<polygon fill="black" stroke="black" points="311.48,-16.41 300.96,-17.62 309.94,-23.24 311.48,-16.41"/>
</g>
<!-- Chains&#45;&gt;Adapters -->
<g id="edge5" class="edge">
<title>Chains&#45;&gt;Adapters</title>
<path fill="none" stroke="black" d="M277.69,-167.51C304.65,-158.83 346.27,-143.62 355.16,-129.96 380.06,-91.72 328.29,-48.48 295.1,-26.03"/>
<polygon fill="black" stroke="black" points="297.06,-23.12 286.77,-20.59 293.23,-28.99 297.06,-23.12"/>
</g>
<!-- CompleteDaf -->
<g id="node14" class="node">
<title>CompleteDaf</title>
<g id="a_node14"><a xlink:href="../complete.html" xlink:title="CompleteDaf" target="_top">
<polygon fill="none" stroke="white" points="486.07,-129.96 402.25,-129.96 402.25,-110.64 486.07,-110.64 486.07,-129.96"/>
<text xml:space="preserve" text-anchor="middle" x="444.16" y="-114.5" font-family="Sans-Serif" font-size="14.00">CompleteDaf</text>
</a>
</g>
</g>
<!-- Chains&#45;&gt;CompleteDaf -->
<g id="edge14" class="edge">
<title>Chains&#45;&gt;CompleteDaf</title>
<path fill="none" stroke="black" d="M277.46,-168.08C308.12,-159.48 362.62,-144.18 400.93,-133.43"/>
<polygon fill="black" stroke="black" points="401.63,-136.87 410.31,-130.8 399.74,-130.13 401.63,-136.87"/>
</g>
<!-- Chains&#45;&gt;ExampleData -->
<g id="edge21" class="edge">
<title>Chains&#45;&gt;ExampleData</title>
<path fill="none" stroke="black" d="M251.35,-165.82C249.22,-159.14 246.22,-149.7 243.52,-141.23"/>
<polygon fill="black" stroke="black" points="246.86,-140.2 240.49,-131.74 240.19,-142.33 246.86,-140.2"/>
</g>
<!-- Views -->
<g id="node7" class="node">
<title>Views</title>
<g id="a_node7"><a xlink:href="../views.html" xlink:title="Views" target="_top">
<polygon fill="none" stroke="white" points="635.32,-185.28 595,-185.28 595,-165.96 635.32,-165.96 635.32,-185.28"/>
<text xml:space="preserve" text-anchor="middle" x="615.16" y="-169.82" font-family="Sans-Serif" font-size="14.00">Views</text>
</a>
</g>
</g>
<!-- Views&#45;&gt;CompleteDaf -->
<g id="edge13" class="edge">
<title>Views&#45;&gt;CompleteDaf</title>
<path fill="none" stroke="black" d="M594.53,-168.19C567.28,-159.69 518.7,-144.54 484.13,-133.76"/>
<polygon fill="black" stroke="black" points="485.48,-130.52 474.89,-130.88 483.39,-137.2 485.48,-130.52"/>
</g>
<!-- Contracts -->
<g id="node17" class="node">
<title>Contracts</title>
<g id="a_node17"><a xlink:href="../contracts.html" xlink:title="Contracts" target="_top">
<polygon fill="none" stroke="white" points="597.19,-129.96 535.12,-129.96 535.12,-110.64 597.19,-110.64 597.19,-129.96"/>
<text xml:space="preserve" text-anchor="middle" x="566.16" y="-114.5" font-family="Sans-Serif" font-size="14.00">Contracts</text>
</a>
</g>
</g>
<!-- Views&#45;&gt;Contracts -->
<g id="edge16" class="edge">
<title>Views&#45;&gt;Contracts</title>
<path fill="none" stroke="black" d="M607.07,-165.82C600.3,-158.45 590.44,-147.72 582.1,-138.64"/>
<polygon fill="black" stroke="black" points="584.79,-136.41 575.45,-131.41 579.64,-141.14 584.79,-136.41"/>
</g>
<!-- Views&#45;&gt;Concat -->
<g id="edge36" class="edge">
<title>Views&#45;&gt;Concat</title>
<path fill="none" stroke="black" d="M594.65,-168.16C591.81,-167.36 588.92,-166.6 586.16,-165.96 505.06,-147.07 408.19,-132.75 357.33,-125.85"/>
<polygon fill="black" stroke="black" points="357.9,-122.39 347.52,-124.54 356.97,-129.33 357.9,-122.39"/>
</g>
<!-- Queries -->
<g id="node8" class="node">
<title>Queries</title>
<g id="a_node8"><a xlink:href="../queries.html" xlink:title="Queries" target="_top">
<polygon fill="none" stroke="white" points="554.32,-240.6 502,-240.6 502,-221.28 554.32,-221.28 554.32,-240.6"/>
<text xml:space="preserve" text-anchor="middle" x="528.16" y="-225.14" font-family="Sans-Serif" font-size="14.00">Queries</text>
</a>
</g>
</g>
<!-- Queries&#45;&gt;Views -->
<g id="edge6" class="edge">
<title>Queries&#45;&gt;Views</title>
<path fill="none" stroke="black" d="M542.92,-220.89C556.04,-212.85 575.48,-200.94 590.89,-191.49"/>
<polygon fill="black" stroke="black" points="592.34,-194.71 599.04,-186.5 588.68,-188.74 592.34,-194.71"/>
</g>
<!-- Queries&#45;&gt;Reconstruction -->
<g id="edge38" class="edge">
<title>Queries&#45;&gt;Reconstruction</title>
<path fill="none" stroke="black" d="M528.49,-221.14C528.74,-214.54 529.09,-205.24 529.4,-196.85"/>
<polygon fill="black" stroke="black" points="532.89,-197.25 529.77,-187.13 525.89,-196.99 532.89,-197.25"/>
</g>
<!-- ReadOnly -->
<g id="node9" class="node">
<title>ReadOnly</title>
<g id="a_node9"><a xlink:href="../read_only.html" xlink:title="ReadOnly" target="_top">
<polygon fill="none" stroke="white" points="439.69,-240.6 374.62,-240.6 374.62,-221.28 439.69,-221.28 439.69,-240.6"/>
<text xml:space="preserve" text-anchor="middle" x="407.16" y="-225.14" font-family="Sans-Serif" font-size="14.00">ReadOnly</text>
</a>
</g>
</g>
<!-- ReadOnly&#45;&gt;Chains -->
<g id="edge30" class="edge">
<title>ReadOnly&#45;&gt;Chains</title>
<path fill="none" stroke="black" d="M381.21,-220.89C355.62,-211.98 316.37,-198.3 288.27,-188.51"/>
<polygon fill="black" stroke="black" points="289.75,-185.32 279.15,-185.33 287.45,-191.93 289.75,-185.32"/>
</g>
<!-- ReadOnly&#45;&gt;Views -->
<g id="edge7" class="edge">
<title>ReadOnly&#45;&gt;Views</title>
<path fill="none" stroke="black" d="M439.94,-222.24C473.75,-214.19 528.23,-200.93 583.84,-185.83"/>
<polygon fill="black" stroke="black" points="584.42,-189.3 593.14,-183.29 582.57,-182.55 584.42,-189.3"/>
</g>
<!-- ReadOnly&#45;&gt;H5dfFormat -->
<g id="edge25" class="edge">
<title>ReadOnly&#45;&gt;H5dfFormat</title>
<path fill="none" stroke="black" d="M394.61,-220.89C383.7,-213.03 367.66,-201.48 354.7,-192.14"/>
<polygon fill="black" stroke="black" points="356.92,-189.42 346.76,-186.42 352.82,-195.1 356.92,-189.42"/>
</g>
<!-- ReadOnly&#45;&gt;FilesFormat -->
<g id="edge32" class="edge">
<title>ReadOnly&#45;&gt;FilesFormat</title>
<path fill="none" stroke="black" d="M410.46,-221.14C412.99,-214.38 416.59,-204.81 419.79,-196.26"/>
<polygon fill="black" stroke="black" points="423.02,-197.63 423.25,-187.03 416.46,-195.17 423.02,-197.63"/>
</g>
<!-- Operations -->
<g id="node10" class="node">
<title>Operations</title>
<g id="a_node10"><a xlink:href="../operations.html" xlink:title="Operations" target="_top">
<polygon fill="none" stroke="white" points="526.69,-295.92 455.62,-295.92 455.62,-276.6 526.69,-276.6 526.69,-295.92"/>
<text xml:space="preserve" text-anchor="middle" x="491.16" y="-280.46" font-family="Sans-Serif" font-size="14.00">Operations</text>
</a>
</g>
</g>
<!-- Operations&#45;&gt;Queries -->
<g id="edge11" class="edge">
<title>Operations&#45;&gt;Queries</title>
<path fill="none" stroke="black" d="M497.27,-276.46C502.22,-269.32 509.36,-259.03 515.53,-250.14"/>
<polygon fill="black" stroke="black" points="518.23,-252.39 521.05,-242.18 512.48,-248.4 518.23,-252.39"/>
</g>
<!-- Operations&#45;&gt;FilesFormat -->
<g id="edge33" class="edge">
<title>Operations&#45;&gt;FilesFormat</title>
<path fill="none" stroke="black" d="M485.92,-276.37C475.56,-258.78 452.25,-219.21 438.3,-195.53"/>
<polygon fill="black" stroke="black" points="441.33,-193.78 433.24,-186.94 435.3,-197.33 441.33,-193.78"/>
</g>
<!-- Tokens -->
<g id="node11" class="node">
<title>Tokens</title>
<g id="a_node11"><a xlink:href="../tokens.html" xlink:title="Tokens" target="_top">
<polygon fill="none" stroke="white" points="537.69,-406.56 490.62,-406.56 490.62,-387.24 537.69,-387.24 537.69,-406.56"/>
<text xml:space="preserve" text-anchor="middle" x="514.16" y="-391.1" font-family="Sans-Serif" font-size="14.00">Tokens</text>
</a>
</g>
</g>
<!-- Tokens&#45;&gt;Operations -->
<g id="edge8" class="edge">
<title>Tokens&#45;&gt;Operations</title>
<path fill="none" stroke="black" d="M512.28,-387.01C508.62,-369.74 500.48,-331.27 495.44,-307.48"/>
<polygon fill="black" stroke="black" points="498.88,-306.81 493.38,-297.75 492.03,-308.26 498.88,-306.81"/>
</g>
<!-- Formats -->
<g id="node18" class="node">
<title>Formats</title>
<g id="a_node18"><a xlink:href="../formats.html" xlink:title="Formats" target="_top">
<polygon fill="none" stroke="white" points="414.44,-351.24 359.87,-351.24 359.87,-331.92 414.44,-331.92 414.44,-351.24"/>
<text xml:space="preserve" text-anchor="middle" x="387.16" y="-335.78" font-family="Sans-Serif" font-size="14.00">Formats</text>
</a>
</g>
</g>
<!-- Tokens&#45;&gt;Formats -->
<g id="edge17" class="edge">
<title>Tokens&#45;&gt;Formats</title>
<path fill="none" stroke="black" d="M492.62,-386.85C472.55,-378.43 442.36,-365.75 419.41,-356.12"/>
<polygon fill="black" stroke="black" points="420.78,-352.9 410.21,-352.26 418.07,-359.35 420.78,-352.9"/>
</g>
<!-- Registry -->
<g id="node12" class="node">
<title>Registry</title>
<g id="a_node12"><a xlink:href="../registry.html" xlink:title="Registry" target="_top">
<polygon fill="none" stroke="white" points="486.07,-351.24 432.25,-351.24 432.25,-331.92 486.07,-331.92 486.07,-351.24"/>
<text xml:space="preserve" text-anchor="middle" x="459.16" y="-335.78" font-family="Sans-Serif" font-size="14.00">Registry</text>
</a>
</g>
</g>
<!-- Registry&#45;&gt;Operations -->
<g id="edge9" class="edge">
<title>Registry&#45;&gt;Operations</title>
<path fill="none" stroke="black" d="M464.44,-331.78C468.63,-324.79 474.64,-314.79 479.89,-306.03"/>
<polygon fill="black" stroke="black" points="482.84,-307.93 484.98,-297.55 476.84,-304.33 482.84,-307.93"/>
</g>
<!-- Readers -->
<g id="node13" class="node">
<title>Readers</title>
<g id="a_node13"><a xlink:href="../readers.html" xlink:title="Readers" target="_top">
<polygon fill="none" stroke="white" points="414.82,-295.92 359.5,-295.92 359.5,-276.6 414.82,-276.6 414.82,-295.92"/>
<text xml:space="preserve" text-anchor="middle" x="387.16" y="-280.46" font-family="Sans-Serif" font-size="14.00">Readers</text>
</a>
</g>
</g>
<!-- Readers&#45;&gt;Writers -->
<g id="edge28" class="edge">
<title>Readers&#45;&gt;Writers</title>
<path fill="none" stroke="black" d="M378.24,-276.46C370.71,-269.01 359.69,-258.14 350.43,-249"/>
<polygon fill="black" stroke="black" points="352.92,-246.54 343.35,-242 348,-251.52 352.92,-246.54"/>
</g>
<!-- Readers&#45;&gt;Queries -->
<g id="edge10" class="edge">
<title>Readers&#45;&gt;Queries</title>
<path fill="none" stroke="black" d="M411.08,-276.21C433.66,-267.67 467.8,-254.77 493.39,-245.09"/>
<polygon fill="black" stroke="black" points="494.59,-248.38 502.71,-241.56 492.12,-241.83 494.59,-248.38"/>
</g>
<!-- Readers&#45;&gt;ReadOnly -->
<g id="edge40" class="edge">
<title>Readers&#45;&gt;ReadOnly</title>
<path fill="none" stroke="black" d="M390.46,-276.46C392.99,-269.7 396.59,-260.13 399.79,-251.58"/>
<polygon fill="black" stroke="black" points="403.02,-252.95 403.25,-242.35 396.46,-250.49 403.02,-252.95"/>
</g>
<!-- Groups -->
<g id="node22" class="node">
<title>Groups</title>
<g id="a_node22"><a xlink:href="../groups.html" xlink:title="Groups" target="_top">
<polygon fill="none" stroke="white" points="291.82,-240.6 242.5,-240.6 242.5,-221.28 291.82,-221.28 291.82,-240.6"/>
<text xml:space="preserve" text-anchor="middle" x="267.16" y="-225.14" font-family="Sans-Serif" font-size="14.00">Groups</text>
</a>
</g>
</g>
<!-- Readers&#45;&gt;Groups -->
<g id="edge27" class="edge">
<title>Readers&#45;&gt;Groups</title>
<path fill="none" stroke="black" d="M366.8,-276.21C347.93,-267.83 319.57,-255.23 297.93,-245.61"/>
<polygon fill="black" stroke="black" points="299.56,-242.51 289,-241.64 296.72,-248.9 299.56,-242.51"/>
</g>
<!-- H5dfFormat&#45;&gt;CompleteDaf -->
<g id="edge12" class="edge">
<title>H5dfFormat&#45;&gt;CompleteDaf</title>
<path fill="none" stroke="black" d="M351.99,-165.57C369.21,-157.3 394.96,-144.93 414.87,-135.37"/>
<polygon fill="black" stroke="black" points="416.38,-138.53 423.87,-131.04 413.34,-132.22 416.38,-138.53"/>
</g>
<!-- FilesFormat&#45;&gt;CompleteDaf -->
<g id="edge15" class="edge">
<title>FilesFormat&#45;&gt;CompleteDaf</title>
<path fill="none" stroke="black" d="M429.97,-165.82C432.1,-159.14 435.1,-149.7 437.8,-141.23"/>
<polygon fill="black" stroke="black" points="441.13,-142.33 440.83,-131.74 434.46,-140.2 441.13,-142.33"/>
</g>
<!-- FilesFormat&#45;&gt;ExampleData -->
<g id="edge22" class="edge">
<title>FilesFormat&#45;&gt;ExampleData</title>
<path fill="none" stroke="black" d="M394.93,-165.57C363.4,-156.73 315.18,-143.2 280.35,-133.42"/>
<polygon fill="black" stroke="black" points="281.58,-130.13 271.01,-130.8 279.69,-136.87 281.58,-130.13"/>
</g>
<!-- Contracts&#45;&gt;Computations -->
<g id="edge37" class="edge">
<title>Contracts&#45;&gt;Computations</title>
<path fill="none" stroke="black" d="M555.98,-110.25C547.4,-102.63 534.89,-91.51 524.56,-82.33"/>
<polygon fill="black" stroke="black" points="527.12,-79.92 517.32,-75.9 522.47,-85.16 527.12,-79.92"/>
</g>
<!-- Formats&#45;&gt;Readers -->
<g id="edge41" class="edge">
<title>Formats&#45;&gt;Readers</title>
<path fill="none" stroke="black" d="M387.16,-331.78C387.16,-325.18 387.16,-315.88 387.16,-307.49"/>
<polygon fill="black" stroke="black" points="390.66,-307.77 387.16,-297.77 383.66,-307.77 390.66,-307.77"/>
</g>
<!-- StorageTypes -->
<g id="node19" class="node">
<title>StorageTypes</title>
<g id="a_node19"><a xlink:href="../storage_types.html" xlink:title="StorageTypes" target="_top">
<polygon fill="none" stroke="white" points="472.32,-406.56 384,-406.56 384,-387.24 472.32,-387.24 472.32,-406.56"/>
<text xml:space="preserve" text-anchor="middle" x="428.16" y="-391.1" font-family="Sans-Serif" font-size="14.00">StorageTypes</text>
</a>
</g>
</g>
<!-- StorageTypes&#45;&gt;Registry -->
<g id="edge24" class="edge">
<title>StorageTypes&#45;&gt;Registry</title>
<path fill="none" stroke="black" d="M433.28,-387.1C437.34,-380.11 443.15,-370.11 448.25,-361.35"/>
<polygon fill="black" stroke="black" points="451.17,-363.29 453.17,-352.88 445.12,-359.77 451.17,-363.29"/>
</g>
<!-- StorageTypes&#45;&gt;Formats -->
<g id="edge18" class="edge">
<title>StorageTypes&#45;&gt;Formats</title>
<path fill="none" stroke="black" d="M421.39,-387.1C415.84,-379.88 407.82,-369.45 400.93,-360.49"/>
<polygon fill="black" stroke="black" points="403.87,-358.57 395,-352.78 398.32,-362.84 403.87,-358.57"/>
</g>
<!-- Keys -->
<g id="node20" class="node">
<title>Keys</title>
<g id="a_node20"><a xlink:href="../keys.html" xlink:title="Keys" target="_top">
<polygon fill="none" stroke="white" points="366.32,-406.56 332,-406.56 332,-387.24 366.32,-387.24 366.32,-406.56"/>
<text xml:space="preserve" text-anchor="middle" x="349.16" y="-391.1" font-family="Sans-Serif" font-size="14.00">Keys</text>
</a>
</g>
</g>
<!-- Keys&#45;&gt;Formats -->
<g id="edge19" class="edge">
<title>Keys&#45;&gt;Formats</title>
<path fill="none" stroke="black" d="M355.43,-387.1C360.52,-379.96 367.86,-369.67 374.19,-360.78"/>
<polygon fill="black" stroke="black" points="376.92,-362.98 379.87,-352.81 371.22,-358.92 376.92,-362.98"/>
</g>
</g>
</svg>
