<?xml version="1.0" encoding="UTF-8" standalone="no"?>
<!DOCTYPE svg PUBLIC "-//W3C//DTD SVG 1.1//EN"
 "http://www.w3.org/Graphics/SVG/1.1/DTD/svg11.dtd">
<!-- Generated by graphviz version 13.0.1 (20250615.1724)
 -->
<!-- Pages: 1 -->
<svg width="597pt" height="415pt"
 viewBox="0.00 0.00 597.00 415.00" xmlns="http://www.w3.org/2000/svg" xmlns:xlink="http://www.w3.org/1999/xlink">
<g id="graph0" class="graph" transform="scale(1 1) rotate(0) translate(4 410.56)">
<polygon fill="white" stroke="none" points="-4,4 -4,-410.56 593.07,-410.56 593.07,4 -4,4"/>
<!-- Copies -->
<g id="node1" class="node">
<title>Copies</title>
<g id="a_node1"><a xlink:href="../copies.html" xlink:title="Copies" target="_top">
<polygon fill="none" stroke="white" points="158.32,-185.28 112,-185.28 112,-165.96 158.32,-165.96 158.32,-185.28"/>
<text xml:space="preserve" text-anchor="middle" x="135.16" y="-169.82" font-family="Sans-Serif" font-size="14.00">Copies</text>
</a>
</g>
</g>
<!-- Adapters -->
<g id="node3" class="node">
<title>Adapters</title>
<g id="a_node3"><a xlink:href="../adapters.html" xlink:title="Adapters" target="_top">
<polygon fill="none" stroke="white" points="210.32,-19.32 152,-19.32 152,0 210.32,0 210.32,-19.32"/>
<text xml:space="preserve" text-anchor="middle" x="181.16" y="-3.86" font-family="Sans-Serif" font-size="14.00">Adapters</text>
</a>
</g>
</g>
<!-- Copies&#45;&gt;Adapters -->
<g id="edge3" class="edge">
<title>Copies&#45;&gt;Adapters</title>
<path fill="none" stroke="black" d="M112.56,-165.58C90.39,-156.2 58.96,-141.34 52.16,-129.96 47.76,-122.59 49.52,-118.81 52.16,-110.64 61.5,-81.77 69.05,-74.98 92.16,-55.32 107.75,-42.05 127.96,-31.51 145.18,-24"/>
<polygon fill="black" stroke="black" points="146.17,-27.38 154.06,-20.3 143.48,-20.92 146.17,-27.38"/>
</g>
<!-- Concat -->
<g id="node24" class="node">
<title>Concat</title>
<g id="a_node24"><a xlink:href="../concat.html" xlink:title="Concat" target="_top">
<polygon fill="none" stroke="white" points="108.69,-129.96 61.62,-129.96 61.62,-110.64 108.69,-110.64 108.69,-129.96"/>
<text xml:space="preserve" text-anchor="middle" x="85.16" y="-114.5" font-family="Sans-Serif" font-size="14.00">Concat</text>
</a>
</g>
</g>
<!-- Copies&#45;&gt;Concat -->
<g id="edge34" class="edge">
<title>Copies&#45;&gt;Concat</title>
<path fill="none" stroke="black" d="M126.9,-165.82C120,-158.45 109.94,-147.72 101.42,-138.64"/>
<polygon fill="black" stroke="black" points="104.02,-136.3 94.63,-131.4 98.92,-141.09 104.02,-136.3"/>
</g>
<!-- Writers -->
<g id="node2" class="node">
<title>Writers</title>
<g id="a_node2"><a xlink:href="../writers.html" xlink:title="Writers" target="_top">
<polygon fill="none" stroke="white" points="322.69,-240.6 275.62,-240.6 275.62,-221.28 322.69,-221.28 322.69,-240.6"/>
<text xml:space="preserve" text-anchor="middle" x="299.16" y="-225.14" font-family="Sans-Serif" font-size="14.00">Writers</text>
</a>
</g>
</g>
<!-- Writers&#45;&gt;Copies -->
<g id="edge1" class="edge">
<title>Writers&#45;&gt;Copies</title>
<path fill="none" stroke="black" d="M275.31,-222.19C247.42,-213.12 201.03,-198.04 169.32,-187.73"/>
<polygon fill="black" stroke="black" points="170.8,-184.53 160.21,-184.76 168.64,-191.18 170.8,-184.53"/>
</g>
<!-- MemoryFormat -->
<g id="node5" class="node">
<title>MemoryFormat</title>
<g id="a_node5"><a xlink:href="../memory_format.html" xlink:title="MemoryFormat" target="_top">
<polygon fill="none" stroke="white" points="332.19,-185.28 234.12,-185.28 234.12,-165.96 332.19,-165.96 332.19,-185.28"/>
<text xml:space="preserve" text-anchor="middle" x="283.16" y="-169.82" font-family="Sans-Serif" font-size="14.00">MemoryFormat</text>
</a>
</g>
</g>
<!-- Writers&#45;&gt;MemoryFormat -->
<g id="edge22" class="edge">
<title>Writers&#45;&gt;MemoryFormat</title>
<path fill="none" stroke="black" d="M296.52,-221.14C294.52,-214.46 291.68,-205.02 289.14,-196.55"/>
<polygon fill="black" stroke="black" points="292.52,-195.64 286.29,-187.07 285.82,-197.65 292.52,-195.64"/>
</g>
<!-- Chains -->
<g id="node6" class="node">
<title>Chains</title>
<g id="a_node6"><a xlink:href="../chains.html" xlink:title="Chains" target="_top">
<polygon fill="none" stroke="white" points="396.32,-185.28 350,-185.28 350,-165.96 396.32,-165.96 396.32,-185.28"/>
<text xml:space="preserve" text-anchor="middle" x="373.16" y="-169.82" font-family="Sans-Serif" font-size="14.00">Chains</text>
</a>
</g>
</g>
<!-- Writers&#45;&gt;Chains -->
<g id="edge29" class="edge">
<title>Writers&#45;&gt;Chains</title>
<path fill="none" stroke="black" d="M311.71,-220.89C322.62,-213.03 338.66,-201.48 351.62,-192.14"/>
<polygon fill="black" stroke="black" points="353.5,-195.1 359.56,-186.42 349.4,-189.42 353.5,-195.1"/>
</g>
<!-- H5dfFormat -->
<g id="node15" class="node">
<title>H5dfFormat</title>
<g id="a_node15"><a xlink:href="../h5df_format.html" xlink:title="H5dfFormat" target="_top">
<polygon fill="none" stroke="white" points="490.32,-185.28 414,-185.28 414,-165.96 490.32,-165.96 490.32,-185.28"/>
<text xml:space="preserve" text-anchor="middle" x="452.16" y="-169.82" font-family="Sans-Serif" font-size="14.00">H5dfFormat</text>
</a>
</g>
</g>
<!-- Writers&#45;&gt;H5dfFormat -->
<g id="edge25" class="edge">
<title>Writers&#45;&gt;H5dfFormat</title>
<path fill="none" stroke="black" d="M323.07,-221.61C347.77,-213 386.67,-199.44 415.31,-189.46"/>
<polygon fill="black" stroke="black" points="416.4,-192.79 424.69,-186.19 414.09,-186.18 416.4,-192.79"/>
</g>
<!-- FilesFormat -->
<g id="node16" class="node">
<title>FilesFormat</title>
<g id="a_node16"><a xlink:href="../files_format.html" xlink:title="FilesFormat" target="_top">
<polygon fill="none" stroke="white" points="584.32,-185.28 508,-185.28 508,-165.96 584.32,-165.96 584.32,-185.28"/>
<text xml:space="preserve" text-anchor="middle" x="546.16" y="-169.82" font-family="Sans-Serif" font-size="14.00">FilesFormat</text>
</a>
</g>
</g>
<!-- Writers&#45;&gt;FilesFormat -->
<g id="edge33" class="edge">
<title>Writers&#45;&gt;FilesFormat</title>
<path fill="none" stroke="black" d="M322.89,-223.35C325.67,-222.63 328.47,-221.92 331.16,-221.28 387.49,-207.82 452.68,-194.61 496.38,-186.09"/>
<polygon fill="black" stroke="black" points="496.92,-189.55 506.07,-184.21 495.59,-182.68 496.92,-189.55"/>
</g>
<!-- Reconstruction -->
<g id="node25" class="node">
<title>Reconstruction</title>
<g id="a_node25"><a xlink:href="../reconstruction.html" xlink:title="Reconstruction" target="_top">
<polygon fill="none" stroke="white" points="94.32,-185.28 0,-185.28 0,-165.96 94.32,-165.96 94.32,-185.28"/>
<text xml:space="preserve" text-anchor="middle" x="47.16" y="-169.82" font-family="Sans-Serif" font-size="14.00">Reconstruction</text>
</a>
</g>
</g>
<!-- Writers&#45;&gt;Reconstruction -->
<g id="edge38" class="edge">
<title>Writers&#45;&gt;Reconstruction</title>
<path fill="none" stroke="black" d="M275.45,-224.92C235.87,-216.55 155.37,-199.52 101.33,-188.08"/>
<polygon fill="black" stroke="black" points="102.21,-184.69 91.7,-186.04 100.76,-191.54 102.21,-184.69"/>
</g>
<!-- Computations -->
<g id="node4" class="node">
<title>Computations</title>
<g id="a_node4"><a xlink:href="../computations.html" xlink:title="Computations" target="_top">
<polygon fill="none" stroke="white" points="189.32,-74.64 101,-74.64 101,-55.32 189.32,-55.32 189.32,-74.64"/>
<text xml:space="preserve" text-anchor="middle" x="145.16" y="-59.18" font-family="Sans-Serif" font-size="14.00">Computations</text>
</a>
</g>
</g>
<!-- Computations&#45;&gt;Adapters -->
<g id="edge2" class="edge">
<title>Computations&#45;&gt;Adapters</title>
<path fill="none" stroke="black" d="M151.1,-55.18C155.87,-48.12 162.72,-37.97 168.68,-29.14"/>
<polygon fill="black" stroke="black" points="171.54,-31.16 174.24,-20.91 165.74,-27.24 171.54,-31.16"/>
</g>
<!-- MemoryFormat&#45;&gt;Adapters -->
<g id="edge4" class="edge">
<title>MemoryFormat&#45;&gt;Adapters</title>
<path fill="none" stroke="black" d="M271.53,-165.71C261.21,-157.35 246.25,-144.05 236.16,-129.96 224.02,-113.01 201.17,-59.43 189.1,-30.18"/>
<polygon fill="black" stroke="black" points="192.38,-28.96 185.35,-21.04 185.91,-31.62 192.38,-28.96"/>
</g>
<!-- ExampleData -->
<g id="node21" class="node">
<title>ExampleData</title>
<g id="a_node21"><a xlink:href="../example_data.html" xlink:title="ExampleData" target="_top">
<polygon fill="none" stroke="white" points="487.19,-129.96 401.12,-129.96 401.12,-110.64 487.19,-110.64 487.19,-129.96"/>
<text xml:space="preserve" text-anchor="middle" x="444.16" y="-114.5" font-family="Sans-Serif" font-size="14.00">ExampleData</text>
</a>
</g>
</g>
<!-- MemoryFormat&#45;&gt;ExampleData -->
<g id="edge19" class="edge">
<title>MemoryFormat&#45;&gt;ExampleData</title>
<path fill="none" stroke="black" d="M310.47,-165.57C336.72,-156.88 376.64,-143.66 406.02,-133.93"/>
<polygon fill="black" stroke="black" points="406.89,-137.33 415.28,-130.87 404.68,-130.69 406.89,-137.33"/>
</g>
<!-- AnnDataFormat -->
<g id="node23" class="node">
<title>AnnDataFormat</title>
<g id="a_node23"><a xlink:href="../anndata_format.html" xlink:title="AnnDataFormat" target="_top">
<polygon fill="none" stroke="white" points="345.32,-129.96 245,-129.96 245,-110.64 345.32,-110.64 345.32,-129.96"/>
<text xml:space="preserve" text-anchor="middle" x="295.16" y="-114.5" font-family="Sans-Serif" font-size="14.00">AnnDataFormat</text>
</a>
</g>
</g>
<!-- MemoryFormat&#45;&gt;AnnDataFormat -->
<g id="edge30" class="edge">
<title>MemoryFormat&#45;&gt;AnnDataFormat</title>
<path fill="none" stroke="black" d="M285.14,-165.82C286.63,-159.22 288.72,-149.92 290.61,-141.53"/>
<polygon fill="black" stroke="black" points="294.02,-142.3 292.8,-131.77 287.19,-140.76 294.02,-142.3"/>
</g>
<!-- Chains&#45;&gt;Adapters -->
<g id="edge5" class="edge">
<title>Chains&#45;&gt;Adapters</title>
<path fill="none" stroke="black" d="M372.59,-165.82C371.31,-152.55 367.22,-127.2 354.16,-110.64 319.68,-66.91 260.41,-38.71 221.01,-23.76"/>
<polygon fill="black" stroke="black" points="222.22,-20.48 211.63,-20.32 219.82,-27.05 222.22,-20.48"/>
</g>
<!-- CompleteDaf -->
<g id="node14" class="node">
<title>CompleteDaf</title>
<g id="a_node14"><a xlink:href="../complete.html" xlink:title="CompleteDaf" target="_top">
<polygon fill="none" stroke="white" points="589.07,-129.96 505.25,-129.96 505.25,-110.64 589.07,-110.64 589.07,-129.96"/>
<text xml:space="preserve" text-anchor="middle" x="547.16" y="-114.5" font-family="Sans-Serif" font-size="14.00">CompleteDaf</text>
</a>
</g>
</g>
<!-- Chains&#45;&gt;CompleteDaf -->
<g id="edge13" class="edge">
<title>Chains&#45;&gt;CompleteDaf</title>
<path fill="none" stroke="black" d="M396.63,-167.43C424.83,-158.78 472.64,-144.14 506.81,-133.67"/>
<polygon fill="black" stroke="black" points="507.4,-137.15 515.93,-130.87 505.35,-130.45 507.4,-137.15"/>
</g>
<!-- Chains&#45;&gt;ExampleData -->
<g id="edge20" class="edge">
<title>Chains&#45;&gt;ExampleData</title>
<path fill="none" stroke="black" d="M385.2,-165.57C395.57,-157.79 410.76,-146.38 423.13,-137.09"/>
<polygon fill="black" stroke="black" points="425.19,-139.92 431.08,-131.12 420.99,-134.33 425.19,-139.92"/>
</g>
<!-- Views -->
<g id="node7" class="node">
<title>Views</title>
<g id="a_node7"><a xlink:href="../views.html" xlink:title="Views" target="_top">
<polygon fill="none" stroke="white" points="216.32,-185.28 176,-185.28 176,-165.96 216.32,-165.96 216.32,-185.28"/>
<text xml:space="preserve" text-anchor="middle" x="196.16" y="-169.82" font-family="Sans-Serif" font-size="14.00">Views</text>
</a>
</g>
</g>
<!-- Contracts -->
<g id="node17" class="node">
<title>Contracts</title>
<g id="a_node17"><a xlink:href="../contracts.html" xlink:title="Contracts" target="_top">
<polygon fill="none" stroke="white" points="189.19,-129.96 127.12,-129.96 127.12,-110.64 189.19,-110.64 189.19,-129.96"/>
<text xml:space="preserve" text-anchor="middle" x="158.16" y="-114.5" font-family="Sans-Serif" font-size="14.00">Contracts</text>
</a>
</g>
</g>
<!-- Views&#45;&gt;Contracts -->
<g id="edge15" class="edge">
<title>Views&#45;&gt;Contracts</title>
<path fill="none" stroke="black" d="M189.89,-165.82C184.8,-158.68 177.46,-148.39 171.13,-139.5"/>
<polygon fill="black" stroke="black" points="174.1,-137.64 165.45,-131.53 168.4,-141.7 174.1,-137.64"/>
</g>
<!-- Views&#45;&gt;Concat -->
<g id="edge35" class="edge">
<title>Views&#45;&gt;Concat</title>
<path fill="none" stroke="black" d="M177.33,-165.57C160.11,-157.3 134.36,-144.93 114.45,-135.37"/>
<polygon fill="black" stroke="black" points="115.98,-132.22 105.45,-131.04 112.94,-138.53 115.98,-132.22"/>
</g>
<!-- Queries -->
<g id="node8" class="node">
<title>Queries</title>
<g id="a_node8"><a xlink:href="../queries.html" xlink:title="Queries" target="_top">
<polygon fill="none" stroke="white" points="240.32,-240.6 188,-240.6 188,-221.28 240.32,-221.28 240.32,-240.6"/>
<text xml:space="preserve" text-anchor="middle" x="214.16" y="-225.14" font-family="Sans-Serif" font-size="14.00">Queries</text>
</a>
</g>
</g>
<!-- Queries&#45;&gt;Views -->
<g id="edge6" class="edge">
<title>Queries&#45;&gt;Views</title>
<path fill="none" stroke="black" d="M211.19,-221.14C208.91,-214.38 205.67,-204.81 202.79,-196.26"/>
<polygon fill="black" stroke="black" points="206.2,-195.41 199.68,-187.05 199.56,-197.64 206.2,-195.41"/>
</g>
<!-- Queries&#45;&gt;Reconstruction -->
<g id="edge37" class="edge">
<title>Queries&#45;&gt;Reconstruction</title>
<path fill="none" stroke="black" d="M187.7,-221.49C160.5,-212.81 117.85,-199.19 86.66,-189.23"/>
<polygon fill="black" stroke="black" points="87.77,-185.91 77.18,-186.2 85.64,-192.58 87.77,-185.91"/>
</g>
<!-- ReadOnly -->
<g id="node9" class="node">
<title>ReadOnly</title>
<g id="a_node9"><a xlink:href="../read_only.html" xlink:title="ReadOnly" target="_top">
<polygon fill="none" stroke="white" points="405.69,-240.6 340.62,-240.6 340.62,-221.28 405.69,-221.28 405.69,-240.6"/>
<text xml:space="preserve" text-anchor="middle" x="373.16" y="-225.14" font-family="Sans-Serif" font-size="14.00">ReadOnly</text>
</a>
</g>
</g>
<!-- ReadOnly&#45;&gt;Chains -->
<g id="edge28" class="edge">
<title>ReadOnly&#45;&gt;Chains</title>
<path fill="none" stroke="black" d="M373.16,-221.14C373.16,-214.54 373.16,-205.24 373.16,-196.85"/>
<polygon fill="black" stroke="black" points="376.66,-197.13 373.16,-187.13 369.66,-197.13 376.66,-197.13"/>
</g>
<!-- ReadOnly&#45;&gt;Views -->
<g id="edge7" class="edge">
<title>ReadOnly&#45;&gt;Views</title>
<path fill="none" stroke="black" d="M343.13,-220.89C310.93,-211.19 260.03,-195.86 227.38,-186.02"/>
<polygon fill="black" stroke="black" points="228.68,-182.76 218.1,-183.23 226.66,-189.46 228.68,-182.76"/>
</g>
<!-- ReadOnly&#45;&gt;H5dfFormat -->
<g id="edge24" class="edge">
<title>ReadOnly&#45;&gt;H5dfFormat</title>
<path fill="none" stroke="black" d="M386.56,-220.89C398.25,-213.01 415.46,-201.39 429.32,-192.04"/>
<polygon fill="black" stroke="black" points="431.11,-195.05 437.44,-186.56 427.19,-189.25 431.11,-195.05"/>
</g>
<!-- ReadOnly&#45;&gt;FilesFormat -->
<g id="edge32" class="edge">
<title>ReadOnly&#45;&gt;FilesFormat</title>
<path fill="none" stroke="black" d="M402.51,-220.89C430.96,-212.12 474.36,-198.75 506.01,-189"/>
<polygon fill="black" stroke="black" points="506.7,-192.45 515.22,-186.16 504.64,-185.76 506.7,-192.45"/>
</g>
<!-- Operations -->
<g id="node10" class="node">
<title>Operations</title>
<g id="a_node10"><a xlink:href="../operations.html" xlink:title="Operations" target="_top">
<polygon fill="none" stroke="white" points="466.69,-295.92 395.62,-295.92 395.62,-276.6 466.69,-276.6 466.69,-295.92"/>
<text xml:space="preserve" text-anchor="middle" x="431.16" y="-280.46" font-family="Sans-Serif" font-size="14.00">Operations</text>
</a>
</g>
</g>
<!-- Operations&#45;&gt;Queries -->
<g id="edge10" class="edge">
<title>Operations&#45;&gt;Queries</title>
<path fill="none" stroke="black" d="M395.33,-276.46C355.69,-266.72 292.11,-251.09 251.77,-241.18"/>
<polygon fill="black" stroke="black" points="252.82,-237.83 242.27,-238.85 251.14,-244.63 252.82,-237.83"/>
</g>
<!-- Operations&#45;&gt;FilesFormat -->
<g id="edge31" class="edge">
<title>Operations&#45;&gt;FilesFormat</title>
<path fill="none" stroke="black" d="M441.89,-276.22C452.34,-267.34 468.58,-253.31 482.16,-240.6 498.75,-225.07 517.02,-206.67 529.78,-193.6"/>
<polygon fill="black" stroke="black" points="532.13,-196.2 536.59,-186.58 527.11,-191.32 532.13,-196.2"/>
</g>
<!-- Tokens -->
<g id="node11" class="node">
<title>Tokens</title>
<g id="a_node11"><a xlink:href="../tokens.html" xlink:title="Tokens" target="_top">
<polygon fill="none" stroke="white" points="383.69,-406.56 336.62,-406.56 336.62,-387.24 383.69,-387.24 383.69,-406.56"/>
<text xml:space="preserve" text-anchor="middle" x="360.16" y="-391.1" font-family="Sans-Serif" font-size="14.00">Tokens</text>
</a>
</g>
</g>
<!-- Tokens&#45;&gt;Operations -->
<g id="edge8" class="edge">
<title>Tokens&#45;&gt;Operations</title>
<path fill="none" stroke="black" d="M365.97,-387.01C377.52,-369.34 403.56,-329.49 419.01,-305.85"/>
<polygon fill="black" stroke="black" points="421.9,-307.83 424.44,-297.54 416.04,-304 421.9,-307.83"/>
</g>
<!-- Formats -->
<g id="node18" class="node">
<title>Formats</title>
<g id="a_node18"><a xlink:href="../formats.html" xlink:title="Formats" target="_top">
<polygon fill="none" stroke="white" points="363.44,-351.24 308.87,-351.24 308.87,-331.92 363.44,-331.92 363.44,-351.24"/>
<text xml:space="preserve" text-anchor="middle" x="336.16" y="-335.78" font-family="Sans-Serif" font-size="14.00">Formats</text>
</a>
</g>
</g>
<!-- Tokens&#45;&gt;Formats -->
<g id="edge18" class="edge">
<title>Tokens&#45;&gt;Formats</title>
<path fill="none" stroke="black" d="M356.2,-387.1C353.12,-380.27 348.75,-370.55 344.87,-361.93"/>
<polygon fill="black" stroke="black" points="348.13,-360.64 340.83,-352.96 341.74,-363.51 348.13,-360.64"/>
</g>
<!-- Registry -->
<g id="node12" class="node">
<title>Registry</title>
<g id="a_node12"><a xlink:href="../registry.html" xlink:title="Registry" target="_top">
<polygon fill="none" stroke="white" points="473.07,-351.24 419.25,-351.24 419.25,-331.92 473.07,-331.92 473.07,-351.24"/>
<text xml:space="preserve" text-anchor="middle" x="446.16" y="-335.78" font-family="Sans-Serif" font-size="14.00">Registry</text>
</a>
</g>
</g>
<!-- Registry&#45;&gt;Operations -->
<g id="edge9" class="edge">
<title>Registry&#45;&gt;Operations</title>
<path fill="none" stroke="black" d="M443.68,-331.78C441.81,-325.1 439.15,-315.66 436.77,-307.19"/>
<polygon fill="black" stroke="black" points="440.18,-306.39 434.1,-297.71 433.44,-308.29 440.18,-306.39"/>
</g>
<!-- Readers -->
<g id="node13" class="node">
<title>Readers</title>
<g id="a_node13"><a xlink:href="../readers.html" xlink:title="Readers" target="_top">
<polygon fill="none" stroke="white" points="363.82,-295.92 308.5,-295.92 308.5,-276.6 363.82,-276.6 363.82,-295.92"/>
<text xml:space="preserve" text-anchor="middle" x="336.16" y="-280.46" font-family="Sans-Serif" font-size="14.00">Readers</text>
</a>
</g>
</g>
<!-- Readers&#45;&gt;Writers -->
<g id="edge27" class="edge">
<title>Readers&#45;&gt;Writers</title>
<path fill="none" stroke="black" d="M330.05,-276.46C325.1,-269.32 317.96,-259.03 311.79,-250.14"/>
<polygon fill="black" stroke="black" points="314.84,-248.4 306.27,-242.18 309.09,-252.39 314.84,-248.4"/>
</g>
<!-- Readers&#45;&gt;Queries -->
<g id="edge11" class="edge">
<title>Readers&#45;&gt;Queries</title>
<path fill="none" stroke="black" d="M315.46,-276.21C296.27,-267.83 267.45,-255.23 245.44,-245.61"/>
<polygon fill="black" stroke="black" points="246.91,-242.43 236.34,-241.64 244.11,-248.85 246.91,-242.43"/>
</g>
<!-- Readers&#45;&gt;ReadOnly -->
<g id="edge39" class="edge">
<title>Readers&#45;&gt;ReadOnly</title>
<path fill="none" stroke="black" d="M342.27,-276.46C347.22,-269.32 354.36,-259.03 360.53,-250.14"/>
<polygon fill="black" stroke="black" points="363.23,-252.39 366.05,-242.18 357.48,-248.4 363.23,-252.39"/>
</g>
<!-- Groups -->
<g id="node22" class="node">
<title>Groups</title>
<g id="a_node22"><a xlink:href="../groups.html" xlink:title="Groups" target="_top">
<polygon fill="none" stroke="white" points="472.82,-240.6 423.5,-240.6 423.5,-221.28 472.82,-221.28 472.82,-240.6"/>
<text xml:space="preserve" text-anchor="middle" x="448.16" y="-225.14" font-family="Sans-Serif" font-size="14.00">Groups</text>
</a>
</g>
</g>
<!-- Readers&#45;&gt;Groups -->
<g id="edge26" class="edge">
<title>Readers&#45;&gt;Groups</title>
<path fill="none" stroke="black" d="M355.16,-276.21C372.62,-267.9 398.76,-255.46 418.88,-245.88"/>
<polygon fill="black" stroke="black" points="420.18,-249.14 427.7,-241.68 417.17,-242.82 420.18,-249.14"/>
</g>
<!-- H5dfFormat&#45;&gt;CompleteDaf -->
<g id="edge12" class="edge">
<title>H5dfFormat&#45;&gt;CompleteDaf</title>
<path fill="none" stroke="black" d="M468.28,-165.57C482.74,-157.46 504.24,-145.39 521.14,-135.9"/>
<polygon fill="black" stroke="black" points="522.64,-139.08 529.65,-131.13 519.21,-132.97 522.64,-139.08"/>
</g>
<!-- FilesFormat&#45;&gt;CompleteDaf -->
<g id="edge14" class="edge">
<title>FilesFormat&#45;&gt;CompleteDaf</title>
<path fill="none" stroke="black" d="M546.33,-165.82C546.45,-159.22 546.62,-149.92 546.78,-141.53"/>
<polygon fill="black" stroke="black" points="550.27,-141.87 546.96,-131.81 543.28,-141.74 550.27,-141.87"/>
</g>
<!-- FilesFormat&#45;&gt;ExampleData -->
<g id="edge21" class="edge">
<title>FilesFormat&#45;&gt;ExampleData</title>
<path fill="none" stroke="black" d="M528.86,-165.57C513.18,-157.38 489.81,-145.16 471.58,-135.64"/>
<polygon fill="black" stroke="black" points="473.37,-132.62 462.89,-131.09 470.13,-138.83 473.37,-132.62"/>
</g>
<!-- Contracts&#45;&gt;Computations -->
<g id="edge36" class="edge">
<title>Contracts&#45;&gt;Computations</title>
<path fill="none" stroke="black" d="M156.01,-110.5C154.39,-103.82 152.08,-94.38 150.02,-85.91"/>
<polygon fill="black" stroke="black" points="153.48,-85.33 147.71,-76.45 146.68,-86.99 153.48,-85.33"/>
</g>
<!-- Formats&#45;&gt;Readers -->
<g id="edge40" class="edge">
<title>Formats&#45;&gt;Readers</title>
<path fill="none" stroke="black" d="M336.16,-331.78C336.16,-325.18 336.16,-315.88 336.16,-307.49"/>
<polygon fill="black" stroke="black" points="339.66,-307.77 336.16,-297.77 332.66,-307.77 339.66,-307.77"/>
</g>
<!-- Keys -->
<g id="node19" class="node">
<title>Keys</title>
<g id="a_node19"><a xlink:href="../keys.html" xlink:title="Keys" target="_top">
<polygon fill="none" stroke="white" points="318.32,-406.56 284,-406.56 284,-387.24 318.32,-387.24 318.32,-406.56"/>
<text xml:space="preserve" text-anchor="middle" x="301.16" y="-391.1" font-family="Sans-Serif" font-size="14.00">Keys</text>
</a>
</g>
</g>
<!-- Keys&#45;&gt;Formats -->
<g id="edge16" class="edge">
<title>Keys&#45;&gt;Formats</title>
<path fill="none" stroke="black" d="M306.94,-387.1C311.57,-380.04 318.23,-369.89 324.03,-361.06"/>
<polygon fill="black" stroke="black" points="326.86,-363.12 329.42,-352.84 321.01,-359.28 326.86,-363.12"/>
</g>
<!-- StorageTypes -->
<g id="node20" class="node">
<title>StorageTypes</title>
<g id="a_node20"><a xlink:href="../storage_types.html" xlink:title="StorageTypes" target="_top">
<polygon fill="none" stroke="white" points="490.32,-406.56 402,-406.56 402,-387.24 490.32,-387.24 490.32,-406.56"/>
<text xml:space="preserve" text-anchor="middle" x="446.16" y="-391.1" font-family="Sans-Serif" font-size="14.00">StorageTypes</text>
</a>
</g>
</g>
<!-- StorageTypes&#45;&gt;Registry -->
<g id="edge23" class="edge">
<title>StorageTypes&#45;&gt;Registry</title>
<path fill="none" stroke="black" d="M446.16,-387.1C446.16,-380.5 446.16,-371.2 446.16,-362.81"/>
<polygon fill="black" stroke="black" points="449.66,-363.09 446.16,-353.09 442.66,-363.09 449.66,-363.09"/>
</g>
<!-- StorageTypes&#45;&gt;Formats -->
<g id="edge17" class="edge">
<title>StorageTypes&#45;&gt;Formats</title>
<path fill="none" stroke="black" d="M427.5,-386.85C410.43,-378.58 384.92,-366.21 365.19,-356.65"/>
<polygon fill="black" stroke="black" points="366.8,-353.54 356.27,-352.33 363.75,-359.84 366.8,-353.54"/>
</g>
</g>
</svg>
