<?xml version="1.0" encoding="UTF-8" standalone="no"?>
<!DOCTYPE svg PUBLIC "-//W3C//DTD SVG 1.1//EN"
 "http://www.w3.org/Graphics/SVG/1.1/DTD/svg11.dtd">
<!-- Generated by graphviz version 12.2.1 (20241206.2353)
 -->
<!-- Pages: 1 -->
<svg width="655pt" height="415pt"
 viewBox="0.00 0.00 654.59 414.56" xmlns="http://www.w3.org/2000/svg" xmlns:xlink="http://www.w3.org/1999/xlink">
<g id="graph0" class="graph" transform="scale(1 1) rotate(0) translate(4 410.56)">
<polygon fill="white" stroke="none" points="-4,4 -4,-410.56 650.59,-410.56 650.59,4 -4,4"/>
<!-- Copies -->
<g id="node1" class="node">
<title>Copies</title>
<g id="a_node1"><a xlink:href="../copies.html" xlink:title="Copies" target="_top">
<polygon fill="none" stroke="white" points="160.14,-185.28 113.82,-185.28 113.82,-165.96 160.14,-165.96 160.14,-185.28"/>
<text text-anchor="middle" x="136.98" y="-169.82" font-family="Sans-Serif" font-size="14.00">Copies</text>
</a>
</g>
</g>
<!-- Adapters -->
<g id="node3" class="node">
<title>Adapters</title>
<g id="a_node3"><a xlink:href="../adapters.html" xlink:title="Adapters" target="_top">
<polygon fill="none" stroke="white" points="166.14,-19.32 107.82,-19.32 107.82,0 166.14,0 166.14,-19.32"/>
<text text-anchor="middle" x="136.98" y="-3.86" font-family="Sans-Serif" font-size="14.00">Adapters</text>
</a>
</g>
</g>
<!-- Copies&#45;&gt;Adapters -->
<g id="edge4" class="edge">
<title>Copies&#45;&gt;Adapters</title>
<path fill="none" stroke="black" d="M113.61,-168.12C78.18,-158.03 14.3,-138.84 7.98,-129.96 -23.93,-85.14 53.15,-44.26 101.49,-24.01"/>
<polygon fill="black" stroke="black" points="102.56,-27.36 110.5,-20.35 99.92,-20.87 102.56,-27.36"/>
</g>
<!-- Concat -->
<g id="node25" class="node">
<title>Concat</title>
<g id="a_node25"><a xlink:href="../concat.html" xlink:title="Concat" target="_top">
<polygon fill="none" stroke="white" points="64.51,-129.96 17.44,-129.96 17.44,-110.64 64.51,-110.64 64.51,-129.96"/>
<text text-anchor="middle" x="40.98" y="-114.5" font-family="Sans-Serif" font-size="14.00">Concat</text>
</a>
</g>
</g>
<!-- Copies&#45;&gt;Concat -->
<g id="edge34" class="edge">
<title>Copies&#45;&gt;Concat</title>
<path fill="none" stroke="black" d="M120.69,-165.57C106.07,-157.46 84.35,-145.39 67.27,-135.9"/>
<polygon fill="black" stroke="black" points="69.11,-132.92 58.67,-131.12 65.71,-139.04 69.11,-132.92"/>
</g>
<!-- Writers -->
<g id="node2" class="node">
<title>Writers</title>
<g id="a_node2"><a xlink:href="../writers.html" xlink:title="Writers" target="_top">
<polygon fill="none" stroke="white" points="394.51,-240.6 347.44,-240.6 347.44,-221.28 394.51,-221.28 394.51,-240.6"/>
<text text-anchor="middle" x="370.98" y="-225.14" font-family="Sans-Serif" font-size="14.00">Writers</text>
</a>
</g>
</g>
<!-- Writers&#45;&gt;Copies -->
<g id="edge1" class="edge">
<title>Writers&#45;&gt;Copies</title>
<path fill="none" stroke="black" d="M347.25,-223.36C344.47,-222.64 341.66,-221.93 338.98,-221.28 267.27,-204 245.95,-203.39 171.26,-185.72"/>
<polygon fill="black" stroke="black" points="172.37,-182.39 161.83,-183.46 170.74,-189.19 172.37,-182.39"/>
</g>
<!-- MemoryFormat -->
<g id="node4" class="node">
<title>MemoryFormat</title>
<g id="a_node4"><a xlink:href="../memory_format.html" xlink:title="MemoryFormat" target="_top">
<polygon fill="none" stroke="white" points="362.01,-185.28 263.94,-185.28 263.94,-165.96 362.01,-165.96 362.01,-185.28"/>
<text text-anchor="middle" x="312.98" y="-169.82" font-family="Sans-Serif" font-size="14.00">MemoryFormat</text>
</a>
</g>
</g>
<!-- Writers&#45;&gt;MemoryFormat -->
<g id="edge22" class="edge">
<title>Writers&#45;&gt;MemoryFormat</title>
<path fill="none" stroke="black" d="M361.14,-220.89C352.92,-213.34 341,-202.38 331.07,-193.25"/>
<polygon fill="black" stroke="black" points="333.52,-190.75 323.79,-186.56 328.78,-195.9 333.52,-190.75"/>
</g>
<!-- Chains -->
<g id="node6" class="node">
<title>Chains</title>
<g id="a_node6"><a xlink:href="../chains.html" xlink:title="Chains" target="_top">
<polygon fill="none" stroke="white" points="614.14,-185.28 567.82,-185.28 567.82,-165.96 614.14,-165.96 614.14,-185.28"/>
<text text-anchor="middle" x="590.98" y="-169.82" font-family="Sans-Serif" font-size="14.00">Chains</text>
</a>
</g>
</g>
<!-- Writers&#45;&gt;Chains -->
<g id="edge28" class="edge">
<title>Writers&#45;&gt;Chains</title>
<path fill="none" stroke="black" d="M394.72,-223.41C397.5,-222.68 400.3,-221.95 402.98,-221.28 468.63,-204.83 488.08,-202.75 556.63,-185.79"/>
<polygon fill="black" stroke="black" points="557.26,-189.24 566.12,-183.43 555.57,-182.45 557.26,-189.24"/>
</g>
<!-- H5dfFormat -->
<g id="node16" class="node">
<title>H5dfFormat</title>
<g id="a_node16"><a xlink:href="../h5df_format.html" xlink:title="H5dfFormat" target="_top">
<polygon fill="none" stroke="white" points="550.14,-185.28 473.82,-185.28 473.82,-165.96 550.14,-165.96 550.14,-185.28"/>
<text text-anchor="middle" x="511.98" y="-169.82" font-family="Sans-Serif" font-size="14.00">H5dfFormat</text>
</a>
</g>
</g>
<!-- Writers&#45;&gt;H5dfFormat -->
<g id="edge24" class="edge">
<title>Writers&#45;&gt;H5dfFormat</title>
<path fill="none" stroke="black" d="M394.9,-220.89C417.48,-212.35 451.61,-199.45 477.21,-189.77"/>
<polygon fill="black" stroke="black" points="478.41,-193.06 486.53,-186.24 475.94,-186.51 478.41,-193.06"/>
</g>
<!-- FilesFormat -->
<g id="node17" class="node">
<title>FilesFormat</title>
<g id="a_node17"><a xlink:href="../files_format.html" xlink:title="FilesFormat" target="_top">
<polygon fill="none" stroke="white" points="456.14,-185.28 379.82,-185.28 379.82,-165.96 456.14,-165.96 456.14,-185.28"/>
<text text-anchor="middle" x="417.98" y="-169.82" font-family="Sans-Serif" font-size="14.00">FilesFormat</text>
</a>
</g>
</g>
<!-- Writers&#45;&gt;FilesFormat -->
<g id="edge31" class="edge">
<title>Writers&#45;&gt;FilesFormat</title>
<path fill="none" stroke="black" d="M378.74,-221.14C385.16,-213.85 394.49,-203.26 402.44,-194.24"/>
<polygon fill="black" stroke="black" points="405.06,-196.57 409.05,-186.75 399.81,-191.94 405.06,-196.57"/>
</g>
<!-- Reconstruction -->
<g id="node26" class="node">
<title>Reconstruction</title>
<g id="a_node26"><a xlink:href="../reconstruction.html" xlink:title="Reconstruction" target="_top">
<polygon fill="none" stroke="white" points="96.14,-185.28 1.82,-185.28 1.82,-165.96 96.14,-165.96 96.14,-185.28"/>
<text text-anchor="middle" x="48.98" y="-169.82" font-family="Sans-Serif" font-size="14.00">Reconstruction</text>
</a>
</g>
</g>
<!-- Writers&#45;&gt;Reconstruction -->
<g id="edge38" class="edge">
<title>Writers&#45;&gt;Reconstruction</title>
<path fill="none" stroke="black" d="M347.28,-223.21C344.5,-222.51 341.68,-221.85 338.98,-221.28 239.55,-200.25 210.91,-201.22 107.86,-185.7"/>
<polygon fill="black" stroke="black" points="108.55,-182.27 98.13,-184.22 107.49,-189.19 108.55,-182.27"/>
</g>
<!-- MemoryFormat&#45;&gt;Adapters -->
<g id="edge2" class="edge">
<title>MemoryFormat&#45;&gt;Adapters</title>
<path fill="none" stroke="black" d="M263.52,-165.64C239.53,-159.15 211.71,-148.2 191.98,-129.96 184.11,-122.69 158.16,-61.81 144.91,-29.94"/>
<polygon fill="black" stroke="black" points="148.3,-28.97 141.24,-21.06 141.83,-31.64 148.3,-28.97"/>
</g>
<!-- OldExampleData -->
<g id="node14" class="node">
<title>OldExampleData</title>
<g id="a_node14"><a xlink:href="../old_example_data.html" xlink:title="OldExampleData" target="_top">
<polygon fill="none" stroke="white" points="426.89,-129.96 319.07,-129.96 319.07,-110.64 426.89,-110.64 426.89,-129.96"/>
<text text-anchor="middle" x="372.98" y="-114.5" font-family="Sans-Serif" font-size="14.00">OldExampleData</text>
</a>
</g>
</g>
<!-- MemoryFormat&#45;&gt;OldExampleData -->
<g id="edge12" class="edge">
<title>MemoryFormat&#45;&gt;OldExampleData</title>
<path fill="none" stroke="black" d="M323.16,-165.57C331.74,-157.95 344.25,-146.83 354.58,-137.65"/>
<polygon fill="black" stroke="black" points="356.67,-140.48 361.82,-131.22 352.02,-135.24 356.67,-140.48"/>
</g>
<!-- ExampleData -->
<g id="node22" class="node">
<title>ExampleData</title>
<g id="a_node22"><a xlink:href="../example_data.html" xlink:title="ExampleData" target="_top">
<polygon fill="none" stroke="white" points="531.01,-129.96 444.94,-129.96 444.94,-110.64 531.01,-110.64 531.01,-129.96"/>
<text text-anchor="middle" x="487.98" y="-114.5" font-family="Sans-Serif" font-size="14.00">ExampleData</text>
</a>
</g>
</g>
<!-- MemoryFormat&#45;&gt;ExampleData -->
<g id="edge20" class="edge">
<title>MemoryFormat&#45;&gt;ExampleData</title>
<path fill="none" stroke="black" d="M342.67,-165.57C371.45,-156.8 415.35,-143.43 447.36,-133.68"/>
<polygon fill="black" stroke="black" points="448.15,-137.09 456.7,-130.83 446.11,-130.4 448.15,-137.09"/>
</g>
<!-- AnnDataFormat -->
<g id="node24" class="node">
<title>AnnDataFormat</title>
<g id="a_node24"><a xlink:href="../anndata_format.html" xlink:title="AnnDataFormat" target="_top">
<polygon fill="none" stroke="white" points="301.14,-129.96 200.82,-129.96 200.82,-110.64 301.14,-110.64 301.14,-129.96"/>
<text text-anchor="middle" x="250.98" y="-114.5" font-family="Sans-Serif" font-size="14.00">AnnDataFormat</text>
</a>
</g>
</g>
<!-- MemoryFormat&#45;&gt;AnnDataFormat -->
<g id="edge30" class="edge">
<title>MemoryFormat&#45;&gt;AnnDataFormat</title>
<path fill="none" stroke="black" d="M302.46,-165.57C293.59,-157.95 280.67,-146.83 269.99,-137.65"/>
<polygon fill="black" stroke="black" points="272.35,-135.07 262.49,-131.2 267.79,-140.37 272.35,-135.07"/>
</g>
<!-- Computations -->
<g id="node5" class="node">
<title>Computations</title>
<g id="a_node5"><a xlink:href="../computations.html" xlink:title="Computations" target="_top">
<polygon fill="none" stroke="white" points="145.14,-74.64 56.82,-74.64 56.82,-55.32 145.14,-55.32 145.14,-74.64"/>
<text text-anchor="middle" x="100.98" y="-59.18" font-family="Sans-Serif" font-size="14.00">Computations</text>
</a>
</g>
</g>
<!-- Computations&#45;&gt;Adapters -->
<g id="edge3" class="edge">
<title>Computations&#45;&gt;Adapters</title>
<path fill="none" stroke="black" d="M106.92,-55.18C111.69,-48.12 118.54,-37.97 124.5,-29.14"/>
<polygon fill="black" stroke="black" points="127.36,-31.16 130.06,-20.91 121.56,-27.24 127.36,-31.16"/>
</g>
<!-- Chains&#45;&gt;Adapters -->
<g id="edge5" class="edge">
<title>Chains&#45;&gt;Adapters</title>
<path fill="none" stroke="black" d="M607.11,-165.65C627.45,-153.22 657.94,-130.07 641.98,-110.64 583,-38.84 286.69,-17.72 177.48,-12.32"/>
<polygon fill="black" stroke="black" points="177.97,-8.84 167.82,-11.86 177.64,-15.83 177.97,-8.84"/>
</g>
<!-- CompleteDaf -->
<g id="node15" class="node">
<title>CompleteDaf</title>
<g id="a_node15"><a xlink:href="../complete.html" xlink:title="CompleteDaf" target="_top">
<polygon fill="none" stroke="white" points="632.89,-129.96 549.07,-129.96 549.07,-110.64 632.89,-110.64 632.89,-129.96"/>
<text text-anchor="middle" x="590.98" y="-114.5" font-family="Sans-Serif" font-size="14.00">CompleteDaf</text>
</a>
</g>
</g>
<!-- Chains&#45;&gt;CompleteDaf -->
<g id="edge14" class="edge">
<title>Chains&#45;&gt;CompleteDaf</title>
<path fill="none" stroke="black" d="M590.98,-165.82C590.98,-159.22 590.98,-149.92 590.98,-141.53"/>
<polygon fill="black" stroke="black" points="594.48,-141.81 590.98,-131.81 587.48,-141.81 594.48,-141.81"/>
</g>
<!-- Views -->
<g id="node7" class="node">
<title>Views</title>
<g id="a_node7"><a xlink:href="../views.html" xlink:title="Views" target="_top">
<polygon fill="none" stroke="white" points="218.14,-185.28 177.82,-185.28 177.82,-165.96 218.14,-165.96 218.14,-185.28"/>
<text text-anchor="middle" x="197.98" y="-169.82" font-family="Sans-Serif" font-size="14.00">Views</text>
</a>
</g>
</g>
<!-- Contracts -->
<g id="node18" class="node">
<title>Contracts</title>
<g id="a_node18"><a xlink:href="../contracts.html" xlink:title="Contracts" target="_top">
<polygon fill="none" stroke="white" points="145.01,-129.96 82.94,-129.96 82.94,-110.64 145.01,-110.64 145.01,-129.96"/>
<text text-anchor="middle" x="113.98" y="-114.5" font-family="Sans-Serif" font-size="14.00">Contracts</text>
</a>
</g>
</g>
<!-- Views&#45;&gt;Contracts -->
<g id="edge16" class="edge">
<title>Views&#45;&gt;Contracts</title>
<path fill="none" stroke="black" d="M183.73,-165.57C171.18,-157.61 152.64,-145.84 137.84,-136.44"/>
<polygon fill="black" stroke="black" points="139.89,-133.6 129.58,-131.2 136.14,-139.51 139.89,-133.6"/>
</g>
<!-- Views&#45;&gt;Concat -->
<g id="edge35" class="edge">
<title>Views&#45;&gt;Concat</title>
<path fill="none" stroke="black" d="M177.45,-167.65C151.62,-158.88 106.85,-143.67 75.66,-133.08"/>
<polygon fill="black" stroke="black" points="76.88,-129.79 66.28,-129.89 74.62,-136.42 76.88,-129.79"/>
</g>
<!-- Queries -->
<g id="node8" class="node">
<title>Queries</title>
<g id="a_node8"><a xlink:href="../queries.html" xlink:title="Queries" target="_top">
<polygon fill="none" stroke="white" points="224.14,-240.6 171.82,-240.6 171.82,-221.28 224.14,-221.28 224.14,-240.6"/>
<text text-anchor="middle" x="197.98" y="-225.14" font-family="Sans-Serif" font-size="14.00">Queries</text>
</a>
</g>
</g>
<!-- Queries&#45;&gt;Views -->
<g id="edge6" class="edge">
<title>Queries&#45;&gt;Views</title>
<path fill="none" stroke="black" d="M197.98,-221.14C197.98,-214.54 197.98,-205.24 197.98,-196.85"/>
<polygon fill="black" stroke="black" points="201.48,-197.13 197.98,-187.13 194.48,-197.13 201.48,-197.13"/>
</g>
<!-- Queries&#45;&gt;Reconstruction -->
<g id="edge37" class="edge">
<title>Queries&#45;&gt;Reconstruction</title>
<path fill="none" stroke="black" d="M172.7,-220.89C148.62,-212.28 112.12,-199.22 85,-189.51"/>
<polygon fill="black" stroke="black" points="86.4,-186.29 75.8,-186.22 84.04,-192.88 86.4,-186.29"/>
</g>
<!-- ReadOnly -->
<g id="node9" class="node">
<title>ReadOnly</title>
<g id="a_node9"><a xlink:href="../read_only.html" xlink:title="ReadOnly" target="_top">
<polygon fill="none" stroke="white" points="477.51,-240.6 412.44,-240.6 412.44,-221.28 477.51,-221.28 477.51,-240.6"/>
<text text-anchor="middle" x="444.98" y="-225.14" font-family="Sans-Serif" font-size="14.00">ReadOnly</text>
</a>
</g>
</g>
<!-- ReadOnly&#45;&gt;Chains -->
<g id="edge29" class="edge">
<title>ReadOnly&#45;&gt;Chains</title>
<path fill="none" stroke="black" d="M469.75,-220.89C493.66,-212.16 530.09,-198.86 556.77,-189.11"/>
<polygon fill="black" stroke="black" points="557.93,-192.42 566.12,-185.7 555.53,-185.84 557.93,-192.42"/>
</g>
<!-- ReadOnly&#45;&gt;Views -->
<g id="edge7" class="edge">
<title>ReadOnly&#45;&gt;Views</title>
<path fill="none" stroke="black" d="M412.18,-222.86C364.51,-212.57 276.68,-193.61 229.65,-183.46"/>
<polygon fill="black" stroke="black" points="230.62,-180.09 220.11,-181.4 229.14,-186.93 230.62,-180.09"/>
</g>
<!-- ReadOnly&#45;&gt;H5dfFormat -->
<g id="edge25" class="edge">
<title>ReadOnly&#45;&gt;H5dfFormat</title>
<path fill="none" stroke="black" d="M456.34,-220.89C466.03,-213.19 480.18,-201.93 491.78,-192.69"/>
<polygon fill="black" stroke="black" points="493.95,-195.44 499.6,-186.47 489.59,-189.96 493.95,-195.44"/>
</g>
<!-- ReadOnly&#45;&gt;FilesFormat -->
<g id="edge33" class="edge">
<title>ReadOnly&#45;&gt;FilesFormat</title>
<path fill="none" stroke="black" d="M440.52,-221.14C437.02,-214.23 432.03,-204.37 427.63,-195.68"/>
<polygon fill="black" stroke="black" points="430.86,-194.31 423.22,-186.97 424.61,-197.47 430.86,-194.31"/>
</g>
<!-- Operations -->
<g id="node10" class="node">
<title>Operations</title>
<g id="a_node10"><a xlink:href="../operations.html" xlink:title="Operations" target="_top">
<polygon fill="none" stroke="white" points="246.51,-295.92 175.44,-295.92 175.44,-276.6 246.51,-276.6 246.51,-295.92"/>
<text text-anchor="middle" x="210.98" y="-280.46" font-family="Sans-Serif" font-size="14.00">Operations</text>
</a>
</g>
</g>
<!-- Operations&#45;&gt;Queries -->
<g id="edge11" class="edge">
<title>Operations&#45;&gt;Queries</title>
<path fill="none" stroke="black" d="M208.83,-276.46C207.2,-269.78 204.9,-260.34 202.84,-251.87"/>
<polygon fill="black" stroke="black" points="206.3,-251.29 200.53,-242.41 199.5,-252.95 206.3,-251.29"/>
</g>
<!-- Operations&#45;&gt;FilesFormat -->
<g id="edge32" class="edge">
<title>Operations&#45;&gt;FilesFormat</title>
<path fill="none" stroke="black" d="M216.9,-276.43C226.6,-262.65 247.18,-236.07 270.98,-221.28 287.56,-210.97 333.23,-197.86 369.31,-188.51"/>
<polygon fill="black" stroke="black" points="369.86,-191.98 378.69,-186.11 368.13,-185.2 369.86,-191.98"/>
</g>
<!-- Registry -->
<g id="node11" class="node">
<title>Registry</title>
<g id="a_node11"><a xlink:href="../registry.html" xlink:title="Registry" target="_top">
<polygon fill="none" stroke="white" points="229.89,-351.24 176.07,-351.24 176.07,-331.92 229.89,-331.92 229.89,-351.24"/>
<text text-anchor="middle" x="202.98" y="-335.78" font-family="Sans-Serif" font-size="14.00">Registry</text>
</a>
</g>
</g>
<!-- Registry&#45;&gt;Operations -->
<g id="edge8" class="edge">
<title>Registry&#45;&gt;Operations</title>
<path fill="none" stroke="black" d="M204.3,-331.78C205.29,-325.18 206.68,-315.88 207.94,-307.49"/>
<polygon fill="black" stroke="black" points="211.38,-308.16 209.4,-297.75 204.46,-307.12 211.38,-308.16"/>
</g>
<!-- Tokens -->
<g id="node12" class="node">
<title>Tokens</title>
<g id="a_node12"><a xlink:href="../tokens.html" xlink:title="Tokens" target="_top">
<polygon fill="none" stroke="white" points="312.51,-406.56 265.44,-406.56 265.44,-387.24 312.51,-387.24 312.51,-406.56"/>
<text text-anchor="middle" x="288.98" y="-391.1" font-family="Sans-Serif" font-size="14.00">Tokens</text>
</a>
</g>
</g>
<!-- Tokens&#45;&gt;Operations -->
<g id="edge9" class="edge">
<title>Tokens&#45;&gt;Operations</title>
<path fill="none" stroke="black" d="M282.6,-387.01C269.85,-369.26 241.04,-329.13 224.1,-305.54"/>
<polygon fill="black" stroke="black" points="227.01,-303.58 218.33,-297.5 221.32,-307.67 227.01,-303.58"/>
</g>
<!-- Formats -->
<g id="node19" class="node">
<title>Formats</title>
<g id="a_node19"><a xlink:href="../formats.html" xlink:title="Formats" target="_top">
<polygon fill="none" stroke="white" points="340.26,-351.24 285.69,-351.24 285.69,-331.92 340.26,-331.92 340.26,-351.24"/>
<text text-anchor="middle" x="312.98" y="-335.78" font-family="Sans-Serif" font-size="14.00">Formats</text>
</a>
</g>
</g>
<!-- Tokens&#45;&gt;Formats -->
<g id="edge18" class="edge">
<title>Tokens&#45;&gt;Formats</title>
<path fill="none" stroke="black" d="M292.94,-387.1C296.02,-380.27 300.39,-370.55 304.27,-361.93"/>
<polygon fill="black" stroke="black" points="307.4,-363.51 308.31,-352.96 301.01,-360.64 307.4,-363.51"/>
</g>
<!-- Readers -->
<g id="node13" class="node">
<title>Readers</title>
<g id="a_node13"><a xlink:href="../readers.html" xlink:title="Readers" target="_top">
<polygon fill="none" stroke="white" points="340.64,-295.92 285.32,-295.92 285.32,-276.6 340.64,-276.6 340.64,-295.92"/>
<text text-anchor="middle" x="312.98" y="-280.46" font-family="Sans-Serif" font-size="14.00">Readers</text>
</a>
</g>
</g>
<!-- Readers&#45;&gt;Writers -->
<g id="edge27" class="edge">
<title>Readers&#45;&gt;Writers</title>
<path fill="none" stroke="black" d="M322.82,-276.21C331.03,-268.66 342.96,-257.7 352.89,-248.57"/>
<polygon fill="black" stroke="black" points="355.18,-251.22 360.17,-241.88 350.44,-246.07 355.18,-251.22"/>
</g>
<!-- Readers&#45;&gt;Queries -->
<g id="edge10" class="edge">
<title>Readers&#45;&gt;Queries</title>
<path fill="none" stroke="black" d="M293.47,-276.21C275.46,-267.87 248.46,-255.34 227.75,-245.74"/>
<polygon fill="black" stroke="black" points="229.5,-242.7 218.96,-241.67 226.56,-249.05 229.5,-242.7"/>
</g>
<!-- Readers&#45;&gt;ReadOnly -->
<g id="edge39" class="edge">
<title>Readers&#45;&gt;ReadOnly</title>
<path fill="none" stroke="black" d="M335.37,-276.21C356.42,-267.71 388.18,-254.88 412.1,-245.22"/>
<polygon fill="black" stroke="black" points="413.11,-248.59 421.07,-241.6 410.49,-242.1 413.11,-248.59"/>
</g>
<!-- Groups -->
<g id="node23" class="node">
<title>Groups</title>
<g id="a_node23"><a xlink:href="../groups.html" xlink:title="Groups" target="_top">
<polygon fill="none" stroke="white" points="329.64,-240.6 280.32,-240.6 280.32,-221.28 329.64,-221.28 329.64,-240.6"/>
<text text-anchor="middle" x="304.98" y="-225.14" font-family="Sans-Serif" font-size="14.00">Groups</text>
</a>
</g>
</g>
<!-- Readers&#45;&gt;Groups -->
<g id="edge26" class="edge">
<title>Readers&#45;&gt;Groups</title>
<path fill="none" stroke="black" d="M311.66,-276.46C310.67,-269.86 309.27,-260.56 308.01,-252.17"/>
<polygon fill="black" stroke="black" points="311.5,-251.8 306.55,-242.43 304.58,-252.84 311.5,-251.8"/>
</g>
<!-- H5dfFormat&#45;&gt;CompleteDaf -->
<g id="edge13" class="edge">
<title>H5dfFormat&#45;&gt;CompleteDaf</title>
<path fill="none" stroke="black" d="M525.38,-165.57C537.07,-157.69 554.28,-146.07 568.14,-136.72"/>
<polygon fill="black" stroke="black" points="569.93,-139.73 576.26,-131.24 566.01,-133.93 569.93,-139.73"/>
</g>
<!-- FilesFormat&#45;&gt;CompleteDaf -->
<g id="edge15" class="edge">
<title>FilesFormat&#45;&gt;CompleteDaf</title>
<path fill="none" stroke="black" d="M447.33,-165.57C475.78,-156.8 519.18,-143.43 550.83,-133.68"/>
<polygon fill="black" stroke="black" points="551.52,-137.13 560.04,-130.84 549.45,-130.44 551.52,-137.13"/>
</g>
<!-- FilesFormat&#45;&gt;ExampleData -->
<g id="edge21" class="edge">
<title>FilesFormat&#45;&gt;ExampleData</title>
<path fill="none" stroke="black" d="M429.85,-165.57C440.07,-157.79 455.05,-146.38 467.24,-137.09"/>
<polygon fill="black" stroke="black" points="469.24,-139.97 475.08,-131.13 465,-134.4 469.24,-139.97"/>
</g>
<!-- Contracts&#45;&gt;Computations -->
<g id="edge36" class="edge">
<title>Contracts&#45;&gt;Computations</title>
<path fill="none" stroke="black" d="M111.83,-110.5C110.2,-103.82 107.9,-94.38 105.84,-85.91"/>
<polygon fill="black" stroke="black" points="109.3,-85.33 103.53,-76.45 102.5,-86.99 109.3,-85.33"/>
</g>
<!-- Formats&#45;&gt;Readers -->
<g id="edge40" class="edge">
<title>Formats&#45;&gt;Readers</title>
<path fill="none" stroke="black" d="M312.98,-331.78C312.98,-325.18 312.98,-315.88 312.98,-307.49"/>
<polygon fill="black" stroke="black" points="316.48,-307.77 312.98,-297.77 309.48,-307.77 316.48,-307.77"/>
</g>
<!-- StorageTypes -->
<g id="node20" class="node">
<title>StorageTypes</title>
<g id="a_node20"><a xlink:href="../storage_types.html" xlink:title="StorageTypes" target="_top">
<polygon fill="none" stroke="white" points="247.14,-406.56 158.82,-406.56 158.82,-387.24 247.14,-387.24 247.14,-406.56"/>
<text text-anchor="middle" x="202.98" y="-391.1" font-family="Sans-Serif" font-size="14.00">StorageTypes</text>
</a>
</g>
</g>
<!-- StorageTypes&#45;&gt;Registry -->
<g id="edge23" class="edge">
<title>StorageTypes&#45;&gt;Registry</title>
<path fill="none" stroke="black" d="M202.98,-387.1C202.98,-380.5 202.98,-371.2 202.98,-362.81"/>
<polygon fill="black" stroke="black" points="206.48,-363.09 202.98,-353.09 199.48,-363.09 206.48,-363.09"/>
</g>
<!-- StorageTypes&#45;&gt;Formats -->
<g id="edge17" class="edge">
<title>StorageTypes&#45;&gt;Formats</title>
<path fill="none" stroke="black" d="M221.64,-386.85C238.71,-378.58 264.22,-366.21 283.95,-356.65"/>
<polygon fill="black" stroke="black" points="285.39,-359.84 292.87,-352.33 282.34,-353.54 285.39,-359.84"/>
</g>
<!-- Keys -->
<g id="node21" class="node">
<title>Keys</title>
<g id="a_node21"><a xlink:href="../keys.html" xlink:title="Keys" target="_top">
<polygon fill="none" stroke="white" points="365.14,-406.56 330.82,-406.56 330.82,-387.24 365.14,-387.24 365.14,-406.56"/>
<text text-anchor="middle" x="347.98" y="-391.1" font-family="Sans-Serif" font-size="14.00">Keys</text>
</a>
</g>
</g>
<!-- Keys&#45;&gt;Formats -->
<g id="edge19" class="edge">
<title>Keys&#45;&gt;Formats</title>
<path fill="none" stroke="black" d="M342.2,-387.1C337.57,-380.04 330.9,-369.89 325.11,-361.06"/>
<polygon fill="black" stroke="black" points="328.13,-359.28 319.71,-352.84 322.28,-363.12 328.13,-359.28"/>
</g>
</g>
</svg>
