<?xml version="1.0" encoding="UTF-8" standalone="no"?>
<!DOCTYPE svg PUBLIC "-//W3C//DTD SVG 1.1//EN"
 "http://www.w3.org/Graphics/SVG/1.1/DTD/svg11.dtd">
<!-- Generated by graphviz version 12.2.1 (20241206.2353)
 -->
<!-- Pages: 1 -->
<svg width="650pt" height="415pt"
 viewBox="0.00 0.00 650.17 414.56" xmlns="http://www.w3.org/2000/svg" xmlns:xlink="http://www.w3.org/1999/xlink">
<g id="graph0" class="graph" transform="scale(1 1) rotate(0) translate(4 410.56)">
<polygon fill="white" stroke="none" points="-4,4 -4,-410.56 646.17,-410.56 646.17,4 -4,4"/>
<!-- Copies -->
<g id="node1" class="node">
<title>Copies</title>
<g id="a_node1"><a xlink:href="../copies.html" xlink:title="Copies" target="_top">
<polygon fill="none" stroke="white" points="181.92,-185.28 135.6,-185.28 135.6,-165.96 181.92,-165.96 181.92,-185.28"/>
<text text-anchor="middle" x="158.76" y="-169.82" font-family="Sans-Serif" font-size="14.00">Copies</text>
</a>
</g>
</g>
<!-- Adapters -->
<g id="node3" class="node">
<title>Adapters</title>
<g id="a_node3"><a xlink:href="../adapters.html" xlink:title="Adapters" target="_top">
<polygon fill="none" stroke="white" points="365.92,-19.32 307.6,-19.32 307.6,0 365.92,0 365.92,-19.32"/>
<text text-anchor="middle" x="336.76" y="-3.86" font-family="Sans-Serif" font-size="14.00">Adapters</text>
</a>
</g>
</g>
<!-- Copies&#45;&gt;Adapters -->
<g id="edge2" class="edge">
<title>Copies&#45;&gt;Adapters</title>
<path fill="none" stroke="black" d="M135.26,-168.24C92.41,-156.55 5.79,-132.65 3.76,-129.96 -1.4,-123.1 -0.96,-117.81 3.76,-110.64 36.34,-61.22 214.41,-28.85 295.96,-16.4"/>
<polygon fill="black" stroke="black" points="296.39,-19.88 305.76,-14.94 295.35,-12.95 296.39,-19.88"/>
</g>
<!-- Concat -->
<g id="node25" class="node">
<title>Concat</title>
<g id="a_node25"><a xlink:href="../concat.html" xlink:title="Concat" target="_top">
<polygon fill="none" stroke="white" points="60.3,-129.96 13.23,-129.96 13.23,-110.64 60.3,-110.64 60.3,-129.96"/>
<text text-anchor="middle" x="36.76" y="-114.5" font-family="Sans-Serif" font-size="14.00">Concat</text>
</a>
</g>
</g>
<!-- Copies&#45;&gt;Concat -->
<g id="edge35" class="edge">
<title>Copies&#45;&gt;Concat</title>
<path fill="none" stroke="black" d="M138.07,-165.57C118.88,-157.19 90.05,-144.59 68.05,-134.97"/>
<polygon fill="black" stroke="black" points="69.51,-131.79 58.95,-131 66.71,-138.21 69.51,-131.79"/>
</g>
<!-- Writers -->
<g id="node2" class="node">
<title>Writers</title>
<g id="a_node2"><a xlink:href="../writers.html" xlink:title="Writers" target="_top">
<polygon fill="none" stroke="white" points="416.3,-240.6 369.23,-240.6 369.23,-221.28 416.3,-221.28 416.3,-240.6"/>
<text text-anchor="middle" x="392.76" y="-225.14" font-family="Sans-Serif" font-size="14.00">Writers</text>
</a>
</g>
</g>
<!-- Writers&#45;&gt;Copies -->
<g id="edge1" class="edge">
<title>Writers&#45;&gt;Copies</title>
<path fill="none" stroke="black" d="M369.04,-223.36C366.25,-222.64 363.45,-221.93 360.76,-221.28 289.05,-204 267.74,-203.39 193.05,-185.72"/>
<polygon fill="black" stroke="black" points="194.16,-182.39 183.62,-183.46 192.53,-189.19 194.16,-182.39"/>
</g>
<!-- Chains -->
<g id="node5" class="node">
<title>Chains</title>
<g id="a_node5"><a xlink:href="../chains.html" xlink:title="Chains" target="_top">
<polygon fill="none" stroke="white" points="635.92,-185.28 589.6,-185.28 589.6,-165.96 635.92,-165.96 635.92,-185.28"/>
<text text-anchor="middle" x="612.76" y="-169.82" font-family="Sans-Serif" font-size="14.00">Chains</text>
</a>
</g>
</g>
<!-- Writers&#45;&gt;Chains -->
<g id="edge29" class="edge">
<title>Writers&#45;&gt;Chains</title>
<path fill="none" stroke="black" d="M416.5,-223.41C419.28,-222.68 422.08,-221.95 424.76,-221.28 490.41,-204.83 509.87,-202.75 578.41,-185.79"/>
<polygon fill="black" stroke="black" points="579.05,-189.24 587.9,-183.43 577.35,-182.45 579.05,-189.24"/>
</g>
<!-- MemoryFormat -->
<g id="node6" class="node">
<title>MemoryFormat</title>
<g id="a_node6"><a xlink:href="../memory_format.html" xlink:title="MemoryFormat" target="_top">
<polygon fill="none" stroke="white" points="383.8,-185.28 285.73,-185.28 285.73,-165.96 383.8,-165.96 383.8,-185.28"/>
<text text-anchor="middle" x="334.76" y="-169.82" font-family="Sans-Serif" font-size="14.00">MemoryFormat</text>
</a>
</g>
</g>
<!-- Writers&#45;&gt;MemoryFormat -->
<g id="edge22" class="edge">
<title>Writers&#45;&gt;MemoryFormat</title>
<path fill="none" stroke="black" d="M382.92,-220.89C374.71,-213.34 362.78,-202.38 352.85,-193.25"/>
<polygon fill="black" stroke="black" points="355.3,-190.75 345.57,-186.56 350.56,-195.9 355.3,-190.75"/>
</g>
<!-- FilesFormat -->
<g id="node16" class="node">
<title>FilesFormat</title>
<g id="a_node16"><a xlink:href="../files_format.html" xlink:title="FilesFormat" target="_top">
<polygon fill="none" stroke="white" points="477.92,-185.28 401.6,-185.28 401.6,-165.96 477.92,-165.96 477.92,-185.28"/>
<text text-anchor="middle" x="439.76" y="-169.82" font-family="Sans-Serif" font-size="14.00">FilesFormat</text>
</a>
</g>
</g>
<!-- Writers&#45;&gt;FilesFormat -->
<g id="edge32" class="edge">
<title>Writers&#45;&gt;FilesFormat</title>
<path fill="none" stroke="black" d="M400.52,-221.14C406.95,-213.85 416.28,-203.26 424.23,-194.24"/>
<polygon fill="black" stroke="black" points="426.85,-196.57 430.83,-186.75 421.59,-191.94 426.85,-196.57"/>
</g>
<!-- H5dfFormat -->
<g id="node17" class="node">
<title>H5dfFormat</title>
<g id="a_node17"><a xlink:href="../h5df_format.html" xlink:title="H5dfFormat" target="_top">
<polygon fill="none" stroke="white" points="571.92,-185.28 495.6,-185.28 495.6,-165.96 571.92,-165.96 571.92,-185.28"/>
<text text-anchor="middle" x="533.76" y="-169.82" font-family="Sans-Serif" font-size="14.00">H5dfFormat</text>
</a>
</g>
</g>
<!-- Writers&#45;&gt;H5dfFormat -->
<g id="edge25" class="edge">
<title>Writers&#45;&gt;H5dfFormat</title>
<path fill="none" stroke="black" d="M416.68,-220.89C439.27,-212.35 473.4,-199.45 498.99,-189.77"/>
<polygon fill="black" stroke="black" points="500.2,-193.06 508.31,-186.24 497.72,-186.51 500.2,-193.06"/>
</g>
<!-- Reconstruction -->
<g id="node26" class="node">
<title>Reconstruction</title>
<g id="a_node26"><a xlink:href="../reconstruction.html" xlink:title="Reconstruction" target="_top">
<polygon fill="none" stroke="white" points="117.92,-185.28 23.6,-185.28 23.6,-165.96 117.92,-165.96 117.92,-185.28"/>
<text text-anchor="middle" x="70.76" y="-169.82" font-family="Sans-Serif" font-size="14.00">Reconstruction</text>
</a>
</g>
</g>
<!-- Writers&#45;&gt;Reconstruction -->
<g id="edge38" class="edge">
<title>Writers&#45;&gt;Reconstruction</title>
<path fill="none" stroke="black" d="M369.07,-223.21C366.28,-222.51 363.47,-221.85 360.76,-221.28 261.34,-200.25 232.7,-201.22 129.65,-185.7"/>
<polygon fill="black" stroke="black" points="130.33,-182.27 119.92,-184.22 129.28,-189.19 130.33,-182.27"/>
</g>
<!-- Computations -->
<g id="node4" class="node">
<title>Computations</title>
<g id="a_node4"><a xlink:href="../computations.html" xlink:title="Computations" target="_top">
<polygon fill="none" stroke="white" points="229.92,-74.64 141.6,-74.64 141.6,-55.32 229.92,-55.32 229.92,-74.64"/>
<text text-anchor="middle" x="185.76" y="-59.18" font-family="Sans-Serif" font-size="14.00">Computations</text>
</a>
</g>
</g>
<!-- Computations&#45;&gt;Adapters -->
<g id="edge3" class="edge">
<title>Computations&#45;&gt;Adapters</title>
<path fill="none" stroke="black" d="M211.38,-54.93C235.78,-46.32 272.77,-33.26 300.26,-23.55"/>
<polygon fill="black" stroke="black" points="301.33,-26.88 309.6,-20.25 299,-20.28 301.33,-26.88"/>
</g>
<!-- Chains&#45;&gt;Adapters -->
<g id="edge4" class="edge">
<title>Chains&#45;&gt;Adapters</title>
<path fill="none" stroke="black" d="M621.39,-165.65C632.86,-152.61 650.32,-128.05 637.76,-110.64 577.58,-27.23 444.98,-12.31 377.68,-10.34"/>
<polygon fill="black" stroke="black" points="377.87,-6.85 367.8,-10.15 377.73,-13.84 377.87,-6.85"/>
</g>
<!-- CompleteDaf -->
<g id="node15" class="node">
<title>CompleteDaf</title>
<g id="a_node15"><a xlink:href="../complete.html" xlink:title="CompleteDaf" target="_top">
<polygon fill="none" stroke="white" points="628.67,-129.96 544.85,-129.96 544.85,-110.64 628.67,-110.64 628.67,-129.96"/>
<text text-anchor="middle" x="586.76" y="-114.5" font-family="Sans-Serif" font-size="14.00">CompleteDaf</text>
</a>
</g>
</g>
<!-- Chains&#45;&gt;CompleteDaf -->
<g id="edge15" class="edge">
<title>Chains&#45;&gt;CompleteDaf</title>
<path fill="none" stroke="black" d="M608.47,-165.82C605.1,-158.91 600.29,-149.05 596.06,-140.36"/>
<polygon fill="black" stroke="black" points="599.34,-139.11 591.81,-131.66 593.05,-142.18 599.34,-139.11"/>
</g>
<!-- MemoryFormat&#45;&gt;Adapters -->
<g id="edge5" class="edge">
<title>MemoryFormat&#45;&gt;Adapters</title>
<path fill="none" stroke="black" d="M354.9,-165.5C368.62,-158.08 385.7,-146.18 393.76,-129.96 411.8,-93.69 377.89,-50.74 355.08,-27.55"/>
<polygon fill="black" stroke="black" points="357.69,-25.22 348.09,-20.74 352.81,-30.23 357.69,-25.22"/>
</g>
<!-- OldExampleData -->
<g id="node14" class="node">
<title>OldExampleData</title>
<g id="a_node14"><a xlink:href="../old_example_data.html" xlink:title="OldExampleData" target="_top">
<polygon fill="none" stroke="white" points="266.67,-129.96 158.85,-129.96 158.85,-110.64 266.67,-110.64 266.67,-129.96"/>
<text text-anchor="middle" x="212.76" y="-114.5" font-family="Sans-Serif" font-size="14.00">OldExampleData</text>
</a>
</g>
</g>
<!-- MemoryFormat&#45;&gt;OldExampleData -->
<g id="edge12" class="edge">
<title>MemoryFormat&#45;&gt;OldExampleData</title>
<path fill="none" stroke="black" d="M314.07,-165.57C294.88,-157.19 266.05,-144.59 244.05,-134.97"/>
<polygon fill="black" stroke="black" points="245.51,-131.79 234.95,-131 242.71,-138.21 245.51,-131.79"/>
</g>
<!-- ExampleData -->
<g id="node22" class="node">
<title>ExampleData</title>
<g id="a_node22"><a xlink:href="../example_data.html" xlink:title="ExampleData" target="_top">
<polygon fill="none" stroke="white" points="526.8,-129.96 440.73,-129.96 440.73,-110.64 526.8,-110.64 526.8,-129.96"/>
<text text-anchor="middle" x="483.76" y="-114.5" font-family="Sans-Serif" font-size="14.00">ExampleData</text>
</a>
</g>
</g>
<!-- MemoryFormat&#45;&gt;ExampleData -->
<g id="edge21" class="edge">
<title>MemoryFormat&#45;&gt;ExampleData</title>
<path fill="none" stroke="black" d="M360.04,-165.57C384.12,-156.96 420.62,-143.9 447.74,-134.19"/>
<polygon fill="black" stroke="black" points="448.7,-137.56 456.94,-130.9 446.34,-130.97 448.7,-137.56"/>
</g>
<!-- AnnDataFormat -->
<g id="node24" class="node">
<title>AnnDataFormat</title>
<g id="a_node24"><a xlink:href="../anndata_format.html" xlink:title="AnnDataFormat" target="_top">
<polygon fill="none" stroke="white" points="384.92,-129.96 284.6,-129.96 284.6,-110.64 384.92,-110.64 384.92,-129.96"/>
<text text-anchor="middle" x="334.76" y="-114.5" font-family="Sans-Serif" font-size="14.00">AnnDataFormat</text>
</a>
</g>
</g>
<!-- MemoryFormat&#45;&gt;AnnDataFormat -->
<g id="edge30" class="edge">
<title>MemoryFormat&#45;&gt;AnnDataFormat</title>
<path fill="none" stroke="black" d="M334.76,-165.82C334.76,-159.22 334.76,-149.92 334.76,-141.53"/>
<polygon fill="black" stroke="black" points="338.26,-141.81 334.76,-131.81 331.26,-141.81 338.26,-141.81"/>
</g>
<!-- Views -->
<g id="node7" class="node">
<title>Views</title>
<g id="a_node7"><a xlink:href="../views.html" xlink:title="Views" target="_top">
<polygon fill="none" stroke="white" points="239.92,-185.28 199.6,-185.28 199.6,-165.96 239.92,-165.96 239.92,-185.28"/>
<text text-anchor="middle" x="219.76" y="-169.82" font-family="Sans-Serif" font-size="14.00">Views</text>
</a>
</g>
</g>
<!-- Contracts -->
<g id="node18" class="node">
<title>Contracts</title>
<g id="a_node18"><a xlink:href="../contracts.html" xlink:title="Contracts" target="_top">
<polygon fill="none" stroke="white" points="140.8,-129.96 78.73,-129.96 78.73,-110.64 140.8,-110.64 140.8,-129.96"/>
<text text-anchor="middle" x="109.76" y="-114.5" font-family="Sans-Serif" font-size="14.00">Contracts</text>
</a>
</g>
</g>
<!-- Views&#45;&gt;Contracts -->
<g id="edge16" class="edge">
<title>Views&#45;&gt;Contracts</title>
<path fill="none" stroke="black" d="M201.1,-165.57C184.04,-157.3 158.52,-144.93 138.79,-135.37"/>
<polygon fill="black" stroke="black" points="140.4,-132.26 129.88,-131.05 137.35,-138.56 140.4,-132.26"/>
</g>
<!-- Views&#45;&gt;Concat -->
<g id="edge34" class="edge">
<title>Views&#45;&gt;Concat</title>
<path fill="none" stroke="black" d="M199.17,-168.45C196.35,-167.61 193.49,-166.76 190.76,-165.96 149.85,-153.92 102.76,-140.3 71.53,-131.3"/>
<polygon fill="black" stroke="black" points="72.82,-128.03 62.24,-128.62 70.88,-134.75 72.82,-128.03"/>
</g>
<!-- Queries -->
<g id="node8" class="node">
<title>Queries</title>
<g id="a_node8"><a xlink:href="../queries.html" xlink:title="Queries" target="_top">
<polygon fill="none" stroke="white" points="245.92,-240.6 193.6,-240.6 193.6,-221.28 245.92,-221.28 245.92,-240.6"/>
<text text-anchor="middle" x="219.76" y="-225.14" font-family="Sans-Serif" font-size="14.00">Queries</text>
</a>
</g>
</g>
<!-- Queries&#45;&gt;Views -->
<g id="edge6" class="edge">
<title>Queries&#45;&gt;Views</title>
<path fill="none" stroke="black" d="M219.76,-221.14C219.76,-214.54 219.76,-205.24 219.76,-196.85"/>
<polygon fill="black" stroke="black" points="223.26,-197.13 219.76,-187.13 216.26,-197.13 223.26,-197.13"/>
</g>
<!-- Queries&#45;&gt;Reconstruction -->
<g id="edge37" class="edge">
<title>Queries&#45;&gt;Reconstruction</title>
<path fill="none" stroke="black" d="M194.49,-220.89C170.41,-212.28 133.9,-199.22 106.78,-189.51"/>
<polygon fill="black" stroke="black" points="108.18,-186.29 97.59,-186.22 105.82,-192.88 108.18,-186.29"/>
</g>
<!-- ReadOnly -->
<g id="node9" class="node">
<title>ReadOnly</title>
<g id="a_node9"><a xlink:href="../read_only.html" xlink:title="ReadOnly" target="_top">
<polygon fill="none" stroke="white" points="499.3,-240.6 434.23,-240.6 434.23,-221.28 499.3,-221.28 499.3,-240.6"/>
<text text-anchor="middle" x="466.76" y="-225.14" font-family="Sans-Serif" font-size="14.00">ReadOnly</text>
</a>
</g>
</g>
<!-- ReadOnly&#45;&gt;Chains -->
<g id="edge28" class="edge">
<title>ReadOnly&#45;&gt;Chains</title>
<path fill="none" stroke="black" d="M491.53,-220.89C515.45,-212.16 551.87,-198.86 578.55,-189.11"/>
<polygon fill="black" stroke="black" points="579.71,-192.42 587.9,-185.7 577.31,-185.84 579.71,-192.42"/>
</g>
<!-- ReadOnly&#45;&gt;Views -->
<g id="edge7" class="edge">
<title>ReadOnly&#45;&gt;Views</title>
<path fill="none" stroke="black" d="M433.96,-222.86C386.3,-212.57 298.46,-193.61 251.44,-183.46"/>
<polygon fill="black" stroke="black" points="252.41,-180.09 241.89,-181.4 250.93,-186.93 252.41,-180.09"/>
</g>
<!-- ReadOnly&#45;&gt;FilesFormat -->
<g id="edge31" class="edge">
<title>ReadOnly&#45;&gt;FilesFormat</title>
<path fill="none" stroke="black" d="M462.3,-221.14C458.81,-214.23 453.81,-204.37 449.42,-195.68"/>
<polygon fill="black" stroke="black" points="452.64,-194.31 445,-186.97 446.4,-197.47 452.64,-194.31"/>
</g>
<!-- ReadOnly&#45;&gt;H5dfFormat -->
<g id="edge24" class="edge">
<title>ReadOnly&#45;&gt;H5dfFormat</title>
<path fill="none" stroke="black" d="M478.13,-220.89C487.81,-213.19 501.96,-201.93 513.57,-192.69"/>
<polygon fill="black" stroke="black" points="515.74,-195.44 521.38,-186.47 511.38,-189.96 515.74,-195.44"/>
</g>
<!-- Operations -->
<g id="node10" class="node">
<title>Operations</title>
<g id="a_node10"><a xlink:href="../operations.html" xlink:title="Operations" target="_top">
<polygon fill="none" stroke="white" points="268.3,-295.92 197.23,-295.92 197.23,-276.6 268.3,-276.6 268.3,-295.92"/>
<text text-anchor="middle" x="232.76" y="-280.46" font-family="Sans-Serif" font-size="14.00">Operations</text>
</a>
</g>
</g>
<!-- Operations&#45;&gt;Queries -->
<g id="edge11" class="edge">
<title>Operations&#45;&gt;Queries</title>
<path fill="none" stroke="black" d="M230.62,-276.46C228.99,-269.78 226.69,-260.34 224.62,-251.87"/>
<polygon fill="black" stroke="black" points="228.08,-251.29 222.31,-242.41 221.28,-252.95 228.08,-251.29"/>
</g>
<!-- Operations&#45;&gt;FilesFormat -->
<g id="edge33" class="edge">
<title>Operations&#45;&gt;FilesFormat</title>
<path fill="none" stroke="black" d="M238.68,-276.43C248.38,-262.65 268.97,-236.07 292.76,-221.28 309.34,-210.97 355.01,-197.86 391.09,-188.51"/>
<polygon fill="black" stroke="black" points="391.65,-191.98 400.47,-186.11 389.91,-185.2 391.65,-191.98"/>
</g>
<!-- Registry -->
<g id="node11" class="node">
<title>Registry</title>
<g id="a_node11"><a xlink:href="../registry.html" xlink:title="Registry" target="_top">
<polygon fill="none" stroke="white" points="251.67,-351.24 197.85,-351.24 197.85,-331.92 251.67,-331.92 251.67,-351.24"/>
<text text-anchor="middle" x="224.76" y="-335.78" font-family="Sans-Serif" font-size="14.00">Registry</text>
</a>
</g>
</g>
<!-- Registry&#45;&gt;Operations -->
<g id="edge8" class="edge">
<title>Registry&#45;&gt;Operations</title>
<path fill="none" stroke="black" d="M226.08,-331.78C227.07,-325.18 228.47,-315.88 229.73,-307.49"/>
<polygon fill="black" stroke="black" points="233.17,-308.16 231.19,-297.75 226.24,-307.12 233.17,-308.16"/>
</g>
<!-- Tokens -->
<g id="node12" class="node">
<title>Tokens</title>
<g id="a_node12"><a xlink:href="../tokens.html" xlink:title="Tokens" target="_top">
<polygon fill="none" stroke="white" points="334.3,-406.56 287.23,-406.56 287.23,-387.24 334.3,-387.24 334.3,-406.56"/>
<text text-anchor="middle" x="310.76" y="-391.1" font-family="Sans-Serif" font-size="14.00">Tokens</text>
</a>
</g>
</g>
<!-- Tokens&#45;&gt;Operations -->
<g id="edge9" class="edge">
<title>Tokens&#45;&gt;Operations</title>
<path fill="none" stroke="black" d="M304.38,-387.01C291.64,-369.26 262.83,-329.13 245.88,-305.54"/>
<polygon fill="black" stroke="black" points="248.79,-303.58 240.12,-297.5 243.11,-307.67 248.79,-303.58"/>
</g>
<!-- Formats -->
<g id="node19" class="node">
<title>Formats</title>
<g id="a_node19"><a xlink:href="../formats.html" xlink:title="Formats" target="_top">
<polygon fill="none" stroke="white" points="362.05,-351.24 307.48,-351.24 307.48,-331.92 362.05,-331.92 362.05,-351.24"/>
<text text-anchor="middle" x="334.76" y="-335.78" font-family="Sans-Serif" font-size="14.00">Formats</text>
</a>
</g>
</g>
<!-- Tokens&#45;&gt;Formats -->
<g id="edge18" class="edge">
<title>Tokens&#45;&gt;Formats</title>
<path fill="none" stroke="black" d="M314.73,-387.1C317.8,-380.27 322.17,-370.55 326.05,-361.93"/>
<polygon fill="black" stroke="black" points="329.18,-363.51 330.09,-352.96 322.8,-360.64 329.18,-363.51"/>
</g>
<!-- Readers -->
<g id="node13" class="node">
<title>Readers</title>
<g id="a_node13"><a xlink:href="../readers.html" xlink:title="Readers" target="_top">
<polygon fill="none" stroke="white" points="362.42,-295.92 307.1,-295.92 307.1,-276.6 362.42,-276.6 362.42,-295.92"/>
<text text-anchor="middle" x="334.76" y="-280.46" font-family="Sans-Serif" font-size="14.00">Readers</text>
</a>
</g>
</g>
<!-- Readers&#45;&gt;Writers -->
<g id="edge27" class="edge">
<title>Readers&#45;&gt;Writers</title>
<path fill="none" stroke="black" d="M344.6,-276.21C352.82,-268.66 364.75,-257.7 374.68,-248.57"/>
<polygon fill="black" stroke="black" points="376.96,-251.22 381.96,-241.88 372.22,-246.07 376.96,-251.22"/>
</g>
<!-- Readers&#45;&gt;Queries -->
<g id="edge10" class="edge">
<title>Readers&#45;&gt;Queries</title>
<path fill="none" stroke="black" d="M315.25,-276.21C297.25,-267.87 270.24,-255.34 249.54,-245.74"/>
<polygon fill="black" stroke="black" points="251.28,-242.7 240.74,-241.67 248.34,-249.05 251.28,-242.7"/>
</g>
<!-- Readers&#45;&gt;ReadOnly -->
<g id="edge39" class="edge">
<title>Readers&#45;&gt;ReadOnly</title>
<path fill="none" stroke="black" d="M357.16,-276.21C378.2,-267.71 409.97,-254.88 433.89,-245.22"/>
<polygon fill="black" stroke="black" points="434.9,-248.59 442.86,-241.6 432.27,-242.1 434.9,-248.59"/>
</g>
<!-- Groups -->
<g id="node23" class="node">
<title>Groups</title>
<g id="a_node23"><a xlink:href="../groups.html" xlink:title="Groups" target="_top">
<polygon fill="none" stroke="white" points="351.42,-240.6 302.1,-240.6 302.1,-221.28 351.42,-221.28 351.42,-240.6"/>
<text text-anchor="middle" x="326.76" y="-225.14" font-family="Sans-Serif" font-size="14.00">Groups</text>
</a>
</g>
</g>
<!-- Readers&#45;&gt;Groups -->
<g id="edge26" class="edge">
<title>Readers&#45;&gt;Groups</title>
<path fill="none" stroke="black" d="M333.44,-276.46C332.45,-269.86 331.06,-260.56 329.8,-252.17"/>
<polygon fill="black" stroke="black" points="333.28,-251.8 328.34,-242.43 326.36,-252.84 333.28,-251.8"/>
</g>
<!-- FilesFormat&#45;&gt;CompleteDaf -->
<g id="edge13" class="edge">
<title>FilesFormat&#45;&gt;CompleteDaf</title>
<path fill="none" stroke="black" d="M464.7,-165.57C488.46,-156.96 524.47,-143.9 551.23,-134.19"/>
<polygon fill="black" stroke="black" points="552.07,-137.61 560.28,-130.91 549.69,-131.03 552.07,-137.61"/>
</g>
<!-- FilesFormat&#45;&gt;ExampleData -->
<g id="edge20" class="edge">
<title>FilesFormat&#45;&gt;ExampleData</title>
<path fill="none" stroke="black" d="M447.03,-165.82C453.04,-158.53 461.78,-147.94 469.22,-138.92"/>
<polygon fill="black" stroke="black" points="471.71,-141.4 475.38,-131.46 466.31,-136.95 471.71,-141.4"/>
</g>
<!-- H5dfFormat&#45;&gt;CompleteDaf -->
<g id="edge14" class="edge">
<title>H5dfFormat&#45;&gt;CompleteDaf</title>
<path fill="none" stroke="black" d="M542.51,-165.82C549.91,-158.37 560.72,-147.5 569.81,-138.36"/>
<polygon fill="black" stroke="black" points="572.19,-140.93 576.75,-131.37 567.22,-135.99 572.19,-140.93"/>
</g>
<!-- Contracts&#45;&gt;Computations -->
<g id="edge36" class="edge">
<title>Contracts&#45;&gt;Computations</title>
<path fill="none" stroke="black" d="M122.66,-110.25C133.79,-102.44 150.14,-90.97 163.4,-81.67"/>
<polygon fill="black" stroke="black" points="165.39,-84.55 171.57,-75.94 161.37,-78.82 165.39,-84.55"/>
</g>
<!-- Formats&#45;&gt;Readers -->
<g id="edge40" class="edge">
<title>Formats&#45;&gt;Readers</title>
<path fill="none" stroke="black" d="M334.76,-331.78C334.76,-325.18 334.76,-315.88 334.76,-307.49"/>
<polygon fill="black" stroke="black" points="338.26,-307.77 334.76,-297.77 331.26,-307.77 338.26,-307.77"/>
</g>
<!-- Keys -->
<g id="node20" class="node">
<title>Keys</title>
<g id="a_node20"><a xlink:href="../keys.html" xlink:title="Keys" target="_top">
<polygon fill="none" stroke="white" points="386.92,-406.56 352.6,-406.56 352.6,-387.24 386.92,-387.24 386.92,-406.56"/>
<text text-anchor="middle" x="369.76" y="-391.1" font-family="Sans-Serif" font-size="14.00">Keys</text>
</a>
</g>
</g>
<!-- Keys&#45;&gt;Formats -->
<g id="edge17" class="edge">
<title>Keys&#45;&gt;Formats</title>
<path fill="none" stroke="black" d="M363.98,-387.1C359.35,-380.04 352.69,-369.89 346.9,-361.06"/>
<polygon fill="black" stroke="black" points="349.91,-359.28 341.5,-352.84 344.06,-363.12 349.91,-359.28"/>
</g>
<!-- StorageTypes -->
<g id="node21" class="node">
<title>StorageTypes</title>
<g id="a_node21"><a xlink:href="../storage_types.html" xlink:title="StorageTypes" target="_top">
<polygon fill="none" stroke="white" points="268.92,-406.56 180.6,-406.56 180.6,-387.24 268.92,-387.24 268.92,-406.56"/>
<text text-anchor="middle" x="224.76" y="-391.1" font-family="Sans-Serif" font-size="14.00">StorageTypes</text>
</a>
</g>
</g>
<!-- StorageTypes&#45;&gt;Registry -->
<g id="edge23" class="edge">
<title>StorageTypes&#45;&gt;Registry</title>
<path fill="none" stroke="black" d="M224.76,-387.1C224.76,-380.5 224.76,-371.2 224.76,-362.81"/>
<polygon fill="black" stroke="black" points="228.26,-363.09 224.76,-353.09 221.26,-363.09 228.26,-363.09"/>
</g>
<!-- StorageTypes&#45;&gt;Formats -->
<g id="edge19" class="edge">
<title>StorageTypes&#45;&gt;Formats</title>
<path fill="none" stroke="black" d="M243.42,-386.85C260.49,-378.58 286.01,-366.21 305.74,-356.65"/>
<polygon fill="black" stroke="black" points="307.18,-359.84 314.65,-352.33 304.12,-353.54 307.18,-359.84"/>
</g>
</g>
</svg>
