<?xml version="1.0" encoding="UTF-8" standalone="no"?>
<!DOCTYPE svg PUBLIC "-//W3C//DTD SVG 1.1//EN"
 "http://www.w3.org/Graphics/SVG/1.1/DTD/svg11.dtd">
<!-- Generated by graphviz version 13.0.1 (20250615.1724)
 -->
<!-- Pages: 1 -->
<svg width="592pt" height="415pt"
 viewBox="0.00 0.00 592.00 415.00" xmlns="http://www.w3.org/2000/svg" xmlns:xlink="http://www.w3.org/1999/xlink">
<g id="graph0" class="graph" transform="scale(1 1) rotate(0) translate(4 410.56)">
<polygon fill="white" stroke="none" points="-4,4 -4,-410.56 588.32,-410.56 588.32,4 -4,4"/>
<!-- Copies -->
<g id="node1" class="node">
<title>Copies</title>
<g id="a_node1"><a xlink:href="../copies.html" xlink:title="Copies" target="_top">
<polygon fill="none" stroke="white" points="414.32,-185.28 368,-185.28 368,-165.96 414.32,-165.96 414.32,-185.28"/>
<text xml:space="preserve" text-anchor="middle" x="391.16" y="-169.82" font-family="Sans-Serif" font-size="14.00">Copies</text>
</a>
</g>
</g>
<!-- Adapters -->
<g id="node3" class="node">
<title>Adapters</title>
<g id="a_node3"><a xlink:href="../adapters.html" xlink:title="Adapters" target="_top">
<polygon fill="none" stroke="white" points="427.32,-19.32 369,-19.32 369,0 427.32,0 427.32,-19.32"/>
<text xml:space="preserve" text-anchor="middle" x="398.16" y="-3.86" font-family="Sans-Serif" font-size="14.00">Adapters</text>
</a>
</g>
</g>
<!-- Copies&#45;&gt;Adapters -->
<g id="edge2" class="edge">
<title>Copies&#45;&gt;Adapters</title>
<path fill="none" stroke="black" d="M391.54,-165.8C392.62,-140.45 395.76,-66.85 397.3,-30.9"/>
<polygon fill="black" stroke="black" points="400.79,-31.17 397.72,-21.03 393.79,-30.87 400.79,-31.17"/>
</g>
<!-- Concat -->
<g id="node24" class="node">
<title>Concat</title>
<g id="a_node24"><a xlink:href="../concat.html" xlink:title="Concat" target="_top">
<polygon fill="none" stroke="white" points="492.7,-129.96 445.62,-129.96 445.62,-110.64 492.7,-110.64 492.7,-129.96"/>
<text xml:space="preserve" text-anchor="middle" x="469.16" y="-114.5" font-family="Sans-Serif" font-size="14.00">Concat</text>
</a>
</g>
</g>
<!-- Copies&#45;&gt;Concat -->
<g id="edge34" class="edge">
<title>Copies&#45;&gt;Concat</title>
<path fill="none" stroke="black" d="M404.39,-165.57C415.93,-157.69 432.93,-146.07 446.61,-136.72"/>
<polygon fill="black" stroke="black" points="448.33,-139.78 454.61,-131.24 444.38,-134 448.33,-139.78"/>
</g>
<!-- Writers -->
<g id="node2" class="node">
<title>Writers</title>
<g id="a_node2"><a xlink:href="../writers.html" xlink:title="Writers" target="_top">
<polygon fill="none" stroke="white" points="297.7,-240.6 250.63,-240.6 250.63,-221.28 297.7,-221.28 297.7,-240.6"/>
<text xml:space="preserve" text-anchor="middle" x="274.16" y="-225.14" font-family="Sans-Serif" font-size="14.00">Writers</text>
</a>
</g>
</g>
<!-- Writers&#45;&gt;Copies -->
<g id="edge1" class="edge">
<title>Writers&#45;&gt;Copies</title>
<path fill="none" stroke="black" d="M294.01,-220.89C312.33,-212.55 339.81,-200.02 360.87,-190.42"/>
<polygon fill="black" stroke="black" points="362.19,-193.67 369.84,-186.34 359.29,-187.3 362.19,-193.67"/>
</g>
<!-- Chains -->
<g id="node4" class="node">
<title>Chains</title>
<g id="a_node4"><a xlink:href="../chains.html" xlink:title="Chains" target="_top">
<polygon fill="none" stroke="white" points="46.32,-185.28 0,-185.28 0,-165.96 46.32,-165.96 46.32,-185.28"/>
<text xml:space="preserve" text-anchor="middle" x="23.16" y="-169.82" font-family="Sans-Serif" font-size="14.00">Chains</text>
</a>
</g>
</g>
<!-- Writers&#45;&gt;Chains -->
<g id="edge28" class="edge">
<title>Writers&#45;&gt;Chains</title>
<path fill="none" stroke="black" d="M250.18,-224.02C246.17,-223.08 242.05,-222.13 238.16,-221.28 160.66,-204.34 137.82,-204.11 57.68,-185.73"/>
<polygon fill="black" stroke="black" points="58.54,-182.34 48.01,-183.49 56.96,-189.16 58.54,-182.34"/>
</g>
<!-- MemoryFormat -->
<g id="node5" class="node">
<title>MemoryFormat</title>
<g id="a_node5"><a xlink:href="../memory_format.html" xlink:title="MemoryFormat" target="_top">
<polygon fill="none" stroke="white" points="350.2,-185.28 252.13,-185.28 252.13,-165.96 350.2,-165.96 350.2,-185.28"/>
<text xml:space="preserve" text-anchor="middle" x="301.16" y="-169.82" font-family="Sans-Serif" font-size="14.00">MemoryFormat</text>
</a>
</g>
</g>
<!-- Writers&#45;&gt;MemoryFormat -->
<g id="edge22" class="edge">
<title>Writers&#45;&gt;MemoryFormat</title>
<path fill="none" stroke="black" d="M278.62,-221.14C282.11,-214.23 287.11,-204.37 291.51,-195.68"/>
<polygon fill="black" stroke="black" points="294.53,-197.47 295.92,-186.97 288.28,-194.31 294.53,-197.47"/>
</g>
<!-- H5dfFormat -->
<g id="node15" class="node">
<title>H5dfFormat</title>
<g id="a_node15"><a xlink:href="../h5df_format.html" xlink:title="H5dfFormat" target="_top">
<polygon fill="none" stroke="white" points="140.32,-185.28 64,-185.28 64,-165.96 140.32,-165.96 140.32,-185.28"/>
<text xml:space="preserve" text-anchor="middle" x="102.16" y="-169.82" font-family="Sans-Serif" font-size="14.00">H5dfFormat</text>
</a>
</g>
</g>
<!-- Writers&#45;&gt;H5dfFormat -->
<g id="edge24" class="edge">
<title>Writers&#45;&gt;H5dfFormat</title>
<path fill="none" stroke="black" d="M250.24,-222.53C222.38,-213.89 175.89,-199.48 142.43,-189.1"/>
<polygon fill="black" stroke="black" points="143.66,-185.82 133.08,-186.2 141.59,-192.51 143.66,-185.82"/>
</g>
<!-- FilesFormat -->
<g id="node16" class="node">
<title>FilesFormat</title>
<g id="a_node16"><a xlink:href="../files_format.html" xlink:title="FilesFormat" target="_top">
<polygon fill="none" stroke="white" points="234.32,-185.28 158,-185.28 158,-165.96 234.32,-165.96 234.32,-185.28"/>
<text xml:space="preserve" text-anchor="middle" x="196.16" y="-169.82" font-family="Sans-Serif" font-size="14.00">FilesFormat</text>
</a>
</g>
</g>
<!-- Writers&#45;&gt;FilesFormat -->
<g id="edge31" class="edge">
<title>Writers&#45;&gt;FilesFormat</title>
<path fill="none" stroke="black" d="M260.93,-220.89C249.39,-213.01 232.39,-201.39 218.71,-192.04"/>
<polygon fill="black" stroke="black" points="220.94,-189.32 210.71,-186.56 216.99,-195.1 220.94,-189.32"/>
</g>
<!-- Reconstruction -->
<g id="node25" class="node">
<title>Reconstruction</title>
<g id="a_node25"><a xlink:href="../reconstruction.html" xlink:title="Reconstruction" target="_top">
<polygon fill="none" stroke="white" points="584.32,-185.28 490,-185.28 490,-165.96 584.32,-165.96 584.32,-185.28"/>
<text xml:space="preserve" text-anchor="middle" x="537.16" y="-169.82" font-family="Sans-Serif" font-size="14.00">Reconstruction</text>
</a>
</g>
</g>
<!-- Writers&#45;&gt;Reconstruction -->
<g id="edge37" class="edge">
<title>Writers&#45;&gt;Reconstruction</title>
<path fill="none" stroke="black" d="M297.88,-223.31C300.66,-222.6 303.47,-221.9 306.16,-221.28 364.43,-207.78 431.61,-195.11 478.45,-186.74"/>
<polygon fill="black" stroke="black" points="478.88,-190.22 488.12,-185.03 477.66,-183.33 478.88,-190.22"/>
</g>
<!-- Chains&#45;&gt;Adapters -->
<g id="edge3" class="edge">
<title>Chains&#45;&gt;Adapters</title>
<path fill="none" stroke="black" d="M22.29,-165.9C21.44,-152.27 21.93,-125.89 36.16,-110.64 80.13,-63.52 272.09,-29.55 357.23,-16.52"/>
<polygon fill="black" stroke="black" points="357.65,-20 367.01,-15.05 356.6,-13.08 357.65,-20"/>
</g>
<!-- CompleteDaf -->
<g id="node14" class="node">
<title>CompleteDaf</title>
<g id="a_node14"><a xlink:href="../complete.html" xlink:title="CompleteDaf" target="_top">
<polygon fill="none" stroke="white" points="129.07,-129.96 45.25,-129.96 45.25,-110.64 129.07,-110.64 129.07,-129.96"/>
<text xml:space="preserve" text-anchor="middle" x="87.16" y="-114.5" font-family="Sans-Serif" font-size="14.00">CompleteDaf</text>
</a>
</g>
</g>
<!-- Chains&#45;&gt;CompleteDaf -->
<g id="edge12" class="edge">
<title>Chains&#45;&gt;CompleteDaf</title>
<path fill="none" stroke="black" d="M34.02,-165.57C43.27,-157.87 56.78,-146.61 67.87,-137.37"/>
<polygon fill="black" stroke="black" points="69.86,-140.27 75.3,-131.18 65.38,-134.89 69.86,-140.27"/>
</g>
<!-- ExampleData -->
<g id="node21" class="node">
<title>ExampleData</title>
<g id="a_node21"><a xlink:href="../example_data.html" xlink:title="ExampleData" target="_top">
<polygon fill="none" stroke="white" points="233.2,-129.96 147.13,-129.96 147.13,-110.64 233.2,-110.64 233.2,-129.96"/>
<text xml:space="preserve" text-anchor="middle" x="190.16" y="-114.5" font-family="Sans-Serif" font-size="14.00">ExampleData</text>
</a>
</g>
</g>
<!-- Chains&#45;&gt;ExampleData -->
<g id="edge20" class="edge">
<title>Chains&#45;&gt;ExampleData</title>
<path fill="none" stroke="black" d="M46.73,-167.09C73.76,-158.47 118.48,-144.19 150.81,-133.86"/>
<polygon fill="black" stroke="black" points="151.77,-137.23 160.24,-130.85 149.64,-130.56 151.77,-137.23"/>
</g>
<!-- MemoryFormat&#45;&gt;Adapters -->
<g id="edge4" class="edge">
<title>MemoryFormat&#45;&gt;Adapters</title>
<path fill="none" stroke="black" d="M318.21,-165.61C331.42,-157.81 349.25,-145.38 360.16,-129.96 381.75,-99.43 391.48,-56.07 395.55,-30.9"/>
<polygon fill="black" stroke="black" points="399,-31.46 396.97,-21.06 392.07,-30.45 399,-31.46"/>
</g>
<!-- MemoryFormat&#45;&gt;ExampleData -->
<g id="edge19" class="edge">
<title>MemoryFormat&#45;&gt;ExampleData</title>
<path fill="none" stroke="black" d="M282.33,-165.57C265.11,-157.3 239.36,-144.93 219.45,-135.37"/>
<polygon fill="black" stroke="black" points="220.98,-132.22 210.45,-131.04 217.94,-138.53 220.98,-132.22"/>
</g>
<!-- AnnDataFormat -->
<g id="node23" class="node">
<title>AnnDataFormat</title>
<g id="a_node23"><a xlink:href="../anndata_format.html" xlink:title="AnnDataFormat" target="_top">
<polygon fill="none" stroke="white" points="351.32,-129.96 251,-129.96 251,-110.64 351.32,-110.64 351.32,-129.96"/>
<text xml:space="preserve" text-anchor="middle" x="301.16" y="-114.5" font-family="Sans-Serif" font-size="14.00">AnnDataFormat</text>
</a>
</g>
</g>
<!-- MemoryFormat&#45;&gt;AnnDataFormat -->
<g id="edge30" class="edge">
<title>MemoryFormat&#45;&gt;AnnDataFormat</title>
<path fill="none" stroke="black" d="M301.16,-165.82C301.16,-159.22 301.16,-149.92 301.16,-141.53"/>
<polygon fill="black" stroke="black" points="304.66,-141.81 301.16,-131.81 297.66,-141.81 304.66,-141.81"/>
</g>
<!-- Computations -->
<g id="node6" class="node">
<title>Computations</title>
<g id="a_node6"><a xlink:href="../computations.html" xlink:title="Computations" target="_top">
<polygon fill="none" stroke="white" points="559.32,-74.64 471,-74.64 471,-55.32 559.32,-55.32 559.32,-74.64"/>
<text xml:space="preserve" text-anchor="middle" x="515.16" y="-59.18" font-family="Sans-Serif" font-size="14.00">Computations</text>
</a>
</g>
</g>
<!-- Computations&#45;&gt;Adapters -->
<g id="edge5" class="edge">
<title>Computations&#45;&gt;Adapters</title>
<path fill="none" stroke="black" d="M495.31,-54.93C476.99,-46.59 449.51,-34.06 428.45,-24.46"/>
<polygon fill="black" stroke="black" points="430.03,-21.34 419.48,-20.38 427.13,-27.71 430.03,-21.34"/>
</g>
<!-- Views -->
<g id="node7" class="node">
<title>Views</title>
<g id="a_node7"><a xlink:href="../views.html" xlink:title="Views" target="_top">
<polygon fill="none" stroke="white" points="472.32,-185.28 432,-185.28 432,-165.96 472.32,-165.96 472.32,-185.28"/>
<text xml:space="preserve" text-anchor="middle" x="452.16" y="-169.82" font-family="Sans-Serif" font-size="14.00">Views</text>
</a>
</g>
</g>
<!-- Contracts -->
<g id="node17" class="node">
<title>Contracts</title>
<g id="a_node17"><a xlink:href="../contracts.html" xlink:title="Contracts" target="_top">
<polygon fill="none" stroke="white" points="573.2,-129.96 511.13,-129.96 511.13,-110.64 573.2,-110.64 573.2,-129.96"/>
<text xml:space="preserve" text-anchor="middle" x="542.16" y="-114.5" font-family="Sans-Serif" font-size="14.00">Contracts</text>
</a>
</g>
</g>
<!-- Views&#45;&gt;Contracts -->
<g id="edge15" class="edge">
<title>Views&#45;&gt;Contracts</title>
<path fill="none" stroke="black" d="M467.43,-165.57C481,-157.53 501.11,-145.62 517.06,-136.17"/>
<polygon fill="black" stroke="black" points="518.7,-139.27 525.52,-131.16 515.13,-133.25 518.7,-139.27"/>
</g>
<!-- Views&#45;&gt;Concat -->
<g id="edge35" class="edge">
<title>Views&#45;&gt;Concat</title>
<path fill="none" stroke="black" d="M454.97,-165.82C457.1,-159.14 460.1,-149.7 462.8,-141.23"/>
<polygon fill="black" stroke="black" points="466.13,-142.33 465.83,-131.74 459.46,-140.2 466.13,-142.33"/>
</g>
<!-- Queries -->
<g id="node8" class="node">
<title>Queries</title>
<g id="a_node8"><a xlink:href="../queries.html" xlink:title="Queries" target="_top">
<polygon fill="none" stroke="white" points="476.32,-240.6 424,-240.6 424,-221.28 476.32,-221.28 476.32,-240.6"/>
<text xml:space="preserve" text-anchor="middle" x="450.16" y="-225.14" font-family="Sans-Serif" font-size="14.00">Queries</text>
</a>
</g>
</g>
<!-- Queries&#45;&gt;Views -->
<g id="edge6" class="edge">
<title>Queries&#45;&gt;Views</title>
<path fill="none" stroke="black" d="M450.49,-221.14C450.74,-214.54 451.09,-205.24 451.4,-196.85"/>
<polygon fill="black" stroke="black" points="454.89,-197.25 451.77,-187.13 447.89,-196.99 454.89,-197.25"/>
</g>
<!-- Queries&#45;&gt;Reconstruction -->
<g id="edge38" class="edge">
<title>Queries&#45;&gt;Reconstruction</title>
<path fill="none" stroke="black" d="M464.92,-220.89C478.04,-212.85 497.48,-200.94 512.89,-191.49"/>
<polygon fill="black" stroke="black" points="514.34,-194.71 521.04,-186.5 510.68,-188.74 514.34,-194.71"/>
</g>
<!-- ReadOnly -->
<g id="node9" class="node">
<title>ReadOnly</title>
<g id="a_node9"><a xlink:href="../read_only.html" xlink:title="ReadOnly" target="_top">
<polygon fill="none" stroke="white" points="228.7,-240.6 163.63,-240.6 163.63,-221.28 228.7,-221.28 228.7,-240.6"/>
<text xml:space="preserve" text-anchor="middle" x="196.16" y="-225.14" font-family="Sans-Serif" font-size="14.00">ReadOnly</text>
</a>
</g>
</g>
<!-- ReadOnly&#45;&gt;Chains -->
<g id="edge29" class="edge">
<title>ReadOnly&#45;&gt;Chains</title>
<path fill="none" stroke="black" d="M166.81,-220.89C136.54,-211.57 89.38,-197.03 57.42,-187.18"/>
<polygon fill="black" stroke="black" points="58.84,-183.95 48.25,-184.35 56.77,-190.64 58.84,-183.95"/>
</g>
<!-- ReadOnly&#45;&gt;Views -->
<g id="edge7" class="edge">
<title>ReadOnly&#45;&gt;Views</title>
<path fill="none" stroke="black" d="M228.93,-223.58C282.17,-213.23 384.6,-193.28 420.76,-185.49"/>
<polygon fill="black" stroke="black" points="421.18,-188.98 430.16,-183.35 419.63,-182.16 421.18,-188.98"/>
</g>
<!-- ReadOnly&#45;&gt;H5dfFormat -->
<g id="edge25" class="edge">
<title>ReadOnly&#45;&gt;H5dfFormat</title>
<path fill="none" stroke="black" d="M180.21,-220.89C165.9,-212.78 144.63,-200.71 127.91,-191.22"/>
<polygon fill="black" stroke="black" points="129.93,-188.35 119.5,-186.46 126.47,-194.43 129.93,-188.35"/>
</g>
<!-- ReadOnly&#45;&gt;FilesFormat -->
<g id="edge33" class="edge">
<title>ReadOnly&#45;&gt;FilesFormat</title>
<path fill="none" stroke="black" d="M196.16,-221.14C196.16,-214.54 196.16,-205.24 196.16,-196.85"/>
<polygon fill="black" stroke="black" points="199.66,-197.13 196.16,-187.13 192.66,-197.13 199.66,-197.13"/>
</g>
<!-- Operations -->
<g id="node10" class="node">
<title>Operations</title>
<g id="a_node10"><a xlink:href="../operations.html" xlink:title="Operations" target="_top">
<polygon fill="none" stroke="white" points="443.7,-295.92 372.62,-295.92 372.62,-276.6 443.7,-276.6 443.7,-295.92"/>
<text xml:space="preserve" text-anchor="middle" x="408.16" y="-280.46" font-family="Sans-Serif" font-size="14.00">Operations</text>
</a>
</g>
</g>
<!-- Operations&#45;&gt;Queries -->
<g id="edge10" class="edge">
<title>Operations&#45;&gt;Queries</title>
<path fill="none" stroke="black" d="M415.1,-276.46C420.78,-269.24 429,-258.81 436.05,-249.85"/>
<polygon fill="black" stroke="black" points="438.7,-252.15 442.14,-242.12 433.2,-247.81 438.7,-252.15"/>
</g>
<!-- Operations&#45;&gt;FilesFormat -->
<g id="edge32" class="edge">
<title>Operations&#45;&gt;FilesFormat</title>
<path fill="none" stroke="black" d="M405.93,-276.31C401.98,-262.36 392.39,-235.54 374.16,-221.28 363.95,-213.29 294.72,-197.4 245.68,-186.89"/>
<polygon fill="black" stroke="black" points="246.62,-183.51 236.11,-184.85 245.16,-190.35 246.62,-183.51"/>
</g>
<!-- Registry -->
<g id="node11" class="node">
<title>Registry</title>
<g id="a_node11"><a xlink:href="../registry.html" xlink:title="Registry" target="_top">
<polygon fill="none" stroke="white" points="435.07,-351.24 381.25,-351.24 381.25,-331.92 435.07,-331.92 435.07,-351.24"/>
<text xml:space="preserve" text-anchor="middle" x="408.16" y="-335.78" font-family="Sans-Serif" font-size="14.00">Registry</text>
</a>
</g>
</g>
<!-- Registry&#45;&gt;Operations -->
<g id="edge8" class="edge">
<title>Registry&#45;&gt;Operations</title>
<path fill="none" stroke="black" d="M408.16,-331.78C408.16,-325.18 408.16,-315.88 408.16,-307.49"/>
<polygon fill="black" stroke="black" points="411.66,-307.77 408.16,-297.77 404.66,-307.77 411.66,-307.77"/>
</g>
<!-- Tokens -->
<g id="node12" class="node">
<title>Tokens</title>
<g id="a_node12"><a xlink:href="../tokens.html" xlink:title="Tokens" target="_top">
<polygon fill="none" stroke="white" points="293.7,-406.56 246.63,-406.56 246.63,-387.24 293.7,-387.24 293.7,-406.56"/>
<text xml:space="preserve" text-anchor="middle" x="270.16" y="-391.1" font-family="Sans-Serif" font-size="14.00">Tokens</text>
</a>
</g>
</g>
<!-- Tokens&#45;&gt;Operations -->
<g id="edge9" class="edge">
<title>Tokens&#45;&gt;Operations</title>
<path fill="none" stroke="black" d="M270.89,-386.81C272.46,-373.15 277.32,-347.31 292.16,-331.92 302.64,-321.05 336.32,-308.72 364.71,-299.78"/>
<polygon fill="black" stroke="black" points="365.69,-303.13 374.22,-296.85 363.63,-296.44 365.69,-303.13"/>
</g>
<!-- Formats -->
<g id="node18" class="node">
<title>Formats</title>
<g id="a_node18"><a xlink:href="../formats.html" xlink:title="Formats" target="_top">
<polygon fill="none" stroke="white" points="355.45,-351.24 300.88,-351.24 300.88,-331.92 355.45,-331.92 355.45,-351.24"/>
<text xml:space="preserve" text-anchor="middle" x="328.16" y="-335.78" font-family="Sans-Serif" font-size="14.00">Formats</text>
</a>
</g>
</g>
<!-- Tokens&#45;&gt;Formats -->
<g id="edge18" class="edge">
<title>Tokens&#45;&gt;Formats</title>
<path fill="none" stroke="black" d="M280,-386.85C288.21,-379.3 300.14,-368.34 310.07,-359.21"/>
<polygon fill="black" stroke="black" points="312.36,-361.86 317.35,-352.52 307.62,-356.71 312.36,-361.86"/>
</g>
<!-- Readers -->
<g id="node13" class="node">
<title>Readers</title>
<g id="a_node13"><a xlink:href="../readers.html" xlink:title="Readers" target="_top">
<polygon fill="none" stroke="white" points="354.82,-295.92 299.5,-295.92 299.5,-276.6 354.82,-276.6 354.82,-295.92"/>
<text xml:space="preserve" text-anchor="middle" x="327.16" y="-280.46" font-family="Sans-Serif" font-size="14.00">Readers</text>
</a>
</g>
</g>
<!-- Readers&#45;&gt;Writers -->
<g id="edge27" class="edge">
<title>Readers&#45;&gt;Writers</title>
<path fill="none" stroke="black" d="M318.41,-276.46C311.01,-269.01 300.2,-258.14 291.11,-249"/>
<polygon fill="black" stroke="black" points="293.7,-246.63 284.17,-242.01 288.74,-251.57 293.7,-246.63"/>
</g>
<!-- Readers&#45;&gt;Queries -->
<g id="edge11" class="edge">
<title>Readers&#45;&gt;Queries</title>
<path fill="none" stroke="black" d="M348.03,-276.21C367.46,-267.79 396.7,-255.11 418.92,-245.48"/>
<polygon fill="black" stroke="black" points="420.02,-248.82 427.8,-241.63 417.24,-242.4 420.02,-248.82"/>
</g>
<!-- Readers&#45;&gt;ReadOnly -->
<g id="edge39" class="edge">
<title>Readers&#45;&gt;ReadOnly</title>
<path fill="none" stroke="black" d="M304.94,-276.21C284.14,-267.75 252.81,-255 229.11,-245.35"/>
<polygon fill="black" stroke="black" points="230.47,-242.13 219.89,-241.6 227.84,-248.61 230.47,-242.13"/>
</g>
<!-- Groups -->
<g id="node22" class="node">
<title>Groups</title>
<g id="a_node22"><a xlink:href="../groups.html" xlink:title="Groups" target="_top">
<polygon fill="none" stroke="white" points="364.82,-240.6 315.5,-240.6 315.5,-221.28 364.82,-221.28 364.82,-240.6"/>
<text xml:space="preserve" text-anchor="middle" x="340.16" y="-225.14" font-family="Sans-Serif" font-size="14.00">Groups</text>
</a>
</g>
</g>
<!-- Readers&#45;&gt;Groups -->
<g id="edge26" class="edge">
<title>Readers&#45;&gt;Groups</title>
<path fill="none" stroke="black" d="M329.31,-276.46C330.93,-269.78 333.24,-260.34 335.3,-251.87"/>
<polygon fill="black" stroke="black" points="338.64,-252.95 337.61,-242.41 331.84,-251.29 338.64,-252.95"/>
</g>
<!-- H5dfFormat&#45;&gt;CompleteDaf -->
<g id="edge13" class="edge">
<title>H5dfFormat&#45;&gt;CompleteDaf</title>
<path fill="none" stroke="black" d="M99.68,-165.82C97.81,-159.14 95.15,-149.7 92.77,-141.23"/>
<polygon fill="black" stroke="black" points="96.18,-140.43 90.1,-131.75 89.44,-142.33 96.18,-140.43"/>
</g>
<!-- FilesFormat&#45;&gt;CompleteDaf -->
<g id="edge14" class="edge">
<title>FilesFormat&#45;&gt;CompleteDaf</title>
<path fill="none" stroke="black" d="M177.67,-165.57C160.76,-157.3 135.47,-144.93 115.92,-135.37"/>
<polygon fill="black" stroke="black" points="117.62,-132.3 107.1,-131.05 114.55,-138.59 117.62,-132.3"/>
</g>
<!-- FilesFormat&#45;&gt;ExampleData -->
<g id="edge21" class="edge">
<title>FilesFormat&#45;&gt;ExampleData</title>
<path fill="none" stroke="black" d="M195.17,-165.82C194.43,-159.22 193.38,-149.92 192.44,-141.53"/>
<polygon fill="black" stroke="black" points="195.94,-141.35 191.34,-131.8 188.98,-142.13 195.94,-141.35"/>
</g>
<!-- Contracts&#45;&gt;Computations -->
<g id="edge36" class="edge">
<title>Contracts&#45;&gt;Computations</title>
<path fill="none" stroke="black" d="M537.7,-110.5C534.21,-103.59 529.21,-93.73 524.81,-85.04"/>
<polygon fill="black" stroke="black" points="528.04,-83.67 520.4,-76.33 521.79,-86.83 528.04,-83.67"/>
</g>
<!-- Formats&#45;&gt;Readers -->
<g id="edge40" class="edge">
<title>Formats&#45;&gt;Readers</title>
<path fill="none" stroke="black" d="M327.99,-331.78C327.87,-325.18 327.7,-315.88 327.54,-307.49"/>
<polygon fill="black" stroke="black" points="331.04,-307.7 327.36,-297.77 324.05,-307.83 331.04,-307.7"/>
</g>
<!-- Keys -->
<g id="node19" class="node">
<title>Keys</title>
<g id="a_node19"><a xlink:href="../keys.html" xlink:title="Keys" target="_top">
<polygon fill="none" stroke="white" points="346.32,-406.56 312,-406.56 312,-387.24 346.32,-387.24 346.32,-406.56"/>
<text xml:space="preserve" text-anchor="middle" x="329.16" y="-391.1" font-family="Sans-Serif" font-size="14.00">Keys</text>
</a>
</g>
</g>
<!-- Keys&#45;&gt;Formats -->
<g id="edge16" class="edge">
<title>Keys&#45;&gt;Formats</title>
<path fill="none" stroke="black" d="M328.99,-387.1C328.87,-380.5 328.7,-371.2 328.54,-362.81"/>
<polygon fill="black" stroke="black" points="332.04,-363.02 328.36,-353.09 325.05,-363.15 332.04,-363.02"/>
</g>
<!-- StorageTypes -->
<g id="node20" class="node">
<title>StorageTypes</title>
<g id="a_node20"><a xlink:href="../storage_types.html" xlink:title="StorageTypes" target="_top">
<polygon fill="none" stroke="white" points="452.32,-406.56 364,-406.56 364,-387.24 452.32,-387.24 452.32,-406.56"/>
<text xml:space="preserve" text-anchor="middle" x="408.16" y="-391.1" font-family="Sans-Serif" font-size="14.00">StorageTypes</text>
</a>
</g>
</g>
<!-- StorageTypes&#45;&gt;Registry -->
<g id="edge23" class="edge">
<title>StorageTypes&#45;&gt;Registry</title>
<path fill="none" stroke="black" d="M408.16,-387.1C408.16,-380.5 408.16,-371.2 408.16,-362.81"/>
<polygon fill="black" stroke="black" points="411.66,-363.09 408.16,-353.09 404.66,-363.09 411.66,-363.09"/>
</g>
<!-- StorageTypes&#45;&gt;Formats -->
<g id="edge17" class="edge">
<title>StorageTypes&#45;&gt;Formats</title>
<path fill="none" stroke="black" d="M394.59,-386.85C382.75,-378.97 365.32,-367.35 351.29,-358"/>
<polygon fill="black" stroke="black" points="353.32,-355.14 343.06,-352.51 349.44,-360.97 353.32,-355.14"/>
</g>
</g>
</svg>
