<?xml version="1.0" encoding="UTF-8" standalone="no"?>
<!DOCTYPE svg PUBLIC "-//W3C//DTD SVG 1.1//EN"
 "http://www.w3.org/Graphics/SVG/1.1/DTD/svg11.dtd">
<!-- Generated by graphviz version 13.0.1 (20250615.1724)
 -->
<!-- Pages: 1 -->
<svg width="597pt" height="415pt"
 viewBox="0.00 0.00 597.00 415.00" xmlns="http://www.w3.org/2000/svg" xmlns:xlink="http://www.w3.org/1999/xlink">
<g id="graph0" class="graph" transform="scale(1 1) rotate(0) translate(4 410.56)">
<polygon fill="white" stroke="none" points="-4,4 -4,-410.56 593.07,-410.56 593.07,4 -4,4"/>
<!-- Copies -->
<g id="node1" class="node">
<title>Copies</title>
<g id="a_node1"><a xlink:href="../copies.html" xlink:title="Copies" target="_top">
<polygon fill="none" stroke="white" points="419.07,-185.28 372.75,-185.28 372.75,-165.96 419.07,-165.96 419.07,-185.28"/>
<text xml:space="preserve" text-anchor="middle" x="395.91" y="-169.82" font-family="Sans-Serif" font-size="14.00">Copies</text>
</a>
</g>
</g>
<!-- Adapters -->
<g id="node3" class="node">
<title>Adapters</title>
<g id="a_node3"><a xlink:href="../adapters.html" xlink:title="Adapters" target="_top">
<polygon fill="none" stroke="white" points="420.07,-19.32 361.75,-19.32 361.75,0 420.07,0 420.07,-19.32"/>
<text xml:space="preserve" text-anchor="middle" x="390.91" y="-3.86" font-family="Sans-Serif" font-size="14.00">Adapters</text>
</a>
</g>
</g>
<!-- Copies&#45;&gt;Adapters -->
<g id="edge5" class="edge">
<title>Copies&#45;&gt;Adapters</title>
<path fill="none" stroke="black" d="M395.64,-165.8C394.87,-140.45 392.62,-66.85 391.53,-30.9"/>
<polygon fill="black" stroke="black" points="395.03,-30.92 391.23,-21.03 388.03,-31.13 395.03,-30.92"/>
</g>
<!-- Concat -->
<g id="node24" class="node">
<title>Concat</title>
<g id="a_node24"><a xlink:href="../concat.html" xlink:title="Concat" target="_top">
<polygon fill="none" stroke="white" points="485.44,-129.96 438.37,-129.96 438.37,-110.64 485.44,-110.64 485.44,-129.96"/>
<text xml:space="preserve" text-anchor="middle" x="461.91" y="-114.5" font-family="Sans-Serif" font-size="14.00">Concat</text>
</a>
</g>
</g>
<!-- Copies&#45;&gt;Concat -->
<g id="edge35" class="edge">
<title>Copies&#45;&gt;Concat</title>
<path fill="none" stroke="black" d="M407.11,-165.57C416.65,-157.87 430.58,-146.61 442.02,-137.37"/>
<polygon fill="black" stroke="black" points="444.12,-140.17 449.7,-131.16 439.72,-134.72 444.12,-140.17"/>
</g>
<!-- Writers -->
<g id="node2" class="node">
<title>Writers</title>
<g id="a_node2"><a xlink:href="../writers.html" xlink:title="Writers" target="_top">
<polygon fill="none" stroke="white" points="313.44,-240.6 266.37,-240.6 266.37,-221.28 313.44,-221.28 313.44,-240.6"/>
<text xml:space="preserve" text-anchor="middle" x="289.91" y="-225.14" font-family="Sans-Serif" font-size="14.00">Writers</text>
</a>
</g>
</g>
<!-- Writers&#45;&gt;Copies -->
<g id="edge1" class="edge">
<title>Writers&#45;&gt;Copies</title>
<path fill="none" stroke="black" d="M307.89,-220.89C324.26,-212.66 348.7,-200.37 367.67,-190.82"/>
<polygon fill="black" stroke="black" points="369.13,-194.01 376.49,-186.39 365.98,-187.76 369.13,-194.01"/>
</g>
<!-- MemoryFormat -->
<g id="node5" class="node">
<title>MemoryFormat</title>
<g id="a_node5"><a xlink:href="../memory_format.html" xlink:title="MemoryFormat" target="_top">
<polygon fill="none" stroke="white" points="354.94,-185.28 256.88,-185.28 256.88,-165.96 354.94,-165.96 354.94,-185.28"/>
<text xml:space="preserve" text-anchor="middle" x="305.91" y="-169.82" font-family="Sans-Serif" font-size="14.00">MemoryFormat</text>
</a>
</g>
</g>
<!-- Writers&#45;&gt;MemoryFormat -->
<g id="edge22" class="edge">
<title>Writers&#45;&gt;MemoryFormat</title>
<path fill="none" stroke="black" d="M292.55,-221.14C294.55,-214.46 297.39,-205.02 299.93,-196.55"/>
<polygon fill="black" stroke="black" points="303.25,-197.65 302.78,-187.07 296.55,-195.64 303.25,-197.65"/>
</g>
<!-- Chains -->
<g id="node6" class="node">
<title>Chains</title>
<g id="a_node6"><a xlink:href="../chains.html" xlink:title="Chains" target="_top">
<polygon fill="none" stroke="white" points="239.07,-185.28 192.75,-185.28 192.75,-165.96 239.07,-165.96 239.07,-185.28"/>
<text xml:space="preserve" text-anchor="middle" x="215.91" y="-169.82" font-family="Sans-Serif" font-size="14.00">Chains</text>
</a>
</g>
</g>
<!-- Writers&#45;&gt;Chains -->
<g id="edge28" class="edge">
<title>Writers&#45;&gt;Chains</title>
<path fill="none" stroke="black" d="M277.36,-220.89C266.45,-213.03 250.41,-201.48 237.45,-192.14"/>
<polygon fill="black" stroke="black" points="239.67,-189.42 229.51,-186.42 235.57,-195.1 239.67,-189.42"/>
</g>
<!-- FilesFormat -->
<g id="node15" class="node">
<title>FilesFormat</title>
<g id="a_node15"><a xlink:href="../files_format.html" xlink:title="FilesFormat" target="_top">
<polygon fill="none" stroke="white" points="81.07,-185.28 4.75,-185.28 4.75,-165.96 81.07,-165.96 81.07,-185.28"/>
<text xml:space="preserve" text-anchor="middle" x="42.91" y="-169.82" font-family="Sans-Serif" font-size="14.00">FilesFormat</text>
</a>
</g>
</g>
<!-- Writers&#45;&gt;FilesFormat -->
<g id="edge31" class="edge">
<title>Writers&#45;&gt;FilesFormat</title>
<path fill="none" stroke="black" d="M266.18,-223.35C263.4,-222.63 260.6,-221.92 257.91,-221.28 201.58,-207.82 136.39,-194.61 92.69,-186.09"/>
<polygon fill="black" stroke="black" points="93.48,-182.68 83,-184.21 92.15,-189.55 93.48,-182.68"/>
</g>
<!-- H5dfFormat -->
<g id="node16" class="node">
<title>H5dfFormat</title>
<g id="a_node16"><a xlink:href="../h5df_format.html" xlink:title="H5dfFormat" target="_top">
<polygon fill="none" stroke="white" points="175.07,-185.28 98.75,-185.28 98.75,-165.96 175.07,-165.96 175.07,-185.28"/>
<text xml:space="preserve" text-anchor="middle" x="136.91" y="-169.82" font-family="Sans-Serif" font-size="14.00">H5dfFormat</text>
</a>
</g>
</g>
<!-- Writers&#45;&gt;H5dfFormat -->
<g id="edge24" class="edge">
<title>Writers&#45;&gt;H5dfFormat</title>
<path fill="none" stroke="black" d="M266,-221.61C241.3,-213 202.4,-199.44 173.76,-189.46"/>
<polygon fill="black" stroke="black" points="174.98,-186.18 164.38,-186.19 172.67,-192.79 174.98,-186.18"/>
</g>
<!-- Reconstruction -->
<g id="node25" class="node">
<title>Reconstruction</title>
<g id="a_node25"><a xlink:href="../reconstruction.html" xlink:title="Reconstruction" target="_top">
<polygon fill="none" stroke="white" points="589.07,-185.28 494.75,-185.28 494.75,-165.96 589.07,-165.96 589.07,-185.28"/>
<text xml:space="preserve" text-anchor="middle" x="541.91" y="-169.82" font-family="Sans-Serif" font-size="14.00">Reconstruction</text>
</a>
</g>
</g>
<!-- Writers&#45;&gt;Reconstruction -->
<g id="edge37" class="edge">
<title>Writers&#45;&gt;Reconstruction</title>
<path fill="none" stroke="black" d="M313.62,-224.92C353.2,-216.55 433.7,-199.52 487.74,-188.08"/>
<polygon fill="black" stroke="black" points="488.31,-191.54 497.37,-186.04 486.86,-184.69 488.31,-191.54"/>
</g>
<!-- Computations -->
<g id="node4" class="node">
<title>Computations</title>
<g id="a_node4"><a xlink:href="../computations.html" xlink:title="Computations" target="_top">
<polygon fill="none" stroke="white" points="552.07,-74.64 463.75,-74.64 463.75,-55.32 552.07,-55.32 552.07,-74.64"/>
<text xml:space="preserve" text-anchor="middle" x="507.91" y="-59.18" font-family="Sans-Serif" font-size="14.00">Computations</text>
</a>
</g>
</g>
<!-- Computations&#45;&gt;Adapters -->
<g id="edge2" class="edge">
<title>Computations&#45;&gt;Adapters</title>
<path fill="none" stroke="black" d="M488.06,-54.93C469.74,-46.59 442.26,-34.06 421.2,-24.46"/>
<polygon fill="black" stroke="black" points="422.78,-21.34 412.23,-20.38 419.88,-27.71 422.78,-21.34"/>
</g>
<!-- MemoryFormat&#45;&gt;Adapters -->
<g id="edge3" class="edge">
<title>MemoryFormat&#45;&gt;Adapters</title>
<path fill="none" stroke="black" d="M318.38,-165.68C328.96,-157.48 343.83,-144.46 352.91,-129.96 372.66,-98.43 382.99,-55.73 387.66,-30.89"/>
<polygon fill="black" stroke="black" points="391.09,-31.63 389.35,-21.18 384.19,-30.43 391.09,-31.63"/>
</g>
<!-- ExampleData -->
<g id="node21" class="node">
<title>ExampleData</title>
<g id="a_node21"><a xlink:href="../example_data.html" xlink:title="ExampleData" target="_top">
<polygon fill="none" stroke="white" points="187.94,-129.96 101.88,-129.96 101.88,-110.64 187.94,-110.64 187.94,-129.96"/>
<text xml:space="preserve" text-anchor="middle" x="144.91" y="-114.5" font-family="Sans-Serif" font-size="14.00">ExampleData</text>
</a>
</g>
</g>
<!-- MemoryFormat&#45;&gt;ExampleData -->
<g id="edge19" class="edge">
<title>MemoryFormat&#45;&gt;ExampleData</title>
<path fill="none" stroke="black" d="M278.6,-165.57C252.35,-156.88 212.43,-143.66 183.05,-133.93"/>
<polygon fill="black" stroke="black" points="184.39,-130.69 173.79,-130.87 182.18,-137.33 184.39,-130.69"/>
</g>
<!-- AnnDataFormat -->
<g id="node23" class="node">
<title>AnnDataFormat</title>
<g id="a_node23"><a xlink:href="../anndata_format.html" xlink:title="AnnDataFormat" target="_top">
<polygon fill="none" stroke="white" points="344.07,-129.96 243.75,-129.96 243.75,-110.64 344.07,-110.64 344.07,-129.96"/>
<text xml:space="preserve" text-anchor="middle" x="293.91" y="-114.5" font-family="Sans-Serif" font-size="14.00">AnnDataFormat</text>
</a>
</g>
</g>
<!-- MemoryFormat&#45;&gt;AnnDataFormat -->
<g id="edge30" class="edge">
<title>MemoryFormat&#45;&gt;AnnDataFormat</title>
<path fill="none" stroke="black" d="M303.93,-165.82C302.44,-159.22 300.35,-149.92 298.46,-141.53"/>
<polygon fill="black" stroke="black" points="301.88,-140.76 296.27,-131.77 295.05,-142.3 301.88,-140.76"/>
</g>
<!-- Chains&#45;&gt;Adapters -->
<g id="edge4" class="edge">
<title>Chains&#45;&gt;Adapters</title>
<path fill="none" stroke="black" d="M216.58,-165.9C217.98,-152.72 222.24,-127.49 234.91,-110.64 266.36,-68.82 320.83,-39.78 356.37,-24.16"/>
<polygon fill="black" stroke="black" points="357.52,-27.47 365.35,-20.34 354.78,-21.03 357.52,-27.47"/>
</g>
<!-- CompleteDaf -->
<g id="node14" class="node">
<title>CompleteDaf</title>
<g id="a_node14"><a xlink:href="../complete.html" xlink:title="CompleteDaf" target="_top">
<polygon fill="none" stroke="white" points="83.82,-129.96 0,-129.96 0,-110.64 83.82,-110.64 83.82,-129.96"/>
<text xml:space="preserve" text-anchor="middle" x="41.91" y="-114.5" font-family="Sans-Serif" font-size="14.00">CompleteDaf</text>
</a>
</g>
</g>
<!-- Chains&#45;&gt;CompleteDaf -->
<g id="edge13" class="edge">
<title>Chains&#45;&gt;CompleteDaf</title>
<path fill="none" stroke="black" d="M192.44,-167.43C164.24,-158.78 116.43,-144.14 82.26,-133.67"/>
<polygon fill="black" stroke="black" points="83.72,-130.45 73.14,-130.87 81.67,-137.15 83.72,-130.45"/>
</g>
<!-- Chains&#45;&gt;ExampleData -->
<g id="edge20" class="edge">
<title>Chains&#45;&gt;ExampleData</title>
<path fill="none" stroke="black" d="M203.87,-165.57C193.5,-157.79 178.31,-146.38 165.94,-137.09"/>
<polygon fill="black" stroke="black" points="168.08,-134.33 157.99,-131.12 163.88,-139.92 168.08,-134.33"/>
</g>
<!-- Views -->
<g id="node7" class="node">
<title>Views</title>
<g id="a_node7"><a xlink:href="../views.html" xlink:title="Views" target="_top">
<polygon fill="none" stroke="white" points="477.07,-185.28 436.75,-185.28 436.75,-165.96 477.07,-165.96 477.07,-185.28"/>
<text xml:space="preserve" text-anchor="middle" x="456.91" y="-169.82" font-family="Sans-Serif" font-size="14.00">Views</text>
</a>
</g>
</g>
<!-- Contracts -->
<g id="node17" class="node">
<title>Contracts</title>
<g id="a_node17"><a xlink:href="../contracts.html" xlink:title="Contracts" target="_top">
<polygon fill="none" stroke="white" points="565.94,-129.96 503.87,-129.96 503.87,-110.64 565.94,-110.64 565.94,-129.96"/>
<text xml:space="preserve" text-anchor="middle" x="534.91" y="-114.5" font-family="Sans-Serif" font-size="14.00">Contracts</text>
</a>
</g>
</g>
<!-- Views&#45;&gt;Contracts -->
<g id="edge15" class="edge">
<title>Views&#45;&gt;Contracts</title>
<path fill="none" stroke="black" d="M470.14,-165.57C481.68,-157.69 498.68,-146.07 512.36,-136.72"/>
<polygon fill="black" stroke="black" points="514.08,-139.78 520.36,-131.24 510.13,-134 514.08,-139.78"/>
</g>
<!-- Views&#45;&gt;Concat -->
<g id="edge34" class="edge">
<title>Views&#45;&gt;Concat</title>
<path fill="none" stroke="black" d="M457.74,-165.82C458.35,-159.22 459.23,-149.92 460.01,-141.53"/>
<polygon fill="black" stroke="black" points="463.48,-142.09 460.93,-131.8 456.51,-141.43 463.48,-142.09"/>
</g>
<!-- ReadOnly -->
<g id="node8" class="node">
<title>ReadOnly</title>
<g id="a_node8"><a xlink:href="../read_only.html" xlink:title="ReadOnly" target="_top">
<polygon fill="none" stroke="white" points="248.44,-240.6 183.38,-240.6 183.38,-221.28 248.44,-221.28 248.44,-240.6"/>
<text xml:space="preserve" text-anchor="middle" x="215.91" y="-225.14" font-family="Sans-Serif" font-size="14.00">ReadOnly</text>
</a>
</g>
</g>
<!-- ReadOnly&#45;&gt;Chains -->
<g id="edge29" class="edge">
<title>ReadOnly&#45;&gt;Chains</title>
<path fill="none" stroke="black" d="M215.91,-221.14C215.91,-214.54 215.91,-205.24 215.91,-196.85"/>
<polygon fill="black" stroke="black" points="219.41,-197.13 215.91,-187.13 212.41,-197.13 219.41,-197.13"/>
</g>
<!-- ReadOnly&#45;&gt;Views -->
<g id="edge6" class="edge">
<title>ReadOnly&#45;&gt;Views</title>
<path fill="none" stroke="black" d="M248.58,-223.04C251.4,-222.44 254.2,-221.85 256.91,-221.28 329.49,-205.97 350.75,-204.51 425.46,-185.75"/>
<polygon fill="black" stroke="black" points="426.07,-189.2 434.91,-183.35 424.35,-182.42 426.07,-189.2"/>
</g>
<!-- ReadOnly&#45;&gt;FilesFormat -->
<g id="edge32" class="edge">
<title>ReadOnly&#45;&gt;FilesFormat</title>
<path fill="none" stroke="black" d="M186.56,-220.89C158.11,-212.12 114.71,-198.75 83.06,-189"/>
<polygon fill="black" stroke="black" points="84.43,-185.76 73.85,-186.16 82.37,-192.45 84.43,-185.76"/>
</g>
<!-- ReadOnly&#45;&gt;H5dfFormat -->
<g id="edge25" class="edge">
<title>ReadOnly&#45;&gt;H5dfFormat</title>
<path fill="none" stroke="black" d="M202.51,-220.89C190.82,-213.01 173.61,-201.39 159.75,-192.04"/>
<polygon fill="black" stroke="black" points="161.88,-189.25 151.63,-186.56 157.96,-195.05 161.88,-189.25"/>
</g>
<!-- Queries -->
<g id="node9" class="node">
<title>Queries</title>
<g id="a_node9"><a xlink:href="../queries.html" xlink:title="Queries" target="_top">
<polygon fill="none" stroke="white" points="433.07,-240.6 380.75,-240.6 380.75,-221.28 433.07,-221.28 433.07,-240.6"/>
<text xml:space="preserve" text-anchor="middle" x="406.91" y="-225.14" font-family="Sans-Serif" font-size="14.00">Queries</text>
</a>
</g>
</g>
<!-- Queries&#45;&gt;Views -->
<g id="edge7" class="edge">
<title>Queries&#45;&gt;Views</title>
<path fill="none" stroke="black" d="M415.17,-221.14C422.07,-213.77 432.13,-203.04 440.65,-193.96"/>
<polygon fill="black" stroke="black" points="443.15,-196.41 447.44,-186.72 438.05,-191.62 443.15,-196.41"/>
</g>
<!-- Queries&#45;&gt;Reconstruction -->
<g id="edge38" class="edge">
<title>Queries&#45;&gt;Reconstruction</title>
<path fill="none" stroke="black" d="M429.81,-220.89C451.34,-212.39 483.82,-199.56 508.29,-189.9"/>
<polygon fill="black" stroke="black" points="509.47,-193.19 517.49,-186.27 506.9,-186.68 509.47,-193.19"/>
</g>
<!-- Operations -->
<g id="node10" class="node">
<title>Operations</title>
<g id="a_node10"><a xlink:href="../operations.html" xlink:title="Operations" target="_top">
<polygon fill="none" stroke="white" points="184.44,-295.92 113.38,-295.92 113.38,-276.6 184.44,-276.6 184.44,-295.92"/>
<text xml:space="preserve" text-anchor="middle" x="148.91" y="-280.46" font-family="Sans-Serif" font-size="14.00">Operations</text>
</a>
</g>
</g>
<!-- Operations&#45;&gt;Queries -->
<g id="edge11" class="edge">
<title>Operations&#45;&gt;Queries</title>
<path fill="none" stroke="black" d="M184.78,-277.85C233.37,-267.81 319.68,-249.97 369.19,-239.73"/>
<polygon fill="black" stroke="black" points="369.79,-243.19 378.87,-237.73 368.37,-236.33 369.79,-243.19"/>
</g>
<!-- Operations&#45;&gt;FilesFormat -->
<g id="edge33" class="edge">
<title>Operations&#45;&gt;FilesFormat</title>
<path fill="none" stroke="black" d="M140.24,-276.37C122.61,-258.31 82.35,-217.04 59.52,-193.64"/>
<polygon fill="black" stroke="black" points="62.25,-191.43 52.76,-186.72 57.24,-196.32 62.25,-191.43"/>
</g>
<!-- Registry -->
<g id="node11" class="node">
<title>Registry</title>
<g id="a_node11"><a xlink:href="../registry.html" xlink:title="Registry" target="_top">
<polygon fill="none" stroke="white" points="207.82,-351.24 154,-351.24 154,-331.92 207.82,-331.92 207.82,-351.24"/>
<text xml:space="preserve" text-anchor="middle" x="180.91" y="-335.78" font-family="Sans-Serif" font-size="14.00">Registry</text>
</a>
</g>
</g>
<!-- Registry&#45;&gt;Operations -->
<g id="edge8" class="edge">
<title>Registry&#45;&gt;Operations</title>
<path fill="none" stroke="black" d="M175.63,-331.78C171.44,-324.79 165.43,-314.79 160.18,-306.03"/>
<polygon fill="black" stroke="black" points="163.23,-304.33 155.09,-297.55 157.23,-307.93 163.23,-304.33"/>
</g>
<!-- Tokens -->
<g id="node12" class="node">
<title>Tokens</title>
<g id="a_node12"><a xlink:href="../tokens.html" xlink:title="Tokens" target="_top">
<polygon fill="none" stroke="white" points="149.44,-406.56 102.38,-406.56 102.38,-387.24 149.44,-387.24 149.44,-406.56"/>
<text xml:space="preserve" text-anchor="middle" x="125.91" y="-391.1" font-family="Sans-Serif" font-size="14.00">Tokens</text>
</a>
</g>
</g>
<!-- Tokens&#45;&gt;Operations -->
<g id="edge9" class="edge">
<title>Tokens&#45;&gt;Operations</title>
<path fill="none" stroke="black" d="M127.79,-387.01C131.45,-369.74 139.59,-331.27 144.63,-307.48"/>
<polygon fill="black" stroke="black" points="148.04,-308.26 146.69,-297.75 141.19,-306.81 148.04,-308.26"/>
</g>
<!-- Formats -->
<g id="node18" class="node">
<title>Formats</title>
<g id="a_node18"><a xlink:href="../formats.html" xlink:title="Formats" target="_top">
<polygon fill="none" stroke="white" points="280.19,-351.24 225.62,-351.24 225.62,-331.92 280.19,-331.92 280.19,-351.24"/>
<text xml:space="preserve" text-anchor="middle" x="252.91" y="-335.78" font-family="Sans-Serif" font-size="14.00">Formats</text>
</a>
</g>
</g>
<!-- Tokens&#45;&gt;Formats -->
<g id="edge18" class="edge">
<title>Tokens&#45;&gt;Formats</title>
<path fill="none" stroke="black" d="M147.45,-386.85C167.52,-378.43 197.71,-365.75 220.66,-356.12"/>
<polygon fill="black" stroke="black" points="222,-359.35 229.86,-352.26 219.29,-352.9 222,-359.35"/>
</g>
<!-- Readers -->
<g id="node13" class="node">
<title>Readers</title>
<g id="a_node13"><a xlink:href="../readers.html" xlink:title="Readers" target="_top">
<polygon fill="none" stroke="white" points="280.57,-295.92 225.25,-295.92 225.25,-276.6 280.57,-276.6 280.57,-295.92"/>
<text xml:space="preserve" text-anchor="middle" x="252.91" y="-280.46" font-family="Sans-Serif" font-size="14.00">Readers</text>
</a>
</g>
</g>
<!-- Readers&#45;&gt;Writers -->
<g id="edge27" class="edge">
<title>Readers&#45;&gt;Writers</title>
<path fill="none" stroke="black" d="M259.02,-276.46C263.97,-269.32 271.11,-259.03 277.28,-250.14"/>
<polygon fill="black" stroke="black" points="279.98,-252.39 282.8,-242.18 274.23,-248.4 279.98,-252.39"/>
</g>
<!-- Readers&#45;&gt;ReadOnly -->
<g id="edge39" class="edge">
<title>Readers&#45;&gt;ReadOnly</title>
<path fill="none" stroke="black" d="M246.8,-276.46C241.85,-269.32 234.71,-259.03 228.54,-250.14"/>
<polygon fill="black" stroke="black" points="231.59,-248.4 223.02,-242.18 225.84,-252.39 231.59,-248.4"/>
</g>
<!-- Readers&#45;&gt;Queries -->
<g id="edge10" class="edge">
<title>Readers&#45;&gt;Queries</title>
<path fill="none" stroke="black" d="M279.03,-276.21C304.03,-267.56 341.99,-254.42 370.06,-244.7"/>
<polygon fill="black" stroke="black" points="370.92,-248.1 379.23,-241.52 368.63,-241.49 370.92,-248.1"/>
</g>
<!-- Groups -->
<g id="node22" class="node">
<title>Groups</title>
<g id="a_node22"><a xlink:href="../groups.html" xlink:title="Groups" target="_top">
<polygon fill="none" stroke="white" points="165.57,-240.6 116.25,-240.6 116.25,-221.28 165.57,-221.28 165.57,-240.6"/>
<text xml:space="preserve" text-anchor="middle" x="140.91" y="-225.14" font-family="Sans-Serif" font-size="14.00">Groups</text>
</a>
</g>
</g>
<!-- Readers&#45;&gt;Groups -->
<g id="edge26" class="edge">
<title>Readers&#45;&gt;Groups</title>
<path fill="none" stroke="black" d="M233.91,-276.21C216.45,-267.9 190.31,-255.46 170.19,-245.88"/>
<polygon fill="black" stroke="black" points="171.9,-242.82 161.37,-241.68 168.89,-249.14 171.9,-242.82"/>
</g>
<!-- FilesFormat&#45;&gt;CompleteDaf -->
<g id="edge12" class="edge">
<title>FilesFormat&#45;&gt;CompleteDaf</title>
<path fill="none" stroke="black" d="M42.74,-165.82C42.62,-159.22 42.45,-149.92 42.29,-141.53"/>
<polygon fill="black" stroke="black" points="45.79,-141.74 42.11,-131.81 38.8,-141.87 45.79,-141.74"/>
</g>
<!-- FilesFormat&#45;&gt;ExampleData -->
<g id="edge21" class="edge">
<title>FilesFormat&#45;&gt;ExampleData</title>
<path fill="none" stroke="black" d="M60.21,-165.57C75.89,-157.38 99.26,-145.16 117.49,-135.64"/>
<polygon fill="black" stroke="black" points="118.94,-138.83 126.18,-131.09 115.7,-132.62 118.94,-138.83"/>
</g>
<!-- H5dfFormat&#45;&gt;CompleteDaf -->
<g id="edge14" class="edge">
<title>H5dfFormat&#45;&gt;CompleteDaf</title>
<path fill="none" stroke="black" d="M120.79,-165.57C106.33,-157.46 84.83,-145.39 67.93,-135.9"/>
<polygon fill="black" stroke="black" points="69.86,-132.97 59.42,-131.13 66.43,-139.08 69.86,-132.97"/>
</g>
<!-- Contracts&#45;&gt;Computations -->
<g id="edge36" class="edge">
<title>Contracts&#45;&gt;Computations</title>
<path fill="none" stroke="black" d="M530.45,-110.5C526.96,-103.59 521.96,-93.73 517.56,-85.04"/>
<polygon fill="black" stroke="black" points="520.79,-83.67 513.15,-76.33 514.54,-86.83 520.79,-83.67"/>
</g>
<!-- Formats&#45;&gt;Readers -->
<g id="edge40" class="edge">
<title>Formats&#45;&gt;Readers</title>
<path fill="none" stroke="black" d="M252.91,-331.78C252.91,-325.18 252.91,-315.88 252.91,-307.49"/>
<polygon fill="black" stroke="black" points="256.41,-307.77 252.91,-297.77 249.41,-307.77 256.41,-307.77"/>
</g>
<!-- StorageTypes -->
<g id="node19" class="node">
<title>StorageTypes</title>
<g id="a_node19"><a xlink:href="../storage_types.html" xlink:title="StorageTypes" target="_top">
<polygon fill="none" stroke="white" points="256.07,-406.56 167.75,-406.56 167.75,-387.24 256.07,-387.24 256.07,-406.56"/>
<text xml:space="preserve" text-anchor="middle" x="211.91" y="-391.1" font-family="Sans-Serif" font-size="14.00">StorageTypes</text>
</a>
</g>
</g>
<!-- StorageTypes&#45;&gt;Registry -->
<g id="edge23" class="edge">
<title>StorageTypes&#45;&gt;Registry</title>
<path fill="none" stroke="black" d="M206.79,-387.1C202.73,-380.11 196.92,-370.11 191.82,-361.35"/>
<polygon fill="black" stroke="black" points="194.95,-359.77 186.9,-352.88 188.9,-363.29 194.95,-359.77"/>
</g>
<!-- StorageTypes&#45;&gt;Formats -->
<g id="edge16" class="edge">
<title>StorageTypes&#45;&gt;Formats</title>
<path fill="none" stroke="black" d="M218.68,-387.1C224.23,-379.88 232.25,-369.45 239.14,-360.49"/>
<polygon fill="black" stroke="black" points="241.75,-362.84 245.07,-352.78 236.2,-358.57 241.75,-362.84"/>
</g>
<!-- Keys -->
<g id="node20" class="node">
<title>Keys</title>
<g id="a_node20"><a xlink:href="../keys.html" xlink:title="Keys" target="_top">
<polygon fill="none" stroke="white" points="308.07,-406.56 273.75,-406.56 273.75,-387.24 308.07,-387.24 308.07,-406.56"/>
<text xml:space="preserve" text-anchor="middle" x="290.91" y="-391.1" font-family="Sans-Serif" font-size="14.00">Keys</text>
</a>
</g>
</g>
<!-- Keys&#45;&gt;Formats -->
<g id="edge17" class="edge">
<title>Keys&#45;&gt;Formats</title>
<path fill="none" stroke="black" d="M284.64,-387.1C279.55,-379.96 272.21,-369.67 265.88,-360.78"/>
<polygon fill="black" stroke="black" points="268.85,-358.92 260.2,-352.81 263.15,-362.98 268.85,-358.92"/>
</g>
</g>
</svg>
