<?xml version="1.0" encoding="UTF-8" standalone="no"?>
<!DOCTYPE svg PUBLIC "-//W3C//DTD SVG 1.1//EN"
 "http://www.w3.org/Graphics/SVG/1.1/DTD/svg11.dtd">
<!-- Generated by graphviz version 14.1.1 (20251213.1925)
 -->
<!-- Pages: 1 -->
<svg width="606pt" height="415pt"
 viewBox="0.00 0.00 606.00 415.00" xmlns="http://www.w3.org/2000/svg" xmlns:xlink="http://www.w3.org/1999/xlink">
<g id="graph0" class="graph" transform="scale(1 1) rotate(0) translate(4 410.56)">
<polygon fill="white" stroke="none" points="-4,4 -4,-410.56 602.32,-410.56 602.32,4 -4,4"/>
<!-- Copies -->
<g id="node1" class="node">
<title>Copies</title>
<g id="a_node1"><a xlink:href="../copies.html" xlink:title="Copies" target="_top">
<polygon fill="none" stroke="white" points="176.32,-185.28 130,-185.28 130,-165.96 176.32,-165.96 176.32,-185.28"/>
<text xml:space="preserve" text-anchor="middle" x="153.16" y="-169.82" font-family="Sans-Serif" font-size="14.00">Copies</text>
</a>
</g>
</g>
<!-- Adapters -->
<g id="node3" class="node">
<title>Adapters</title>
<g id="a_node3"><a xlink:href="../adapters.html" xlink:title="Adapters" target="_top">
<polygon fill="none" stroke="white" points="214.32,-19.32 156,-19.32 156,0 214.32,0 214.32,-19.32"/>
<text xml:space="preserve" text-anchor="middle" x="185.16" y="-3.86" font-family="Sans-Serif" font-size="14.00">Adapters</text>
</a>
</g>
</g>
<!-- Copies&#45;&gt;Adapters -->
<g id="edge4" class="edge">
<title>Copies&#45;&gt;Adapters</title>
<path fill="none" stroke="black" d="M154.88,-165.8C159.85,-140.34 174.32,-66.21 181.3,-30.43"/>
<polygon fill="black" stroke="black" points="184.66,-31.49 183.14,-21 177.79,-30.15 184.66,-31.49"/>
</g>
<!-- Concat -->
<g id="node24" class="node">
<title>Concat</title>
<g id="a_node24"><a xlink:href="../concat.html" xlink:title="Concat" target="_top">
<polygon fill="none" stroke="white" points="398.69,-129.96 351.62,-129.96 351.62,-110.64 398.69,-110.64 398.69,-129.96"/>
<text xml:space="preserve" text-anchor="middle" x="375.16" y="-114.5" font-family="Sans-Serif" font-size="14.00">Concat</text>
</a>
</g>
</g>
<!-- Copies&#45;&gt;Concat -->
<g id="edge35" class="edge">
<title>Copies&#45;&gt;Concat</title>
<path fill="none" stroke="black" d="M176.56,-168.19C179.45,-167.43 182.37,-166.67 185.16,-165.96 239.2,-152.3 302.23,-137.76 340.39,-129.1"/>
<polygon fill="black" stroke="black" points="340.94,-132.57 349.93,-126.95 339.4,-125.74 340.94,-132.57"/>
</g>
<!-- Writers -->
<g id="node2" class="node">
<title>Writers</title>
<g id="a_node2"><a xlink:href="../writers.html" xlink:title="Writers" target="_top">
<polygon fill="none" stroke="white" points="253.69,-240.6 206.62,-240.6 206.62,-221.28 253.69,-221.28 253.69,-240.6"/>
<text xml:space="preserve" text-anchor="middle" x="230.16" y="-225.14" font-family="Sans-Serif" font-size="14.00">Writers</text>
</a>
</g>
</g>
<!-- Writers&#45;&gt;Copies -->
<g id="edge1" class="edge">
<title>Writers&#45;&gt;Copies</title>
<path fill="none" stroke="black" d="M217.1,-220.89C205.7,-213.01 188.93,-201.39 175.42,-192.04"/>
<polygon fill="black" stroke="black" points="177.74,-189.39 167.53,-186.57 173.76,-195.14 177.74,-189.39"/>
</g>
<!-- MemoryFormat -->
<g id="node5" class="node">
<title>MemoryFormat</title>
<g id="a_node5"><a xlink:href="../memory_format.html" xlink:title="MemoryFormat" target="_top">
<polygon fill="none" stroke="white" points="112.19,-185.28 14.12,-185.28 14.12,-165.96 112.19,-165.96 112.19,-185.28"/>
<text xml:space="preserve" text-anchor="middle" x="63.16" y="-169.82" font-family="Sans-Serif" font-size="14.00">MemoryFormat</text>
</a>
</g>
</g>
<!-- Writers&#45;&gt;MemoryFormat -->
<g id="edge23" class="edge">
<title>Writers&#45;&gt;MemoryFormat</title>
<path fill="none" stroke="black" d="M206.23,-222.3C179.21,-213.67 134.8,-199.49 102.63,-189.22"/>
<polygon fill="black" stroke="black" points="103.83,-185.93 93.24,-186.23 101.71,-192.6 103.83,-185.93"/>
</g>
<!-- Chains -->
<g id="node6" class="node">
<title>Chains</title>
<g id="a_node6"><a xlink:href="../chains.html" xlink:title="Chains" target="_top">
<polygon fill="none" stroke="white" points="240.32,-185.28 194,-185.28 194,-165.96 240.32,-165.96 240.32,-185.28"/>
<text xml:space="preserve" text-anchor="middle" x="217.16" y="-169.82" font-family="Sans-Serif" font-size="14.00">Chains</text>
</a>
</g>
</g>
<!-- Writers&#45;&gt;Chains -->
<g id="edge29" class="edge">
<title>Writers&#45;&gt;Chains</title>
<path fill="none" stroke="black" d="M228.01,-221.14C226.39,-214.46 224.08,-205.02 222.02,-196.55"/>
<polygon fill="black" stroke="black" points="225.48,-195.97 219.71,-187.09 218.68,-197.63 225.48,-195.97"/>
</g>
<!-- H5dfFormat -->
<g id="node15" class="node">
<title>H5dfFormat</title>
<g id="a_node15"><a xlink:href="../h5df_format.html" xlink:title="H5dfFormat" target="_top">
<polygon fill="none" stroke="white" points="334.32,-185.28 258,-185.28 258,-165.96 334.32,-165.96 334.32,-185.28"/>
<text xml:space="preserve" text-anchor="middle" x="296.16" y="-169.82" font-family="Sans-Serif" font-size="14.00">H5dfFormat</text>
</a>
</g>
</g>
<!-- Writers&#45;&gt;H5dfFormat -->
<g id="edge25" class="edge">
<title>Writers&#45;&gt;H5dfFormat</title>
<path fill="none" stroke="black" d="M241.36,-220.89C250.9,-213.19 264.83,-201.93 276.27,-192.69"/>
<polygon fill="black" stroke="black" points="278.37,-195.49 283.95,-186.48 273.97,-190.04 278.37,-195.49"/>
</g>
<!-- FilesFormat -->
<g id="node16" class="node">
<title>FilesFormat</title>
<g id="a_node16"><a xlink:href="../files_format.html" xlink:title="FilesFormat" target="_top">
<polygon fill="none" stroke="white" points="540.32,-185.28 464,-185.28 464,-165.96 540.32,-165.96 540.32,-185.28"/>
<text xml:space="preserve" text-anchor="middle" x="502.16" y="-169.82" font-family="Sans-Serif" font-size="14.00">FilesFormat</text>
</a>
</g>
</g>
<!-- Writers&#45;&gt;FilesFormat -->
<g id="edge32" class="edge">
<title>Writers&#45;&gt;FilesFormat</title>
<path fill="none" stroke="black" d="M253.87,-223.3C256.66,-222.58 259.47,-221.89 262.16,-221.28 266.81,-220.22 383.55,-198.58 452.47,-185.82"/>
<polygon fill="black" stroke="black" points="452.82,-189.31 462.02,-184.05 451.55,-182.43 452.82,-189.31"/>
</g>
<!-- Reconstruction -->
<g id="node25" class="node">
<title>Reconstruction</title>
<g id="a_node25"><a xlink:href="../reconstruction.html" xlink:title="Reconstruction" target="_top">
<polygon fill="none" stroke="white" points="446.32,-185.28 352,-185.28 352,-165.96 446.32,-165.96 446.32,-185.28"/>
<text xml:space="preserve" text-anchor="middle" x="399.16" y="-169.82" font-family="Sans-Serif" font-size="14.00">Reconstruction</text>
</a>
</g>
</g>
<!-- Writers&#45;&gt;Reconstruction -->
<g id="edge38" class="edge">
<title>Writers&#45;&gt;Reconstruction</title>
<path fill="none" stroke="black" d="M254.02,-222.41C281.48,-213.75 327.02,-199.38 359.76,-189.05"/>
<polygon fill="black" stroke="black" points="360.41,-192.52 368.89,-186.17 358.3,-185.84 360.41,-192.52"/>
</g>
<!-- Computations -->
<g id="node4" class="node">
<title>Computations</title>
<g id="a_node4"><a xlink:href="../computations.html" xlink:title="Computations" target="_top">
<polygon fill="none" stroke="white" points="462.32,-74.64 374,-74.64 374,-55.32 462.32,-55.32 462.32,-74.64"/>
<text xml:space="preserve" text-anchor="middle" x="418.16" y="-59.18" font-family="Sans-Serif" font-size="14.00">Computations</text>
</a>
</g>
</g>
<!-- Computations&#45;&gt;Adapters -->
<g id="edge2" class="edge">
<title>Computations&#45;&gt;Adapters</title>
<path fill="none" stroke="black" d="M378.37,-54.87C335.87,-45.15 268.84,-29.81 225.95,-20"/>
<polygon fill="black" stroke="black" points="226.81,-16.6 216.28,-17.78 225.25,-23.42 226.81,-16.6"/>
</g>
<!-- MemoryFormat&#45;&gt;Adapters -->
<g id="edge3" class="edge">
<title>MemoryFormat&#45;&gt;Adapters</title>
<path fill="none" stroke="black" d="M73.71,-165.66C83.51,-157.06 98.19,-143.42 109.16,-129.96 136.08,-96.93 161.42,-53.86 174.96,-29.54"/>
<polygon fill="black" stroke="black" points="177.99,-31.29 179.73,-20.84 171.85,-27.93 177.99,-31.29"/>
</g>
<!-- ExampleData -->
<g id="node21" class="node">
<title>ExampleData</title>
<g id="a_node21"><a xlink:href="../example_data.html" xlink:title="ExampleData" target="_top">
<polygon fill="none" stroke="white" points="318.19,-129.96 232.12,-129.96 232.12,-110.64 318.19,-110.64 318.19,-129.96"/>
<text xml:space="preserve" text-anchor="middle" x="275.16" y="-114.5" font-family="Sans-Serif" font-size="14.00">ExampleData</text>
</a>
</g>
</g>
<!-- MemoryFormat&#45;&gt;ExampleData -->
<g id="edge21" class="edge">
<title>MemoryFormat&#45;&gt;ExampleData</title>
<path fill="none" stroke="black" d="M99.12,-165.57C134.6,-156.65 189.04,-142.96 227.98,-133.17"/>
<polygon fill="black" stroke="black" points="228.71,-136.59 237.55,-130.76 227,-129.8 228.71,-136.59"/>
</g>
<!-- AnnDataFormat -->
<g id="node23" class="node">
<title>AnnDataFormat</title>
<g id="a_node23"><a xlink:href="../anndata_format.html" xlink:title="AnnDataFormat" target="_top">
<polygon fill="none" stroke="white" points="100.32,-129.96 0,-129.96 0,-110.64 100.32,-110.64 100.32,-129.96"/>
<text xml:space="preserve" text-anchor="middle" x="50.16" y="-114.5" font-family="Sans-Serif" font-size="14.00">AnnDataFormat</text>
</a>
</g>
</g>
<!-- MemoryFormat&#45;&gt;AnnDataFormat -->
<g id="edge31" class="edge">
<title>MemoryFormat&#45;&gt;AnnDataFormat</title>
<path fill="none" stroke="black" d="M61.01,-165.82C59.39,-159.14 57.08,-149.7 55.02,-141.23"/>
<polygon fill="black" stroke="black" points="58.48,-140.65 52.71,-131.77 51.68,-142.31 58.48,-140.65"/>
</g>
<!-- Chains&#45;&gt;Adapters -->
<g id="edge5" class="edge">
<title>Chains&#45;&gt;Adapters</title>
<path fill="none" stroke="black" d="M215.44,-165.8C210.47,-140.34 196,-66.21 189.02,-30.43"/>
<polygon fill="black" stroke="black" points="192.53,-30.15 187.18,-21 185.66,-31.49 192.53,-30.15"/>
</g>
<!-- CompleteDaf -->
<g id="node14" class="node">
<title>CompleteDaf</title>
<g id="a_node14"><a xlink:href="../complete.html" xlink:title="CompleteDaf" target="_top">
<polygon fill="none" stroke="white" points="508.07,-129.96 424.25,-129.96 424.25,-110.64 508.07,-110.64 508.07,-129.96"/>
<text xml:space="preserve" text-anchor="middle" x="466.16" y="-114.5" font-family="Sans-Serif" font-size="14.00">CompleteDaf</text>
</a>
</g>
</g>
<!-- Chains&#45;&gt;CompleteDaf -->
<g id="edge13" class="edge">
<title>Chains&#45;&gt;CompleteDaf</title>
<path fill="none" stroke="black" d="M240.54,-168.12C243.43,-167.36 246.36,-166.63 249.16,-165.96 304.75,-152.73 368.9,-139.81 412.96,-131.3"/>
<polygon fill="black" stroke="black" points="413.34,-134.8 422.5,-129.47 412.02,-127.92 413.34,-134.8"/>
</g>
<!-- Chains&#45;&gt;ExampleData -->
<g id="edge20" class="edge">
<title>Chains&#45;&gt;ExampleData</title>
<path fill="none" stroke="black" d="M227,-165.57C235.21,-158.02 247.14,-147.06 257.07,-137.93"/>
<polygon fill="black" stroke="black" points="259.36,-140.58 264.35,-131.24 254.62,-135.43 259.36,-140.58"/>
</g>
<!-- Views -->
<g id="node7" class="node">
<title>Views</title>
<g id="a_node7"><a xlink:href="../views.html" xlink:title="Views" target="_top">
<polygon fill="none" stroke="white" points="598.32,-185.28 558,-185.28 558,-165.96 598.32,-165.96 598.32,-185.28"/>
<text xml:space="preserve" text-anchor="middle" x="578.16" y="-169.82" font-family="Sans-Serif" font-size="14.00">Views</text>
</a>
</g>
</g>
<!-- Views&#45;&gt;CompleteDaf -->
<g id="edge15" class="edge">
<title>Views&#45;&gt;CompleteDaf</title>
<path fill="none" stroke="black" d="M559.16,-165.57C541.7,-157.26 515.56,-144.82 495.44,-135.24"/>
<polygon fill="black" stroke="black" points="497.15,-132.18 486.62,-131.04 494.14,-138.5 497.15,-132.18"/>
</g>
<!-- Contracts -->
<g id="node17" class="node">
<title>Contracts</title>
<g id="a_node17"><a xlink:href="../contracts.html" xlink:title="Contracts" target="_top">
<polygon fill="none" stroke="white" points="592.19,-129.96 530.12,-129.96 530.12,-110.64 592.19,-110.64 592.19,-129.96"/>
<text xml:space="preserve" text-anchor="middle" x="561.16" y="-114.5" font-family="Sans-Serif" font-size="14.00">Contracts</text>
</a>
</g>
</g>
<!-- Views&#45;&gt;Contracts -->
<g id="edge16" class="edge">
<title>Views&#45;&gt;Contracts</title>
<path fill="none" stroke="black" d="M575.35,-165.82C573.22,-159.14 570.22,-149.7 567.52,-141.23"/>
<polygon fill="black" stroke="black" points="570.86,-140.2 564.49,-131.74 564.19,-142.33 570.86,-140.2"/>
</g>
<!-- Views&#45;&gt;Concat -->
<g id="edge36" class="edge">
<title>Views&#45;&gt;Concat</title>
<path fill="none" stroke="black" d="M557.59,-168.37C554.77,-167.54 551.89,-166.72 549.16,-165.96 501.24,-152.66 445.5,-138.6 410.28,-129.89"/>
<polygon fill="black" stroke="black" points="411.18,-126.5 400.63,-127.51 409.5,-133.3 411.18,-126.5"/>
</g>
<!-- ReadOnly -->
<g id="node8" class="node">
<title>ReadOnly</title>
<g id="a_node8"><a xlink:href="../read_only.html" xlink:title="ReadOnly" target="_top">
<polygon fill="none" stroke="white" points="403.69,-240.6 338.62,-240.6 338.62,-221.28 403.69,-221.28 403.69,-240.6"/>
<text xml:space="preserve" text-anchor="middle" x="371.16" y="-225.14" font-family="Sans-Serif" font-size="14.00">ReadOnly</text>
</a>
</g>
</g>
<!-- ReadOnly&#45;&gt;Chains -->
<g id="edge30" class="edge">
<title>ReadOnly&#45;&gt;Chains</title>
<path fill="none" stroke="black" d="M345.04,-220.89C319.13,-211.92 279.31,-198.14 250.99,-188.33"/>
<polygon fill="black" stroke="black" points="252.41,-185.12 241.81,-185.16 250.12,-191.74 252.41,-185.12"/>
</g>
<!-- ReadOnly&#45;&gt;Views -->
<g id="edge6" class="edge">
<title>ReadOnly&#45;&gt;Views</title>
<path fill="none" stroke="black" d="M404.08,-222.14C437.66,-214.09 491.5,-200.9 546.57,-185.9"/>
<polygon fill="black" stroke="black" points="547.42,-189.3 556.14,-183.28 545.57,-182.55 547.42,-189.3"/>
</g>
<!-- ReadOnly&#45;&gt;H5dfFormat -->
<g id="edge26" class="edge">
<title>ReadOnly&#45;&gt;H5dfFormat</title>
<path fill="none" stroke="black" d="M358.44,-220.89C347.45,-213.08 331.32,-201.61 318.23,-192.31"/>
<polygon fill="black" stroke="black" points="320.36,-189.53 310.18,-186.59 316.3,-195.23 320.36,-189.53"/>
</g>
<!-- ReadOnly&#45;&gt;FilesFormat -->
<g id="edge34" class="edge">
<title>ReadOnly&#45;&gt;FilesFormat</title>
<path fill="none" stroke="black" d="M393.38,-220.89C414.18,-212.43 445.51,-199.68 469.21,-190.03"/>
<polygon fill="black" stroke="black" points="470.48,-193.29 478.43,-186.28 467.85,-186.81 470.48,-193.29"/>
</g>
<!-- Queries -->
<g id="node9" class="node">
<title>Queries</title>
<g id="a_node9"><a xlink:href="../queries.html" xlink:title="Queries" target="_top">
<polygon fill="none" stroke="white" points="474.32,-240.6 422,-240.6 422,-221.28 474.32,-221.28 474.32,-240.6"/>
<text xml:space="preserve" text-anchor="middle" x="448.16" y="-225.14" font-family="Sans-Serif" font-size="14.00">Queries</text>
</a>
</g>
</g>
<!-- Queries&#45;&gt;Views -->
<g id="edge7" class="edge">
<title>Queries&#45;&gt;Views</title>
<path fill="none" stroke="black" d="M470.21,-220.89C491.35,-212.23 523.45,-199.06 547.16,-189.33"/>
<polygon fill="black" stroke="black" points="548.39,-192.61 556.32,-185.58 545.74,-186.14 548.39,-192.61"/>
</g>
<!-- Queries&#45;&gt;Reconstruction -->
<g id="edge39" class="edge">
<title>Queries&#45;&gt;Reconstruction</title>
<path fill="none" stroke="black" d="M440.07,-221.14C433.3,-213.77 423.44,-203.04 415.1,-193.96"/>
<polygon fill="black" stroke="black" points="417.79,-191.73 408.45,-186.73 412.64,-196.46 417.79,-191.73"/>
</g>
<!-- Operations -->
<g id="node10" class="node">
<title>Operations</title>
<g id="a_node10"><a xlink:href="../operations.html" xlink:title="Operations" target="_top">
<polygon fill="none" stroke="white" points="492.69,-295.92 421.62,-295.92 421.62,-276.6 492.69,-276.6 492.69,-295.92"/>
<text xml:space="preserve" text-anchor="middle" x="457.16" y="-280.46" font-family="Sans-Serif" font-size="14.00">Operations</text>
</a>
</g>
</g>
<!-- Operations&#45;&gt;Queries -->
<g id="edge11" class="edge">
<title>Operations&#45;&gt;Queries</title>
<path fill="none" stroke="black" d="M455.67,-276.46C454.56,-269.86 452.99,-260.56 451.57,-252.17"/>
<polygon fill="black" stroke="black" points="455.05,-251.71 449.93,-242.43 448.14,-252.87 455.05,-251.71"/>
</g>
<!-- Operations&#45;&gt;FilesFormat -->
<g id="edge33" class="edge">
<title>Operations&#45;&gt;FilesFormat</title>
<path fill="none" stroke="black" d="M463.2,-276.36C468.95,-267.57 477.54,-253.61 483.16,-240.6 489.36,-226.25 494.3,-209.26 497.59,-196.4"/>
<polygon fill="black" stroke="black" points="500.91,-197.56 499.87,-187.02 494.11,-195.91 500.91,-197.56"/>
</g>
<!-- Tokens -->
<g id="node11" class="node">
<title>Tokens</title>
<g id="a_node11"><a xlink:href="../tokens.html" xlink:title="Tokens" target="_top">
<polygon fill="none" stroke="white" points="409.69,-406.56 362.62,-406.56 362.62,-387.24 409.69,-387.24 409.69,-406.56"/>
<text xml:space="preserve" text-anchor="middle" x="386.16" y="-391.1" font-family="Sans-Serif" font-size="14.00">Tokens</text>
</a>
</g>
</g>
<!-- Tokens&#45;&gt;Operations -->
<g id="edge8" class="edge">
<title>Tokens&#45;&gt;Operations</title>
<path fill="none" stroke="black" d="M391.97,-387.01C403.52,-369.34 429.56,-329.49 445.01,-305.85"/>
<polygon fill="black" stroke="black" points="447.9,-307.83 450.44,-297.54 442.04,-304 447.9,-307.83"/>
</g>
<!-- Formats -->
<g id="node18" class="node">
<title>Formats</title>
<g id="a_node18"><a xlink:href="../formats.html" xlink:title="Formats" target="_top">
<polygon fill="none" stroke="white" points="389.44,-351.24 334.87,-351.24 334.87,-331.92 389.44,-331.92 389.44,-351.24"/>
<text xml:space="preserve" text-anchor="middle" x="362.16" y="-335.78" font-family="Sans-Serif" font-size="14.00">Formats</text>
</a>
</g>
</g>
<!-- Tokens&#45;&gt;Formats -->
<g id="edge17" class="edge">
<title>Tokens&#45;&gt;Formats</title>
<path fill="none" stroke="black" d="M382.2,-387.1C379.12,-380.27 374.75,-370.55 370.87,-361.93"/>
<polygon fill="black" stroke="black" points="374.13,-360.64 366.83,-352.96 367.74,-363.51 374.13,-360.64"/>
</g>
<!-- Registry -->
<g id="node12" class="node">
<title>Registry</title>
<g id="a_node12"><a xlink:href="../registry.html" xlink:title="Registry" target="_top">
<polygon fill="none" stroke="white" points="499.07,-351.24 445.25,-351.24 445.25,-331.92 499.07,-331.92 499.07,-351.24"/>
<text xml:space="preserve" text-anchor="middle" x="472.16" y="-335.78" font-family="Sans-Serif" font-size="14.00">Registry</text>
</a>
</g>
</g>
<!-- Registry&#45;&gt;Operations -->
<g id="edge9" class="edge">
<title>Registry&#45;&gt;Operations</title>
<path fill="none" stroke="black" d="M469.68,-331.78C467.81,-325.1 465.15,-315.66 462.77,-307.19"/>
<polygon fill="black" stroke="black" points="466.18,-306.39 460.1,-297.71 459.44,-308.29 466.18,-306.39"/>
</g>
<!-- Readers -->
<g id="node13" class="node">
<title>Readers</title>
<g id="a_node13"><a xlink:href="../readers.html" xlink:title="Readers" target="_top">
<polygon fill="none" stroke="white" points="389.82,-295.92 334.5,-295.92 334.5,-276.6 389.82,-276.6 389.82,-295.92"/>
<text xml:space="preserve" text-anchor="middle" x="362.16" y="-280.46" font-family="Sans-Serif" font-size="14.00">Readers</text>
</a>
</g>
</g>
<!-- Readers&#45;&gt;Writers -->
<g id="edge28" class="edge">
<title>Readers&#45;&gt;Writers</title>
<path fill="none" stroke="black" d="M339.77,-276.21C318.72,-267.71 286.96,-254.88 263.04,-245.22"/>
<polygon fill="black" stroke="black" points="264.65,-242.1 254.07,-241.6 262.03,-248.59 264.65,-242.1"/>
</g>
<!-- Readers&#45;&gt;ReadOnly -->
<g id="edge40" class="edge">
<title>Readers&#45;&gt;ReadOnly</title>
<path fill="none" stroke="black" d="M363.65,-276.46C364.76,-269.86 366.33,-260.56 367.75,-252.17"/>
<polygon fill="black" stroke="black" points="371.18,-252.87 369.39,-242.43 364.27,-251.71 371.18,-252.87"/>
</g>
<!-- Readers&#45;&gt;Queries -->
<g id="edge10" class="edge">
<title>Readers&#45;&gt;Queries</title>
<path fill="none" stroke="black" d="M376.75,-276.21C389.6,-268.25 408.57,-256.48 423.73,-247.08"/>
<polygon fill="black" stroke="black" points="425.56,-250.07 432.21,-241.83 421.87,-244.12 425.56,-250.07"/>
</g>
<!-- Groups -->
<g id="node22" class="node">
<title>Groups</title>
<g id="a_node22"><a xlink:href="../groups.html" xlink:title="Groups" target="_top">
<polygon fill="none" stroke="white" points="320.82,-240.6 271.5,-240.6 271.5,-221.28 320.82,-221.28 320.82,-240.6"/>
<text xml:space="preserve" text-anchor="middle" x="296.16" y="-225.14" font-family="Sans-Serif" font-size="14.00">Groups</text>
</a>
</g>
</g>
<!-- Readers&#45;&gt;Groups -->
<g id="edge27" class="edge">
<title>Readers&#45;&gt;Groups</title>
<path fill="none" stroke="black" d="M350.96,-276.21C341.42,-268.51 327.49,-257.25 316.05,-248.01"/>
<polygon fill="black" stroke="black" points="318.35,-245.36 308.37,-241.8 313.95,-250.81 318.35,-245.36"/>
</g>
<!-- H5dfFormat&#45;&gt;CompleteDaf -->
<g id="edge12" class="edge">
<title>H5dfFormat&#45;&gt;CompleteDaf</title>
<path fill="none" stroke="black" d="M325,-165.57C352.84,-156.84 395.23,-143.55 426.3,-133.8"/>
<polygon fill="black" stroke="black" points="427.24,-137.17 435.74,-130.84 425.15,-130.5 427.24,-137.17"/>
</g>
<!-- FilesFormat&#45;&gt;CompleteDaf -->
<g id="edge14" class="edge">
<title>FilesFormat&#45;&gt;CompleteDaf</title>
<path fill="none" stroke="black" d="M496.22,-165.82C491.45,-158.76 484.6,-148.61 478.64,-139.78"/>
<polygon fill="black" stroke="black" points="481.58,-137.88 473.08,-131.55 475.78,-141.8 481.58,-137.88"/>
</g>
<!-- FilesFormat&#45;&gt;ExampleData -->
<g id="edge22" class="edge">
<title>FilesFormat&#45;&gt;ExampleData</title>
<path fill="none" stroke="black" d="M463.65,-165.57C425.42,-156.59 366.63,-142.78 324.88,-132.98"/>
<polygon fill="black" stroke="black" points="325.87,-129.61 315.33,-130.74 324.26,-136.43 325.87,-129.61"/>
</g>
<!-- Contracts&#45;&gt;Computations -->
<g id="edge37" class="edge">
<title>Contracts&#45;&gt;Computations</title>
<path fill="none" stroke="black" d="M536.9,-110.25C513.89,-101.68 479.07,-88.69 453.08,-79"/>
<polygon fill="black" stroke="black" points="454.55,-75.81 443.96,-75.6 452.1,-82.37 454.55,-75.81"/>
</g>
<!-- Formats&#45;&gt;Readers -->
<g id="edge41" class="edge">
<title>Formats&#45;&gt;Readers</title>
<path fill="none" stroke="black" d="M362.16,-331.78C362.16,-325.18 362.16,-315.88 362.16,-307.49"/>
<polygon fill="black" stroke="black" points="365.66,-307.77 362.16,-297.77 358.66,-307.77 365.66,-307.77"/>
</g>
<!-- StorageTypes -->
<g id="node19" class="node">
<title>StorageTypes</title>
<g id="a_node19"><a xlink:href="../storage_types.html" xlink:title="StorageTypes" target="_top">
<polygon fill="none" stroke="white" points="516.32,-406.56 428,-406.56 428,-387.24 516.32,-387.24 516.32,-406.56"/>
<text xml:space="preserve" text-anchor="middle" x="472.16" y="-391.1" font-family="Sans-Serif" font-size="14.00">StorageTypes</text>
</a>
</g>
</g>
<!-- StorageTypes&#45;&gt;Registry -->
<g id="edge24" class="edge">
<title>StorageTypes&#45;&gt;Registry</title>
<path fill="none" stroke="black" d="M472.16,-387.1C472.16,-380.5 472.16,-371.2 472.16,-362.81"/>
<polygon fill="black" stroke="black" points="475.66,-363.09 472.16,-353.09 468.66,-363.09 475.66,-363.09"/>
</g>
<!-- StorageTypes&#45;&gt;Formats -->
<g id="edge18" class="edge">
<title>StorageTypes&#45;&gt;Formats</title>
<path fill="none" stroke="black" d="M453.5,-386.85C436.43,-378.58 410.92,-366.21 391.19,-356.65"/>
<polygon fill="black" stroke="black" points="392.8,-353.54 382.27,-352.33 389.75,-359.84 392.8,-353.54"/>
</g>
<!-- Keys -->
<g id="node20" class="node">
<title>Keys</title>
<g id="a_node20"><a xlink:href="../keys.html" xlink:title="Keys" target="_top">
<polygon fill="none" stroke="white" points="344.32,-406.56 310,-406.56 310,-387.24 344.32,-387.24 344.32,-406.56"/>
<text xml:space="preserve" text-anchor="middle" x="327.16" y="-391.1" font-family="Sans-Serif" font-size="14.00">Keys</text>
</a>
</g>
</g>
<!-- Keys&#45;&gt;Formats -->
<g id="edge19" class="edge">
<title>Keys&#45;&gt;Formats</title>
<path fill="none" stroke="black" d="M332.94,-387.1C337.57,-380.04 344.23,-369.89 350.03,-361.06"/>
<polygon fill="black" stroke="black" points="352.86,-363.12 355.42,-352.84 347.01,-359.28 352.86,-363.12"/>
</g>
</g>
</svg>
