<?xml version="1.0" encoding="UTF-8" standalone="no"?>
<!DOCTYPE svg PUBLIC "-//W3C//DTD SVG 1.1//EN"
 "http://www.w3.org/Graphics/SVG/1.1/DTD/svg11.dtd">
<!-- Generated by graphviz version 13.0.1 (20250615.1724)
 -->
<!-- Pages: 1 -->
<svg width="592pt" height="415pt"
 viewBox="0.00 0.00 592.00 415.00" xmlns="http://www.w3.org/2000/svg" xmlns:xlink="http://www.w3.org/1999/xlink">
<g id="graph0" class="graph" transform="scale(1 1) rotate(0) translate(4 410.56)">
<polygon fill="white" stroke="none" points="-4,4 -4,-410.56 588.32,-410.56 588.32,4 -4,4"/>
<!-- Copies -->
<g id="node1" class="node">
<title>Copies</title>
<g id="a_node1"><a xlink:href="../copies.html" xlink:title="Copies" target="_top">
<polygon fill="none" stroke="white" points="414.32,-185.28 368,-185.28 368,-165.96 414.32,-165.96 414.32,-185.28"/>
<text xml:space="preserve" text-anchor="middle" x="391.16" y="-169.82" font-family="Sans-Serif" font-size="14.00">Copies</text>
</a>
</g>
</g>
<!-- Adapters -->
<g id="node3" class="node">
<title>Adapters</title>
<g id="a_node3"><a xlink:href="../adapters.html" xlink:title="Adapters" target="_top">
<polygon fill="none" stroke="white" points="410.32,-19.32 352,-19.32 352,0 410.32,0 410.32,-19.32"/>
<text xml:space="preserve" text-anchor="middle" x="381.16" y="-3.86" font-family="Sans-Serif" font-size="14.00">Adapters</text>
</a>
</g>
</g>
<!-- Copies&#45;&gt;Adapters -->
<g id="edge2" class="edge">
<title>Copies&#45;&gt;Adapters</title>
<path fill="none" stroke="black" d="M390.62,-165.8C389.08,-140.45 384.59,-66.85 382.39,-30.9"/>
<polygon fill="black" stroke="black" points="385.89,-30.8 381.79,-21.03 378.91,-31.22 385.89,-30.8"/>
</g>
<!-- Concat -->
<g id="node24" class="node">
<title>Concat</title>
<g id="a_node24"><a xlink:href="../concat.html" xlink:title="Concat" target="_top">
<polygon fill="none" stroke="white" points="475.69,-129.96 428.62,-129.96 428.62,-110.64 475.69,-110.64 475.69,-129.96"/>
<text xml:space="preserve" text-anchor="middle" x="452.16" y="-114.5" font-family="Sans-Serif" font-size="14.00">Concat</text>
</a>
</g>
</g>
<!-- Copies&#45;&gt;Concat -->
<g id="edge35" class="edge">
<title>Copies&#45;&gt;Concat</title>
<path fill="none" stroke="black" d="M401.51,-165.57C410.24,-157.95 422.95,-146.83 433.46,-137.65"/>
<polygon fill="black" stroke="black" points="435.6,-140.42 440.83,-131.21 430.99,-135.15 435.6,-140.42"/>
</g>
<!-- Writers -->
<g id="node2" class="node">
<title>Writers</title>
<g id="a_node2"><a xlink:href="../writers.html" xlink:title="Writers" target="_top">
<polygon fill="none" stroke="white" points="293.69,-240.6 246.62,-240.6 246.62,-221.28 293.69,-221.28 293.69,-240.6"/>
<text xml:space="preserve" text-anchor="middle" x="270.16" y="-225.14" font-family="Sans-Serif" font-size="14.00">Writers</text>
</a>
</g>
</g>
<!-- Writers&#45;&gt;Copies -->
<g id="edge1" class="edge">
<title>Writers&#45;&gt;Copies</title>
<path fill="none" stroke="black" d="M290.69,-220.89C309.72,-212.51 338.31,-199.91 360.13,-190.29"/>
<polygon fill="black" stroke="black" points="361.41,-193.56 369.15,-186.32 358.59,-187.15 361.41,-193.56"/>
</g>
<!-- Chains -->
<g id="node4" class="node">
<title>Chains</title>
<g id="a_node4"><a xlink:href="../chains.html" xlink:title="Chains" target="_top">
<polygon fill="none" stroke="white" points="140.32,-185.28 94,-185.28 94,-165.96 140.32,-165.96 140.32,-185.28"/>
<text xml:space="preserve" text-anchor="middle" x="117.16" y="-169.82" font-family="Sans-Serif" font-size="14.00">Chains</text>
</a>
</g>
</g>
<!-- Writers&#45;&gt;Chains -->
<g id="edge29" class="edge">
<title>Writers&#45;&gt;Chains</title>
<path fill="none" stroke="black" d="M246.25,-221.61C220.8,-212.74 180.3,-198.63 151.46,-188.57"/>
<polygon fill="black" stroke="black" points="152.67,-185.29 142.08,-185.3 150.37,-191.9 152.67,-185.29"/>
</g>
<!-- MemoryFormat -->
<g id="node6" class="node">
<title>MemoryFormat</title>
<g id="a_node6"><a xlink:href="../memory_format.html" xlink:title="MemoryFormat" target="_top">
<polygon fill="none" stroke="white" points="350.19,-185.28 252.12,-185.28 252.12,-165.96 350.19,-165.96 350.19,-185.28"/>
<text xml:space="preserve" text-anchor="middle" x="301.16" y="-169.82" font-family="Sans-Serif" font-size="14.00">MemoryFormat</text>
</a>
</g>
</g>
<!-- Writers&#45;&gt;MemoryFormat -->
<g id="edge22" class="edge">
<title>Writers&#45;&gt;MemoryFormat</title>
<path fill="none" stroke="black" d="M275.28,-221.14C279.34,-214.15 285.15,-204.15 290.25,-195.39"/>
<polygon fill="black" stroke="black" points="293.17,-197.33 295.17,-186.92 287.12,-193.81 293.17,-197.33"/>
</g>
<!-- H5dfFormat -->
<g id="node15" class="node">
<title>H5dfFormat</title>
<g id="a_node15"><a xlink:href="../h5df_format.html" xlink:title="H5dfFormat" target="_top">
<polygon fill="none" stroke="white" points="76.32,-185.28 0,-185.28 0,-165.96 76.32,-165.96 76.32,-185.28"/>
<text xml:space="preserve" text-anchor="middle" x="38.16" y="-169.82" font-family="Sans-Serif" font-size="14.00">H5dfFormat</text>
</a>
</g>
</g>
<!-- Writers&#45;&gt;H5dfFormat -->
<g id="edge25" class="edge">
<title>Writers&#45;&gt;H5dfFormat</title>
<path fill="none" stroke="black" d="M246.42,-223.39C243.64,-222.66 240.84,-221.94 238.16,-221.28 187.12,-208.68 128.37,-195.75 87.81,-187.06"/>
<polygon fill="black" stroke="black" points="88.61,-183.65 78.1,-184.99 87.15,-190.5 88.61,-183.65"/>
</g>
<!-- FilesFormat -->
<g id="node16" class="node">
<title>FilesFormat</title>
<g id="a_node16"><a xlink:href="../files_format.html" xlink:title="FilesFormat" target="_top">
<polygon fill="none" stroke="white" points="234.32,-185.28 158,-185.28 158,-165.96 234.32,-165.96 234.32,-185.28"/>
<text xml:space="preserve" text-anchor="middle" x="196.16" y="-169.82" font-family="Sans-Serif" font-size="14.00">FilesFormat</text>
</a>
</g>
</g>
<!-- Writers&#45;&gt;FilesFormat -->
<g id="edge32" class="edge">
<title>Writers&#45;&gt;FilesFormat</title>
<path fill="none" stroke="black" d="M257.61,-220.89C246.7,-213.03 230.66,-201.48 217.7,-192.14"/>
<polygon fill="black" stroke="black" points="219.92,-189.42 209.76,-186.42 215.82,-195.1 219.92,-189.42"/>
</g>
<!-- Reconstruction -->
<g id="node25" class="node">
<title>Reconstruction</title>
<g id="a_node25"><a xlink:href="../reconstruction.html" xlink:title="Reconstruction" target="_top">
<polygon fill="none" stroke="white" points="584.32,-185.28 490,-185.28 490,-165.96 584.32,-165.96 584.32,-185.28"/>
<text xml:space="preserve" text-anchor="middle" x="537.16" y="-169.82" font-family="Sans-Serif" font-size="14.00">Reconstruction</text>
</a>
</g>
</g>
<!-- Writers&#45;&gt;Reconstruction -->
<g id="edge37" class="edge">
<title>Writers&#45;&gt;Reconstruction</title>
<path fill="none" stroke="black" d="M293.85,-225.21C335.37,-216.92 422.35,-199.55 480.27,-187.98"/>
<polygon fill="black" stroke="black" points="480.83,-191.44 489.95,-186.05 479.46,-184.57 480.83,-191.44"/>
</g>
<!-- Chains&#45;&gt;Adapters -->
<g id="edge3" class="edge">
<title>Chains&#45;&gt;Adapters</title>
<path fill="none" stroke="black" d="M93.86,-167.26C67.68,-158.45 27.71,-143.25 19.16,-129.96 14.51,-122.74 13.96,-117.47 19.16,-110.64 58.33,-59.18 254.18,-27.44 340.35,-15.75"/>
<polygon fill="black" stroke="black" points="340.56,-19.26 350.02,-14.47 339.64,-12.32 340.56,-19.26"/>
</g>
<!-- CompleteDaf -->
<g id="node14" class="node">
<title>CompleteDaf</title>
<g id="a_node14"><a xlink:href="../complete.html" xlink:title="CompleteDaf" target="_top">
<polygon fill="none" stroke="white" points="112.07,-129.96 28.25,-129.96 28.25,-110.64 112.07,-110.64 112.07,-129.96"/>
<text xml:space="preserve" text-anchor="middle" x="70.16" y="-114.5" font-family="Sans-Serif" font-size="14.00">CompleteDaf</text>
</a>
</g>
</g>
<!-- Chains&#45;&gt;CompleteDaf -->
<g id="edge13" class="edge">
<title>Chains&#45;&gt;CompleteDaf</title>
<path fill="none" stroke="black" d="M109.4,-165.82C102.97,-158.53 93.65,-147.94 85.7,-138.92"/>
<polygon fill="black" stroke="black" points="88.33,-136.62 79.09,-131.43 83.08,-141.25 88.33,-136.62"/>
</g>
<!-- ExampleData -->
<g id="node21" class="node">
<title>ExampleData</title>
<g id="a_node21"><a xlink:href="../example_data.html" xlink:title="ExampleData" target="_top">
<polygon fill="none" stroke="white" points="216.19,-129.96 130.12,-129.96 130.12,-110.64 216.19,-110.64 216.19,-129.96"/>
<text xml:space="preserve" text-anchor="middle" x="173.16" y="-114.5" font-family="Sans-Serif" font-size="14.00">ExampleData</text>
</a>
</g>
</g>
<!-- Chains&#45;&gt;ExampleData -->
<g id="edge20" class="edge">
<title>Chains&#45;&gt;ExampleData</title>
<path fill="none" stroke="black" d="M126.66,-165.57C134.59,-158.02 146.11,-147.06 155.7,-137.93"/>
<polygon fill="black" stroke="black" points="157.88,-140.69 162.7,-131.26 153.05,-135.62 157.88,-140.69"/>
</g>
<!-- Computations -->
<g id="node5" class="node">
<title>Computations</title>
<g id="a_node5"><a xlink:href="../computations.html" xlink:title="Computations" target="_top">
<polygon fill="none" stroke="white" points="542.32,-74.64 454,-74.64 454,-55.32 542.32,-55.32 542.32,-74.64"/>
<text xml:space="preserve" text-anchor="middle" x="498.16" y="-59.18" font-family="Sans-Serif" font-size="14.00">Computations</text>
</a>
</g>
</g>
<!-- Computations&#45;&gt;Adapters -->
<g id="edge4" class="edge">
<title>Computations&#45;&gt;Adapters</title>
<path fill="none" stroke="black" d="M478.31,-54.93C459.99,-46.59 432.51,-34.06 411.45,-24.46"/>
<polygon fill="black" stroke="black" points="413.03,-21.34 402.48,-20.38 410.13,-27.71 413.03,-21.34"/>
</g>
<!-- MemoryFormat&#45;&gt;Adapters -->
<g id="edge5" class="edge">
<title>MemoryFormat&#45;&gt;Adapters</title>
<path fill="none" stroke="black" d="M311.89,-165.73C321.34,-157.38 334.85,-144.09 343.16,-129.96 362.02,-97.89 372.65,-55.37 377.62,-30.71"/>
<polygon fill="black" stroke="black" points="381.02,-31.56 379.44,-21.09 374.14,-30.26 381.02,-31.56"/>
</g>
<!-- MemoryFormat&#45;&gt;ExampleData -->
<g id="edge21" class="edge">
<title>MemoryFormat&#45;&gt;ExampleData</title>
<path fill="none" stroke="black" d="M279.45,-165.57C259.13,-157.11 228.51,-144.36 205.35,-134.71"/>
<polygon fill="black" stroke="black" points="206.95,-131.59 196.38,-130.97 204.26,-138.05 206.95,-131.59"/>
</g>
<!-- AnnDataFormat -->
<g id="node23" class="node">
<title>AnnDataFormat</title>
<g id="a_node23"><a xlink:href="../anndata_format.html" xlink:title="AnnDataFormat" target="_top">
<polygon fill="none" stroke="white" points="334.32,-129.96 234,-129.96 234,-110.64 334.32,-110.64 334.32,-129.96"/>
<text xml:space="preserve" text-anchor="middle" x="284.16" y="-114.5" font-family="Sans-Serif" font-size="14.00">AnnDataFormat</text>
</a>
</g>
</g>
<!-- MemoryFormat&#45;&gt;AnnDataFormat -->
<g id="edge30" class="edge">
<title>MemoryFormat&#45;&gt;AnnDataFormat</title>
<path fill="none" stroke="black" d="M298.35,-165.82C296.22,-159.14 293.22,-149.7 290.52,-141.23"/>
<polygon fill="black" stroke="black" points="293.86,-140.2 287.49,-131.74 287.19,-142.33 293.86,-140.2"/>
</g>
<!-- Views -->
<g id="node7" class="node">
<title>Views</title>
<g id="a_node7"><a xlink:href="../views.html" xlink:title="Views" target="_top">
<polygon fill="none" stroke="white" points="472.32,-185.28 432,-185.28 432,-165.96 472.32,-165.96 472.32,-185.28"/>
<text xml:space="preserve" text-anchor="middle" x="452.16" y="-169.82" font-family="Sans-Serif" font-size="14.00">Views</text>
</a>
</g>
</g>
<!-- Contracts -->
<g id="node17" class="node">
<title>Contracts</title>
<g id="a_node17"><a xlink:href="../contracts.html" xlink:title="Contracts" target="_top">
<polygon fill="none" stroke="white" points="556.19,-129.96 494.12,-129.96 494.12,-110.64 556.19,-110.64 556.19,-129.96"/>
<text xml:space="preserve" text-anchor="middle" x="525.16" y="-114.5" font-family="Sans-Serif" font-size="14.00">Contracts</text>
</a>
</g>
</g>
<!-- Views&#45;&gt;Contracts -->
<g id="edge15" class="edge">
<title>Views&#45;&gt;Contracts</title>
<path fill="none" stroke="black" d="M464.54,-165.57C475.31,-157.71 491.13,-146.16 503.91,-136.82"/>
<polygon fill="black" stroke="black" points="505.73,-139.83 511.74,-131.1 501.6,-134.18 505.73,-139.83"/>
</g>
<!-- Views&#45;&gt;Concat -->
<g id="edge34" class="edge">
<title>Views&#45;&gt;Concat</title>
<path fill="none" stroke="black" d="M452.16,-165.82C452.16,-159.22 452.16,-149.92 452.16,-141.53"/>
<polygon fill="black" stroke="black" points="455.66,-141.81 452.16,-131.81 448.66,-141.81 455.66,-141.81"/>
</g>
<!-- ReadOnly -->
<g id="node8" class="node">
<title>ReadOnly</title>
<g id="a_node8"><a xlink:href="../read_only.html" xlink:title="ReadOnly" target="_top">
<polygon fill="none" stroke="white" points="228.69,-240.6 163.62,-240.6 163.62,-221.28 228.69,-221.28 228.69,-240.6"/>
<text xml:space="preserve" text-anchor="middle" x="196.16" y="-225.14" font-family="Sans-Serif" font-size="14.00">ReadOnly</text>
</a>
</g>
</g>
<!-- ReadOnly&#45;&gt;Chains -->
<g id="edge28" class="edge">
<title>ReadOnly&#45;&gt;Chains</title>
<path fill="none" stroke="black" d="M182.76,-220.89C171.07,-213.01 153.86,-201.39 140,-192.04"/>
<polygon fill="black" stroke="black" points="142.13,-189.25 131.88,-186.56 138.21,-195.05 142.13,-189.25"/>
</g>
<!-- ReadOnly&#45;&gt;Views -->
<g id="edge6" class="edge">
<title>ReadOnly&#45;&gt;Views</title>
<path fill="none" stroke="black" d="M228.82,-222.99C231.64,-222.4 234.45,-221.83 237.16,-221.28 316.3,-205.26 339.5,-205.32 420.87,-185.66"/>
<polygon fill="black" stroke="black" points="421.28,-189.16 430.16,-183.38 419.62,-182.36 421.28,-189.16"/>
</g>
<!-- ReadOnly&#45;&gt;H5dfFormat -->
<g id="edge24" class="edge">
<title>ReadOnly&#45;&gt;H5dfFormat</title>
<path fill="none" stroke="black" d="M169.36,-220.89C143.71,-212.24 104.77,-199.1 75.97,-189.38"/>
<polygon fill="black" stroke="black" points="77.12,-186.07 66.53,-186.19 74.88,-192.71 77.12,-186.07"/>
</g>
<!-- ReadOnly&#45;&gt;FilesFormat -->
<g id="edge31" class="edge">
<title>ReadOnly&#45;&gt;FilesFormat</title>
<path fill="none" stroke="black" d="M196.16,-221.14C196.16,-214.54 196.16,-205.24 196.16,-196.85"/>
<polygon fill="black" stroke="black" points="199.66,-197.13 196.16,-187.13 192.66,-197.13 199.66,-197.13"/>
</g>
<!-- Queries -->
<g id="node9" class="node">
<title>Queries</title>
<g id="a_node9"><a xlink:href="../queries.html" xlink:title="Queries" target="_top">
<polygon fill="none" stroke="white" points="447.32,-240.6 395,-240.6 395,-221.28 447.32,-221.28 447.32,-240.6"/>
<text xml:space="preserve" text-anchor="middle" x="421.16" y="-225.14" font-family="Sans-Serif" font-size="14.00">Queries</text>
</a>
</g>
</g>
<!-- Queries&#45;&gt;Views -->
<g id="edge7" class="edge">
<title>Queries&#45;&gt;Views</title>
<path fill="none" stroke="black" d="M426.28,-221.14C430.34,-214.15 436.15,-204.15 441.25,-195.39"/>
<polygon fill="black" stroke="black" points="444.17,-197.33 446.17,-186.92 438.12,-193.81 444.17,-197.33"/>
</g>
<!-- Queries&#45;&gt;Reconstruction -->
<g id="edge38" class="edge">
<title>Queries&#45;&gt;Reconstruction</title>
<path fill="none" stroke="black" d="M440.84,-220.89C459,-212.55 486.24,-200.02 507.13,-190.42"/>
<polygon fill="black" stroke="black" points="508.39,-193.7 516.01,-186.34 505.46,-187.34 508.39,-193.7"/>
</g>
<!-- Operations -->
<g id="node10" class="node">
<title>Operations</title>
<g id="a_node10"><a xlink:href="../operations.html" xlink:title="Operations" target="_top">
<polygon fill="none" stroke="white" points="390.69,-295.92 319.62,-295.92 319.62,-276.6 390.69,-276.6 390.69,-295.92"/>
<text xml:space="preserve" text-anchor="middle" x="355.16" y="-280.46" font-family="Sans-Serif" font-size="14.00">Operations</text>
</a>
</g>
</g>
<!-- Operations&#45;&gt;Queries -->
<g id="edge11" class="edge">
<title>Operations&#45;&gt;Queries</title>
<path fill="none" stroke="black" d="M366.36,-276.21C375.9,-268.51 389.83,-257.25 401.27,-248.01"/>
<polygon fill="black" stroke="black" points="403.37,-250.81 408.95,-241.8 398.97,-245.36 403.37,-250.81"/>
</g>
<!-- Operations&#45;&gt;FilesFormat -->
<g id="edge33" class="edge">
<title>Operations&#45;&gt;FilesFormat</title>
<path fill="none" stroke="black" d="M349.87,-276.22C341.51,-262.63 324.03,-236.88 303.16,-221.28 284.3,-207.18 260.33,-196.64 239.87,-189.36"/>
<polygon fill="black" stroke="black" points="241.25,-186.13 230.65,-186.23 239,-192.76 241.25,-186.13"/>
</g>
<!-- Tokens -->
<g id="node11" class="node">
<title>Tokens</title>
<g id="a_node11"><a xlink:href="../tokens.html" xlink:title="Tokens" target="_top">
<polygon fill="none" stroke="white" points="401.69,-406.56 354.62,-406.56 354.62,-387.24 401.69,-387.24 401.69,-406.56"/>
<text xml:space="preserve" text-anchor="middle" x="378.16" y="-391.1" font-family="Sans-Serif" font-size="14.00">Tokens</text>
</a>
</g>
</g>
<!-- Tokens&#45;&gt;Operations -->
<g id="edge8" class="edge">
<title>Tokens&#45;&gt;Operations</title>
<path fill="none" stroke="black" d="M376.28,-387.01C372.62,-369.74 364.48,-331.27 359.44,-307.48"/>
<polygon fill="black" stroke="black" points="362.88,-306.81 357.38,-297.75 356.03,-308.26 362.88,-306.81"/>
</g>
<!-- Formats -->
<g id="node18" class="node">
<title>Formats</title>
<g id="a_node18"><a xlink:href="../formats.html" xlink:title="Formats" target="_top">
<polygon fill="none" stroke="white" points="278.44,-351.24 223.88,-351.24 223.88,-331.92 278.44,-331.92 278.44,-351.24"/>
<text xml:space="preserve" text-anchor="middle" x="251.16" y="-335.78" font-family="Sans-Serif" font-size="14.00">Formats</text>
</a>
</g>
</g>
<!-- Tokens&#45;&gt;Formats -->
<g id="edge17" class="edge">
<title>Tokens&#45;&gt;Formats</title>
<path fill="none" stroke="black" d="M356.62,-386.85C336.55,-378.43 306.36,-365.75 283.41,-356.12"/>
<polygon fill="black" stroke="black" points="284.78,-352.9 274.21,-352.26 282.07,-359.35 284.78,-352.9"/>
</g>
<!-- Registry -->
<g id="node12" class="node">
<title>Registry</title>
<g id="a_node12"><a xlink:href="../registry.html" xlink:title="Registry" target="_top">
<polygon fill="none" stroke="white" points="350.07,-351.24 296.25,-351.24 296.25,-331.92 350.07,-331.92 350.07,-351.24"/>
<text xml:space="preserve" text-anchor="middle" x="323.16" y="-335.78" font-family="Sans-Serif" font-size="14.00">Registry</text>
</a>
</g>
</g>
<!-- Registry&#45;&gt;Operations -->
<g id="edge9" class="edge">
<title>Registry&#45;&gt;Operations</title>
<path fill="none" stroke="black" d="M328.44,-331.78C332.63,-324.79 338.64,-314.79 343.89,-306.03"/>
<polygon fill="black" stroke="black" points="346.84,-307.93 348.98,-297.55 340.84,-304.33 346.84,-307.93"/>
</g>
<!-- Readers -->
<g id="node13" class="node">
<title>Readers</title>
<g id="a_node13"><a xlink:href="../readers.html" xlink:title="Readers" target="_top">
<polygon fill="none" stroke="white" points="278.82,-295.92 223.5,-295.92 223.5,-276.6 278.82,-276.6 278.82,-295.92"/>
<text xml:space="preserve" text-anchor="middle" x="251.16" y="-280.46" font-family="Sans-Serif" font-size="14.00">Readers</text>
</a>
</g>
</g>
<!-- Readers&#45;&gt;Writers -->
<g id="edge27" class="edge">
<title>Readers&#45;&gt;Writers</title>
<path fill="none" stroke="black" d="M254.3,-276.46C256.7,-269.7 260.12,-260.13 263.16,-251.58"/>
<polygon fill="black" stroke="black" points="266.39,-252.96 266.45,-242.36 259.79,-250.61 266.39,-252.96"/>
</g>
<!-- Readers&#45;&gt;ReadOnly -->
<g id="edge39" class="edge">
<title>Readers&#45;&gt;ReadOnly</title>
<path fill="none" stroke="black" d="M242.08,-276.46C234.32,-268.94 222.95,-257.91 213.46,-248.71"/>
<polygon fill="black" stroke="black" points="216.14,-246.44 206.53,-241.99 211.27,-251.46 216.14,-246.44"/>
</g>
<!-- Readers&#45;&gt;Queries -->
<g id="edge10" class="edge">
<title>Readers&#45;&gt;Queries</title>
<path fill="none" stroke="black" d="M279.23,-276.46C307.79,-267.5 352.21,-253.57 383.74,-243.68"/>
<polygon fill="black" stroke="black" points="384.79,-247.02 393.28,-240.68 382.69,-240.34 384.79,-247.02"/>
</g>
<!-- Groups -->
<g id="node22" class="node">
<title>Groups</title>
<g id="a_node22"><a xlink:href="../groups.html" xlink:title="Groups" target="_top">
<polygon fill="none" stroke="white" points="145.82,-240.6 96.5,-240.6 96.5,-221.28 145.82,-221.28 145.82,-240.6"/>
<text xml:space="preserve" text-anchor="middle" x="121.16" y="-225.14" font-family="Sans-Serif" font-size="14.00">Groups</text>
</a>
</g>
</g>
<!-- Readers&#45;&gt;Groups -->
<g id="edge26" class="edge">
<title>Readers&#45;&gt;Groups</title>
<path fill="none" stroke="black" d="M229.11,-276.21C208.47,-267.75 177.38,-255 153.86,-245.35"/>
<polygon fill="black" stroke="black" points="155.3,-242.16 144.72,-241.6 152.65,-248.64 155.3,-242.16"/>
</g>
<!-- H5dfFormat&#45;&gt;CompleteDaf -->
<g id="edge12" class="edge">
<title>H5dfFormat&#45;&gt;CompleteDaf</title>
<path fill="none" stroke="black" d="M43.44,-165.82C47.63,-158.83 53.64,-148.83 58.89,-140.07"/>
<polygon fill="black" stroke="black" points="61.84,-141.97 63.98,-131.59 55.84,-138.37 61.84,-141.97"/>
</g>
<!-- FilesFormat&#45;&gt;CompleteDaf -->
<g id="edge14" class="edge">
<title>FilesFormat&#45;&gt;CompleteDaf</title>
<path fill="none" stroke="black" d="M174.79,-165.57C154.87,-157.15 124.92,-144.47 102.16,-134.84"/>
<polygon fill="black" stroke="black" points="103.61,-131.65 93.03,-130.98 100.88,-138.1 103.61,-131.65"/>
</g>
<!-- FilesFormat&#45;&gt;ExampleData -->
<g id="edge19" class="edge">
<title>FilesFormat&#45;&gt;ExampleData</title>
<path fill="none" stroke="black" d="M192.36,-165.82C189.42,-158.99 185.22,-149.27 181.51,-140.65"/>
<polygon fill="black" stroke="black" points="184.81,-139.48 177.64,-131.69 178.39,-142.25 184.81,-139.48"/>
</g>
<!-- Contracts&#45;&gt;Computations -->
<g id="edge36" class="edge">
<title>Contracts&#45;&gt;Computations</title>
<path fill="none" stroke="black" d="M520.7,-110.5C517.21,-103.59 512.21,-93.73 507.81,-85.04"/>
<polygon fill="black" stroke="black" points="511.04,-83.67 503.4,-76.33 504.79,-86.83 511.04,-83.67"/>
</g>
<!-- Formats&#45;&gt;Readers -->
<g id="edge40" class="edge">
<title>Formats&#45;&gt;Readers</title>
<path fill="none" stroke="black" d="M251.16,-331.78C251.16,-325.18 251.16,-315.88 251.16,-307.49"/>
<polygon fill="black" stroke="black" points="254.66,-307.77 251.16,-297.77 247.66,-307.77 254.66,-307.77"/>
</g>
<!-- StorageTypes -->
<g id="node19" class="node">
<title>StorageTypes</title>
<g id="a_node19"><a xlink:href="../storage_types.html" xlink:title="StorageTypes" target="_top">
<polygon fill="none" stroke="white" points="336.32,-406.56 248,-406.56 248,-387.24 336.32,-387.24 336.32,-406.56"/>
<text xml:space="preserve" text-anchor="middle" x="292.16" y="-391.1" font-family="Sans-Serif" font-size="14.00">StorageTypes</text>
</a>
</g>
</g>
<!-- StorageTypes&#45;&gt;Registry -->
<g id="edge23" class="edge">
<title>StorageTypes&#45;&gt;Registry</title>
<path fill="none" stroke="black" d="M297.28,-387.1C301.34,-380.11 307.15,-370.11 312.25,-361.35"/>
<polygon fill="black" stroke="black" points="315.17,-363.29 317.17,-352.88 309.12,-359.77 315.17,-363.29"/>
</g>
<!-- StorageTypes&#45;&gt;Formats -->
<g id="edge16" class="edge">
<title>StorageTypes&#45;&gt;Formats</title>
<path fill="none" stroke="black" d="M285.39,-387.1C279.84,-379.88 271.82,-369.45 264.93,-360.49"/>
<polygon fill="black" stroke="black" points="267.87,-358.57 259,-352.78 262.32,-362.84 267.87,-358.57"/>
</g>
<!-- Keys -->
<g id="node20" class="node">
<title>Keys</title>
<g id="a_node20"><a xlink:href="../keys.html" xlink:title="Keys" target="_top">
<polygon fill="none" stroke="white" points="230.32,-406.56 196,-406.56 196,-387.24 230.32,-387.24 230.32,-406.56"/>
<text xml:space="preserve" text-anchor="middle" x="213.16" y="-391.1" font-family="Sans-Serif" font-size="14.00">Keys</text>
</a>
</g>
</g>
<!-- Keys&#45;&gt;Formats -->
<g id="edge18" class="edge">
<title>Keys&#45;&gt;Formats</title>
<path fill="none" stroke="black" d="M219.43,-387.1C224.52,-379.96 231.86,-369.67 238.19,-360.78"/>
<polygon fill="black" stroke="black" points="240.92,-362.98 243.87,-352.81 235.22,-358.92 240.92,-362.98"/>
</g>
</g>
</svg>
