<?xml version="1.0" encoding="UTF-8" standalone="no"?>
<!DOCTYPE svg PUBLIC "-//W3C//DTD SVG 1.1//EN"
 "http://www.w3.org/Graphics/SVG/1.1/DTD/svg11.dtd">
<!-- Generated by graphviz version 13.0.1 (20250615.1724)
 -->
<!-- Pages: 1 -->
<svg width="596pt" height="415pt"
 viewBox="0.00 0.00 596.00 415.00" xmlns="http://www.w3.org/2000/svg" xmlns:xlink="http://www.w3.org/1999/xlink">
<g id="graph0" class="graph" transform="scale(1 1) rotate(0) translate(4 410.56)">
<polygon fill="white" stroke="none" points="-4,4 -4,-410.56 592.07,-410.56 592.07,4 -4,4"/>
<!-- Copies -->
<g id="node1" class="node">
<title>Copies</title>
<g id="a_node1"><a xlink:href="../copies.html" xlink:title="Copies" target="_top">
<polygon fill="none" stroke="white" points="418.07,-185.28 371.75,-185.28 371.75,-165.96 418.07,-165.96 418.07,-185.28"/>
<text xml:space="preserve" text-anchor="middle" x="394.91" y="-169.82" font-family="Sans-Serif" font-size="14.00">Copies</text>
</a>
</g>
</g>
<!-- Adapters -->
<g id="node3" class="node">
<title>Adapters</title>
<g id="a_node3"><a xlink:href="../adapters.html" xlink:title="Adapters" target="_top">
<polygon fill="none" stroke="white" points="420.07,-19.32 361.75,-19.32 361.75,0 420.07,0 420.07,-19.32"/>
<text xml:space="preserve" text-anchor="middle" x="390.91" y="-3.86" font-family="Sans-Serif" font-size="14.00">Adapters</text>
</a>
</g>
</g>
<!-- Copies&#45;&gt;Adapters -->
<g id="edge3" class="edge">
<title>Copies&#45;&gt;Adapters</title>
<path fill="none" stroke="black" d="M394.69,-165.8C394.08,-140.45 392.28,-66.85 391.4,-30.9"/>
<polygon fill="black" stroke="black" points="394.91,-30.94 391.16,-21.03 387.91,-31.11 394.91,-30.94"/>
</g>
<!-- Concat -->
<g id="node24" class="node">
<title>Concat</title>
<g id="a_node24"><a xlink:href="../concat.html" xlink:title="Concat" target="_top">
<polygon fill="none" stroke="white" points="485.44,-129.96 438.37,-129.96 438.37,-110.64 485.44,-110.64 485.44,-129.96"/>
<text xml:space="preserve" text-anchor="middle" x="461.91" y="-114.5" font-family="Sans-Serif" font-size="14.00">Concat</text>
</a>
</g>
</g>
<!-- Copies&#45;&gt;Concat -->
<g id="edge34" class="edge">
<title>Copies&#45;&gt;Concat</title>
<path fill="none" stroke="black" d="M406.28,-165.57C415.96,-157.87 430.11,-146.61 441.72,-137.37"/>
<polygon fill="black" stroke="black" points="443.88,-140.12 449.53,-131.15 439.52,-134.64 443.88,-140.12"/>
</g>
<!-- Writers -->
<g id="node2" class="node">
<title>Writers</title>
<g id="a_node2"><a xlink:href="../writers.html" xlink:title="Writers" target="_top">
<polygon fill="none" stroke="white" points="312.44,-240.6 265.37,-240.6 265.37,-221.28 312.44,-221.28 312.44,-240.6"/>
<text xml:space="preserve" text-anchor="middle" x="288.91" y="-225.14" font-family="Sans-Serif" font-size="14.00">Writers</text>
</a>
</g>
</g>
<!-- Writers&#45;&gt;Copies -->
<g id="edge1" class="edge">
<title>Writers&#45;&gt;Copies</title>
<path fill="none" stroke="black" d="M306.89,-220.89C323.26,-212.66 347.7,-200.37 366.67,-190.82"/>
<polygon fill="black" stroke="black" points="368.13,-194.01 375.49,-186.39 364.98,-187.76 368.13,-194.01"/>
</g>
<!-- Chains -->
<g id="node5" class="node">
<title>Chains</title>
<g id="a_node5"><a xlink:href="../chains.html" xlink:title="Chains" target="_top">
<polygon fill="none" stroke="white" points="238.07,-185.28 191.75,-185.28 191.75,-165.96 238.07,-165.96 238.07,-185.28"/>
<text xml:space="preserve" text-anchor="middle" x="214.91" y="-169.82" font-family="Sans-Serif" font-size="14.00">Chains</text>
</a>
</g>
</g>
<!-- Writers&#45;&gt;Chains -->
<g id="edge28" class="edge">
<title>Writers&#45;&gt;Chains</title>
<path fill="none" stroke="black" d="M276.36,-220.89C265.45,-213.03 249.41,-201.48 236.45,-192.14"/>
<polygon fill="black" stroke="black" points="238.67,-189.42 228.51,-186.42 234.57,-195.1 238.67,-189.42"/>
</g>
<!-- MemoryFormat -->
<g id="node6" class="node">
<title>MemoryFormat</title>
<g id="a_node6"><a xlink:href="../memory_format.html" xlink:title="MemoryFormat" target="_top">
<polygon fill="none" stroke="white" points="353.94,-185.28 255.87,-185.28 255.87,-165.96 353.94,-165.96 353.94,-185.28"/>
<text xml:space="preserve" text-anchor="middle" x="304.91" y="-169.82" font-family="Sans-Serif" font-size="14.00">MemoryFormat</text>
</a>
</g>
</g>
<!-- Writers&#45;&gt;MemoryFormat -->
<g id="edge22" class="edge">
<title>Writers&#45;&gt;MemoryFormat</title>
<path fill="none" stroke="black" d="M291.55,-221.14C293.55,-214.46 296.39,-205.02 298.93,-196.55"/>
<polygon fill="black" stroke="black" points="302.25,-197.65 301.78,-187.07 295.55,-195.64 302.25,-197.65"/>
</g>
<!-- H5dfFormat -->
<g id="node15" class="node">
<title>H5dfFormat</title>
<g id="a_node15"><a xlink:href="../h5df_format.html" xlink:title="H5dfFormat" target="_top">
<polygon fill="none" stroke="white" points="174.07,-185.28 97.75,-185.28 97.75,-165.96 174.07,-165.96 174.07,-185.28"/>
<text xml:space="preserve" text-anchor="middle" x="135.91" y="-169.82" font-family="Sans-Serif" font-size="14.00">H5dfFormat</text>
</a>
</g>
</g>
<!-- Writers&#45;&gt;H5dfFormat -->
<g id="edge24" class="edge">
<title>Writers&#45;&gt;H5dfFormat</title>
<path fill="none" stroke="black" d="M265,-221.61C240.3,-213 201.4,-199.44 172.76,-189.46"/>
<polygon fill="black" stroke="black" points="173.98,-186.18 163.38,-186.19 171.67,-192.79 173.98,-186.18"/>
</g>
<!-- FilesFormat -->
<g id="node16" class="node">
<title>FilesFormat</title>
<g id="a_node16"><a xlink:href="../files_format.html" xlink:title="FilesFormat" target="_top">
<polygon fill="none" stroke="white" points="80.07,-185.28 3.75,-185.28 3.75,-165.96 80.07,-165.96 80.07,-185.28"/>
<text xml:space="preserve" text-anchor="middle" x="41.91" y="-169.82" font-family="Sans-Serif" font-size="14.00">FilesFormat</text>
</a>
</g>
</g>
<!-- Writers&#45;&gt;FilesFormat -->
<g id="edge31" class="edge">
<title>Writers&#45;&gt;FilesFormat</title>
<path fill="none" stroke="black" d="M265.18,-223.35C262.4,-222.63 259.6,-221.92 256.91,-221.28 200.58,-207.82 135.39,-194.61 91.69,-186.09"/>
<polygon fill="black" stroke="black" points="92.48,-182.68 82,-184.21 91.15,-189.55 92.48,-182.68"/>
</g>
<!-- Reconstruction -->
<g id="node25" class="node">
<title>Reconstruction</title>
<g id="a_node25"><a xlink:href="../reconstruction.html" xlink:title="Reconstruction" target="_top">
<polygon fill="none" stroke="white" points="588.07,-185.28 493.75,-185.28 493.75,-165.96 588.07,-165.96 588.07,-185.28"/>
<text xml:space="preserve" text-anchor="middle" x="540.91" y="-169.82" font-family="Sans-Serif" font-size="14.00">Reconstruction</text>
</a>
</g>
</g>
<!-- Writers&#45;&gt;Reconstruction -->
<g id="edge37" class="edge">
<title>Writers&#45;&gt;Reconstruction</title>
<path fill="none" stroke="black" d="M312.62,-224.92C352.2,-216.55 432.7,-199.52 486.74,-188.08"/>
<polygon fill="black" stroke="black" points="487.31,-191.54 496.37,-186.04 485.86,-184.69 487.31,-191.54"/>
</g>
<!-- Computations -->
<g id="node4" class="node">
<title>Computations</title>
<g id="a_node4"><a xlink:href="../computations.html" xlink:title="Computations" target="_top">
<polygon fill="none" stroke="white" points="552.07,-74.64 463.75,-74.64 463.75,-55.32 552.07,-55.32 552.07,-74.64"/>
<text xml:space="preserve" text-anchor="middle" x="507.91" y="-59.18" font-family="Sans-Serif" font-size="14.00">Computations</text>
</a>
</g>
</g>
<!-- Computations&#45;&gt;Adapters -->
<g id="edge2" class="edge">
<title>Computations&#45;&gt;Adapters</title>
<path fill="none" stroke="black" d="M488.06,-54.93C469.74,-46.59 442.26,-34.06 421.2,-24.46"/>
<polygon fill="black" stroke="black" points="422.78,-21.34 412.23,-20.38 419.88,-27.71 422.78,-21.34"/>
</g>
<!-- Chains&#45;&gt;Adapters -->
<g id="edge4" class="edge">
<title>Chains&#45;&gt;Adapters</title>
<path fill="none" stroke="black" d="M191.38,-168C160.53,-158.08 112.38,-137.61 130.91,-110.64 180.58,-38.32 290.41,-18.29 350.2,-12.76"/>
<polygon fill="black" stroke="black" points="350.27,-16.27 359.95,-11.96 349.7,-9.29 350.27,-16.27"/>
</g>
<!-- CompleteDaf -->
<g id="node14" class="node">
<title>CompleteDaf</title>
<g id="a_node14"><a xlink:href="../complete.html" xlink:title="CompleteDaf" target="_top">
<polygon fill="none" stroke="white" points="83.82,-129.96 0,-129.96 0,-110.64 83.82,-110.64 83.82,-129.96"/>
<text xml:space="preserve" text-anchor="middle" x="41.91" y="-114.5" font-family="Sans-Serif" font-size="14.00">CompleteDaf</text>
</a>
</g>
</g>
<!-- Chains&#45;&gt;CompleteDaf -->
<g id="edge14" class="edge">
<title>Chains&#45;&gt;CompleteDaf</title>
<path fill="none" stroke="black" d="M191.58,-167.43C163.65,-158.82 116.42,-144.26 82.47,-133.8"/>
<polygon fill="black" stroke="black" points="83.55,-130.47 72.97,-130.87 81.49,-137.16 83.55,-130.47"/>
</g>
<!-- ExampleData -->
<g id="node21" class="node">
<title>ExampleData</title>
<g id="a_node21"><a xlink:href="../example_data.html" xlink:title="ExampleData" target="_top">
<polygon fill="none" stroke="white" points="225.94,-129.96 139.88,-129.96 139.88,-110.64 225.94,-110.64 225.94,-129.96"/>
<text xml:space="preserve" text-anchor="middle" x="182.91" y="-114.5" font-family="Sans-Serif" font-size="14.00">ExampleData</text>
</a>
</g>
</g>
<!-- Chains&#45;&gt;ExampleData -->
<g id="edge20" class="edge">
<title>Chains&#45;&gt;ExampleData</title>
<path fill="none" stroke="black" d="M209.63,-165.82C205.44,-158.83 199.43,-148.83 194.18,-140.07"/>
<polygon fill="black" stroke="black" points="197.23,-138.37 189.09,-131.59 191.23,-141.97 197.23,-138.37"/>
</g>
<!-- MemoryFormat&#45;&gt;Adapters -->
<g id="edge5" class="edge">
<title>MemoryFormat&#45;&gt;Adapters</title>
<path fill="none" stroke="black" d="M317.65,-165.73C328.46,-157.58 343.65,-144.57 352.91,-129.96 372.83,-98.53 383.1,-55.8 387.72,-30.93"/>
<polygon fill="black" stroke="black" points="391.15,-31.64 389.39,-21.2 384.25,-30.46 391.15,-31.64"/>
</g>
<!-- MemoryFormat&#45;&gt;ExampleData -->
<g id="edge21" class="edge">
<title>MemoryFormat&#45;&gt;ExampleData</title>
<path fill="none" stroke="black" d="M284.21,-165.57C265.02,-157.19 236.2,-144.59 214.19,-134.97"/>
<polygon fill="black" stroke="black" points="215.66,-131.79 205.09,-131 212.86,-138.21 215.66,-131.79"/>
</g>
<!-- AnnDataFormat -->
<g id="node23" class="node">
<title>AnnDataFormat</title>
<g id="a_node23"><a xlink:href="../anndata_format.html" xlink:title="AnnDataFormat" target="_top">
<polygon fill="none" stroke="white" points="344.07,-129.96 243.75,-129.96 243.75,-110.64 344.07,-110.64 344.07,-129.96"/>
<text xml:space="preserve" text-anchor="middle" x="293.91" y="-114.5" font-family="Sans-Serif" font-size="14.00">AnnDataFormat</text>
</a>
</g>
</g>
<!-- MemoryFormat&#45;&gt;AnnDataFormat -->
<g id="edge30" class="edge">
<title>MemoryFormat&#45;&gt;AnnDataFormat</title>
<path fill="none" stroke="black" d="M303.09,-165.82C301.73,-159.22 299.81,-149.92 298.08,-141.53"/>
<polygon fill="black" stroke="black" points="301.52,-140.86 296.07,-131.78 294.66,-142.28 301.52,-140.86"/>
</g>
<!-- Views -->
<g id="node7" class="node">
<title>Views</title>
<g id="a_node7"><a xlink:href="../views.html" xlink:title="Views" target="_top">
<polygon fill="none" stroke="white" points="476.07,-185.28 435.75,-185.28 435.75,-165.96 476.07,-165.96 476.07,-185.28"/>
<text xml:space="preserve" text-anchor="middle" x="455.91" y="-169.82" font-family="Sans-Serif" font-size="14.00">Views</text>
</a>
</g>
</g>
<!-- Contracts -->
<g id="node17" class="node">
<title>Contracts</title>
<g id="a_node17"><a xlink:href="../contracts.html" xlink:title="Contracts" target="_top">
<polygon fill="none" stroke="white" points="565.94,-129.96 503.87,-129.96 503.87,-110.64 565.94,-110.64 565.94,-129.96"/>
<text xml:space="preserve" text-anchor="middle" x="534.91" y="-114.5" font-family="Sans-Serif" font-size="14.00">Contracts</text>
</a>
</g>
</g>
<!-- Views&#45;&gt;Contracts -->
<g id="edge15" class="edge">
<title>Views&#45;&gt;Contracts</title>
<path fill="none" stroke="black" d="M469.31,-165.57C481,-157.69 498.21,-146.07 512.07,-136.72"/>
<polygon fill="black" stroke="black" points="513.86,-139.73 520.19,-131.24 509.94,-133.93 513.86,-139.73"/>
</g>
<!-- Views&#45;&gt;Concat -->
<g id="edge35" class="edge">
<title>Views&#45;&gt;Concat</title>
<path fill="none" stroke="black" d="M456.9,-165.82C457.64,-159.22 458.69,-149.92 459.63,-141.53"/>
<polygon fill="black" stroke="black" points="463.09,-142.13 460.73,-131.8 456.13,-141.35 463.09,-142.13"/>
</g>
<!-- ReadOnly -->
<g id="node8" class="node">
<title>ReadOnly</title>
<g id="a_node8"><a xlink:href="../read_only.html" xlink:title="ReadOnly" target="_top">
<polygon fill="none" stroke="white" points="247.44,-240.6 182.38,-240.6 182.38,-221.28 247.44,-221.28 247.44,-240.6"/>
<text xml:space="preserve" text-anchor="middle" x="214.91" y="-225.14" font-family="Sans-Serif" font-size="14.00">ReadOnly</text>
</a>
</g>
</g>
<!-- ReadOnly&#45;&gt;Chains -->
<g id="edge29" class="edge">
<title>ReadOnly&#45;&gt;Chains</title>
<path fill="none" stroke="black" d="M214.91,-221.14C214.91,-214.54 214.91,-205.24 214.91,-196.85"/>
<polygon fill="black" stroke="black" points="218.41,-197.13 214.91,-187.13 211.41,-197.13 218.41,-197.13"/>
</g>
<!-- ReadOnly&#45;&gt;Views -->
<g id="edge6" class="edge">
<title>ReadOnly&#45;&gt;Views</title>
<path fill="none" stroke="black" d="M247.58,-223.04C250.4,-222.44 253.2,-221.85 255.91,-221.28 328.49,-205.97 349.75,-204.51 424.46,-185.75"/>
<polygon fill="black" stroke="black" points="425.07,-189.2 433.91,-183.35 423.35,-182.42 425.07,-189.2"/>
</g>
<!-- ReadOnly&#45;&gt;H5dfFormat -->
<g id="edge25" class="edge">
<title>ReadOnly&#45;&gt;H5dfFormat</title>
<path fill="none" stroke="black" d="M201.51,-220.89C189.82,-213.01 172.61,-201.39 158.75,-192.04"/>
<polygon fill="black" stroke="black" points="160.88,-189.25 150.63,-186.56 156.96,-195.05 160.88,-189.25"/>
</g>
<!-- ReadOnly&#45;&gt;FilesFormat -->
<g id="edge32" class="edge">
<title>ReadOnly&#45;&gt;FilesFormat</title>
<path fill="none" stroke="black" d="M185.56,-220.89C157.11,-212.12 113.71,-198.75 82.06,-189"/>
<polygon fill="black" stroke="black" points="83.43,-185.76 72.85,-186.16 81.37,-192.45 83.43,-185.76"/>
</g>
<!-- Queries -->
<g id="node9" class="node">
<title>Queries</title>
<g id="a_node9"><a xlink:href="../queries.html" xlink:title="Queries" target="_top">
<polygon fill="none" stroke="white" points="432.07,-240.6 379.75,-240.6 379.75,-221.28 432.07,-221.28 432.07,-240.6"/>
<text xml:space="preserve" text-anchor="middle" x="405.91" y="-225.14" font-family="Sans-Serif" font-size="14.00">Queries</text>
</a>
</g>
</g>
<!-- Queries&#45;&gt;Views -->
<g id="edge7" class="edge">
<title>Queries&#45;&gt;Views</title>
<path fill="none" stroke="black" d="M414.17,-221.14C421.07,-213.77 431.13,-203.04 439.65,-193.96"/>
<polygon fill="black" stroke="black" points="442.15,-196.41 446.44,-186.72 437.05,-191.62 442.15,-196.41"/>
</g>
<!-- Queries&#45;&gt;Reconstruction -->
<g id="edge38" class="edge">
<title>Queries&#45;&gt;Reconstruction</title>
<path fill="none" stroke="black" d="M428.81,-220.89C450.34,-212.39 482.82,-199.56 507.29,-189.9"/>
<polygon fill="black" stroke="black" points="508.47,-193.19 516.49,-186.27 505.9,-186.68 508.47,-193.19"/>
</g>
<!-- Operations -->
<g id="node10" class="node">
<title>Operations</title>
<g id="a_node10"><a xlink:href="../operations.html" xlink:title="Operations" target="_top">
<polygon fill="none" stroke="white" points="183.44,-295.92 112.38,-295.92 112.38,-276.6 183.44,-276.6 183.44,-295.92"/>
<text xml:space="preserve" text-anchor="middle" x="147.91" y="-280.46" font-family="Sans-Serif" font-size="14.00">Operations</text>
</a>
</g>
</g>
<!-- Operations&#45;&gt;Queries -->
<g id="edge11" class="edge">
<title>Operations&#45;&gt;Queries</title>
<path fill="none" stroke="black" d="M183.78,-277.85C232.37,-267.81 318.68,-249.97 368.19,-239.73"/>
<polygon fill="black" stroke="black" points="368.79,-243.19 377.87,-237.73 367.37,-236.33 368.79,-243.19"/>
</g>
<!-- Operations&#45;&gt;FilesFormat -->
<g id="edge33" class="edge">
<title>Operations&#45;&gt;FilesFormat</title>
<path fill="none" stroke="black" d="M139.24,-276.37C121.61,-258.31 81.35,-217.04 58.52,-193.64"/>
<polygon fill="black" stroke="black" points="61.25,-191.43 51.76,-186.72 56.24,-196.32 61.25,-191.43"/>
</g>
<!-- Tokens -->
<g id="node11" class="node">
<title>Tokens</title>
<g id="a_node11"><a xlink:href="../tokens.html" xlink:title="Tokens" target="_top">
<polygon fill="none" stroke="white" points="148.44,-406.56 101.38,-406.56 101.38,-387.24 148.44,-387.24 148.44,-406.56"/>
<text xml:space="preserve" text-anchor="middle" x="124.91" y="-391.1" font-family="Sans-Serif" font-size="14.00">Tokens</text>
</a>
</g>
</g>
<!-- Tokens&#45;&gt;Operations -->
<g id="edge8" class="edge">
<title>Tokens&#45;&gt;Operations</title>
<path fill="none" stroke="black" d="M126.79,-387.01C130.45,-369.74 138.59,-331.27 143.63,-307.48"/>
<polygon fill="black" stroke="black" points="147.04,-308.26 145.69,-297.75 140.19,-306.81 147.04,-308.26"/>
</g>
<!-- Formats -->
<g id="node18" class="node">
<title>Formats</title>
<g id="a_node18"><a xlink:href="../formats.html" xlink:title="Formats" target="_top">
<polygon fill="none" stroke="white" points="279.19,-351.24 224.62,-351.24 224.62,-331.92 279.19,-331.92 279.19,-351.24"/>
<text xml:space="preserve" text-anchor="middle" x="251.91" y="-335.78" font-family="Sans-Serif" font-size="14.00">Formats</text>
</a>
</g>
</g>
<!-- Tokens&#45;&gt;Formats -->
<g id="edge18" class="edge">
<title>Tokens&#45;&gt;Formats</title>
<path fill="none" stroke="black" d="M146.45,-386.85C166.52,-378.43 196.71,-365.75 219.66,-356.12"/>
<polygon fill="black" stroke="black" points="221,-359.35 228.86,-352.26 218.29,-352.9 221,-359.35"/>
</g>
<!-- Registry -->
<g id="node12" class="node">
<title>Registry</title>
<g id="a_node12"><a xlink:href="../registry.html" xlink:title="Registry" target="_top">
<polygon fill="none" stroke="white" points="206.82,-351.24 153,-351.24 153,-331.92 206.82,-331.92 206.82,-351.24"/>
<text xml:space="preserve" text-anchor="middle" x="179.91" y="-335.78" font-family="Sans-Serif" font-size="14.00">Registry</text>
</a>
</g>
</g>
<!-- Registry&#45;&gt;Operations -->
<g id="edge9" class="edge">
<title>Registry&#45;&gt;Operations</title>
<path fill="none" stroke="black" d="M174.63,-331.78C170.44,-324.79 164.43,-314.79 159.18,-306.03"/>
<polygon fill="black" stroke="black" points="162.23,-304.33 154.09,-297.55 156.23,-307.93 162.23,-304.33"/>
</g>
<!-- Readers -->
<g id="node13" class="node">
<title>Readers</title>
<g id="a_node13"><a xlink:href="../readers.html" xlink:title="Readers" target="_top">
<polygon fill="none" stroke="white" points="279.57,-295.92 224.25,-295.92 224.25,-276.6 279.57,-276.6 279.57,-295.92"/>
<text xml:space="preserve" text-anchor="middle" x="251.91" y="-280.46" font-family="Sans-Serif" font-size="14.00">Readers</text>
</a>
</g>
</g>
<!-- Readers&#45;&gt;Writers -->
<g id="edge27" class="edge">
<title>Readers&#45;&gt;Writers</title>
<path fill="none" stroke="black" d="M258.02,-276.46C262.97,-269.32 270.11,-259.03 276.28,-250.14"/>
<polygon fill="black" stroke="black" points="278.98,-252.39 281.8,-242.18 273.23,-248.4 278.98,-252.39"/>
</g>
<!-- Readers&#45;&gt;ReadOnly -->
<g id="edge39" class="edge">
<title>Readers&#45;&gt;ReadOnly</title>
<path fill="none" stroke="black" d="M245.8,-276.46C240.85,-269.32 233.71,-259.03 227.54,-250.14"/>
<polygon fill="black" stroke="black" points="230.59,-248.4 222.02,-242.18 224.84,-252.39 230.59,-248.4"/>
</g>
<!-- Readers&#45;&gt;Queries -->
<g id="edge10" class="edge">
<title>Readers&#45;&gt;Queries</title>
<path fill="none" stroke="black" d="M278.03,-276.21C303.03,-267.56 340.99,-254.42 369.06,-244.7"/>
<polygon fill="black" stroke="black" points="369.92,-248.1 378.23,-241.52 367.63,-241.49 369.92,-248.1"/>
</g>
<!-- Groups -->
<g id="node22" class="node">
<title>Groups</title>
<g id="a_node22"><a xlink:href="../groups.html" xlink:title="Groups" target="_top">
<polygon fill="none" stroke="white" points="164.57,-240.6 115.25,-240.6 115.25,-221.28 164.57,-221.28 164.57,-240.6"/>
<text xml:space="preserve" text-anchor="middle" x="139.91" y="-225.14" font-family="Sans-Serif" font-size="14.00">Groups</text>
</a>
</g>
</g>
<!-- Readers&#45;&gt;Groups -->
<g id="edge26" class="edge">
<title>Readers&#45;&gt;Groups</title>
<path fill="none" stroke="black" d="M232.91,-276.21C215.45,-267.9 189.31,-255.46 169.19,-245.88"/>
<polygon fill="black" stroke="black" points="170.9,-242.82 160.37,-241.68 167.89,-249.14 170.9,-242.82"/>
</g>
<!-- H5dfFormat&#45;&gt;CompleteDaf -->
<g id="edge12" class="edge">
<title>H5dfFormat&#45;&gt;CompleteDaf</title>
<path fill="none" stroke="black" d="M119.96,-165.57C105.65,-157.46 84.38,-145.39 67.66,-135.9"/>
<polygon fill="black" stroke="black" points="69.68,-133.03 59.25,-131.14 66.22,-139.11 69.68,-133.03"/>
</g>
<!-- FilesFormat&#45;&gt;CompleteDaf -->
<g id="edge13" class="edge">
<title>FilesFormat&#45;&gt;CompleteDaf</title>
<path fill="none" stroke="black" d="M41.91,-165.82C41.91,-159.22 41.91,-149.92 41.91,-141.53"/>
<polygon fill="black" stroke="black" points="45.41,-141.81 41.91,-131.81 38.41,-141.81 45.41,-141.81"/>
</g>
<!-- FilesFormat&#45;&gt;ExampleData -->
<g id="edge19" class="edge">
<title>FilesFormat&#45;&gt;ExampleData</title>
<path fill="none" stroke="black" d="M65.83,-165.57C88.41,-157.03 122.55,-144.13 148.14,-134.45"/>
<polygon fill="black" stroke="black" points="149.34,-137.74 157.46,-130.92 146.87,-131.19 149.34,-137.74"/>
</g>
<!-- Contracts&#45;&gt;Computations -->
<g id="edge36" class="edge">
<title>Contracts&#45;&gt;Computations</title>
<path fill="none" stroke="black" d="M530.45,-110.5C526.96,-103.59 521.96,-93.73 517.56,-85.04"/>
<polygon fill="black" stroke="black" points="520.79,-83.67 513.15,-76.33 514.54,-86.83 520.79,-83.67"/>
</g>
<!-- Formats&#45;&gt;Readers -->
<g id="edge40" class="edge">
<title>Formats&#45;&gt;Readers</title>
<path fill="none" stroke="black" d="M251.91,-331.78C251.91,-325.18 251.91,-315.88 251.91,-307.49"/>
<polygon fill="black" stroke="black" points="255.41,-307.77 251.91,-297.77 248.41,-307.77 255.41,-307.77"/>
</g>
<!-- Keys -->
<g id="node19" class="node">
<title>Keys</title>
<g id="a_node19"><a xlink:href="../keys.html" xlink:title="Keys" target="_top">
<polygon fill="none" stroke="white" points="307.07,-406.56 272.75,-406.56 272.75,-387.24 307.07,-387.24 307.07,-406.56"/>
<text xml:space="preserve" text-anchor="middle" x="289.91" y="-391.1" font-family="Sans-Serif" font-size="14.00">Keys</text>
</a>
</g>
</g>
<!-- Keys&#45;&gt;Formats -->
<g id="edge16" class="edge">
<title>Keys&#45;&gt;Formats</title>
<path fill="none" stroke="black" d="M283.64,-387.1C278.55,-379.96 271.21,-369.67 264.88,-360.78"/>
<polygon fill="black" stroke="black" points="267.85,-358.92 259.2,-352.81 262.15,-362.98 267.85,-358.92"/>
</g>
<!-- StorageTypes -->
<g id="node20" class="node">
<title>StorageTypes</title>
<g id="a_node20"><a xlink:href="../storage_types.html" xlink:title="StorageTypes" target="_top">
<polygon fill="none" stroke="white" points="255.07,-406.56 166.75,-406.56 166.75,-387.24 255.07,-387.24 255.07,-406.56"/>
<text xml:space="preserve" text-anchor="middle" x="210.91" y="-391.1" font-family="Sans-Serif" font-size="14.00">StorageTypes</text>
</a>
</g>
</g>
<!-- StorageTypes&#45;&gt;Registry -->
<g id="edge23" class="edge">
<title>StorageTypes&#45;&gt;Registry</title>
<path fill="none" stroke="black" d="M205.79,-387.1C201.73,-380.11 195.92,-370.11 190.82,-361.35"/>
<polygon fill="black" stroke="black" points="193.95,-359.77 185.9,-352.88 187.9,-363.29 193.95,-359.77"/>
</g>
<!-- StorageTypes&#45;&gt;Formats -->
<g id="edge17" class="edge">
<title>StorageTypes&#45;&gt;Formats</title>
<path fill="none" stroke="black" d="M217.68,-387.1C223.23,-379.88 231.25,-369.45 238.14,-360.49"/>
<polygon fill="black" stroke="black" points="240.75,-362.84 244.07,-352.78 235.2,-358.57 240.75,-362.84"/>
</g>
</g>
</svg>
