<?xml version="1.0" encoding="UTF-8" standalone="no"?>
<!DOCTYPE svg PUBLIC "-//W3C//DTD SVG 1.1//EN"
 "http://www.w3.org/Graphics/SVG/1.1/DTD/svg11.dtd">
<!-- Generated by graphviz version 14.1.1 (20251213.1925)
 -->
<!-- Pages: 1 -->
<svg width="603pt" height="415pt"
 viewBox="0.00 0.00 603.00 415.00" xmlns="http://www.w3.org/2000/svg" xmlns:xlink="http://www.w3.org/1999/xlink">
<g id="graph0" class="graph" transform="scale(1 1) rotate(0) translate(4 410.56)">
<polygon fill="white" stroke="none" points="-4,4 -4,-410.56 598.73,-410.56 598.73,4 -4,4"/>
<!-- Copies -->
<g id="node1" class="node">
<title>Copies</title>
<g id="a_node1"><a xlink:href="../copies.html" xlink:title="Copies" target="_top">
<polygon fill="none" stroke="white" points="172.73,-185.28 126.41,-185.28 126.41,-165.96 172.73,-165.96 172.73,-185.28"/>
<text xml:space="preserve" text-anchor="middle" x="149.57" y="-169.82" font-family="Sans-Serif" font-size="14.00">Copies</text>
</a>
</g>
</g>
<!-- Adapters -->
<g id="node3" class="node">
<title>Adapters</title>
<g id="a_node3"><a xlink:href="../adapters.html" xlink:title="Adapters" target="_top">
<polygon fill="none" stroke="white" points="240.73,-19.32 182.41,-19.32 182.41,0 240.73,0 240.73,-19.32"/>
<text xml:space="preserve" text-anchor="middle" x="211.57" y="-3.86" font-family="Sans-Serif" font-size="14.00">Adapters</text>
</a>
</g>
</g>
<!-- Copies&#45;&gt;Adapters -->
<g id="edge2" class="edge">
<title>Copies&#45;&gt;Adapters</title>
<path fill="none" stroke="black" d="M150.05,-165.72C150.93,-153.16 153.33,-129.65 159.57,-110.64 169.42,-80.67 187.49,-48.79 199.52,-29.29"/>
<polygon fill="black" stroke="black" points="202.46,-31.19 204.84,-20.87 196.54,-27.46 202.46,-31.19"/>
</g>
<!-- Concat -->
<g id="node24" class="node">
<title>Concat</title>
<g id="a_node24"><a xlink:href="../concat.html" xlink:title="Concat" target="_top">
<polygon fill="none" stroke="white" points="358.11,-129.96 311.04,-129.96 311.04,-110.64 358.11,-110.64 358.11,-129.96"/>
<text xml:space="preserve" text-anchor="middle" x="334.57" y="-114.5" font-family="Sans-Serif" font-size="14.00">Concat</text>
</a>
</g>
</g>
<!-- Copies&#45;&gt;Concat -->
<g id="edge35" class="edge">
<title>Copies&#45;&gt;Concat</title>
<path fill="none" stroke="black" d="M173,-167.87C205.08,-158.62 262.89,-141.96 299.96,-131.28"/>
<polygon fill="black" stroke="black" points="300.65,-134.72 309.29,-128.59 298.71,-127.99 300.65,-134.72"/>
</g>
<!-- Writers -->
<g id="node2" class="node">
<title>Writers</title>
<g id="a_node2"><a xlink:href="../writers.html" xlink:title="Writers" target="_top">
<polygon fill="none" stroke="white" points="316.11,-240.6 269.04,-240.6 269.04,-221.28 316.11,-221.28 316.11,-240.6"/>
<text xml:space="preserve" text-anchor="middle" x="292.57" y="-225.14" font-family="Sans-Serif" font-size="14.00">Writers</text>
</a>
</g>
</g>
<!-- Writers&#45;&gt;Copies -->
<g id="edge1" class="edge">
<title>Writers&#45;&gt;Copies</title>
<path fill="none" stroke="black" d="M268.64,-221.02C245.4,-212.35 209.9,-199.11 183.7,-189.35"/>
<polygon fill="black" stroke="black" points="185.12,-186.14 174.53,-185.93 182.67,-192.7 185.12,-186.14"/>
</g>
<!-- MemoryFormat -->
<g id="node5" class="node">
<title>MemoryFormat</title>
<g id="a_node5"><a xlink:href="../memory_format.html" xlink:title="MemoryFormat" target="_top">
<polygon fill="none" stroke="white" points="108.61,-185.28 10.54,-185.28 10.54,-165.96 108.61,-165.96 108.61,-185.28"/>
<text xml:space="preserve" text-anchor="middle" x="59.57" y="-169.82" font-family="Sans-Serif" font-size="14.00">MemoryFormat</text>
</a>
</g>
</g>
<!-- Writers&#45;&gt;MemoryFormat -->
<g id="edge23" class="edge">
<title>Writers&#45;&gt;MemoryFormat</title>
<path fill="none" stroke="black" d="M268.84,-223.39C266.06,-222.66 263.25,-221.94 260.57,-221.28 211.34,-209.16 154.96,-196.76 114.47,-188.11"/>
<polygon fill="black" stroke="black" points="115.22,-184.69 104.71,-186.03 113.76,-191.54 115.22,-184.69"/>
</g>
<!-- Chains -->
<g id="node6" class="node">
<title>Chains</title>
<g id="a_node6"><a xlink:href="../chains.html" xlink:title="Chains" target="_top">
<polygon fill="none" stroke="white" points="236.73,-185.28 190.41,-185.28 190.41,-165.96 236.73,-165.96 236.73,-185.28"/>
<text xml:space="preserve" text-anchor="middle" x="213.57" y="-169.82" font-family="Sans-Serif" font-size="14.00">Chains</text>
</a>
</g>
</g>
<!-- Writers&#45;&gt;Chains -->
<g id="edge30" class="edge">
<title>Writers&#45;&gt;Chains</title>
<path fill="none" stroke="black" d="M279.17,-220.89C267.48,-213.01 250.27,-201.39 236.41,-192.04"/>
<polygon fill="black" stroke="black" points="238.54,-189.25 228.29,-186.56 234.62,-195.05 238.54,-189.25"/>
</g>
<!-- FilesFormat -->
<g id="node15" class="node">
<title>FilesFormat</title>
<g id="a_node15"><a xlink:href="../files_format.html" xlink:title="FilesFormat" target="_top">
<polygon fill="none" stroke="white" points="424.73,-185.28 348.41,-185.28 348.41,-165.96 424.73,-165.96 424.73,-185.28"/>
<text xml:space="preserve" text-anchor="middle" x="386.57" y="-169.82" font-family="Sans-Serif" font-size="14.00">FilesFormat</text>
</a>
</g>
</g>
<!-- Writers&#45;&gt;FilesFormat -->
<g id="edge33" class="edge">
<title>Writers&#45;&gt;FilesFormat</title>
<path fill="none" stroke="black" d="M308.52,-220.89C322.83,-212.78 344.1,-200.71 360.83,-191.22"/>
<polygon fill="black" stroke="black" points="362.26,-194.43 369.23,-186.46 358.81,-188.35 362.26,-194.43"/>
</g>
<!-- H5dfFormat -->
<g id="node16" class="node">
<title>H5dfFormat</title>
<g id="a_node16"><a xlink:href="../h5df_format.html" xlink:title="H5dfFormat" target="_top">
<polygon fill="none" stroke="white" points="330.73,-185.28 254.41,-185.28 254.41,-165.96 330.73,-165.96 330.73,-185.28"/>
<text xml:space="preserve" text-anchor="middle" x="292.57" y="-169.82" font-family="Sans-Serif" font-size="14.00">H5dfFormat</text>
</a>
</g>
</g>
<!-- Writers&#45;&gt;H5dfFormat -->
<g id="edge26" class="edge">
<title>Writers&#45;&gt;H5dfFormat</title>
<path fill="none" stroke="black" d="M292.57,-221.14C292.57,-214.54 292.57,-205.24 292.57,-196.85"/>
<polygon fill="black" stroke="black" points="296.07,-197.13 292.57,-187.13 289.07,-197.13 296.07,-197.13"/>
</g>
<!-- Reconstruction -->
<g id="node25" class="node">
<title>Reconstruction</title>
<g id="a_node25"><a xlink:href="../reconstruction.html" xlink:title="Reconstruction" target="_top">
<polygon fill="none" stroke="white" points="536.73,-185.28 442.41,-185.28 442.41,-165.96 536.73,-165.96 536.73,-185.28"/>
<text xml:space="preserve" text-anchor="middle" x="489.57" y="-169.82" font-family="Sans-Serif" font-size="14.00">Reconstruction</text>
</a>
</g>
</g>
<!-- Writers&#45;&gt;Reconstruction -->
<g id="edge39" class="edge">
<title>Writers&#45;&gt;Reconstruction</title>
<path fill="none" stroke="black" d="M316.33,-223.51C348.07,-214.92 404.92,-199.53 444.81,-188.73"/>
<polygon fill="black" stroke="black" points="445.64,-192.14 454.37,-186.15 443.81,-185.38 445.64,-192.14"/>
</g>
<!-- Computations -->
<g id="node4" class="node">
<title>Computations</title>
<g id="a_node4"><a xlink:href="../computations.html" xlink:title="Computations" target="_top">
<polygon fill="none" stroke="white" points="507.73,-74.64 419.41,-74.64 419.41,-55.32 507.73,-55.32 507.73,-74.64"/>
<text xml:space="preserve" text-anchor="middle" x="463.57" y="-59.18" font-family="Sans-Serif" font-size="14.00">Computations</text>
</a>
</g>
</g>
<!-- Computations&#45;&gt;Adapters -->
<g id="edge3" class="edge">
<title>Computations&#45;&gt;Adapters</title>
<path fill="none" stroke="black" d="M420.54,-54.87C373.37,-44.89 298.27,-29 252.11,-19.24"/>
<polygon fill="black" stroke="black" points="253.02,-15.85 242.51,-17.21 251.57,-22.7 253.02,-15.85"/>
</g>
<!-- MemoryFormat&#45;&gt;Adapters -->
<g id="edge4" class="edge">
<title>MemoryFormat&#45;&gt;Adapters</title>
<path fill="none" stroke="black" d="M41.44,-165.62C20.33,-153.88 -10.02,-132.26 3.57,-110.64 40.2,-52.39 121.29,-27.3 170.7,-17.09"/>
<polygon fill="black" stroke="black" points="171.3,-20.54 180.45,-15.2 169.97,-13.67 171.3,-20.54"/>
</g>
<!-- ExampleData -->
<g id="node21" class="node">
<title>ExampleData</title>
<g id="a_node21"><a xlink:href="../example_data.html" xlink:title="ExampleData" target="_top">
<polygon fill="none" stroke="white" points="254.61,-129.96 168.54,-129.96 168.54,-110.64 254.61,-110.64 254.61,-129.96"/>
<text xml:space="preserve" text-anchor="middle" x="211.57" y="-114.5" font-family="Sans-Serif" font-size="14.00">ExampleData</text>
</a>
</g>
</g>
<!-- MemoryFormat&#45;&gt;ExampleData -->
<g id="edge22" class="edge">
<title>MemoryFormat&#45;&gt;ExampleData</title>
<path fill="none" stroke="black" d="M85.36,-165.57C109.92,-156.96 147.16,-143.9 174.83,-134.19"/>
<polygon fill="black" stroke="black" points="175.95,-137.5 184.23,-130.89 173.64,-130.9 175.95,-137.5"/>
</g>
<!-- AnnDataFormat -->
<g id="node23" class="node">
<title>AnnDataFormat</title>
<g id="a_node23"><a xlink:href="../anndata_format.html" xlink:title="AnnDataFormat" target="_top">
<polygon fill="none" stroke="white" points="112.73,-129.96 12.41,-129.96 12.41,-110.64 112.73,-110.64 112.73,-129.96"/>
<text xml:space="preserve" text-anchor="middle" x="62.57" y="-114.5" font-family="Sans-Serif" font-size="14.00">AnnDataFormat</text>
</a>
</g>
</g>
<!-- MemoryFormat&#45;&gt;AnnDataFormat -->
<g id="edge31" class="edge">
<title>MemoryFormat&#45;&gt;AnnDataFormat</title>
<path fill="none" stroke="black" d="M60.07,-165.82C60.44,-159.22 60.96,-149.92 61.43,-141.53"/>
<polygon fill="black" stroke="black" points="64.91,-141.99 61.98,-131.81 57.92,-141.59 64.91,-141.99"/>
</g>
<!-- Chains&#45;&gt;Adapters -->
<g id="edge5" class="edge">
<title>Chains&#45;&gt;Adapters</title>
<path fill="none" stroke="black" d="M229.49,-165.56C241.34,-157.81 256.63,-145.47 263.57,-129.96 267.08,-122.12 265.61,-118.98 263.57,-110.64 256.08,-80.01 237.42,-48.32 224.61,-29.05"/>
<polygon fill="black" stroke="black" points="227.6,-27.22 219.07,-20.95 221.83,-31.18 227.6,-27.22"/>
</g>
<!-- CompleteDaf -->
<g id="node14" class="node">
<title>CompleteDaf</title>
<g id="a_node14"><a xlink:href="../complete.html" xlink:title="CompleteDaf" target="_top">
<polygon fill="none" stroke="white" points="459.48,-129.96 375.66,-129.96 375.66,-110.64 459.48,-110.64 459.48,-129.96"/>
<text xml:space="preserve" text-anchor="middle" x="417.57" y="-114.5" font-family="Sans-Serif" font-size="14.00">CompleteDaf</text>
</a>
</g>
</g>
<!-- Chains&#45;&gt;CompleteDaf -->
<g id="edge14" class="edge">
<title>Chains&#45;&gt;CompleteDaf</title>
<path fill="none" stroke="black" d="M236.98,-168.25C239.87,-167.48 242.79,-166.7 245.57,-165.96 288.09,-154.69 336.59,-142.12 371.23,-133.19"/>
<polygon fill="black" stroke="black" points="371.69,-136.69 380.5,-130.81 369.94,-129.91 371.69,-136.69"/>
</g>
<!-- Chains&#45;&gt;ExampleData -->
<g id="edge21" class="edge">
<title>Chains&#45;&gt;ExampleData</title>
<path fill="none" stroke="black" d="M213.24,-165.82C212.99,-159.22 212.65,-149.92 212.33,-141.53"/>
<polygon fill="black" stroke="black" points="215.84,-141.67 211.97,-131.81 208.84,-141.93 215.84,-141.67"/>
</g>
<!-- Views -->
<g id="node7" class="node">
<title>Views</title>
<g id="a_node7"><a xlink:href="../views.html" xlink:title="Views" target="_top">
<polygon fill="none" stroke="white" points="594.73,-185.28 554.41,-185.28 554.41,-165.96 594.73,-165.96 594.73,-185.28"/>
<text xml:space="preserve" text-anchor="middle" x="574.57" y="-169.82" font-family="Sans-Serif" font-size="14.00">Views</text>
</a>
</g>
</g>
<!-- Views&#45;&gt;CompleteDaf -->
<g id="edge13" class="edge">
<title>Views&#45;&gt;CompleteDaf</title>
<path fill="none" stroke="black" d="M554.05,-167.65C529.03,-159.15 486.25,-144.62 455.25,-134.09"/>
<polygon fill="black" stroke="black" points="456.44,-130.8 445.84,-130.9 454.19,-137.43 456.44,-130.8"/>
</g>
<!-- Contracts -->
<g id="node17" class="node">
<title>Contracts</title>
<g id="a_node17"><a xlink:href="../contracts.html" xlink:title="Contracts" target="_top">
<polygon fill="none" stroke="white" points="573.61,-129.96 511.54,-129.96 511.54,-110.64 573.61,-110.64 573.61,-129.96"/>
<text xml:space="preserve" text-anchor="middle" x="542.57" y="-114.5" font-family="Sans-Serif" font-size="14.00">Contracts</text>
</a>
</g>
</g>
<!-- Views&#45;&gt;Contracts -->
<g id="edge16" class="edge">
<title>Views&#45;&gt;Contracts</title>
<path fill="none" stroke="black" d="M569.29,-165.82C565.1,-158.83 559.09,-148.83 553.84,-140.07"/>
<polygon fill="black" stroke="black" points="556.9,-138.37 548.75,-131.59 550.89,-141.97 556.9,-138.37"/>
</g>
<!-- Views&#45;&gt;Concat -->
<g id="edge36" class="edge">
<title>Views&#45;&gt;Concat</title>
<path fill="none" stroke="black" d="M554.04,-168.24C551.21,-167.43 548.32,-166.65 545.57,-165.96 470.22,-147.17 447.49,-148.42 369.19,-130.45"/>
<polygon fill="black" stroke="black" points="370.3,-127.11 359.77,-128.25 368.71,-133.93 370.3,-127.11"/>
</g>
<!-- Queries -->
<g id="node8" class="node">
<title>Queries</title>
<g id="a_node8"><a xlink:href="../queries.html" xlink:title="Queries" target="_top">
<polygon fill="none" stroke="white" points="513.73,-240.6 461.41,-240.6 461.41,-221.28 513.73,-221.28 513.73,-240.6"/>
<text xml:space="preserve" text-anchor="middle" x="487.57" y="-225.14" font-family="Sans-Serif" font-size="14.00">Queries</text>
</a>
</g>
</g>
<!-- Queries&#45;&gt;Views -->
<g id="edge6" class="edge">
<title>Queries&#45;&gt;Views</title>
<path fill="none" stroke="black" d="M502.33,-220.89C515.45,-212.85 534.89,-200.94 550.3,-191.49"/>
<polygon fill="black" stroke="black" points="551.75,-194.71 558.45,-186.5 548.1,-188.74 551.75,-194.71"/>
</g>
<!-- Queries&#45;&gt;Reconstruction -->
<g id="edge38" class="edge">
<title>Queries&#45;&gt;Reconstruction</title>
<path fill="none" stroke="black" d="M487.9,-221.14C488.15,-214.54 488.5,-205.24 488.81,-196.85"/>
<polygon fill="black" stroke="black" points="492.3,-197.25 489.18,-187.13 485.3,-196.99 492.3,-197.25"/>
</g>
<!-- ReadOnly -->
<g id="node9" class="node">
<title>ReadOnly</title>
<g id="a_node9"><a xlink:href="../read_only.html" xlink:title="ReadOnly" target="_top">
<polygon fill="none" stroke="white" points="399.11,-240.6 334.04,-240.6 334.04,-221.28 399.11,-221.28 399.11,-240.6"/>
<text xml:space="preserve" text-anchor="middle" x="366.57" y="-225.14" font-family="Sans-Serif" font-size="14.00">ReadOnly</text>
</a>
</g>
</g>
<!-- ReadOnly&#45;&gt;Chains -->
<g id="edge29" class="edge">
<title>ReadOnly&#45;&gt;Chains</title>
<path fill="none" stroke="black" d="M340.62,-220.89C315.03,-211.98 275.78,-198.3 247.68,-188.51"/>
<polygon fill="black" stroke="black" points="249.16,-185.32 238.57,-185.33 246.86,-191.93 249.16,-185.32"/>
</g>
<!-- ReadOnly&#45;&gt;Views -->
<g id="edge7" class="edge">
<title>ReadOnly&#45;&gt;Views</title>
<path fill="none" stroke="black" d="M399.35,-222.24C433.16,-214.19 487.65,-200.93 543.25,-185.83"/>
<polygon fill="black" stroke="black" points="543.83,-189.3 552.55,-183.29 541.98,-182.55 543.83,-189.3"/>
</g>
<!-- ReadOnly&#45;&gt;FilesFormat -->
<g id="edge32" class="edge">
<title>ReadOnly&#45;&gt;FilesFormat</title>
<path fill="none" stroke="black" d="M369.87,-221.14C372.41,-214.38 376,-204.81 379.2,-196.26"/>
<polygon fill="black" stroke="black" points="382.43,-197.63 382.67,-187.03 375.88,-195.17 382.43,-197.63"/>
</g>
<!-- ReadOnly&#45;&gt;H5dfFormat -->
<g id="edge25" class="edge">
<title>ReadOnly&#45;&gt;H5dfFormat</title>
<path fill="none" stroke="black" d="M354.02,-220.89C343.11,-213.03 327.07,-201.48 314.11,-192.14"/>
<polygon fill="black" stroke="black" points="316.33,-189.42 306.17,-186.42 312.23,-195.1 316.33,-189.42"/>
</g>
<!-- Operations -->
<g id="node10" class="node">
<title>Operations</title>
<g id="a_node10"><a xlink:href="../operations.html" xlink:title="Operations" target="_top">
<polygon fill="none" stroke="white" points="482.11,-295.92 411.04,-295.92 411.04,-276.6 482.11,-276.6 482.11,-295.92"/>
<text xml:space="preserve" text-anchor="middle" x="446.57" y="-280.46" font-family="Sans-Serif" font-size="14.00">Operations</text>
</a>
</g>
</g>
<!-- Operations&#45;&gt;Queries -->
<g id="edge10" class="edge">
<title>Operations&#45;&gt;Queries</title>
<path fill="none" stroke="black" d="M453.34,-276.46C458.89,-269.24 466.91,-258.81 473.8,-249.85"/>
<polygon fill="black" stroke="black" points="476.41,-252.2 479.73,-242.14 470.86,-247.93 476.41,-252.2"/>
</g>
<!-- Operations&#45;&gt;FilesFormat -->
<g id="edge34" class="edge">
<title>Operations&#45;&gt;FilesFormat</title>
<path fill="none" stroke="black" d="M441.66,-276.37C431.95,-258.78 410.09,-219.21 397.02,-195.53"/>
<polygon fill="black" stroke="black" points="400.18,-194.02 392.28,-186.96 394.05,-197.4 400.18,-194.02"/>
</g>
<!-- Registry -->
<g id="node11" class="node">
<title>Registry</title>
<g id="a_node11"><a xlink:href="../registry.html" xlink:title="Registry" target="_top">
<polygon fill="none" stroke="white" points="488.48,-351.24 434.66,-351.24 434.66,-331.92 488.48,-331.92 488.48,-351.24"/>
<text xml:space="preserve" text-anchor="middle" x="461.57" y="-335.78" font-family="Sans-Serif" font-size="14.00">Registry</text>
</a>
</g>
</g>
<!-- Registry&#45;&gt;Operations -->
<g id="edge8" class="edge">
<title>Registry&#45;&gt;Operations</title>
<path fill="none" stroke="black" d="M459.09,-331.78C457.22,-325.1 454.56,-315.66 452.18,-307.19"/>
<polygon fill="black" stroke="black" points="455.59,-306.39 449.51,-297.71 448.85,-308.29 455.59,-306.39"/>
</g>
<!-- Tokens -->
<g id="node12" class="node">
<title>Tokens</title>
<g id="a_node12"><a xlink:href="../tokens.html" xlink:title="Tokens" target="_top">
<polygon fill="none" stroke="white" points="399.11,-406.56 352.04,-406.56 352.04,-387.24 399.11,-387.24 399.11,-406.56"/>
<text xml:space="preserve" text-anchor="middle" x="375.57" y="-391.1" font-family="Sans-Serif" font-size="14.00">Tokens</text>
</a>
</g>
</g>
<!-- Tokens&#45;&gt;Operations -->
<g id="edge9" class="edge">
<title>Tokens&#45;&gt;Operations</title>
<path fill="none" stroke="black" d="M381.38,-387.01C392.93,-369.34 418.97,-329.49 434.42,-305.85"/>
<polygon fill="black" stroke="black" points="437.31,-307.83 439.85,-297.54 431.45,-304 437.31,-307.83"/>
</g>
<!-- Formats -->
<g id="node18" class="node">
<title>Formats</title>
<g id="a_node18"><a xlink:href="../formats.html" xlink:title="Formats" target="_top">
<polygon fill="none" stroke="white" points="378.86,-351.24 324.29,-351.24 324.29,-331.92 378.86,-331.92 378.86,-351.24"/>
<text xml:space="preserve" text-anchor="middle" x="351.57" y="-335.78" font-family="Sans-Serif" font-size="14.00">Formats</text>
</a>
</g>
</g>
<!-- Tokens&#45;&gt;Formats -->
<g id="edge17" class="edge">
<title>Tokens&#45;&gt;Formats</title>
<path fill="none" stroke="black" d="M371.61,-387.1C368.54,-380.27 364.16,-370.55 360.28,-361.93"/>
<polygon fill="black" stroke="black" points="363.54,-360.64 356.24,-352.96 357.16,-363.51 363.54,-360.64"/>
</g>
<!-- Readers -->
<g id="node13" class="node">
<title>Readers</title>
<g id="a_node13"><a xlink:href="../readers.html" xlink:title="Readers" target="_top">
<polygon fill="none" stroke="white" points="379.23,-295.92 323.91,-295.92 323.91,-276.6 379.23,-276.6 379.23,-295.92"/>
<text xml:space="preserve" text-anchor="middle" x="351.57" y="-280.46" font-family="Sans-Serif" font-size="14.00">Readers</text>
</a>
</g>
</g>
<!-- Readers&#45;&gt;Writers -->
<g id="edge28" class="edge">
<title>Readers&#45;&gt;Writers</title>
<path fill="none" stroke="black" d="M341.56,-276.21C333.21,-268.66 321.07,-257.7 310.97,-248.57"/>
<polygon fill="black" stroke="black" points="313.32,-245.97 303.56,-241.87 308.63,-251.17 313.32,-245.97"/>
</g>
<!-- Readers&#45;&gt;Queries -->
<g id="edge11" class="edge">
<title>Readers&#45;&gt;Queries</title>
<path fill="none" stroke="black" d="M374.64,-276.21C396.33,-267.71 429.05,-254.88 453.7,-245.22"/>
<polygon fill="black" stroke="black" points="454.95,-248.49 462.98,-241.58 452.39,-241.97 454.95,-248.49"/>
</g>
<!-- Readers&#45;&gt;ReadOnly -->
<g id="edge40" class="edge">
<title>Readers&#45;&gt;ReadOnly</title>
<path fill="none" stroke="black" d="M354.05,-276.46C355.93,-269.78 358.58,-260.34 360.96,-251.87"/>
<polygon fill="black" stroke="black" points="364.29,-252.97 363.63,-242.39 357.55,-251.07 364.29,-252.97"/>
</g>
<!-- Groups -->
<g id="node22" class="node">
<title>Groups</title>
<g id="a_node22"><a xlink:href="../groups.html" xlink:title="Groups" target="_top">
<polygon fill="none" stroke="white" points="251.23,-240.6 201.91,-240.6 201.91,-221.28 251.23,-221.28 251.23,-240.6"/>
<text xml:space="preserve" text-anchor="middle" x="226.57" y="-225.14" font-family="Sans-Serif" font-size="14.00">Groups</text>
</a>
</g>
</g>
<!-- Readers&#45;&gt;Groups -->
<g id="edge27" class="edge">
<title>Readers&#45;&gt;Groups</title>
<path fill="none" stroke="black" d="M330.37,-276.21C310.61,-267.79 280.9,-255.11 258.32,-245.48"/>
<polygon fill="black" stroke="black" points="259.84,-242.33 249.27,-241.62 257.1,-248.77 259.84,-242.33"/>
</g>
<!-- FilesFormat&#45;&gt;CompleteDaf -->
<g id="edge12" class="edge">
<title>FilesFormat&#45;&gt;CompleteDaf</title>
<path fill="none" stroke="black" d="M391.69,-165.82C395.75,-158.83 401.57,-148.83 406.66,-140.07"/>
<polygon fill="black" stroke="black" points="409.58,-142.01 411.58,-131.6 403.53,-138.49 409.58,-142.01"/>
</g>
<!-- FilesFormat&#45;&gt;ExampleData -->
<g id="edge20" class="edge">
<title>FilesFormat&#45;&gt;ExampleData</title>
<path fill="none" stroke="black" d="M356.89,-165.57C328.1,-156.8 284.2,-143.43 252.19,-133.68"/>
<polygon fill="black" stroke="black" points="253.44,-130.4 242.85,-130.83 251.4,-137.09 253.44,-130.4"/>
</g>
<!-- H5dfFormat&#45;&gt;CompleteDaf -->
<g id="edge15" class="edge">
<title>H5dfFormat&#45;&gt;CompleteDaf</title>
<path fill="none" stroke="black" d="M313.78,-165.57C333.53,-157.15 363.24,-144.47 385.83,-134.84"/>
<polygon fill="black" stroke="black" points="387.05,-138.13 394.87,-130.98 384.3,-131.69 387.05,-138.13"/>
</g>
<!-- Contracts&#45;&gt;Computations -->
<g id="edge37" class="edge">
<title>Contracts&#45;&gt;Computations</title>
<path fill="none" stroke="black" d="M529.17,-110.25C517.48,-102.37 500.27,-90.75 486.41,-81.4"/>
<polygon fill="black" stroke="black" points="488.54,-78.61 478.29,-75.92 484.62,-84.41 488.54,-78.61"/>
</g>
<!-- Formats&#45;&gt;Readers -->
<g id="edge41" class="edge">
<title>Formats&#45;&gt;Readers</title>
<path fill="none" stroke="black" d="M351.57,-331.78C351.57,-325.18 351.57,-315.88 351.57,-307.49"/>
<polygon fill="black" stroke="black" points="355.07,-307.77 351.57,-297.77 348.07,-307.77 355.07,-307.77"/>
</g>
<!-- StorageTypes -->
<g id="node19" class="node">
<title>StorageTypes</title>
<g id="a_node19"><a xlink:href="../storage_types.html" xlink:title="StorageTypes" target="_top">
<polygon fill="none" stroke="white" points="505.73,-406.56 417.41,-406.56 417.41,-387.24 505.73,-387.24 505.73,-406.56"/>
<text xml:space="preserve" text-anchor="middle" x="461.57" y="-391.1" font-family="Sans-Serif" font-size="14.00">StorageTypes</text>
</a>
</g>
</g>
<!-- StorageTypes&#45;&gt;Registry -->
<g id="edge24" class="edge">
<title>StorageTypes&#45;&gt;Registry</title>
<path fill="none" stroke="black" d="M461.57,-387.1C461.57,-380.5 461.57,-371.2 461.57,-362.81"/>
<polygon fill="black" stroke="black" points="465.07,-363.09 461.57,-353.09 458.07,-363.09 465.07,-363.09"/>
</g>
<!-- StorageTypes&#45;&gt;Formats -->
<g id="edge18" class="edge">
<title>StorageTypes&#45;&gt;Formats</title>
<path fill="none" stroke="black" d="M442.91,-386.85C425.84,-378.58 400.33,-366.21 380.6,-356.65"/>
<polygon fill="black" stroke="black" points="382.21,-353.54 371.69,-352.33 379.16,-359.84 382.21,-353.54"/>
</g>
<!-- Keys -->
<g id="node20" class="node">
<title>Keys</title>
<g id="a_node20"><a xlink:href="../keys.html" xlink:title="Keys" target="_top">
<polygon fill="none" stroke="white" points="333.73,-406.56 299.41,-406.56 299.41,-387.24 333.73,-387.24 333.73,-406.56"/>
<text xml:space="preserve" text-anchor="middle" x="316.57" y="-391.1" font-family="Sans-Serif" font-size="14.00">Keys</text>
</a>
</g>
</g>
<!-- Keys&#45;&gt;Formats -->
<g id="edge19" class="edge">
<title>Keys&#45;&gt;Formats</title>
<path fill="none" stroke="black" d="M322.35,-387.1C326.98,-380.04 333.65,-369.89 339.44,-361.06"/>
<polygon fill="black" stroke="black" points="342.27,-363.12 344.84,-352.84 336.42,-359.28 342.27,-363.12"/>
</g>
</g>
</svg>
