<?xml version="1.0" encoding="UTF-8" standalone="no"?>
<!DOCTYPE svg PUBLIC "-//W3C//DTD SVG 1.1//EN"
 "http://www.w3.org/Graphics/SVG/1.1/DTD/svg11.dtd">
<!-- Generated by graphviz version 12.2.1 (20241206.2353)
 -->
<!-- Pages: 1 -->
<svg width="678pt" height="415pt"
 viewBox="0.00 0.00 677.84 414.56" xmlns="http://www.w3.org/2000/svg" xmlns:xlink="http://www.w3.org/1999/xlink">
<g id="graph0" class="graph" transform="scale(1 1) rotate(0) translate(4 410.56)">
<polygon fill="white" stroke="none" points="-4,4 -4,-410.56 673.84,-410.56 673.84,4 -4,4"/>
<!-- Copies -->
<g id="node1" class="node">
<title>Copies</title>
<g id="a_node1"><a xlink:href="../copies.html" xlink:title="Copies" target="_top">
<polygon fill="none" stroke="white" points="510.07,-185.28 463.75,-185.28 463.75,-165.96 510.07,-165.96 510.07,-185.28"/>
<text text-anchor="middle" x="486.91" y="-169.82" font-family="Sans-Serif" font-size="14.00">Copies</text>
</a>
</g>
</g>
<!-- Adapters -->
<g id="node3" class="node">
<title>Adapters</title>
<g id="a_node3"><a xlink:href="../adapters.html" xlink:title="Adapters" target="_top">
<polygon fill="none" stroke="white" points="465.07,-19.32 406.75,-19.32 406.75,0 465.07,0 465.07,-19.32"/>
<text text-anchor="middle" x="435.91" y="-3.86" font-family="Sans-Serif" font-size="14.00">Adapters</text>
</a>
</g>
</g>
<!-- Copies&#45;&gt;Adapters -->
<g id="edge5" class="edge">
<title>Copies&#45;&gt;Adapters</title>
<path fill="none" stroke="black" d="M510.31,-168.23C513.21,-167.46 516.13,-166.68 518.91,-165.96 585.26,-148.69 698.78,-169.07 662.91,-110.64 623.14,-45.85 530.26,-22.87 476.44,-14.85"/>
<polygon fill="black" stroke="black" points="477.14,-11.41 466.76,-13.52 476.19,-18.35 477.14,-11.41"/>
</g>
<!-- Concat -->
<g id="node25" class="node">
<title>Concat</title>
<g id="a_node25"><a xlink:href="../concat.html" xlink:title="Concat" target="_top">
<polygon fill="none" stroke="white" points="653.44,-129.96 606.38,-129.96 606.38,-110.64 653.44,-110.64 653.44,-129.96"/>
<text text-anchor="middle" x="629.91" y="-114.5" font-family="Sans-Serif" font-size="14.00">Concat</text>
</a>
</g>
</g>
<!-- Copies&#45;&gt;Concat -->
<g id="edge36" class="edge">
<title>Copies&#45;&gt;Concat</title>
<path fill="none" stroke="black" d="M510.52,-165.82C533.71,-157.17 569.32,-143.89 595.62,-134.08"/>
<polygon fill="black" stroke="black" points="596.7,-137.42 604.84,-130.65 594.25,-130.86 596.7,-137.42"/>
</g>
<!-- Writers -->
<g id="node2" class="node">
<title>Writers</title>
<g id="a_node2"><a xlink:href="../writers.html" xlink:title="Writers" target="_top">
<polygon fill="none" stroke="white" points="346.44,-240.6 299.37,-240.6 299.37,-221.28 346.44,-221.28 346.44,-240.6"/>
<text text-anchor="middle" x="322.91" y="-225.14" font-family="Sans-Serif" font-size="14.00">Writers</text>
</a>
</g>
</g>
<!-- Writers&#45;&gt;Copies -->
<g id="edge1" class="edge">
<title>Writers&#45;&gt;Copies</title>
<path fill="none" stroke="black" d="M346.76,-222.19C374.65,-213.12 421.04,-198.04 452.75,-187.73"/>
<polygon fill="black" stroke="black" points="453.43,-191.18 461.86,-184.76 451.27,-184.53 453.43,-191.18"/>
</g>
<!-- Chains -->
<g id="node4" class="node">
<title>Chains</title>
<g id="a_node4"><a xlink:href="../chains.html" xlink:title="Chains" target="_top">
<polygon fill="none" stroke="white" points="272.07,-185.28 225.75,-185.28 225.75,-165.96 272.07,-165.96 272.07,-185.28"/>
<text text-anchor="middle" x="248.91" y="-169.82" font-family="Sans-Serif" font-size="14.00">Chains</text>
</a>
</g>
</g>
<!-- Writers&#45;&gt;Chains -->
<g id="edge30" class="edge">
<title>Writers&#45;&gt;Chains</title>
<path fill="none" stroke="black" d="M310.36,-220.89C299.45,-213.03 283.41,-201.48 270.45,-192.14"/>
<polygon fill="black" stroke="black" points="272.67,-189.42 262.51,-186.42 268.57,-195.1 272.67,-189.42"/>
</g>
<!-- MemoryFormat -->
<g id="node5" class="node">
<title>MemoryFormat</title>
<g id="a_node5"><a xlink:href="../memory_format.html" xlink:title="MemoryFormat" target="_top">
<polygon fill="none" stroke="white" points="387.94,-185.28 289.88,-185.28 289.88,-165.96 387.94,-165.96 387.94,-185.28"/>
<text text-anchor="middle" x="338.91" y="-169.82" font-family="Sans-Serif" font-size="14.00">MemoryFormat</text>
</a>
</g>
</g>
<!-- Writers&#45;&gt;MemoryFormat -->
<g id="edge23" class="edge">
<title>Writers&#45;&gt;MemoryFormat</title>
<path fill="none" stroke="black" d="M325.55,-221.14C327.55,-214.46 330.39,-205.02 332.93,-196.55"/>
<polygon fill="black" stroke="black" points="336.25,-197.65 335.78,-187.07 329.55,-195.64 336.25,-197.65"/>
</g>
<!-- FilesFormat -->
<g id="node16" class="node">
<title>FilesFormat</title>
<g id="a_node16"><a xlink:href="../files_format.html" xlink:title="FilesFormat" target="_top">
<polygon fill="none" stroke="white" points="114.07,-185.28 37.75,-185.28 37.75,-165.96 114.07,-165.96 114.07,-185.28"/>
<text text-anchor="middle" x="75.91" y="-169.82" font-family="Sans-Serif" font-size="14.00">FilesFormat</text>
</a>
</g>
</g>
<!-- Writers&#45;&gt;FilesFormat -->
<g id="edge34" class="edge">
<title>Writers&#45;&gt;FilesFormat</title>
<path fill="none" stroke="black" d="M299.18,-223.35C296.4,-222.63 293.6,-221.92 290.91,-221.28 234.58,-207.82 169.39,-194.61 125.69,-186.09"/>
<polygon fill="black" stroke="black" points="126.48,-182.68 116,-184.21 125.15,-189.55 126.48,-182.68"/>
</g>
<!-- H5dfFormat -->
<g id="node17" class="node">
<title>H5dfFormat</title>
<g id="a_node17"><a xlink:href="../h5df_format.html" xlink:title="H5dfFormat" target="_top">
<polygon fill="none" stroke="white" points="208.07,-185.28 131.75,-185.28 131.75,-165.96 208.07,-165.96 208.07,-185.28"/>
<text text-anchor="middle" x="169.91" y="-169.82" font-family="Sans-Serif" font-size="14.00">H5dfFormat</text>
</a>
</g>
</g>
<!-- Writers&#45;&gt;H5dfFormat -->
<g id="edge26" class="edge">
<title>Writers&#45;&gt;H5dfFormat</title>
<path fill="none" stroke="black" d="M299,-221.61C274.3,-213 235.4,-199.44 206.76,-189.46"/>
<polygon fill="black" stroke="black" points="207.98,-186.18 197.38,-186.19 205.67,-192.79 207.98,-186.18"/>
</g>
<!-- Reconstruction -->
<g id="node26" class="node">
<title>Reconstruction</title>
<g id="a_node26"><a xlink:href="../reconstruction.html" xlink:title="Reconstruction" target="_top">
<polygon fill="none" stroke="white" points="622.07,-185.28 527.75,-185.28 527.75,-165.96 622.07,-165.96 622.07,-185.28"/>
<text text-anchor="middle" x="574.91" y="-169.82" font-family="Sans-Serif" font-size="14.00">Reconstruction</text>
</a>
</g>
</g>
<!-- Writers&#45;&gt;Reconstruction -->
<g id="edge39" class="edge">
<title>Writers&#45;&gt;Reconstruction</title>
<path fill="none" stroke="black" d="M346.62,-224.92C386.2,-216.55 466.7,-199.52 520.74,-188.08"/>
<polygon fill="black" stroke="black" points="521.31,-191.54 530.37,-186.04 519.86,-184.69 521.31,-191.54"/>
</g>
<!-- Chains&#45;&gt;Adapters -->
<g id="edge2" class="edge">
<title>Chains&#45;&gt;Adapters</title>
<path fill="none" stroke="black" d="M243.09,-165.65C235.43,-152.6 224.13,-128.04 234.91,-110.64 269.89,-54.17 347.4,-28.57 395.29,-17.77"/>
<polygon fill="black" stroke="black" points="395.96,-21.21 405.01,-15.71 394.5,-14.36 395.96,-21.21"/>
</g>
<!-- CompleteDaf -->
<g id="node15" class="node">
<title>CompleteDaf</title>
<g id="a_node15"><a xlink:href="../complete.html" xlink:title="CompleteDaf" target="_top">
<polygon fill="none" stroke="white" points="83.82,-129.96 0,-129.96 0,-110.64 83.82,-110.64 83.82,-129.96"/>
<text text-anchor="middle" x="41.91" y="-114.5" font-family="Sans-Serif" font-size="14.00">CompleteDaf</text>
</a>
</g>
</g>
<!-- Chains&#45;&gt;CompleteDaf -->
<g id="edge13" class="edge">
<title>Chains&#45;&gt;CompleteDaf</title>
<path fill="none" stroke="black" d="M225.5,-168.24C222.61,-167.47 219.69,-166.69 216.91,-165.96 173.68,-154.59 124.32,-142.04 89.07,-133.14"/>
<polygon fill="black" stroke="black" points="90.17,-129.81 79.61,-130.76 88.46,-136.59 90.17,-129.81"/>
</g>
<!-- ExampleData -->
<g id="node22" class="node">
<title>ExampleData</title>
<g id="a_node22"><a xlink:href="../example_data.html" xlink:title="ExampleData" target="_top">
<polygon fill="none" stroke="white" points="187.94,-129.96 101.88,-129.96 101.88,-110.64 187.94,-110.64 187.94,-129.96"/>
<text text-anchor="middle" x="144.91" y="-114.5" font-family="Sans-Serif" font-size="14.00">ExampleData</text>
</a>
</g>
</g>
<!-- Chains&#45;&gt;ExampleData -->
<g id="edge20" class="edge">
<title>Chains&#45;&gt;ExampleData</title>
<path fill="none" stroke="black" d="M231.27,-165.57C215.28,-157.38 191.45,-145.16 172.87,-135.64"/>
<polygon fill="black" stroke="black" points="174.48,-132.53 163.99,-131.08 171.29,-138.76 174.48,-132.53"/>
</g>
<!-- MemoryFormat&#45;&gt;Adapters -->
<g id="edge3" class="edge">
<title>MemoryFormat&#45;&gt;Adapters</title>
<path fill="none" stroke="black" d="M344.13,-165.8C359.39,-140 404.2,-64.26 425.03,-29.04"/>
<polygon fill="black" stroke="black" points="427.82,-31.21 429.9,-20.82 421.79,-27.65 427.82,-31.21"/>
</g>
<!-- OldExampleData -->
<g id="node14" class="node">
<title>OldExampleData</title>
<g id="a_node14"><a xlink:href="../old_example_data.html" xlink:title="OldExampleData" target="_top">
<polygon fill="none" stroke="white" points="507.82,-129.96 400,-129.96 400,-110.64 507.82,-110.64 507.82,-129.96"/>
<text text-anchor="middle" x="453.91" y="-114.5" font-family="Sans-Serif" font-size="14.00">OldExampleData</text>
</a>
</g>
</g>
<!-- MemoryFormat&#45;&gt;OldExampleData -->
<g id="edge12" class="edge">
<title>MemoryFormat&#45;&gt;OldExampleData</title>
<path fill="none" stroke="black" d="M358.42,-165.57C376.43,-157.23 403.43,-144.7 424.14,-135.1"/>
<polygon fill="black" stroke="black" points="425.33,-138.41 432.93,-131.03 422.39,-132.06 425.33,-138.41"/>
</g>
<!-- MemoryFormat&#45;&gt;ExampleData -->
<g id="edge21" class="edge">
<title>MemoryFormat&#45;&gt;ExampleData</title>
<path fill="none" stroke="black" d="M306,-165.57C273.81,-156.73 224.57,-143.2 189.01,-133.42"/>
<polygon fill="black" stroke="black" points="190.01,-130.07 179.44,-130.79 188.16,-136.82 190.01,-130.07"/>
</g>
<!-- AnnDataFormat -->
<g id="node24" class="node">
<title>AnnDataFormat</title>
<g id="a_node24"><a xlink:href="../anndata_format.html" xlink:title="AnnDataFormat" target="_top">
<polygon fill="none" stroke="white" points="344.07,-129.96 243.75,-129.96 243.75,-110.64 344.07,-110.64 344.07,-129.96"/>
<text text-anchor="middle" x="293.91" y="-114.5" font-family="Sans-Serif" font-size="14.00">AnnDataFormat</text>
</a>
</g>
</g>
<!-- MemoryFormat&#45;&gt;AnnDataFormat -->
<g id="edge31" class="edge">
<title>MemoryFormat&#45;&gt;AnnDataFormat</title>
<path fill="none" stroke="black" d="M331.48,-165.82C325.33,-158.53 316.4,-147.94 308.78,-138.92"/>
<polygon fill="black" stroke="black" points="311.6,-136.84 302.48,-131.45 306.25,-141.35 311.6,-136.84"/>
</g>
<!-- Computations -->
<g id="node6" class="node">
<title>Computations</title>
<g id="a_node6"><a xlink:href="../computations.html" xlink:title="Computations" target="_top">
<polygon fill="none" stroke="white" points="545.07,-74.64 456.75,-74.64 456.75,-55.32 545.07,-55.32 545.07,-74.64"/>
<text text-anchor="middle" x="500.91" y="-59.18" font-family="Sans-Serif" font-size="14.00">Computations</text>
</a>
</g>
</g>
<!-- Computations&#45;&gt;Adapters -->
<g id="edge4" class="edge">
<title>Computations&#45;&gt;Adapters</title>
<path fill="none" stroke="black" d="M489.88,-54.93C480.49,-47.23 466.76,-35.97 455.5,-26.73"/>
<polygon fill="black" stroke="black" points="457.9,-24.17 447.94,-20.53 453.46,-29.58 457.9,-24.17"/>
</g>
<!-- Views -->
<g id="node7" class="node">
<title>Views</title>
<g id="a_node7"><a xlink:href="../views.html" xlink:title="Views" target="_top">
<polygon fill="none" stroke="white" points="446.07,-185.28 405.75,-185.28 405.75,-165.96 446.07,-165.96 446.07,-185.28"/>
<text text-anchor="middle" x="425.91" y="-169.82" font-family="Sans-Serif" font-size="14.00">Views</text>
</a>
</g>
</g>
<!-- Contracts -->
<g id="node18" class="node">
<title>Contracts</title>
<g id="a_node18"><a xlink:href="../contracts.html" xlink:title="Contracts" target="_top">
<polygon fill="none" stroke="white" points="587.94,-129.96 525.88,-129.96 525.88,-110.64 587.94,-110.64 587.94,-129.96"/>
<text text-anchor="middle" x="556.91" y="-114.5" font-family="Sans-Serif" font-size="14.00">Contracts</text>
</a>
</g>
</g>
<!-- Views&#45;&gt;Contracts -->
<g id="edge16" class="edge">
<title>Views&#45;&gt;Contracts</title>
<path fill="none" stroke="black" d="M446.38,-166.29C467.22,-157.81 499.85,-144.52 524.27,-134.59"/>
<polygon fill="black" stroke="black" points="525.49,-137.87 533.43,-130.86 522.85,-131.38 525.49,-137.87"/>
</g>
<!-- Views&#45;&gt;Concat -->
<g id="edge35" class="edge">
<title>Views&#45;&gt;Concat</title>
<path fill="none" stroke="black" d="M446.47,-168.36C449.3,-167.54 452.17,-166.71 454.91,-165.96 514.36,-149.55 532.03,-146.52 595.14,-130.39"/>
<polygon fill="black" stroke="black" points="595.84,-133.82 604.66,-127.94 594.1,-127.04 595.84,-133.82"/>
</g>
<!-- Queries -->
<g id="node8" class="node">
<title>Queries</title>
<g id="a_node8"><a xlink:href="../queries.html" xlink:title="Queries" target="_top">
<polygon fill="none" stroke="white" points="434.07,-240.6 381.75,-240.6 381.75,-221.28 434.07,-221.28 434.07,-240.6"/>
<text text-anchor="middle" x="407.91" y="-225.14" font-family="Sans-Serif" font-size="14.00">Queries</text>
</a>
</g>
</g>
<!-- Queries&#45;&gt;Views -->
<g id="edge6" class="edge">
<title>Queries&#45;&gt;Views</title>
<path fill="none" stroke="black" d="M410.88,-221.14C413.16,-214.38 416.4,-204.81 419.28,-196.26"/>
<polygon fill="black" stroke="black" points="422.51,-197.64 422.39,-187.05 415.87,-195.41 422.51,-197.64"/>
</g>
<!-- Queries&#45;&gt;Reconstruction -->
<g id="edge38" class="edge">
<title>Queries&#45;&gt;Reconstruction</title>
<path fill="none" stroke="black" d="M434.37,-221.49C461.57,-212.81 504.22,-199.19 535.41,-189.23"/>
<polygon fill="black" stroke="black" points="536.43,-192.58 544.89,-186.2 534.3,-185.91 536.43,-192.58"/>
</g>
<!-- ReadOnly -->
<g id="node9" class="node">
<title>ReadOnly</title>
<g id="a_node9"><a xlink:href="../read_only.html" xlink:title="ReadOnly" target="_top">
<polygon fill="none" stroke="white" points="281.44,-240.6 216.38,-240.6 216.38,-221.28 281.44,-221.28 281.44,-240.6"/>
<text text-anchor="middle" x="248.91" y="-225.14" font-family="Sans-Serif" font-size="14.00">ReadOnly</text>
</a>
</g>
</g>
<!-- ReadOnly&#45;&gt;Chains -->
<g id="edge29" class="edge">
<title>ReadOnly&#45;&gt;Chains</title>
<path fill="none" stroke="black" d="M248.91,-221.14C248.91,-214.54 248.91,-205.24 248.91,-196.85"/>
<polygon fill="black" stroke="black" points="252.41,-197.13 248.91,-187.13 245.41,-197.13 252.41,-197.13"/>
</g>
<!-- ReadOnly&#45;&gt;Views -->
<g id="edge7" class="edge">
<title>ReadOnly&#45;&gt;Views</title>
<path fill="none" stroke="black" d="M278.94,-220.89C311.14,-211.19 362.04,-195.86 394.69,-186.02"/>
<polygon fill="black" stroke="black" points="395.41,-189.46 403.97,-183.23 393.39,-182.76 395.41,-189.46"/>
</g>
<!-- ReadOnly&#45;&gt;FilesFormat -->
<g id="edge32" class="edge">
<title>ReadOnly&#45;&gt;FilesFormat</title>
<path fill="none" stroke="black" d="M219.56,-220.89C191.11,-212.12 147.71,-198.75 116.06,-189"/>
<polygon fill="black" stroke="black" points="117.43,-185.76 106.85,-186.16 115.37,-192.45 117.43,-185.76"/>
</g>
<!-- ReadOnly&#45;&gt;H5dfFormat -->
<g id="edge25" class="edge">
<title>ReadOnly&#45;&gt;H5dfFormat</title>
<path fill="none" stroke="black" d="M235.51,-220.89C223.82,-213.01 206.61,-201.39 192.75,-192.04"/>
<polygon fill="black" stroke="black" points="194.88,-189.25 184.63,-186.56 190.96,-195.05 194.88,-189.25"/>
</g>
<!-- Operations -->
<g id="node10" class="node">
<title>Operations</title>
<g id="a_node10"><a xlink:href="../operations.html" xlink:title="Operations" target="_top">
<polygon fill="none" stroke="white" points="225.44,-295.92 154.38,-295.92 154.38,-276.6 225.44,-276.6 225.44,-295.92"/>
<text text-anchor="middle" x="189.91" y="-280.46" font-family="Sans-Serif" font-size="14.00">Operations</text>
</a>
</g>
</g>
<!-- Operations&#45;&gt;Queries -->
<g id="edge11" class="edge">
<title>Operations&#45;&gt;Queries</title>
<path fill="none" stroke="black" d="M225.91,-276.46C265.84,-266.69 329.96,-251.01 370.46,-241.1"/>
<polygon fill="black" stroke="black" points="371.12,-244.54 380,-238.77 369.46,-237.74 371.12,-244.54"/>
</g>
<!-- Operations&#45;&gt;FilesFormat -->
<g id="edge33" class="edge">
<title>Operations&#45;&gt;FilesFormat</title>
<path fill="none" stroke="black" d="M179.41,-276.19C169.19,-267.28 153.28,-253.23 139.91,-240.6 123.4,-224.99 105.11,-206.6 92.33,-193.55"/>
<polygon fill="black" stroke="black" points="95,-191.27 85.51,-186.55 89.99,-196.16 95,-191.27"/>
</g>
<!-- Tokens -->
<g id="node11" class="node">
<title>Tokens</title>
<g id="a_node11"><a xlink:href="../tokens.html" xlink:title="Tokens" target="_top">
<polygon fill="none" stroke="white" points="285.44,-406.56 238.37,-406.56 238.37,-387.24 285.44,-387.24 285.44,-406.56"/>
<text text-anchor="middle" x="261.91" y="-391.1" font-family="Sans-Serif" font-size="14.00">Tokens</text>
</a>
</g>
</g>
<!-- Tokens&#45;&gt;Operations -->
<g id="edge8" class="edge">
<title>Tokens&#45;&gt;Operations</title>
<path fill="none" stroke="black" d="M256.02,-387.01C244.31,-369.34 217.9,-329.49 202.23,-305.85"/>
<polygon fill="black" stroke="black" points="205.16,-303.94 196.72,-297.53 199.33,-307.8 205.16,-303.94"/>
</g>
<!-- Formats -->
<g id="node19" class="node">
<title>Formats</title>
<g id="a_node19"><a xlink:href="../formats.html" xlink:title="Formats" target="_top">
<polygon fill="none" stroke="white" points="313.19,-351.24 258.62,-351.24 258.62,-331.92 313.19,-331.92 313.19,-351.24"/>
<text text-anchor="middle" x="285.91" y="-335.78" font-family="Sans-Serif" font-size="14.00">Formats</text>
</a>
</g>
</g>
<!-- Tokens&#45;&gt;Formats -->
<g id="edge19" class="edge">
<title>Tokens&#45;&gt;Formats</title>
<path fill="none" stroke="black" d="M265.87,-387.1C268.95,-380.27 273.32,-370.55 277.2,-361.93"/>
<polygon fill="black" stroke="black" points="280.33,-363.51 281.24,-352.96 273.94,-360.64 280.33,-363.51"/>
</g>
<!-- Registry -->
<g id="node12" class="node">
<title>Registry</title>
<g id="a_node12"><a xlink:href="../registry.html" xlink:title="Registry" target="_top">
<polygon fill="none" stroke="white" points="202.82,-351.24 149,-351.24 149,-331.92 202.82,-331.92 202.82,-351.24"/>
<text text-anchor="middle" x="175.91" y="-335.78" font-family="Sans-Serif" font-size="14.00">Registry</text>
</a>
</g>
</g>
<!-- Registry&#45;&gt;Operations -->
<g id="edge9" class="edge">
<title>Registry&#45;&gt;Operations</title>
<path fill="none" stroke="black" d="M178.22,-331.78C179.97,-325.1 182.45,-315.66 184.68,-307.19"/>
<polygon fill="black" stroke="black" points="188.01,-308.28 187.16,-297.72 181.24,-306.5 188.01,-308.28"/>
</g>
<!-- Readers -->
<g id="node13" class="node">
<title>Readers</title>
<g id="a_node13"><a xlink:href="../readers.html" xlink:title="Readers" target="_top">
<polygon fill="none" stroke="white" points="313.57,-295.92 258.25,-295.92 258.25,-276.6 313.57,-276.6 313.57,-295.92"/>
<text text-anchor="middle" x="285.91" y="-280.46" font-family="Sans-Serif" font-size="14.00">Readers</text>
</a>
</g>
</g>
<!-- Readers&#45;&gt;Writers -->
<g id="edge28" class="edge">
<title>Readers&#45;&gt;Writers</title>
<path fill="none" stroke="black" d="M292.02,-276.46C296.97,-269.32 304.11,-259.03 310.28,-250.14"/>
<polygon fill="black" stroke="black" points="312.98,-252.39 315.8,-242.18 307.23,-248.4 312.98,-252.39"/>
</g>
<!-- Readers&#45;&gt;Queries -->
<g id="edge10" class="edge">
<title>Readers&#45;&gt;Queries</title>
<path fill="none" stroke="black" d="M306.61,-276.21C325.8,-267.83 354.62,-255.23 376.63,-245.61"/>
<polygon fill="black" stroke="black" points="377.96,-248.85 385.73,-241.64 375.16,-242.43 377.96,-248.85"/>
</g>
<!-- Readers&#45;&gt;ReadOnly -->
<g id="edge40" class="edge">
<title>Readers&#45;&gt;ReadOnly</title>
<path fill="none" stroke="black" d="M279.8,-276.46C274.85,-269.32 267.71,-259.03 261.54,-250.14"/>
<polygon fill="black" stroke="black" points="264.59,-248.4 256.02,-242.18 258.84,-252.39 264.59,-248.4"/>
</g>
<!-- Groups -->
<g id="node23" class="node">
<title>Groups</title>
<g id="a_node23"><a xlink:href="../groups.html" xlink:title="Groups" target="_top">
<polygon fill="none" stroke="white" points="198.57,-240.6 149.25,-240.6 149.25,-221.28 198.57,-221.28 198.57,-240.6"/>
<text text-anchor="middle" x="173.91" y="-225.14" font-family="Sans-Serif" font-size="14.00">Groups</text>
</a>
</g>
</g>
<!-- Readers&#45;&gt;Groups -->
<g id="edge27" class="edge">
<title>Readers&#45;&gt;Groups</title>
<path fill="none" stroke="black" d="M266.91,-276.21C249.45,-267.9 223.31,-255.46 203.19,-245.88"/>
<polygon fill="black" stroke="black" points="204.9,-242.82 194.37,-241.68 201.89,-249.14 204.9,-242.82"/>
</g>
<!-- FilesFormat&#45;&gt;CompleteDaf -->
<g id="edge14" class="edge">
<title>FilesFormat&#45;&gt;CompleteDaf</title>
<path fill="none" stroke="black" d="M70.3,-165.82C65.79,-158.76 59.32,-148.61 53.7,-139.78"/>
<polygon fill="black" stroke="black" points="56.79,-138.12 48.46,-131.57 50.89,-141.89 56.79,-138.12"/>
</g>
<!-- FilesFormat&#45;&gt;ExampleData -->
<g id="edge22" class="edge">
<title>FilesFormat&#45;&gt;ExampleData</title>
<path fill="none" stroke="black" d="M87.61,-165.57C97.69,-157.79 112.45,-146.38 124.47,-137.09"/>
<polygon fill="black" stroke="black" points="126.41,-140.02 132.18,-131.14 122.13,-134.48 126.41,-140.02"/>
</g>
<!-- H5dfFormat&#45;&gt;CompleteDaf -->
<g id="edge15" class="edge">
<title>H5dfFormat&#45;&gt;CompleteDaf</title>
<path fill="none" stroke="black" d="M148.2,-165.57C127.88,-157.11 97.26,-144.36 74.1,-134.71"/>
<polygon fill="black" stroke="black" points="75.7,-131.59 65.13,-130.97 73.01,-138.05 75.7,-131.59"/>
</g>
<!-- Contracts&#45;&gt;Computations -->
<g id="edge37" class="edge">
<title>Contracts&#45;&gt;Computations</title>
<path fill="none" stroke="black" d="M547.41,-110.25C539.48,-102.7 527.96,-91.74 518.37,-82.61"/>
<polygon fill="black" stroke="black" points="521.02,-80.3 511.37,-75.94 516.19,-85.37 521.02,-80.3"/>
</g>
<!-- Formats&#45;&gt;Readers -->
<g id="edge41" class="edge">
<title>Formats&#45;&gt;Readers</title>
<path fill="none" stroke="black" d="M285.91,-331.78C285.91,-325.18 285.91,-315.88 285.91,-307.49"/>
<polygon fill="black" stroke="black" points="289.41,-307.77 285.91,-297.77 282.41,-307.77 289.41,-307.77"/>
</g>
<!-- Keys -->
<g id="node20" class="node">
<title>Keys</title>
<g id="a_node20"><a xlink:href="../keys.html" xlink:title="Keys" target="_top">
<polygon fill="none" stroke="white" points="338.07,-406.56 303.75,-406.56 303.75,-387.24 338.07,-387.24 338.07,-406.56"/>
<text text-anchor="middle" x="320.91" y="-391.1" font-family="Sans-Serif" font-size="14.00">Keys</text>
</a>
</g>
</g>
<!-- Keys&#45;&gt;Formats -->
<g id="edge17" class="edge">
<title>Keys&#45;&gt;Formats</title>
<path fill="none" stroke="black" d="M315.13,-387.1C310.5,-380.04 303.84,-369.89 298.04,-361.06"/>
<polygon fill="black" stroke="black" points="301.06,-359.28 292.65,-352.84 295.21,-363.12 301.06,-359.28"/>
</g>
<!-- StorageTypes -->
<g id="node21" class="node">
<title>StorageTypes</title>
<g id="a_node21"><a xlink:href="../storage_types.html" xlink:title="StorageTypes" target="_top">
<polygon fill="none" stroke="white" points="220.07,-406.56 131.75,-406.56 131.75,-387.24 220.07,-387.24 220.07,-406.56"/>
<text text-anchor="middle" x="175.91" y="-391.1" font-family="Sans-Serif" font-size="14.00">StorageTypes</text>
</a>
</g>
</g>
<!-- StorageTypes&#45;&gt;Registry -->
<g id="edge24" class="edge">
<title>StorageTypes&#45;&gt;Registry</title>
<path fill="none" stroke="black" d="M175.91,-387.1C175.91,-380.5 175.91,-371.2 175.91,-362.81"/>
<polygon fill="black" stroke="black" points="179.41,-363.09 175.91,-353.09 172.41,-363.09 179.41,-363.09"/>
</g>
<!-- StorageTypes&#45;&gt;Formats -->
<g id="edge18" class="edge">
<title>StorageTypes&#45;&gt;Formats</title>
<path fill="none" stroke="black" d="M194.57,-386.85C211.64,-378.58 237.15,-366.21 256.88,-356.65"/>
<polygon fill="black" stroke="black" points="258.32,-359.84 265.8,-352.33 255.27,-353.54 258.32,-359.84"/>
</g>
</g>
</svg>
