<?xml version="1.0" encoding="UTF-8" standalone="no"?>
<!DOCTYPE svg PUBLIC "-//W3C//DTD SVG 1.1//EN"
 "http://www.w3.org/Graphics/SVG/1.1/DTD/svg11.dtd">
<!-- Generated by graphviz version 12.2.1 (20241206.2353)
 -->
<!-- Pages: 1 -->
<svg width="616pt" height="636pt"
 viewBox="0.00 0.00 616.07 635.84" xmlns="http://www.w3.org/2000/svg" xmlns:xlink="http://www.w3.org/1999/xlink">
<g id="graph0" class="graph" transform="scale(1 1) rotate(0) translate(4 631.84)">
<polygon fill="white" stroke="none" points="-4,4 -4,-631.84 612.07,-631.84 612.07,4 -4,4"/>
<!-- Copies -->
<g id="node1" class="node">
<title>Copies</title>
<g id="a_node1"><a xlink:href="../copies.html" xlink:title="Copies" target="_top">
<polygon fill="none" stroke="white" points="298.32,-185.28 252,-185.28 252,-165.96 298.32,-165.96 298.32,-185.28"/>
<text text-anchor="middle" x="275.16" y="-169.82" font-family="Sans-Serif" font-size="14.00">Copies</text>
</a>
</g>
</g>
<!-- Adapters -->
<g id="node6" class="node">
<title>Adapters</title>
<g id="a_node6"><a xlink:href="../adapters.html" xlink:title="Adapters" target="_top">
<polygon fill="none" stroke="white" points="308.32,-19.32 250,-19.32 250,0 308.32,0 308.32,-19.32"/>
<text text-anchor="middle" x="279.16" y="-3.86" font-family="Sans-Serif" font-size="14.00">Adapters</text>
</a>
</g>
</g>
<!-- Copies&#45;&gt;Adapters -->
<g id="edge3" class="edge">
<title>Copies&#45;&gt;Adapters</title>
<path fill="none" stroke="black" d="M263.8,-165.75C254.37,-157.61 241.66,-144.61 236.16,-129.96 233.14,-121.92 234.43,-119.05 236.16,-110.64 242.28,-80.94 257.63,-49.18 268.23,-29.62"/>
<polygon fill="black" stroke="black" points="271.25,-31.38 273.07,-20.94 265.14,-27.96 271.25,-31.38"/>
</g>
<!-- Concat -->
<g id="node32" class="node">
<title>Concat</title>
<g id="a_node32"><a xlink:href="../concat.html" xlink:title="Concat" target="_top">
<polygon fill="none" stroke="white" points="292.69,-129.96 245.62,-129.96 245.62,-110.64 292.69,-110.64 292.69,-129.96"/>
<text text-anchor="middle" x="269.16" y="-114.5" font-family="Sans-Serif" font-size="14.00">Concat</text>
</a>
</g>
</g>
<!-- Copies&#45;&gt;Concat -->
<g id="edge39" class="edge">
<title>Copies&#45;&gt;Concat</title>
<path fill="none" stroke="black" d="M274.17,-165.82C273.43,-159.22 272.38,-149.92 271.44,-141.53"/>
<polygon fill="black" stroke="black" points="274.94,-141.35 270.34,-131.8 267.98,-142.13 274.94,-141.35"/>
</g>
<!-- Writers -->
<g id="node2" class="node">
<title>Writers</title>
<g id="a_node2"><a xlink:href="../writers.html" xlink:title="Writers" target="_top">
<polygon fill="none" stroke="white" points="296.69,-240.6 249.62,-240.6 249.62,-221.28 296.69,-221.28 296.69,-240.6"/>
<text text-anchor="middle" x="273.16" y="-225.14" font-family="Sans-Serif" font-size="14.00">Writers</text>
</a>
</g>
</g>
<!-- Writers&#45;&gt;Copies -->
<g id="edge1" class="edge">
<title>Writers&#45;&gt;Copies</title>
<path fill="none" stroke="black" d="M273.49,-221.14C273.74,-214.54 274.09,-205.24 274.4,-196.85"/>
<polygon fill="black" stroke="black" points="277.89,-197.25 274.77,-187.13 270.89,-196.99 277.89,-197.25"/>
</g>
<!-- MemoryFormat -->
<g id="node7" class="node">
<title>MemoryFormat</title>
<g id="a_node7"><a xlink:href="../memory_format.html" xlink:title="MemoryFormat" target="_top">
<polygon fill="none" stroke="white" points="479.19,-185.28 381.12,-185.28 381.12,-165.96 479.19,-165.96 479.19,-185.28"/>
<text text-anchor="middle" x="430.16" y="-169.82" font-family="Sans-Serif" font-size="14.00">MemoryFormat</text>
</a>
</g>
</g>
<!-- Writers&#45;&gt;MemoryFormat -->
<g id="edge22" class="edge">
<title>Writers&#45;&gt;MemoryFormat</title>
<path fill="none" stroke="black" d="M297,-221.84C322.33,-213.24 362.74,-199.52 392.4,-189.44"/>
<polygon fill="black" stroke="black" points="393.41,-192.8 401.76,-186.27 391.16,-186.17 393.41,-192.8"/>
</g>
<!-- Chains -->
<g id="node9" class="node">
<title>Chains</title>
<g id="a_node9"><a xlink:href="../chains.html" xlink:title="Chains" target="_top">
<polygon fill="none" stroke="white" points="234.32,-185.28 188,-185.28 188,-165.96 234.32,-165.96 234.32,-185.28"/>
<text text-anchor="middle" x="211.16" y="-169.82" font-family="Sans-Serif" font-size="14.00">Chains</text>
</a>
</g>
</g>
<!-- Writers&#45;&gt;Chains -->
<g id="edge32" class="edge">
<title>Writers&#45;&gt;Chains</title>
<path fill="none" stroke="black" d="M262.64,-220.89C253.77,-213.27 240.85,-202.15 230.17,-192.97"/>
<polygon fill="black" stroke="black" points="232.53,-190.39 222.67,-186.52 227.97,-195.69 232.53,-190.39"/>
</g>
<!-- H5dfFormat -->
<g id="node27" class="node">
<title>H5dfFormat</title>
<g id="a_node27"><a xlink:href="../h5df_format.html" xlink:title="H5dfFormat" target="_top">
<polygon fill="none" stroke="white" points="170.32,-185.28 94,-185.28 94,-165.96 170.32,-165.96 170.32,-185.28"/>
<text text-anchor="middle" x="132.16" y="-169.82" font-family="Sans-Serif" font-size="14.00">H5dfFormat</text>
</a>
</g>
</g>
<!-- Writers&#45;&gt;H5dfFormat -->
<g id="edge27" class="edge">
<title>Writers&#45;&gt;H5dfFormat</title>
<path fill="none" stroke="black" d="M249.24,-220.89C226.66,-212.35 192.52,-199.45 166.93,-189.77"/>
<polygon fill="black" stroke="black" points="168.2,-186.51 157.61,-186.24 165.73,-193.06 168.2,-186.51"/>
</g>
<!-- FilesFormat -->
<g id="node30" class="node">
<title>FilesFormat</title>
<g id="a_node30"><a xlink:href="../files_format.html" xlink:title="FilesFormat" target="_top">
<polygon fill="none" stroke="white" points="76.32,-185.28 0,-185.28 0,-165.96 76.32,-165.96 76.32,-185.28"/>
<text text-anchor="middle" x="38.16" y="-169.82" font-family="Sans-Serif" font-size="14.00">FilesFormat</text>
</a>
</g>
</g>
<!-- Writers&#45;&gt;FilesFormat -->
<g id="edge36" class="edge">
<title>Writers&#45;&gt;FilesFormat</title>
<path fill="none" stroke="black" d="M249.43,-223.38C246.65,-222.65 243.84,-221.94 241.16,-221.28 188.94,-208.48 128.74,-195.45 87.54,-186.8"/>
<polygon fill="black" stroke="black" points="88.43,-183.41 77.93,-184.78 87,-190.26 88.43,-183.41"/>
</g>
<!-- Reconstruction -->
<g id="node33" class="node">
<title>Reconstruction</title>
<g id="a_node33"><a xlink:href="../reconstruction.html" xlink:title="Reconstruction" target="_top">
<polygon fill="none" stroke="white" points="591.32,-185.28 497,-185.28 497,-165.96 591.32,-165.96 591.32,-185.28"/>
<text text-anchor="middle" x="544.16" y="-169.82" font-family="Sans-Serif" font-size="14.00">Reconstruction</text>
</a>
</g>
</g>
<!-- Writers&#45;&gt;Reconstruction -->
<g id="edge43" class="edge">
<title>Writers&#45;&gt;Reconstruction</title>
<path fill="none" stroke="black" d="M296.9,-223.49C300.01,-222.71 303.15,-221.96 306.16,-221.28 366.92,-207.63 437.05,-194.82 485.36,-186.45"/>
<polygon fill="black" stroke="black" points="485.79,-189.93 495.05,-184.79 484.6,-183.03 485.79,-189.93"/>
</g>
<!-- GenericTypes -->
<g id="node3" class="node">
<title>GenericTypes</title>
<g id="a_node3"><a xlink:href="../generic_types.html" xlink:title="GenericTypes" target="_top">
<polygon fill="none" stroke="white" points="346.69,-572.52 257.62,-572.52 257.62,-553.2 346.69,-553.2 346.69,-572.52"/>
<text text-anchor="middle" x="302.16" y="-557.06" font-family="Sans-Serif" font-size="14.00">GenericTypes</text>
</a>
</g>
</g>
<!-- GenericLogging -->
<g id="node13" class="node">
<title>GenericLogging</title>
<g id="a_node13"><a xlink:href="../generic_logging.html" xlink:title="GenericLogging" target="_top">
<polygon fill="none" stroke="white" points="180.32,-517.2 80,-517.2 80,-497.88 180.32,-497.88 180.32,-517.2"/>
<text text-anchor="middle" x="130.16" y="-501.74" font-family="Sans-Serif" font-size="14.00">GenericLogging</text>
</a>
</g>
</g>
<!-- GenericTypes&#45;&gt;GenericLogging -->
<g id="edge8" class="edge">
<title>GenericTypes&#45;&gt;GenericLogging</title>
<path fill="none" stroke="black" d="M272.98,-552.81C244.69,-544.04 201.55,-530.67 170.08,-520.92"/>
<polygon fill="black" stroke="black" points="171.51,-517.7 160.93,-518.08 169.44,-524.38 171.51,-517.7"/>
</g>
<!-- GenericStorage -->
<g id="node26" class="node">
<title>GenericStorage</title>
<g id="a_node26"><a xlink:href="../generic_storage.html" xlink:title="GenericStorage" target="_top">
<polygon fill="none" stroke="white" points="426.94,-517.2 327.38,-517.2 327.38,-497.88 426.94,-497.88 426.94,-517.2"/>
<text text-anchor="middle" x="377.16" y="-501.74" font-family="Sans-Serif" font-size="14.00">GenericStorage</text>
</a>
</g>
</g>
<!-- GenericTypes&#45;&gt;GenericStorage -->
<g id="edge23" class="edge">
<title>GenericTypes&#45;&gt;GenericStorage</title>
<path fill="none" stroke="black" d="M314.88,-552.81C325.87,-545 342,-533.53 355.09,-524.23"/>
<polygon fill="black" stroke="black" points="357.02,-527.15 363.14,-518.51 352.96,-521.45 357.02,-527.15"/>
</g>
<!-- GenericFunctions -->
<g id="node4" class="node">
<title>GenericFunctions</title>
<g id="a_node4"><a xlink:href="../generic_functions.html" xlink:title="GenericFunctions" target="_top">
<polygon fill="none" stroke="white" points="309.57,-517.2 198.75,-517.2 198.75,-497.88 309.57,-497.88 309.57,-517.2"/>
<text text-anchor="middle" x="254.16" y="-501.74" font-family="Sans-Serif" font-size="14.00">GenericFunctions</text>
</a>
</g>
</g>
<!-- Tokens -->
<g id="node17" class="node">
<title>Tokens</title>
<g id="a_node17"><a xlink:href="../tokens.html" xlink:title="Tokens" target="_top">
<polygon fill="none" stroke="white" points="352.69,-406.56 305.62,-406.56 305.62,-387.24 352.69,-387.24 352.69,-406.56"/>
<text text-anchor="middle" x="329.16" y="-391.1" font-family="Sans-Serif" font-size="14.00">Tokens</text>
</a>
</g>
</g>
<!-- GenericFunctions&#45;&gt;Tokens -->
<g id="edge28" class="edge">
<title>GenericFunctions&#45;&gt;Tokens</title>
<path fill="none" stroke="black" d="M269.81,-497.45C282.16,-489.52 298.94,-476.95 309.16,-461.88 318.07,-448.74 323.16,-431.44 325.98,-418.14"/>
<polygon fill="black" stroke="black" points="329.41,-418.84 327.76,-408.37 322.52,-417.58 329.41,-418.84"/>
</g>
<!-- Registry -->
<g id="node18" class="node">
<title>Registry</title>
<g id="a_node18"><a xlink:href="../registry.html" xlink:title="Registry" target="_top">
<polygon fill="none" stroke="white" points="410.07,-461.88 356.25,-461.88 356.25,-442.56 410.07,-442.56 410.07,-461.88"/>
<text text-anchor="middle" x="383.16" y="-446.42" font-family="Sans-Serif" font-size="14.00">Registry</text>
</a>
</g>
</g>
<!-- GenericFunctions&#45;&gt;Registry -->
<g id="edge25" class="edge">
<title>GenericFunctions&#45;&gt;Registry</title>
<path fill="none" stroke="black" d="M276.04,-497.49C296.52,-489.03 327.37,-476.28 350.72,-466.63"/>
<polygon fill="black" stroke="black" points="351.87,-469.94 359.77,-462.89 349.19,-463.47 351.87,-469.94"/>
</g>
<!-- Documentation -->
<g id="node31" class="node">
<title>Documentation</title>
<g id="a_node31"><a xlink:href="../documentation.html" xlink:title="Documentation" target="_top">
<polygon fill="none" stroke="white" points="178.07,-461.88 82.25,-461.88 82.25,-442.56 178.07,-442.56 178.07,-461.88"/>
<text text-anchor="middle" x="130.16" y="-446.42" font-family="Sans-Serif" font-size="14.00">Documentation</text>
</a>
</g>
</g>
<!-- GenericFunctions&#45;&gt;Documentation -->
<g id="edge37" class="edge">
<title>GenericFunctions&#45;&gt;Documentation</title>
<path fill="none" stroke="black" d="M233.13,-497.49C213.53,-489.07 184.05,-476.39 161.65,-466.76"/>
<polygon fill="black" stroke="black" points="163.26,-463.64 152.69,-462.91 160.49,-470.07 163.26,-463.64"/>
</g>
<!-- GenericLocks -->
<g id="node5" class="node">
<title>GenericLocks</title>
<g id="a_node5"><a xlink:href="../generic_locks.html" xlink:title="GenericLocks" target="_top">
<polygon fill="none" stroke="white" points="180.94,-406.56 93.38,-406.56 93.38,-387.24 180.94,-387.24 180.94,-406.56"/>
<text text-anchor="middle" x="137.16" y="-391.1" font-family="Sans-Serif" font-size="14.00">GenericLocks</text>
</a>
</g>
</g>
<!-- Formats -->
<g id="node23" class="node">
<title>Formats</title>
<g id="a_node23"><a xlink:href="../formats.html" xlink:title="Formats" target="_top">
<polygon fill="none" stroke="white" points="258.44,-351.24 203.88,-351.24 203.88,-331.92 258.44,-331.92 258.44,-351.24"/>
<text text-anchor="middle" x="231.16" y="-335.78" font-family="Sans-Serif" font-size="14.00">Formats</text>
</a>
</g>
</g>
<!-- GenericLocks&#45;&gt;Formats -->
<g id="edge18" class="edge">
<title>GenericLocks&#45;&gt;Formats</title>
<path fill="none" stroke="black" d="M153.11,-386.85C167.42,-378.74 188.69,-366.67 205.41,-357.18"/>
<polygon fill="black" stroke="black" points="206.85,-360.39 213.82,-352.42 203.39,-354.31 206.85,-360.39"/>
</g>
<!-- MemoryFormat&#45;&gt;Adapters -->
<g id="edge2" class="edge">
<title>MemoryFormat&#45;&gt;Adapters</title>
<path fill="none" stroke="black" d="M477.94,-165.47C526.69,-155.64 596.3,-140.09 604.16,-129.96 609.42,-123.18 609.26,-117.55 604.16,-110.64 569.94,-64.31 399.03,-30.51 319.71,-17.07"/>
<polygon fill="black" stroke="black" points="320.64,-13.67 310.2,-15.48 319.49,-20.58 320.64,-13.67"/>
</g>
<!-- ExampleData -->
<g id="node25" class="node">
<title>ExampleData</title>
<g id="a_node25"><a xlink:href="../example_data.html" xlink:title="ExampleData" target="_top">
<polygon fill="none" stroke="white" points="477.19,-129.96 391.12,-129.96 391.12,-110.64 477.19,-110.64 477.19,-129.96"/>
<text text-anchor="middle" x="434.16" y="-114.5" font-family="Sans-Serif" font-size="14.00">ExampleData</text>
</a>
</g>
</g>
<!-- MemoryFormat&#45;&gt;ExampleData -->
<g id="edge21" class="edge">
<title>MemoryFormat&#45;&gt;ExampleData</title>
<path fill="none" stroke="black" d="M430.82,-165.82C431.32,-159.22 432.01,-149.92 432.64,-141.53"/>
<polygon fill="black" stroke="black" points="436.11,-142.04 433.37,-131.81 429.13,-141.52 436.11,-142.04"/>
</g>
<!-- AnnDataFormat -->
<g id="node29" class="node">
<title>AnnDataFormat</title>
<g id="a_node29"><a xlink:href="../anndata_format.html" xlink:title="AnnDataFormat" target="_top">
<polygon fill="none" stroke="white" points="595.32,-129.96 495,-129.96 495,-110.64 595.32,-110.64 595.32,-129.96"/>
<text text-anchor="middle" x="545.16" y="-114.5" font-family="Sans-Serif" font-size="14.00">AnnDataFormat</text>
</a>
</g>
</g>
<!-- MemoryFormat&#45;&gt;AnnDataFormat -->
<g id="edge33" class="edge">
<title>MemoryFormat&#45;&gt;AnnDataFormat</title>
<path fill="none" stroke="black" d="M449.67,-165.57C467.68,-157.23 494.68,-144.7 515.39,-135.1"/>
<polygon fill="black" stroke="black" points="516.58,-138.41 524.18,-131.03 513.64,-132.06 516.58,-138.41"/>
</g>
<!-- Computations -->
<g id="node8" class="node">
<title>Computations</title>
<g id="a_node8"><a xlink:href="../computations.html" xlink:title="Computations" target="_top">
<polygon fill="none" stroke="white" points="360.32,-74.64 272,-74.64 272,-55.32 360.32,-55.32 360.32,-74.64"/>
<text text-anchor="middle" x="316.16" y="-59.18" font-family="Sans-Serif" font-size="14.00">Computations</text>
</a>
</g>
</g>
<!-- Computations&#45;&gt;Adapters -->
<g id="edge4" class="edge">
<title>Computations&#45;&gt;Adapters</title>
<path fill="none" stroke="black" d="M310.05,-55.18C305.1,-48.04 297.96,-37.75 291.79,-28.86"/>
<polygon fill="black" stroke="black" points="294.84,-27.12 286.27,-20.9 289.09,-31.11 294.84,-27.12"/>
</g>
<!-- Chains&#45;&gt;Adapters -->
<g id="edge5" class="edge">
<title>Chains&#45;&gt;Adapters</title>
<path fill="none" stroke="black" d="M212.29,-165.48C215.13,-144.86 223.73,-93.55 243.16,-55.32 248.1,-45.6 255.4,-36.03 262.14,-28.25"/>
<polygon fill="black" stroke="black" points="264.7,-30.63 268.86,-20.89 259.53,-25.91 264.7,-30.63"/>
</g>
<!-- Views -->
<g id="node10" class="node">
<title>Views</title>
<g id="a_node10"><a xlink:href="../views.html" xlink:title="Views" target="_top">
<polygon fill="none" stroke="white" points="359.32,-185.28 319,-185.28 319,-165.96 359.32,-165.96 359.32,-185.28"/>
<text text-anchor="middle" x="339.16" y="-169.82" font-family="Sans-Serif" font-size="14.00">Views</text>
</a>
</g>
</g>
<!-- Contracts -->
<g id="node21" class="node">
<title>Contracts</title>
<g id="a_node21"><a xlink:href="../contracts.html" xlink:title="Contracts" target="_top">
<polygon fill="none" stroke="white" points="373.19,-129.96 311.12,-129.96 311.12,-110.64 373.19,-110.64 373.19,-129.96"/>
<text text-anchor="middle" x="342.16" y="-114.5" font-family="Sans-Serif" font-size="14.00">Contracts</text>
</a>
</g>
</g>
<!-- Views&#45;&gt;Contracts -->
<g id="edge15" class="edge">
<title>Views&#45;&gt;Contracts</title>
<path fill="none" stroke="black" d="M339.66,-165.82C340.03,-159.22 340.55,-149.92 341.02,-141.53"/>
<polygon fill="black" stroke="black" points="344.5,-141.99 341.57,-131.81 337.51,-141.59 344.5,-141.99"/>
</g>
<!-- Views&#45;&gt;Concat -->
<g id="edge40" class="edge">
<title>Views&#45;&gt;Concat</title>
<path fill="none" stroke="black" d="M327.29,-165.57C317.07,-157.79 302.09,-146.38 289.9,-137.09"/>
<polygon fill="black" stroke="black" points="292.14,-134.4 282.06,-131.13 287.9,-139.97 292.14,-134.4"/>
</g>
<!-- Queries -->
<g id="node11" class="node">
<title>Queries</title>
<g id="a_node11"><a xlink:href="../queries.html" xlink:title="Queries" target="_top">
<polygon fill="none" stroke="white" points="367.32,-240.6 315,-240.6 315,-221.28 367.32,-221.28 367.32,-240.6"/>
<text text-anchor="middle" x="341.16" y="-225.14" font-family="Sans-Serif" font-size="14.00">Queries</text>
</a>
</g>
</g>
<!-- Queries&#45;&gt;Views -->
<g id="edge6" class="edge">
<title>Queries&#45;&gt;Views</title>
<path fill="none" stroke="black" d="M340.83,-221.14C340.58,-214.54 340.23,-205.24 339.92,-196.85"/>
<polygon fill="black" stroke="black" points="343.43,-196.99 339.55,-187.13 336.43,-197.25 343.43,-196.99"/>
</g>
<!-- Queries&#45;&gt;Reconstruction -->
<g id="edge42" class="edge">
<title>Queries&#45;&gt;Reconstruction</title>
<path fill="none" stroke="black" d="M367.7,-222.97C400.83,-214.27 458.04,-199.24 498.32,-188.66"/>
<polygon fill="black" stroke="black" points="499.21,-192.05 507.99,-186.12 497.43,-185.27 499.21,-192.05"/>
</g>
<!-- ReadOnly -->
<g id="node12" class="node">
<title>ReadOnly</title>
<g id="a_node12"><a xlink:href="../read_only.html" xlink:title="ReadOnly" target="_top">
<polygon fill="none" stroke="white" points="164.69,-240.6 99.62,-240.6 99.62,-221.28 164.69,-221.28 164.69,-240.6"/>
<text text-anchor="middle" x="132.16" y="-225.14" font-family="Sans-Serif" font-size="14.00">ReadOnly</text>
</a>
</g>
</g>
<!-- ReadOnly&#45;&gt;Chains -->
<g id="edge31" class="edge">
<title>ReadOnly&#45;&gt;Chains</title>
<path fill="none" stroke="black" d="M145.56,-220.89C157.25,-213.01 174.46,-201.39 188.32,-192.04"/>
<polygon fill="black" stroke="black" points="190.11,-195.05 196.44,-186.56 186.19,-189.25 190.11,-195.05"/>
</g>
<!-- ReadOnly&#45;&gt;Views -->
<g id="edge7" class="edge">
<title>ReadOnly&#45;&gt;Views</title>
<path fill="none" stroke="black" d="M165.1,-221.69C200.3,-212.83 257.73,-198.28 307.16,-185.28 307.27,-185.25 307.39,-185.22 307.51,-185.19"/>
<polygon fill="black" stroke="black" points="308.29,-188.6 317.05,-182.64 306.49,-181.84 308.29,-188.6"/>
</g>
<!-- ReadOnly&#45;&gt;H5dfFormat -->
<g id="edge26" class="edge">
<title>ReadOnly&#45;&gt;H5dfFormat</title>
<path fill="none" stroke="black" d="M132.16,-221.14C132.16,-214.54 132.16,-205.24 132.16,-196.85"/>
<polygon fill="black" stroke="black" points="135.66,-197.13 132.16,-187.13 128.66,-197.13 135.66,-197.13"/>
</g>
<!-- ReadOnly&#45;&gt;FilesFormat -->
<g id="edge35" class="edge">
<title>ReadOnly&#45;&gt;FilesFormat</title>
<path fill="none" stroke="black" d="M116.21,-220.89C101.9,-212.78 80.63,-200.71 63.91,-191.22"/>
<polygon fill="black" stroke="black" points="65.93,-188.35 55.5,-186.46 62.47,-194.43 65.93,-188.35"/>
</g>
<!-- GenericLogging&#45;&gt;Documentation -->
<g id="edge38" class="edge">
<title>GenericLogging&#45;&gt;Documentation</title>
<path fill="none" stroke="black" d="M130.16,-497.74C130.16,-491.14 130.16,-481.84 130.16,-473.45"/>
<polygon fill="black" stroke="black" points="133.66,-473.73 130.16,-463.73 126.66,-473.73 133.66,-473.73"/>
</g>
<!-- Messages -->
<g id="node14" class="node">
<title>Messages</title>
<g id="a_node14"><a xlink:href="../messages.html" xlink:title="Messages" target="_top">
<polygon fill="none" stroke="white" points="201.44,-572.52 134.88,-572.52 134.88,-553.2 201.44,-553.2 201.44,-572.52"/>
<text text-anchor="middle" x="168.16" y="-557.06" font-family="Sans-Serif" font-size="14.00">Messages</text>
</a>
</g>
</g>
<!-- Messages&#45;&gt;GenericLogging -->
<g id="edge9" class="edge">
<title>Messages&#45;&gt;GenericLogging</title>
<path fill="none" stroke="black" d="M161.89,-553.06C156.8,-545.92 149.46,-535.63 143.13,-526.74"/>
<polygon fill="black" stroke="black" points="146.1,-524.88 137.45,-518.77 140.4,-528.94 146.1,-524.88"/>
</g>
<!-- ReadOnlyArrays -->
<g id="node15" class="node">
<title>ReadOnlyArrays</title>
<g id="a_node15"><a xlink:href="../read_only_arrays.html" xlink:title="ReadOnlyArrays" target="_top">
<polygon fill="none" stroke="white" points="300.19,-461.88 196.12,-461.88 196.12,-442.56 300.19,-442.56 300.19,-461.88"/>
<text text-anchor="middle" x="248.16" y="-446.42" font-family="Sans-Serif" font-size="14.00">ReadOnlyArrays</text>
</a>
</g>
</g>
<!-- MatrixLayouts -->
<g id="node19" class="node">
<title>MatrixLayouts</title>
<g id="a_node19"><a xlink:href="../matrix_layouts.html" xlink:title="MatrixLayouts" target="_top">
<polygon fill="none" stroke="white" points="287.69,-406.56 198.62,-406.56 198.62,-387.24 287.69,-387.24 287.69,-406.56"/>
<text text-anchor="middle" x="243.16" y="-391.1" font-family="Sans-Serif" font-size="14.00">MatrixLayouts</text>
</a>
</g>
</g>
<!-- ReadOnlyArrays&#45;&gt;MatrixLayouts -->
<g id="edge45" class="edge">
<title>ReadOnlyArrays&#45;&gt;MatrixLayouts</title>
<path fill="none" stroke="black" d="M247.33,-442.42C246.72,-435.82 245.84,-426.52 245.06,-418.13"/>
<polygon fill="black" stroke="black" points="248.56,-418.03 244.14,-408.4 241.59,-418.69 248.56,-418.03"/>
</g>
<!-- Operations -->
<g id="node16" class="node">
<title>Operations</title>
<g id="a_node16"><a xlink:href="../operations.html" xlink:title="Operations" target="_top">
<polygon fill="none" stroke="white" points="364.69,-351.24 293.62,-351.24 293.62,-331.92 364.69,-331.92 364.69,-351.24"/>
<text text-anchor="middle" x="329.16" y="-335.78" font-family="Sans-Serif" font-size="14.00">Operations</text>
</a>
</g>
</g>
<!-- Operations&#45;&gt;Queries -->
<g id="edge14" class="edge">
<title>Operations&#45;&gt;Queries</title>
<path fill="none" stroke="black" d="M330.14,-331.69C332.05,-314.42 336.3,-275.95 338.93,-252.16"/>
<polygon fill="black" stroke="black" points="342.38,-252.78 340,-242.46 335.42,-252.01 342.38,-252.78"/>
</g>
<!-- Operations&#45;&gt;FilesFormat -->
<g id="edge34" class="edge">
<title>Operations&#45;&gt;FilesFormat</title>
<path fill="none" stroke="black" d="M293.33,-332.56C243.38,-319.94 151.98,-291.47 90.16,-240.6 74.13,-227.41 59.57,-208.63 49.97,-194.83"/>
<polygon fill="black" stroke="black" points="52.97,-193.02 44.49,-186.67 47.16,-196.93 52.97,-193.02"/>
</g>
<!-- Tokens&#45;&gt;Operations -->
<g id="edge10" class="edge">
<title>Tokens&#45;&gt;Operations</title>
<path fill="none" stroke="black" d="M329.16,-387.1C329.16,-380.5 329.16,-371.2 329.16,-362.81"/>
<polygon fill="black" stroke="black" points="332.66,-363.09 329.16,-353.09 325.66,-363.09 332.66,-363.09"/>
</g>
<!-- Tokens&#45;&gt;Formats -->
<g id="edge17" class="edge">
<title>Tokens&#45;&gt;Formats</title>
<path fill="none" stroke="black" d="M312.54,-386.85C297.47,-378.66 275.02,-366.44 257.51,-356.92"/>
<polygon fill="black" stroke="black" points="259.65,-354.1 249.2,-352.39 256.31,-360.25 259.65,-354.1"/>
</g>
<!-- Registry&#45;&gt;Operations -->
<g id="edge11" class="edge">
<title>Registry&#45;&gt;Operations</title>
<path fill="none" stroke="black" d="M381.16,-442.17C378.13,-429.44 371.71,-405.73 362.16,-387.24 357.31,-377.84 350.55,-368.3 344.42,-360.46"/>
<polygon fill="black" stroke="black" points="347.17,-358.29 338.13,-352.76 341.74,-362.72 347.17,-358.29"/>
</g>
<!-- MatrixLayouts&#45;&gt;Operations -->
<g id="edge12" class="edge">
<title>MatrixLayouts&#45;&gt;Operations</title>
<path fill="none" stroke="black" d="M257.75,-386.85C270.6,-378.89 289.57,-367.12 304.73,-357.72"/>
<polygon fill="black" stroke="black" points="306.56,-360.71 313.21,-352.47 302.87,-354.76 306.56,-360.71"/>
</g>
<!-- MatrixLayouts&#45;&gt;Formats -->
<g id="edge19" class="edge">
<title>MatrixLayouts&#45;&gt;Formats</title>
<path fill="none" stroke="black" d="M241.18,-387.1C239.69,-380.5 237.6,-371.2 235.71,-362.81"/>
<polygon fill="black" stroke="black" points="239.13,-362.04 233.52,-353.05 232.3,-363.58 239.13,-362.04"/>
</g>
<!-- Readers -->
<g id="node20" class="node">
<title>Readers</title>
<g id="a_node20"><a xlink:href="../readers.html" xlink:title="Readers" target="_top">
<polygon fill="none" stroke="white" points="258.82,-295.92 203.5,-295.92 203.5,-276.6 258.82,-276.6 258.82,-295.92"/>
<text text-anchor="middle" x="231.16" y="-280.46" font-family="Sans-Serif" font-size="14.00">Readers</text>
</a>
</g>
</g>
<!-- Readers&#45;&gt;Writers -->
<g id="edge30" class="edge">
<title>Readers&#45;&gt;Writers</title>
<path fill="none" stroke="black" d="M238.1,-276.46C243.78,-269.24 252,-258.81 259.05,-249.85"/>
<polygon fill="black" stroke="black" points="261.7,-252.15 265.14,-242.12 256.2,-247.81 261.7,-252.15"/>
</g>
<!-- Readers&#45;&gt;Queries -->
<g id="edge13" class="edge">
<title>Readers&#45;&gt;Queries</title>
<path fill="none" stroke="black" d="M249.82,-276.21C266.89,-267.94 292.4,-255.57 312.13,-246.01"/>
<polygon fill="black" stroke="black" points="313.57,-249.2 321.05,-241.69 310.52,-242.9 313.57,-249.2"/>
</g>
<!-- Readers&#45;&gt;ReadOnly -->
<g id="edge46" class="edge">
<title>Readers&#45;&gt;ReadOnly</title>
<path fill="none" stroke="black" d="M214.37,-276.21C199.15,-268.02 176.46,-255.8 158.78,-246.28"/>
<polygon fill="black" stroke="black" points="160.83,-243.41 150.37,-241.75 157.51,-249.57 160.83,-243.41"/>
</g>
<!-- Groups -->
<g id="node28" class="node">
<title>Groups</title>
<g id="a_node28"><a xlink:href="../groups.html" xlink:title="Groups" target="_top">
<polygon fill="none" stroke="white" points="231.82,-240.6 182.5,-240.6 182.5,-221.28 231.82,-221.28 231.82,-240.6"/>
<text text-anchor="middle" x="207.16" y="-225.14" font-family="Sans-Serif" font-size="14.00">Groups</text>
</a>
</g>
</g>
<!-- Readers&#45;&gt;Groups -->
<g id="edge29" class="edge">
<title>Readers&#45;&gt;Groups</title>
<path fill="none" stroke="black" d="M227.2,-276.46C224.12,-269.63 219.75,-259.91 215.87,-251.29"/>
<polygon fill="black" stroke="black" points="219.13,-250 211.83,-242.32 212.74,-252.87 219.13,-250"/>
</g>
<!-- Contracts&#45;&gt;Computations -->
<g id="edge41" class="edge">
<title>Contracts&#45;&gt;Computations</title>
<path fill="none" stroke="black" d="M337.87,-110.5C334.5,-103.59 329.69,-93.73 325.45,-85.04"/>
<polygon fill="black" stroke="black" points="328.74,-83.79 321.21,-76.34 322.45,-86.86 328.74,-83.79"/>
</g>
<!-- StorageTypes -->
<g id="node22" class="node">
<title>StorageTypes</title>
<g id="a_node22"><a xlink:href="../storage_types.html" xlink:title="StorageTypes" target="_top">
<polygon fill="none" stroke="white" points="336.32,-627.84 248,-627.84 248,-608.52 336.32,-608.52 336.32,-627.84"/>
<text text-anchor="middle" x="292.16" y="-612.38" font-family="Sans-Serif" font-size="14.00">StorageTypes</text>
</a>
</g>
</g>
<!-- StorageTypes&#45;&gt;Messages -->
<g id="edge16" class="edge">
<title>StorageTypes&#45;&gt;Messages</title>
<path fill="none" stroke="black" d="M271.13,-608.13C251.53,-599.71 222.05,-587.03 199.65,-577.4"/>
<polygon fill="black" stroke="black" points="201.26,-574.28 190.69,-573.55 198.49,-580.71 201.26,-574.28"/>
</g>
<!-- StorageTypes&#45;&gt;Registry -->
<g id="edge24" class="edge">
<title>StorageTypes&#45;&gt;Registry</title>
<path fill="none" stroke="black" d="M317.7,-608.13C351.91,-594.46 411.19,-564.93 436.16,-517.2 445.86,-498.65 427.53,-480.57 409.83,-468.39"/>
<polygon fill="black" stroke="black" points="411.83,-465.52 401.52,-463.08 408.06,-471.41 411.83,-465.52"/>
</g>
<!-- Formats&#45;&gt;Readers -->
<g id="edge47" class="edge">
<title>Formats&#45;&gt;Readers</title>
<path fill="none" stroke="black" d="M231.16,-331.78C231.16,-325.18 231.16,-315.88 231.16,-307.49"/>
<polygon fill="black" stroke="black" points="234.66,-307.77 231.16,-297.77 227.66,-307.77 234.66,-307.77"/>
</g>
<!-- Keys -->
<g id="node24" class="node">
<title>Keys</title>
<g id="a_node24"><a xlink:href="../keys.html" xlink:title="Keys" target="_top">
<polygon fill="none" stroke="white" points="75.32,-406.56 41,-406.56 41,-387.24 75.32,-387.24 75.32,-406.56"/>
<text text-anchor="middle" x="58.16" y="-391.1" font-family="Sans-Serif" font-size="14.00">Keys</text>
</a>
</g>
</g>
<!-- Keys&#45;&gt;Formats -->
<g id="edge20" class="edge">
<title>Keys&#45;&gt;Formats</title>
<path fill="none" stroke="black" d="M75.76,-389.97C78.57,-389.04 81.44,-388.11 84.16,-387.24 120.89,-375.54 163.01,-362.82 192.72,-353.96"/>
<polygon fill="black" stroke="black" points="193.42,-357.4 202.01,-351.19 191.42,-350.69 193.42,-357.4"/>
</g>
<!-- Documentation&#45;&gt;MatrixLayouts -->
<g id="edge44" class="edge">
<title>Documentation&#45;&gt;MatrixLayouts</title>
<path fill="none" stroke="black" d="M149.33,-442.17C166.94,-433.86 193.32,-421.42 213.62,-411.84"/>
<polygon fill="black" stroke="black" points="214.98,-415.07 222.53,-407.64 211.99,-408.74 214.98,-415.07"/>
</g>
</g>
</svg>
