<?xml version="1.0" encoding="UTF-8" standalone="no"?>
<!DOCTYPE svg PUBLIC "-//W3C//DTD SVG 1.1//EN"
 "http://www.w3.org/Graphics/SVG/1.1/DTD/svg11.dtd">
<!-- Generated by graphviz version 12.2.1 (20241206.2353)
 -->
<!-- Pages: 1 -->
<svg width="641pt" height="636pt"
 viewBox="0.00 0.00 641.19 635.84" xmlns="http://www.w3.org/2000/svg" xmlns:xlink="http://www.w3.org/1999/xlink">
<g id="graph0" class="graph" transform="scale(1 1) rotate(0) translate(4 631.84)">
<polygon fill="white" stroke="none" points="-4,4 -4,-631.84 637.19,-631.84 637.19,4 -4,4"/>
<!-- Copies -->
<g id="node1" class="node">
<title>Copies</title>
<g id="a_node1"><a xlink:href="../copies.html" xlink:title="Copies" target="_top">
<polygon fill="none" stroke="white" points="298.32,-185.28 252,-185.28 252,-165.96 298.32,-165.96 298.32,-185.28"/>
<text text-anchor="middle" x="275.16" y="-169.82" font-family="Sans-Serif" font-size="14.00">Copies</text>
</a>
</g>
</g>
<!-- Adapters -->
<g id="node6" class="node">
<title>Adapters</title>
<g id="a_node6"><a xlink:href="../adapters.html" xlink:title="Adapters" target="_top">
<polygon fill="none" stroke="white" points="308.32,-19.32 250,-19.32 250,0 308.32,0 308.32,-19.32"/>
<text text-anchor="middle" x="279.16" y="-3.86" font-family="Sans-Serif" font-size="14.00">Adapters</text>
</a>
</g>
</g>
<!-- Copies&#45;&gt;Adapters -->
<g id="edge4" class="edge">
<title>Copies&#45;&gt;Adapters</title>
<path fill="none" stroke="black" d="M263.8,-165.75C254.37,-157.61 241.66,-144.61 236.16,-129.96 233.14,-121.92 234.43,-119.05 236.16,-110.64 242.28,-80.94 257.63,-49.18 268.23,-29.62"/>
<polygon fill="black" stroke="black" points="271.25,-31.38 273.07,-20.94 265.14,-27.96 271.25,-31.38"/>
</g>
<!-- Concat -->
<g id="node31" class="node">
<title>Concat</title>
<g id="a_node31"><a xlink:href="../concat.html" xlink:title="Concat" target="_top">
<polygon fill="none" stroke="white" points="292.69,-129.96 245.62,-129.96 245.62,-110.64 292.69,-110.64 292.69,-129.96"/>
<text text-anchor="middle" x="269.16" y="-114.5" font-family="Sans-Serif" font-size="14.00">Concat</text>
</a>
</g>
</g>
<!-- Copies&#45;&gt;Concat -->
<g id="edge39" class="edge">
<title>Copies&#45;&gt;Concat</title>
<path fill="none" stroke="black" d="M274.17,-165.82C273.43,-159.22 272.38,-149.92 271.44,-141.53"/>
<polygon fill="black" stroke="black" points="274.94,-141.35 270.34,-131.8 267.98,-142.13 274.94,-141.35"/>
</g>
<!-- Writers -->
<g id="node2" class="node">
<title>Writers</title>
<g id="a_node2"><a xlink:href="../writers.html" xlink:title="Writers" target="_top">
<polygon fill="none" stroke="white" points="291.69,-240.6 244.62,-240.6 244.62,-221.28 291.69,-221.28 291.69,-240.6"/>
<text text-anchor="middle" x="268.16" y="-225.14" font-family="Sans-Serif" font-size="14.00">Writers</text>
</a>
</g>
</g>
<!-- Writers&#45;&gt;Copies -->
<g id="edge1" class="edge">
<title>Writers&#45;&gt;Copies</title>
<path fill="none" stroke="black" d="M269.32,-221.14C270.18,-214.54 271.4,-205.24 272.5,-196.85"/>
<polygon fill="black" stroke="black" points="275.95,-197.49 273.78,-187.12 269.01,-196.58 275.95,-197.49"/>
</g>
<!-- Chains -->
<g id="node7" class="node">
<title>Chains</title>
<g id="a_node7"><a xlink:href="../chains.html" xlink:title="Chains" target="_top">
<polygon fill="none" stroke="white" points="234.32,-185.28 188,-185.28 188,-165.96 234.32,-165.96 234.32,-185.28"/>
<text text-anchor="middle" x="211.16" y="-169.82" font-family="Sans-Serif" font-size="14.00">Chains</text>
</a>
</g>
</g>
<!-- Writers&#45;&gt;Chains -->
<g id="edge30" class="edge">
<title>Writers&#45;&gt;Chains</title>
<path fill="none" stroke="black" d="M258.49,-220.89C250.42,-213.34 238.69,-202.38 228.94,-193.25"/>
<polygon fill="black" stroke="black" points="231.49,-190.84 221.79,-186.57 226.7,-195.95 231.49,-190.84"/>
</g>
<!-- MemoryFormat -->
<g id="node8" class="node">
<title>MemoryFormat</title>
<g id="a_node8"><a xlink:href="../memory_format.html" xlink:title="MemoryFormat" target="_top">
<polygon fill="none" stroke="white" points="484.19,-185.28 386.12,-185.28 386.12,-165.96 484.19,-165.96 484.19,-185.28"/>
<text text-anchor="middle" x="435.16" y="-169.82" font-family="Sans-Serif" font-size="14.00">MemoryFormat</text>
</a>
</g>
</g>
<!-- Writers&#45;&gt;MemoryFormat -->
<g id="edge22" class="edge">
<title>Writers&#45;&gt;MemoryFormat</title>
<path fill="none" stroke="black" d="M292.09,-222.3C319.11,-213.67 363.52,-199.49 395.69,-189.22"/>
<polygon fill="black" stroke="black" points="396.61,-192.6 405.08,-186.23 394.49,-185.93 396.61,-192.6"/>
</g>
<!-- H5dfFormat -->
<g id="node26" class="node">
<title>H5dfFormat</title>
<g id="a_node26"><a xlink:href="../h5df_format.html" xlink:title="H5dfFormat" target="_top">
<polygon fill="none" stroke="white" points="170.32,-185.28 94,-185.28 94,-165.96 170.32,-165.96 170.32,-185.28"/>
<text text-anchor="middle" x="132.16" y="-169.82" font-family="Sans-Serif" font-size="14.00">H5dfFormat</text>
</a>
</g>
</g>
<!-- Writers&#45;&gt;H5dfFormat -->
<g id="edge25" class="edge">
<title>Writers&#45;&gt;H5dfFormat</title>
<path fill="none" stroke="black" d="M245.09,-220.89C223.4,-212.39 190.68,-199.56 166.03,-189.9"/>
<polygon fill="black" stroke="black" points="167.34,-186.65 156.75,-186.26 164.79,-193.17 167.34,-186.65"/>
</g>
<!-- FilesFormat -->
<g id="node29" class="node">
<title>FilesFormat</title>
<g id="a_node29"><a xlink:href="../files_format.html" xlink:title="FilesFormat" target="_top">
<polygon fill="none" stroke="white" points="76.32,-185.28 0,-185.28 0,-165.96 76.32,-165.96 76.32,-185.28"/>
<text text-anchor="middle" x="38.16" y="-169.82" font-family="Sans-Serif" font-size="14.00">FilesFormat</text>
</a>
</g>
</g>
<!-- Writers&#45;&gt;FilesFormat -->
<g id="edge33" class="edge">
<title>Writers&#45;&gt;FilesFormat</title>
<path fill="none" stroke="black" d="M244.42,-223.4C241.64,-222.66 238.84,-221.94 236.16,-221.28 185.78,-208.79 127.82,-195.88 87.68,-187.18"/>
<polygon fill="black" stroke="black" points="88.59,-183.8 78.08,-185.1 87.12,-190.64 88.59,-183.8"/>
</g>
<!-- Reconstruction -->
<g id="node32" class="node">
<title>Reconstruction</title>
<g id="a_node32"><a xlink:href="../reconstruction.html" xlink:title="Reconstruction" target="_top">
<polygon fill="none" stroke="white" points="596.32,-185.28 502,-185.28 502,-165.96 596.32,-165.96 596.32,-185.28"/>
<text text-anchor="middle" x="549.16" y="-169.82" font-family="Sans-Serif" font-size="14.00">Reconstruction</text>
</a>
</g>
</g>
<!-- Writers&#45;&gt;Reconstruction -->
<g id="edge41" class="edge">
<title>Writers&#45;&gt;Reconstruction</title>
<path fill="none" stroke="black" d="M291.9,-223.47C295.01,-222.7 298.15,-221.94 301.16,-221.28 365.56,-207.05 440.12,-194.1 490.53,-185.84"/>
<polygon fill="black" stroke="black" points="491.06,-189.31 500.36,-184.25 489.93,-182.4 491.06,-189.31"/>
</g>
<!-- GenericTypes -->
<g id="node3" class="node">
<title>GenericTypes</title>
<g id="a_node3"><a xlink:href="../generic_types.html" xlink:title="GenericTypes" target="_top">
<polygon fill="none" stroke="white" points="190.69,-572.52 101.62,-572.52 101.62,-553.2 190.69,-553.2 190.69,-572.52"/>
<text text-anchor="middle" x="146.16" y="-557.06" font-family="Sans-Serif" font-size="14.00">GenericTypes</text>
</a>
</g>
</g>
<!-- GenericLogging -->
<g id="node13" class="node">
<title>GenericLogging</title>
<g id="a_node13"><a xlink:href="../generic_logging.html" xlink:title="GenericLogging" target="_top">
<polygon fill="none" stroke="white" points="196.32,-517.2 96,-517.2 96,-497.88 196.32,-497.88 196.32,-517.2"/>
<text text-anchor="middle" x="146.16" y="-501.74" font-family="Sans-Serif" font-size="14.00">GenericLogging</text>
</a>
</g>
</g>
<!-- GenericTypes&#45;&gt;GenericLogging -->
<g id="edge9" class="edge">
<title>GenericTypes&#45;&gt;GenericLogging</title>
<path fill="none" stroke="black" d="M146.16,-553.06C146.16,-546.46 146.16,-537.16 146.16,-528.77"/>
<polygon fill="black" stroke="black" points="149.66,-529.05 146.16,-519.05 142.66,-529.05 149.66,-529.05"/>
</g>
<!-- GenericFunctions -->
<g id="node4" class="node">
<title>GenericFunctions</title>
<g id="a_node4"><a xlink:href="../generic_functions.html" xlink:title="GenericFunctions" target="_top">
<polygon fill="none" stroke="white" points="348.57,-517.2 237.75,-517.2 237.75,-497.88 348.57,-497.88 348.57,-517.2"/>
<text text-anchor="middle" x="293.16" y="-501.74" font-family="Sans-Serif" font-size="14.00">GenericFunctions</text>
</a>
</g>
</g>
<!-- Registry -->
<g id="node17" class="node">
<title>Registry</title>
<g id="a_node17"><a xlink:href="../registry.html" xlink:title="Registry" target="_top">
<polygon fill="none" stroke="white" points="403.07,-461.88 349.25,-461.88 349.25,-442.56 403.07,-442.56 403.07,-461.88"/>
<text text-anchor="middle" x="376.16" y="-446.42" font-family="Sans-Serif" font-size="14.00">Registry</text>
</a>
</g>
</g>
<!-- GenericFunctions&#45;&gt;Registry -->
<g id="edge23" class="edge">
<title>GenericFunctions&#45;&gt;Registry</title>
<path fill="none" stroke="black" d="M307.24,-497.49C319.64,-489.53 337.95,-477.76 352.59,-468.36"/>
<polygon fill="black" stroke="black" points="354.22,-471.48 360.74,-463.13 350.43,-465.59 354.22,-471.48"/>
</g>
<!-- Tokens -->
<g id="node18" class="node">
<title>Tokens</title>
<g id="a_node18"><a xlink:href="../tokens.html" xlink:title="Tokens" target="_top">
<polygon fill="none" stroke="white" points="345.69,-406.56 298.62,-406.56 298.62,-387.24 345.69,-387.24 345.69,-406.56"/>
<text text-anchor="middle" x="322.16" y="-391.1" font-family="Sans-Serif" font-size="14.00">Tokens</text>
</a>
</g>
</g>
<!-- GenericFunctions&#45;&gt;Tokens -->
<g id="edge27" class="edge">
<title>GenericFunctions&#45;&gt;Tokens</title>
<path fill="none" stroke="black" d="M295.53,-497.65C300.16,-480.3 310.51,-441.56 316.85,-417.79"/>
<polygon fill="black" stroke="black" points="320.17,-418.94 319.36,-408.38 313.4,-417.13 320.17,-418.94"/>
</g>
<!-- Documentation -->
<g id="node30" class="node">
<title>Documentation</title>
<g id="a_node30"><a xlink:href="../documentation.html" xlink:title="Documentation" target="_top">
<polygon fill="none" stroke="white" points="171.07,-461.88 75.25,-461.88 75.25,-442.56 171.07,-442.56 171.07,-461.88"/>
<text text-anchor="middle" x="123.16" y="-446.42" font-family="Sans-Serif" font-size="14.00">Documentation</text>
</a>
</g>
</g>
<!-- GenericFunctions&#45;&gt;Documentation -->
<g id="edge36" class="edge">
<title>GenericFunctions&#45;&gt;Documentation</title>
<path fill="none" stroke="black" d="M264.32,-497.49C236.48,-488.76 194.09,-475.47 163.02,-465.72"/>
<polygon fill="black" stroke="black" points="164.17,-462.42 153.58,-462.76 162.08,-469.09 164.17,-462.42"/>
</g>
<!-- GenericLocks -->
<g id="node5" class="node">
<title>GenericLocks</title>
<g id="a_node5"><a xlink:href="../generic_locks.html" xlink:title="GenericLocks" target="_top">
<polygon fill="none" stroke="white" points="173.94,-406.56 86.38,-406.56 86.38,-387.24 173.94,-387.24 173.94,-406.56"/>
<text text-anchor="middle" x="130.16" y="-391.1" font-family="Sans-Serif" font-size="14.00">GenericLocks</text>
</a>
</g>
</g>
<!-- Formats -->
<g id="node23" class="node">
<title>Formats</title>
<g id="a_node23"><a xlink:href="../formats.html" xlink:title="Formats" target="_top">
<polygon fill="none" stroke="white" points="249.44,-351.24 194.88,-351.24 194.88,-331.92 249.44,-331.92 249.44,-351.24"/>
<text text-anchor="middle" x="222.16" y="-335.78" font-family="Sans-Serif" font-size="14.00">Formats</text>
</a>
</g>
</g>
<!-- GenericLocks&#45;&gt;Formats -->
<g id="edge20" class="edge">
<title>GenericLocks&#45;&gt;Formats</title>
<path fill="none" stroke="black" d="M145.77,-386.85C159.78,-378.74 180.59,-366.67 196.96,-357.18"/>
<polygon fill="black" stroke="black" points="198.27,-360.47 205.17,-352.43 194.76,-354.41 198.27,-360.47"/>
</g>
<!-- Chains&#45;&gt;Adapters -->
<g id="edge2" class="edge">
<title>Chains&#45;&gt;Adapters</title>
<path fill="none" stroke="black" d="M212.29,-165.48C215.13,-144.86 223.73,-93.55 243.16,-55.32 248.1,-45.6 255.4,-36.03 262.14,-28.25"/>
<polygon fill="black" stroke="black" points="264.7,-30.63 268.86,-20.89 259.53,-25.91 264.7,-30.63"/>
</g>
<!-- MemoryFormat&#45;&gt;Adapters -->
<g id="edge3" class="edge">
<title>MemoryFormat&#45;&gt;Adapters</title>
<path fill="none" stroke="black" d="M457.18,-165.47C481.3,-154.05 514.75,-133.26 500.16,-110.64 460.26,-48.79 371.83,-24.79 319.73,-15.79"/>
<polygon fill="black" stroke="black" points="320.49,-12.37 310.06,-14.23 319.38,-19.28 320.49,-12.37"/>
</g>
<!-- ExampleData -->
<g id="node25" class="node">
<title>ExampleData</title>
<g id="a_node25"><a xlink:href="../example_data.html" xlink:title="ExampleData" target="_top">
<polygon fill="none" stroke="white" points="633.19,-129.96 547.12,-129.96 547.12,-110.64 633.19,-110.64 633.19,-129.96"/>
<text text-anchor="middle" x="590.16" y="-114.5" font-family="Sans-Serif" font-size="14.00">ExampleData</text>
</a>
</g>
</g>
<!-- MemoryFormat&#45;&gt;ExampleData -->
<g id="edge21" class="edge">
<title>MemoryFormat&#45;&gt;ExampleData</title>
<path fill="none" stroke="black" d="M461.45,-165.57C486.62,-156.92 524.81,-143.78 553.07,-134.06"/>
<polygon fill="black" stroke="black" points="553.99,-137.44 562.31,-130.88 551.71,-130.83 553.99,-137.44"/>
</g>
<!-- AnnDataFormat -->
<g id="node28" class="node">
<title>AnnDataFormat</title>
<g id="a_node28"><a xlink:href="../anndata_format.html" xlink:title="AnnDataFormat" target="_top">
<polygon fill="none" stroke="white" points="491.32,-129.96 391,-129.96 391,-110.64 491.32,-110.64 491.32,-129.96"/>
<text text-anchor="middle" x="441.16" y="-114.5" font-family="Sans-Serif" font-size="14.00">AnnDataFormat</text>
</a>
</g>
</g>
<!-- MemoryFormat&#45;&gt;AnnDataFormat -->
<g id="edge32" class="edge">
<title>MemoryFormat&#45;&gt;AnnDataFormat</title>
<path fill="none" stroke="black" d="M436.15,-165.82C436.89,-159.22 437.94,-149.92 438.88,-141.53"/>
<polygon fill="black" stroke="black" points="442.34,-142.13 439.98,-131.8 435.38,-141.35 442.34,-142.13"/>
</g>
<!-- Computations -->
<g id="node9" class="node">
<title>Computations</title>
<g id="a_node9"><a xlink:href="../computations.html" xlink:title="Computations" target="_top">
<polygon fill="none" stroke="white" points="360.32,-74.64 272,-74.64 272,-55.32 360.32,-55.32 360.32,-74.64"/>
<text text-anchor="middle" x="316.16" y="-59.18" font-family="Sans-Serif" font-size="14.00">Computations</text>
</a>
</g>
</g>
<!-- Computations&#45;&gt;Adapters -->
<g id="edge5" class="edge">
<title>Computations&#45;&gt;Adapters</title>
<path fill="none" stroke="black" d="M310.05,-55.18C305.1,-48.04 297.96,-37.75 291.79,-28.86"/>
<polygon fill="black" stroke="black" points="294.84,-27.12 286.27,-20.9 289.09,-31.11 294.84,-27.12"/>
</g>
<!-- Views -->
<g id="node10" class="node">
<title>Views</title>
<g id="a_node10"><a xlink:href="../views.html" xlink:title="Views" target="_top">
<polygon fill="none" stroke="white" points="356.32,-185.28 316,-185.28 316,-165.96 356.32,-165.96 356.32,-185.28"/>
<text text-anchor="middle" x="336.16" y="-169.82" font-family="Sans-Serif" font-size="14.00">Views</text>
</a>
</g>
</g>
<!-- Contracts -->
<g id="node21" class="node">
<title>Contracts</title>
<g id="a_node21"><a xlink:href="../contracts.html" xlink:title="Contracts" target="_top">
<polygon fill="none" stroke="white" points="373.19,-129.96 311.12,-129.96 311.12,-110.64 373.19,-110.64 373.19,-129.96"/>
<text text-anchor="middle" x="342.16" y="-114.5" font-family="Sans-Serif" font-size="14.00">Contracts</text>
</a>
</g>
</g>
<!-- Views&#45;&gt;Contracts -->
<g id="edge15" class="edge">
<title>Views&#45;&gt;Contracts</title>
<path fill="none" stroke="black" d="M337.15,-165.82C337.89,-159.22 338.94,-149.92 339.88,-141.53"/>
<polygon fill="black" stroke="black" points="343.34,-142.13 340.98,-131.8 336.38,-141.35 343.34,-142.13"/>
</g>
<!-- Views&#45;&gt;Concat -->
<g id="edge38" class="edge">
<title>Views&#45;&gt;Concat</title>
<path fill="none" stroke="black" d="M324.79,-165.57C315.11,-157.87 300.96,-146.61 289.35,-137.37"/>
<polygon fill="black" stroke="black" points="291.55,-134.64 281.54,-131.15 287.19,-140.12 291.55,-134.64"/>
</g>
<!-- Queries -->
<g id="node11" class="node">
<title>Queries</title>
<g id="a_node11"><a xlink:href="../queries.html" xlink:title="Queries" target="_top">
<polygon fill="none" stroke="white" points="362.32,-240.6 310,-240.6 310,-221.28 362.32,-221.28 362.32,-240.6"/>
<text text-anchor="middle" x="336.16" y="-225.14" font-family="Sans-Serif" font-size="14.00">Queries</text>
</a>
</g>
</g>
<!-- Queries&#45;&gt;Views -->
<g id="edge6" class="edge">
<title>Queries&#45;&gt;Views</title>
<path fill="none" stroke="black" d="M336.16,-221.14C336.16,-214.54 336.16,-205.24 336.16,-196.85"/>
<polygon fill="black" stroke="black" points="339.66,-197.13 336.16,-187.13 332.66,-197.13 339.66,-197.13"/>
</g>
<!-- Queries&#45;&gt;Reconstruction -->
<g id="edge42" class="edge">
<title>Queries&#45;&gt;Reconstruction</title>
<path fill="none" stroke="black" d="M362.71,-223.29C397.41,-214.61 458.81,-199.24 501.63,-188.52"/>
<polygon fill="black" stroke="black" points="502.31,-191.96 511.16,-186.13 500.61,-185.16 502.31,-191.96"/>
</g>
<!-- ReadOnly -->
<g id="node12" class="node">
<title>ReadOnly</title>
<g id="a_node12"><a xlink:href="../read_only.html" xlink:title="ReadOnly" target="_top">
<polygon fill="none" stroke="white" points="226.69,-240.6 161.62,-240.6 161.62,-221.28 226.69,-221.28 226.69,-240.6"/>
<text text-anchor="middle" x="194.16" y="-225.14" font-family="Sans-Serif" font-size="14.00">ReadOnly</text>
</a>
</g>
</g>
<!-- ReadOnly&#45;&gt;Chains -->
<g id="edge31" class="edge">
<title>ReadOnly&#45;&gt;Chains</title>
<path fill="none" stroke="black" d="M196.97,-221.14C199.1,-214.46 202.1,-205.02 204.8,-196.55"/>
<polygon fill="black" stroke="black" points="208.13,-197.65 207.83,-187.06 201.46,-195.52 208.13,-197.65"/>
</g>
<!-- ReadOnly&#45;&gt;Views -->
<g id="edge7" class="edge">
<title>ReadOnly&#45;&gt;Views</title>
<path fill="none" stroke="black" d="M218.25,-220.89C242.2,-211.9 279.06,-198.06 305.18,-188.25"/>
<polygon fill="black" stroke="black" points="306.1,-191.65 314.23,-184.85 303.64,-185.09 306.1,-191.65"/>
</g>
<!-- ReadOnly&#45;&gt;H5dfFormat -->
<g id="edge26" class="edge">
<title>ReadOnly&#45;&gt;H5dfFormat</title>
<path fill="none" stroke="black" d="M183.64,-220.89C174.77,-213.27 161.85,-202.15 151.17,-192.97"/>
<polygon fill="black" stroke="black" points="153.53,-190.39 143.67,-186.52 148.97,-195.69 153.53,-190.39"/>
</g>
<!-- ReadOnly&#45;&gt;FilesFormat -->
<g id="edge35" class="edge">
<title>ReadOnly&#45;&gt;FilesFormat</title>
<path fill="none" stroke="black" d="M167.7,-220.89C142.37,-212.24 103.93,-199.1 75.49,-189.38"/>
<polygon fill="black" stroke="black" points="76.78,-186.12 66.19,-186.2 74.52,-192.75 76.78,-186.12"/>
</g>
<!-- GenericLogging&#45;&gt;Documentation -->
<g id="edge37" class="edge">
<title>GenericLogging&#45;&gt;Documentation</title>
<path fill="none" stroke="black" d="M142.36,-497.74C139.42,-490.91 135.22,-481.19 131.51,-472.57"/>
<polygon fill="black" stroke="black" points="134.81,-471.4 127.64,-463.61 128.39,-474.17 134.81,-471.4"/>
</g>
<!-- Messages -->
<g id="node14" class="node">
<title>Messages</title>
<g id="a_node14"><a xlink:href="../messages.html" xlink:title="Messages" target="_top">
<polygon fill="none" stroke="white" points="323.44,-572.52 256.88,-572.52 256.88,-553.2 323.44,-553.2 323.44,-572.52"/>
<text text-anchor="middle" x="290.16" y="-557.06" font-family="Sans-Serif" font-size="14.00">Messages</text>
</a>
</g>
</g>
<!-- Messages&#45;&gt;GenericLogging -->
<g id="edge8" class="edge">
<title>Messages&#45;&gt;GenericLogging</title>
<path fill="none" stroke="black" d="M265.73,-552.81C242.56,-544.24 207.5,-531.25 181.32,-521.56"/>
<polygon fill="black" stroke="black" points="182.72,-518.35 172.13,-518.15 180.29,-524.91 182.72,-518.35"/>
</g>
<!-- ReadOnlyArrays -->
<g id="node15" class="node">
<title>ReadOnlyArrays</title>
<g id="a_node15"><a xlink:href="../read_only_arrays.html" xlink:title="ReadOnlyArrays" target="_top">
<polygon fill="none" stroke="white" points="293.19,-461.88 189.12,-461.88 189.12,-442.56 293.19,-442.56 293.19,-461.88"/>
<text text-anchor="middle" x="241.16" y="-446.42" font-family="Sans-Serif" font-size="14.00">ReadOnlyArrays</text>
</a>
</g>
</g>
<!-- MatrixLayouts -->
<g id="node19" class="node">
<title>MatrixLayouts</title>
<g id="a_node19"><a xlink:href="../matrix_layouts.html" xlink:title="MatrixLayouts" target="_top">
<polygon fill="none" stroke="white" points="280.69,-406.56 191.62,-406.56 191.62,-387.24 280.69,-387.24 280.69,-406.56"/>
<text text-anchor="middle" x="236.16" y="-391.1" font-family="Sans-Serif" font-size="14.00">MatrixLayouts</text>
</a>
</g>
</g>
<!-- ReadOnlyArrays&#45;&gt;MatrixLayouts -->
<g id="edge43" class="edge">
<title>ReadOnlyArrays&#45;&gt;MatrixLayouts</title>
<path fill="none" stroke="black" d="M240.33,-442.42C239.72,-435.82 238.84,-426.52 238.06,-418.13"/>
<polygon fill="black" stroke="black" points="241.56,-418.03 237.14,-408.4 234.59,-418.69 241.56,-418.03"/>
</g>
<!-- Operations -->
<g id="node16" class="node">
<title>Operations</title>
<g id="a_node16"><a xlink:href="../operations.html" xlink:title="Operations" target="_top">
<polygon fill="none" stroke="white" points="357.69,-351.24 286.62,-351.24 286.62,-331.92 357.69,-331.92 357.69,-351.24"/>
<text text-anchor="middle" x="322.16" y="-335.78" font-family="Sans-Serif" font-size="14.00">Operations</text>
</a>
</g>
</g>
<!-- Operations&#45;&gt;Queries -->
<g id="edge13" class="edge">
<title>Operations&#45;&gt;Queries</title>
<path fill="none" stroke="black" d="M323.31,-331.69C325.53,-314.42 330.49,-275.95 333.55,-252.16"/>
<polygon fill="black" stroke="black" points="337,-252.82 334.81,-242.45 330.06,-251.93 337,-252.82"/>
</g>
<!-- Operations&#45;&gt;FilesFormat -->
<g id="edge34" class="edge">
<title>Operations&#45;&gt;FilesFormat</title>
<path fill="none" stroke="black" d="M286.19,-333.01C236.12,-320.92 144.85,-293.09 85.16,-240.6 70.3,-227.53 57.32,-208.99 48.79,-195.23"/>
<polygon fill="black" stroke="black" points="51.84,-193.52 43.72,-186.72 45.83,-197.1 51.84,-193.52"/>
</g>
<!-- Registry&#45;&gt;Operations -->
<g id="edge10" class="edge">
<title>Registry&#45;&gt;Operations</title>
<path fill="none" stroke="black" d="M374.16,-442.17C371.13,-429.44 364.71,-405.73 355.16,-387.24 350.31,-377.84 343.55,-368.3 337.42,-360.46"/>
<polygon fill="black" stroke="black" points="340.17,-358.29 331.13,-352.76 334.74,-362.72 340.17,-358.29"/>
</g>
<!-- Tokens&#45;&gt;Operations -->
<g id="edge11" class="edge">
<title>Tokens&#45;&gt;Operations</title>
<path fill="none" stroke="black" d="M322.16,-387.1C322.16,-380.5 322.16,-371.2 322.16,-362.81"/>
<polygon fill="black" stroke="black" points="325.66,-363.09 322.16,-353.09 318.66,-363.09 325.66,-363.09"/>
</g>
<!-- Tokens&#45;&gt;Formats -->
<g id="edge17" class="edge">
<title>Tokens&#45;&gt;Formats</title>
<path fill="none" stroke="black" d="M305.2,-386.85C289.9,-378.7 267.13,-366.56 249.3,-357.05"/>
<polygon fill="black" stroke="black" points="251.01,-354 240.54,-352.38 247.72,-360.17 251.01,-354"/>
</g>
<!-- MatrixLayouts&#45;&gt;Operations -->
<g id="edge12" class="edge">
<title>MatrixLayouts&#45;&gt;Operations</title>
<path fill="none" stroke="black" d="M250.75,-386.85C263.6,-378.89 282.57,-367.12 297.73,-357.72"/>
<polygon fill="black" stroke="black" points="299.56,-360.71 306.21,-352.47 295.87,-354.76 299.56,-360.71"/>
</g>
<!-- MatrixLayouts&#45;&gt;Formats -->
<g id="edge19" class="edge">
<title>MatrixLayouts&#45;&gt;Formats</title>
<path fill="none" stroke="black" d="M233.85,-387.1C232.1,-380.42 229.62,-370.98 227.39,-362.51"/>
<polygon fill="black" stroke="black" points="230.83,-361.82 224.91,-353.04 224.06,-363.6 230.83,-361.82"/>
</g>
<!-- Readers -->
<g id="node20" class="node">
<title>Readers</title>
<g id="a_node20"><a xlink:href="../readers.html" xlink:title="Readers" target="_top">
<polygon fill="none" stroke="white" points="249.82,-295.92 194.5,-295.92 194.5,-276.6 249.82,-276.6 249.82,-295.92"/>
<text text-anchor="middle" x="222.16" y="-280.46" font-family="Sans-Serif" font-size="14.00">Readers</text>
</a>
</g>
</g>
<!-- Readers&#45;&gt;Writers -->
<g id="edge29" class="edge">
<title>Readers&#45;&gt;Writers</title>
<path fill="none" stroke="black" d="M229.76,-276.46C236.04,-269.17 245.17,-258.58 252.96,-249.56"/>
<polygon fill="black" stroke="black" points="255.53,-251.94 259.41,-242.08 250.23,-247.37 255.53,-251.94"/>
</g>
<!-- Readers&#45;&gt;Queries -->
<g id="edge14" class="edge">
<title>Readers&#45;&gt;Queries</title>
<path fill="none" stroke="black" d="M241.5,-276.21C259.27,-267.9 285.88,-255.46 306.36,-245.88"/>
<polygon fill="black" stroke="black" points="307.78,-249.08 315.36,-241.67 304.81,-242.74 307.78,-249.08"/>
</g>
<!-- Readers&#45;&gt;ReadOnly -->
<g id="edge45" class="edge">
<title>Readers&#45;&gt;ReadOnly</title>
<path fill="none" stroke="black" d="M217.54,-276.46C213.91,-269.55 208.73,-259.69 204.17,-251"/>
<polygon fill="black" stroke="black" points="207.34,-249.5 199.59,-242.28 201.14,-252.76 207.34,-249.5"/>
</g>
<!-- Groups -->
<g id="node27" class="node">
<title>Groups</title>
<g id="a_node27"><a xlink:href="../groups.html" xlink:title="Groups" target="_top">
<polygon fill="none" stroke="white" points="143.82,-240.6 94.5,-240.6 94.5,-221.28 143.82,-221.28 143.82,-240.6"/>
<text text-anchor="middle" x="119.16" y="-225.14" font-family="Sans-Serif" font-size="14.00">Groups</text>
</a>
</g>
</g>
<!-- Readers&#45;&gt;Groups -->
<g id="edge28" class="edge">
<title>Readers&#45;&gt;Groups</title>
<path fill="none" stroke="black" d="M204.69,-276.21C188.85,-268.02 165.25,-255.8 146.85,-246.28"/>
<polygon fill="black" stroke="black" points="148.55,-243.21 138.06,-241.73 145.33,-249.43 148.55,-243.21"/>
</g>
<!-- Contracts&#45;&gt;Computations -->
<g id="edge40" class="edge">
<title>Contracts&#45;&gt;Computations</title>
<path fill="none" stroke="black" d="M337.87,-110.5C334.5,-103.59 329.69,-93.73 325.45,-85.04"/>
<polygon fill="black" stroke="black" points="328.74,-83.79 321.21,-76.34 322.45,-86.86 328.74,-83.79"/>
</g>
<!-- StorageTypes -->
<g id="node22" class="node">
<title>StorageTypes</title>
<g id="a_node22"><a xlink:href="../storage_types.html" xlink:title="StorageTypes" target="_top">
<polygon fill="none" stroke="white" points="364.32,-627.84 276,-627.84 276,-608.52 364.32,-608.52 364.32,-627.84"/>
<text text-anchor="middle" x="320.16" y="-612.38" font-family="Sans-Serif" font-size="14.00">StorageTypes</text>
</a>
</g>
</g>
<!-- StorageTypes&#45;&gt;Messages -->
<g id="edge16" class="edge">
<title>StorageTypes&#45;&gt;Messages</title>
<path fill="none" stroke="black" d="M315.21,-608.38C311.28,-601.39 305.65,-591.39 300.72,-582.63"/>
<polygon fill="black" stroke="black" points="303.92,-581.17 295.96,-574.18 297.82,-584.61 303.92,-581.17"/>
</g>
<!-- StorageTypes&#45;&gt;Registry -->
<g id="edge24" class="edge">
<title>StorageTypes&#45;&gt;Registry</title>
<path fill="none" stroke="black" d="M323.73,-608.15C330.57,-590.71 345.87,-551.09 357.16,-517.2 362.1,-502.37 367.11,-485.41 370.74,-472.67"/>
<polygon fill="black" stroke="black" points="374.01,-474 373.35,-463.43 367.27,-472.1 374.01,-474"/>
</g>
<!-- Formats&#45;&gt;Readers -->
<g id="edge46" class="edge">
<title>Formats&#45;&gt;Readers</title>
<path fill="none" stroke="black" d="M222.16,-331.78C222.16,-325.18 222.16,-315.88 222.16,-307.49"/>
<polygon fill="black" stroke="black" points="225.66,-307.77 222.16,-297.77 218.66,-307.77 225.66,-307.77"/>
</g>
<!-- Keys -->
<g id="node24" class="node">
<title>Keys</title>
<g id="a_node24"><a xlink:href="../keys.html" xlink:title="Keys" target="_top">
<polygon fill="none" stroke="white" points="68.32,-406.56 34,-406.56 34,-387.24 68.32,-387.24 68.32,-406.56"/>
<text text-anchor="middle" x="51.16" y="-391.1" font-family="Sans-Serif" font-size="14.00">Keys</text>
</a>
</g>
</g>
<!-- Keys&#45;&gt;Formats -->
<g id="edge18" class="edge">
<title>Keys&#45;&gt;Formats</title>
<path fill="none" stroke="black" d="M68.76,-389.98C71.57,-389.05 74.44,-388.11 77.16,-387.24 113.14,-375.71 154.33,-363.08 183.59,-354.2"/>
<polygon fill="black" stroke="black" points="184.57,-357.56 193.13,-351.31 182.54,-350.86 184.57,-357.56"/>
</g>
<!-- Documentation&#45;&gt;MatrixLayouts -->
<g id="edge44" class="edge">
<title>Documentation&#45;&gt;MatrixLayouts</title>
<path fill="none" stroke="black" d="M142.33,-442.17C159.94,-433.86 186.32,-421.42 206.62,-411.84"/>
<polygon fill="black" stroke="black" points="207.98,-415.07 215.53,-407.64 204.99,-408.74 207.98,-415.07"/>
</g>
</g>
</svg>
