<?xml version="1.0" encoding="UTF-8" standalone="no"?>
<!DOCTYPE svg PUBLIC "-//W3C//DTD SVG 1.1//EN"
 "http://www.w3.org/Graphics/SVG/1.1/DTD/svg11.dtd">
<!-- Generated by graphviz version 12.2.1 (20241206.2353)
 -->
<!-- Pages: 1 -->
<svg width="680pt" height="415pt"
 viewBox="0.00 0.00 680.12 414.56" xmlns="http://www.w3.org/2000/svg" xmlns:xlink="http://www.w3.org/1999/xlink">
<g id="graph0" class="graph" transform="scale(1 1) rotate(0) translate(4 410.56)">
<polygon fill="white" stroke="none" points="-4,4 -4,-410.56 676.12,-410.56 676.12,4 -4,4"/>
<!-- Copies -->
<g id="node1" class="node">
<title>Copies</title>
<g id="a_node1"><a xlink:href="../copies.html" xlink:title="Copies" target="_top">
<polygon fill="none" stroke="white" points="490.07,-185.28 443.75,-185.28 443.75,-165.96 490.07,-165.96 490.07,-185.28"/>
<text text-anchor="middle" x="466.91" y="-169.82" font-family="Sans-Serif" font-size="14.00">Copies</text>
</a>
</g>
</g>
<!-- Adapters -->
<g id="node3" class="node">
<title>Adapters</title>
<g id="a_node3"><a xlink:href="../adapters.html" xlink:title="Adapters" target="_top">
<polygon fill="none" stroke="white" points="377.07,-19.32 318.75,-19.32 318.75,0 377.07,0 377.07,-19.32"/>
<text text-anchor="middle" x="347.91" y="-3.86" font-family="Sans-Serif" font-size="14.00">Adapters</text>
</a>
</g>
</g>
<!-- Copies&#45;&gt;Adapters -->
<g id="edge2" class="edge">
<title>Copies&#45;&gt;Adapters</title>
<path fill="none" stroke="black" d="M490.3,-168.15C493.19,-167.39 496.11,-166.64 498.91,-165.96 573.63,-147.66 708,-172.96 662.91,-110.64 630.28,-65.54 466.14,-31.37 388.6,-17.47"/>
<polygon fill="black" stroke="black" points="389.32,-14.04 378.86,-15.75 388.11,-20.94 389.32,-14.04"/>
</g>
<!-- Concat -->
<g id="node25" class="node">
<title>Concat</title>
<g id="a_node25"><a xlink:href="../concat.html" xlink:title="Concat" target="_top">
<polygon fill="none" stroke="white" points="653.44,-129.96 606.38,-129.96 606.38,-110.64 653.44,-110.64 653.44,-129.96"/>
<text text-anchor="middle" x="629.91" y="-114.5" font-family="Sans-Serif" font-size="14.00">Concat</text>
</a>
</g>
</g>
<!-- Copies&#45;&gt;Concat -->
<g id="edge35" class="edge">
<title>Copies&#45;&gt;Concat</title>
<path fill="none" stroke="black" d="M490.26,-166.98C517.82,-157.96 563.9,-142.89 595.53,-132.54"/>
<polygon fill="black" stroke="black" points="596.21,-136 604.63,-129.57 594.04,-129.35 596.21,-136"/>
</g>
<!-- Writers -->
<g id="node2" class="node">
<title>Writers</title>
<g id="a_node2"><a xlink:href="../writers.html" xlink:title="Writers" target="_top">
<polygon fill="none" stroke="white" points="326.44,-240.6 279.37,-240.6 279.37,-221.28 326.44,-221.28 326.44,-240.6"/>
<text text-anchor="middle" x="302.91" y="-225.14" font-family="Sans-Serif" font-size="14.00">Writers</text>
</a>
</g>
</g>
<!-- Writers&#45;&gt;Copies -->
<g id="edge1" class="edge">
<title>Writers&#45;&gt;Copies</title>
<path fill="none" stroke="black" d="M326.76,-222.19C354.65,-213.12 401.04,-198.04 432.75,-187.73"/>
<polygon fill="black" stroke="black" points="433.43,-191.18 441.86,-184.76 431.27,-184.53 433.43,-191.18"/>
</g>
<!-- Chains -->
<g id="node4" class="node">
<title>Chains</title>
<g id="a_node4"><a xlink:href="../chains.html" xlink:title="Chains" target="_top">
<polygon fill="none" stroke="white" points="252.07,-185.28 205.75,-185.28 205.75,-165.96 252.07,-165.96 252.07,-185.28"/>
<text text-anchor="middle" x="228.91" y="-169.82" font-family="Sans-Serif" font-size="14.00">Chains</text>
</a>
</g>
</g>
<!-- Writers&#45;&gt;Chains -->
<g id="edge29" class="edge">
<title>Writers&#45;&gt;Chains</title>
<path fill="none" stroke="black" d="M290.36,-220.89C279.45,-213.03 263.41,-201.48 250.45,-192.14"/>
<polygon fill="black" stroke="black" points="252.67,-189.42 242.51,-186.42 248.57,-195.1 252.67,-189.42"/>
</g>
<!-- MemoryFormat -->
<g id="node5" class="node">
<title>MemoryFormat</title>
<g id="a_node5"><a xlink:href="../memory_format.html" xlink:title="MemoryFormat" target="_top">
<polygon fill="none" stroke="white" points="367.94,-185.28 269.88,-185.28 269.88,-165.96 367.94,-165.96 367.94,-185.28"/>
<text text-anchor="middle" x="318.91" y="-169.82" font-family="Sans-Serif" font-size="14.00">MemoryFormat</text>
</a>
</g>
</g>
<!-- Writers&#45;&gt;MemoryFormat -->
<g id="edge23" class="edge">
<title>Writers&#45;&gt;MemoryFormat</title>
<path fill="none" stroke="black" d="M305.55,-221.14C307.55,-214.46 310.39,-205.02 312.93,-196.55"/>
<polygon fill="black" stroke="black" points="316.25,-197.65 315.78,-187.07 309.55,-195.64 316.25,-197.65"/>
</g>
<!-- H5dfFormat -->
<g id="node16" class="node">
<title>H5dfFormat</title>
<g id="a_node16"><a xlink:href="../h5df_format.html" xlink:title="H5dfFormat" target="_top">
<polygon fill="none" stroke="white" points="188.07,-185.28 111.75,-185.28 111.75,-165.96 188.07,-165.96 188.07,-185.28"/>
<text text-anchor="middle" x="149.91" y="-169.82" font-family="Sans-Serif" font-size="14.00">H5dfFormat</text>
</a>
</g>
</g>
<!-- Writers&#45;&gt;H5dfFormat -->
<g id="edge25" class="edge">
<title>Writers&#45;&gt;H5dfFormat</title>
<path fill="none" stroke="black" d="M279,-221.61C254.3,-213 215.4,-199.44 186.76,-189.46"/>
<polygon fill="black" stroke="black" points="187.98,-186.18 177.38,-186.19 185.67,-192.79 187.98,-186.18"/>
</g>
<!-- FilesFormat -->
<g id="node17" class="node">
<title>FilesFormat</title>
<g id="a_node17"><a xlink:href="../files_format.html" xlink:title="FilesFormat" target="_top">
<polygon fill="none" stroke="white" points="94.07,-185.28 17.75,-185.28 17.75,-165.96 94.07,-165.96 94.07,-185.28"/>
<text text-anchor="middle" x="55.91" y="-169.82" font-family="Sans-Serif" font-size="14.00">FilesFormat</text>
</a>
</g>
</g>
<!-- Writers&#45;&gt;FilesFormat -->
<g id="edge32" class="edge">
<title>Writers&#45;&gt;FilesFormat</title>
<path fill="none" stroke="black" d="M279.18,-223.35C276.4,-222.63 273.6,-221.92 270.91,-221.28 214.58,-207.82 149.39,-194.61 105.69,-186.09"/>
<polygon fill="black" stroke="black" points="106.48,-182.68 96,-184.21 105.15,-189.55 106.48,-182.68"/>
</g>
<!-- Reconstruction -->
<g id="node26" class="node">
<title>Reconstruction</title>
<g id="a_node26"><a xlink:href="../reconstruction.html" xlink:title="Reconstruction" target="_top">
<polygon fill="none" stroke="white" points="602.07,-185.28 507.75,-185.28 507.75,-165.96 602.07,-165.96 602.07,-185.28"/>
<text text-anchor="middle" x="554.91" y="-169.82" font-family="Sans-Serif" font-size="14.00">Reconstruction</text>
</a>
</g>
</g>
<!-- Writers&#45;&gt;Reconstruction -->
<g id="edge38" class="edge">
<title>Writers&#45;&gt;Reconstruction</title>
<path fill="none" stroke="black" d="M326.62,-224.92C366.2,-216.55 446.7,-199.52 500.74,-188.08"/>
<polygon fill="black" stroke="black" points="501.31,-191.54 510.37,-186.04 499.86,-184.69 501.31,-191.54"/>
</g>
<!-- Chains&#45;&gt;Adapters -->
<g id="edge3" class="edge">
<title>Chains&#45;&gt;Adapters</title>
<path fill="none" stroke="black" d="M231.58,-165.7C238.22,-144.66 257.09,-91.03 286.91,-55.32 296.7,-43.59 310.2,-33.3 322.01,-25.55"/>
<polygon fill="black" stroke="black" points="323.51,-28.75 330.13,-20.48 319.8,-22.81 323.51,-28.75"/>
</g>
<!-- CompleteDaf -->
<g id="node15" class="node">
<title>CompleteDaf</title>
<g id="a_node15"><a xlink:href="../complete.html" xlink:title="CompleteDaf" target="_top">
<polygon fill="none" stroke="white" points="83.82,-129.96 0,-129.96 0,-110.64 83.82,-110.64 83.82,-129.96"/>
<text text-anchor="middle" x="41.91" y="-114.5" font-family="Sans-Serif" font-size="14.00">CompleteDaf</text>
</a>
</g>
</g>
<!-- Chains&#45;&gt;CompleteDaf -->
<g id="edge14" class="edge">
<title>Chains&#45;&gt;CompleteDaf</title>
<path fill="none" stroke="black" d="M205.6,-167.97C175.4,-159.36 122.15,-144.18 84.6,-133.47"/>
<polygon fill="black" stroke="black" points="86.01,-130.24 75.43,-130.86 84.09,-136.97 86.01,-130.24"/>
</g>
<!-- ExampleData -->
<g id="node22" class="node">
<title>ExampleData</title>
<g id="a_node22"><a xlink:href="../example_data.html" xlink:title="ExampleData" target="_top">
<polygon fill="none" stroke="white" points="187.94,-129.96 101.88,-129.96 101.88,-110.64 187.94,-110.64 187.94,-129.96"/>
<text text-anchor="middle" x="144.91" y="-114.5" font-family="Sans-Serif" font-size="14.00">ExampleData</text>
</a>
</g>
</g>
<!-- Chains&#45;&gt;ExampleData -->
<g id="edge20" class="edge">
<title>Chains&#45;&gt;ExampleData</title>
<path fill="none" stroke="black" d="M214.66,-165.57C202.11,-157.61 183.58,-145.84 168.77,-136.44"/>
<polygon fill="black" stroke="black" points="170.83,-133.6 160.51,-131.2 167.07,-139.51 170.83,-133.6"/>
</g>
<!-- MemoryFormat&#45;&gt;Adapters -->
<g id="edge4" class="edge">
<title>MemoryFormat&#45;&gt;Adapters</title>
<path fill="none" stroke="black" d="M304.68,-165.58C293.7,-157.69 279.33,-145.13 272.91,-129.96 269.57,-122.05 270.19,-118.79 272.91,-110.64 284.06,-77.21 311.25,-45.95 329.64,-27.57"/>
<polygon fill="black" stroke="black" points="332.01,-30.15 336.76,-20.68 327.14,-25.11 332.01,-30.15"/>
</g>
<!-- OldExampleData -->
<g id="node14" class="node">
<title>OldExampleData</title>
<g id="a_node14"><a xlink:href="../old_example_data.html" xlink:title="OldExampleData" target="_top">
<polygon fill="none" stroke="white" points="507.82,-129.96 400,-129.96 400,-110.64 507.82,-110.64 507.82,-129.96"/>
<text text-anchor="middle" x="453.91" y="-114.5" font-family="Sans-Serif" font-size="14.00">OldExampleData</text>
</a>
</g>
</g>
<!-- MemoryFormat&#45;&gt;OldExampleData -->
<g id="edge12" class="edge">
<title>MemoryFormat&#45;&gt;OldExampleData</title>
<path fill="none" stroke="black" d="M341.81,-165.57C363.34,-157.07 395.82,-144.24 420.29,-134.58"/>
<polygon fill="black" stroke="black" points="421.47,-137.87 429.49,-130.95 418.9,-131.36 421.47,-137.87"/>
</g>
<!-- MemoryFormat&#45;&gt;ExampleData -->
<g id="edge21" class="edge">
<title>MemoryFormat&#45;&gt;ExampleData</title>
<path fill="none" stroke="black" d="M289.39,-165.57C260.77,-156.8 217.13,-143.43 185.29,-133.68"/>
<polygon fill="black" stroke="black" points="186.61,-130.42 176.02,-130.83 184.55,-137.11 186.61,-130.42"/>
</g>
<!-- AnnDataFormat -->
<g id="node24" class="node">
<title>AnnDataFormat</title>
<g id="a_node24"><a xlink:href="../anndata_format.html" xlink:title="AnnDataFormat" target="_top">
<polygon fill="none" stroke="white" points="382.07,-129.96 281.75,-129.96 281.75,-110.64 382.07,-110.64 382.07,-129.96"/>
<text text-anchor="middle" x="331.91" y="-114.5" font-family="Sans-Serif" font-size="14.00">AnnDataFormat</text>
</a>
</g>
</g>
<!-- MemoryFormat&#45;&gt;AnnDataFormat -->
<g id="edge31" class="edge">
<title>MemoryFormat&#45;&gt;AnnDataFormat</title>
<path fill="none" stroke="black" d="M321.06,-165.82C322.68,-159.14 324.99,-149.7 327.05,-141.23"/>
<polygon fill="black" stroke="black" points="330.39,-142.31 329.36,-131.77 323.59,-140.65 330.39,-142.31"/>
</g>
<!-- Computations -->
<g id="node6" class="node">
<title>Computations</title>
<g id="a_node6"><a xlink:href="../computations.html" xlink:title="Computations" target="_top">
<polygon fill="none" stroke="white" points="486.07,-74.64 397.75,-74.64 397.75,-55.32 486.07,-55.32 486.07,-74.64"/>
<text text-anchor="middle" x="441.91" y="-59.18" font-family="Sans-Serif" font-size="14.00">Computations</text>
</a>
</g>
</g>
<!-- Computations&#45;&gt;Adapters -->
<g id="edge5" class="edge">
<title>Computations&#45;&gt;Adapters</title>
<path fill="none" stroke="black" d="M425.96,-54.93C411.65,-46.82 390.38,-34.75 373.66,-25.26"/>
<polygon fill="black" stroke="black" points="375.68,-22.39 365.25,-20.5 372.22,-28.47 375.68,-22.39"/>
</g>
<!-- Views -->
<g id="node7" class="node">
<title>Views</title>
<g id="a_node7"><a xlink:href="../views.html" xlink:title="Views" target="_top">
<polygon fill="none" stroke="white" points="426.07,-185.28 385.75,-185.28 385.75,-165.96 426.07,-165.96 426.07,-185.28"/>
<text text-anchor="middle" x="405.91" y="-169.82" font-family="Sans-Serif" font-size="14.00">Views</text>
</a>
</g>
</g>
<!-- Contracts -->
<g id="node18" class="node">
<title>Contracts</title>
<g id="a_node18"><a xlink:href="../contracts.html" xlink:title="Contracts" target="_top">
<polygon fill="none" stroke="white" points="587.94,-129.96 525.88,-129.96 525.88,-110.64 587.94,-110.64 587.94,-129.96"/>
<text text-anchor="middle" x="556.91" y="-114.5" font-family="Sans-Serif" font-size="14.00">Contracts</text>
</a>
</g>
</g>
<!-- Views&#45;&gt;Contracts -->
<g id="edge16" class="edge">
<title>Views&#45;&gt;Contracts</title>
<path fill="none" stroke="black" d="M426.27,-167.43C450.33,-158.93 490.81,-144.64 520.34,-134.21"/>
<polygon fill="black" stroke="black" points="521.37,-137.56 529.64,-130.93 519.04,-130.96 521.37,-137.56"/>
</g>
<!-- Views&#45;&gt;Concat -->
<g id="edge36" class="edge">
<title>Views&#45;&gt;Concat</title>
<path fill="none" stroke="black" d="M426.45,-168.29C429.29,-167.47 432.16,-166.67 434.91,-165.96 502.95,-148.27 523.34,-147.37 595.16,-130.29"/>
<polygon fill="black" stroke="black" points="595.77,-133.75 604.67,-128.01 594.13,-126.94 595.77,-133.75"/>
</g>
<!-- ReadOnly -->
<g id="node8" class="node">
<title>ReadOnly</title>
<g id="a_node8"><a xlink:href="../read_only.html" xlink:title="ReadOnly" target="_top">
<polygon fill="none" stroke="white" points="261.44,-240.6 196.38,-240.6 196.38,-221.28 261.44,-221.28 261.44,-240.6"/>
<text text-anchor="middle" x="228.91" y="-225.14" font-family="Sans-Serif" font-size="14.00">ReadOnly</text>
</a>
</g>
</g>
<!-- ReadOnly&#45;&gt;Chains -->
<g id="edge30" class="edge">
<title>ReadOnly&#45;&gt;Chains</title>
<path fill="none" stroke="black" d="M228.91,-221.14C228.91,-214.54 228.91,-205.24 228.91,-196.85"/>
<polygon fill="black" stroke="black" points="232.41,-197.13 228.91,-187.13 225.41,-197.13 232.41,-197.13"/>
</g>
<!-- ReadOnly&#45;&gt;Views -->
<g id="edge6" class="edge">
<title>ReadOnly&#45;&gt;Views</title>
<path fill="none" stroke="black" d="M258.94,-220.89C291.14,-211.19 342.04,-195.86 374.69,-186.02"/>
<polygon fill="black" stroke="black" points="375.41,-189.46 383.97,-183.23 373.39,-182.76 375.41,-189.46"/>
</g>
<!-- ReadOnly&#45;&gt;H5dfFormat -->
<g id="edge26" class="edge">
<title>ReadOnly&#45;&gt;H5dfFormat</title>
<path fill="none" stroke="black" d="M215.51,-220.89C203.82,-213.01 186.61,-201.39 172.75,-192.04"/>
<polygon fill="black" stroke="black" points="174.88,-189.25 164.63,-186.56 170.96,-195.05 174.88,-189.25"/>
</g>
<!-- ReadOnly&#45;&gt;FilesFormat -->
<g id="edge33" class="edge">
<title>ReadOnly&#45;&gt;FilesFormat</title>
<path fill="none" stroke="black" d="M199.56,-220.89C171.11,-212.12 127.71,-198.75 96.06,-189"/>
<polygon fill="black" stroke="black" points="97.43,-185.76 86.85,-186.16 95.37,-192.45 97.43,-185.76"/>
</g>
<!-- Queries -->
<g id="node9" class="node">
<title>Queries</title>
<g id="a_node9"><a xlink:href="../queries.html" xlink:title="Queries" target="_top">
<polygon fill="none" stroke="white" points="414.07,-240.6 361.75,-240.6 361.75,-221.28 414.07,-221.28 414.07,-240.6"/>
<text text-anchor="middle" x="387.91" y="-225.14" font-family="Sans-Serif" font-size="14.00">Queries</text>
</a>
</g>
</g>
<!-- Queries&#45;&gt;Views -->
<g id="edge7" class="edge">
<title>Queries&#45;&gt;Views</title>
<path fill="none" stroke="black" d="M390.88,-221.14C393.16,-214.38 396.4,-204.81 399.28,-196.26"/>
<polygon fill="black" stroke="black" points="402.51,-197.64 402.39,-187.05 395.87,-195.41 402.51,-197.64"/>
</g>
<!-- Queries&#45;&gt;Reconstruction -->
<g id="edge39" class="edge">
<title>Queries&#45;&gt;Reconstruction</title>
<path fill="none" stroke="black" d="M414.37,-221.49C441.57,-212.81 484.22,-199.19 515.41,-189.23"/>
<polygon fill="black" stroke="black" points="516.43,-192.58 524.89,-186.2 514.3,-185.91 516.43,-192.58"/>
</g>
<!-- Operations -->
<g id="node10" class="node">
<title>Operations</title>
<g id="a_node10"><a xlink:href="../operations.html" xlink:title="Operations" target="_top">
<polygon fill="none" stroke="white" points="197.44,-295.92 126.38,-295.92 126.38,-276.6 197.44,-276.6 197.44,-295.92"/>
<text text-anchor="middle" x="161.91" y="-280.46" font-family="Sans-Serif" font-size="14.00">Operations</text>
</a>
</g>
</g>
<!-- Operations&#45;&gt;Queries -->
<g id="edge11" class="edge">
<title>Operations&#45;&gt;Queries</title>
<path fill="none" stroke="black" d="M197.72,-276.81C239.45,-266.97 308.08,-250.77 350.48,-240.77"/>
<polygon fill="black" stroke="black" points="351.05,-244.23 359.97,-238.53 349.44,-237.42 351.05,-244.23"/>
</g>
<!-- Operations&#45;&gt;FilesFormat -->
<g id="edge34" class="edge">
<title>Operations&#45;&gt;FilesFormat</title>
<path fill="none" stroke="black" d="M153.24,-276.37C135.61,-258.31 95.35,-217.04 72.52,-193.64"/>
<polygon fill="black" stroke="black" points="75.25,-191.43 65.76,-186.72 70.24,-196.32 75.25,-191.43"/>
</g>
<!-- Registry -->
<g id="node11" class="node">
<title>Registry</title>
<g id="a_node11"><a xlink:href="../registry.html" xlink:title="Registry" target="_top">
<polygon fill="none" stroke="white" points="220.82,-351.24 167,-351.24 167,-331.92 220.82,-331.92 220.82,-351.24"/>
<text text-anchor="middle" x="193.91" y="-335.78" font-family="Sans-Serif" font-size="14.00">Registry</text>
</a>
</g>
</g>
<!-- Registry&#45;&gt;Operations -->
<g id="edge8" class="edge">
<title>Registry&#45;&gt;Operations</title>
<path fill="none" stroke="black" d="M188.63,-331.78C184.44,-324.79 178.43,-314.79 173.18,-306.03"/>
<polygon fill="black" stroke="black" points="176.23,-304.33 168.09,-297.55 170.23,-307.93 176.23,-304.33"/>
</g>
<!-- Tokens -->
<g id="node12" class="node">
<title>Tokens</title>
<g id="a_node12"><a xlink:href="../tokens.html" xlink:title="Tokens" target="_top">
<polygon fill="none" stroke="white" points="162.44,-406.56 115.38,-406.56 115.38,-387.24 162.44,-387.24 162.44,-406.56"/>
<text text-anchor="middle" x="138.91" y="-391.1" font-family="Sans-Serif" font-size="14.00">Tokens</text>
</a>
</g>
</g>
<!-- Tokens&#45;&gt;Operations -->
<g id="edge9" class="edge">
<title>Tokens&#45;&gt;Operations</title>
<path fill="none" stroke="black" d="M140.79,-387.01C144.45,-369.74 152.59,-331.27 157.63,-307.48"/>
<polygon fill="black" stroke="black" points="161.04,-308.26 159.69,-297.75 154.19,-306.81 161.04,-308.26"/>
</g>
<!-- Formats -->
<g id="node19" class="node">
<title>Formats</title>
<g id="a_node19"><a xlink:href="../formats.html" xlink:title="Formats" target="_top">
<polygon fill="none" stroke="white" points="293.19,-351.24 238.62,-351.24 238.62,-331.92 293.19,-331.92 293.19,-351.24"/>
<text text-anchor="middle" x="265.91" y="-335.78" font-family="Sans-Serif" font-size="14.00">Formats</text>
</a>
</g>
</g>
<!-- Tokens&#45;&gt;Formats -->
<g id="edge19" class="edge">
<title>Tokens&#45;&gt;Formats</title>
<path fill="none" stroke="black" d="M160.45,-386.85C180.52,-378.43 210.71,-365.75 233.66,-356.12"/>
<polygon fill="black" stroke="black" points="235,-359.35 242.86,-352.26 232.29,-352.9 235,-359.35"/>
</g>
<!-- Readers -->
<g id="node13" class="node">
<title>Readers</title>
<g id="a_node13"><a xlink:href="../readers.html" xlink:title="Readers" target="_top">
<polygon fill="none" stroke="white" points="293.57,-295.92 238.25,-295.92 238.25,-276.6 293.57,-276.6 293.57,-295.92"/>
<text text-anchor="middle" x="265.91" y="-280.46" font-family="Sans-Serif" font-size="14.00">Readers</text>
</a>
</g>
</g>
<!-- Readers&#45;&gt;Writers -->
<g id="edge28" class="edge">
<title>Readers&#45;&gt;Writers</title>
<path fill="none" stroke="black" d="M272.02,-276.46C276.97,-269.32 284.11,-259.03 290.28,-250.14"/>
<polygon fill="black" stroke="black" points="292.98,-252.39 295.8,-242.18 287.23,-248.4 292.98,-252.39"/>
</g>
<!-- Readers&#45;&gt;ReadOnly -->
<g id="edge40" class="edge">
<title>Readers&#45;&gt;ReadOnly</title>
<path fill="none" stroke="black" d="M259.8,-276.46C254.85,-269.32 247.71,-259.03 241.54,-250.14"/>
<polygon fill="black" stroke="black" points="244.59,-248.4 236.02,-242.18 238.84,-252.39 244.59,-248.4"/>
</g>
<!-- Readers&#45;&gt;Queries -->
<g id="edge10" class="edge">
<title>Readers&#45;&gt;Queries</title>
<path fill="none" stroke="black" d="M286.61,-276.21C305.8,-267.83 334.62,-255.23 356.63,-245.61"/>
<polygon fill="black" stroke="black" points="357.96,-248.85 365.73,-241.64 355.16,-242.43 357.96,-248.85"/>
</g>
<!-- Groups -->
<g id="node23" class="node">
<title>Groups</title>
<g id="a_node23"><a xlink:href="../groups.html" xlink:title="Groups" target="_top">
<polygon fill="none" stroke="white" points="178.57,-240.6 129.25,-240.6 129.25,-221.28 178.57,-221.28 178.57,-240.6"/>
<text text-anchor="middle" x="153.91" y="-225.14" font-family="Sans-Serif" font-size="14.00">Groups</text>
</a>
</g>
</g>
<!-- Readers&#45;&gt;Groups -->
<g id="edge27" class="edge">
<title>Readers&#45;&gt;Groups</title>
<path fill="none" stroke="black" d="M246.91,-276.21C229.45,-267.9 203.31,-255.46 183.19,-245.88"/>
<polygon fill="black" stroke="black" points="184.9,-242.82 174.37,-241.68 181.89,-249.14 184.9,-242.82"/>
</g>
<!-- H5dfFormat&#45;&gt;CompleteDaf -->
<g id="edge13" class="edge">
<title>H5dfFormat&#45;&gt;CompleteDaf</title>
<path fill="none" stroke="black" d="M131.59,-165.57C114.83,-157.3 89.78,-144.93 70.41,-135.37"/>
<polygon fill="black" stroke="black" points="72.19,-132.35 61.68,-131.06 69.1,-138.62 72.19,-132.35"/>
</g>
<!-- FilesFormat&#45;&gt;CompleteDaf -->
<g id="edge15" class="edge">
<title>FilesFormat&#45;&gt;CompleteDaf</title>
<path fill="none" stroke="black" d="M53.6,-165.82C51.85,-159.14 49.37,-149.7 47.14,-141.23"/>
<polygon fill="black" stroke="black" points="50.58,-140.54 44.66,-131.76 43.81,-142.32 50.58,-140.54"/>
</g>
<!-- FilesFormat&#45;&gt;ExampleData -->
<g id="edge22" class="edge">
<title>FilesFormat&#45;&gt;ExampleData</title>
<path fill="none" stroke="black" d="M71.01,-165.57C84.43,-157.53 104.32,-145.62 120.08,-136.17"/>
<polygon fill="black" stroke="black" points="121.66,-139.31 128.44,-131.17 118.06,-133.3 121.66,-139.31"/>
</g>
<!-- Contracts&#45;&gt;Computations -->
<g id="edge37" class="edge">
<title>Contracts&#45;&gt;Computations</title>
<path fill="none" stroke="black" d="M537.4,-110.25C519.39,-101.91 492.39,-89.38 471.68,-79.78"/>
<polygon fill="black" stroke="black" points="473.43,-76.74 462.89,-75.71 470.49,-83.09 473.43,-76.74"/>
</g>
<!-- Formats&#45;&gt;Readers -->
<g id="edge41" class="edge">
<title>Formats&#45;&gt;Readers</title>
<path fill="none" stroke="black" d="M265.91,-331.78C265.91,-325.18 265.91,-315.88 265.91,-307.49"/>
<polygon fill="black" stroke="black" points="269.41,-307.77 265.91,-297.77 262.41,-307.77 269.41,-307.77"/>
</g>
<!-- StorageTypes -->
<g id="node20" class="node">
<title>StorageTypes</title>
<g id="a_node20"><a xlink:href="../storage_types.html" xlink:title="StorageTypes" target="_top">
<polygon fill="none" stroke="white" points="269.07,-406.56 180.75,-406.56 180.75,-387.24 269.07,-387.24 269.07,-406.56"/>
<text text-anchor="middle" x="224.91" y="-391.1" font-family="Sans-Serif" font-size="14.00">StorageTypes</text>
</a>
</g>
</g>
<!-- StorageTypes&#45;&gt;Registry -->
<g id="edge24" class="edge">
<title>StorageTypes&#45;&gt;Registry</title>
<path fill="none" stroke="black" d="M219.79,-387.1C215.73,-380.11 209.92,-370.11 204.82,-361.35"/>
<polygon fill="black" stroke="black" points="207.95,-359.77 199.9,-352.88 201.9,-363.29 207.95,-359.77"/>
</g>
<!-- StorageTypes&#45;&gt;Formats -->
<g id="edge17" class="edge">
<title>StorageTypes&#45;&gt;Formats</title>
<path fill="none" stroke="black" d="M231.68,-387.1C237.23,-379.88 245.25,-369.45 252.14,-360.49"/>
<polygon fill="black" stroke="black" points="254.75,-362.84 258.07,-352.78 249.2,-358.57 254.75,-362.84"/>
</g>
<!-- Keys -->
<g id="node21" class="node">
<title>Keys</title>
<g id="a_node21"><a xlink:href="../keys.html" xlink:title="Keys" target="_top">
<polygon fill="none" stroke="white" points="321.07,-406.56 286.75,-406.56 286.75,-387.24 321.07,-387.24 321.07,-406.56"/>
<text text-anchor="middle" x="303.91" y="-391.1" font-family="Sans-Serif" font-size="14.00">Keys</text>
</a>
</g>
</g>
<!-- Keys&#45;&gt;Formats -->
<g id="edge18" class="edge">
<title>Keys&#45;&gt;Formats</title>
<path fill="none" stroke="black" d="M297.64,-387.1C292.55,-379.96 285.21,-369.67 278.88,-360.78"/>
<polygon fill="black" stroke="black" points="281.85,-358.92 273.2,-352.81 276.15,-362.98 281.85,-358.92"/>
</g>
</g>
</svg>
