<?xml version="1.0" encoding="UTF-8" standalone="no"?>
<!DOCTYPE svg PUBLIC "-//W3C//DTD SVG 1.1//EN"
 "http://www.w3.org/Graphics/SVG/1.1/DTD/svg11.dtd">
<!-- Generated by graphviz version 12.2.1 (20241206.2353)
 -->
<!-- Pages: 1 -->
<svg width="750pt" height="415pt"
 viewBox="0.00 0.00 750.07 414.56" xmlns="http://www.w3.org/2000/svg" xmlns:xlink="http://www.w3.org/1999/xlink">
<g id="graph0" class="graph" transform="scale(1 1) rotate(0) translate(4 410.56)">
<polygon fill="white" stroke="none" points="-4,4 -4,-410.56 746.07,-410.56 746.07,4 -4,4"/>
<!-- Copies -->
<g id="node1" class="node">
<title>Copies</title>
<g id="a_node1"><a xlink:href="../copies.html" xlink:title="Copies" target="_top">
<polygon fill="none" stroke="white" points="216.32,-185.28 170,-185.28 170,-165.96 216.32,-165.96 216.32,-185.28"/>
<text text-anchor="middle" x="193.16" y="-169.82" font-family="Sans-Serif" font-size="14.00">Copies</text>
</a>
</g>
</g>
<!-- Adapters -->
<g id="node3" class="node">
<title>Adapters</title>
<g id="a_node3"><a xlink:href="../adapters.html" xlink:title="Adapters" target="_top">
<polygon fill="none" stroke="white" points="300.32,-19.32 242,-19.32 242,0 300.32,0 300.32,-19.32"/>
<text text-anchor="middle" x="271.16" y="-3.86" font-family="Sans-Serif" font-size="14.00">Adapters</text>
</a>
</g>
</g>
<!-- Copies&#45;&gt;Adapters -->
<g id="edge3" class="edge">
<title>Copies&#45;&gt;Adapters</title>
<path fill="none" stroke="black" d="M197.35,-165.8C209.57,-140.12 245.35,-64.91 262.2,-29.5"/>
<polygon fill="black" stroke="black" points="265.16,-31.42 266.3,-20.89 258.84,-28.41 265.16,-31.42"/>
</g>
<!-- Concat -->
<g id="node25" class="node">
<title>Concat</title>
<g id="a_node25"><a xlink:href="../concat.html" xlink:title="Concat" target="_top">
<polygon fill="none" stroke="white" points="156.69,-129.96 109.62,-129.96 109.62,-110.64 156.69,-110.64 156.69,-129.96"/>
<text text-anchor="middle" x="133.16" y="-114.5" font-family="Sans-Serif" font-size="14.00">Concat</text>
</a>
</g>
</g>
<!-- Copies&#45;&gt;Concat -->
<g id="edge35" class="edge">
<title>Copies&#45;&gt;Concat</title>
<path fill="none" stroke="black" d="M182.98,-165.57C174.4,-157.95 161.89,-146.83 151.56,-137.65"/>
<polygon fill="black" stroke="black" points="154.12,-135.24 144.32,-131.22 149.47,-140.48 154.12,-135.24"/>
</g>
<!-- Writers -->
<g id="node2" class="node">
<title>Writers</title>
<g id="a_node2"><a xlink:href="../writers.html" xlink:title="Writers" target="_top">
<polygon fill="none" stroke="white" points="334.69,-240.6 287.62,-240.6 287.62,-221.28 334.69,-221.28 334.69,-240.6"/>
<text text-anchor="middle" x="311.16" y="-225.14" font-family="Sans-Serif" font-size="14.00">Writers</text>
</a>
</g>
</g>
<!-- Writers&#45;&gt;Copies -->
<g id="edge1" class="edge">
<title>Writers&#45;&gt;Copies</title>
<path fill="none" stroke="black" d="M291.14,-220.89C272.67,-212.55 244.95,-200.02 223.71,-190.42"/>
<polygon fill="black" stroke="black" points="225.21,-187.26 214.65,-186.33 222.33,-193.64 225.21,-187.26"/>
</g>
<!-- MemoryFormat -->
<g id="node4" class="node">
<title>MemoryFormat</title>
<g id="a_node4"><a xlink:href="../memory_format.html" xlink:title="MemoryFormat" target="_top">
<polygon fill="none" stroke="white" points="584.19,-185.28 486.12,-185.28 486.12,-165.96 584.19,-165.96 584.19,-185.28"/>
<text text-anchor="middle" x="535.16" y="-169.82" font-family="Sans-Serif" font-size="14.00">MemoryFormat</text>
</a>
</g>
</g>
<!-- Writers&#45;&gt;MemoryFormat -->
<g id="edge23" class="edge">
<title>Writers&#45;&gt;MemoryFormat</title>
<path fill="none" stroke="black" d="M334.9,-223.41C337.68,-222.68 340.48,-221.95 343.16,-221.28 390.28,-209.43 444.2,-196.98 482.87,-188.25"/>
<polygon fill="black" stroke="black" points="483.39,-191.72 492.38,-186.11 481.86,-184.89 483.39,-191.72"/>
</g>
<!-- Chains -->
<g id="node6" class="node">
<title>Chains</title>
<g id="a_node6"><a xlink:href="../chains.html" xlink:title="Chains" target="_top">
<polygon fill="none" stroke="white" points="374.32,-185.28 328,-185.28 328,-165.96 374.32,-165.96 374.32,-185.28"/>
<text text-anchor="middle" x="351.16" y="-169.82" font-family="Sans-Serif" font-size="14.00">Chains</text>
</a>
</g>
</g>
<!-- Writers&#45;&gt;Chains -->
<g id="edge29" class="edge">
<title>Writers&#45;&gt;Chains</title>
<path fill="none" stroke="black" d="M317.77,-221.14C323.12,-214 330.84,-203.71 337.51,-194.82"/>
<polygon fill="black" stroke="black" points="340.3,-196.93 343.5,-186.83 334.7,-192.73 340.3,-196.93"/>
</g>
<!-- H5dfFormat -->
<g id="node16" class="node">
<title>H5dfFormat</title>
<g id="a_node16"><a xlink:href="../h5df_format.html" xlink:title="H5dfFormat" target="_top">
<polygon fill="none" stroke="white" points="310.32,-185.28 234,-185.28 234,-165.96 310.32,-165.96 310.32,-185.28"/>
<text text-anchor="middle" x="272.16" y="-169.82" font-family="Sans-Serif" font-size="14.00">H5dfFormat</text>
</a>
</g>
</g>
<!-- Writers&#45;&gt;H5dfFormat -->
<g id="edge25" class="edge">
<title>Writers&#45;&gt;H5dfFormat</title>
<path fill="none" stroke="black" d="M304.72,-221.14C299.5,-214 291.97,-203.71 285.47,-194.82"/>
<polygon fill="black" stroke="black" points="288.36,-192.84 279.63,-186.84 282.71,-196.98 288.36,-192.84"/>
</g>
<!-- FilesFormat -->
<g id="node17" class="node">
<title>FilesFormat</title>
<g id="a_node17"><a xlink:href="../files_format.html" xlink:title="FilesFormat" target="_top">
<polygon fill="none" stroke="white" points="468.32,-185.28 392,-185.28 392,-165.96 468.32,-165.96 468.32,-185.28"/>
<text text-anchor="middle" x="430.16" y="-169.82" font-family="Sans-Serif" font-size="14.00">FilesFormat</text>
</a>
</g>
</g>
<!-- Writers&#45;&gt;FilesFormat -->
<g id="edge32" class="edge">
<title>Writers&#45;&gt;FilesFormat</title>
<path fill="none" stroke="black" d="M331.35,-220.89C350.07,-212.51 378.18,-199.91 399.64,-190.29"/>
<polygon fill="black" stroke="black" points="400.8,-193.61 408.49,-186.33 397.94,-187.22 400.8,-193.61"/>
</g>
<!-- Reconstruction -->
<g id="node26" class="node">
<title>Reconstruction</title>
<g id="a_node26"><a xlink:href="../reconstruction.html" xlink:title="Reconstruction" target="_top">
<polygon fill="none" stroke="white" points="152.32,-185.28 58,-185.28 58,-165.96 152.32,-165.96 152.32,-185.28"/>
<text text-anchor="middle" x="105.16" y="-169.82" font-family="Sans-Serif" font-size="14.00">Reconstruction</text>
</a>
</g>
</g>
<!-- Writers&#45;&gt;Reconstruction -->
<g id="edge38" class="edge">
<title>Writers&#45;&gt;Reconstruction</title>
<path fill="none" stroke="black" d="M287.4,-223.47C284.63,-222.73 281.83,-221.98 279.16,-221.28 236.16,-209.95 187.09,-197.38 152.05,-188.48"/>
<polygon fill="black" stroke="black" points="153.21,-185.16 142.65,-186.09 151.48,-191.95 153.21,-185.16"/>
</g>
<!-- MemoryFormat&#45;&gt;Adapters -->
<g id="edge2" class="edge">
<title>MemoryFormat&#45;&gt;Adapters</title>
<path fill="none" stroke="black" d="M551.93,-165.53C572.23,-153.33 601.96,-130.85 587.16,-110.64 554.17,-65.6 389.65,-31.4 311.94,-17.48"/>
<polygon fill="black" stroke="black" points="312.63,-14.05 302.18,-15.76 311.42,-20.94 312.63,-14.05"/>
</g>
<!-- OldExampleData -->
<g id="node14" class="node">
<title>OldExampleData</title>
<g id="a_node14"><a xlink:href="../old_example_data.html" xlink:title="OldExampleData" target="_top">
<polygon fill="none" stroke="white" points="742.07,-129.96 634.25,-129.96 634.25,-110.64 742.07,-110.64 742.07,-129.96"/>
<text text-anchor="middle" x="688.16" y="-114.5" font-family="Sans-Serif" font-size="14.00">OldExampleData</text>
</a>
</g>
</g>
<!-- MemoryFormat&#45;&gt;OldExampleData -->
<g id="edge12" class="edge">
<title>MemoryFormat&#45;&gt;OldExampleData</title>
<path fill="none" stroke="black" d="M561.11,-165.57C585.95,-156.92 623.66,-143.78 651.54,-134.06"/>
<polygon fill="black" stroke="black" points="652.36,-137.48 660.65,-130.89 650.05,-130.87 652.36,-137.48"/>
</g>
<!-- ExampleData -->
<g id="node22" class="node">
<title>ExampleData</title>
<g id="a_node22"><a xlink:href="../example_data.html" xlink:title="ExampleData" target="_top">
<polygon fill="none" stroke="white" points="460.19,-129.96 374.12,-129.96 374.12,-110.64 460.19,-110.64 460.19,-129.96"/>
<text text-anchor="middle" x="417.16" y="-114.5" font-family="Sans-Serif" font-size="14.00">ExampleData</text>
</a>
</g>
</g>
<!-- MemoryFormat&#45;&gt;ExampleData -->
<g id="edge20" class="edge">
<title>MemoryFormat&#45;&gt;ExampleData</title>
<path fill="none" stroke="black" d="M515.14,-165.57C496.67,-157.23 468.95,-144.7 447.71,-135.1"/>
<polygon fill="black" stroke="black" points="449.21,-131.94 438.65,-131.01 446.33,-138.32 449.21,-131.94"/>
</g>
<!-- AnnDataFormat -->
<g id="node24" class="node">
<title>AnnDataFormat</title>
<g id="a_node24"><a xlink:href="../anndata_format.html" xlink:title="AnnDataFormat" target="_top">
<polygon fill="none" stroke="white" points="578.32,-129.96 478,-129.96 478,-110.64 578.32,-110.64 578.32,-129.96"/>
<text text-anchor="middle" x="528.16" y="-114.5" font-family="Sans-Serif" font-size="14.00">AnnDataFormat</text>
</a>
</g>
</g>
<!-- MemoryFormat&#45;&gt;AnnDataFormat -->
<g id="edge31" class="edge">
<title>MemoryFormat&#45;&gt;AnnDataFormat</title>
<path fill="none" stroke="black" d="M534,-165.82C533.14,-159.22 531.92,-149.92 530.82,-141.53"/>
<polygon fill="black" stroke="black" points="534.31,-141.26 529.54,-131.8 527.37,-142.17 534.31,-141.26"/>
</g>
<!-- Computations -->
<g id="node5" class="node">
<title>Computations</title>
<g id="a_node5"><a xlink:href="../computations.html" xlink:title="Computations" target="_top">
<polygon fill="none" stroke="white" points="143.32,-74.64 55,-74.64 55,-55.32 143.32,-55.32 143.32,-74.64"/>
<text text-anchor="middle" x="99.16" y="-59.18" font-family="Sans-Serif" font-size="14.00">Computations</text>
</a>
</g>
</g>
<!-- Computations&#45;&gt;Adapters -->
<g id="edge4" class="edge">
<title>Computations&#45;&gt;Adapters</title>
<path fill="none" stroke="black" d="M128.34,-54.93C156.63,-46.16 199.77,-32.79 231.24,-23.04"/>
<polygon fill="black" stroke="black" points="231.88,-26.5 240.39,-20.2 229.81,-19.82 231.88,-26.5"/>
</g>
<!-- Chains&#45;&gt;Adapters -->
<g id="edge5" class="edge">
<title>Chains&#45;&gt;Adapters</title>
<path fill="none" stroke="black" d="M348.31,-165.75C344.18,-153.24 336.05,-129.79 327.16,-110.64 313.59,-81.41 294.77,-49.14 282.78,-29.38"/>
<polygon fill="black" stroke="black" points="285.9,-27.77 277.68,-21.08 279.93,-31.43 285.9,-27.77"/>
</g>
<!-- CompleteDaf -->
<g id="node15" class="node">
<title>CompleteDaf</title>
<g id="a_node15"><a xlink:href="../complete.html" xlink:title="CompleteDaf" target="_top">
<polygon fill="none" stroke="white" points="318.07,-129.96 234.25,-129.96 234.25,-110.64 318.07,-110.64 318.07,-129.96"/>
<text text-anchor="middle" x="276.16" y="-114.5" font-family="Sans-Serif" font-size="14.00">CompleteDaf</text>
</a>
</g>
</g>
<!-- Chains&#45;&gt;CompleteDaf -->
<g id="edge14" class="edge">
<title>Chains&#45;&gt;CompleteDaf</title>
<path fill="none" stroke="black" d="M338.44,-165.57C327.45,-157.76 311.32,-146.29 298.23,-136.99"/>
<polygon fill="black" stroke="black" points="300.36,-134.21 290.18,-131.27 296.3,-139.91 300.36,-134.21"/>
</g>
<!-- Chains&#45;&gt;ExampleData -->
<g id="edge21" class="edge">
<title>Chains&#45;&gt;ExampleData</title>
<path fill="none" stroke="black" d="M362.36,-165.57C371.9,-157.87 385.83,-146.61 397.27,-137.37"/>
<polygon fill="black" stroke="black" points="399.37,-140.17 404.95,-131.16 394.97,-134.72 399.37,-140.17"/>
</g>
<!-- Views -->
<g id="node7" class="node">
<title>Views</title>
<g id="a_node7"><a xlink:href="../views.html" xlink:title="Views" target="_top">
<polygon fill="none" stroke="white" points="40.32,-185.28 0,-185.28 0,-165.96 40.32,-165.96 40.32,-185.28"/>
<text text-anchor="middle" x="20.16" y="-169.82" font-family="Sans-Serif" font-size="14.00">Views</text>
</a>
</g>
</g>
<!-- Contracts -->
<g id="node18" class="node">
<title>Contracts</title>
<g id="a_node18"><a xlink:href="../contracts.html" xlink:title="Contracts" target="_top">
<polygon fill="none" stroke="white" points="67.19,-129.96 5.12,-129.96 5.12,-110.64 67.19,-110.64 67.19,-129.96"/>
<text text-anchor="middle" x="36.16" y="-114.5" font-family="Sans-Serif" font-size="14.00">Contracts</text>
</a>
</g>
</g>
<!-- Views&#45;&gt;Contracts -->
<g id="edge16" class="edge">
<title>Views&#45;&gt;Contracts</title>
<path fill="none" stroke="black" d="M22.8,-165.82C24.8,-159.14 27.64,-149.7 30.18,-141.23"/>
<polygon fill="black" stroke="black" points="33.5,-142.33 33.03,-131.75 26.8,-140.32 33.5,-142.33"/>
</g>
<!-- Views&#45;&gt;Concat -->
<g id="edge36" class="edge">
<title>Views&#45;&gt;Concat</title>
<path fill="none" stroke="black" d="M39.33,-165.57C56.94,-157.26 83.32,-144.82 103.62,-135.24"/>
<polygon fill="black" stroke="black" points="104.98,-138.47 112.53,-131.04 101.99,-132.14 104.98,-138.47"/>
</g>
<!-- Queries -->
<g id="node8" class="node">
<title>Queries</title>
<g id="a_node8"><a xlink:href="../queries.html" xlink:title="Queries" target="_top">
<polygon fill="none" stroke="white" points="159.32,-240.6 107,-240.6 107,-221.28 159.32,-221.28 159.32,-240.6"/>
<text text-anchor="middle" x="133.16" y="-225.14" font-family="Sans-Serif" font-size="14.00">Queries</text>
</a>
</g>
</g>
<!-- Queries&#45;&gt;Views -->
<g id="edge6" class="edge">
<title>Queries&#45;&gt;Views</title>
<path fill="none" stroke="black" d="M113.99,-220.89C96.38,-212.58 70,-200.14 49.7,-190.56"/>
<polygon fill="black" stroke="black" points="51.33,-187.46 40.79,-186.36 48.34,-193.79 51.33,-187.46"/>
</g>
<!-- Queries&#45;&gt;Reconstruction -->
<g id="edge39" class="edge">
<title>Queries&#45;&gt;Reconstruction</title>
<path fill="none" stroke="black" d="M128.54,-221.14C124.91,-214.23 119.73,-204.37 115.17,-195.68"/>
<polygon fill="black" stroke="black" points="118.34,-194.18 110.59,-186.96 112.14,-197.44 118.34,-194.18"/>
</g>
<!-- ReadOnly -->
<g id="node9" class="node">
<title>ReadOnly</title>
<g id="a_node9"><a xlink:href="../read_only.html" xlink:title="ReadOnly" target="_top">
<polygon fill="none" stroke="white" points="269.69,-240.6 204.62,-240.6 204.62,-221.28 269.69,-221.28 269.69,-240.6"/>
<text text-anchor="middle" x="237.16" y="-225.14" font-family="Sans-Serif" font-size="14.00">ReadOnly</text>
</a>
</g>
</g>
<!-- ReadOnly&#45;&gt;Chains -->
<g id="edge30" class="edge">
<title>ReadOnly&#45;&gt;Chains</title>
<path fill="none" stroke="black" d="M256.5,-220.89C274.27,-212.58 300.88,-200.14 321.36,-190.56"/>
<polygon fill="black" stroke="black" points="322.78,-193.76 330.36,-186.35 319.81,-187.42 322.78,-193.76"/>
</g>
<!-- ReadOnly&#45;&gt;Views -->
<g id="edge7" class="edge">
<title>ReadOnly&#45;&gt;Views</title>
<path fill="none" stroke="black" d="M204.41,-222.76C169,-214.86 110.63,-201.46 51.72,-185.85"/>
<polygon fill="black" stroke="black" points="52.74,-182.51 42.18,-183.31 50.93,-189.27 52.74,-182.51"/>
</g>
<!-- ReadOnly&#45;&gt;H5dfFormat -->
<g id="edge26" class="edge">
<title>ReadOnly&#45;&gt;H5dfFormat</title>
<path fill="none" stroke="black" d="M242.94,-221.14C247.57,-214.08 254.23,-203.93 260.03,-195.1"/>
<polygon fill="black" stroke="black" points="262.86,-197.16 265.42,-186.88 257.01,-193.32 262.86,-197.16"/>
</g>
<!-- ReadOnly&#45;&gt;FilesFormat -->
<g id="edge34" class="edge">
<title>ReadOnly&#45;&gt;FilesFormat</title>
<path fill="none" stroke="black" d="M269.9,-220.89C301.92,-212.05 350.91,-198.52 386.29,-188.74"/>
<polygon fill="black" stroke="black" points="387.09,-192.15 395.8,-186.11 385.23,-185.4 387.09,-192.15"/>
</g>
<!-- Operations -->
<g id="node10" class="node">
<title>Operations</title>
<g id="a_node10"><a xlink:href="../operations.html" xlink:title="Operations" target="_top">
<polygon fill="none" stroke="white" points="404.69,-295.92 333.62,-295.92 333.62,-276.6 404.69,-276.6 404.69,-295.92"/>
<text text-anchor="middle" x="369.16" y="-280.46" font-family="Sans-Serif" font-size="14.00">Operations</text>
</a>
</g>
</g>
<!-- Operations&#45;&gt;Queries -->
<g id="edge11" class="edge">
<title>Operations&#45;&gt;Queries</title>
<path fill="none" stroke="black" d="M333.32,-277.16C289.43,-267.25 215.43,-250.53 170.76,-240.43"/>
<polygon fill="black" stroke="black" points="171.8,-237.08 161.27,-238.29 170.26,-243.91 171.8,-237.08"/>
</g>
<!-- Operations&#45;&gt;FilesFormat -->
<g id="edge33" class="edge">
<title>Operations&#45;&gt;FilesFormat</title>
<path fill="none" stroke="black" d="M379.96,-276.41C389.45,-268.09 402.99,-254.81 411.16,-240.6 419.04,-226.9 423.91,-209.63 426.75,-196.49"/>
<polygon fill="black" stroke="black" points="430.15,-197.37 428.59,-186.89 423.27,-196.05 430.15,-197.37"/>
</g>
<!-- Registry -->
<g id="node11" class="node">
<title>Registry</title>
<g id="a_node11"><a xlink:href="../registry.html" xlink:title="Registry" target="_top">
<polygon fill="none" stroke="white" points="411.07,-351.24 357.25,-351.24 357.25,-331.92 411.07,-331.92 411.07,-351.24"/>
<text text-anchor="middle" x="384.16" y="-335.78" font-family="Sans-Serif" font-size="14.00">Registry</text>
</a>
</g>
</g>
<!-- Registry&#45;&gt;Operations -->
<g id="edge8" class="edge">
<title>Registry&#45;&gt;Operations</title>
<path fill="none" stroke="black" d="M381.68,-331.78C379.81,-325.1 377.15,-315.66 374.77,-307.19"/>
<polygon fill="black" stroke="black" points="378.18,-306.39 372.1,-297.71 371.44,-308.29 378.18,-306.39"/>
</g>
<!-- Tokens -->
<g id="node12" class="node">
<title>Tokens</title>
<g id="a_node12"><a xlink:href="../tokens.html" xlink:title="Tokens" target="_top">
<polygon fill="none" stroke="white" points="321.69,-406.56 274.62,-406.56 274.62,-387.24 321.69,-387.24 321.69,-406.56"/>
<text text-anchor="middle" x="298.16" y="-391.1" font-family="Sans-Serif" font-size="14.00">Tokens</text>
</a>
</g>
</g>
<!-- Tokens&#45;&gt;Operations -->
<g id="edge9" class="edge">
<title>Tokens&#45;&gt;Operations</title>
<path fill="none" stroke="black" d="M303.97,-387.01C315.52,-369.34 341.56,-329.49 357.01,-305.85"/>
<polygon fill="black" stroke="black" points="359.9,-307.83 362.44,-297.54 354.04,-304 359.9,-307.83"/>
</g>
<!-- Formats -->
<g id="node19" class="node">
<title>Formats</title>
<g id="a_node19"><a xlink:href="../formats.html" xlink:title="Formats" target="_top">
<polygon fill="none" stroke="white" points="301.44,-351.24 246.87,-351.24 246.87,-331.92 301.44,-331.92 301.44,-351.24"/>
<text text-anchor="middle" x="274.16" y="-335.78" font-family="Sans-Serif" font-size="14.00">Formats</text>
</a>
</g>
</g>
<!-- Tokens&#45;&gt;Formats -->
<g id="edge19" class="edge">
<title>Tokens&#45;&gt;Formats</title>
<path fill="none" stroke="black" d="M294.2,-387.1C291.12,-380.27 286.75,-370.55 282.87,-361.93"/>
<polygon fill="black" stroke="black" points="286.13,-360.64 278.83,-352.96 279.74,-363.51 286.13,-360.64"/>
</g>
<!-- Readers -->
<g id="node13" class="node">
<title>Readers</title>
<g id="a_node13"><a xlink:href="../readers.html" xlink:title="Readers" target="_top">
<polygon fill="none" stroke="white" points="301.82,-295.92 246.5,-295.92 246.5,-276.6 301.82,-276.6 301.82,-295.92"/>
<text text-anchor="middle" x="274.16" y="-280.46" font-family="Sans-Serif" font-size="14.00">Readers</text>
</a>
</g>
</g>
<!-- Readers&#45;&gt;Writers -->
<g id="edge28" class="edge">
<title>Readers&#45;&gt;Writers</title>
<path fill="none" stroke="black" d="M280.27,-276.46C285.22,-269.32 292.36,-259.03 298.53,-250.14"/>
<polygon fill="black" stroke="black" points="301.23,-252.39 304.05,-242.18 295.48,-248.4 301.23,-252.39"/>
</g>
<!-- Readers&#45;&gt;Queries -->
<g id="edge10" class="edge">
<title>Readers&#45;&gt;Queries</title>
<path fill="none" stroke="black" d="M250.24,-276.21C227.66,-267.67 193.52,-254.77 167.93,-245.09"/>
<polygon fill="black" stroke="black" points="169.2,-241.83 158.61,-241.56 166.73,-248.38 169.2,-241.83"/>
</g>
<!-- Readers&#45;&gt;ReadOnly -->
<g id="edge40" class="edge">
<title>Readers&#45;&gt;ReadOnly</title>
<path fill="none" stroke="black" d="M268.05,-276.46C263.1,-269.32 255.96,-259.03 249.79,-250.14"/>
<polygon fill="black" stroke="black" points="252.84,-248.4 244.27,-242.18 247.09,-252.39 252.84,-248.4"/>
</g>
<!-- Groups -->
<g id="node23" class="node">
<title>Groups</title>
<g id="a_node23"><a xlink:href="../groups.html" xlink:title="Groups" target="_top">
<polygon fill="none" stroke="white" points="401.82,-240.6 352.5,-240.6 352.5,-221.28 401.82,-221.28 401.82,-240.6"/>
<text text-anchor="middle" x="377.16" y="-225.14" font-family="Sans-Serif" font-size="14.00">Groups</text>
</a>
</g>
</g>
<!-- Readers&#45;&gt;Groups -->
<g id="edge27" class="edge">
<title>Readers&#45;&gt;Groups</title>
<path fill="none" stroke="black" d="M291.63,-276.21C307.47,-268.02 331.07,-255.8 349.47,-246.28"/>
<polygon fill="black" stroke="black" points="350.99,-249.43 358.26,-241.73 347.77,-243.21 350.99,-249.43"/>
</g>
<!-- H5dfFormat&#45;&gt;CompleteDaf -->
<g id="edge13" class="edge">
<title>H5dfFormat&#45;&gt;CompleteDaf</title>
<path fill="none" stroke="black" d="M272.82,-165.82C273.32,-159.22 274.01,-149.92 274.64,-141.53"/>
<polygon fill="black" stroke="black" points="278.11,-142.04 275.37,-131.81 271.13,-141.52 278.11,-142.04"/>
</g>
<!-- FilesFormat&#45;&gt;CompleteDaf -->
<g id="edge15" class="edge">
<title>FilesFormat&#45;&gt;CompleteDaf</title>
<path fill="none" stroke="black" d="M404.04,-165.57C379.04,-156.92 341.08,-143.78 313.01,-134.06"/>
<polygon fill="black" stroke="black" points="314.44,-130.85 303.84,-130.88 312.15,-137.46 314.44,-130.85"/>
</g>
<!-- FilesFormat&#45;&gt;ExampleData -->
<g id="edge22" class="edge">
<title>FilesFormat&#45;&gt;ExampleData</title>
<path fill="none" stroke="black" d="M428.01,-165.82C426.39,-159.14 424.08,-149.7 422.02,-141.23"/>
<polygon fill="black" stroke="black" points="425.48,-140.65 419.71,-131.77 418.68,-142.31 425.48,-140.65"/>
</g>
<!-- Contracts&#45;&gt;Computations -->
<g id="edge37" class="edge">
<title>Contracts&#45;&gt;Computations</title>
<path fill="none" stroke="black" d="M46.85,-110.25C55.86,-102.63 68.99,-91.51 79.84,-82.33"/>
<polygon fill="black" stroke="black" points="82.1,-85 87.48,-75.87 77.58,-79.66 82.1,-85"/>
</g>
<!-- Formats&#45;&gt;Readers -->
<g id="edge41" class="edge">
<title>Formats&#45;&gt;Readers</title>
<path fill="none" stroke="black" d="M274.16,-331.78C274.16,-325.18 274.16,-315.88 274.16,-307.49"/>
<polygon fill="black" stroke="black" points="277.66,-307.77 274.16,-297.77 270.66,-307.77 277.66,-307.77"/>
</g>
<!-- StorageTypes -->
<g id="node20" class="node">
<title>StorageTypes</title>
<g id="a_node20"><a xlink:href="../storage_types.html" xlink:title="StorageTypes" target="_top">
<polygon fill="none" stroke="white" points="428.32,-406.56 340,-406.56 340,-387.24 428.32,-387.24 428.32,-406.56"/>
<text text-anchor="middle" x="384.16" y="-391.1" font-family="Sans-Serif" font-size="14.00">StorageTypes</text>
</a>
</g>
</g>
<!-- StorageTypes&#45;&gt;Registry -->
<g id="edge24" class="edge">
<title>StorageTypes&#45;&gt;Registry</title>
<path fill="none" stroke="black" d="M384.16,-387.1C384.16,-380.5 384.16,-371.2 384.16,-362.81"/>
<polygon fill="black" stroke="black" points="387.66,-363.09 384.16,-353.09 380.66,-363.09 387.66,-363.09"/>
</g>
<!-- StorageTypes&#45;&gt;Formats -->
<g id="edge17" class="edge">
<title>StorageTypes&#45;&gt;Formats</title>
<path fill="none" stroke="black" d="M365.5,-386.85C348.43,-378.58 322.92,-366.21 303.19,-356.65"/>
<polygon fill="black" stroke="black" points="304.8,-353.54 294.27,-352.33 301.75,-359.84 304.8,-353.54"/>
</g>
<!-- Keys -->
<g id="node21" class="node">
<title>Keys</title>
<g id="a_node21"><a xlink:href="../keys.html" xlink:title="Keys" target="_top">
<polygon fill="none" stroke="white" points="256.32,-406.56 222,-406.56 222,-387.24 256.32,-387.24 256.32,-406.56"/>
<text text-anchor="middle" x="239.16" y="-391.1" font-family="Sans-Serif" font-size="14.00">Keys</text>
</a>
</g>
</g>
<!-- Keys&#45;&gt;Formats -->
<g id="edge18" class="edge">
<title>Keys&#45;&gt;Formats</title>
<path fill="none" stroke="black" d="M244.94,-387.1C249.57,-380.04 256.23,-369.89 262.03,-361.06"/>
<polygon fill="black" stroke="black" points="264.86,-363.12 267.42,-352.84 259.01,-359.28 264.86,-363.12"/>
</g>
</g>
</svg>
