<?xml version="1.0" encoding="UTF-8" standalone="no"?>
<!DOCTYPE svg PUBLIC "-//W3C//DTD SVG 1.1//EN"
 "http://www.w3.org/Graphics/SVG/1.1/DTD/svg11.dtd">
<!-- Generated by graphviz version 12.2.1 (20241206.2353)
 -->
<!-- Pages: 1 -->
<svg width="697pt" height="636pt"
 viewBox="0.00 0.00 697.19 635.84" xmlns="http://www.w3.org/2000/svg" xmlns:xlink="http://www.w3.org/1999/xlink">
<g id="graph0" class="graph" transform="scale(1 1) rotate(0) translate(4 631.84)">
<polygon fill="white" stroke="none" points="-4,4 -4,-631.84 693.19,-631.84 693.19,4 -4,4"/>
<!-- Copies -->
<g id="node1" class="node">
<title>Copies</title>
<g id="a_node1"><a xlink:href="../copies.html" xlink:title="Copies" target="_top">
<polygon fill="none" stroke="white" points="267.19,-185.28 220.88,-185.28 220.88,-165.96 267.19,-165.96 267.19,-185.28"/>
<text text-anchor="middle" x="244.03" y="-169.82" font-family="Sans-Serif" font-size="14.00">Copies</text>
</a>
</g>
</g>
<!-- Adapters -->
<g id="node6" class="node">
<title>Adapters</title>
<g id="a_node6"><a xlink:href="../adapters.html" xlink:title="Adapters" target="_top">
<polygon fill="none" stroke="white" points="318.19,-19.32 259.87,-19.32 259.87,0 318.19,0 318.19,-19.32"/>
<text text-anchor="middle" x="289.03" y="-3.86" font-family="Sans-Serif" font-size="14.00">Adapters</text>
</a>
</g>
</g>
<!-- Copies&#45;&gt;Adapters -->
<g id="edge5" class="edge">
<title>Copies&#45;&gt;Adapters</title>
<path fill="none" stroke="black" d="M246.45,-165.8C253.44,-140.34 273.79,-66.21 283.61,-30.43"/>
<polygon fill="black" stroke="black" points="286.93,-31.55 286.2,-20.98 280.18,-29.7 286.93,-31.55"/>
</g>
<!-- Concat -->
<g id="node31" class="node">
<title>Concat</title>
<g id="a_node31"><a xlink:href="../concat.html" xlink:title="Concat" target="_top">
<polygon fill="none" stroke="white" points="501.57,-129.96 454.5,-129.96 454.5,-110.64 501.57,-110.64 501.57,-129.96"/>
<text text-anchor="middle" x="478.03" y="-114.5" font-family="Sans-Serif" font-size="14.00">Concat</text>
</a>
</g>
</g>
<!-- Copies&#45;&gt;Concat -->
<g id="edge39" class="edge">
<title>Copies&#45;&gt;Concat</title>
<path fill="none" stroke="black" d="M267.42,-168.16C270.32,-167.4 273.24,-166.65 276.03,-165.96 334.29,-151.65 402.51,-137 442.9,-128.55"/>
<polygon fill="black" stroke="black" points="443.45,-132.01 452.53,-126.54 442.02,-125.16 443.45,-132.01"/>
</g>
<!-- Writers -->
<g id="node2" class="node">
<title>Writers</title>
<g id="a_node2"><a xlink:href="../writers.html" xlink:title="Writers" target="_top">
<polygon fill="none" stroke="white" points="351.57,-240.6 304.5,-240.6 304.5,-221.28 351.57,-221.28 351.57,-240.6"/>
<text text-anchor="middle" x="328.03" y="-225.14" font-family="Sans-Serif" font-size="14.00">Writers</text>
</a>
</g>
</g>
<!-- Writers&#45;&gt;Copies -->
<g id="edge1" class="edge">
<title>Writers&#45;&gt;Copies</title>
<path fill="none" stroke="black" d="M313.79,-220.89C301.24,-212.93 282.7,-201.16 267.89,-191.76"/>
<polygon fill="black" stroke="black" points="269.95,-188.92 259.63,-186.52 266.2,-194.83 269.95,-188.92"/>
</g>
<!-- Chains -->
<g id="node8" class="node">
<title>Chains</title>
<g id="a_node8"><a xlink:href="../chains.html" xlink:title="Chains" target="_top">
<polygon fill="none" stroke="white" points="331.19,-185.28 284.87,-185.28 284.87,-165.96 331.19,-165.96 331.19,-185.28"/>
<text text-anchor="middle" x="308.03" y="-169.82" font-family="Sans-Serif" font-size="14.00">Chains</text>
</a>
</g>
</g>
<!-- Writers&#45;&gt;Chains -->
<g id="edge30" class="edge">
<title>Writers&#45;&gt;Chains</title>
<path fill="none" stroke="black" d="M324.73,-221.14C322.2,-214.38 318.61,-204.81 315.4,-196.26"/>
<polygon fill="black" stroke="black" points="318.73,-195.17 311.94,-187.03 312.18,-197.63 318.73,-195.17"/>
</g>
<!-- MemoryFormat -->
<g id="node9" class="node">
<title>MemoryFormat</title>
<g id="a_node9"><a xlink:href="../memory_format.html" xlink:title="MemoryFormat" target="_top">
<polygon fill="none" stroke="white" points="203.07,-185.28 105,-185.28 105,-165.96 203.07,-165.96 203.07,-185.28"/>
<text text-anchor="middle" x="154.03" y="-169.82" font-family="Sans-Serif" font-size="14.00">MemoryFormat</text>
</a>
</g>
</g>
<!-- Writers&#45;&gt;MemoryFormat -->
<g id="edge22" class="edge">
<title>Writers&#45;&gt;MemoryFormat</title>
<path fill="none" stroke="black" d="M304.21,-222.64C276.03,-214 228.66,-199.49 194.65,-189.07"/>
<polygon fill="black" stroke="black" points="195.71,-185.73 185.13,-186.15 193.66,-192.42 195.71,-185.73"/>
</g>
<!-- H5dfFormat -->
<g id="node26" class="node">
<title>H5dfFormat</title>
<g id="a_node26"><a xlink:href="../h5df_format.html" xlink:title="H5dfFormat" target="_top">
<polygon fill="none" stroke="white" points="425.19,-185.28 348.88,-185.28 348.88,-165.96 425.19,-165.96 425.19,-185.28"/>
<text text-anchor="middle" x="387.03" y="-169.82" font-family="Sans-Serif" font-size="14.00">H5dfFormat</text>
</a>
</g>
</g>
<!-- Writers&#45;&gt;H5dfFormat -->
<g id="edge25" class="edge">
<title>Writers&#45;&gt;H5dfFormat</title>
<path fill="none" stroke="black" d="M338.04,-220.89C346.4,-213.34 358.53,-202.38 368.64,-193.25"/>
<polygon fill="black" stroke="black" points="370.98,-195.85 376.05,-186.55 366.29,-190.65 370.98,-195.85"/>
</g>
<!-- FilesFormat -->
<g id="node29" class="node">
<title>FilesFormat</title>
<g id="a_node29"><a xlink:href="../files_format.html" xlink:title="FilesFormat" target="_top">
<polygon fill="none" stroke="white" points="519.19,-185.28 442.88,-185.28 442.88,-165.96 519.19,-165.96 519.19,-185.28"/>
<text text-anchor="middle" x="481.03" y="-169.82" font-family="Sans-Serif" font-size="14.00">FilesFormat</text>
</a>
</g>
</g>
<!-- Writers&#45;&gt;FilesFormat -->
<g id="edge33" class="edge">
<title>Writers&#45;&gt;FilesFormat</title>
<path fill="none" stroke="black" d="M351.94,-221.61C376.65,-213 415.54,-199.44 444.19,-189.46"/>
<polygon fill="black" stroke="black" points="445.27,-192.79 453.56,-186.19 442.97,-186.18 445.27,-192.79"/>
</g>
<!-- Reconstruction -->
<g id="node32" class="node">
<title>Reconstruction</title>
<g id="a_node32"><a xlink:href="../reconstruction.html" xlink:title="Reconstruction" target="_top">
<polygon fill="none" stroke="white" points="631.19,-185.28 536.88,-185.28 536.88,-165.96 631.19,-165.96 631.19,-185.28"/>
<text text-anchor="middle" x="584.03" y="-169.82" font-family="Sans-Serif" font-size="14.00">Reconstruction</text>
</a>
</g>
</g>
<!-- Writers&#45;&gt;Reconstruction -->
<g id="edge41" class="edge">
<title>Writers&#45;&gt;Reconstruction</title>
<path fill="none" stroke="black" d="M351.76,-223.33C354.54,-222.61 357.35,-221.91 360.03,-221.28 415.91,-208.17 480.2,-195.6 525.54,-187.16"/>
<polygon fill="black" stroke="black" points="525.96,-190.65 535.15,-185.38 524.68,-183.76 525.96,-190.65"/>
</g>
<!-- GenericTypes -->
<g id="node3" class="node">
<title>GenericTypes</title>
<g id="a_node3"><a xlink:href="../generic_types.html" xlink:title="GenericTypes" target="_top">
<polygon fill="none" stroke="white" points="466.57,-572.52 377.5,-572.52 377.5,-553.2 466.57,-553.2 466.57,-572.52"/>
<text text-anchor="middle" x="422.03" y="-557.06" font-family="Sans-Serif" font-size="14.00">GenericTypes</text>
</a>
</g>
</g>
<!-- GenericLogging -->
<g id="node13" class="node">
<title>GenericLogging</title>
<g id="a_node13"><a xlink:href="../generic_logging.html" xlink:title="GenericLogging" target="_top">
<polygon fill="none" stroke="white" points="472.19,-517.2 371.88,-517.2 371.88,-497.88 472.19,-497.88 472.19,-517.2"/>
<text text-anchor="middle" x="422.03" y="-501.74" font-family="Sans-Serif" font-size="14.00">GenericLogging</text>
</a>
</g>
</g>
<!-- GenericTypes&#45;&gt;GenericLogging -->
<g id="edge9" class="edge">
<title>GenericTypes&#45;&gt;GenericLogging</title>
<path fill="none" stroke="black" d="M422.03,-553.06C422.03,-546.46 422.03,-537.16 422.03,-528.77"/>
<polygon fill="black" stroke="black" points="425.54,-529.05 422.04,-519.05 418.54,-529.05 425.54,-529.05"/>
</g>
<!-- GenericFunctions -->
<g id="node4" class="node">
<title>GenericFunctions</title>
<g id="a_node4"><a xlink:href="../generic_functions.html" xlink:title="GenericFunctions" target="_top">
<polygon fill="none" stroke="white" points="601.44,-517.2 490.62,-517.2 490.62,-497.88 601.44,-497.88 601.44,-517.2"/>
<text text-anchor="middle" x="546.03" y="-501.74" font-family="Sans-Serif" font-size="14.00">GenericFunctions</text>
</a>
</g>
</g>
<!-- Registry -->
<g id="node17" class="node">
<title>Registry</title>
<g id="a_node17"><a xlink:href="../registry.html" xlink:title="Registry" target="_top">
<polygon fill="none" stroke="white" points="627.94,-461.88 574.12,-461.88 574.12,-442.56 627.94,-442.56 627.94,-461.88"/>
<text text-anchor="middle" x="601.03" y="-446.42" font-family="Sans-Serif" font-size="14.00">Registry</text>
</a>
</g>
</g>
<!-- GenericFunctions&#45;&gt;Registry -->
<g id="edge24" class="edge">
<title>GenericFunctions&#45;&gt;Registry</title>
<path fill="none" stroke="black" d="M555.12,-497.74C562.87,-490.22 574.25,-479.19 583.73,-469.99"/>
<polygon fill="black" stroke="black" points="585.93,-472.74 590.67,-463.27 581.05,-467.72 585.93,-472.74"/>
</g>
<!-- Tokens -->
<g id="node19" class="node">
<title>Tokens</title>
<g id="a_node19"><a xlink:href="../tokens.html" xlink:title="Tokens" target="_top">
<polygon fill="none" stroke="white" points="570.57,-406.56 523.5,-406.56 523.5,-387.24 570.57,-387.24 570.57,-406.56"/>
<text text-anchor="middle" x="547.03" y="-391.1" font-family="Sans-Serif" font-size="14.00">Tokens</text>
</a>
</g>
</g>
<!-- GenericFunctions&#45;&gt;Tokens -->
<g id="edge27" class="edge">
<title>GenericFunctions&#45;&gt;Tokens</title>
<path fill="none" stroke="black" d="M546.12,-497.65C546.28,-480.38 546.63,-441.91 546.85,-418.12"/>
<polygon fill="black" stroke="black" points="550.35,-418.46 546.94,-408.43 543.35,-418.39 550.35,-418.46"/>
</g>
<!-- Documentation -->
<g id="node30" class="node">
<title>Documentation</title>
<g id="a_node30"><a xlink:href="../documentation.html" xlink:title="Documentation" target="_top">
<polygon fill="none" stroke="white" points="512.94,-461.88 417.12,-461.88 417.12,-442.56 512.94,-442.56 512.94,-461.88"/>
<text text-anchor="middle" x="465.03" y="-446.42" font-family="Sans-Serif" font-size="14.00">Documentation</text>
</a>
</g>
</g>
<!-- GenericFunctions&#45;&gt;Documentation -->
<g id="edge37" class="edge">
<title>GenericFunctions&#45;&gt;Documentation</title>
<path fill="none" stroke="black" d="M532.29,-497.49C520.31,-489.61 502.66,-477.99 488.45,-468.64"/>
<polygon fill="black" stroke="black" points="490.38,-465.72 480.11,-463.14 486.54,-471.56 490.38,-465.72"/>
</g>
<!-- GenericLocks -->
<g id="node5" class="node">
<title>GenericLocks</title>
<g id="a_node5"><a xlink:href="../generic_locks.html" xlink:title="GenericLocks" target="_top">
<polygon fill="none" stroke="white" points="345.82,-406.56 258.25,-406.56 258.25,-387.24 345.82,-387.24 345.82,-406.56"/>
<text text-anchor="middle" x="302.03" y="-391.1" font-family="Sans-Serif" font-size="14.00">GenericLocks</text>
</a>
</g>
</g>
<!-- Formats -->
<g id="node23" class="node">
<title>Formats</title>
<g id="a_node23"><a xlink:href="../formats.html" xlink:title="Formats" target="_top">
<polygon fill="none" stroke="white" points="484.32,-351.24 429.75,-351.24 429.75,-331.92 484.32,-331.92 484.32,-351.24"/>
<text text-anchor="middle" x="457.03" y="-335.78" font-family="Sans-Serif" font-size="14.00">Formats</text>
</a>
</g>
</g>
<!-- GenericLocks&#45;&gt;Formats -->
<g id="edge17" class="edge">
<title>GenericLocks&#45;&gt;Formats</title>
<path fill="none" stroke="black" d="M328.33,-386.85C353.49,-378.2 391.69,-365.06 419.94,-355.34"/>
<polygon fill="black" stroke="black" points="420.86,-358.72 429.18,-352.16 418.59,-352.11 420.86,-358.72"/>
</g>
<!-- Computations -->
<g id="node7" class="node">
<title>Computations</title>
<g id="a_node7"><a xlink:href="../computations.html" xlink:title="Computations" target="_top">
<polygon fill="none" stroke="white" points="450.19,-74.64 361.88,-74.64 361.88,-55.32 450.19,-55.32 450.19,-74.64"/>
<text text-anchor="middle" x="406.03" y="-59.18" font-family="Sans-Serif" font-size="14.00">Computations</text>
</a>
</g>
</g>
<!-- Computations&#45;&gt;Adapters -->
<g id="edge2" class="edge">
<title>Computations&#45;&gt;Adapters</title>
<path fill="none" stroke="black" d="M386.19,-54.93C367.87,-46.59 340.39,-34.06 319.33,-24.46"/>
<polygon fill="black" stroke="black" points="320.91,-21.34 310.36,-20.38 318.01,-27.71 320.91,-21.34"/>
</g>
<!-- Chains&#45;&gt;Adapters -->
<g id="edge3" class="edge">
<title>Chains&#45;&gt;Adapters</title>
<path fill="none" stroke="black" d="M307.01,-165.8C304.08,-140.45 295.55,-66.85 291.38,-30.9"/>
<polygon fill="black" stroke="black" points="294.86,-30.55 290.24,-21.02 287.91,-31.36 294.86,-30.55"/>
</g>
<!-- MemoryFormat&#45;&gt;Adapters -->
<g id="edge4" class="edge">
<title>MemoryFormat&#45;&gt;Adapters</title>
<path fill="none" stroke="black" d="M168.78,-165.6C181.48,-157.37 199.8,-144.31 213.03,-129.96 242.06,-98.5 266.79,-54.57 279.62,-29.74"/>
<polygon fill="black" stroke="black" points="282.58,-31.64 283.97,-21.14 276.33,-28.49 282.58,-31.64"/>
</g>
<!-- ExampleData -->
<g id="node25" class="node">
<title>ExampleData</title>
<g id="a_node25"><a xlink:href="../example_data.html" xlink:title="ExampleData" target="_top">
<polygon fill="none" stroke="white" points="86.07,-129.96 0,-129.96 0,-110.64 86.07,-110.64 86.07,-129.96"/>
<text text-anchor="middle" x="43.03" y="-114.5" font-family="Sans-Serif" font-size="14.00">ExampleData</text>
</a>
</g>
</g>
<!-- MemoryFormat&#45;&gt;ExampleData -->
<g id="edge21" class="edge">
<title>MemoryFormat&#45;&gt;ExampleData</title>
<path fill="none" stroke="black" d="M135.21,-165.57C117.98,-157.3 92.23,-144.93 72.33,-135.37"/>
<polygon fill="black" stroke="black" points="73.85,-132.22 63.32,-131.04 70.82,-138.53 73.85,-132.22"/>
</g>
<!-- AnnDataFormat -->
<g id="node28" class="node">
<title>AnnDataFormat</title>
<g id="a_node28"><a xlink:href="../anndata_format.html" xlink:title="AnnDataFormat" target="_top">
<polygon fill="none" stroke="white" points="204.19,-129.96 103.88,-129.96 103.88,-110.64 204.19,-110.64 204.19,-129.96"/>
<text text-anchor="middle" x="154.03" y="-114.5" font-family="Sans-Serif" font-size="14.00">AnnDataFormat</text>
</a>
</g>
</g>
<!-- MemoryFormat&#45;&gt;AnnDataFormat -->
<g id="edge32" class="edge">
<title>MemoryFormat&#45;&gt;AnnDataFormat</title>
<path fill="none" stroke="black" d="M154.03,-165.82C154.03,-159.22 154.03,-149.92 154.03,-141.53"/>
<polygon fill="black" stroke="black" points="157.54,-141.81 154.04,-131.81 150.54,-141.81 157.54,-141.81"/>
</g>
<!-- Views -->
<g id="node10" class="node">
<title>Views</title>
<g id="a_node10"><a xlink:href="../views.html" xlink:title="Views" target="_top">
<polygon fill="none" stroke="white" points="689.19,-185.28 648.88,-185.28 648.88,-165.96 689.19,-165.96 689.19,-185.28"/>
<text text-anchor="middle" x="669.03" y="-169.82" font-family="Sans-Serif" font-size="14.00">Views</text>
</a>
</g>
</g>
<!-- Contracts -->
<g id="node21" class="node">
<title>Contracts</title>
<g id="a_node21"><a xlink:href="../contracts.html" xlink:title="Contracts" target="_top">
<polygon fill="none" stroke="white" points="641.07,-129.96 579,-129.96 579,-110.64 641.07,-110.64 641.07,-129.96"/>
<text text-anchor="middle" x="610.03" y="-114.5" font-family="Sans-Serif" font-size="14.00">Contracts</text>
</a>
</g>
</g>
<!-- Views&#45;&gt;Contracts -->
<g id="edge15" class="edge">
<title>Views&#45;&gt;Contracts</title>
<path fill="none" stroke="black" d="M659.03,-165.57C650.67,-158.02 638.54,-147.06 628.43,-137.93"/>
<polygon fill="black" stroke="black" points="630.78,-135.33 621.02,-131.23 626.09,-140.53 630.78,-135.33"/>
</g>
<!-- Views&#45;&gt;Concat -->
<g id="edge38" class="edge">
<title>Views&#45;&gt;Concat</title>
<path fill="none" stroke="black" d="M648.46,-168.42C645.63,-167.58 642.76,-166.74 640.03,-165.96 596.26,-153.39 545.64,-139.55 512.8,-130.65"/>
<polygon fill="black" stroke="black" points="513.99,-127.35 503.42,-128.12 512.16,-134.11 513.99,-127.35"/>
</g>
<!-- Queries -->
<g id="node11" class="node">
<title>Queries</title>
<g id="a_node11"><a xlink:href="../queries.html" xlink:title="Queries" target="_top">
<polygon fill="none" stroke="white" points="610.19,-240.6 557.88,-240.6 557.88,-221.28 610.19,-221.28 610.19,-240.6"/>
<text text-anchor="middle" x="584.03" y="-225.14" font-family="Sans-Serif" font-size="14.00">Queries</text>
</a>
</g>
</g>
<!-- Queries&#45;&gt;Views -->
<g id="edge6" class="edge">
<title>Queries&#45;&gt;Views</title>
<path fill="none" stroke="black" d="M598.45,-220.89C611.15,-212.93 629.91,-201.16 644.89,-191.76"/>
<polygon fill="black" stroke="black" points="646.65,-194.79 653.26,-186.51 642.93,-188.86 646.65,-194.79"/>
</g>
<!-- Queries&#45;&gt;Reconstruction -->
<g id="edge42" class="edge">
<title>Queries&#45;&gt;Reconstruction</title>
<path fill="none" stroke="black" d="M584.03,-221.14C584.03,-214.54 584.03,-205.24 584.03,-196.85"/>
<polygon fill="black" stroke="black" points="587.54,-197.13 584.04,-187.13 580.54,-197.13 587.54,-197.13"/>
</g>
<!-- ReadOnly -->
<g id="node12" class="node">
<title>ReadOnly</title>
<g id="a_node12"><a xlink:href="../read_only.html" xlink:title="ReadOnly" target="_top">
<polygon fill="none" stroke="white" points="434.57,-240.6 369.5,-240.6 369.5,-221.28 434.57,-221.28 434.57,-240.6"/>
<text text-anchor="middle" x="402.03" y="-225.14" font-family="Sans-Serif" font-size="14.00">ReadOnly</text>
</a>
</g>
</g>
<!-- ReadOnly&#45;&gt;Chains -->
<g id="edge31" class="edge">
<title>ReadOnly&#45;&gt;Chains</title>
<path fill="none" stroke="black" d="M386.09,-220.89C371.77,-212.78 350.5,-200.71 333.78,-191.22"/>
<polygon fill="black" stroke="black" points="335.8,-188.35 325.38,-186.46 332.35,-194.43 335.8,-188.35"/>
</g>
<!-- ReadOnly&#45;&gt;Views -->
<g id="edge7" class="edge">
<title>ReadOnly&#45;&gt;Views</title>
<path fill="none" stroke="black" d="M434.69,-222.96C437.51,-222.38 440.32,-221.81 443.03,-221.28 526.87,-204.77 551.53,-205.92 637.44,-185.7"/>
<polygon fill="black" stroke="black" points="638.13,-189.13 647.04,-183.4 636.5,-182.32 638.13,-189.13"/>
</g>
<!-- ReadOnly&#45;&gt;H5dfFormat -->
<g id="edge26" class="edge">
<title>ReadOnly&#45;&gt;H5dfFormat</title>
<path fill="none" stroke="black" d="M399.56,-221.14C397.68,-214.46 395.03,-205.02 392.64,-196.55"/>
<polygon fill="black" stroke="black" points="396.05,-195.75 389.98,-187.07 389.31,-197.65 396.05,-195.75"/>
</g>
<!-- ReadOnly&#45;&gt;FilesFormat -->
<g id="edge35" class="edge">
<title>ReadOnly&#45;&gt;FilesFormat</title>
<path fill="none" stroke="black" d="M415.44,-220.89C427.13,-213.01 444.34,-201.39 458.2,-192.04"/>
<polygon fill="black" stroke="black" points="459.98,-195.05 466.31,-186.56 456.07,-189.25 459.98,-195.05"/>
</g>
<!-- GenericLogging&#45;&gt;Documentation -->
<g id="edge36" class="edge">
<title>GenericLogging&#45;&gt;Documentation</title>
<path fill="none" stroke="black" d="M429.14,-497.74C434.95,-490.52 443.37,-480.09 450.59,-471.13"/>
<polygon fill="black" stroke="black" points="453.28,-473.38 456.83,-463.39 447.83,-468.98 453.28,-473.38"/>
</g>
<!-- Messages -->
<g id="node14" class="node">
<title>Messages</title>
<g id="a_node14"><a xlink:href="../messages.html" xlink:title="Messages" target="_top">
<polygon fill="none" stroke="white" points="576.32,-572.52 509.75,-572.52 509.75,-553.2 576.32,-553.2 576.32,-572.52"/>
<text text-anchor="middle" x="543.03" y="-557.06" font-family="Sans-Serif" font-size="14.00">Messages</text>
</a>
</g>
</g>
<!-- Messages&#45;&gt;GenericLogging -->
<g id="edge8" class="edge">
<title>Messages&#45;&gt;GenericLogging</title>
<path fill="none" stroke="black" d="M522.51,-552.81C503.47,-544.43 474.88,-531.83 453.06,-522.21"/>
<polygon fill="black" stroke="black" points="454.61,-519.07 444.05,-518.24 451.79,-525.48 454.61,-519.07"/>
</g>
<!-- ReadOnlyArrays -->
<g id="node15" class="node">
<title>ReadOnlyArrays</title>
<g id="a_node15"><a xlink:href="../read_only_arrays.html" xlink:title="ReadOnlyArrays" target="_top">
<polygon fill="none" stroke="white" points="399.07,-461.88 295,-461.88 295,-442.56 399.07,-442.56 399.07,-461.88"/>
<text text-anchor="middle" x="347.03" y="-446.42" font-family="Sans-Serif" font-size="14.00">ReadOnlyArrays</text>
</a>
</g>
</g>
<!-- MatrixLayouts -->
<g id="node18" class="node">
<title>MatrixLayouts</title>
<g id="a_node18"><a xlink:href="../matrix_layouts.html" xlink:title="MatrixLayouts" target="_top">
<polygon fill="none" stroke="white" points="505.57,-406.56 416.5,-406.56 416.5,-387.24 505.57,-387.24 505.57,-406.56"/>
<text text-anchor="middle" x="461.03" y="-391.1" font-family="Sans-Serif" font-size="14.00">MatrixLayouts</text>
</a>
</g>
</g>
<!-- ReadOnlyArrays&#45;&gt;MatrixLayouts -->
<g id="edge43" class="edge">
<title>ReadOnlyArrays&#45;&gt;MatrixLayouts</title>
<path fill="none" stroke="black" d="M366.37,-442.17C384.14,-433.86 410.75,-421.42 431.24,-411.84"/>
<polygon fill="black" stroke="black" points="432.66,-415.04 440.23,-407.63 429.69,-408.7 432.66,-415.04"/>
</g>
<!-- Operations -->
<g id="node16" class="node">
<title>Operations</title>
<g id="a_node16"><a xlink:href="../operations.html" xlink:title="Operations" target="_top">
<polygon fill="none" stroke="white" points="582.57,-351.24 511.5,-351.24 511.5,-331.92 582.57,-331.92 582.57,-351.24"/>
<text text-anchor="middle" x="547.03" y="-335.78" font-family="Sans-Serif" font-size="14.00">Operations</text>
</a>
</g>
</g>
<!-- Operations&#45;&gt;Queries -->
<g id="edge13" class="edge">
<title>Operations&#45;&gt;Queries</title>
<path fill="none" stroke="black" d="M550.06,-331.69C555.97,-314.34 569.17,-275.6 577.26,-251.83"/>
<polygon fill="black" stroke="black" points="580.57,-252.98 580.48,-242.39 573.94,-250.72 580.57,-252.98"/>
</g>
<!-- Operations&#45;&gt;FilesFormat -->
<g id="edge34" class="edge">
<title>Operations&#45;&gt;FilesFormat</title>
<path fill="none" stroke="black" d="M545.28,-331.57C541.11,-311.2 529.55,-260.38 511.03,-221.28 506.7,-212.12 500.65,-202.71 495.12,-194.9"/>
<polygon fill="black" stroke="black" points="497.99,-192.89 489.24,-186.93 492.36,-197.05 497.99,-192.89"/>
</g>
<!-- Registry&#45;&gt;Operations -->
<g id="edge10" class="edge">
<title>Registry&#45;&gt;Operations</title>
<path fill="none" stroke="black" d="M599.03,-442.17C596.01,-429.44 589.58,-405.73 580.03,-387.24 575.18,-377.84 568.43,-368.3 562.3,-360.46"/>
<polygon fill="black" stroke="black" points="565.04,-358.29 556.01,-352.76 559.62,-362.72 565.04,-358.29"/>
</g>
<!-- MatrixLayouts&#45;&gt;Operations -->
<g id="edge11" class="edge">
<title>MatrixLayouts&#45;&gt;Operations</title>
<path fill="none" stroke="black" d="M475.62,-386.85C488.47,-378.89 507.45,-367.12 522.61,-357.72"/>
<polygon fill="black" stroke="black" points="524.43,-360.71 531.09,-352.47 520.74,-354.76 524.43,-360.71"/>
</g>
<!-- MatrixLayouts&#45;&gt;Formats -->
<g id="edge18" class="edge">
<title>MatrixLayouts&#45;&gt;Formats</title>
<path fill="none" stroke="black" d="M460.37,-387.1C459.88,-380.5 459.18,-371.2 458.55,-362.81"/>
<polygon fill="black" stroke="black" points="462.06,-362.8 457.82,-353.09 455.08,-363.32 462.06,-362.8"/>
</g>
<!-- Tokens&#45;&gt;Operations -->
<g id="edge12" class="edge">
<title>Tokens&#45;&gt;Operations</title>
<path fill="none" stroke="black" d="M547.03,-387.1C547.03,-380.5 547.03,-371.2 547.03,-362.81"/>
<polygon fill="black" stroke="black" points="550.54,-363.09 547.04,-353.09 543.54,-363.09 550.54,-363.09"/>
</g>
<!-- Tokens&#45;&gt;Formats -->
<g id="edge20" class="edge">
<title>Tokens&#45;&gt;Formats</title>
<path fill="none" stroke="black" d="M531.77,-386.85C518.19,-378.81 498.08,-366.9 482.14,-357.45"/>
<polygon fill="black" stroke="black" points="484.07,-354.53 473.68,-352.44 480.5,-360.55 484.07,-354.53"/>
</g>
<!-- Readers -->
<g id="node20" class="node">
<title>Readers</title>
<g id="a_node20"><a xlink:href="../readers.html" xlink:title="Readers" target="_top">
<polygon fill="none" stroke="white" points="484.69,-295.92 429.37,-295.92 429.37,-276.6 484.69,-276.6 484.69,-295.92"/>
<text text-anchor="middle" x="457.03" y="-280.46" font-family="Sans-Serif" font-size="14.00">Readers</text>
</a>
</g>
</g>
<!-- Readers&#45;&gt;Writers -->
<g id="edge29" class="edge">
<title>Readers&#45;&gt;Writers</title>
<path fill="none" stroke="black" d="M435.15,-276.21C414.67,-267.75 383.82,-255 360.48,-245.35"/>
<polygon fill="black" stroke="black" points="362,-242.19 351.42,-241.61 359.33,-248.66 362,-242.19"/>
</g>
<!-- Readers&#45;&gt;Queries -->
<g id="edge14" class="edge">
<title>Readers&#45;&gt;Queries</title>
<path fill="none" stroke="black" d="M478.58,-276.21C498.65,-267.79 528.84,-255.11 551.78,-245.48"/>
<polygon fill="black" stroke="black" points="553.12,-248.71 560.99,-241.62 550.41,-242.26 553.12,-248.71"/>
</g>
<!-- Readers&#45;&gt;ReadOnly -->
<g id="edge45" class="edge">
<title>Readers&#45;&gt;ReadOnly</title>
<path fill="none" stroke="black" d="M447.95,-276.46C440.2,-268.94 428.82,-257.91 419.34,-248.71"/>
<polygon fill="black" stroke="black" points="422.02,-246.44 412.4,-241.99 417.14,-251.46 422.02,-246.44"/>
</g>
<!-- Groups -->
<g id="node27" class="node">
<title>Groups</title>
<g id="a_node27"><a xlink:href="../groups.html" xlink:title="Groups" target="_top">
<polygon fill="none" stroke="white" points="501.69,-240.6 452.37,-240.6 452.37,-221.28 501.69,-221.28 501.69,-240.6"/>
<text text-anchor="middle" x="477.03" y="-225.14" font-family="Sans-Serif" font-size="14.00">Groups</text>
</a>
</g>
</g>
<!-- Readers&#45;&gt;Groups -->
<g id="edge28" class="edge">
<title>Readers&#45;&gt;Groups</title>
<path fill="none" stroke="black" d="M460.34,-276.46C462.87,-269.7 466.46,-260.13 469.67,-251.58"/>
<polygon fill="black" stroke="black" points="472.89,-252.95 473.13,-242.35 466.34,-250.49 472.89,-252.95"/>
</g>
<!-- Contracts&#45;&gt;Computations -->
<g id="edge40" class="edge">
<title>Contracts&#45;&gt;Computations</title>
<path fill="none" stroke="black" d="M578.61,-111.09C544.73,-102.23 490.49,-88.05 451.87,-77.96"/>
<polygon fill="black" stroke="black" points="452.94,-74.62 442.38,-75.48 451.17,-81.4 452.94,-74.62"/>
</g>
<!-- StorageTypes -->
<g id="node22" class="node">
<title>StorageTypes</title>
<g id="a_node22"><a xlink:href="../storage_types.html" xlink:title="StorageTypes" target="_top">
<polygon fill="none" stroke="white" points="617.19,-627.84 528.88,-627.84 528.88,-608.52 617.19,-608.52 617.19,-627.84"/>
<text text-anchor="middle" x="573.03" y="-612.38" font-family="Sans-Serif" font-size="14.00">StorageTypes</text>
</a>
</g>
</g>
<!-- StorageTypes&#45;&gt;Messages -->
<g id="edge16" class="edge">
<title>StorageTypes&#45;&gt;Messages</title>
<path fill="none" stroke="black" d="M568.08,-608.38C564.15,-601.39 558.52,-591.39 553.6,-582.63"/>
<polygon fill="black" stroke="black" points="556.79,-581.17 548.84,-574.18 550.69,-584.61 556.79,-581.17"/>
</g>
<!-- StorageTypes&#45;&gt;Registry -->
<g id="edge23" class="edge">
<title>StorageTypes&#45;&gt;Registry</title>
<path fill="none" stroke="black" d="M577.64,-608.12C586.09,-590.93 603.77,-552.18 610.03,-517.2 612.65,-502.63 610.17,-486.07 607.16,-473.45"/>
<polygon fill="black" stroke="black" points="610.54,-472.56 604.54,-463.83 603.79,-474.39 610.54,-472.56"/>
</g>
<!-- Formats&#45;&gt;Readers -->
<g id="edge46" class="edge">
<title>Formats&#45;&gt;Readers</title>
<path fill="none" stroke="black" d="M457.03,-331.78C457.03,-325.18 457.03,-315.88 457.03,-307.49"/>
<polygon fill="black" stroke="black" points="460.54,-307.77 457.04,-297.77 453.54,-307.77 460.54,-307.77"/>
</g>
<!-- Keys -->
<g id="node24" class="node">
<title>Keys</title>
<g id="a_node24"><a xlink:href="../keys.html" xlink:title="Keys" target="_top">
<polygon fill="none" stroke="white" points="398.19,-406.56 363.87,-406.56 363.87,-387.24 398.19,-387.24 398.19,-406.56"/>
<text text-anchor="middle" x="381.03" y="-391.1" font-family="Sans-Serif" font-size="14.00">Keys</text>
</a>
</g>
</g>
<!-- Keys&#45;&gt;Formats -->
<g id="edge19" class="edge">
<title>Keys&#45;&gt;Formats</title>
<path fill="none" stroke="black" d="M393.93,-386.85C405.06,-379.04 421.41,-367.57 434.67,-358.27"/>
<polygon fill="black" stroke="black" points="436.66,-361.15 442.84,-352.54 432.64,-355.42 436.66,-361.15"/>
</g>
<!-- Documentation&#45;&gt;MatrixLayouts -->
<g id="edge44" class="edge">
<title>Documentation&#45;&gt;MatrixLayouts</title>
<path fill="none" stroke="black" d="M464.37,-442.42C463.88,-435.82 463.18,-426.52 462.55,-418.13"/>
<polygon fill="black" stroke="black" points="466.06,-418.12 461.82,-408.41 459.08,-418.64 466.06,-418.12"/>
</g>
</g>
</svg>
