<?xml version="1.0" encoding="UTF-8" standalone="no"?>
<!DOCTYPE svg PUBLIC "-//W3C//DTD SVG 1.1//EN"
 "http://www.w3.org/Graphics/SVG/1.1/DTD/svg11.dtd">
<!-- Generated by graphviz version 12.2.1 (20241206.2353)
 -->
<!-- Pages: 1 -->
<svg width="687pt" height="415pt"
 viewBox="0.00 0.00 687.19 414.56" xmlns="http://www.w3.org/2000/svg" xmlns:xlink="http://www.w3.org/1999/xlink">
<g id="graph0" class="graph" transform="scale(1 1) rotate(0) translate(4 410.56)">
<polygon fill="white" stroke="none" points="-4,4 -4,-410.56 683.19,-410.56 683.19,4 -4,4"/>
<!-- Copies -->
<g id="node1" class="node">
<title>Copies</title>
<g id="a_node1"><a xlink:href="../copies.html" xlink:title="Copies" target="_top">
<polygon fill="none" stroke="white" points="468.32,-185.28 422,-185.28 422,-165.96 468.32,-165.96 468.32,-185.28"/>
<text text-anchor="middle" x="445.16" y="-169.82" font-family="Sans-Serif" font-size="14.00">Copies</text>
</a>
</g>
</g>
<!-- Adapters -->
<g id="node3" class="node">
<title>Adapters</title>
<g id="a_node3"><a xlink:href="../adapters.html" xlink:title="Adapters" target="_top">
<polygon fill="none" stroke="white" points="419.32,-19.32 361,-19.32 361,0 419.32,0 419.32,-19.32"/>
<text text-anchor="middle" x="390.16" y="-3.86" font-family="Sans-Serif" font-size="14.00">Adapters</text>
</a>
</g>
</g>
<!-- Copies&#45;&gt;Adapters -->
<g id="edge4" class="edge">
<title>Copies&#45;&gt;Adapters</title>
<path fill="none" stroke="black" d="M441.63,-165.78C438.08,-156.8 432.54,-142.49 428.16,-129.96 416.01,-95.18 403.3,-54.17 396.09,-30.42"/>
<polygon fill="black" stroke="black" points="399.53,-29.71 393.29,-21.14 392.83,-31.73 399.53,-29.71"/>
</g>
<!-- Concat -->
<g id="node23" class="node">
<title>Concat</title>
<g id="a_node23"><a xlink:href="../concat.html" xlink:title="Concat" target="_top">
<polygon fill="none" stroke="white" points="293.69,-129.96 246.62,-129.96 246.62,-110.64 293.69,-110.64 293.69,-129.96"/>
<text text-anchor="middle" x="270.16" y="-114.5" font-family="Sans-Serif" font-size="14.00">Concat</text>
</a>
</g>
</g>
<!-- Copies&#45;&gt;Concat -->
<g id="edge30" class="edge">
<title>Copies&#45;&gt;Concat</title>
<path fill="none" stroke="black" d="M421.56,-167.43C391.55,-158.29 339.5,-142.43 304.94,-131.9"/>
<polygon fill="black" stroke="black" points="305.98,-128.56 295.39,-128.99 303.94,-135.25 305.98,-128.56"/>
</g>
<!-- Writers -->
<g id="node2" class="node">
<title>Writers</title>
<g id="a_node2"><a xlink:href="../writers.html" xlink:title="Writers" target="_top">
<polygon fill="none" stroke="white" points="325.69,-240.6 278.62,-240.6 278.62,-221.28 325.69,-221.28 325.69,-240.6"/>
<text text-anchor="middle" x="302.16" y="-225.14" font-family="Sans-Serif" font-size="14.00">Writers</text>
</a>
</g>
</g>
<!-- Writers&#45;&gt;Copies -->
<g id="edge1" class="edge">
<title>Writers&#45;&gt;Copies</title>
<path fill="none" stroke="black" d="M326.09,-221.02C349.33,-212.35 384.83,-199.11 411.03,-189.35"/>
<polygon fill="black" stroke="black" points="412.06,-192.7 420.2,-185.93 409.61,-186.14 412.06,-192.7"/>
</g>
<!-- MemoryFormat -->
<g id="node4" class="node">
<title>MemoryFormat</title>
<g id="a_node4"><a xlink:href="../memory_format.html" xlink:title="MemoryFormat" target="_top">
<polygon fill="none" stroke="white" points="604.19,-185.28 506.12,-185.28 506.12,-165.96 604.19,-165.96 604.19,-185.28"/>
<text text-anchor="middle" x="555.16" y="-169.82" font-family="Sans-Serif" font-size="14.00">MemoryFormat</text>
</a>
</g>
</g>
<!-- Writers&#45;&gt;MemoryFormat -->
<g id="edge17" class="edge">
<title>Writers&#45;&gt;MemoryFormat</title>
<path fill="none" stroke="black" d="M325.88,-223.34C328.67,-222.62 331.47,-221.91 334.16,-221.28 388.13,-208.54 450.05,-196.22 494.59,-187.76"/>
<polygon fill="black" stroke="black" points="495.14,-191.22 504.32,-185.92 493.84,-184.34 495.14,-191.22"/>
</g>
<!-- Chains -->
<g id="node6" class="node">
<title>Chains</title>
<g id="a_node6"><a xlink:href="../chains.html" xlink:title="Chains" target="_top">
<polygon fill="none" stroke="white" points="404.32,-185.28 358,-185.28 358,-165.96 404.32,-165.96 404.32,-185.28"/>
<text text-anchor="middle" x="381.16" y="-169.82" font-family="Sans-Serif" font-size="14.00">Chains</text>
</a>
</g>
</g>
<!-- Writers&#45;&gt;Chains -->
<g id="edge24" class="edge">
<title>Writers&#45;&gt;Chains</title>
<path fill="none" stroke="black" d="M315.56,-220.89C327.25,-213.01 344.46,-201.39 358.32,-192.04"/>
<polygon fill="black" stroke="black" points="360.11,-195.05 366.44,-186.56 356.19,-189.25 360.11,-195.05"/>
</g>
<!-- H5dfFormat -->
<g id="node19" class="node">
<title>H5dfFormat</title>
<g id="a_node19"><a xlink:href="../h5df_format.html" xlink:title="H5dfFormat" target="_top">
<polygon fill="none" stroke="white" points="340.32,-185.28 264,-185.28 264,-165.96 340.32,-165.96 340.32,-185.28"/>
<text text-anchor="middle" x="302.16" y="-169.82" font-family="Sans-Serif" font-size="14.00">H5dfFormat</text>
</a>
</g>
</g>
<!-- Writers&#45;&gt;H5dfFormat -->
<g id="edge20" class="edge">
<title>Writers&#45;&gt;H5dfFormat</title>
<path fill="none" stroke="black" d="M302.16,-221.14C302.16,-214.54 302.16,-205.24 302.16,-196.85"/>
<polygon fill="black" stroke="black" points="305.66,-197.13 302.16,-187.13 298.66,-197.13 305.66,-197.13"/>
</g>
<!-- FilesFormat -->
<g id="node22" class="node">
<title>FilesFormat</title>
<g id="a_node22"><a xlink:href="../files_format.html" xlink:title="FilesFormat" target="_top">
<polygon fill="none" stroke="white" points="134.32,-185.28 58,-185.28 58,-165.96 134.32,-165.96 134.32,-185.28"/>
<text text-anchor="middle" x="96.16" y="-169.82" font-family="Sans-Serif" font-size="14.00">FilesFormat</text>
</a>
</g>
</g>
<!-- Writers&#45;&gt;FilesFormat -->
<g id="edge28" class="edge">
<title>Writers&#45;&gt;FilesFormat</title>
<path fill="none" stroke="black" d="M278.4,-223.47C275.63,-222.73 272.83,-221.98 270.16,-221.28 227.16,-209.95 178.09,-197.38 143.05,-188.48"/>
<polygon fill="black" stroke="black" points="144.21,-185.16 133.65,-186.09 142.48,-191.95 144.21,-185.16"/>
</g>
<!-- Reconstruction -->
<g id="node24" class="node">
<title>Reconstruction</title>
<g id="a_node24"><a xlink:href="../reconstruction.html" xlink:title="Reconstruction" target="_top">
<polygon fill="none" stroke="white" points="246.32,-185.28 152,-185.28 152,-165.96 246.32,-165.96 246.32,-185.28"/>
<text text-anchor="middle" x="199.16" y="-169.82" font-family="Sans-Serif" font-size="14.00">Reconstruction</text>
</a>
</g>
</g>
<!-- Writers&#45;&gt;Reconstruction -->
<g id="edge33" class="edge">
<title>Writers&#45;&gt;Reconstruction</title>
<path fill="none" stroke="black" d="M284.69,-220.89C268.85,-212.7 245.25,-200.48 226.85,-190.96"/>
<polygon fill="black" stroke="black" points="228.55,-187.89 218.06,-186.41 225.33,-194.11 228.55,-187.89"/>
</g>
<!-- MemoryFormat&#45;&gt;Adapters -->
<g id="edge2" class="edge">
<title>MemoryFormat&#45;&gt;Adapters</title>
<path fill="none" stroke="black" d="M556.13,-165.55C557.08,-152.36 557.06,-127.64 546.16,-110.64 518.26,-67.14 463.95,-38.87 427.36,-23.84"/>
<polygon fill="black" stroke="black" points="429.07,-20.75 418.49,-20.33 426.5,-27.26 429.07,-20.75"/>
</g>
<!-- ExampleData -->
<g id="node18" class="node">
<title>ExampleData</title>
<g id="a_node18"><a xlink:href="../example_data.html" xlink:title="ExampleData" target="_top">
<polygon fill="none" stroke="white" points="679.19,-129.96 593.12,-129.96 593.12,-110.64 679.19,-110.64 679.19,-129.96"/>
<text text-anchor="middle" x="636.16" y="-114.5" font-family="Sans-Serif" font-size="14.00">ExampleData</text>
</a>
</g>
</g>
<!-- MemoryFormat&#45;&gt;ExampleData -->
<g id="edge16" class="edge">
<title>MemoryFormat&#45;&gt;ExampleData</title>
<path fill="none" stroke="black" d="M568.9,-165.57C580.89,-157.69 598.53,-146.07 612.74,-136.72"/>
<polygon fill="black" stroke="black" points="614.66,-139.64 621.09,-131.22 610.81,-133.8 614.66,-139.64"/>
</g>
<!-- AnnDataFormat -->
<g id="node21" class="node">
<title>AnnDataFormat</title>
<g id="a_node21"><a xlink:href="../anndata_format.html" xlink:title="AnnDataFormat" target="_top">
<polygon fill="none" stroke="white" points="537.32,-129.96 437,-129.96 437,-110.64 537.32,-110.64 537.32,-129.96"/>
<text text-anchor="middle" x="487.16" y="-114.5" font-family="Sans-Serif" font-size="14.00">AnnDataFormat</text>
</a>
</g>
</g>
<!-- MemoryFormat&#45;&gt;AnnDataFormat -->
<g id="edge25" class="edge">
<title>MemoryFormat&#45;&gt;AnnDataFormat</title>
<path fill="none" stroke="black" d="M543.62,-165.57C533.7,-157.79 519.15,-146.38 507.3,-137.09"/>
<polygon fill="black" stroke="black" points="509.74,-134.56 499.72,-131.15 505.43,-140.07 509.74,-134.56"/>
</g>
<!-- Computations -->
<g id="node5" class="node">
<title>Computations</title>
<g id="a_node5"><a xlink:href="../computations.html" xlink:title="Computations" target="_top">
<polygon fill="none" stroke="white" points="317.32,-74.64 229,-74.64 229,-55.32 317.32,-55.32 317.32,-74.64"/>
<text text-anchor="middle" x="273.16" y="-59.18" font-family="Sans-Serif" font-size="14.00">Computations</text>
</a>
</g>
</g>
<!-- Computations&#45;&gt;Adapters -->
<g id="edge3" class="edge">
<title>Computations&#45;&gt;Adapters</title>
<path fill="none" stroke="black" d="M293.01,-54.93C311.33,-46.59 338.81,-34.06 359.87,-24.46"/>
<polygon fill="black" stroke="black" points="361.19,-27.71 368.84,-20.38 358.29,-21.34 361.19,-27.71"/>
</g>
<!-- Chains&#45;&gt;Adapters -->
<g id="edge5" class="edge">
<title>Chains&#45;&gt;Adapters</title>
<path fill="none" stroke="black" d="M381.64,-165.8C383.04,-140.45 387.08,-66.85 389.05,-30.9"/>
<polygon fill="black" stroke="black" points="392.54,-31.21 389.59,-21.03 385.55,-30.82 392.54,-31.21"/>
</g>
<!-- Views -->
<g id="node7" class="node">
<title>Views</title>
<g id="a_node7"><a xlink:href="../views.html" xlink:title="Views" target="_top">
<polygon fill="none" stroke="white" points="40.32,-185.28 0,-185.28 0,-165.96 40.32,-165.96 40.32,-185.28"/>
<text text-anchor="middle" x="20.16" y="-169.82" font-family="Sans-Serif" font-size="14.00">Views</text>
</a>
</g>
</g>
<!-- Contracts -->
<g id="node14" class="node">
<title>Contracts</title>
<g id="a_node14"><a xlink:href="../contracts.html" xlink:title="Contracts" target="_top">
<polygon fill="none" stroke="white" points="130.19,-129.96 68.12,-129.96 68.12,-110.64 130.19,-110.64 130.19,-129.96"/>
<text text-anchor="middle" x="99.16" y="-114.5" font-family="Sans-Serif" font-size="14.00">Contracts</text>
</a>
</g>
</g>
<!-- Views&#45;&gt;Contracts -->
<g id="edge12" class="edge">
<title>Views&#45;&gt;Contracts</title>
<path fill="none" stroke="black" d="M33.56,-165.57C45.25,-157.69 62.46,-146.07 76.32,-136.72"/>
<polygon fill="black" stroke="black" points="78.11,-139.73 84.44,-131.24 74.19,-133.93 78.11,-139.73"/>
</g>
<!-- Views&#45;&gt;Concat -->
<g id="edge29" class="edge">
<title>Views&#45;&gt;Concat</title>
<path fill="none" stroke="black" d="M40.69,-168.24C43.53,-167.43 46.41,-166.65 49.16,-165.96 114.21,-149.71 191.16,-135.21 234.95,-127.4"/>
<polygon fill="black" stroke="black" points="235.4,-130.87 244.64,-125.68 234.18,-123.98 235.4,-130.87"/>
</g>
<!-- ReadOnly -->
<g id="node8" class="node">
<title>ReadOnly</title>
<g id="a_node8"><a xlink:href="../read_only.html" xlink:title="ReadOnly" target="_top">
<polygon fill="none" stroke="white" points="260.69,-240.6 195.62,-240.6 195.62,-221.28 260.69,-221.28 260.69,-240.6"/>
<text text-anchor="middle" x="228.16" y="-225.14" font-family="Sans-Serif" font-size="14.00">ReadOnly</text>
</a>
</g>
</g>
<!-- ReadOnly&#45;&gt;Chains -->
<g id="edge23" class="edge">
<title>ReadOnly&#45;&gt;Chains</title>
<path fill="none" stroke="black" d="M254.11,-220.89C279.7,-211.98 318.95,-198.3 347.05,-188.51"/>
<polygon fill="black" stroke="black" points="347.87,-191.93 356.17,-185.33 345.57,-185.32 347.87,-191.93"/>
</g>
<!-- ReadOnly&#45;&gt;Views -->
<g id="edge6" class="edge">
<title>ReadOnly&#45;&gt;Views</title>
<path fill="none" stroke="black" d="M195.38,-222.24C161.57,-214.19 107.09,-200.93 51.48,-185.83"/>
<polygon fill="black" stroke="black" points="52.75,-182.55 42.18,-183.29 50.9,-189.3 52.75,-182.55"/>
</g>
<!-- ReadOnly&#45;&gt;H5dfFormat -->
<g id="edge19" class="edge">
<title>ReadOnly&#45;&gt;H5dfFormat</title>
<path fill="none" stroke="black" d="M240.71,-220.89C251.62,-213.03 267.66,-201.48 280.62,-192.14"/>
<polygon fill="black" stroke="black" points="282.5,-195.1 288.56,-186.42 278.4,-189.42 282.5,-195.1"/>
</g>
<!-- ReadOnly&#45;&gt;FilesFormat -->
<g id="edge27" class="edge">
<title>ReadOnly&#45;&gt;FilesFormat</title>
<path fill="none" stroke="black" d="M205.77,-220.89C184.72,-212.39 152.96,-199.56 129.04,-189.9"/>
<polygon fill="black" stroke="black" points="130.65,-186.78 120.07,-186.28 128.03,-193.27 130.65,-186.78"/>
</g>
<!-- Queries -->
<g id="node9" class="node">
<title>Queries</title>
<g id="a_node9"><a xlink:href="../queries.html" xlink:title="Queries" target="_top">
<polygon fill="none" stroke="white" points="177.32,-240.6 125,-240.6 125,-221.28 177.32,-221.28 177.32,-240.6"/>
<text text-anchor="middle" x="151.16" y="-225.14" font-family="Sans-Serif" font-size="14.00">Queries</text>
</a>
</g>
</g>
<!-- Queries&#45;&gt;Views -->
<g id="edge7" class="edge">
<title>Queries&#45;&gt;Views</title>
<path fill="none" stroke="black" d="M128.94,-220.89C107.64,-212.23 75.29,-199.06 51.4,-189.33"/>
<polygon fill="black" stroke="black" points="52.75,-186.1 42.16,-185.58 50.11,-192.59 52.75,-186.1"/>
</g>
<!-- Queries&#45;&gt;Reconstruction -->
<g id="edge32" class="edge">
<title>Queries&#45;&gt;Reconstruction</title>
<path fill="none" stroke="black" d="M159.09,-221.14C165.72,-213.77 175.38,-203.04 183.55,-193.96"/>
<polygon fill="black" stroke="black" points="185.96,-196.51 190.05,-186.74 180.76,-191.83 185.96,-196.51"/>
</g>
<!-- Operations -->
<g id="node10" class="node">
<title>Operations</title>
<g id="a_node10"><a xlink:href="../operations.html" xlink:title="Operations" target="_top">
<polygon fill="none" stroke="white" points="176.69,-295.92 105.62,-295.92 105.62,-276.6 176.69,-276.6 176.69,-295.92"/>
<text text-anchor="middle" x="141.16" y="-280.46" font-family="Sans-Serif" font-size="14.00">Operations</text>
</a>
</g>
</g>
<!-- Operations&#45;&gt;Queries -->
<g id="edge10" class="edge">
<title>Operations&#45;&gt;Queries</title>
<path fill="none" stroke="black" d="M142.81,-276.46C144.05,-269.86 145.79,-260.56 147.37,-252.17"/>
<polygon fill="black" stroke="black" points="150.79,-252.9 149.19,-242.42 143.91,-251.61 150.79,-252.9"/>
</g>
<!-- Operations&#45;&gt;FilesFormat -->
<g id="edge26" class="edge">
<title>Operations&#45;&gt;FilesFormat</title>
<path fill="none" stroke="black" d="M135.42,-276.31C129.93,-267.48 121.71,-253.49 116.16,-240.6 109.95,-226.18 104.73,-209.19 101.18,-196.35"/>
<polygon fill="black" stroke="black" points="104.65,-195.75 98.7,-186.98 97.88,-197.55 104.65,-195.75"/>
</g>
<!-- Registry -->
<g id="node11" class="node">
<title>Registry</title>
<g id="a_node11"><a xlink:href="../registry.html" xlink:title="Registry" target="_top">
<polygon fill="none" stroke="white" points="154.07,-351.24 100.25,-351.24 100.25,-331.92 154.07,-331.92 154.07,-351.24"/>
<text text-anchor="middle" x="127.16" y="-335.78" font-family="Sans-Serif" font-size="14.00">Registry</text>
</a>
</g>
</g>
<!-- Registry&#45;&gt;Operations -->
<g id="edge8" class="edge">
<title>Registry&#45;&gt;Operations</title>
<path fill="none" stroke="black" d="M129.47,-331.78C131.22,-325.1 133.7,-315.66 135.93,-307.19"/>
<polygon fill="black" stroke="black" points="139.26,-308.28 138.41,-297.72 132.49,-306.5 139.26,-308.28"/>
</g>
<!-- Tokens -->
<g id="node12" class="node">
<title>Tokens</title>
<g id="a_node12"><a xlink:href="../tokens.html" xlink:title="Tokens" target="_top">
<polygon fill="none" stroke="white" points="236.69,-406.56 189.62,-406.56 189.62,-387.24 236.69,-387.24 236.69,-406.56"/>
<text text-anchor="middle" x="213.16" y="-391.1" font-family="Sans-Serif" font-size="14.00">Tokens</text>
</a>
</g>
</g>
<!-- Tokens&#45;&gt;Operations -->
<g id="edge9" class="edge">
<title>Tokens&#45;&gt;Operations</title>
<path fill="none" stroke="black" d="M207.27,-387.01C195.56,-369.34 169.15,-329.49 153.48,-305.85"/>
<polygon fill="black" stroke="black" points="156.41,-303.94 147.97,-297.53 150.58,-307.8 156.41,-303.94"/>
</g>
<!-- Formats -->
<g id="node15" class="node">
<title>Formats</title>
<g id="a_node15"><a xlink:href="../formats.html" xlink:title="Formats" target="_top">
<polygon fill="none" stroke="white" points="264.44,-351.24 209.88,-351.24 209.88,-331.92 264.44,-331.92 264.44,-351.24"/>
<text text-anchor="middle" x="237.16" y="-335.78" font-family="Sans-Serif" font-size="14.00">Formats</text>
</a>
</g>
</g>
<!-- Tokens&#45;&gt;Formats -->
<g id="edge14" class="edge">
<title>Tokens&#45;&gt;Formats</title>
<path fill="none" stroke="black" d="M217.12,-387.1C220.2,-380.27 224.57,-370.55 228.45,-361.93"/>
<polygon fill="black" stroke="black" points="231.58,-363.51 232.49,-352.96 225.19,-360.64 231.58,-363.51"/>
</g>
<!-- Readers -->
<g id="node13" class="node">
<title>Readers</title>
<g id="a_node13"><a xlink:href="../readers.html" xlink:title="Readers" target="_top">
<polygon fill="none" stroke="white" points="264.82,-295.92 209.5,-295.92 209.5,-276.6 264.82,-276.6 264.82,-295.92"/>
<text text-anchor="middle" x="237.16" y="-280.46" font-family="Sans-Serif" font-size="14.00">Readers</text>
</a>
</g>
</g>
<!-- Readers&#45;&gt;Writers -->
<g id="edge22" class="edge">
<title>Readers&#45;&gt;Writers</title>
<path fill="none" stroke="black" d="M248.19,-276.21C257.58,-268.51 271.31,-257.25 282.57,-248.01"/>
<polygon fill="black" stroke="black" points="284.61,-250.86 290.13,-241.81 280.17,-245.45 284.61,-250.86"/>
</g>
<!-- Readers&#45;&gt;ReadOnly -->
<g id="edge34" class="edge">
<title>Readers&#45;&gt;ReadOnly</title>
<path fill="none" stroke="black" d="M235.67,-276.46C234.56,-269.86 232.99,-260.56 231.57,-252.17"/>
<polygon fill="black" stroke="black" points="235.05,-251.71 229.93,-242.43 228.14,-252.87 235.05,-251.71"/>
</g>
<!-- Readers&#45;&gt;Queries -->
<g id="edge11" class="edge">
<title>Readers&#45;&gt;Queries</title>
<path fill="none" stroke="black" d="M222.57,-276.21C209.72,-268.25 190.75,-256.48 175.59,-247.08"/>
<polygon fill="black" stroke="black" points="177.45,-244.12 167.11,-241.83 173.76,-250.07 177.45,-244.12"/>
</g>
<!-- Groups -->
<g id="node20" class="node">
<title>Groups</title>
<g id="a_node20"><a xlink:href="../groups.html" xlink:title="Groups" target="_top">
<polygon fill="none" stroke="white" points="392.82,-240.6 343.5,-240.6 343.5,-221.28 392.82,-221.28 392.82,-240.6"/>
<text text-anchor="middle" x="368.16" y="-225.14" font-family="Sans-Serif" font-size="14.00">Groups</text>
</a>
</g>
</g>
<!-- Readers&#45;&gt;Groups -->
<g id="edge21" class="edge">
<title>Readers&#45;&gt;Groups</title>
<path fill="none" stroke="black" d="M259.38,-276.21C280.18,-267.75 311.51,-255 335.21,-245.35"/>
<polygon fill="black" stroke="black" points="336.48,-248.61 344.43,-241.6 333.85,-242.13 336.48,-248.61"/>
</g>
<!-- Contracts&#45;&gt;Computations -->
<g id="edge31" class="edge">
<title>Contracts&#45;&gt;Computations</title>
<path fill="none" stroke="black" d="M128.68,-110.25C157.3,-101.48 200.94,-88.11 232.78,-78.36"/>
<polygon fill="black" stroke="black" points="233.52,-81.79 242.05,-75.51 231.46,-75.1 233.52,-81.79"/>
</g>
<!-- Formats&#45;&gt;Readers -->
<g id="edge35" class="edge">
<title>Formats&#45;&gt;Readers</title>
<path fill="none" stroke="black" d="M237.16,-331.78C237.16,-325.18 237.16,-315.88 237.16,-307.49"/>
<polygon fill="black" stroke="black" points="240.66,-307.77 237.16,-297.77 233.66,-307.77 240.66,-307.77"/>
</g>
<!-- Keys -->
<g id="node16" class="node">
<title>Keys</title>
<g id="a_node16"><a xlink:href="../keys.html" xlink:title="Keys" target="_top">
<polygon fill="none" stroke="white" points="289.32,-406.56 255,-406.56 255,-387.24 289.32,-387.24 289.32,-406.56"/>
<text text-anchor="middle" x="272.16" y="-391.1" font-family="Sans-Serif" font-size="14.00">Keys</text>
</a>
</g>
</g>
<!-- Keys&#45;&gt;Formats -->
<g id="edge13" class="edge">
<title>Keys&#45;&gt;Formats</title>
<path fill="none" stroke="black" d="M266.38,-387.1C261.75,-380.04 255.09,-369.89 249.29,-361.06"/>
<polygon fill="black" stroke="black" points="252.31,-359.28 243.9,-352.84 246.46,-363.12 252.31,-359.28"/>
</g>
<!-- StorageTypes -->
<g id="node17" class="node">
<title>StorageTypes</title>
<g id="a_node17"><a xlink:href="../storage_types.html" xlink:title="StorageTypes" target="_top">
<polygon fill="none" stroke="white" points="171.32,-406.56 83,-406.56 83,-387.24 171.32,-387.24 171.32,-406.56"/>
<text text-anchor="middle" x="127.16" y="-391.1" font-family="Sans-Serif" font-size="14.00">StorageTypes</text>
</a>
</g>
</g>
<!-- StorageTypes&#45;&gt;Registry -->
<g id="edge18" class="edge">
<title>StorageTypes&#45;&gt;Registry</title>
<path fill="none" stroke="black" d="M127.16,-387.1C127.16,-380.5 127.16,-371.2 127.16,-362.81"/>
<polygon fill="black" stroke="black" points="130.66,-363.09 127.16,-353.09 123.66,-363.09 130.66,-363.09"/>
</g>
<!-- StorageTypes&#45;&gt;Formats -->
<g id="edge15" class="edge">
<title>StorageTypes&#45;&gt;Formats</title>
<path fill="none" stroke="black" d="M145.82,-386.85C162.89,-378.58 188.4,-366.21 208.13,-356.65"/>
<polygon fill="black" stroke="black" points="209.57,-359.84 217.05,-352.33 206.52,-353.54 209.57,-359.84"/>
</g>
</g>
</svg>
