<?xml version="1.0" encoding="UTF-8" standalone="no"?>
<!DOCTYPE svg PUBLIC "-//W3C//DTD SVG 1.1//EN"
 "http://www.w3.org/Graphics/SVG/1.1/DTD/svg11.dtd">
<!-- Generated by graphviz version 14.1.1 (20251213.1925)
 -->
<!-- Pages: 1 -->
<svg width="599pt" height="415pt"
 viewBox="0.00 0.00 599.00 415.00" xmlns="http://www.w3.org/2000/svg" xmlns:xlink="http://www.w3.org/1999/xlink">
<g id="graph0" class="graph" transform="scale(1 1) rotate(0) translate(4 410.56)">
<polygon fill="white" stroke="none" points="-4,4 -4,-410.56 595.18,-410.56 595.18,4 -4,4"/>
<!-- Copies -->
<g id="node1" class="node">
<title>Copies</title>
<g id="a_node1"><a xlink:href="../copies.html" xlink:title="Copies" target="_top">
<polygon fill="none" stroke="white" points="468.32,-185.28 422,-185.28 422,-165.96 468.32,-165.96 468.32,-185.28"/>
<text xml:space="preserve" text-anchor="middle" x="445.16" y="-169.82" font-family="Sans-Serif" font-size="14.00">Copies</text>
</a>
</g>
</g>
<!-- Adapters -->
<g id="node3" class="node">
<title>Adapters</title>
<g id="a_node3"><a xlink:href="../adapters.html" xlink:title="Adapters" target="_top">
<polygon fill="none" stroke="white" points="461.32,-19.32 403,-19.32 403,0 461.32,0 461.32,-19.32"/>
<text xml:space="preserve" text-anchor="middle" x="432.16" y="-3.86" font-family="Sans-Serif" font-size="14.00">Adapters</text>
</a>
</g>
</g>
<!-- Copies&#45;&gt;Adapters -->
<g id="edge5" class="edge">
<title>Copies&#45;&gt;Adapters</title>
<path fill="none" stroke="black" d="M444.46,-165.8C442.45,-140.45 436.62,-66.85 433.76,-30.9"/>
<polygon fill="black" stroke="black" points="437.26,-30.72 432.98,-21.03 430.28,-31.27 437.26,-30.72"/>
</g>
<!-- Concat -->
<g id="node24" class="node">
<title>Concat</title>
<g id="a_node24"><a xlink:href="../concat.html" xlink:title="Concat" target="_top">
<polygon fill="none" stroke="white" points="280.69,-129.96 233.62,-129.96 233.62,-110.64 280.69,-110.64 280.69,-129.96"/>
<text xml:space="preserve" text-anchor="middle" x="257.16" y="-114.5" font-family="Sans-Serif" font-size="14.00">Concat</text>
</a>
</g>
</g>
<!-- Copies&#45;&gt;Concat -->
<g id="edge35" class="edge">
<title>Copies&#45;&gt;Concat</title>
<path fill="none" stroke="black" d="M421.73,-167.97C389.17,-158.74 329.99,-141.96 292.18,-131.23"/>
<polygon fill="black" stroke="black" points="293.21,-127.89 282.64,-128.53 291.3,-134.62 293.21,-127.89"/>
</g>
<!-- Writers -->
<g id="node2" class="node">
<title>Writers</title>
<g id="a_node2"><a xlink:href="../writers.html" xlink:title="Writers" target="_top">
<polygon fill="none" stroke="white" points="384.69,-240.6 337.62,-240.6 337.62,-221.28 384.69,-221.28 384.69,-240.6"/>
<text xml:space="preserve" text-anchor="middle" x="361.16" y="-225.14" font-family="Sans-Serif" font-size="14.00">Writers</text>
</a>
</g>
</g>
<!-- Writers&#45;&gt;Copies -->
<g id="edge1" class="edge">
<title>Writers&#45;&gt;Copies</title>
<path fill="none" stroke="black" d="M375.41,-220.89C387.96,-212.93 406.49,-201.16 421.3,-191.76"/>
<polygon fill="black" stroke="black" points="423,-194.83 429.56,-186.52 419.24,-188.92 423,-194.83"/>
</g>
<!-- Chains -->
<g id="node5" class="node">
<title>Chains</title>
<g id="a_node5"><a xlink:href="../chains.html" xlink:title="Chains" target="_top">
<polygon fill="none" stroke="white" points="404.32,-185.28 358,-185.28 358,-165.96 404.32,-165.96 404.32,-185.28"/>
<text xml:space="preserve" text-anchor="middle" x="381.16" y="-169.82" font-family="Sans-Serif" font-size="14.00">Chains</text>
</a>
</g>
</g>
<!-- Writers&#45;&gt;Chains -->
<g id="edge30" class="edge">
<title>Writers&#45;&gt;Chains</title>
<path fill="none" stroke="black" d="M364.46,-221.14C366.99,-214.38 370.59,-204.81 373.79,-196.26"/>
<polygon fill="black" stroke="black" points="377.02,-197.63 377.25,-187.03 370.46,-195.17 377.02,-197.63"/>
</g>
<!-- MemoryFormat -->
<g id="node6" class="node">
<title>MemoryFormat</title>
<g id="a_node6"><a xlink:href="../memory_format.html" xlink:title="MemoryFormat" target="_top">
<polygon fill="none" stroke="white" points="584.19,-185.28 486.12,-185.28 486.12,-165.96 584.19,-165.96 584.19,-185.28"/>
<text xml:space="preserve" text-anchor="middle" x="535.16" y="-169.82" font-family="Sans-Serif" font-size="14.00">MemoryFormat</text>
</a>
</g>
</g>
<!-- Writers&#45;&gt;MemoryFormat -->
<g id="edge23" class="edge">
<title>Writers&#45;&gt;MemoryFormat</title>
<path fill="none" stroke="black" d="M384.99,-222.64C413.17,-214 460.54,-199.49 494.54,-189.07"/>
<polygon fill="black" stroke="black" points="495.53,-192.42 504.07,-186.15 493.48,-185.73 495.53,-192.42"/>
</g>
<!-- FilesFormat -->
<g id="node15" class="node">
<title>FilesFormat</title>
<g id="a_node15"><a xlink:href="../files_format.html" xlink:title="FilesFormat" target="_top">
<polygon fill="none" stroke="white" points="246.32,-185.28 170,-185.28 170,-165.96 246.32,-165.96 246.32,-185.28"/>
<text xml:space="preserve" text-anchor="middle" x="208.16" y="-169.82" font-family="Sans-Serif" font-size="14.00">FilesFormat</text>
</a>
</g>
</g>
<!-- Writers&#45;&gt;FilesFormat -->
<g id="edge34" class="edge">
<title>Writers&#45;&gt;FilesFormat</title>
<path fill="none" stroke="black" d="M337.25,-221.61C312.55,-213 273.65,-199.44 245.01,-189.46"/>
<polygon fill="black" stroke="black" points="246.23,-186.18 235.63,-186.19 243.92,-192.79 246.23,-186.18"/>
</g>
<!-- H5dfFormat -->
<g id="node16" class="node">
<title>H5dfFormat</title>
<g id="a_node16"><a xlink:href="../h5df_format.html" xlink:title="H5dfFormat" target="_top">
<polygon fill="none" stroke="white" points="340.32,-185.28 264,-185.28 264,-165.96 340.32,-165.96 340.32,-185.28"/>
<text xml:space="preserve" text-anchor="middle" x="302.16" y="-169.82" font-family="Sans-Serif" font-size="14.00">H5dfFormat</text>
</a>
</g>
</g>
<!-- Writers&#45;&gt;H5dfFormat -->
<g id="edge26" class="edge">
<title>Writers&#45;&gt;H5dfFormat</title>
<path fill="none" stroke="black" d="M351.15,-220.89C342.79,-213.34 330.66,-202.38 320.56,-193.25"/>
<polygon fill="black" stroke="black" points="322.91,-190.65 313.14,-186.55 318.22,-195.85 322.91,-190.65"/>
</g>
<!-- Reconstruction -->
<g id="node25" class="node">
<title>Reconstruction</title>
<g id="a_node25"><a xlink:href="../reconstruction.html" xlink:title="Reconstruction" target="_top">
<polygon fill="none" stroke="white" points="152.32,-185.28 58,-185.28 58,-165.96 152.32,-165.96 152.32,-185.28"/>
<text xml:space="preserve" text-anchor="middle" x="105.16" y="-169.82" font-family="Sans-Serif" font-size="14.00">Reconstruction</text>
</a>
</g>
</g>
<!-- Writers&#45;&gt;Reconstruction -->
<g id="edge39" class="edge">
<title>Writers&#45;&gt;Reconstruction</title>
<path fill="none" stroke="black" d="M337.44,-223.33C334.66,-222.61 331.85,-221.91 329.16,-221.28 273.29,-208.17 208.99,-195.6 163.66,-187.16"/>
<polygon fill="black" stroke="black" points="164.51,-183.76 154.04,-185.38 163.24,-190.65 164.51,-183.76"/>
</g>
<!-- Computations -->
<g id="node4" class="node">
<title>Computations</title>
<g id="a_node4"><a xlink:href="../computations.html" xlink:title="Computations" target="_top">
<polygon fill="none" stroke="white" points="256.32,-74.64 168,-74.64 168,-55.32 256.32,-55.32 256.32,-74.64"/>
<text xml:space="preserve" text-anchor="middle" x="212.16" y="-59.18" font-family="Sans-Serif" font-size="14.00">Computations</text>
</a>
</g>
</g>
<!-- Computations&#45;&gt;Adapters -->
<g id="edge2" class="edge">
<title>Computations&#45;&gt;Adapters</title>
<path fill="none" stroke="black" d="M249.48,-54.93C288.95,-45.37 351.02,-30.32 391.66,-20.48"/>
<polygon fill="black" stroke="black" points="392.4,-23.9 401.3,-18.14 390.76,-17.09 392.4,-23.9"/>
</g>
<!-- Chains&#45;&gt;Adapters -->
<g id="edge3" class="edge">
<title>Chains&#45;&gt;Adapters</title>
<path fill="none" stroke="black" d="M383.9,-165.8C391.82,-140.34 414.88,-66.21 426.01,-30.43"/>
<polygon fill="black" stroke="black" points="429.33,-31.55 428.95,-20.96 422.64,-29.47 429.33,-31.55"/>
</g>
<!-- CompleteDaf -->
<g id="node14" class="node">
<title>CompleteDaf</title>
<g id="a_node14"><a xlink:href="../complete.html" xlink:title="CompleteDaf" target="_top">
<polygon fill="none" stroke="white" points="216.07,-129.96 132.25,-129.96 132.25,-110.64 216.07,-110.64 216.07,-129.96"/>
<text xml:space="preserve" text-anchor="middle" x="174.16" y="-114.5" font-family="Sans-Serif" font-size="14.00">CompleteDaf</text>
</a>
</g>
</g>
<!-- Chains&#45;&gt;CompleteDaf -->
<g id="edge12" class="edge">
<title>Chains&#45;&gt;CompleteDaf</title>
<path fill="none" stroke="black" d="M357.75,-168.24C354.86,-167.47 351.94,-166.69 349.16,-165.96 305.93,-154.59 256.57,-142.04 221.32,-133.14"/>
<polygon fill="black" stroke="black" points="222.42,-129.81 211.86,-130.76 220.71,-136.59 222.42,-129.81"/>
</g>
<!-- ExampleData -->
<g id="node21" class="node">
<title>ExampleData</title>
<g id="a_node21"><a xlink:href="../example_data.html" xlink:title="ExampleData" target="_top">
<polygon fill="none" stroke="white" points="385.19,-129.96 299.12,-129.96 299.12,-110.64 385.19,-110.64 385.19,-129.96"/>
<text xml:space="preserve" text-anchor="middle" x="342.16" y="-114.5" font-family="Sans-Serif" font-size="14.00">ExampleData</text>
</a>
</g>
</g>
<!-- Chains&#45;&gt;ExampleData -->
<g id="edge20" class="edge">
<title>Chains&#45;&gt;ExampleData</title>
<path fill="none" stroke="black" d="M374.72,-165.82C369.5,-158.68 361.97,-148.39 355.47,-139.5"/>
<polygon fill="black" stroke="black" points="358.36,-137.52 349.63,-131.52 352.71,-141.66 358.36,-137.52"/>
</g>
<!-- MemoryFormat&#45;&gt;Adapters -->
<g id="edge4" class="edge">
<title>MemoryFormat&#45;&gt;Adapters</title>
<path fill="none" stroke="black" d="M552.38,-165.51C572.05,-153.81 600.06,-132.41 588.16,-110.64 563.72,-65.94 509.82,-38.29 472.26,-23.69"/>
<polygon fill="black" stroke="black" points="473.67,-20.48 463.08,-20.27 471.23,-27.04 473.67,-20.48"/>
</g>
<!-- MemoryFormat&#45;&gt;ExampleData -->
<g id="edge22" class="edge">
<title>MemoryFormat&#45;&gt;ExampleData</title>
<path fill="none" stroke="black" d="M502.42,-165.57C470.4,-156.73 421.41,-143.2 386.03,-133.42"/>
<polygon fill="black" stroke="black" points="387.09,-130.08 376.52,-130.79 385.23,-136.83 387.09,-130.08"/>
</g>
<!-- AnnDataFormat -->
<g id="node23" class="node">
<title>AnnDataFormat</title>
<g id="a_node23"><a xlink:href="../anndata_format.html" xlink:title="AnnDataFormat" target="_top">
<polygon fill="none" stroke="white" points="579.32,-129.96 479,-129.96 479,-110.64 579.32,-110.64 579.32,-129.96"/>
<text xml:space="preserve" text-anchor="middle" x="529.16" y="-114.5" font-family="Sans-Serif" font-size="14.00">AnnDataFormat</text>
</a>
</g>
</g>
<!-- MemoryFormat&#45;&gt;AnnDataFormat -->
<g id="edge31" class="edge">
<title>MemoryFormat&#45;&gt;AnnDataFormat</title>
<path fill="none" stroke="black" d="M534.17,-165.82C533.43,-159.22 532.38,-149.92 531.44,-141.53"/>
<polygon fill="black" stroke="black" points="534.94,-141.35 530.34,-131.8 527.98,-142.13 534.94,-141.35"/>
</g>
<!-- Views -->
<g id="node7" class="node">
<title>Views</title>
<g id="a_node7"><a xlink:href="../views.html" xlink:title="Views" target="_top">
<polygon fill="none" stroke="white" points="40.32,-185.28 0,-185.28 0,-165.96 40.32,-165.96 40.32,-185.28"/>
<text xml:space="preserve" text-anchor="middle" x="20.16" y="-169.82" font-family="Sans-Serif" font-size="14.00">Views</text>
</a>
</g>
</g>
<!-- Views&#45;&gt;CompleteDaf -->
<g id="edge15" class="edge">
<title>Views&#45;&gt;CompleteDaf</title>
<path fill="none" stroke="black" d="M40.61,-167.54C65.24,-159.01 107.07,-144.53 137.37,-134.04"/>
<polygon fill="black" stroke="black" points="138.22,-137.45 146.52,-130.87 135.93,-130.83 138.22,-137.45"/>
</g>
<!-- Contracts -->
<g id="node17" class="node">
<title>Contracts</title>
<g id="a_node17"><a xlink:href="../contracts.html" xlink:title="Contracts" target="_top">
<polygon fill="none" stroke="white" points="86.19,-129.96 24.12,-129.96 24.12,-110.64 86.19,-110.64 86.19,-129.96"/>
<text xml:space="preserve" text-anchor="middle" x="55.16" y="-114.5" font-family="Sans-Serif" font-size="14.00">Contracts</text>
</a>
</g>
</g>
<!-- Views&#45;&gt;Contracts -->
<g id="edge16" class="edge">
<title>Views&#45;&gt;Contracts</title>
<path fill="none" stroke="black" d="M25.94,-165.82C30.57,-158.76 37.23,-148.61 43.03,-139.78"/>
<polygon fill="black" stroke="black" points="45.86,-141.84 48.42,-131.56 40.01,-138 45.86,-141.84"/>
</g>
<!-- Views&#45;&gt;Concat -->
<g id="edge36" class="edge">
<title>Views&#45;&gt;Concat</title>
<path fill="none" stroke="black" d="M40.69,-168.24C43.53,-167.44 46.41,-166.65 49.16,-165.96 123.12,-147.39 145.49,-148.27 222.23,-130.53"/>
<polygon fill="black" stroke="black" points="223.03,-133.94 231.96,-128.24 221.43,-127.12 223.03,-133.94"/>
</g>
<!-- ReadOnly -->
<g id="node8" class="node">
<title>ReadOnly</title>
<g id="a_node8"><a xlink:href="../read_only.html" xlink:title="ReadOnly" target="_top">
<polygon fill="none" stroke="white" points="252.69,-240.6 187.62,-240.6 187.62,-221.28 252.69,-221.28 252.69,-240.6"/>
<text xml:space="preserve" text-anchor="middle" x="220.16" y="-225.14" font-family="Sans-Serif" font-size="14.00">ReadOnly</text>
</a>
</g>
</g>
<!-- ReadOnly&#45;&gt;Chains -->
<g id="edge29" class="edge">
<title>ReadOnly&#45;&gt;Chains</title>
<path fill="none" stroke="black" d="M247.47,-220.89C274.92,-211.81 317.29,-197.77 346.96,-187.95"/>
<polygon fill="black" stroke="black" points="347.82,-191.35 356.21,-184.88 345.62,-184.7 347.82,-191.35"/>
</g>
<!-- ReadOnly&#45;&gt;Views -->
<g id="edge6" class="edge">
<title>ReadOnly&#45;&gt;Views</title>
<path fill="none" stroke="black" d="M187.29,-221.72C155.01,-213.56 104.13,-200.5 51.6,-185.9"/>
<polygon fill="black" stroke="black" points="52.76,-182.59 42.19,-183.27 50.88,-189.33 52.76,-182.59"/>
</g>
<!-- ReadOnly&#45;&gt;FilesFormat -->
<g id="edge33" class="edge">
<title>ReadOnly&#45;&gt;FilesFormat</title>
<path fill="none" stroke="black" d="M218.18,-221.14C216.69,-214.54 214.6,-205.24 212.71,-196.85"/>
<polygon fill="black" stroke="black" points="216.13,-196.08 210.52,-187.09 209.3,-197.62 216.13,-196.08"/>
</g>
<!-- ReadOnly&#45;&gt;H5dfFormat -->
<g id="edge25" class="edge">
<title>ReadOnly&#45;&gt;H5dfFormat</title>
<path fill="none" stroke="black" d="M234.07,-220.89C246.32,-212.93 264.41,-201.16 278.87,-191.76"/>
<polygon fill="black" stroke="black" points="280.44,-194.92 286.91,-186.53 276.62,-189.05 280.44,-194.92"/>
</g>
<!-- Queries -->
<g id="node9" class="node">
<title>Queries</title>
<g id="a_node9"><a xlink:href="../queries.html" xlink:title="Queries" target="_top">
<polygon fill="none" stroke="white" points="131.32,-240.6 79,-240.6 79,-221.28 131.32,-221.28 131.32,-240.6"/>
<text xml:space="preserve" text-anchor="middle" x="105.16" y="-225.14" font-family="Sans-Serif" font-size="14.00">Queries</text>
</a>
</g>
</g>
<!-- Queries&#45;&gt;Views -->
<g id="edge7" class="edge">
<title>Queries&#45;&gt;Views</title>
<path fill="none" stroke="black" d="M90.74,-220.89C78.04,-212.93 59.29,-201.16 44.3,-191.76"/>
<polygon fill="black" stroke="black" points="46.26,-188.86 35.93,-186.51 42.54,-194.79 46.26,-188.86"/>
</g>
<!-- Queries&#45;&gt;Reconstruction -->
<g id="edge38" class="edge">
<title>Queries&#45;&gt;Reconstruction</title>
<path fill="none" stroke="black" d="M105.16,-221.14C105.16,-214.54 105.16,-205.24 105.16,-196.85"/>
<polygon fill="black" stroke="black" points="108.66,-197.13 105.16,-187.13 101.66,-197.13 108.66,-197.13"/>
</g>
<!-- Operations -->
<g id="node10" class="node">
<title>Operations</title>
<g id="a_node10"><a xlink:href="../operations.html" xlink:title="Operations" target="_top">
<polygon fill="none" stroke="white" points="176.69,-295.92 105.62,-295.92 105.62,-276.6 176.69,-276.6 176.69,-295.92"/>
<text xml:space="preserve" text-anchor="middle" x="141.16" y="-280.46" font-family="Sans-Serif" font-size="14.00">Operations</text>
</a>
</g>
</g>
<!-- Operations&#45;&gt;Queries -->
<g id="edge10" class="edge">
<title>Operations&#45;&gt;Queries</title>
<path fill="none" stroke="black" d="M135.22,-276.46C130.45,-269.4 123.6,-259.25 117.64,-250.42"/>
<polygon fill="black" stroke="black" points="120.58,-248.52 112.08,-242.19 114.78,-252.44 120.58,-248.52"/>
</g>
<!-- Operations&#45;&gt;FilesFormat -->
<g id="edge32" class="edge">
<title>Operations&#45;&gt;FilesFormat</title>
<path fill="none" stroke="black" d="M146,-276.46C152.9,-264.02 166.07,-240.66 178.16,-221.28 183.59,-212.57 189.89,-203.12 195.3,-195.15"/>
<polygon fill="black" stroke="black" points="198.14,-197.21 200.91,-186.99 192.37,-193.25 198.14,-197.21"/>
</g>
<!-- Tokens -->
<g id="node11" class="node">
<title>Tokens</title>
<g id="a_node11"><a xlink:href="../tokens.html" xlink:title="Tokens" target="_top">
<polygon fill="none" stroke="white" points="236.69,-406.56 189.62,-406.56 189.62,-387.24 236.69,-387.24 236.69,-406.56"/>
<text xml:space="preserve" text-anchor="middle" x="213.16" y="-391.1" font-family="Sans-Serif" font-size="14.00">Tokens</text>
</a>
</g>
</g>
<!-- Tokens&#45;&gt;Operations -->
<g id="edge8" class="edge">
<title>Tokens&#45;&gt;Operations</title>
<path fill="none" stroke="black" d="M207.27,-387.01C195.56,-369.34 169.15,-329.49 153.48,-305.85"/>
<polygon fill="black" stroke="black" points="156.41,-303.94 147.97,-297.53 150.58,-307.8 156.41,-303.94"/>
</g>
<!-- Formats -->
<g id="node18" class="node">
<title>Formats</title>
<g id="a_node18"><a xlink:href="../formats.html" xlink:title="Formats" target="_top">
<polygon fill="none" stroke="white" points="264.44,-351.24 209.88,-351.24 209.88,-331.92 264.44,-331.92 264.44,-351.24"/>
<text xml:space="preserve" text-anchor="middle" x="237.16" y="-335.78" font-family="Sans-Serif" font-size="14.00">Formats</text>
</a>
</g>
</g>
<!-- Tokens&#45;&gt;Formats -->
<g id="edge18" class="edge">
<title>Tokens&#45;&gt;Formats</title>
<path fill="none" stroke="black" d="M217.12,-387.1C220.2,-380.27 224.57,-370.55 228.45,-361.93"/>
<polygon fill="black" stroke="black" points="231.58,-363.51 232.49,-352.96 225.19,-360.64 231.58,-363.51"/>
</g>
<!-- Registry -->
<g id="node12" class="node">
<title>Registry</title>
<g id="a_node12"><a xlink:href="../registry.html" xlink:title="Registry" target="_top">
<polygon fill="none" stroke="white" points="154.07,-351.24 100.25,-351.24 100.25,-331.92 154.07,-331.92 154.07,-351.24"/>
<text xml:space="preserve" text-anchor="middle" x="127.16" y="-335.78" font-family="Sans-Serif" font-size="14.00">Registry</text>
</a>
</g>
</g>
<!-- Registry&#45;&gt;Operations -->
<g id="edge9" class="edge">
<title>Registry&#45;&gt;Operations</title>
<path fill="none" stroke="black" d="M129.47,-331.78C131.22,-325.1 133.7,-315.66 135.93,-307.19"/>
<polygon fill="black" stroke="black" points="139.26,-308.28 138.41,-297.72 132.49,-306.5 139.26,-308.28"/>
</g>
<!-- Readers -->
<g id="node13" class="node">
<title>Readers</title>
<g id="a_node13"><a xlink:href="../readers.html" xlink:title="Readers" target="_top">
<polygon fill="none" stroke="white" points="264.82,-295.92 209.5,-295.92 209.5,-276.6 264.82,-276.6 264.82,-295.92"/>
<text xml:space="preserve" text-anchor="middle" x="237.16" y="-280.46" font-family="Sans-Serif" font-size="14.00">Readers</text>
</a>
</g>
</g>
<!-- Readers&#45;&gt;Writers -->
<g id="edge28" class="edge">
<title>Readers&#45;&gt;Writers</title>
<path fill="none" stroke="black" d="M258.19,-276.21C277.79,-267.79 307.27,-255.11 329.67,-245.48"/>
<polygon fill="black" stroke="black" points="330.83,-248.79 338.63,-241.63 328.06,-242.36 330.83,-248.79"/>
</g>
<!-- Readers&#45;&gt;ReadOnly -->
<g id="edge40" class="edge">
<title>Readers&#45;&gt;ReadOnly</title>
<path fill="none" stroke="black" d="M234.35,-276.46C232.22,-269.78 229.22,-260.34 226.52,-251.87"/>
<polygon fill="black" stroke="black" points="229.86,-250.84 223.49,-242.38 223.19,-252.97 229.86,-250.84"/>
</g>
<!-- Readers&#45;&gt;Queries -->
<g id="edge11" class="edge">
<title>Readers&#45;&gt;Queries</title>
<path fill="none" stroke="black" d="M214.77,-276.21C193.72,-267.71 161.96,-254.88 138.04,-245.22"/>
<polygon fill="black" stroke="black" points="139.65,-242.1 129.07,-241.6 137.03,-248.59 139.65,-242.1"/>
</g>
<!-- Groups -->
<g id="node22" class="node">
<title>Groups</title>
<g id="a_node22"><a xlink:href="../groups.html" xlink:title="Groups" target="_top">
<polygon fill="none" stroke="white" points="319.82,-240.6 270.5,-240.6 270.5,-221.28 319.82,-221.28 319.82,-240.6"/>
<text xml:space="preserve" text-anchor="middle" x="295.16" y="-225.14" font-family="Sans-Serif" font-size="14.00">Groups</text>
</a>
</g>
</g>
<!-- Readers&#45;&gt;Groups -->
<g id="edge27" class="edge">
<title>Readers&#45;&gt;Groups</title>
<path fill="none" stroke="black" d="M247,-276.21C255.21,-268.66 267.14,-257.7 277.07,-248.57"/>
<polygon fill="black" stroke="black" points="279.36,-251.22 284.35,-241.88 274.62,-246.07 279.36,-251.22"/>
</g>
<!-- FilesFormat&#45;&gt;CompleteDaf -->
<g id="edge13" class="edge">
<title>FilesFormat&#45;&gt;CompleteDaf</title>
<path fill="none" stroke="black" d="M202.55,-165.82C198.04,-158.76 191.57,-148.61 185.95,-139.78"/>
<polygon fill="black" stroke="black" points="189.04,-138.12 180.71,-131.57 183.14,-141.89 189.04,-138.12"/>
</g>
<!-- FilesFormat&#45;&gt;ExampleData -->
<g id="edge21" class="edge">
<title>FilesFormat&#45;&gt;ExampleData</title>
<path fill="none" stroke="black" d="M230.89,-165.57C252.26,-157.07 284.5,-144.24 308.79,-134.58"/>
<polygon fill="black" stroke="black" points="309.91,-137.9 317.91,-130.95 307.33,-131.39 309.91,-137.9"/>
</g>
<!-- H5dfFormat&#45;&gt;CompleteDaf -->
<g id="edge14" class="edge">
<title>H5dfFormat&#45;&gt;CompleteDaf</title>
<path fill="none" stroke="black" d="M280.45,-165.57C260.13,-157.11 229.51,-144.36 206.35,-134.71"/>
<polygon fill="black" stroke="black" points="207.95,-131.59 197.38,-130.97 205.26,-138.05 207.95,-131.59"/>
</g>
<!-- Contracts&#45;&gt;Computations -->
<g id="edge37" class="edge">
<title>Contracts&#45;&gt;Computations</title>
<path fill="none" stroke="black" d="M81.79,-110.25C107.28,-101.6 145.97,-88.46 174.59,-78.74"/>
<polygon fill="black" stroke="black" points="175.62,-82.09 183.96,-75.56 173.37,-75.46 175.62,-82.09"/>
</g>
<!-- Formats&#45;&gt;Readers -->
<g id="edge41" class="edge">
<title>Formats&#45;&gt;Readers</title>
<path fill="none" stroke="black" d="M237.16,-331.78C237.16,-325.18 237.16,-315.88 237.16,-307.49"/>
<polygon fill="black" stroke="black" points="240.66,-307.77 237.16,-297.77 233.66,-307.77 240.66,-307.77"/>
</g>
<!-- StorageTypes -->
<g id="node19" class="node">
<title>StorageTypes</title>
<g id="a_node19"><a xlink:href="../storage_types.html" xlink:title="StorageTypes" target="_top">
<polygon fill="none" stroke="white" points="171.32,-406.56 83,-406.56 83,-387.24 171.32,-387.24 171.32,-406.56"/>
<text xml:space="preserve" text-anchor="middle" x="127.16" y="-391.1" font-family="Sans-Serif" font-size="14.00">StorageTypes</text>
</a>
</g>
</g>
<!-- StorageTypes&#45;&gt;Registry -->
<g id="edge24" class="edge">
<title>StorageTypes&#45;&gt;Registry</title>
<path fill="none" stroke="black" d="M127.16,-387.1C127.16,-380.5 127.16,-371.2 127.16,-362.81"/>
<polygon fill="black" stroke="black" points="130.66,-363.09 127.16,-353.09 123.66,-363.09 130.66,-363.09"/>
</g>
<!-- StorageTypes&#45;&gt;Formats -->
<g id="edge17" class="edge">
<title>StorageTypes&#45;&gt;Formats</title>
<path fill="none" stroke="black" d="M145.82,-386.85C162.89,-378.58 188.4,-366.21 208.13,-356.65"/>
<polygon fill="black" stroke="black" points="209.57,-359.84 217.05,-352.33 206.52,-353.54 209.57,-359.84"/>
</g>
<!-- Keys -->
<g id="node20" class="node">
<title>Keys</title>
<g id="a_node20"><a xlink:href="../keys.html" xlink:title="Keys" target="_top">
<polygon fill="none" stroke="white" points="289.32,-406.56 255,-406.56 255,-387.24 289.32,-387.24 289.32,-406.56"/>
<text xml:space="preserve" text-anchor="middle" x="272.16" y="-391.1" font-family="Sans-Serif" font-size="14.00">Keys</text>
</a>
</g>
</g>
<!-- Keys&#45;&gt;Formats -->
<g id="edge19" class="edge">
<title>Keys&#45;&gt;Formats</title>
<path fill="none" stroke="black" d="M266.38,-387.1C261.75,-380.04 255.09,-369.89 249.29,-361.06"/>
<polygon fill="black" stroke="black" points="252.31,-359.28 243.9,-352.84 246.46,-363.12 252.31,-359.28"/>
</g>
</g>
</svg>
