<?xml version="1.0" encoding="UTF-8" standalone="no"?>
<!DOCTYPE svg PUBLIC "-//W3C//DTD SVG 1.1//EN"
 "http://www.w3.org/Graphics/SVG/1.1/DTD/svg11.dtd">
<!-- Generated by graphviz version 12.2.1 (20241206.2353)
 -->
<!-- Pages: 1 -->
<svg width="728pt" height="415pt"
 viewBox="0.00 0.00 728.45 414.56" xmlns="http://www.w3.org/2000/svg" xmlns:xlink="http://www.w3.org/1999/xlink">
<g id="graph0" class="graph" transform="scale(1 1) rotate(0) translate(4 410.56)">
<polygon fill="white" stroke="none" points="-4,4 -4,-410.56 724.45,-410.56 724.45,4 -4,4"/>
<!-- Copies -->
<g id="node1" class="node">
<title>Copies</title>
<g id="a_node1"><a xlink:href="../copies.html" xlink:title="Copies" target="_top">
<polygon fill="none" stroke="white" points="374.32,-185.28 328,-185.28 328,-165.96 374.32,-165.96 374.32,-185.28"/>
<text text-anchor="middle" x="351.16" y="-169.82" font-family="Sans-Serif" font-size="14.00">Copies</text>
</a>
</g>
</g>
<!-- Adapters -->
<g id="node3" class="node">
<title>Adapters</title>
<g id="a_node3"><a xlink:href="../adapters.html" xlink:title="Adapters" target="_top">
<polygon fill="none" stroke="white" points="277.32,-19.32 219,-19.32 219,0 277.32,0 277.32,-19.32"/>
<text text-anchor="middle" x="248.16" y="-3.86" font-family="Sans-Serif" font-size="14.00">Adapters</text>
</a>
</g>
</g>
<!-- Copies&#45;&gt;Adapters -->
<g id="edge2" class="edge">
<title>Copies&#45;&gt;Adapters</title>
<path fill="none" stroke="black" d="M345.62,-165.8C329.41,-140 281.83,-64.26 259.71,-29.04"/>
<polygon fill="black" stroke="black" points="262.81,-27.41 254.53,-20.8 256.89,-31.13 262.81,-27.41"/>
</g>
<!-- Concat -->
<g id="node24" class="node">
<title>Concat</title>
<g id="a_node24"><a xlink:href="../concat.html" xlink:title="Concat" target="_top">
<polygon fill="none" stroke="white" points="297.69,-129.96 250.62,-129.96 250.62,-110.64 297.69,-110.64 297.69,-129.96"/>
<text text-anchor="middle" x="274.16" y="-114.5" font-family="Sans-Serif" font-size="14.00">Concat</text>
</a>
</g>
</g>
<!-- Copies&#45;&gt;Concat -->
<g id="edge31" class="edge">
<title>Copies&#45;&gt;Concat</title>
<path fill="none" stroke="black" d="M338.1,-165.57C326.7,-157.69 309.93,-146.07 296.42,-136.72"/>
<polygon fill="black" stroke="black" points="298.74,-134.07 288.53,-131.25 294.76,-139.82 298.74,-134.07"/>
</g>
<!-- Writers -->
<g id="node2" class="node">
<title>Writers</title>
<g id="a_node2"><a xlink:href="../writers.html" xlink:title="Writers" target="_top">
<polygon fill="none" stroke="white" points="357.69,-240.6 310.62,-240.6 310.62,-221.28 357.69,-221.28 357.69,-240.6"/>
<text text-anchor="middle" x="334.16" y="-225.14" font-family="Sans-Serif" font-size="14.00">Writers</text>
</a>
</g>
</g>
<!-- Writers&#45;&gt;Copies -->
<g id="edge1" class="edge">
<title>Writers&#45;&gt;Copies</title>
<path fill="none" stroke="black" d="M336.97,-221.14C339.1,-214.46 342.1,-205.02 344.8,-196.55"/>
<polygon fill="black" stroke="black" points="348.13,-197.65 347.83,-187.06 341.46,-195.52 348.13,-197.65"/>
</g>
<!-- MemoryFormat -->
<g id="node4" class="node">
<title>MemoryFormat</title>
<g id="a_node4"><a xlink:href="../memory_format.html" xlink:title="MemoryFormat" target="_top">
<polygon fill="none" stroke="white" points="584.19,-185.28 486.12,-185.28 486.12,-165.96 584.19,-165.96 584.19,-185.28"/>
<text text-anchor="middle" x="535.16" y="-169.82" font-family="Sans-Serif" font-size="14.00">MemoryFormat</text>
</a>
</g>
</g>
<!-- Writers&#45;&gt;MemoryFormat -->
<g id="edge19" class="edge">
<title>Writers&#45;&gt;MemoryFormat</title>
<path fill="none" stroke="black" d="M358.01,-223.61C390.42,-215.02 449.02,-199.47 489.92,-188.62"/>
<polygon fill="black" stroke="black" points="490.71,-192.03 499.48,-186.08 488.92,-185.27 490.71,-192.03"/>
</g>
<!-- Chains -->
<g id="node5" class="node">
<title>Chains</title>
<g id="a_node5"><a xlink:href="../chains.html" xlink:title="Chains" target="_top">
<polygon fill="none" stroke="white" points="216.32,-185.28 170,-185.28 170,-165.96 216.32,-165.96 216.32,-185.28"/>
<text text-anchor="middle" x="193.16" y="-169.82" font-family="Sans-Serif" font-size="14.00">Chains</text>
</a>
</g>
</g>
<!-- Writers&#45;&gt;Chains -->
<g id="edge26" class="edge">
<title>Writers&#45;&gt;Chains</title>
<path fill="none" stroke="black" d="M310.24,-220.89C287.52,-212.3 253.11,-199.29 227.47,-189.59"/>
<polygon fill="black" stroke="black" points="228.73,-186.33 218.14,-186.07 226.26,-192.88 228.73,-186.33"/>
</g>
<!-- FilesFormat -->
<g id="node20" class="node">
<title>FilesFormat</title>
<g id="a_node20"><a xlink:href="../files_format.html" xlink:title="FilesFormat" target="_top">
<polygon fill="none" stroke="white" points="468.32,-185.28 392,-185.28 392,-165.96 468.32,-165.96 468.32,-185.28"/>
<text text-anchor="middle" x="430.16" y="-169.82" font-family="Sans-Serif" font-size="14.00">FilesFormat</text>
</a>
</g>
</g>
<!-- Writers&#45;&gt;FilesFormat -->
<g id="edge30" class="edge">
<title>Writers&#45;&gt;FilesFormat</title>
<path fill="none" stroke="black" d="M350.45,-220.89C365.06,-212.78 386.79,-200.71 403.87,-191.22"/>
<polygon fill="black" stroke="black" points="405.43,-194.36 412.47,-186.44 402.03,-188.24 405.43,-194.36"/>
</g>
<!-- H5dfFormat -->
<g id="node21" class="node">
<title>H5dfFormat</title>
<g id="a_node21"><a xlink:href="../h5df_format.html" xlink:title="H5dfFormat" target="_top">
<polygon fill="none" stroke="white" points="310.32,-185.28 234,-185.28 234,-165.96 310.32,-165.96 310.32,-185.28"/>
<text text-anchor="middle" x="272.16" y="-169.82" font-family="Sans-Serif" font-size="14.00">H5dfFormat</text>
</a>
</g>
</g>
<!-- Writers&#45;&gt;H5dfFormat -->
<g id="edge22" class="edge">
<title>Writers&#45;&gt;H5dfFormat</title>
<path fill="none" stroke="black" d="M323.64,-220.89C314.77,-213.27 301.85,-202.15 291.17,-192.97"/>
<polygon fill="black" stroke="black" points="293.53,-190.39 283.67,-186.52 288.97,-195.69 293.53,-190.39"/>
</g>
<!-- Reconstruction -->
<g id="node25" class="node">
<title>Reconstruction</title>
<g id="a_node25"><a xlink:href="../reconstruction.html" xlink:title="Reconstruction" target="_top">
<polygon fill="none" stroke="white" points="152.32,-185.28 58,-185.28 58,-165.96 152.32,-165.96 152.32,-185.28"/>
<text text-anchor="middle" x="105.16" y="-169.82" font-family="Sans-Serif" font-size="14.00">Reconstruction</text>
</a>
</g>
</g>
<!-- Writers&#45;&gt;Reconstruction -->
<g id="edge35" class="edge">
<title>Writers&#45;&gt;Reconstruction</title>
<path fill="none" stroke="black" d="M310.42,-223.4C307.64,-222.67 304.84,-221.95 302.16,-221.28 253.73,-209.24 198.28,-196.79 158.57,-188.1"/>
<polygon fill="black" stroke="black" points="159.55,-184.73 149.03,-186.02 158.05,-191.57 159.55,-184.73"/>
</g>
<!-- MemoryFormat&#45;&gt;Adapters -->
<g id="edge3" class="edge">
<title>MemoryFormat&#45;&gt;Adapters</title>
<path fill="none" stroke="black" d="M584.62,-173.02C648.85,-169.15 748.7,-155.89 712.16,-110.64 659,-44.81 392.52,-20.26 289.19,-13.12"/>
<polygon fill="black" stroke="black" points="289.43,-9.63 279.22,-12.45 288.96,-16.61 289.43,-9.63"/>
</g>
<!-- OldExampleData -->
<g id="node14" class="node">
<title>OldExampleData</title>
<g id="a_node14"><a xlink:href="../old_example_data.html" xlink:title="OldExampleData" target="_top">
<polygon fill="none" stroke="white" points="585.07,-129.96 477.25,-129.96 477.25,-110.64 585.07,-110.64 585.07,-129.96"/>
<text text-anchor="middle" x="531.16" y="-114.5" font-family="Sans-Serif" font-size="14.00">OldExampleData</text>
</a>
</g>
</g>
<!-- MemoryFormat&#45;&gt;OldExampleData -->
<g id="edge12" class="edge">
<title>MemoryFormat&#45;&gt;OldExampleData</title>
<path fill="none" stroke="black" d="M534.5,-165.82C534,-159.22 533.31,-149.92 532.68,-141.53"/>
<polygon fill="black" stroke="black" points="536.19,-141.52 531.95,-131.81 529.21,-142.04 536.19,-141.52"/>
</g>
<!-- ExampleData -->
<g id="node19" class="node">
<title>ExampleData</title>
<g id="a_node19"><a xlink:href="../example_data.html" xlink:title="ExampleData" target="_top">
<polygon fill="none" stroke="white" points="459.19,-129.96 373.12,-129.96 373.12,-110.64 459.19,-110.64 459.19,-129.96"/>
<text text-anchor="middle" x="416.16" y="-114.5" font-family="Sans-Serif" font-size="14.00">ExampleData</text>
</a>
</g>
</g>
<!-- MemoryFormat&#45;&gt;ExampleData -->
<g id="edge17" class="edge">
<title>MemoryFormat&#45;&gt;ExampleData</title>
<path fill="none" stroke="black" d="M514.97,-165.57C496.25,-157.19 468.14,-144.59 446.68,-134.97"/>
<polygon fill="black" stroke="black" points="448.38,-131.9 437.83,-131.01 445.52,-138.29 448.38,-131.9"/>
</g>
<!-- AnnDataFormat -->
<g id="node23" class="node">
<title>AnnDataFormat</title>
<g id="a_node23"><a xlink:href="../anndata_format.html" xlink:title="AnnDataFormat" target="_top">
<polygon fill="none" stroke="white" points="703.32,-129.96 603,-129.96 603,-110.64 703.32,-110.64 703.32,-129.96"/>
<text text-anchor="middle" x="653.16" y="-114.5" font-family="Sans-Serif" font-size="14.00">AnnDataFormat</text>
</a>
</g>
</g>
<!-- MemoryFormat&#45;&gt;AnnDataFormat -->
<g id="edge27" class="edge">
<title>MemoryFormat&#45;&gt;AnnDataFormat</title>
<path fill="none" stroke="black" d="M555.18,-165.57C573.65,-157.23 601.37,-144.7 622.61,-135.1"/>
<polygon fill="black" stroke="black" points="623.99,-138.32 631.67,-131.01 621.11,-131.94 623.99,-138.32"/>
</g>
<!-- Chains&#45;&gt;Adapters -->
<g id="edge4" class="edge">
<title>Chains&#45;&gt;Adapters</title>
<path fill="none" stroke="black" d="M196.12,-165.8C204.66,-140.34 229.53,-66.21 241.53,-30.43"/>
<polygon fill="black" stroke="black" points="244.84,-31.55 244.71,-20.95 238.21,-29.32 244.84,-31.55"/>
</g>
<!-- Computations -->
<g id="node6" class="node">
<title>Computations</title>
<g id="a_node6"><a xlink:href="../computations.html" xlink:title="Computations" target="_top">
<polygon fill="none" stroke="white" points="143.32,-74.64 55,-74.64 55,-55.32 143.32,-55.32 143.32,-74.64"/>
<text text-anchor="middle" x="99.16" y="-59.18" font-family="Sans-Serif" font-size="14.00">Computations</text>
</a>
</g>
</g>
<!-- Computations&#45;&gt;Adapters -->
<g id="edge5" class="edge">
<title>Computations&#45;&gt;Adapters</title>
<path fill="none" stroke="black" d="M124.44,-54.93C148.52,-46.32 185.02,-33.26 212.14,-23.55"/>
<polygon fill="black" stroke="black" points="213.1,-26.92 221.34,-20.26 210.74,-20.33 213.1,-26.92"/>
</g>
<!-- Views -->
<g id="node7" class="node">
<title>Views</title>
<g id="a_node7"><a xlink:href="../views.html" xlink:title="Views" target="_top">
<polygon fill="none" stroke="white" points="40.32,-185.28 0,-185.28 0,-165.96 40.32,-165.96 40.32,-185.28"/>
<text text-anchor="middle" x="20.16" y="-169.82" font-family="Sans-Serif" font-size="14.00">Views</text>
</a>
</g>
</g>
<!-- Contracts -->
<g id="node15" class="node">
<title>Contracts</title>
<g id="a_node15"><a xlink:href="../contracts.html" xlink:title="Contracts" target="_top">
<polygon fill="none" stroke="white" points="80.19,-129.96 18.12,-129.96 18.12,-110.64 80.19,-110.64 80.19,-129.96"/>
<text text-anchor="middle" x="49.16" y="-114.5" font-family="Sans-Serif" font-size="14.00">Contracts</text>
</a>
</g>
</g>
<!-- Views&#45;&gt;Contracts -->
<g id="edge13" class="edge">
<title>Views&#45;&gt;Contracts</title>
<path fill="none" stroke="black" d="M24.95,-165.82C28.7,-158.91 34.07,-149.05 38.79,-140.36"/>
<polygon fill="black" stroke="black" points="41.84,-142.08 43.54,-131.63 35.69,-138.74 41.84,-142.08"/>
</g>
<!-- Views&#45;&gt;Concat -->
<g id="edge32" class="edge">
<title>Views&#45;&gt;Concat</title>
<path fill="none" stroke="black" d="M40.69,-168.23C43.52,-167.42 46.41,-166.64 49.16,-165.96 115.73,-149.45 194.55,-134.95 239.02,-127.22"/>
<polygon fill="black" stroke="black" points="239.6,-130.67 248.86,-125.52 238.41,-123.77 239.6,-130.67"/>
</g>
<!-- ReadOnly -->
<g id="node8" class="node">
<title>ReadOnly</title>
<g id="a_node8"><a xlink:href="../read_only.html" xlink:title="ReadOnly" target="_top">
<polygon fill="none" stroke="white" points="225.69,-240.6 160.62,-240.6 160.62,-221.28 225.69,-221.28 225.69,-240.6"/>
<text text-anchor="middle" x="193.16" y="-225.14" font-family="Sans-Serif" font-size="14.00">ReadOnly</text>
</a>
</g>
</g>
<!-- ReadOnly&#45;&gt;Chains -->
<g id="edge25" class="edge">
<title>ReadOnly&#45;&gt;Chains</title>
<path fill="none" stroke="black" d="M193.16,-221.14C193.16,-214.54 193.16,-205.24 193.16,-196.85"/>
<polygon fill="black" stroke="black" points="196.66,-197.13 193.16,-187.13 189.66,-197.13 196.66,-197.13"/>
</g>
<!-- ReadOnly&#45;&gt;Views -->
<g id="edge6" class="edge">
<title>ReadOnly&#45;&gt;Views</title>
<path fill="none" stroke="black" d="M163.81,-220.89C132.65,-211.29 83.56,-196.16 51.62,-186.31"/>
<polygon fill="black" stroke="black" points="52.72,-182.99 42.13,-183.39 50.66,-189.68 52.72,-182.99"/>
</g>
<!-- ReadOnly&#45;&gt;FilesFormat -->
<g id="edge28" class="edge">
<title>ReadOnly&#45;&gt;FilesFormat</title>
<path fill="none" stroke="black" d="M226.11,-222.53C266.18,-213.51 334.19,-198.21 380.59,-187.77"/>
<polygon fill="black" stroke="black" points="381.13,-191.24 390.12,-185.63 379.59,-184.41 381.13,-191.24"/>
</g>
<!-- ReadOnly&#45;&gt;H5dfFormat -->
<g id="edge21" class="edge">
<title>ReadOnly&#45;&gt;H5dfFormat</title>
<path fill="none" stroke="black" d="M206.56,-220.89C218.25,-213.01 235.46,-201.39 249.32,-192.04"/>
<polygon fill="black" stroke="black" points="251.11,-195.05 257.44,-186.56 247.19,-189.25 251.11,-195.05"/>
</g>
<!-- Queries -->
<g id="node9" class="node">
<title>Queries</title>
<g id="a_node9"><a xlink:href="../queries.html" xlink:title="Queries" target="_top">
<polygon fill="none" stroke="white" points="137.32,-240.6 85,-240.6 85,-221.28 137.32,-221.28 137.32,-240.6"/>
<text text-anchor="middle" x="111.16" y="-225.14" font-family="Sans-Serif" font-size="14.00">Queries</text>
</a>
</g>
</g>
<!-- Queries&#45;&gt;Views -->
<g id="edge7" class="edge">
<title>Queries&#45;&gt;Views</title>
<path fill="none" stroke="black" d="M95.72,-220.89C82,-212.85 61.66,-200.94 45.54,-191.49"/>
<polygon fill="black" stroke="black" points="47.38,-188.51 36.98,-186.47 43.84,-194.55 47.38,-188.51"/>
</g>
<!-- Queries&#45;&gt;Reconstruction -->
<g id="edge34" class="edge">
<title>Queries&#45;&gt;Reconstruction</title>
<path fill="none" stroke="black" d="M110.17,-221.14C109.43,-214.54 108.38,-205.24 107.44,-196.85"/>
<polygon fill="black" stroke="black" points="110.94,-196.67 106.34,-187.12 103.98,-197.45 110.94,-196.67"/>
</g>
<!-- Operations -->
<g id="node10" class="node">
<title>Operations</title>
<g id="a_node10"><a xlink:href="../operations.html" xlink:title="Operations" target="_top">
<polygon fill="none" stroke="white" points="369.69,-295.92 298.62,-295.92 298.62,-276.6 369.69,-276.6 369.69,-295.92"/>
<text text-anchor="middle" x="334.16" y="-280.46" font-family="Sans-Serif" font-size="14.00">Operations</text>
</a>
</g>
</g>
<!-- Operations&#45;&gt;Queries -->
<g id="edge11" class="edge">
<title>Operations&#45;&gt;Queries</title>
<path fill="none" stroke="black" d="M298.33,-276.69C257.37,-266.9 190.6,-250.93 148.87,-240.96"/>
<polygon fill="black" stroke="black" points="149.81,-237.58 139.28,-238.66 148.19,-244.39 149.81,-237.58"/>
</g>
<!-- Operations&#45;&gt;FilesFormat -->
<g id="edge29" class="edge">
<title>Operations&#45;&gt;FilesFormat</title>
<path fill="none" stroke="black" d="M342.02,-276.37C357.91,-258.38 394.12,-217.41 414.84,-193.95"/>
<polygon fill="black" stroke="black" points="417.19,-196.58 421.19,-186.77 411.95,-191.94 417.19,-196.58"/>
</g>
<!-- Registry -->
<g id="node11" class="node">
<title>Registry</title>
<g id="a_node11"><a xlink:href="../registry.html" xlink:title="Registry" target="_top">
<polygon fill="none" stroke="white" points="329.07,-351.24 275.25,-351.24 275.25,-331.92 329.07,-331.92 329.07,-351.24"/>
<text text-anchor="middle" x="302.16" y="-335.78" font-family="Sans-Serif" font-size="14.00">Registry</text>
</a>
</g>
</g>
<!-- Registry&#45;&gt;Operations -->
<g id="edge8" class="edge">
<title>Registry&#45;&gt;Operations</title>
<path fill="none" stroke="black" d="M307.44,-331.78C311.63,-324.79 317.64,-314.79 322.89,-306.03"/>
<polygon fill="black" stroke="black" points="325.84,-307.93 327.98,-297.55 319.84,-304.33 325.84,-307.93"/>
</g>
<!-- Tokens -->
<g id="node12" class="node">
<title>Tokens</title>
<g id="a_node12"><a xlink:href="../tokens.html" xlink:title="Tokens" target="_top">
<polygon fill="none" stroke="white" points="380.69,-406.56 333.62,-406.56 333.62,-387.24 380.69,-387.24 380.69,-406.56"/>
<text text-anchor="middle" x="357.16" y="-391.1" font-family="Sans-Serif" font-size="14.00">Tokens</text>
</a>
</g>
</g>
<!-- Tokens&#45;&gt;Operations -->
<g id="edge9" class="edge">
<title>Tokens&#45;&gt;Operations</title>
<path fill="none" stroke="black" d="M355.28,-387.01C351.62,-369.74 343.48,-331.27 338.44,-307.48"/>
<polygon fill="black" stroke="black" points="341.88,-306.81 336.38,-297.75 335.03,-308.26 341.88,-306.81"/>
</g>
<!-- Formats -->
<g id="node16" class="node">
<title>Formats</title>
<g id="a_node16"><a xlink:href="../formats.html" xlink:title="Formats" target="_top">
<polygon fill="none" stroke="white" points="257.44,-351.24 202.88,-351.24 202.88,-331.92 257.44,-331.92 257.44,-351.24"/>
<text text-anchor="middle" x="230.16" y="-335.78" font-family="Sans-Serif" font-size="14.00">Formats</text>
</a>
</g>
</g>
<!-- Tokens&#45;&gt;Formats -->
<g id="edge15" class="edge">
<title>Tokens&#45;&gt;Formats</title>
<path fill="none" stroke="black" d="M335.62,-386.85C315.55,-378.43 285.36,-365.75 262.41,-356.12"/>
<polygon fill="black" stroke="black" points="263.78,-352.9 253.21,-352.26 261.07,-359.35 263.78,-352.9"/>
</g>
<!-- Readers -->
<g id="node13" class="node">
<title>Readers</title>
<g id="a_node13"><a xlink:href="../readers.html" xlink:title="Readers" target="_top">
<polygon fill="none" stroke="white" points="257.82,-295.92 202.5,-295.92 202.5,-276.6 257.82,-276.6 257.82,-295.92"/>
<text text-anchor="middle" x="230.16" y="-280.46" font-family="Sans-Serif" font-size="14.00">Readers</text>
</a>
</g>
</g>
<!-- Readers&#45;&gt;Writers -->
<g id="edge24" class="edge">
<title>Readers&#45;&gt;Writers</title>
<path fill="none" stroke="black" d="M247.8,-276.21C263.79,-268.02 287.62,-255.8 306.2,-246.28"/>
<polygon fill="black" stroke="black" points="307.78,-249.4 315.08,-241.72 304.59,-243.17 307.78,-249.4"/>
</g>
<!-- Readers&#45;&gt;ReadOnly -->
<g id="edge36" class="edge">
<title>Readers&#45;&gt;ReadOnly</title>
<path fill="none" stroke="black" d="M224.05,-276.46C219.1,-269.32 211.96,-259.03 205.79,-250.14"/>
<polygon fill="black" stroke="black" points="208.84,-248.4 200.27,-242.18 203.09,-252.39 208.84,-248.4"/>
</g>
<!-- Readers&#45;&gt;Queries -->
<g id="edge10" class="edge">
<title>Readers&#45;&gt;Queries</title>
<path fill="none" stroke="black" d="M209.97,-276.21C191.25,-267.83 163.14,-255.23 141.68,-245.61"/>
<polygon fill="black" stroke="black" points="143.38,-242.54 132.83,-241.65 140.52,-248.93 143.38,-242.54"/>
</g>
<!-- Groups -->
<g id="node22" class="node">
<title>Groups</title>
<g id="a_node22"><a xlink:href="../groups.html" xlink:title="Groups" target="_top">
<polygon fill="none" stroke="white" points="292.82,-240.6 243.5,-240.6 243.5,-221.28 292.82,-221.28 292.82,-240.6"/>
<text text-anchor="middle" x="268.16" y="-225.14" font-family="Sans-Serif" font-size="14.00">Groups</text>
</a>
</g>
</g>
<!-- Readers&#45;&gt;Groups -->
<g id="edge23" class="edge">
<title>Readers&#45;&gt;Groups</title>
<path fill="none" stroke="black" d="M236.43,-276.46C241.52,-269.32 248.86,-259.03 255.19,-250.14"/>
<polygon fill="black" stroke="black" points="257.92,-252.34 260.87,-242.17 252.22,-248.28 257.92,-252.34"/>
</g>
<!-- Contracts&#45;&gt;Computations -->
<g id="edge33" class="edge">
<title>Contracts&#45;&gt;Computations</title>
<path fill="none" stroke="black" d="M57.42,-110.5C64.32,-103.13 74.38,-92.4 82.9,-83.32"/>
<polygon fill="black" stroke="black" points="85.4,-85.77 89.69,-76.08 80.3,-80.98 85.4,-85.77"/>
</g>
<!-- Formats&#45;&gt;Readers -->
<g id="edge37" class="edge">
<title>Formats&#45;&gt;Readers</title>
<path fill="none" stroke="black" d="M230.16,-331.78C230.16,-325.18 230.16,-315.88 230.16,-307.49"/>
<polygon fill="black" stroke="black" points="233.66,-307.77 230.16,-297.77 226.66,-307.77 233.66,-307.77"/>
</g>
<!-- StorageTypes -->
<g id="node17" class="node">
<title>StorageTypes</title>
<g id="a_node17"><a xlink:href="../storage_types.html" xlink:title="StorageTypes" target="_top">
<polygon fill="none" stroke="white" points="315.32,-406.56 227,-406.56 227,-387.24 315.32,-387.24 315.32,-406.56"/>
<text text-anchor="middle" x="271.16" y="-391.1" font-family="Sans-Serif" font-size="14.00">StorageTypes</text>
</a>
</g>
</g>
<!-- StorageTypes&#45;&gt;Registry -->
<g id="edge20" class="edge">
<title>StorageTypes&#45;&gt;Registry</title>
<path fill="none" stroke="black" d="M276.28,-387.1C280.34,-380.11 286.15,-370.11 291.25,-361.35"/>
<polygon fill="black" stroke="black" points="294.17,-363.29 296.17,-352.88 288.12,-359.77 294.17,-363.29"/>
</g>
<!-- StorageTypes&#45;&gt;Formats -->
<g id="edge14" class="edge">
<title>StorageTypes&#45;&gt;Formats</title>
<path fill="none" stroke="black" d="M264.39,-387.1C258.84,-379.88 250.82,-369.45 243.93,-360.49"/>
<polygon fill="black" stroke="black" points="246.87,-358.57 238,-352.78 241.32,-362.84 246.87,-358.57"/>
</g>
<!-- Keys -->
<g id="node18" class="node">
<title>Keys</title>
<g id="a_node18"><a xlink:href="../keys.html" xlink:title="Keys" target="_top">
<polygon fill="none" stroke="white" points="209.32,-406.56 175,-406.56 175,-387.24 209.32,-387.24 209.32,-406.56"/>
<text text-anchor="middle" x="192.16" y="-391.1" font-family="Sans-Serif" font-size="14.00">Keys</text>
</a>
</g>
</g>
<!-- Keys&#45;&gt;Formats -->
<g id="edge16" class="edge">
<title>Keys&#45;&gt;Formats</title>
<path fill="none" stroke="black" d="M198.43,-387.1C203.52,-379.96 210.86,-369.67 217.19,-360.78"/>
<polygon fill="black" stroke="black" points="219.92,-362.98 222.87,-352.81 214.22,-358.92 219.92,-362.98"/>
</g>
<!-- FilesFormat&#45;&gt;ExampleData -->
<g id="edge18" class="edge">
<title>FilesFormat&#45;&gt;ExampleData</title>
<path fill="none" stroke="black" d="M427.85,-165.82C426.1,-159.14 423.62,-149.7 421.39,-141.23"/>
<polygon fill="black" stroke="black" points="424.83,-140.54 418.91,-131.76 418.06,-142.32 424.83,-140.54"/>
</g>
</g>
</svg>
