<?xml version="1.0" encoding="UTF-8" standalone="no"?>
<!DOCTYPE svg PUBLIC "-//W3C//DTD SVG 1.1//EN"
 "http://www.w3.org/Graphics/SVG/1.1/DTD/svg11.dtd">
<!-- Generated by graphviz version 12.2.1 (20241206.2353)
 -->
<!-- Pages: 1 -->
<svg width="690pt" height="636pt"
 viewBox="0.00 0.00 690.32 635.84" xmlns="http://www.w3.org/2000/svg" xmlns:xlink="http://www.w3.org/1999/xlink">
<g id="graph0" class="graph" transform="scale(1 1) rotate(0) translate(4 631.84)">
<polygon fill="white" stroke="none" points="-4,4 -4,-631.84 686.32,-631.84 686.32,4 -4,4"/>
<!-- Copies -->
<g id="node1" class="node">
<title>Copies</title>
<g id="a_node1"><a xlink:href="../copies.html" xlink:title="Copies" target="_top">
<polygon fill="none" stroke="white" points="260.32,-185.28 214,-185.28 214,-165.96 260.32,-165.96 260.32,-185.28"/>
<text text-anchor="middle" x="237.16" y="-169.82" font-family="Sans-Serif" font-size="14.00">Copies</text>
</a>
</g>
</g>
<!-- Adapters -->
<g id="node6" class="node">
<title>Adapters</title>
<g id="a_node6"><a xlink:href="../adapters.html" xlink:title="Adapters" target="_top">
<polygon fill="none" stroke="white" points="318.32,-19.32 260,-19.32 260,0 318.32,0 318.32,-19.32"/>
<text text-anchor="middle" x="289.16" y="-3.86" font-family="Sans-Serif" font-size="14.00">Adapters</text>
</a>
</g>
</g>
<!-- Copies&#45;&gt;Adapters -->
<g id="edge2" class="edge">
<title>Copies&#45;&gt;Adapters</title>
<path fill="none" stroke="black" d="M239.96,-165.8C248.03,-140.34 271.54,-66.21 282.89,-30.43"/>
<polygon fill="black" stroke="black" points="286.21,-31.55 285.89,-20.96 279.53,-29.44 286.21,-31.55"/>
</g>
<!-- Concat -->
<g id="node32" class="node">
<title>Concat</title>
<g id="a_node32"><a xlink:href="../concat.html" xlink:title="Concat" target="_top">
<polygon fill="none" stroke="white" points="497.69,-129.96 450.62,-129.96 450.62,-110.64 497.69,-110.64 497.69,-129.96"/>
<text text-anchor="middle" x="474.16" y="-114.5" font-family="Sans-Serif" font-size="14.00">Concat</text>
</a>
</g>
</g>
<!-- Copies&#45;&gt;Concat -->
<g id="edge40" class="edge">
<title>Copies&#45;&gt;Concat</title>
<path fill="none" stroke="black" d="M260.54,-168.15C263.44,-167.39 266.36,-166.64 269.16,-165.96 328.58,-151.46 398.25,-136.76 439.16,-128.37"/>
<polygon fill="black" stroke="black" points="439.82,-131.81 448.91,-126.38 438.42,-124.95 439.82,-131.81"/>
</g>
<!-- Writers -->
<g id="node2" class="node">
<title>Writers</title>
<g id="a_node2"><a xlink:href="../writers.html" xlink:title="Writers" target="_top">
<polygon fill="none" stroke="white" points="403.69,-240.6 356.62,-240.6 356.62,-221.28 403.69,-221.28 403.69,-240.6"/>
<text text-anchor="middle" x="380.16" y="-225.14" font-family="Sans-Serif" font-size="14.00">Writers</text>
</a>
</g>
</g>
<!-- Writers&#45;&gt;Copies -->
<g id="edge1" class="edge">
<title>Writers&#45;&gt;Copies</title>
<path fill="none" stroke="black" d="M356.23,-221.02C332.99,-212.35 297.49,-199.11 271.29,-189.35"/>
<polygon fill="black" stroke="black" points="272.71,-186.14 262.12,-185.93 270.26,-192.7 272.71,-186.14"/>
</g>
<!-- MemoryFormat -->
<g id="node8" class="node">
<title>MemoryFormat</title>
<g id="a_node8"><a xlink:href="../memory_format.html" xlink:title="MemoryFormat" target="_top">
<polygon fill="none" stroke="white" points="190.19,-185.28 92.12,-185.28 92.12,-165.96 190.19,-165.96 190.19,-185.28"/>
<text text-anchor="middle" x="141.16" y="-169.82" font-family="Sans-Serif" font-size="14.00">MemoryFormat</text>
</a>
</g>
</g>
<!-- Writers&#45;&gt;MemoryFormat -->
<g id="edge22" class="edge">
<title>Writers&#45;&gt;MemoryFormat</title>
<path fill="none" stroke="black" d="M356.43,-223.37C353.65,-222.64 350.84,-221.93 348.16,-221.28 297.44,-208.95 239.3,-196.56 197.58,-187.97"/>
<polygon fill="black" stroke="black" points="198.52,-184.59 188.02,-186.01 197.12,-191.45 198.52,-184.59"/>
</g>
<!-- Chains -->
<g id="node9" class="node">
<title>Chains</title>
<g id="a_node9"><a xlink:href="../chains.html" xlink:title="Chains" target="_top">
<polygon fill="none" stroke="white" points="324.32,-185.28 278,-185.28 278,-165.96 324.32,-165.96 324.32,-185.28"/>
<text text-anchor="middle" x="301.16" y="-169.82" font-family="Sans-Serif" font-size="14.00">Chains</text>
</a>
</g>
</g>
<!-- Writers&#45;&gt;Chains -->
<g id="edge31" class="edge">
<title>Writers&#45;&gt;Chains</title>
<path fill="none" stroke="black" d="M366.76,-220.89C355.07,-213.01 337.86,-201.39 324,-192.04"/>
<polygon fill="black" stroke="black" points="326.13,-189.25 315.88,-186.56 322.21,-195.05 326.13,-189.25"/>
</g>
<!-- H5dfFormat -->
<g id="node27" class="node">
<title>H5dfFormat</title>
<g id="a_node27"><a xlink:href="../h5df_format.html" xlink:title="H5dfFormat" target="_top">
<polygon fill="none" stroke="white" points="418.32,-185.28 342,-185.28 342,-165.96 418.32,-165.96 418.32,-185.28"/>
<text text-anchor="middle" x="380.16" y="-169.82" font-family="Sans-Serif" font-size="14.00">H5dfFormat</text>
</a>
</g>
</g>
<!-- Writers&#45;&gt;H5dfFormat -->
<g id="edge26" class="edge">
<title>Writers&#45;&gt;H5dfFormat</title>
<path fill="none" stroke="black" d="M380.16,-221.14C380.16,-214.54 380.16,-205.24 380.16,-196.85"/>
<polygon fill="black" stroke="black" points="383.66,-197.13 380.16,-187.13 376.66,-197.13 383.66,-197.13"/>
</g>
<!-- FilesFormat -->
<g id="node30" class="node">
<title>FilesFormat</title>
<g id="a_node30"><a xlink:href="../files_format.html" xlink:title="FilesFormat" target="_top">
<polygon fill="none" stroke="white" points="512.32,-185.28 436,-185.28 436,-165.96 512.32,-165.96 512.32,-185.28"/>
<text text-anchor="middle" x="474.16" y="-169.82" font-family="Sans-Serif" font-size="14.00">FilesFormat</text>
</a>
</g>
</g>
<!-- Writers&#45;&gt;FilesFormat -->
<g id="edge34" class="edge">
<title>Writers&#45;&gt;FilesFormat</title>
<path fill="none" stroke="black" d="M396.11,-220.89C410.42,-212.78 431.69,-200.71 448.41,-191.22"/>
<polygon fill="black" stroke="black" points="449.85,-194.43 456.82,-186.46 446.39,-188.35 449.85,-194.43"/>
</g>
<!-- Reconstruction -->
<g id="node33" class="node">
<title>Reconstruction</title>
<g id="a_node33"><a xlink:href="../reconstruction.html" xlink:title="Reconstruction" target="_top">
<polygon fill="none" stroke="white" points="624.32,-185.28 530,-185.28 530,-165.96 624.32,-165.96 624.32,-185.28"/>
<text text-anchor="middle" x="577.16" y="-169.82" font-family="Sans-Serif" font-size="14.00">Reconstruction</text>
</a>
</g>
</g>
<!-- Writers&#45;&gt;Reconstruction -->
<g id="edge42" class="edge">
<title>Writers&#45;&gt;Reconstruction</title>
<path fill="none" stroke="black" d="M403.92,-223.51C435.66,-214.92 492.51,-199.53 532.4,-188.73"/>
<polygon fill="black" stroke="black" points="533.22,-192.14 541.96,-186.15 531.4,-185.38 533.22,-192.14"/>
</g>
<!-- GenericTypes -->
<g id="node3" class="node">
<title>GenericTypes</title>
<g id="a_node3"><a xlink:href="../generic_types.html" xlink:title="GenericTypes" target="_top">
<polygon fill="none" stroke="white" points="564.69,-572.52 475.62,-572.52 475.62,-553.2 564.69,-553.2 564.69,-572.52"/>
<text text-anchor="middle" x="520.16" y="-557.06" font-family="Sans-Serif" font-size="14.00">GenericTypes</text>
</a>
</g>
</g>
<!-- GenericLogging -->
<g id="node13" class="node">
<title>GenericLogging</title>
<g id="a_node13"><a xlink:href="../generic_logging.html" xlink:title="GenericLogging" target="_top">
<polygon fill="none" stroke="white" points="398.32,-517.2 298,-517.2 298,-497.88 398.32,-497.88 398.32,-517.2"/>
<text text-anchor="middle" x="348.16" y="-501.74" font-family="Sans-Serif" font-size="14.00">GenericLogging</text>
</a>
</g>
</g>
<!-- GenericTypes&#45;&gt;GenericLogging -->
<g id="edge9" class="edge">
<title>GenericTypes&#45;&gt;GenericLogging</title>
<path fill="none" stroke="black" d="M490.98,-552.81C462.69,-544.04 419.55,-530.67 388.08,-520.92"/>
<polygon fill="black" stroke="black" points="389.51,-517.7 378.93,-518.08 387.44,-524.38 389.51,-517.7"/>
</g>
<!-- GenericStorage -->
<g id="node26" class="node">
<title>GenericStorage</title>
<g id="a_node26"><a xlink:href="../generic_storage.html" xlink:title="GenericStorage" target="_top">
<polygon fill="none" stroke="white" points="644.94,-517.2 545.38,-517.2 545.38,-497.88 644.94,-497.88 644.94,-517.2"/>
<text text-anchor="middle" x="595.16" y="-501.74" font-family="Sans-Serif" font-size="14.00">GenericStorage</text>
</a>
</g>
</g>
<!-- GenericTypes&#45;&gt;GenericStorage -->
<g id="edge23" class="edge">
<title>GenericTypes&#45;&gt;GenericStorage</title>
<path fill="none" stroke="black" d="M532.88,-552.81C543.87,-545 560,-533.53 573.09,-524.23"/>
<polygon fill="black" stroke="black" points="575.02,-527.15 581.14,-518.51 570.96,-521.45 575.02,-527.15"/>
</g>
<!-- GenericFunctions -->
<g id="node4" class="node">
<title>GenericFunctions</title>
<g id="a_node4"><a xlink:href="../generic_functions.html" xlink:title="GenericFunctions" target="_top">
<polygon fill="none" stroke="white" points="527.57,-517.2 416.75,-517.2 416.75,-497.88 527.57,-497.88 527.57,-517.2"/>
<text text-anchor="middle" x="472.16" y="-501.74" font-family="Sans-Serif" font-size="14.00">GenericFunctions</text>
</a>
</g>
</g>
<!-- Tokens -->
<g id="node17" class="node">
<title>Tokens</title>
<g id="a_node17"><a xlink:href="../tokens.html" xlink:title="Tokens" target="_top">
<polygon fill="none" stroke="white" points="570.69,-406.56 523.62,-406.56 523.62,-387.24 570.69,-387.24 570.69,-406.56"/>
<text text-anchor="middle" x="547.16" y="-391.1" font-family="Sans-Serif" font-size="14.00">Tokens</text>
</a>
</g>
</g>
<!-- GenericFunctions&#45;&gt;Tokens -->
<g id="edge28" class="edge">
<title>GenericFunctions&#45;&gt;Tokens</title>
<path fill="none" stroke="black" d="M487.81,-497.45C500.16,-489.52 516.94,-476.95 527.16,-461.88 536.07,-448.74 541.16,-431.44 543.98,-418.14"/>
<polygon fill="black" stroke="black" points="547.41,-418.84 545.76,-408.37 540.52,-417.58 547.41,-418.84"/>
</g>
<!-- Registry -->
<g id="node18" class="node">
<title>Registry</title>
<g id="a_node18"><a xlink:href="../registry.html" xlink:title="Registry" target="_top">
<polygon fill="none" stroke="white" points="628.07,-461.88 574.25,-461.88 574.25,-442.56 628.07,-442.56 628.07,-461.88"/>
<text text-anchor="middle" x="601.16" y="-446.42" font-family="Sans-Serif" font-size="14.00">Registry</text>
</a>
</g>
</g>
<!-- GenericFunctions&#45;&gt;Registry -->
<g id="edge24" class="edge">
<title>GenericFunctions&#45;&gt;Registry</title>
<path fill="none" stroke="black" d="M494.04,-497.49C514.52,-489.03 545.37,-476.28 568.72,-466.63"/>
<polygon fill="black" stroke="black" points="569.87,-469.94 577.77,-462.89 567.19,-463.47 569.87,-469.94"/>
</g>
<!-- Documentation -->
<g id="node31" class="node">
<title>Documentation</title>
<g id="a_node31"><a xlink:href="../documentation.html" xlink:title="Documentation" target="_top">
<polygon fill="none" stroke="white" points="396.07,-461.88 300.25,-461.88 300.25,-442.56 396.07,-442.56 396.07,-461.88"/>
<text text-anchor="middle" x="348.16" y="-446.42" font-family="Sans-Serif" font-size="14.00">Documentation</text>
</a>
</g>
</g>
<!-- GenericFunctions&#45;&gt;Documentation -->
<g id="edge37" class="edge">
<title>GenericFunctions&#45;&gt;Documentation</title>
<path fill="none" stroke="black" d="M451.13,-497.49C431.53,-489.07 402.05,-476.39 379.65,-466.76"/>
<polygon fill="black" stroke="black" points="381.26,-463.64 370.69,-462.91 378.49,-470.07 381.26,-463.64"/>
</g>
<!-- GenericLocks -->
<g id="node5" class="node">
<title>GenericLocks</title>
<g id="a_node5"><a xlink:href="../generic_locks.html" xlink:title="GenericLocks" target="_top">
<polygon fill="none" stroke="white" points="398.94,-406.56 311.38,-406.56 311.38,-387.24 398.94,-387.24 398.94,-406.56"/>
<text text-anchor="middle" x="355.16" y="-391.1" font-family="Sans-Serif" font-size="14.00">GenericLocks</text>
</a>
</g>
</g>
<!-- Formats -->
<g id="node23" class="node">
<title>Formats</title>
<g id="a_node23"><a xlink:href="../formats.html" xlink:title="Formats" target="_top">
<polygon fill="none" stroke="white" points="469.44,-351.24 414.87,-351.24 414.87,-331.92 469.44,-331.92 469.44,-351.24"/>
<text text-anchor="middle" x="442.16" y="-335.78" font-family="Sans-Serif" font-size="14.00">Formats</text>
</a>
</g>
</g>
<!-- GenericLocks&#45;&gt;Formats -->
<g id="edge17" class="edge">
<title>GenericLocks&#45;&gt;Formats</title>
<path fill="none" stroke="black" d="M369.92,-386.85C383.04,-378.81 402.48,-366.9 417.89,-357.45"/>
<polygon fill="black" stroke="black" points="419.34,-360.67 426.04,-352.46 415.68,-354.7 419.34,-360.67"/>
</g>
<!-- Computations -->
<g id="node7" class="node">
<title>Computations</title>
<g id="a_node7"><a xlink:href="../computations.html" xlink:title="Computations" target="_top">
<polygon fill="none" stroke="white" points="450.32,-74.64 362,-74.64 362,-55.32 450.32,-55.32 450.32,-74.64"/>
<text text-anchor="middle" x="406.16" y="-59.18" font-family="Sans-Serif" font-size="14.00">Computations</text>
</a>
</g>
</g>
<!-- Computations&#45;&gt;Adapters -->
<g id="edge3" class="edge">
<title>Computations&#45;&gt;Adapters</title>
<path fill="none" stroke="black" d="M386.31,-54.93C367.99,-46.59 340.51,-34.06 319.45,-24.46"/>
<polygon fill="black" stroke="black" points="321.03,-21.34 310.48,-20.38 318.13,-27.71 321.03,-21.34"/>
</g>
<!-- MemoryFormat&#45;&gt;Adapters -->
<g id="edge4" class="edge">
<title>MemoryFormat&#45;&gt;Adapters</title>
<path fill="none" stroke="black" d="M139.77,-165.64C138.21,-152.59 137.09,-128.01 147.16,-110.64 171.52,-68.63 221.44,-39.9 255.11,-24.38"/>
<polygon fill="black" stroke="black" points="256.32,-27.67 264.04,-20.41 253.48,-21.27 256.32,-27.67"/>
</g>
<!-- ExampleData -->
<g id="node25" class="node">
<title>ExampleData</title>
<g id="a_node25"><a xlink:href="../example_data.html" xlink:title="ExampleData" target="_top">
<polygon fill="none" stroke="white" points="242.19,-129.96 156.12,-129.96 156.12,-110.64 242.19,-110.64 242.19,-129.96"/>
<text text-anchor="middle" x="199.16" y="-114.5" font-family="Sans-Serif" font-size="14.00">ExampleData</text>
</a>
</g>
</g>
<!-- MemoryFormat&#45;&gt;ExampleData -->
<g id="edge21" class="edge">
<title>MemoryFormat&#45;&gt;ExampleData</title>
<path fill="none" stroke="black" d="M151,-165.57C159.21,-158.02 171.14,-147.06 181.07,-137.93"/>
<polygon fill="black" stroke="black" points="183.36,-140.58 188.35,-131.24 178.62,-135.43 183.36,-140.58"/>
</g>
<!-- AnnDataFormat -->
<g id="node29" class="node">
<title>AnnDataFormat</title>
<g id="a_node29"><a xlink:href="../anndata_format.html" xlink:title="AnnDataFormat" target="_top">
<polygon fill="none" stroke="white" points="100.32,-129.96 0,-129.96 0,-110.64 100.32,-110.64 100.32,-129.96"/>
<text text-anchor="middle" x="50.16" y="-114.5" font-family="Sans-Serif" font-size="14.00">AnnDataFormat</text>
</a>
</g>
</g>
<!-- MemoryFormat&#45;&gt;AnnDataFormat -->
<g id="edge33" class="edge">
<title>MemoryFormat&#45;&gt;AnnDataFormat</title>
<path fill="none" stroke="black" d="M125.72,-165.57C112,-157.53 91.66,-145.62 75.54,-136.17"/>
<polygon fill="black" stroke="black" points="77.38,-133.19 66.98,-131.15 73.84,-139.23 77.38,-133.19"/>
</g>
<!-- Chains&#45;&gt;Adapters -->
<g id="edge5" class="edge">
<title>Chains&#45;&gt;Adapters</title>
<path fill="none" stroke="black" d="M300.51,-165.8C298.66,-140.45 293.27,-66.85 290.64,-30.9"/>
<polygon fill="black" stroke="black" points="294.14,-30.75 289.92,-21.03 287.16,-31.26 294.14,-30.75"/>
</g>
<!-- Views -->
<g id="node10" class="node">
<title>Views</title>
<g id="a_node10"><a xlink:href="../views.html" xlink:title="Views" target="_top">
<polygon fill="none" stroke="white" points="682.32,-185.28 642,-185.28 642,-165.96 682.32,-165.96 682.32,-185.28"/>
<text text-anchor="middle" x="662.16" y="-169.82" font-family="Sans-Serif" font-size="14.00">Views</text>
</a>
</g>
</g>
<!-- Contracts -->
<g id="node21" class="node">
<title>Contracts</title>
<g id="a_node21"><a xlink:href="../contracts.html" xlink:title="Contracts" target="_top">
<polygon fill="none" stroke="white" points="635.19,-129.96 573.12,-129.96 573.12,-110.64 635.19,-110.64 635.19,-129.96"/>
<text text-anchor="middle" x="604.16" y="-114.5" font-family="Sans-Serif" font-size="14.00">Contracts</text>
</a>
</g>
</g>
<!-- Views&#45;&gt;Contracts -->
<g id="edge15" class="edge">
<title>Views&#45;&gt;Contracts</title>
<path fill="none" stroke="black" d="M652.32,-165.57C644.11,-158.02 632.18,-147.06 622.25,-137.93"/>
<polygon fill="black" stroke="black" points="624.7,-135.43 614.97,-131.24 619.96,-140.58 624.7,-135.43"/>
</g>
<!-- Views&#45;&gt;Concat -->
<g id="edge39" class="edge">
<title>Views&#45;&gt;Concat</title>
<path fill="none" stroke="black" d="M641.58,-168.43C638.75,-167.59 635.89,-166.75 633.16,-165.96 590.6,-153.63 541.49,-139.91 509.24,-130.98"/>
<polygon fill="black" stroke="black" points="510.2,-127.61 499.63,-128.32 508.33,-134.36 510.2,-127.61"/>
</g>
<!-- ReadOnly -->
<g id="node11" class="node">
<title>ReadOnly</title>
<g id="a_node11"><a xlink:href="../read_only.html" xlink:title="ReadOnly" target="_top">
<polygon fill="none" stroke="white" points="486.69,-240.6 421.62,-240.6 421.62,-221.28 486.69,-221.28 486.69,-240.6"/>
<text text-anchor="middle" x="454.16" y="-225.14" font-family="Sans-Serif" font-size="14.00">ReadOnly</text>
</a>
</g>
</g>
<!-- ReadOnly&#45;&gt;Chains -->
<g id="edge32" class="edge">
<title>ReadOnly&#45;&gt;Chains</title>
<path fill="none" stroke="black" d="M428.21,-220.89C402.62,-211.98 363.37,-198.3 335.27,-188.51"/>
<polygon fill="black" stroke="black" points="336.75,-185.32 326.15,-185.33 334.45,-191.93 336.75,-185.32"/>
</g>
<!-- ReadOnly&#45;&gt;Views -->
<g id="edge6" class="edge">
<title>ReadOnly&#45;&gt;Views</title>
<path fill="none" stroke="black" d="M486.94,-222.24C520.75,-214.19 575.23,-200.93 630.84,-185.83"/>
<polygon fill="black" stroke="black" points="631.42,-189.3 640.14,-183.29 629.57,-182.55 631.42,-189.3"/>
</g>
<!-- ReadOnly&#45;&gt;H5dfFormat -->
<g id="edge27" class="edge">
<title>ReadOnly&#45;&gt;H5dfFormat</title>
<path fill="none" stroke="black" d="M441.61,-220.89C430.7,-213.03 414.66,-201.48 401.7,-192.14"/>
<polygon fill="black" stroke="black" points="403.92,-189.42 393.76,-186.42 399.82,-195.1 403.92,-189.42"/>
</g>
<!-- ReadOnly&#45;&gt;FilesFormat -->
<g id="edge35" class="edge">
<title>ReadOnly&#45;&gt;FilesFormat</title>
<path fill="none" stroke="black" d="M457.46,-221.14C459.99,-214.38 463.59,-204.81 466.79,-196.26"/>
<polygon fill="black" stroke="black" points="470.02,-197.63 470.25,-187.03 463.46,-195.17 470.02,-197.63"/>
</g>
<!-- Queries -->
<g id="node12" class="node">
<title>Queries</title>
<g id="a_node12"><a xlink:href="../queries.html" xlink:title="Queries" target="_top">
<polygon fill="none" stroke="white" points="601.32,-240.6 549,-240.6 549,-221.28 601.32,-221.28 601.32,-240.6"/>
<text text-anchor="middle" x="575.16" y="-225.14" font-family="Sans-Serif" font-size="14.00">Queries</text>
</a>
</g>
</g>
<!-- Queries&#45;&gt;Views -->
<g id="edge7" class="edge">
<title>Queries&#45;&gt;Views</title>
<path fill="none" stroke="black" d="M589.92,-220.89C603.04,-212.85 622.48,-200.94 637.89,-191.49"/>
<polygon fill="black" stroke="black" points="639.34,-194.71 646.04,-186.5 635.68,-188.74 639.34,-194.71"/>
</g>
<!-- Queries&#45;&gt;Reconstruction -->
<g id="edge43" class="edge">
<title>Queries&#45;&gt;Reconstruction</title>
<path fill="none" stroke="black" d="M575.49,-221.14C575.74,-214.54 576.09,-205.24 576.4,-196.85"/>
<polygon fill="black" stroke="black" points="579.89,-197.25 576.77,-187.13 572.89,-196.99 579.89,-197.25"/>
</g>
<!-- GenericLogging&#45;&gt;Documentation -->
<g id="edge38" class="edge">
<title>GenericLogging&#45;&gt;Documentation</title>
<path fill="none" stroke="black" d="M348.16,-497.74C348.16,-491.14 348.16,-481.84 348.16,-473.45"/>
<polygon fill="black" stroke="black" points="351.66,-473.73 348.16,-463.73 344.66,-473.73 351.66,-473.73"/>
</g>
<!-- Messages -->
<g id="node14" class="node">
<title>Messages</title>
<g id="a_node14"><a xlink:href="../messages.html" xlink:title="Messages" target="_top">
<polygon fill="none" stroke="white" points="419.44,-572.52 352.88,-572.52 352.88,-553.2 419.44,-553.2 419.44,-572.52"/>
<text text-anchor="middle" x="386.16" y="-557.06" font-family="Sans-Serif" font-size="14.00">Messages</text>
</a>
</g>
</g>
<!-- Messages&#45;&gt;GenericLogging -->
<g id="edge8" class="edge">
<title>Messages&#45;&gt;GenericLogging</title>
<path fill="none" stroke="black" d="M379.89,-553.06C374.8,-545.92 367.46,-535.63 361.13,-526.74"/>
<polygon fill="black" stroke="black" points="364.1,-524.88 355.45,-518.77 358.4,-528.94 364.1,-524.88"/>
</g>
<!-- ReadOnlyArrays -->
<g id="node15" class="node">
<title>ReadOnlyArrays</title>
<g id="a_node15"><a xlink:href="../read_only_arrays.html" xlink:title="ReadOnlyArrays" target="_top">
<polygon fill="none" stroke="white" points="518.19,-461.88 414.12,-461.88 414.12,-442.56 518.19,-442.56 518.19,-461.88"/>
<text text-anchor="middle" x="466.16" y="-446.42" font-family="Sans-Serif" font-size="14.00">ReadOnlyArrays</text>
</a>
</g>
</g>
<!-- MatrixLayouts -->
<g id="node19" class="node">
<title>MatrixLayouts</title>
<g id="a_node19"><a xlink:href="../matrix_layouts.html" xlink:title="MatrixLayouts" target="_top">
<polygon fill="none" stroke="white" points="505.69,-406.56 416.62,-406.56 416.62,-387.24 505.69,-387.24 505.69,-406.56"/>
<text text-anchor="middle" x="461.16" y="-391.1" font-family="Sans-Serif" font-size="14.00">MatrixLayouts</text>
</a>
</g>
</g>
<!-- ReadOnlyArrays&#45;&gt;MatrixLayouts -->
<g id="edge44" class="edge">
<title>ReadOnlyArrays&#45;&gt;MatrixLayouts</title>
<path fill="none" stroke="black" d="M465.33,-442.42C464.72,-435.82 463.84,-426.52 463.06,-418.13"/>
<polygon fill="black" stroke="black" points="466.56,-418.03 462.14,-408.4 459.59,-418.69 466.56,-418.03"/>
</g>
<!-- Operations -->
<g id="node16" class="node">
<title>Operations</title>
<g id="a_node16"><a xlink:href="../operations.html" xlink:title="Operations" target="_top">
<polygon fill="none" stroke="white" points="582.69,-351.24 511.62,-351.24 511.62,-331.92 582.69,-331.92 582.69,-351.24"/>
<text text-anchor="middle" x="547.16" y="-335.78" font-family="Sans-Serif" font-size="14.00">Operations</text>
</a>
</g>
</g>
<!-- Operations&#45;&gt;Queries -->
<g id="edge13" class="edge">
<title>Operations&#45;&gt;Queries</title>
<path fill="none" stroke="black" d="M549.45,-331.69C553.92,-314.34 563.91,-275.6 570.03,-251.83"/>
<polygon fill="black" stroke="black" points="573.35,-252.98 572.46,-242.42 566.57,-251.23 573.35,-252.98"/>
</g>
<!-- Operations&#45;&gt;FilesFormat -->
<g id="edge36" class="edge">
<title>Operations&#45;&gt;FilesFormat</title>
<path fill="none" stroke="black" d="M543.49,-331.53C535.31,-311.51 514.88,-262.01 496.16,-221.28 492.23,-212.74 487.67,-203.4 483.73,-195.47"/>
<polygon fill="black" stroke="black" points="486.99,-194.16 479.36,-186.8 480.73,-197.31 486.99,-194.16"/>
</g>
<!-- Tokens&#45;&gt;Operations -->
<g id="edge10" class="edge">
<title>Tokens&#45;&gt;Operations</title>
<path fill="none" stroke="black" d="M547.16,-387.1C547.16,-380.5 547.16,-371.2 547.16,-362.81"/>
<polygon fill="black" stroke="black" points="550.66,-363.09 547.16,-353.09 543.66,-363.09 550.66,-363.09"/>
</g>
<!-- Tokens&#45;&gt;Formats -->
<g id="edge18" class="edge">
<title>Tokens&#45;&gt;Formats</title>
<path fill="none" stroke="black" d="M529.35,-386.85C513.13,-378.62 488.92,-366.33 470.13,-356.78"/>
<polygon fill="black" stroke="black" points="471.91,-353.76 461.41,-352.35 468.74,-360 471.91,-353.76"/>
</g>
<!-- Registry&#45;&gt;Operations -->
<g id="edge11" class="edge">
<title>Registry&#45;&gt;Operations</title>
<path fill="none" stroke="black" d="M599.16,-442.17C596.13,-429.44 589.71,-405.73 580.16,-387.24 575.31,-377.84 568.55,-368.3 562.42,-360.46"/>
<polygon fill="black" stroke="black" points="565.17,-358.29 556.13,-352.76 559.74,-362.72 565.17,-358.29"/>
</g>
<!-- MatrixLayouts&#45;&gt;Operations -->
<g id="edge12" class="edge">
<title>MatrixLayouts&#45;&gt;Operations</title>
<path fill="none" stroke="black" d="M475.75,-386.85C488.6,-378.89 507.57,-367.12 522.73,-357.72"/>
<polygon fill="black" stroke="black" points="524.56,-360.71 531.21,-352.47 520.87,-354.76 524.56,-360.71"/>
</g>
<!-- MatrixLayouts&#45;&gt;Formats -->
<g id="edge20" class="edge">
<title>MatrixLayouts&#45;&gt;Formats</title>
<path fill="none" stroke="black" d="M458.02,-387.1C455.62,-380.34 452.2,-370.77 449.16,-362.22"/>
<polygon fill="black" stroke="black" points="452.53,-361.25 445.87,-353 445.93,-363.6 452.53,-361.25"/>
</g>
<!-- Readers -->
<g id="node20" class="node">
<title>Readers</title>
<g id="a_node20"><a xlink:href="../readers.html" xlink:title="Readers" target="_top">
<polygon fill="none" stroke="white" points="469.82,-295.92 414.5,-295.92 414.5,-276.6 469.82,-276.6 469.82,-295.92"/>
<text text-anchor="middle" x="442.16" y="-280.46" font-family="Sans-Serif" font-size="14.00">Readers</text>
</a>
</g>
</g>
<!-- Readers&#45;&gt;Writers -->
<g id="edge30" class="edge">
<title>Readers&#45;&gt;Writers</title>
<path fill="none" stroke="black" d="M431.64,-276.21C422.77,-268.59 409.85,-257.47 399.17,-248.29"/>
<polygon fill="black" stroke="black" points="401.53,-245.71 391.67,-241.84 396.97,-251.01 401.53,-245.71"/>
</g>
<!-- Readers&#45;&gt;ReadOnly -->
<g id="edge46" class="edge">
<title>Readers&#45;&gt;ReadOnly</title>
<path fill="none" stroke="black" d="M444.14,-276.46C445.63,-269.86 447.72,-260.56 449.61,-252.17"/>
<polygon fill="black" stroke="black" points="453.02,-252.94 451.8,-242.41 446.19,-251.4 453.02,-252.94"/>
</g>
<!-- Readers&#45;&gt;Queries -->
<g id="edge14" class="edge">
<title>Readers&#45;&gt;Queries</title>
<path fill="none" stroke="black" d="M464.72,-276.21C485.93,-267.71 517.93,-254.88 542.04,-245.22"/>
<polygon fill="black" stroke="black" points="543.1,-248.56 551.08,-241.59 540.5,-242.07 543.1,-248.56"/>
</g>
<!-- Groups -->
<g id="node28" class="node">
<title>Groups</title>
<g id="a_node28"><a xlink:href="../groups.html" xlink:title="Groups" target="_top">
<polygon fill="none" stroke="white" points="338.82,-240.6 289.5,-240.6 289.5,-221.28 338.82,-221.28 338.82,-240.6"/>
<text text-anchor="middle" x="314.16" y="-225.14" font-family="Sans-Serif" font-size="14.00">Groups</text>
</a>
</g>
</g>
<!-- Readers&#45;&gt;Groups -->
<g id="edge29" class="edge">
<title>Readers&#45;&gt;Groups</title>
<path fill="none" stroke="black" d="M420.45,-276.21C400.13,-267.75 369.51,-255 346.35,-245.35"/>
<polygon fill="black" stroke="black" points="347.95,-242.23 337.38,-241.61 345.26,-248.69 347.95,-242.23"/>
</g>
<!-- Contracts&#45;&gt;Computations -->
<g id="edge41" class="edge">
<title>Contracts&#45;&gt;Computations</title>
<path fill="none" stroke="black" d="M572.79,-110.85C539.98,-102.02 488.19,-88.07 451.06,-78.07"/>
<polygon fill="black" stroke="black" points="452.07,-74.72 441.5,-75.5 450.25,-81.48 452.07,-74.72"/>
</g>
<!-- StorageTypes -->
<g id="node22" class="node">
<title>StorageTypes</title>
<g id="a_node22"><a xlink:href="../storage_types.html" xlink:title="StorageTypes" target="_top">
<polygon fill="none" stroke="white" points="554.32,-627.84 466,-627.84 466,-608.52 554.32,-608.52 554.32,-627.84"/>
<text text-anchor="middle" x="510.16" y="-612.38" font-family="Sans-Serif" font-size="14.00">StorageTypes</text>
</a>
</g>
</g>
<!-- StorageTypes&#45;&gt;Messages -->
<g id="edge16" class="edge">
<title>StorageTypes&#45;&gt;Messages</title>
<path fill="none" stroke="black" d="M489.13,-608.13C469.53,-599.71 440.05,-587.03 417.65,-577.4"/>
<polygon fill="black" stroke="black" points="419.26,-574.28 408.69,-573.55 416.49,-580.71 419.26,-574.28"/>
</g>
<!-- StorageTypes&#45;&gt;Registry -->
<g id="edge25" class="edge">
<title>StorageTypes&#45;&gt;Registry</title>
<path fill="none" stroke="black" d="M535.7,-608.13C569.91,-594.46 629.19,-564.93 654.16,-517.2 663.86,-498.65 645.53,-480.57 627.83,-468.39"/>
<polygon fill="black" stroke="black" points="629.83,-465.52 619.52,-463.08 626.06,-471.41 629.83,-465.52"/>
</g>
<!-- Formats&#45;&gt;Readers -->
<g id="edge47" class="edge">
<title>Formats&#45;&gt;Readers</title>
<path fill="none" stroke="black" d="M442.16,-331.78C442.16,-325.18 442.16,-315.88 442.16,-307.49"/>
<polygon fill="black" stroke="black" points="445.66,-307.77 442.16,-297.77 438.66,-307.77 445.66,-307.77"/>
</g>
<!-- Keys -->
<g id="node24" class="node">
<title>Keys</title>
<g id="a_node24"><a xlink:href="../keys.html" xlink:title="Keys" target="_top">
<polygon fill="none" stroke="white" points="293.32,-406.56 259,-406.56 259,-387.24 293.32,-387.24 293.32,-406.56"/>
<text text-anchor="middle" x="276.16" y="-391.1" font-family="Sans-Serif" font-size="14.00">Keys</text>
</a>
</g>
</g>
<!-- Keys&#45;&gt;Formats -->
<g id="edge19" class="edge">
<title>Keys&#45;&gt;Formats</title>
<path fill="none" stroke="black" d="M293.77,-390C296.58,-389.07 299.45,-388.12 302.16,-387.24 336.38,-376.08 375.39,-363.66 403.53,-354.76"/>
<polygon fill="black" stroke="black" points="404.58,-358.1 413.06,-351.75 402.47,-351.42 404.58,-358.1"/>
</g>
<!-- Documentation&#45;&gt;MatrixLayouts -->
<g id="edge45" class="edge">
<title>Documentation&#45;&gt;MatrixLayouts</title>
<path fill="none" stroke="black" d="M367.33,-442.17C384.94,-433.86 411.32,-421.42 431.62,-411.84"/>
<polygon fill="black" stroke="black" points="432.98,-415.07 440.53,-407.64 429.99,-408.74 432.98,-415.07"/>
</g>
</g>
</svg>
