<?xml version="1.0" encoding="UTF-8" standalone="no"?>
<!DOCTYPE svg PUBLIC "-//W3C//DTD SVG 1.1//EN"
 "http://www.w3.org/Graphics/SVG/1.1/DTD/svg11.dtd">
<!-- Generated by graphviz version 12.2.1 (20241206.2353)
 -->
<!-- Pages: 1 -->
<svg width="647pt" height="415pt"
 viewBox="0.00 0.00 647.32 414.56" xmlns="http://www.w3.org/2000/svg" xmlns:xlink="http://www.w3.org/1999/xlink">
<g id="graph0" class="graph" transform="scale(1 1) rotate(0) translate(4 410.56)">
<polygon fill="white" stroke="none" points="-4,4 -4,-410.56 643.32,-410.56 643.32,4 -4,4"/>
<!-- Copies -->
<g id="node1" class="node">
<title>Copies</title>
<g id="a_node1"><a xlink:href="../copies.html" xlink:title="Copies" target="_top">
<polygon fill="none" stroke="white" points="423.32,-185.28 377,-185.28 377,-165.96 423.32,-165.96 423.32,-185.28"/>
<text text-anchor="middle" x="400.16" y="-169.82" font-family="Sans-Serif" font-size="14.00">Copies</text>
</a>
</g>
</g>
<!-- Adapters -->
<g id="node3" class="node">
<title>Adapters</title>
<g id="a_node3"><a xlink:href="../adapters.html" xlink:title="Adapters" target="_top">
<polygon fill="none" stroke="white" points="481.32,-19.32 423,-19.32 423,0 481.32,0 481.32,-19.32"/>
<text text-anchor="middle" x="452.16" y="-3.86" font-family="Sans-Serif" font-size="14.00">Adapters</text>
</a>
</g>
</g>
<!-- Copies&#45;&gt;Adapters -->
<g id="edge3" class="edge">
<title>Copies&#45;&gt;Adapters</title>
<path fill="none" stroke="black" d="M401.88,-165.84C404.39,-153.43 409.38,-130.11 415.16,-110.64 422.6,-85.58 426.06,-79.83 435.16,-55.32 438.23,-47.06 441.68,-37.96 444.66,-30.14"/>
<polygon fill="black" stroke="black" points="447.87,-31.54 448.19,-20.95 441.34,-29.04 447.87,-31.54"/>
</g>
<!-- Concat -->
<g id="node24" class="node">
<title>Concat</title>
<g id="a_node24"><a xlink:href="../concat.html" xlink:title="Concat" target="_top">
<polygon fill="none" stroke="white" points="471.69,-129.96 424.62,-129.96 424.62,-110.64 471.69,-110.64 471.69,-129.96"/>
<text text-anchor="middle" x="448.16" y="-114.5" font-family="Sans-Serif" font-size="14.00">Concat</text>
</a>
</g>
</g>
<!-- Copies&#45;&gt;Concat -->
<g id="edge31" class="edge">
<title>Copies&#45;&gt;Concat</title>
<path fill="none" stroke="black" d="M408.09,-165.82C414.72,-158.45 424.38,-147.72 432.55,-138.64"/>
<polygon fill="black" stroke="black" points="434.96,-141.19 439.05,-131.42 429.76,-136.51 434.96,-141.19"/>
</g>
<!-- Writers -->
<g id="node2" class="node">
<title>Writers</title>
<g id="a_node2"><a xlink:href="../writers.html" xlink:title="Writers" target="_top">
<polygon fill="none" stroke="white" points="404.69,-240.6 357.62,-240.6 357.62,-221.28 404.69,-221.28 404.69,-240.6"/>
<text text-anchor="middle" x="381.16" y="-225.14" font-family="Sans-Serif" font-size="14.00">Writers</text>
</a>
</g>
</g>
<!-- Writers&#45;&gt;Copies -->
<g id="edge1" class="edge">
<title>Writers&#45;&gt;Copies</title>
<path fill="none" stroke="black" d="M384.3,-221.14C386.7,-214.38 390.12,-204.81 393.16,-196.26"/>
<polygon fill="black" stroke="black" points="396.39,-197.64 396.45,-187.04 389.79,-195.29 396.39,-197.64"/>
</g>
<!-- Chains -->
<g id="node4" class="node">
<title>Chains</title>
<g id="a_node4"><a xlink:href="../chains.html" xlink:title="Chains" target="_top">
<polygon fill="none" stroke="white" points="545.32,-185.28 499,-185.28 499,-165.96 545.32,-165.96 545.32,-185.28"/>
<text text-anchor="middle" x="522.16" y="-169.82" font-family="Sans-Serif" font-size="14.00">Chains</text>
</a>
</g>
</g>
<!-- Writers&#45;&gt;Chains -->
<g id="edge26" class="edge">
<title>Writers&#45;&gt;Chains</title>
<path fill="none" stroke="black" d="M405.08,-220.89C427.8,-212.3 462.21,-199.29 487.85,-189.59"/>
<polygon fill="black" stroke="black" points="489.06,-192.88 497.18,-186.07 486.59,-186.33 489.06,-192.88"/>
</g>
<!-- MemoryFormat -->
<g id="node6" class="node">
<title>MemoryFormat</title>
<g id="a_node6"><a xlink:href="../memory_format.html" xlink:title="MemoryFormat" target="_top">
<polygon fill="none" stroke="white" points="265.19,-185.28 167.12,-185.28 167.12,-165.96 265.19,-165.96 265.19,-185.28"/>
<text text-anchor="middle" x="216.16" y="-169.82" font-family="Sans-Serif" font-size="14.00">MemoryFormat</text>
</a>
</g>
</g>
<!-- Writers&#45;&gt;MemoryFormat -->
<g id="edge19" class="edge">
<title>Writers&#45;&gt;MemoryFormat</title>
<path fill="none" stroke="black" d="M357.17,-222.19C330.38,-213.53 286.65,-199.4 254.98,-189.16"/>
<polygon fill="black" stroke="black" points="256.36,-185.93 245.77,-186.19 254.21,-192.59 256.36,-185.93"/>
</g>
<!-- FilesFormat -->
<g id="node20" class="node">
<title>FilesFormat</title>
<g id="a_node20"><a xlink:href="../files_format.html" xlink:title="FilesFormat" target="_top">
<polygon fill="none" stroke="white" points="359.32,-185.28 283,-185.28 283,-165.96 359.32,-165.96 359.32,-185.28"/>
<text text-anchor="middle" x="321.16" y="-169.82" font-family="Sans-Serif" font-size="14.00">FilesFormat</text>
</a>
</g>
</g>
<!-- Writers&#45;&gt;FilesFormat -->
<g id="edge30" class="edge">
<title>Writers&#45;&gt;FilesFormat</title>
<path fill="none" stroke="black" d="M370.98,-220.89C362.4,-213.27 349.89,-202.15 339.56,-192.97"/>
<polygon fill="black" stroke="black" points="342.12,-190.56 332.32,-186.54 337.47,-195.8 342.12,-190.56"/>
</g>
<!-- H5dfFormat -->
<g id="node21" class="node">
<title>H5dfFormat</title>
<g id="a_node21"><a xlink:href="../h5df_format.html" xlink:title="H5dfFormat" target="_top">
<polygon fill="none" stroke="white" points="639.32,-185.28 563,-185.28 563,-165.96 639.32,-165.96 639.32,-185.28"/>
<text text-anchor="middle" x="601.16" y="-169.82" font-family="Sans-Serif" font-size="14.00">H5dfFormat</text>
</a>
</g>
</g>
<!-- Writers&#45;&gt;H5dfFormat -->
<g id="edge22" class="edge">
<title>Writers&#45;&gt;H5dfFormat</title>
<path fill="none" stroke="black" d="M404.9,-223.43C407.68,-222.69 410.48,-221.96 413.16,-221.28 460.07,-209.36 513.81,-196.7 551.78,-187.91"/>
<polygon fill="black" stroke="black" points="552.12,-191.42 561.07,-185.76 550.54,-184.6 552.12,-191.42"/>
</g>
<!-- Reconstruction -->
<g id="node25" class="node">
<title>Reconstruction</title>
<g id="a_node25"><a xlink:href="../reconstruction.html" xlink:title="Reconstruction" target="_top">
<polygon fill="none" stroke="white" points="149.32,-185.28 55,-185.28 55,-165.96 149.32,-165.96 149.32,-185.28"/>
<text text-anchor="middle" x="102.16" y="-169.82" font-family="Sans-Serif" font-size="14.00">Reconstruction</text>
</a>
</g>
</g>
<!-- Writers&#45;&gt;Reconstruction -->
<g id="edge35" class="edge">
<title>Writers&#45;&gt;Reconstruction</title>
<path fill="none" stroke="black" d="M357.42,-223.48C354.31,-222.7 351.17,-221.95 348.16,-221.28 284.47,-207.16 210.77,-194.23 160.77,-185.95"/>
<polygon fill="black" stroke="black" points="161.47,-182.52 151.03,-184.35 160.33,-189.43 161.47,-182.52"/>
</g>
<!-- Chains&#45;&gt;Adapters -->
<g id="edge2" class="edge">
<title>Chains&#45;&gt;Adapters</title>
<path fill="none" stroke="black" d="M533.52,-165.75C542.95,-157.61 555.66,-144.61 561.16,-129.96 573.22,-97.8 563.97,-81 541.16,-55.32 528.13,-40.66 509.17,-30.22 492.1,-23.14"/>
<polygon fill="black" stroke="black" points="493.78,-20.04 483.19,-19.71 491.26,-26.57 493.78,-20.04"/>
</g>
<!-- Computations -->
<g id="node5" class="node">
<title>Computations</title>
<g id="a_node5"><a xlink:href="../computations.html" xlink:title="Computations" target="_top">
<polygon fill="none" stroke="white" points="532.32,-74.64 444,-74.64 444,-55.32 532.32,-55.32 532.32,-74.64"/>
<text text-anchor="middle" x="488.16" y="-59.18" font-family="Sans-Serif" font-size="14.00">Computations</text>
</a>
</g>
</g>
<!-- Computations&#45;&gt;Adapters -->
<g id="edge4" class="edge">
<title>Computations&#45;&gt;Adapters</title>
<path fill="none" stroke="black" d="M482.22,-55.18C477.45,-48.12 470.6,-37.97 464.64,-29.14"/>
<polygon fill="black" stroke="black" points="467.58,-27.24 459.08,-20.91 461.78,-31.16 467.58,-27.24"/>
</g>
<!-- MemoryFormat&#45;&gt;Adapters -->
<g id="edge5" class="edge">
<title>MemoryFormat&#45;&gt;Adapters</title>
<path fill="none" stroke="black" d="M192.97,-165.63C167.06,-154.21 130.77,-133.26 147.16,-110.64 208.38,-26.14 343.23,-11.77 411.24,-10.14"/>
<polygon fill="black" stroke="black" points="411.27,-13.64 421.22,-9.99 411.17,-6.64 411.27,-13.64"/>
</g>
<!-- OldExampleData -->
<g id="node14" class="node">
<title>OldExampleData</title>
<g id="a_node14"><a xlink:href="../old_example_data.html" xlink:title="OldExampleData" target="_top">
<polygon fill="none" stroke="white" points="264.07,-129.96 156.25,-129.96 156.25,-110.64 264.07,-110.64 264.07,-129.96"/>
<text text-anchor="middle" x="210.16" y="-114.5" font-family="Sans-Serif" font-size="14.00">OldExampleData</text>
</a>
</g>
</g>
<!-- MemoryFormat&#45;&gt;OldExampleData -->
<g id="edge12" class="edge">
<title>MemoryFormat&#45;&gt;OldExampleData</title>
<path fill="none" stroke="black" d="M215.17,-165.82C214.43,-159.22 213.38,-149.92 212.44,-141.53"/>
<polygon fill="black" stroke="black" points="215.94,-141.35 211.34,-131.8 208.98,-142.13 215.94,-141.35"/>
</g>
<!-- ExampleData -->
<g id="node19" class="node">
<title>ExampleData</title>
<g id="a_node19"><a xlink:href="../example_data.html" xlink:title="ExampleData" target="_top">
<polygon fill="none" stroke="white" points="368.19,-129.96 282.12,-129.96 282.12,-110.64 368.19,-110.64 368.19,-129.96"/>
<text text-anchor="middle" x="325.16" y="-114.5" font-family="Sans-Serif" font-size="14.00">ExampleData</text>
</a>
</g>
</g>
<!-- MemoryFormat&#45;&gt;ExampleData -->
<g id="edge18" class="edge">
<title>MemoryFormat&#45;&gt;ExampleData</title>
<path fill="none" stroke="black" d="M234.65,-165.57C251.56,-157.3 276.85,-144.93 296.4,-135.37"/>
<polygon fill="black" stroke="black" points="297.77,-138.59 305.22,-131.05 294.7,-132.3 297.77,-138.59"/>
</g>
<!-- AnnDataFormat -->
<g id="node23" class="node">
<title>AnnDataFormat</title>
<g id="a_node23"><a xlink:href="../anndata_format.html" xlink:title="AnnDataFormat" target="_top">
<polygon fill="none" stroke="white" points="100.32,-129.96 0,-129.96 0,-110.64 100.32,-110.64 100.32,-129.96"/>
<text text-anchor="middle" x="50.16" y="-114.5" font-family="Sans-Serif" font-size="14.00">AnnDataFormat</text>
</a>
</g>
</g>
<!-- MemoryFormat&#45;&gt;AnnDataFormat -->
<g id="edge27" class="edge">
<title>MemoryFormat&#45;&gt;AnnDataFormat</title>
<path fill="none" stroke="black" d="M188,-165.57C160.81,-156.84 119.42,-143.55 89.09,-133.8"/>
<polygon fill="black" stroke="black" points="90.49,-130.58 79.9,-130.85 88.35,-137.24 90.49,-130.58"/>
</g>
<!-- Views -->
<g id="node7" class="node">
<title>Views</title>
<g id="a_node7"><a xlink:href="../views.html" xlink:title="Views" target="_top">
<polygon fill="none" stroke="white" points="481.32,-185.28 441,-185.28 441,-165.96 481.32,-165.96 481.32,-185.28"/>
<text text-anchor="middle" x="461.16" y="-169.82" font-family="Sans-Serif" font-size="14.00">Views</text>
</a>
</g>
</g>
<!-- Contracts -->
<g id="node15" class="node">
<title>Contracts</title>
<g id="a_node15"><a xlink:href="../contracts.html" xlink:title="Contracts" target="_top">
<polygon fill="none" stroke="white" points="552.19,-129.96 490.12,-129.96 490.12,-110.64 552.19,-110.64 552.19,-129.96"/>
<text text-anchor="middle" x="521.16" y="-114.5" font-family="Sans-Serif" font-size="14.00">Contracts</text>
</a>
</g>
</g>
<!-- Views&#45;&gt;Contracts -->
<g id="edge13" class="edge">
<title>Views&#45;&gt;Contracts</title>
<path fill="none" stroke="black" d="M471.34,-165.57C479.92,-157.95 492.43,-146.83 502.76,-137.65"/>
<polygon fill="black" stroke="black" points="504.85,-140.48 510,-131.22 500.2,-135.24 504.85,-140.48"/>
</g>
<!-- Views&#45;&gt;Concat -->
<g id="edge32" class="edge">
<title>Views&#45;&gt;Concat</title>
<path fill="none" stroke="black" d="M459.01,-165.82C457.39,-159.14 455.08,-149.7 453.02,-141.23"/>
<polygon fill="black" stroke="black" points="456.48,-140.65 450.71,-131.77 449.68,-142.31 456.48,-140.65"/>
</g>
<!-- ReadOnly -->
<g id="node8" class="node">
<title>ReadOnly</title>
<g id="a_node8"><a xlink:href="../read_only.html" xlink:title="ReadOnly" target="_top">
<polygon fill="none" stroke="white" points="554.69,-240.6 489.62,-240.6 489.62,-221.28 554.69,-221.28 554.69,-240.6"/>
<text text-anchor="middle" x="522.16" y="-225.14" font-family="Sans-Serif" font-size="14.00">ReadOnly</text>
</a>
</g>
</g>
<!-- ReadOnly&#45;&gt;Chains -->
<g id="edge25" class="edge">
<title>ReadOnly&#45;&gt;Chains</title>
<path fill="none" stroke="black" d="M522.16,-221.14C522.16,-214.54 522.16,-205.24 522.16,-196.85"/>
<polygon fill="black" stroke="black" points="525.66,-197.13 522.16,-187.13 518.66,-197.13 525.66,-197.13"/>
</g>
<!-- ReadOnly&#45;&gt;Views -->
<g id="edge6" class="edge">
<title>ReadOnly&#45;&gt;Views</title>
<path fill="none" stroke="black" d="M511.81,-220.89C503.08,-213.27 490.37,-202.15 479.86,-192.97"/>
<polygon fill="black" stroke="black" points="482.33,-190.47 472.49,-186.53 477.72,-195.74 482.33,-190.47"/>
</g>
<!-- ReadOnly&#45;&gt;FilesFormat -->
<g id="edge28" class="edge">
<title>ReadOnly&#45;&gt;FilesFormat</title>
<path fill="none" stroke="black" d="M489.42,-221.25C456.05,-212.4 404.03,-198.6 366.66,-188.69"/>
<polygon fill="black" stroke="black" points="367.6,-185.32 357.03,-186.14 365.8,-192.08 367.6,-185.32"/>
</g>
<!-- ReadOnly&#45;&gt;H5dfFormat -->
<g id="edge21" class="edge">
<title>ReadOnly&#45;&gt;H5dfFormat</title>
<path fill="none" stroke="black" d="M535.56,-220.89C547.25,-213.01 564.46,-201.39 578.32,-192.04"/>
<polygon fill="black" stroke="black" points="580.11,-195.05 586.44,-186.56 576.19,-189.25 580.11,-195.05"/>
</g>
<!-- Queries -->
<g id="node9" class="node">
<title>Queries</title>
<g id="a_node9"><a xlink:href="../queries.html" xlink:title="Queries" target="_top">
<polygon fill="none" stroke="white" points="339.32,-240.6 287,-240.6 287,-221.28 339.32,-221.28 339.32,-240.6"/>
<text text-anchor="middle" x="313.16" y="-225.14" font-family="Sans-Serif" font-size="14.00">Queries</text>
</a>
</g>
</g>
<!-- Queries&#45;&gt;Views -->
<g id="edge7" class="edge">
<title>Queries&#45;&gt;Views</title>
<path fill="none" stroke="black" d="M338.27,-220.89C363.64,-211.76 402.88,-197.62 430.17,-187.78"/>
<polygon fill="black" stroke="black" points="431.06,-191.18 439.28,-184.5 428.69,-184.6 431.06,-191.18"/>
</g>
<!-- Queries&#45;&gt;Reconstruction -->
<g id="edge34" class="edge">
<title>Queries&#45;&gt;Reconstruction</title>
<path fill="none" stroke="black" d="M286.86,-223.29C252.49,-214.61 191.66,-199.24 149.24,-188.52"/>
<polygon fill="black" stroke="black" points="150.37,-185.19 139.81,-186.13 148.65,-191.98 150.37,-185.19"/>
</g>
<!-- Operations -->
<g id="node10" class="node">
<title>Operations</title>
<g id="a_node10"><a xlink:href="../operations.html" xlink:title="Operations" target="_top">
<polygon fill="none" stroke="white" points="334.69,-295.92 263.62,-295.92 263.62,-276.6 334.69,-276.6 334.69,-295.92"/>
<text text-anchor="middle" x="299.16" y="-280.46" font-family="Sans-Serif" font-size="14.00">Operations</text>
</a>
</g>
</g>
<!-- Operations&#45;&gt;Queries -->
<g id="edge11" class="edge">
<title>Operations&#45;&gt;Queries</title>
<path fill="none" stroke="black" d="M301.47,-276.46C303.22,-269.78 305.7,-260.34 307.93,-251.87"/>
<polygon fill="black" stroke="black" points="311.26,-252.96 310.41,-242.4 304.49,-251.18 311.26,-252.96"/>
</g>
<!-- Operations&#45;&gt;FilesFormat -->
<g id="edge29" class="edge">
<title>Operations&#45;&gt;FilesFormat</title>
<path fill="none" stroke="black" d="M292.33,-276.44C283.57,-263.97 270.38,-240.58 278.16,-221.28 282.59,-210.28 291.17,-200.48 299.51,-192.88"/>
<polygon fill="black" stroke="black" points="301.68,-195.63 307.09,-186.52 297.18,-190.27 301.68,-195.63"/>
</g>
<!-- Registry -->
<g id="node11" class="node">
<title>Registry</title>
<g id="a_node11"><a xlink:href="../registry.html" xlink:title="Registry" target="_top">
<polygon fill="none" stroke="white" points="312.07,-351.24 258.25,-351.24 258.25,-331.92 312.07,-331.92 312.07,-351.24"/>
<text text-anchor="middle" x="285.16" y="-335.78" font-family="Sans-Serif" font-size="14.00">Registry</text>
</a>
</g>
</g>
<!-- Registry&#45;&gt;Operations -->
<g id="edge8" class="edge">
<title>Registry&#45;&gt;Operations</title>
<path fill="none" stroke="black" d="M287.47,-331.78C289.22,-325.1 291.7,-315.66 293.93,-307.19"/>
<polygon fill="black" stroke="black" points="297.26,-308.28 296.41,-297.72 290.49,-306.5 297.26,-308.28"/>
</g>
<!-- Tokens -->
<g id="node12" class="node">
<title>Tokens</title>
<g id="a_node12"><a xlink:href="../tokens.html" xlink:title="Tokens" target="_top">
<polygon fill="none" stroke="white" points="394.69,-406.56 347.62,-406.56 347.62,-387.24 394.69,-387.24 394.69,-406.56"/>
<text text-anchor="middle" x="371.16" y="-391.1" font-family="Sans-Serif" font-size="14.00">Tokens</text>
</a>
</g>
</g>
<!-- Tokens&#45;&gt;Operations -->
<g id="edge9" class="edge">
<title>Tokens&#45;&gt;Operations</title>
<path fill="none" stroke="black" d="M365.27,-387.01C353.56,-369.34 327.15,-329.49 311.48,-305.85"/>
<polygon fill="black" stroke="black" points="314.41,-303.94 305.97,-297.53 308.58,-307.8 314.41,-303.94"/>
</g>
<!-- Formats -->
<g id="node16" class="node">
<title>Formats</title>
<g id="a_node16"><a xlink:href="../formats.html" xlink:title="Formats" target="_top">
<polygon fill="none" stroke="white" points="422.44,-351.24 367.87,-351.24 367.87,-331.92 422.44,-331.92 422.44,-351.24"/>
<text text-anchor="middle" x="395.16" y="-335.78" font-family="Sans-Serif" font-size="14.00">Formats</text>
</a>
</g>
</g>
<!-- Tokens&#45;&gt;Formats -->
<g id="edge15" class="edge">
<title>Tokens&#45;&gt;Formats</title>
<path fill="none" stroke="black" d="M375.12,-387.1C378.2,-380.27 382.57,-370.55 386.45,-361.93"/>
<polygon fill="black" stroke="black" points="389.58,-363.51 390.49,-352.96 383.19,-360.64 389.58,-363.51"/>
</g>
<!-- Readers -->
<g id="node13" class="node">
<title>Readers</title>
<g id="a_node13"><a xlink:href="../readers.html" xlink:title="Readers" target="_top">
<polygon fill="none" stroke="white" points="422.82,-295.92 367.5,-295.92 367.5,-276.6 422.82,-276.6 422.82,-295.92"/>
<text text-anchor="middle" x="395.16" y="-280.46" font-family="Sans-Serif" font-size="14.00">Readers</text>
</a>
</g>
</g>
<!-- Readers&#45;&gt;Writers -->
<g id="edge24" class="edge">
<title>Readers&#45;&gt;Writers</title>
<path fill="none" stroke="black" d="M392.85,-276.46C391.1,-269.78 388.62,-260.34 386.39,-251.87"/>
<polygon fill="black" stroke="black" points="389.83,-251.18 383.91,-242.4 383.06,-252.96 389.83,-251.18"/>
</g>
<!-- Readers&#45;&gt;ReadOnly -->
<g id="edge36" class="edge">
<title>Readers&#45;&gt;ReadOnly</title>
<path fill="none" stroke="black" d="M416.7,-276.21C436.77,-267.79 466.96,-255.11 489.91,-245.48"/>
<polygon fill="black" stroke="black" points="491.25,-248.71 499.11,-241.62 488.54,-242.26 491.25,-248.71"/>
</g>
<!-- Readers&#45;&gt;Queries -->
<g id="edge10" class="edge">
<title>Readers&#45;&gt;Queries</title>
<path fill="none" stroke="black" d="M381.25,-276.21C369,-268.25 350.91,-256.48 336.45,-247.08"/>
<polygon fill="black" stroke="black" points="338.7,-244.37 328.41,-241.85 334.88,-250.24 338.7,-244.37"/>
</g>
<!-- Groups -->
<g id="node22" class="node">
<title>Groups</title>
<g id="a_node22"><a xlink:href="../groups.html" xlink:title="Groups" target="_top">
<polygon fill="none" stroke="white" points="471.82,-240.6 422.5,-240.6 422.5,-221.28 471.82,-221.28 471.82,-240.6"/>
<text text-anchor="middle" x="447.16" y="-225.14" font-family="Sans-Serif" font-size="14.00">Groups</text>
</a>
</g>
</g>
<!-- Readers&#45;&gt;Groups -->
<g id="edge23" class="edge">
<title>Readers&#45;&gt;Groups</title>
<path fill="none" stroke="black" d="M403.75,-276.46C411,-269.01 421.61,-258.14 430.53,-249"/>
<polygon fill="black" stroke="black" points="432.85,-251.62 437.33,-242.02 427.84,-246.74 432.85,-251.62"/>
</g>
<!-- Contracts&#45;&gt;Computations -->
<g id="edge33" class="edge">
<title>Contracts&#45;&gt;Computations</title>
<path fill="none" stroke="black" d="M515.71,-110.5C511.39,-103.51 505.2,-93.51 499.78,-84.75"/>
<polygon fill="black" stroke="black" points="502.76,-82.92 494.52,-76.26 496.81,-86.61 502.76,-82.92"/>
</g>
<!-- Formats&#45;&gt;Readers -->
<g id="edge37" class="edge">
<title>Formats&#45;&gt;Readers</title>
<path fill="none" stroke="black" d="M395.16,-331.78C395.16,-325.18 395.16,-315.88 395.16,-307.49"/>
<polygon fill="black" stroke="black" points="398.66,-307.77 395.16,-297.77 391.66,-307.77 398.66,-307.77"/>
</g>
<!-- StorageTypes -->
<g id="node17" class="node">
<title>StorageTypes</title>
<g id="a_node17"><a xlink:href="../storage_types.html" xlink:title="StorageTypes" target="_top">
<polygon fill="none" stroke="white" points="329.32,-406.56 241,-406.56 241,-387.24 329.32,-387.24 329.32,-406.56"/>
<text text-anchor="middle" x="285.16" y="-391.1" font-family="Sans-Serif" font-size="14.00">StorageTypes</text>
</a>
</g>
</g>
<!-- StorageTypes&#45;&gt;Registry -->
<g id="edge20" class="edge">
<title>StorageTypes&#45;&gt;Registry</title>
<path fill="none" stroke="black" d="M285.16,-387.1C285.16,-380.5 285.16,-371.2 285.16,-362.81"/>
<polygon fill="black" stroke="black" points="288.66,-363.09 285.16,-353.09 281.66,-363.09 288.66,-363.09"/>
</g>
<!-- StorageTypes&#45;&gt;Formats -->
<g id="edge14" class="edge">
<title>StorageTypes&#45;&gt;Formats</title>
<path fill="none" stroke="black" d="M303.82,-386.85C320.89,-378.58 346.4,-366.21 366.13,-356.65"/>
<polygon fill="black" stroke="black" points="367.57,-359.84 375.05,-352.33 364.52,-353.54 367.57,-359.84"/>
</g>
<!-- Keys -->
<g id="node18" class="node">
<title>Keys</title>
<g id="a_node18"><a xlink:href="../keys.html" xlink:title="Keys" target="_top">
<polygon fill="none" stroke="white" points="447.32,-406.56 413,-406.56 413,-387.24 447.32,-387.24 447.32,-406.56"/>
<text text-anchor="middle" x="430.16" y="-391.1" font-family="Sans-Serif" font-size="14.00">Keys</text>
</a>
</g>
</g>
<!-- Keys&#45;&gt;Formats -->
<g id="edge16" class="edge">
<title>Keys&#45;&gt;Formats</title>
<path fill="none" stroke="black" d="M424.38,-387.1C419.75,-380.04 413.09,-369.89 407.29,-361.06"/>
<polygon fill="black" stroke="black" points="410.31,-359.28 401.9,-352.84 404.46,-363.12 410.31,-359.28"/>
</g>
<!-- FilesFormat&#45;&gt;ExampleData -->
<g id="edge17" class="edge">
<title>FilesFormat&#45;&gt;ExampleData</title>
<path fill="none" stroke="black" d="M321.82,-165.82C322.32,-159.22 323.01,-149.92 323.64,-141.53"/>
<polygon fill="black" stroke="black" points="327.11,-142.04 324.37,-131.81 320.13,-141.52 327.11,-142.04"/>
</g>
</g>
</svg>
