<?xml version="1.0" encoding="UTF-8" standalone="no"?>
<!DOCTYPE svg PUBLIC "-//W3C//DTD SVG 1.1//EN"
 "http://www.w3.org/Graphics/SVG/1.1/DTD/svg11.dtd">
<!-- Generated by graphviz version 13.0.1 (20250615.1724)
 -->
<!-- Pages: 1 -->
<svg width="598pt" height="415pt"
 viewBox="0.00 0.00 598.00 415.00" xmlns="http://www.w3.org/2000/svg" xmlns:xlink="http://www.w3.org/1999/xlink">
<g id="graph0" class="graph" transform="scale(1 1) rotate(0) translate(4 410.56)">
<polygon fill="white" stroke="none" points="-4,4 -4,-410.56 594.44,-410.56 594.44,4 -4,4"/>
<!-- Copies -->
<g id="node1" class="node">
<title>Copies</title>
<g id="a_node1"><a xlink:href="../copies.html" xlink:title="Copies" target="_top">
<polygon fill="none" stroke="white" points="158.32,-185.28 112,-185.28 112,-165.96 158.32,-165.96 158.32,-185.28"/>
<text xml:space="preserve" text-anchor="middle" x="135.16" y="-169.82" font-family="Sans-Serif" font-size="14.00">Copies</text>
</a>
</g>
</g>
<!-- Adapters -->
<g id="node3" class="node">
<title>Adapters</title>
<g id="a_node3"><a xlink:href="../adapters.html" xlink:title="Adapters" target="_top">
<polygon fill="none" stroke="white" points="345.32,-19.32 287,-19.32 287,0 345.32,0 345.32,-19.32"/>
<text xml:space="preserve" text-anchor="middle" x="316.16" y="-3.86" font-family="Sans-Serif" font-size="14.00">Adapters</text>
</a>
</g>
</g>
<!-- Copies&#45;&gt;Adapters -->
<g id="edge3" class="edge">
<title>Copies&#45;&gt;Adapters</title>
<path fill="none" stroke="black" d="M116.63,-165.62C95.46,-154.04 65.31,-132.77 78.16,-110.64 118.41,-41.36 218.52,-20.08 275.25,-13.55"/>
<polygon fill="black" stroke="black" points="275.57,-17.04 285.15,-12.52 274.85,-10.07 275.57,-17.04"/>
</g>
<!-- Concat -->
<g id="node24" class="node">
<title>Concat</title>
<g id="a_node24"><a xlink:href="../concat.html" xlink:title="Concat" target="_top">
<polygon fill="none" stroke="white" points="134.69,-129.96 87.62,-129.96 87.62,-110.64 134.69,-110.64 134.69,-129.96"/>
<text xml:space="preserve" text-anchor="middle" x="111.16" y="-114.5" font-family="Sans-Serif" font-size="14.00">Concat</text>
</a>
</g>
</g>
<!-- Copies&#45;&gt;Concat -->
<g id="edge35" class="edge">
<title>Copies&#45;&gt;Concat</title>
<path fill="none" stroke="black" d="M131.2,-165.82C128.12,-158.99 123.75,-149.27 119.87,-140.65"/>
<polygon fill="black" stroke="black" points="123.13,-139.36 115.83,-131.68 116.74,-142.23 123.13,-139.36"/>
</g>
<!-- Writers -->
<g id="node2" class="node">
<title>Writers</title>
<g id="a_node2"><a xlink:href="../writers.html" xlink:title="Writers" target="_top">
<polygon fill="none" stroke="white" points="337.69,-240.6 290.62,-240.6 290.62,-221.28 337.69,-221.28 337.69,-240.6"/>
<text xml:space="preserve" text-anchor="middle" x="314.16" y="-225.14" font-family="Sans-Serif" font-size="14.00">Writers</text>
</a>
</g>
</g>
<!-- Writers&#45;&gt;Copies -->
<g id="edge1" class="edge">
<title>Writers&#45;&gt;Copies</title>
<path fill="none" stroke="black" d="M290.39,-222.86C259.41,-213.63 205.02,-197.43 169.54,-186.86"/>
<polygon fill="black" stroke="black" points="170.78,-183.58 160.19,-184.08 168.78,-190.29 170.78,-183.58"/>
</g>
<!-- MemoryFormat -->
<g id="node4" class="node">
<title>MemoryFormat</title>
<g id="a_node4"><a xlink:href="../memory_format.html" xlink:title="MemoryFormat" target="_top">
<polygon fill="none" stroke="white" points="332.19,-185.28 234.12,-185.28 234.12,-165.96 332.19,-165.96 332.19,-185.28"/>
<text xml:space="preserve" text-anchor="middle" x="283.16" y="-169.82" font-family="Sans-Serif" font-size="14.00">MemoryFormat</text>
</a>
</g>
</g>
<!-- Writers&#45;&gt;MemoryFormat -->
<g id="edge22" class="edge">
<title>Writers&#45;&gt;MemoryFormat</title>
<path fill="none" stroke="black" d="M309.04,-221.14C304.98,-214.15 299.17,-204.15 294.07,-195.39"/>
<polygon fill="black" stroke="black" points="297.2,-193.81 289.15,-186.92 291.15,-197.33 297.2,-193.81"/>
</g>
<!-- Chains -->
<g id="node5" class="node">
<title>Chains</title>
<g id="a_node5"><a xlink:href="../chains.html" xlink:title="Chains" target="_top">
<polygon fill="none" stroke="white" points="584.32,-185.28 538,-185.28 538,-165.96 584.32,-165.96 584.32,-185.28"/>
<text xml:space="preserve" text-anchor="middle" x="561.16" y="-169.82" font-family="Sans-Serif" font-size="14.00">Chains</text>
</a>
</g>
</g>
<!-- Writers&#45;&gt;Chains -->
<g id="edge29" class="edge">
<title>Writers&#45;&gt;Chains</title>
<path fill="none" stroke="black" d="M337.88,-223.32C340.66,-222.6 343.47,-221.91 346.16,-221.28 423.41,-203.25 446.48,-204.01 526.64,-185.73"/>
<polygon fill="black" stroke="black" points="527.36,-189.15 536.31,-183.49 525.78,-182.33 527.36,-189.15"/>
</g>
<!-- H5dfFormat -->
<g id="node15" class="node">
<title>H5dfFormat</title>
<g id="a_node15"><a xlink:href="../h5df_format.html" xlink:title="H5dfFormat" target="_top">
<polygon fill="none" stroke="white" points="520.32,-185.28 444,-185.28 444,-165.96 520.32,-165.96 520.32,-185.28"/>
<text xml:space="preserve" text-anchor="middle" x="482.16" y="-169.82" font-family="Sans-Serif" font-size="14.00">H5dfFormat</text>
</a>
</g>
</g>
<!-- Writers&#45;&gt;H5dfFormat -->
<g id="edge25" class="edge">
<title>Writers&#45;&gt;H5dfFormat</title>
<path fill="none" stroke="black" d="M337.87,-222.41C365.06,-213.79 410.05,-199.51 442.57,-189.18"/>
<polygon fill="black" stroke="black" points="443.59,-192.53 452.06,-186.17 441.47,-185.86 443.59,-192.53"/>
</g>
<!-- FilesFormat -->
<g id="node16" class="node">
<title>FilesFormat</title>
<g id="a_node16"><a xlink:href="../files_format.html" xlink:title="FilesFormat" target="_top">
<polygon fill="none" stroke="white" points="426.32,-185.28 350,-185.28 350,-165.96 426.32,-165.96 426.32,-185.28"/>
<text xml:space="preserve" text-anchor="middle" x="388.16" y="-169.82" font-family="Sans-Serif" font-size="14.00">FilesFormat</text>
</a>
</g>
</g>
<!-- Writers&#45;&gt;FilesFormat -->
<g id="edge33" class="edge">
<title>Writers&#45;&gt;FilesFormat</title>
<path fill="none" stroke="black" d="M326.71,-220.89C337.62,-213.03 353.66,-201.48 366.62,-192.14"/>
<polygon fill="black" stroke="black" points="368.5,-195.1 374.56,-186.42 364.4,-189.42 368.5,-195.1"/>
</g>
<!-- Reconstruction -->
<g id="node25" class="node">
<title>Reconstruction</title>
<g id="a_node25"><a xlink:href="../reconstruction.html" xlink:title="Reconstruction" target="_top">
<polygon fill="none" stroke="white" points="94.32,-185.28 0,-185.28 0,-165.96 94.32,-165.96 94.32,-185.28"/>
<text xml:space="preserve" text-anchor="middle" x="47.16" y="-169.82" font-family="Sans-Serif" font-size="14.00">Reconstruction</text>
</a>
</g>
</g>
<!-- Writers&#45;&gt;Reconstruction -->
<g id="edge38" class="edge">
<title>Writers&#45;&gt;Reconstruction</title>
<path fill="none" stroke="black" d="M290.47,-225.21C248.95,-216.92 161.97,-199.55 104.05,-187.98"/>
<polygon fill="black" stroke="black" points="104.86,-184.57 94.37,-186.05 103.49,-191.44 104.86,-184.57"/>
</g>
<!-- MemoryFormat&#45;&gt;Adapters -->
<g id="edge2" class="edge">
<title>MemoryFormat&#45;&gt;Adapters</title>
<path fill="none" stroke="black" d="M303.3,-165.5C317.02,-158.08 334.1,-146.18 342.16,-129.96 358.61,-96.88 340.61,-53.54 327.44,-29.25"/>
<polygon fill="black" stroke="black" points="330.63,-27.78 322.62,-20.84 324.56,-31.26 330.63,-27.78"/>
</g>
<!-- ExampleData -->
<g id="node21" class="node">
<title>ExampleData</title>
<g id="a_node21"><a xlink:href="../example_data.html" xlink:title="ExampleData" target="_top">
<polygon fill="none" stroke="white" points="475.19,-129.96 389.12,-129.96 389.12,-110.64 475.19,-110.64 475.19,-129.96"/>
<text xml:space="preserve" text-anchor="middle" x="432.16" y="-114.5" font-family="Sans-Serif" font-size="14.00">ExampleData</text>
</a>
</g>
</g>
<!-- MemoryFormat&#45;&gt;ExampleData -->
<g id="edge19" class="edge">
<title>MemoryFormat&#45;&gt;ExampleData</title>
<path fill="none" stroke="black" d="M308.44,-165.57C332.52,-156.96 369.02,-143.9 396.14,-134.19"/>
<polygon fill="black" stroke="black" points="397.1,-137.56 405.34,-130.9 394.74,-130.97 397.1,-137.56"/>
</g>
<!-- AnnDataFormat -->
<g id="node23" class="node">
<title>AnnDataFormat</title>
<g id="a_node23"><a xlink:href="../anndata_format.html" xlink:title="AnnDataFormat" target="_top">
<polygon fill="none" stroke="white" points="333.32,-129.96 233,-129.96 233,-110.64 333.32,-110.64 333.32,-129.96"/>
<text xml:space="preserve" text-anchor="middle" x="283.16" y="-114.5" font-family="Sans-Serif" font-size="14.00">AnnDataFormat</text>
</a>
</g>
</g>
<!-- MemoryFormat&#45;&gt;AnnDataFormat -->
<g id="edge30" class="edge">
<title>MemoryFormat&#45;&gt;AnnDataFormat</title>
<path fill="none" stroke="black" d="M283.16,-165.82C283.16,-159.22 283.16,-149.92 283.16,-141.53"/>
<polygon fill="black" stroke="black" points="286.66,-141.81 283.16,-131.81 279.66,-141.81 286.66,-141.81"/>
</g>
<!-- Chains&#45;&gt;Adapters -->
<g id="edge4" class="edge">
<title>Chains&#45;&gt;Adapters</title>
<path fill="none" stroke="black" d="M569.7,-165.71C581.08,-152.73 598.42,-128.26 586.16,-110.64 533.98,-35.68 418.73,-16.79 357.03,-12.12"/>
<polygon fill="black" stroke="black" points="357.52,-8.64 347.31,-11.48 357.06,-15.63 357.52,-8.64"/>
</g>
<!-- CompleteDaf -->
<g id="node14" class="node">
<title>CompleteDaf</title>
<g id="a_node14"><a xlink:href="../complete.html" xlink:title="CompleteDaf" target="_top">
<polygon fill="none" stroke="white" points="577.07,-129.96 493.25,-129.96 493.25,-110.64 577.07,-110.64 577.07,-129.96"/>
<text xml:space="preserve" text-anchor="middle" x="535.16" y="-114.5" font-family="Sans-Serif" font-size="14.00">CompleteDaf</text>
</a>
</g>
</g>
<!-- Chains&#45;&gt;CompleteDaf -->
<g id="edge13" class="edge">
<title>Chains&#45;&gt;CompleteDaf</title>
<path fill="none" stroke="black" d="M556.87,-165.82C553.5,-158.91 548.69,-149.05 544.45,-140.36"/>
<polygon fill="black" stroke="black" points="547.74,-139.11 540.21,-131.66 541.45,-142.18 547.74,-139.11"/>
</g>
<!-- Chains&#45;&gt;ExampleData -->
<g id="edge20" class="edge">
<title>Chains&#45;&gt;ExampleData</title>
<path fill="none" stroke="black" d="M539.28,-165.57C518.8,-157.11 487.95,-144.36 464.6,-134.71"/>
<polygon fill="black" stroke="black" points="466.13,-131.55 455.55,-130.97 463.45,-138.02 466.13,-131.55"/>
</g>
<!-- Computations -->
<g id="node6" class="node">
<title>Computations</title>
<g id="a_node6"><a xlink:href="../computations.html" xlink:title="Computations" target="_top">
<polygon fill="none" stroke="white" points="272.32,-74.64 184,-74.64 184,-55.32 272.32,-55.32 272.32,-74.64"/>
<text xml:space="preserve" text-anchor="middle" x="228.16" y="-59.18" font-family="Sans-Serif" font-size="14.00">Computations</text>
</a>
</g>
</g>
<!-- Computations&#45;&gt;Adapters -->
<g id="edge5" class="edge">
<title>Computations&#45;&gt;Adapters</title>
<path fill="none" stroke="black" d="M243.09,-54.93C256.36,-46.89 276.03,-34.98 291.61,-25.53"/>
<polygon fill="black" stroke="black" points="293.13,-28.71 299.86,-20.53 289.5,-22.72 293.13,-28.71"/>
</g>
<!-- Views -->
<g id="node7" class="node">
<title>Views</title>
<g id="a_node7"><a xlink:href="../views.html" xlink:title="Views" target="_top">
<polygon fill="none" stroke="white" points="216.32,-185.28 176,-185.28 176,-165.96 216.32,-165.96 216.32,-185.28"/>
<text xml:space="preserve" text-anchor="middle" x="196.16" y="-169.82" font-family="Sans-Serif" font-size="14.00">Views</text>
</a>
</g>
</g>
<!-- Contracts -->
<g id="node17" class="node">
<title>Contracts</title>
<g id="a_node17"><a xlink:href="../contracts.html" xlink:title="Contracts" target="_top">
<polygon fill="none" stroke="white" points="215.19,-129.96 153.12,-129.96 153.12,-110.64 215.19,-110.64 215.19,-129.96"/>
<text xml:space="preserve" text-anchor="middle" x="184.16" y="-114.5" font-family="Sans-Serif" font-size="14.00">Contracts</text>
</a>
</g>
</g>
<!-- Views&#45;&gt;Contracts -->
<g id="edge15" class="edge">
<title>Views&#45;&gt;Contracts</title>
<path fill="none" stroke="black" d="M194.18,-165.82C192.69,-159.22 190.6,-149.92 188.71,-141.53"/>
<polygon fill="black" stroke="black" points="192.13,-140.76 186.52,-131.77 185.3,-142.3 192.13,-140.76"/>
</g>
<!-- Views&#45;&gt;Concat -->
<g id="edge34" class="edge">
<title>Views&#45;&gt;Concat</title>
<path fill="none" stroke="black" d="M181.74,-165.57C169.04,-157.61 150.29,-145.84 135.3,-136.44"/>
<polygon fill="black" stroke="black" points="137.26,-133.54 126.93,-131.19 133.54,-139.47 137.26,-133.54"/>
</g>
<!-- Queries -->
<g id="node8" class="node">
<title>Queries</title>
<g id="a_node8"><a xlink:href="../queries.html" xlink:title="Queries" target="_top">
<polygon fill="none" stroke="white" points="228.32,-240.6 176,-240.6 176,-221.28 228.32,-221.28 228.32,-240.6"/>
<text xml:space="preserve" text-anchor="middle" x="202.16" y="-225.14" font-family="Sans-Serif" font-size="14.00">Queries</text>
</a>
</g>
</g>
<!-- Queries&#45;&gt;Views -->
<g id="edge6" class="edge">
<title>Queries&#45;&gt;Views</title>
<path fill="none" stroke="black" d="M201.17,-221.14C200.43,-214.54 199.38,-205.24 198.44,-196.85"/>
<polygon fill="black" stroke="black" points="201.94,-196.67 197.34,-187.12 194.98,-197.45 201.94,-196.67"/>
</g>
<!-- Queries&#45;&gt;Reconstruction -->
<g id="edge37" class="edge">
<title>Queries&#45;&gt;Reconstruction</title>
<path fill="none" stroke="black" d="M175.87,-220.89C150.7,-212.24 112.51,-199.1 84.25,-189.38"/>
<polygon fill="black" stroke="black" points="85.61,-186.15 75.01,-186.2 83.33,-192.76 85.61,-186.15"/>
</g>
<!-- ReadOnly -->
<g id="node9" class="node">
<title>ReadOnly</title>
<g id="a_node9"><a xlink:href="../read_only.html" xlink:title="ReadOnly" target="_top">
<polygon fill="none" stroke="white" points="420.69,-240.6 355.62,-240.6 355.62,-221.28 420.69,-221.28 420.69,-240.6"/>
<text xml:space="preserve" text-anchor="middle" x="388.16" y="-225.14" font-family="Sans-Serif" font-size="14.00">ReadOnly</text>
</a>
</g>
</g>
<!-- ReadOnly&#45;&gt;Chains -->
<g id="edge28" class="edge">
<title>ReadOnly&#45;&gt;Chains</title>
<path fill="none" stroke="black" d="M417.51,-220.89C447.78,-211.57 494.94,-197.03 526.9,-187.18"/>
<polygon fill="black" stroke="black" points="527.55,-190.64 536.07,-184.35 525.48,-183.95 527.55,-190.64"/>
</g>
<!-- ReadOnly&#45;&gt;Views -->
<g id="edge7" class="edge">
<title>ReadOnly&#45;&gt;Views</title>
<path fill="none" stroke="black" d="M355.32,-221.18C324.61,-212.93 277.2,-200.07 227.67,-185.95"/>
<polygon fill="black" stroke="black" points="228.77,-182.63 218.19,-183.24 226.85,-189.36 228.77,-182.63"/>
</g>
<!-- ReadOnly&#45;&gt;H5dfFormat -->
<g id="edge24" class="edge">
<title>ReadOnly&#45;&gt;H5dfFormat</title>
<path fill="none" stroke="black" d="M404.11,-220.89C418.42,-212.78 439.69,-200.71 456.41,-191.22"/>
<polygon fill="black" stroke="black" points="457.85,-194.43 464.82,-186.46 454.39,-188.35 457.85,-194.43"/>
</g>
<!-- ReadOnly&#45;&gt;FilesFormat -->
<g id="edge32" class="edge">
<title>ReadOnly&#45;&gt;FilesFormat</title>
<path fill="none" stroke="black" d="M388.16,-221.14C388.16,-214.54 388.16,-205.24 388.16,-196.85"/>
<polygon fill="black" stroke="black" points="391.66,-197.13 388.16,-187.13 384.66,-197.13 391.66,-197.13"/>
</g>
<!-- Operations -->
<g id="node10" class="node">
<title>Operations</title>
<g id="a_node10"><a xlink:href="../operations.html" xlink:title="Operations" target="_top">
<polygon fill="none" stroke="white" points="255.69,-295.92 184.62,-295.92 184.62,-276.6 255.69,-276.6 255.69,-295.92"/>
<text xml:space="preserve" text-anchor="middle" x="220.16" y="-280.46" font-family="Sans-Serif" font-size="14.00">Operations</text>
</a>
</g>
</g>
<!-- Operations&#45;&gt;Queries -->
<g id="edge10" class="edge">
<title>Operations&#45;&gt;Queries</title>
<path fill="none" stroke="black" d="M217.19,-276.46C214.91,-269.7 211.67,-260.13 208.79,-251.58"/>
<polygon fill="black" stroke="black" points="212.2,-250.73 205.68,-242.37 205.56,-252.96 212.2,-250.73"/>
</g>
<!-- Operations&#45;&gt;FilesFormat -->
<g id="edge31" class="edge">
<title>Operations&#45;&gt;FilesFormat</title>
<path fill="none" stroke="black" d="M226.73,-276.28C237.02,-262.77 258.14,-237.1 281.16,-221.28 301.13,-207.55 325.97,-196.86 346.69,-189.39"/>
<polygon fill="black" stroke="black" points="347.68,-192.75 355.98,-186.16 345.39,-186.13 347.68,-192.75"/>
</g>
<!-- Registry -->
<g id="node11" class="node">
<title>Registry</title>
<g id="a_node11"><a xlink:href="../registry.html" xlink:title="Registry" target="_top">
<polygon fill="none" stroke="white" points="285.07,-351.24 231.25,-351.24 231.25,-331.92 285.07,-331.92 285.07,-351.24"/>
<text xml:space="preserve" text-anchor="middle" x="258.16" y="-335.78" font-family="Sans-Serif" font-size="14.00">Registry</text>
</a>
</g>
</g>
<!-- Registry&#45;&gt;Operations -->
<g id="edge8" class="edge">
<title>Registry&#45;&gt;Operations</title>
<path fill="none" stroke="black" d="M251.89,-331.78C246.8,-324.64 239.46,-314.35 233.13,-305.46"/>
<polygon fill="black" stroke="black" points="236.1,-303.6 227.45,-297.49 230.4,-307.66 236.1,-303.6"/>
</g>
<!-- Tokens -->
<g id="node12" class="node">
<title>Tokens</title>
<g id="a_node12"><a xlink:href="../tokens.html" xlink:title="Tokens" target="_top">
<polygon fill="none" stroke="white" points="226.69,-406.56 179.62,-406.56 179.62,-387.24 226.69,-387.24 226.69,-406.56"/>
<text xml:space="preserve" text-anchor="middle" x="203.16" y="-391.1" font-family="Sans-Serif" font-size="14.00">Tokens</text>
</a>
</g>
</g>
<!-- Tokens&#45;&gt;Operations -->
<g id="edge9" class="edge">
<title>Tokens&#45;&gt;Operations</title>
<path fill="none" stroke="black" d="M204.55,-387.01C207.25,-369.74 213.27,-331.27 217,-307.48"/>
<polygon fill="black" stroke="black" points="220.43,-308.19 218.52,-297.77 213.51,-307.11 220.43,-308.19"/>
</g>
<!-- Formats -->
<g id="node18" class="node">
<title>Formats</title>
<g id="a_node18"><a xlink:href="../formats.html" xlink:title="Formats" target="_top">
<polygon fill="none" stroke="white" points="357.44,-351.24 302.87,-351.24 302.87,-331.92 357.44,-331.92 357.44,-351.24"/>
<text xml:space="preserve" text-anchor="middle" x="330.16" y="-335.78" font-family="Sans-Serif" font-size="14.00">Formats</text>
</a>
</g>
</g>
<!-- Tokens&#45;&gt;Formats -->
<g id="edge18" class="edge">
<title>Tokens&#45;&gt;Formats</title>
<path fill="none" stroke="black" d="M224.7,-386.85C244.77,-378.43 274.96,-365.75 297.91,-356.12"/>
<polygon fill="black" stroke="black" points="299.25,-359.35 307.11,-352.26 296.54,-352.9 299.25,-359.35"/>
</g>
<!-- Readers -->
<g id="node13" class="node">
<title>Readers</title>
<g id="a_node13"><a xlink:href="../readers.html" xlink:title="Readers" target="_top">
<polygon fill="none" stroke="white" points="357.82,-295.92 302.5,-295.92 302.5,-276.6 357.82,-276.6 357.82,-295.92"/>
<text xml:space="preserve" text-anchor="middle" x="330.16" y="-280.46" font-family="Sans-Serif" font-size="14.00">Readers</text>
</a>
</g>
</g>
<!-- Readers&#45;&gt;Writers -->
<g id="edge27" class="edge">
<title>Readers&#45;&gt;Writers</title>
<path fill="none" stroke="black" d="M327.52,-276.46C325.52,-269.78 322.68,-260.34 320.14,-251.87"/>
<polygon fill="black" stroke="black" points="323.52,-250.96 317.29,-242.39 316.82,-252.97 323.52,-250.96"/>
</g>
<!-- Readers&#45;&gt;Queries -->
<g id="edge11" class="edge">
<title>Readers&#45;&gt;Queries</title>
<path fill="none" stroke="black" d="M308.45,-276.21C288.13,-267.75 257.51,-255 234.35,-245.35"/>
<polygon fill="black" stroke="black" points="235.95,-242.23 225.38,-241.61 233.26,-248.69 235.95,-242.23"/>
</g>
<!-- Readers&#45;&gt;ReadOnly -->
<g id="edge39" class="edge">
<title>Readers&#45;&gt;ReadOnly</title>
<path fill="none" stroke="black" d="M340,-276.21C348.21,-268.66 360.14,-257.7 370.07,-248.57"/>
<polygon fill="black" stroke="black" points="372.36,-251.22 377.35,-241.88 367.62,-246.07 372.36,-251.22"/>
</g>
<!-- Groups -->
<g id="node22" class="node">
<title>Groups</title>
<g id="a_node22"><a xlink:href="../groups.html" xlink:title="Groups" target="_top">
<polygon fill="none" stroke="white" points="487.82,-240.6 438.5,-240.6 438.5,-221.28 487.82,-221.28 487.82,-240.6"/>
<text xml:space="preserve" text-anchor="middle" x="463.16" y="-225.14" font-family="Sans-Serif" font-size="14.00">Groups</text>
</a>
</g>
</g>
<!-- Readers&#45;&gt;Groups -->
<g id="edge26" class="edge">
<title>Readers&#45;&gt;Groups</title>
<path fill="none" stroke="black" d="M352.72,-276.21C373.93,-267.71 405.93,-254.88 430.04,-245.22"/>
<polygon fill="black" stroke="black" points="431.1,-248.56 439.08,-241.59 428.5,-242.07 431.1,-248.56"/>
</g>
<!-- H5dfFormat&#45;&gt;CompleteDaf -->
<g id="edge12" class="edge">
<title>H5dfFormat&#45;&gt;CompleteDaf</title>
<path fill="none" stroke="black" d="M490.91,-165.82C498.31,-158.37 509.12,-147.5 518.21,-138.36"/>
<polygon fill="black" stroke="black" points="520.58,-140.93 525.15,-131.37 515.62,-135.99 520.58,-140.93"/>
</g>
<!-- FilesFormat&#45;&gt;CompleteDaf -->
<g id="edge14" class="edge">
<title>FilesFormat&#45;&gt;CompleteDaf</title>
<path fill="none" stroke="black" d="M413.1,-165.57C436.85,-156.96 472.87,-143.9 499.62,-134.19"/>
<polygon fill="black" stroke="black" points="500.47,-137.61 508.68,-130.91 498.08,-131.03 500.47,-137.61"/>
</g>
<!-- FilesFormat&#45;&gt;ExampleData -->
<g id="edge21" class="edge">
<title>FilesFormat&#45;&gt;ExampleData</title>
<path fill="none" stroke="black" d="M395.43,-165.82C401.44,-158.53 410.17,-147.94 417.62,-138.92"/>
<polygon fill="black" stroke="black" points="420.11,-141.4 423.77,-131.46 414.71,-136.95 420.11,-141.4"/>
</g>
<!-- Contracts&#45;&gt;Computations -->
<g id="edge36" class="edge">
<title>Contracts&#45;&gt;Computations</title>
<path fill="none" stroke="black" d="M191.43,-110.5C197.44,-103.21 206.17,-92.62 213.62,-83.6"/>
<polygon fill="black" stroke="black" points="216.11,-86.08 219.77,-76.14 210.71,-81.63 216.11,-86.08"/>
</g>
<!-- Formats&#45;&gt;Readers -->
<g id="edge40" class="edge">
<title>Formats&#45;&gt;Readers</title>
<path fill="none" stroke="black" d="M330.16,-331.78C330.16,-325.18 330.16,-315.88 330.16,-307.49"/>
<polygon fill="black" stroke="black" points="333.66,-307.77 330.16,-297.77 326.66,-307.77 333.66,-307.77"/>
</g>
<!-- Keys -->
<g id="node19" class="node">
<title>Keys</title>
<g id="a_node19"><a xlink:href="../keys.html" xlink:title="Keys" target="_top">
<polygon fill="none" stroke="white" points="385.32,-406.56 351,-406.56 351,-387.24 385.32,-387.24 385.32,-406.56"/>
<text xml:space="preserve" text-anchor="middle" x="368.16" y="-391.1" font-family="Sans-Serif" font-size="14.00">Keys</text>
</a>
</g>
</g>
<!-- Keys&#45;&gt;Formats -->
<g id="edge16" class="edge">
<title>Keys&#45;&gt;Formats</title>
<path fill="none" stroke="black" d="M361.89,-387.1C356.8,-379.96 349.46,-369.67 343.13,-360.78"/>
<polygon fill="black" stroke="black" points="346.1,-358.92 337.45,-352.81 340.4,-362.98 346.1,-358.92"/>
</g>
<!-- StorageTypes -->
<g id="node20" class="node">
<title>StorageTypes</title>
<g id="a_node20"><a xlink:href="../storage_types.html" xlink:title="StorageTypes" target="_top">
<polygon fill="none" stroke="white" points="333.32,-406.56 245,-406.56 245,-387.24 333.32,-387.24 333.32,-406.56"/>
<text xml:space="preserve" text-anchor="middle" x="289.16" y="-391.1" font-family="Sans-Serif" font-size="14.00">StorageTypes</text>
</a>
</g>
</g>
<!-- StorageTypes&#45;&gt;Registry -->
<g id="edge23" class="edge">
<title>StorageTypes&#45;&gt;Registry</title>
<path fill="none" stroke="black" d="M284.04,-387.1C279.98,-380.11 274.17,-370.11 269.07,-361.35"/>
<polygon fill="black" stroke="black" points="272.2,-359.77 264.15,-352.88 266.15,-363.29 272.2,-359.77"/>
</g>
<!-- StorageTypes&#45;&gt;Formats -->
<g id="edge17" class="edge">
<title>StorageTypes&#45;&gt;Formats</title>
<path fill="none" stroke="black" d="M295.93,-387.1C301.48,-379.88 309.5,-369.45 316.39,-360.49"/>
<polygon fill="black" stroke="black" points="319,-362.84 322.32,-352.78 313.45,-358.57 319,-362.84"/>
</g>
</g>
</svg>
