<?xml version="1.0" encoding="UTF-8" standalone="no"?>
<!DOCTYPE svg PUBLIC "-//W3C//DTD SVG 1.1//EN"
 "http://www.w3.org/Graphics/SVG/1.1/DTD/svg11.dtd">
<!-- Generated by graphviz version 14.1.1 (20251213.1925)
 -->
<!-- Pages: 1 -->
<svg width="683pt" height="210pt"
 viewBox="0.00 0.00 683.00 210.00" xmlns="http://www.w3.org/2000/svg" xmlns:xlink="http://www.w3.org/1999/xlink">
<g id="graph0" class="graph" transform="scale(1 1) rotate(0) translate(4 206)">
<polygon fill="white" stroke="none" points="-4,4 -4,-206 678.5,-206 678.5,4 -4,4"/>
<g id="clust1" class="cluster">
<title>cluster_all</title>
<polygon fill="none" stroke="black" points="160.25,-8 160.25,-194 527.75,-194 527.75,-8 160.25,-8"/>
<text xml:space="preserve" text-anchor="middle" x="283" y="-163.4" font-family="Sans-Serif" font-size="28.00">VECTOR AS AXIS</text>
</g>
<!-- Vector_values -->
<g id="node1" class="node">
<title>Vector_values</title>
<polygon fill="none" stroke="black" points="132.25,-101 0,-101 0,-65 132.25,-65 132.25,-101"/>
<text xml:space="preserve" text-anchor="start" x="8" y="-84.7" font-family="Sans-Serif" font-size="14.00"> VectorState</text>
<text xml:space="preserve" text-anchor="start" x="82.25" y="-84.7" font-family="Sans-Serif" font-style="italic" baseline-shift="sub" font-size="14.00">values</text>
<text xml:space="preserve" text-anchor="start" x="116.75" y="-84.7" font-family="Sans-Serif" font-size="14.00">  </text>
<text xml:space="preserve" text-anchor="start" x="64.25" y="-70.7" font-family="Sans-Serif" font-size="14.00"> </text>
</g>
<!-- VAA1 -->
<g id="node3" class="node">
<title>VAA1</title>
<polygon fill="none" stroke="black" stroke-dasharray="1,5" points="266.75,-73.75 168.25,-73.75 168.25,-16.25 266.75,-16.25 266.75,-73.75"/>
<text xml:space="preserve" text-anchor="start" x="192.75" y="-56.45" font-family="Courier,monospace" font-size="14.00">@ axis</text>
<text xml:space="preserve" text-anchor="start" x="213.38" y="-39.95" font-family="Courier,monospace" font-size="14.00"> </text>
<text xml:space="preserve" text-anchor="start" x="176.25" y="-23.45" font-family="Courier,monospace" font-size="14.00">Axis(axis)</text>
</g>
<!-- Vector_values&#45;&gt;VAA1 -->
<g id="edge3" class="edge">
<title>Vector_values&#45;&gt;VAA1:w</title>
<path fill="none" stroke="black" d="M98.01,-64.67C114.24,-56.47 135.04,-48.1 155.77,-45.69"/>
<polygon fill="black" stroke="black" points="155.97,-49.18 165.74,-45.09 155.55,-42.2 155.97,-49.18"/>
</g>
<!-- VAA2 -->
<g id="node5" class="node">
<title>VAA2</title>
<polygon fill="none" stroke="black" stroke-dasharray="1,5" points="250.25,-149.75 184.75,-149.75 184.75,-92.25 250.25,-92.25 250.25,-149.75"/>
<text xml:space="preserve" text-anchor="start" x="213.38" y="-132.45" font-family="Courier,monospace" font-size="14.00">@</text>
<text xml:space="preserve" text-anchor="start" x="213.38" y="-115.95" font-family="Courier,monospace" font-size="14.00"> </text>
<text xml:space="preserve" text-anchor="start" x="192.75" y="-99.45" font-family="Courier,monospace" font-size="14.00">Axis()</text>
</g>
<!-- Vector_values&#45;&gt;VAA2 -->
<g id="edge4" class="edge">
<title>Vector_values&#45;&gt;VAA2:w</title>
<path fill="none" stroke="black" d="M103.69,-101.44C123.12,-109.8 147.96,-118.3 172.26,-120.47"/>
<polygon fill="black" stroke="black" points="172.09,-123.97 182.24,-120.93 172.41,-116.97 172.09,-123.97"/>
</g>
<!-- Vector_axis -->
<g id="node2" class="node">
<title>Vector_axis</title>
<polygon fill="none" stroke="black" points="674.5,-100 555.75,-100 555.75,-64 674.5,-64 674.5,-100"/>
<text xml:space="preserve" text-anchor="start" x="563.75" y="-83.7" font-family="Sans-Serif" font-size="14.00"> VectorState</text>
<text xml:space="preserve" text-anchor="start" x="638" y="-83.7" font-family="Sans-Serif" font-style="italic" baseline-shift="sub" font-size="14.00">axis</text>
<text xml:space="preserve" text-anchor="start" x="659" y="-83.7" font-family="Sans-Serif" font-size="14.00">  </text>
<text xml:space="preserve" text-anchor="start" x="613.25" y="-69.7" font-family="Sans-Serif" font-size="14.00"> </text>
</g>
<!-- VAA1_ -->
<g id="node4" class="node">
<title>VAA1_</title>
<polygon fill="none" stroke="black" points="507.75,-62 302.75,-62 302.75,-38 507.75,-38 519.75,-50 507.75,-62"/>
<text xml:space="preserve" text-anchor="middle" x="411.25" y="-44.2" font-family="Sans-Serif" font-size="14.00">vector values are entries of axis   </text>
</g>
<!-- VAA1&#45;&gt;VAA1_ -->
<g id="edge1" class="edge">
<title>VAA1:e&#45;&gt;VAA1_:w</title>
<path fill="none" stroke="black" d="M266.75,-45C278.36,-45 283.53,-47.58 291.52,-49.04"/>
<polygon fill="black" stroke="black" points="290.98,-52.5 301.24,-49.87 291.58,-45.53 290.98,-52.5"/>
</g>
<!-- VAA1_&#45;&gt;Vector_axis -->
<g id="edge5" class="edge">
<title>VAA1_:e&#45;&gt;Vector_axis</title>
<path fill="none" stroke="black" d="M521.21,-50C536.99,-50 553.51,-54.18 568.16,-59.52"/>
<polygon fill="black" stroke="black" points="566.47,-62.62 577.06,-63.02 569.03,-56.1 566.47,-62.62"/>
</g>
<!-- VAA2_ -->
<g id="node6" class="node">
<title>VAA2_</title>
<polygon fill="none" stroke="black" points="487.88,-127 322.62,-127 322.62,-103 487.88,-103 499.88,-115 487.88,-127"/>
<text xml:space="preserve" text-anchor="middle" x="411.25" y="-109.2" font-family="Sans-Serif" font-size="14.00">vector property is an axis   </text>
</g>
<!-- VAA2&#45;&gt;VAA2_ -->
<g id="edge2" class="edge">
<title>VAA2:e&#45;&gt;VAA2_:w</title>
<path fill="none" stroke="black" d="M251.25,-121C278.33,-121 287.6,-116.49 309.95,-115.29"/>
<polygon fill="black" stroke="black" points="309.83,-118.79 319.74,-115.04 309.65,-111.8 309.83,-118.79"/>
</g>
<!-- VAA2_&#45;&gt;Vector_axis -->
<g id="edge6" class="edge">
<title>VAA2_:e&#45;&gt;Vector_axis</title>
<path fill="none" stroke="black" d="M501.25,-115C521.39,-115 542.77,-110.1 561.44,-104.08"/>
<polygon fill="black" stroke="black" points="562.33,-107.47 570.66,-100.92 560.06,-100.85 562.33,-107.47"/>
</g>
</g>
</svg>
