<?xml version="1.0" encoding="UTF-8" standalone="no"?>
<!DOCTYPE svg PUBLIC "-//W3C//DTD SVG 1.1//EN"
 "http://www.w3.org/Graphics/SVG/1.1/DTD/svg11.dtd">
<!-- Generated by graphviz version 14.1.1 (20251213.1925)
 -->
<!-- Pages: 1 -->
<svg width="730pt" height="331pt"
 viewBox="0.00 0.00 730.00 331.00" xmlns="http://www.w3.org/2000/svg" xmlns:xlink="http://www.w3.org/1999/xlink">
<g id="graph0" class="graph" transform="scale(1 1) rotate(0) translate(4 327)">
<polygon fill="white" stroke="none" points="-4,4 -4,-327 726.25,-327 726.25,4 -4,4"/>
<g id="clust1" class="cluster">
<title>cluster_all</title>
<polygon fill="none" stroke="black" points="0,-8 0,-315 714.25,-315 714.25,-8 0,-8"/>
<text xml:space="preserve" text-anchor="middle" x="65.75" y="-284.4" font-family="Sans-Serif" font-size="28.00">LEGEND</text>
</g>
<g id="clust2" class="cluster">
<title>cluster_operation</title>
</g>
<g id="clust3" class="cluster">
<title>cluster_state</title>
<polygon fill="none" stroke="black" stroke-dasharray="5,2" points="8,-98 8,-226 642.02,-226 642.02,-98 8,-98"/>
<text xml:space="preserve" text-anchor="start" x="16" y="-203.05" font-family="Sans-Serif" font-size="21.00"> </text>
<text xml:space="preserve" text-anchor="start" x="22" y="-203.05" font-family="Sans-Serif" font-style="italic" font-size="21.00">States</text>
<text xml:space="preserve" text-anchor="start" x="82.75" y="-203.05" font-family="Sans-Serif" font-size="21.00"> </text>
</g>
<g id="clust4" class="cluster">
<title>cluster_empty</title>
</g>
<!-- PHRASES -->
<g id="node1" class="node">
<title>PHRASES</title>
<g id="a_node1"><a xlink:title="Query phrases are shown in the string format followed by the concatenated operation object format. Grayed items are optional.">
<polygon fill="none" stroke="black" stroke-dasharray="1,5" points="437,-81.75 148.75,-81.75 148.75,-24.25 437,-24.25 437,-81.75"/>
<text xml:space="preserve" text-anchor="start" x="210.38" y="-64.45" font-family="Courier,monospace" font-size="14.00"> query phrase string</text>
<text xml:space="preserve" text-anchor="start" x="288.75" y="-47.95" font-family="Courier,monospace" font-size="14.00"> </text>
<text xml:space="preserve" text-anchor="start" x="156.75" y="-31.45" font-family="Courier,monospace" font-size="14.00">Query() |&gt; Phrase() |&gt; Objects() </text>
</a>
</g>
</g>
<!-- OPS -->
<g id="node3" class="node">
<title>OPS</title>
<g id="a_node3"><a xlink:title="Operations performed by the query engine are shown as an arrow&#45;box.">
<polygon fill="none" stroke="black" points="686.25,-65 473,-65 473,-41 686.25,-41 698.25,-53 686.25,-65"/>
<text xml:space="preserve" text-anchor="middle" x="585.62" y="-47.2" font-family="Sans-Serif" font-size="14.00">name of query operation function   </text>
</a>
</g>
</g>
<!-- PHRASES&#45;&gt;OPS -->
<g id="edge2" class="edge">
<title>PHRASES&#45;&gt;OPS</title>
<g id="a_edge2"><a xlink:title="Edges connect query phrases to the operations performed by the phrase.">
<path fill="none" stroke="black" d="M437.12,-53C445.21,-53 453.3,-53 461.31,-53"/>
<polygon fill="black" stroke="black" points="461.04,-56.5 471.04,-53 461.04,-49.5 461.04,-56.5"/>
</a>
</g>
</g>
<!-- INVIS1 -->
<!-- INVIS1&#45;&gt;PHRASES -->
<!-- FINAL -->
<g id="node4" class="node">
<title>FINAL</title>
<g id="a_node4"><a xlink:title="Final states with query results are shown in a double octagon">
<polygon fill="none" stroke="black" points="630.02,-126.95 630.02,-151.05 604.01,-168.08 567.24,-168.08 541.23,-151.05 541.23,-126.95 567.24,-109.92 604.01,-109.92 630.02,-126.95"/>
<polygon fill="none" stroke="black" points="634.02,-124.79 634.02,-153.21 605.21,-172.08 566.04,-172.08 537.23,-153.21 537.23,-124.79 566.04,-105.92 605.21,-105.92 634.02,-124.79"/>
<text xml:space="preserve" text-anchor="start" x="565" y="-140.7" font-family="Sans-Serif" font-size="14.00"> Query</text>
<text xml:space="preserve" text-anchor="start" x="564.62" y="-125.7" font-family="Sans-Serif" font-size="14.00">Result </text>
</a>
</g>
</g>
<!-- OPS&#45;&gt;FINAL -->
<g id="edge12" class="edge">
<title>OPS&#45;&gt;FINAL</title>
<g id="a_edge12"><a xlink:title="Edges connect query operations to the resulting query state (such as the final state).">
<path fill="none" stroke="black" d="M585.62,-71.48C585.62,-79.01 585.62,-86.54 585.62,-94.07"/>
<polygon fill="black" stroke="black" points="582.13,-93.99 585.63,-103.99 589.13,-93.99 582.13,-93.99"/>
</a>
</g>
</g>
<!-- STACK -->
<g id="node5" class="node">
<title>STACK</title>
<g id="a_node5"><a xlink:title="The query state stack is shown in a box, each line is a separate state element.">
<polygon fill="none" stroke="black" points="321.5,-162.5 264.25,-162.5 264.25,-109.5 321.5,-109.5 321.5,-162.5"/>
<text xml:space="preserve" text-anchor="start" x="272.25" y="-145.2" font-family="Sans-Serif" font-size="14.00"> Query</text>
<text xml:space="preserve" text-anchor="start" x="277.12" y="-130.2" font-family="Sans-Serif" font-size="14.00">State</text>
<text xml:space="preserve" text-anchor="start" x="274.12" y="-115.2" font-family="Sans-Serif" font-size="14.00">Stack </text>
</a>
</g>
</g>
<!-- OPS&#45;&gt;STACK -->
<g id="edge9" class="edge">
<title>OPS:nw&#45;&gt;STACK</title>
<g id="a_edge9"><a xlink:title="Edges connect query operations to the resulting query state.">
<path fill="none" stroke="black" d="M566.41,-71.22C565.36,-72.27 407.8,-109.3 332.75,-126.89"/>
<polygon fill="black" stroke="black" points="332.29,-123.41 323.36,-129.1 333.89,-130.22 332.29,-123.41"/>
</a>
</g>
</g>
<!-- STACK&#45;&gt;PHRASES -->
<g id="edge8" class="edge">
<title>STACK&#45;&gt;PHRASES</title>
<g id="a_edge8"><a xlink:title="Edges connect specific states to query phrases that can be applied at this state.">
<path fill="none" stroke="black" d="M292.88,-109.09C292.88,-103.9 292.88,-98.72 292.88,-93.53"/>
<polygon fill="black" stroke="black" points="296.38,-93.69 292.88,-83.69 289.38,-93.69 296.38,-93.69"/>
</a>
</g>
</g>
<!-- STACK&#45;&gt;FINAL -->
<!-- COMPONENT -->
<g id="node8" class="node">
<title>COMPONENT</title>
<g id="a_node8"><a xlink:title="References are clickable links to the description of the query component.">
<polygon fill="none" stroke="black" points="430.62,-270 155.12,-270 155.12,-266 151.12,-266 151.12,-262 155.12,-262 155.12,-242 151.12,-242 151.12,-238 155.12,-238 155.12,-234 430.62,-234 430.62,-270"/>
<polyline fill="none" stroke="black" points="155.12,-266 159.12,-266 159.12,-262 155.12,-262"/>
<polyline fill="none" stroke="black" points="155.12,-242 159.12,-242 159.12,-238 155.12,-238"/>
<text xml:space="preserve" text-anchor="middle" x="292.88" y="-246.2" font-family="Sans-Serif" font-size="14.00">REFERENCE TO QUERY COMPONENT  </text>
</a>
</g>
</g>
<!-- STACK&#45;&gt;COMPONENT -->
<g id="edge10" class="edge">
<title>STACK&#45;&gt;COMPONENT:se</title>
<g id="a_edge10"><a xlink:title="Edges connect specific states to query components that can be applied at this state.">
<path fill="none" stroke="black" d="M317.75,-224.8C326.58,-206.42 318.02,-181.49 308.61,-162.9"/>
<polygon fill="black" stroke="black" points="315.03,-222.59 312.08,-232.77 320.73,-226.64 315.03,-222.59"/>
</a>
</g>
</g>
<!-- EMPTY -->
<g id="node6" class="node">
<title>EMPTY</title>
<ellipse fill="black" stroke="black" cx="59.88" cy="-116" rx="1.8" ry="1.8"/>
</g>
<!-- EMPTY&#45;&gt;PHRASES -->
<g id="edge6" class="edge">
<title>EMPTY&#45;&gt;PHRASES</title>
<g id="a_edge6"><a xlink:title="Edges connect specific states (such as the empty state) to query phrases that can be applied at this state.">
<path fill="none" stroke="black" d="M61.9,-115.72C69.78,-113.57 121.52,-99.46 173.93,-85.17"/>
<polygon fill="black" stroke="black" points="174.57,-88.62 183.3,-82.61 172.73,-81.87 174.57,-88.62"/>
</a>
</g>
</g>
<!-- EMPTY&#45;&gt;STACK -->
<!-- EMPTY&#45;&gt;COMPONENT -->
<g id="edge7" class="edge">
<title>EMPTY&#45;&gt;COMPONENT</title>
<g id="a_edge7"><a xlink:title="Edges connect specific states (such as the empty state) to query components that can be applied at this state.">
<path fill="none" stroke="black" d="M62.13,-115.94C67.81,-115.72 91.37,-115.58 104.75,-127 139.96,-157.04 113.74,-193.88 146.41,-226.94"/>
<polygon fill="black" stroke="black" points="143.93,-229.41 153.75,-233.37 148.54,-224.15 143.93,-229.41"/>
</a>
</g>
</g>
<!-- E0 -->
<g id="node7" class="node">
<title>E0</title>
<g id="a_node7"><a xlink:title="The empty query stack state is shown as a point.">
<text xml:space="preserve" text-anchor="start" x="37.38" y="-138.2" font-family="Sans-Serif" font-size="14.00"> </text>
<text xml:space="preserve" text-anchor="start" x="41.12" y="-138.2" font-family="Sans-Serif" font-style="italic" font-size="14.00">empty</text>
<text xml:space="preserve" text-anchor="start" x="78.62" y="-138.2" font-family="Sans-Serif" font-size="14.00"> </text>
</a>
</g>
</g>
<!-- COMPONENT&#45;&gt;FINAL -->
<g id="edge13" class="edge">
<title>COMPONENT&#45;&gt;FINAL</title>
<g id="a_edge13"><a xlink:title="Edges connect query components to the resulting query state (such as the final state).">
<path fill="none" stroke="black" d="M426.54,-233.56C430.09,-232.44 433.58,-231.26 437,-230 475.71,-215.76 515.28,-190.7 543.69,-170.47"/>
<polygon fill="black" stroke="black" points="545.6,-173.41 551.65,-164.71 541.5,-167.74 545.6,-173.41"/>
</a>
</g>
</g>
<!-- COMPONENT&#45;&gt;STACK -->
<g id="edge11" class="edge">
<title>COMPONENT:sw&#45;&gt;STACK</title>
<g id="a_edge11"><a xlink:title="Edges connect query components to the resulting query state.">
<path fill="none" stroke="black" d="M265.61,-173.18C256.92,-193.69 254.31,-218.31 274.54,-234"/>
<polygon fill="black" stroke="black" points="268.73,-174.78 269.96,-164.26 262.43,-171.72 268.73,-174.78"/>
</a>
</g>
</g>
<!-- INVIS2 -->
<!-- INVIS2&#45;&gt;COMPONENT -->
</g>
</svg>
