<?xml version="1.0" encoding="UTF-8" standalone="no"?>
<!DOCTYPE svg PUBLIC "-//W3C//DTD SVG 1.1//EN"
 "http://www.w3.org/Graphics/SVG/1.1/DTD/svg11.dtd">
<!-- Generated by graphviz version 14.1.1 (20251213.1925)
 -->
<!-- Pages: 1 -->
<svg width="898pt" height="195pt"
 viewBox="0.00 0.00 898.00 195.00" xmlns="http://www.w3.org/2000/svg" xmlns:xlink="http://www.w3.org/1999/xlink">
<g id="graph0" class="graph" transform="scale(1 1) rotate(0) translate(4 191)">
<polygon fill="white" stroke="none" points="-4,4 -4,-191 893.64,-191 893.64,4 -4,4"/>
<g id="clust1" class="cluster">
<title>cluster_all</title>
<polygon fill="none" stroke="black" points="8,-8 8,-179 881.64,-179 881.64,-8 8,-8"/>
<text xml:space="preserve" text-anchor="middle" x="67.75" y="-148.4" font-family="Sans-Serif" font-size="28.00">MATRIX</text>
</g>
<!-- Matrix_values -->
<g id="node1" class="node">
<title>Matrix_values</title>
<polygon fill="none" stroke="black" points="869.64,-90.59 869.64,-113.41 811.02,-129.55 728.12,-129.55 669.5,-113.41 669.5,-90.59 728.12,-74.45 811.02,-74.45 869.64,-90.59"/>
<polygon fill="none" stroke="black" points="873.64,-87.54 873.64,-116.46 811.56,-133.55 727.58,-133.55 665.5,-116.46 665.5,-87.54 727.58,-70.45 811.56,-70.45 873.64,-87.54"/>
<text xml:space="preserve" text-anchor="start" x="712.2" y="-103.7" font-family="Sans-Serif" font-size="14.00"> MatrixState</text>
<text xml:space="preserve" text-anchor="start" x="784.95" y="-103.7" font-family="Sans-Serif" font-style="italic" baseline-shift="sub" font-size="14.00">values</text>
<text xml:space="preserve" text-anchor="start" x="819.45" y="-103.7" font-family="Sans-Serif" font-size="14.00">  </text>
<text xml:space="preserve" text-anchor="start" x="767.7" y="-89.7" font-family="Sans-Serif" font-size="14.00"> </text>
</g>
<!-- M3 -->
<g id="node7" class="node">
<title>M3</title>
<g id="a_node7"><a xlink:href="#../DataAxesFormats.Queries.MATRIX_OPERATION" xlink:title="MATRIX OPERATION">
<polygon fill="none" stroke="black" points="845.82,-52 693.32,-52 693.32,-48 689.32,-48 689.32,-44 693.32,-44 693.32,-24 689.32,-24 689.32,-20 693.32,-20 693.32,-16 845.82,-16 845.82,-52"/>
<polyline fill="none" stroke="black" points="693.32,-48 697.32,-48 697.32,-44 693.32,-44"/>
<polyline fill="none" stroke="black" points="693.32,-24 697.32,-24 697.32,-20 693.32,-20"/>
<text xml:space="preserve" text-anchor="middle" x="769.57" y="-28.2" font-family="Sans-Serif" font-size="14.00">MATRIX OPERATION</text>
</a>
</g>
</g>
<!-- Matrix_values&#45;&gt;M3 -->
<g id="edge7" class="edge">
<title>Matrix_values&#45;&gt;M3</title>
<path fill="none" stroke="black" d="M824.94,-74.06C827.86,-69.19 827.26,-64.33 823.15,-59.46"/>
<polygon fill="black" stroke="black" points="825.69,-57.02 815.77,-53.3 821.2,-62.39 825.69,-57.02"/>
</g>
<!-- Vector_data -->
<g id="node2" class="node">
<title>Vector_data</title>
<polygon fill="none" stroke="black" points="181.62,-52 16.38,-52 16.38,-16 181.62,-16 181.62,-52"/>
<text xml:space="preserve" text-anchor="start" x="24.38" y="-35.7" font-family="Sans-Serif" font-size="14.00"> VectorState</text>
<text xml:space="preserve" text-anchor="start" x="98.62" y="-35.7" font-family="Sans-Serif" font-style="italic" baseline-shift="sub" font-size="14.00">values</text>
<text xml:space="preserve" text-anchor="start" x="133.12" y="-35.7" font-family="Sans-Serif" font-style="italic" font-size="14.00">or</text>
<text xml:space="preserve" text-anchor="start" x="145.12" y="-35.7" font-family="Sans-Serif" font-style="italic" baseline-shift="sub" font-size="14.00">axis</text>
<text xml:space="preserve" text-anchor="start" x="166.12" y="-35.7" font-family="Sans-Serif" font-size="14.00">  </text>
<text xml:space="preserve" text-anchor="start" x="97.12" y="-21.7" font-family="Sans-Serif" font-size="14.00"> </text>
</g>
<!-- M1 -->
<g id="node4" class="node">
<title>M1</title>
<polygon fill="none" stroke="black" stroke-dasharray="1,5" points="473.25,-134.25 218,-134.25 218,-43.75 473.25,-43.75 473.25,-134.25"/>
<text xml:space="preserve" text-anchor="start" x="271.38" y="-116.95" font-family="Courier,monospace" font-size="14.00">:: matrix_property</text>
<text xml:space="preserve" text-anchor="start" x="279.62" y="-100.45" font-family="Courier,monospace" font-size="14.00" fill="gray">|| default_value</text>
<text xml:space="preserve" text-anchor="start" x="341.5" y="-83.95" font-family="Courier,monospace" font-size="14.00"> </text>
<text xml:space="preserve" text-anchor="start" x="226" y="-67.45" font-family="Courier,monospace" font-size="14.00">LookupMatrix(vector_property)</text>
<text xml:space="preserve" text-anchor="start" x="234.25" y="-50.95" font-family="Courier,monospace" font-size="14.00" fill="gray">|&gt; IfMissing(default_value)</text>
</g>
<!-- Vector_data&#45;&gt;M1 -->
<!-- M2 -->
<g id="node6" class="node">
<title>M2</title>
<g id="a_node6"><a xlink:href="#../DataAxesFormats.Queries.MATRIX_COUNT" xlink:title="MATRIX COUNT">
<polygon fill="none" stroke="black" points="629.5,-55 509.25,-55 509.25,-51 505.25,-51 505.25,-47 509.25,-47 509.25,-27 505.25,-27 505.25,-23 509.25,-23 509.25,-19 629.5,-19 629.5,-55"/>
<polyline fill="none" stroke="black" points="509.25,-51 513.25,-51 513.25,-47 509.25,-47"/>
<polyline fill="none" stroke="black" points="509.25,-27 513.25,-27 513.25,-23 509.25,-23"/>
<text xml:space="preserve" text-anchor="middle" x="569.38" y="-31.2" font-family="Sans-Serif" font-size="14.00">MATRIX COUNT</text>
</a>
</g>
</g>
<!-- Vector_data&#45;&gt;M2 -->
<g id="edge4" class="edge">
<title>Vector_data&#45;&gt;M2:w</title>
<path fill="none" stroke="black" d="M181.94,-32.98C257.57,-32.33 373.01,-32.08 473.25,-35 484.64,-35.33 489.93,-36.2 497.8,-36.68"/>
<polygon fill="black" stroke="black" points="497.64,-40.18 507.74,-36.96 497.84,-33.18 497.64,-40.18"/>
</g>
<!-- Matrix_axes -->
<g id="node3" class="node">
<title>Matrix_axes</title>
<polygon fill="none" stroke="black" points="182,-134 16,-134 16,-70 182,-70 182,-134"/>
<text xml:space="preserve" text-anchor="start" x="33.75" y="-117.7" font-family="Sans-Serif" font-size="14.00">VectorState</text>
<text xml:space="preserve" text-anchor="start" x="104.25" y="-117.7" font-family="Sans-Serif" font-style="italic" baseline-shift="sub" font-size="14.00">rows axis</text>
<text xml:space="preserve" text-anchor="start" x="153" y="-117.7" font-family="Sans-Serif" font-size="14.00">   </text>
<text xml:space="preserve" text-anchor="start" x="97.12" y="-103.7" font-family="Sans-Serif" font-size="14.00"> </text>
<text xml:space="preserve" text-anchor="start" x="24" y="-89.7" font-family="Sans-Serif" font-size="14.00">VectorState</text>
<text xml:space="preserve" text-anchor="start" x="94.5" y="-89.7" font-family="Sans-Serif" font-style="italic" baseline-shift="sub" font-size="14.00">columns axis</text>
<text xml:space="preserve" text-anchor="start" x="162.75" y="-89.7" font-family="Sans-Serif" font-size="14.00">   </text>
<text xml:space="preserve" text-anchor="start" x="97.12" y="-75.7" font-family="Sans-Serif" font-size="14.00"> </text>
</g>
<!-- Matrix_axes&#45;&gt;M1 -->
<g id="edge2" class="edge">
<title>Matrix_axes&#45;&gt;M1:w</title>
<path fill="none" stroke="black" d="M182.4,-90.59C190.5,-89.93 198.7,-89.43 206.75,-89.18"/>
<polygon fill="black" stroke="black" points="206.54,-92.69 216.49,-89.02 206.43,-85.69 206.54,-92.69"/>
</g>
<!-- M1_ -->
<g id="node5" class="node">
<title>M1_</title>
<polygon fill="none" stroke="black" points="607.75,-107 519,-107 519,-83 607.75,-83 619.75,-95 607.75,-107"/>
<text xml:space="preserve" text-anchor="middle" x="569.38" y="-89.2" font-family="Sans-Serif" font-size="14.00">lookup matrix </text>
</g>
<!-- M1&#45;&gt;M1_ -->
<g id="edge1" class="edge">
<title>M1:e&#45;&gt;M1_:w</title>
<path fill="none" stroke="black" d="M473.25,-89C488.76,-89 494.94,-92.66 506.37,-94.26"/>
<polygon fill="black" stroke="black" points="505.81,-97.73 516.02,-94.9 506.27,-90.75 505.81,-97.73"/>
</g>
<!-- M1&#45;&gt;M2 -->
<!-- M1_&#45;&gt;Matrix_values -->
<g id="edge3" class="edge">
<title>M1_:e&#45;&gt;Matrix_values</title>
<path fill="none" stroke="black" d="M621.22,-95C631.77,-95 642.74,-95.18 653.72,-95.49"/>
<polygon fill="black" stroke="black" points="653.53,-98.98 663.64,-95.8 653.75,-91.98 653.53,-98.98"/>
</g>
<!-- M2&#45;&gt;Matrix_values -->
<g id="edge6" class="edge">
<title>M2:e&#45;&gt;Matrix_values</title>
<path fill="none" stroke="black" d="M629.5,-37C648.73,-37 648.47,-52.06 665.5,-61 673.44,-65.17 681.9,-69.18 690.43,-72.94"/>
<polygon fill="black" stroke="black" points="688.88,-76.09 699.45,-76.82 691.65,-69.66 688.88,-76.09"/>
</g>
<!-- M2&#45;&gt;M3 -->
<!-- M3&#45;&gt;Matrix_values -->
<g id="edge8" class="edge">
<title>M3&#45;&gt;Matrix_values</title>
<path fill="none" stroke="black" d="M724.53,-52.33C719.09,-55.84 715.48,-59.35 713.69,-62.85"/>
<polygon fill="black" stroke="black" points="710.18,-62.72 714.13,-72.55 717.18,-62.4 710.18,-62.72"/>
</g>
</g>
</svg>
