<?xml version="1.0" encoding="UTF-8" standalone="no"?>
<!DOCTYPE svg PUBLIC "-//W3C//DTD SVG 1.1//EN"
 "http://www.w3.org/Graphics/SVG/1.1/DTD/svg11.dtd">
<!-- Generated by graphviz version 14.1.1 (20251213.1925)
 -->
<!-- Pages: 1 -->
<svg width="1000pt" height="707pt"
 viewBox="0.00 0.00 1000.00 707.00" xmlns="http://www.w3.org/2000/svg" xmlns:xlink="http://www.w3.org/1999/xlink">
<g id="graph0" class="graph" transform="scale(1 1) rotate(0) translate(4 703)">
<polygon fill="white" stroke="none" points="-4,4 -4,-703 995.75,-703 995.75,4 -4,4"/>
<g id="clust1" class="cluster">
<title>cluster_all</title>
<polygon fill="none" stroke="black" points="145.25,-8 145.25,-691 833,-691 833,-8 145.25,-8"/>
<text xml:space="preserve" text-anchor="middle" x="267.25" y="-660.4" font-family="Sans-Serif" font-size="28.00">MATRIX LOOKUP</text>
</g>
<!-- Matrix_axis -->
<g id="node1" class="node">
<title>Matrix_axis</title>
<polygon fill="none" stroke="black" points="117.25,-374 0,-374 0,-338 117.25,-338 117.25,-374"/>
<text xml:space="preserve" text-anchor="start" x="8" y="-357.7" font-family="Sans-Serif" font-size="14.00"> MatrixState</text>
<text xml:space="preserve" text-anchor="start" x="80.75" y="-357.7" font-family="Sans-Serif" font-style="italic" baseline-shift="sub" font-size="14.00">axis</text>
<text xml:space="preserve" text-anchor="start" x="101.75" y="-357.7" font-family="Sans-Serif" font-size="14.00">  </text>
<text xml:space="preserve" text-anchor="start" x="56.75" y="-343.7" font-family="Sans-Serif" font-size="14.00"> </text>
</g>
<!-- ML1 -->
<g id="node3" class="node">
<title>ML1</title>
<polygon fill="none" stroke="black" stroke-dasharray="1,5" points="470.38,-172.25 215.12,-172.25 215.12,-15.75 470.38,-15.75 470.38,-172.25"/>
<text xml:space="preserve" text-anchor="start" x="285" y="-154.95" font-family="Courier,monospace" font-size="14.00" fill="gray">?? final_value</text>
<text xml:space="preserve" text-anchor="start" x="268.5" y="-138.45" font-family="Courier,monospace" font-size="14.00">:: matrix_property</text>
<text xml:space="preserve" text-anchor="start" x="276.75" y="-121.95" font-family="Courier,monospace" font-size="14.00" fill="gray">|| default_value</text>
<text xml:space="preserve" text-anchor="start" x="297.38" y="-105.45" font-family="Courier,monospace" font-size="14.00">@&#45; row_name</text>
<text xml:space="preserve" text-anchor="start" x="338.62" y="-88.95" font-family="Courier,monospace" font-size="14.00"> </text>
<text xml:space="preserve" text-anchor="start" x="247.88" y="-72.45" font-family="Courier,monospace" font-size="14.00" fill="gray">IfEmpty(final_value) |&gt;</text>
<text xml:space="preserve" text-anchor="start" x="223.12" y="-55.95" font-family="Courier,monospace" font-size="14.00">LookupMatrix(matrix_property)</text>
<text xml:space="preserve" text-anchor="start" x="231.38" y="-39.45" font-family="Courier,monospace" font-size="14.00" fill="gray">|&gt; IfMissing(default_value)</text>
<text xml:space="preserve" text-anchor="start" x="247.88" y="-22.95" font-family="Courier,monospace" font-size="14.00">|&gt; RowIsEqual(row_name)</text>
</g>
<!-- Matrix_axis&#45;&gt;ML1 -->
<g id="edge5" class="edge">
<title>Matrix_axis&#45;&gt;ML1:w</title>
<path fill="none" stroke="black" d="M61.56,-337.58C68.68,-279.98 98.7,-106.43 202.79,-94.63"/>
<polygon fill="black" stroke="black" points="202.82,-98.14 212.61,-94.08 202.43,-91.15 202.82,-98.14"/>
</g>
<!-- ML2 -->
<g id="node5" class="node">
<title>ML2</title>
<polygon fill="none" stroke="black" stroke-dasharray="1,5" points="470.38,-347.25 215.12,-347.25 215.12,-190.75 470.38,-190.75 470.38,-347.25"/>
<text xml:space="preserve" text-anchor="start" x="285" y="-329.95" font-family="Courier,monospace" font-size="14.00" fill="gray">?? final_value</text>
<text xml:space="preserve" text-anchor="start" x="268.5" y="-313.45" font-family="Courier,monospace" font-size="14.00">:: matrix_property</text>
<text xml:space="preserve" text-anchor="start" x="276.75" y="-296.95" font-family="Courier,monospace" font-size="14.00" fill="gray">|| default_value</text>
<text xml:space="preserve" text-anchor="start" x="285" y="-280.45" font-family="Courier,monospace" font-size="14.00">@| column_name</text>
<text xml:space="preserve" text-anchor="start" x="338.62" y="-263.95" font-family="Courier,monospace" font-size="14.00"> </text>
<text xml:space="preserve" text-anchor="start" x="247.88" y="-247.45" font-family="Courier,monospace" font-size="14.00" fill="gray">IfEmpty(final_value) |&gt;</text>
<text xml:space="preserve" text-anchor="start" x="223.12" y="-230.95" font-family="Courier,monospace" font-size="14.00">LookupMatrix(matrix_property)</text>
<text xml:space="preserve" text-anchor="start" x="231.38" y="-214.45" font-family="Courier,monospace" font-size="14.00" fill="gray">|&gt; IfMissing(default_value)</text>
<text xml:space="preserve" text-anchor="start" x="223.12" y="-197.95" font-family="Courier,monospace" font-size="14.00">|&gt; ColumnIsEqual(column_name)</text>
</g>
<!-- Matrix_axis&#45;&gt;ML2 -->
<g id="edge6" class="edge">
<title>Matrix_axis&#45;&gt;ML2:w</title>
<path fill="none" stroke="black" d="M77.74,-337.55C102.99,-313.76 151.48,-274.8 202.79,-269.58"/>
<polygon fill="black" stroke="black" points="202.81,-273.09 212.61,-269.08 202.45,-266.1 202.81,-273.09"/>
</g>
<!-- ML3 -->
<g id="node7" class="node">
<title>ML3</title>
<polygon fill="none" stroke="black" stroke-dasharray="1,5" points="532.25,-522.25 153.25,-522.25 153.25,-365.75 532.25,-365.75 532.25,-522.25"/>
<text xml:space="preserve" text-anchor="start" x="285" y="-504.95" font-family="Courier,monospace" font-size="14.00" fill="gray">?? final_value</text>
<text xml:space="preserve" text-anchor="start" x="268.5" y="-488.45" font-family="Courier,monospace" font-size="14.00">:: matrix_property</text>
<text xml:space="preserve" text-anchor="start" x="276.75" y="-471.95" font-family="Courier,monospace" font-size="14.00" fill="gray">|| default_value</text>
<text xml:space="preserve" text-anchor="start" x="231.38" y="-455.45" font-family="Courier,monospace" font-size="14.00">@ column_axis = column_name</text>
<text xml:space="preserve" text-anchor="start" x="338.62" y="-438.95" font-family="Courier,monospace" font-size="14.00"> </text>
<text xml:space="preserve" text-anchor="start" x="247.88" y="-422.45" font-family="Courier,monospace" font-size="14.00" fill="gray">IfEmpty(final_value) |&gt;</text>
<text xml:space="preserve" text-anchor="start" x="223.12" y="-405.95" font-family="Courier,monospace" font-size="14.00">LookupMatrix(matrix_property)</text>
<text xml:space="preserve" text-anchor="start" x="231.38" y="-389.45" font-family="Courier,monospace" font-size="14.00" fill="gray">|&gt; IfMissing(default_value)</text>
<text xml:space="preserve" text-anchor="start" x="161.25" y="-372.95" font-family="Courier,monospace" font-size="14.00">|&gt; Axis(column_axis) |&gt; IsEqual(column_name)</text>
</g>
<!-- Matrix_axis&#45;&gt;ML3 -->
<g id="edge7" class="edge">
<title>Matrix_axis&#45;&gt;ML3:w</title>
<path fill="none" stroke="black" d="M68.48,-374.23C81.12,-397.59 106.68,-435.91 141.24,-442.89"/>
<polygon fill="black" stroke="black" points="140.44,-446.33 150.74,-443.85 141.15,-439.36 140.44,-446.33"/>
</g>
<!-- ML4 -->
<g id="node9" class="node">
<title>ML4</title>
<polygon fill="none" stroke="black" stroke-dasharray="1,5" points="470.38,-646 215.12,-646 215.12,-540 470.38,-540 470.38,-646"/>
<text xml:space="preserve" text-anchor="start" x="280.88" y="-629.7" font-family="Courier,monospace" font-size="14.00"> </text>
<text xml:space="preserve" text-anchor="start" x="289.12" y="-629.7" font-family="Courier,monospace" font-size="14.00" fill="gray">?? final_value</text>
<text xml:space="preserve" text-anchor="start" x="272.62" y="-615.7" font-family="Courier,monospace" font-size="14.00">: vector_property</text>
<text xml:space="preserve" text-anchor="start" x="276.75" y="-601.7" font-family="Courier,monospace" font-size="14.00" fill="gray">|| default_value</text>
<text xml:space="preserve" text-anchor="start" x="338.62" y="-587.7" font-family="Courier,monospace" font-size="14.00"> </text>
<text xml:space="preserve" text-anchor="start" x="247.88" y="-573.7" font-family="Courier,monospace" font-size="14.00" fill="gray">IfEmpty(final_value) |&gt;</text>
<text xml:space="preserve" text-anchor="start" x="223.12" y="-559.7" font-family="Courier,monospace" font-size="14.00">LookupVector(vector_property)</text>
<text xml:space="preserve" text-anchor="start" x="231.38" y="-545.7" font-family="Courier,monospace" font-size="14.00" fill="gray">|&gt; IfMissing(default_value)</text>
</g>
<!-- Matrix_axis&#45;&gt;ML4 -->
<g id="edge8" class="edge">
<title>Matrix_axis&#45;&gt;ML4:w</title>
<path fill="none" stroke="black" d="M62.45,-374.2C71.84,-427.64 107,-581.03 202.78,-592.34"/>
<polygon fill="black" stroke="black" points="202.43,-595.82 212.61,-592.91 202.83,-588.84 202.43,-595.82"/>
</g>
<!-- Matrix_values -->
<g id="node2" class="node">
<title>Matrix_values</title>
<polygon fill="none" stroke="black" points="991.75,-374 861,-374 861,-338 991.75,-338 991.75,-374"/>
<text xml:space="preserve" text-anchor="start" x="869" y="-357.7" font-family="Sans-Serif" font-size="14.00"> MatrixState</text>
<text xml:space="preserve" text-anchor="start" x="941.75" y="-357.7" font-family="Sans-Serif" font-style="italic" baseline-shift="sub" font-size="14.00">values</text>
<text xml:space="preserve" text-anchor="start" x="976.25" y="-357.7" font-family="Sans-Serif" font-size="14.00">  </text>
<text xml:space="preserve" text-anchor="start" x="924.5" y="-343.7" font-family="Sans-Serif" font-size="14.00"> </text>
</g>
<!-- ML1_ -->
<g id="node4" class="node">
<title>ML1_</title>
<polygon fill="none" stroke="black" points="801.75,-181 579.5,-181 579.5,-157 801.75,-157 813.75,-169 801.75,-181"/>
<text xml:space="preserve" text-anchor="middle" x="696.62" y="-163.2" font-family="Sans-Serif" font-size="14.00">lookup square matrix row by matrix  </text>
</g>
<!-- ML1&#45;&gt;ML1_ -->
<g id="edge1" class="edge">
<title>ML1:e&#45;&gt;ML1_:w</title>
<path fill="none" stroke="black" d="M471.38,-94C525.24,-94 521.04,-158.82 566.74,-167.94"/>
<polygon fill="black" stroke="black" points="566.22,-171.41 576.5,-168.86 566.87,-164.44 566.22,-171.41"/>
</g>
<!-- ML1_&#45;&gt;Matrix_values -->
<g id="edge9" class="edge">
<title>ML1_:e&#45;&gt;Matrix_values</title>
<path fill="none" stroke="black" d="M815.24,-169C887.42,-169 913.25,-273.72 921.68,-326.43"/>
<polygon fill="black" stroke="black" points="918.2,-326.85 923.12,-336.23 925.12,-325.83 918.2,-326.85"/>
</g>
<!-- ML2_ -->
<g id="node6" class="node">
<title>ML2_</title>
<polygon fill="none" stroke="black" points="813,-311 568.25,-311 568.25,-287 813,-287 825,-299 813,-311"/>
<text xml:space="preserve" text-anchor="middle" x="696.62" y="-293.2" font-family="Sans-Serif" font-size="14.00">lookup square matrix column by matrix  </text>
</g>
<!-- ML2&#45;&gt;ML2_ -->
<g id="edge2" class="edge">
<title>ML2:e&#45;&gt;ML2_:w</title>
<path fill="none" stroke="black" d="M471.38,-269C512.4,-269 521.66,-293.85 556.97,-298.32"/>
<polygon fill="black" stroke="black" points="556.55,-301.8 566.74,-298.91 556.97,-294.81 556.55,-301.8"/>
</g>
<!-- ML2_&#45;&gt;Matrix_values -->
<g id="edge10" class="edge">
<title>ML2_:e&#45;&gt;Matrix_values</title>
<path fill="none" stroke="black" d="M826.21,-299C853.34,-299 879.76,-315.24 898.5,-330.38"/>
<polygon fill="black" stroke="black" points="896.01,-332.86 905.9,-336.67 900.55,-327.53 896.01,-332.86"/>
</g>
<!-- ML3_ -->
<g id="node8" class="node">
<title>ML3_</title>
<polygon fill="none" stroke="black" points="790.5,-425 590.75,-425 590.75,-401 790.5,-401 802.5,-413 790.5,-425"/>
<text xml:space="preserve" text-anchor="middle" x="696.62" y="-407.2" font-family="Sans-Serif" font-size="14.00">lookup matrix column by matrix  </text>
</g>
<!-- ML3&#45;&gt;ML3_ -->
<g id="edge3" class="edge">
<title>ML3:e&#45;&gt;ML3_:w</title>
<path fill="none" stroke="black" d="M532.25,-444C556.71,-444 559.96,-421.73 577.96,-414.94"/>
<polygon fill="black" stroke="black" points="578.55,-418.39 587.81,-413.26 577.37,-411.49 578.55,-418.39"/>
</g>
<!-- ML3_&#45;&gt;Matrix_values -->
<g id="edge11" class="edge">
<title>ML3_:e&#45;&gt;Matrix_values</title>
<path fill="none" stroke="black" d="M803.95,-413C836.35,-413 869.39,-396.17 892.82,-380.79"/>
<polygon fill="black" stroke="black" points="894.71,-383.74 900.99,-375.2 890.76,-377.96 894.71,-383.74"/>
</g>
<!-- ML4_ -->
<g id="node10" class="node">
<title>ML4_</title>
<polygon fill="none" stroke="black" points="766.12,-557 615.12,-557 615.12,-533 766.12,-533 778.12,-545 766.12,-557"/>
<text xml:space="preserve" text-anchor="middle" x="696.62" y="-539.2" font-family="Sans-Serif" font-size="14.00">lookup vector by matrix  </text>
</g>
<!-- ML4&#45;&gt;ML4_ -->
<g id="edge4" class="edge">
<title>ML4:e&#45;&gt;ML4_:w</title>
<path fill="none" stroke="black" d="M471.38,-593C534.25,-593 545.76,-550.46 602.62,-545.48"/>
<polygon fill="black" stroke="black" points="602.43,-548.99 612.27,-545.06 602.13,-541.99 602.43,-548.99"/>
</g>
<!-- ML4_&#45;&gt;Matrix_values -->
<g id="edge12" class="edge">
<title>ML4_:e&#45;&gt;Matrix_values</title>
<path fill="none" stroke="black" d="M779.47,-545C859.22,-545 901.5,-438.26 917.6,-385.21"/>
<polygon fill="black" stroke="black" points="920.87,-386.5 920.3,-375.92 914.15,-384.55 920.87,-386.5"/>
</g>
</g>
</svg>
