<?xml version="1.0" encoding="UTF-8" standalone="no"?>
<!DOCTYPE svg PUBLIC "-//W3C//DTD SVG 1.1//EN"
 "http://www.w3.org/Graphics/SVG/1.1/DTD/svg11.dtd">
<!-- Generated by graphviz version 2.40.1 (0)
 -->
<!-- Title: %3 Pages: 1 -->
<svg width="684pt" height="204pt"
 viewBox="0.00 0.00 684.00 204.00" xmlns="http://www.w3.org/2000/svg" xmlns:xlink="http://www.w3.org/1999/xlink">
<g id="graph0" class="graph" transform="scale(1 1) rotate(0) translate(4 200)">
<title>%3</title>
<polygon fill="#ffffff" stroke="transparent" points="-4,4 -4,-200 680,-200 680,4 -4,4"/>
<g id="clust1" class="cluster">
<title>cluster_all</title>
<polygon fill="none" stroke="#000000" points="160,-8 160,-188 529,-188 529,-8 160,-8"/>
<text text-anchor="middle" x="277" y="-161.6" font-family="Sans-Serif" font-size="28.00" fill="#000000">MATRIX AS AXIS</text>
</g>
<!-- Matrix_values -->
<g id="node1" class="node">
<title>Matrix_values</title>
<polygon fill="none" stroke="#000000" points="132,-96 0,-96 0,-60 132,-60 132,-96"/>
<text text-anchor="start" x="8" y="-81.8" font-family="Sans-Serif" font-size="14.00" fill="#000000"> MatrixState</text>
<text text-anchor="start" x="81" y="-81.8" font-family="Sans-Serif" font-style="italic" baseline-shift="sub" font-size="14.00" fill="#000000">values</text>
<text text-anchor="start" x="116" y="-81.8" font-family="Sans-Serif" font-size="14.00" fill="#000000">  </text>
<text text-anchor="start" x="64" y="-67.8" font-family="Sans-Serif" font-size="14.00" fill="#000000"> </text>
</g>
<!-- MAA1 -->
<g id="node3" class="node">
<title>MAA1</title>
<polygon fill="none" stroke="#000000" stroke-dasharray="1,5" points="267,-140.5 168,-140.5 168,-87.5 267,-87.5 267,-140.5"/>
<text text-anchor="start" x="192.5" y="-125.3" font-family="Courier,monospace" font-size="14.00" fill="#000000">@ axis</text>
<text text-anchor="start" x="213" y="-110.3" font-family="Courier,monospace" font-size="14.00" fill="#000000"> </text>
<text text-anchor="start" x="176" y="-95.3" font-family="Courier,monospace" font-size="14.00" fill="#000000">Axis(axis)</text>
</g>
<!-- Matrix_values&#45;&gt;MAA1 -->
<g id="edge3" class="edge">
<title>Matrix_values&#45;&gt;MAA1:w</title>
<path fill="none" stroke="#000000" d="M99.2564,-96.2109C115.8705,-103.8844 136.7922,-111.5068 157.4184,-113.4988"/>
<polygon fill="#000000" stroke="#000000" points="157.3385,-116.9991 167.5,-114 157.6861,-110.0077 157.3385,-116.9991"/>
</g>
<!-- MAA2 -->
<g id="node5" class="node">
<title>MAA2</title>
<polygon fill="none" stroke="#000000" stroke-dasharray="1,5" points="250.5,-69.5 184.5,-69.5 184.5,-16.5 250.5,-16.5 250.5,-69.5"/>
<text text-anchor="start" x="213" y="-54.3" font-family="Courier,monospace" font-size="14.00" fill="#000000">@</text>
<text text-anchor="start" x="213" y="-39.3" font-family="Courier,monospace" font-size="14.00" fill="#000000"> </text>
<text text-anchor="start" x="192.5" y="-24.3" font-family="Courier,monospace" font-size="14.00" fill="#000000">Axis()</text>
</g>
<!-- Matrix_values&#45;&gt;MAA2 -->
<g id="edge4" class="edge">
<title>Matrix_values&#45;&gt;MAA2:w</title>
<path fill="none" stroke="#000000" d="M105.998,-59.9874C125.7515,-52.4835 150.4276,-45.1055 174.3234,-43.3782"/>
<polygon fill="#000000" stroke="#000000" points="174.6369,-46.869 184.5,-43 174.3769,-39.8739 174.6369,-46.869"/>
</g>
<!-- Matrix_axis -->
<g id="node2" class="node">
<title>Matrix_axis</title>
<polygon fill="none" stroke="#000000" points="676,-96 557,-96 557,-60 676,-60 676,-96"/>
<text text-anchor="start" x="565" y="-81.8" font-family="Sans-Serif" font-size="14.00" fill="#000000"> MatrixState</text>
<text text-anchor="start" x="638" y="-81.8" font-family="Sans-Serif" font-style="italic" baseline-shift="sub" font-size="14.00" fill="#000000">axis</text>
<text text-anchor="start" x="660" y="-81.8" font-family="Sans-Serif" font-size="14.00" fill="#000000">  </text>
<text text-anchor="start" x="614.5" y="-67.8" font-family="Sans-Serif" font-size="14.00" fill="#000000"> </text>
</g>
<!-- MAA1_ -->
<g id="node4" class="node">
<title>MAA1_</title>
<polygon fill="none" stroke="#000000" points="509,-121 303,-121 303,-97 509,-97 521,-109 509,-121"/>
<text text-anchor="middle" x="412" y="-105.3" font-family="Sans-Serif" font-size="14.00" fill="#000000">matrix values are entries of axis   </text>
</g>
<!-- MAA1&#45;&gt;MAA1_ -->
<g id="edge1" class="edge">
<title>MAA1:e&#45;&gt;MAA1_:w</title>
<path fill="none" stroke="#000000" d="M267,-114C279.1152,-114 284.2212,-111.1875 292.8318,-109.7813"/>
<polygon fill="#000000" stroke="#000000" points="293.2975,-113.2559 303,-109 292.7612,-106.2764 293.2975,-113.2559"/>
</g>
<!-- MAA1_&#45;&gt;Matrix_axis -->
<g id="edge5" class="edge">
<title>MAA1_:e&#45;&gt;Matrix_axis</title>
<path fill="none" stroke="#000000" d="M521,-109C537.3012,-109 554.4365,-104.8633 569.6212,-99.6122"/>
<polygon fill="#000000" stroke="#000000" points="571.1269,-102.787 579.2897,-96.0328 568.6966,-96.2224 571.1269,-102.787"/>
</g>
<!-- MAA2_ -->
<g id="node6" class="node">
<title>MAA2_</title>
<polygon fill="none" stroke="#000000" points="489.5,-59 322.5,-59 322.5,-35 489.5,-35 501.5,-47 489.5,-59"/>
<text text-anchor="middle" x="412" y="-43.3" font-family="Sans-Serif" font-size="14.00" fill="#000000">matrix property is an axis   </text>
</g>
<!-- MAA2&#45;&gt;MAA2_ -->
<g id="edge2" class="edge">
<title>MAA2:e&#45;&gt;MAA2_:w</title>
<path fill="none" stroke="#000000" d="M250.5,-43C278.5977,-43 288.0045,-46.1174 311.7215,-46.8481"/>
<polygon fill="#000000" stroke="#000000" points="311.9493,-50.3517 322,-47 312.0529,-43.3525 311.9493,-50.3517"/>
</g>
<!-- MAA2_&#45;&gt;Matrix_axis -->
<g id="edge6" class="edge">
<title>MAA2_:e&#45;&gt;Matrix_axis</title>
<path fill="none" stroke="#000000" d="M502,-47C521.9007,-47 543.092,-51.417 561.7641,-56.9165"/>
<polygon fill="#000000" stroke="#000000" points="560.9769,-60.337 571.5653,-59.9672 563.0573,-53.6533 560.9769,-60.337"/>
</g>
</g>
</svg>
