<?xml version="1.0" encoding="UTF-8" standalone="no"?>
<!DOCTYPE svg PUBLIC "-//W3C//DTD SVG 1.1//EN"
 "http://www.w3.org/Graphics/SVG/1.1/DTD/svg11.dtd">
<!-- Generated by graphviz version 2.40.1 (0)
 -->
<!-- Title: %3 Pages: 1 -->
<svg width="1648pt" height="556pt"
 viewBox="0.00 0.00 1648.06 556.00" xmlns="http://www.w3.org/2000/svg" xmlns:xlink="http://www.w3.org/1999/xlink">
<g id="graph0" class="graph" transform="scale(1 1) rotate(0) translate(4 552)">
<title>%3</title>
<polygon fill="#ffffff" stroke="transparent" points="-4,4 -4,-552 1644.0569,-552 1644.0569,4 -4,4"/>
<g id="clust1" class="cluster">
<title>cluster_all</title>
<polygon fill="none" stroke="#000000" points="8,-8 8,-540 1632.0569,-540 1632.0569,-8 8,-8"/>
<text text-anchor="middle" x="120.5" y="-513.6" font-family="Sans-Serif" font-size="28.00" fill="#000000">MATRIX COUNT</text>
</g>
<!-- Matrix_values -->
<g id="node1" class="node">
<title>Matrix_values</title>
<polygon fill="none" stroke="#000000" points="1620.0842,-230.5678 1620.0842,-253.4322 1560.8871,-269.5997 1477.1698,-269.5997 1417.9726,-253.4322 1417.9726,-230.5678 1477.1698,-214.4003 1560.8871,-214.4003 1620.0842,-230.5678"/>
<polygon fill="none" stroke="#000000" points="1624.0853,-227.5075 1624.0853,-256.4925 1561.4229,-273.6065 1476.6339,-273.6065 1413.9716,-256.4925 1413.9716,-227.5075 1476.6339,-210.3935 1561.4229,-210.3935 1624.0853,-227.5075"/>
<text text-anchor="start" x="1461.0284" y="-245.8" font-family="Sans-Serif" font-size="14.00" fill="#000000"> MatrixState</text>
<text text-anchor="start" x="1534.0284" y="-245.8" font-family="Sans-Serif" font-style="italic" baseline-shift="sub" font-size="14.00" fill="#000000">values</text>
<text text-anchor="start" x="1569.0284" y="-245.8" font-family="Sans-Serif" font-size="14.00" fill="#000000">  </text>
<text text-anchor="start" x="1517.0284" y="-231.8" font-family="Sans-Serif" font-size="14.00" fill="#000000"> </text>
</g>
<!-- Vector_data -->
<g id="node2" class="node">
<title>Vector_data</title>
<polygon fill="none" stroke="#000000" points="187,-287 16,-287 16,-251 187,-251 187,-287"/>
<text text-anchor="start" x="24" y="-272.8" font-family="Sans-Serif" font-size="14.00" fill="#000000"> VectorState</text>
<text text-anchor="start" x="98" y="-272.8" font-family="Sans-Serif" font-style="italic" baseline-shift="sub" font-size="14.00" fill="#000000">values</text>
<text text-anchor="start" x="133" y="-272.8" font-family="Sans-Serif" font-style="italic" font-size="14.00" fill="#000000">or </text>
<text text-anchor="start" x="149" y="-272.8" font-family="Sans-Serif" font-style="italic" baseline-shift="sub" font-size="14.00" fill="#000000">axis</text>
<text text-anchor="start" x="171" y="-272.8" font-family="Sans-Serif" font-size="14.00" fill="#000000">  </text>
<text text-anchor="start" x="99.5" y="-258.8" font-family="Sans-Serif" font-size="14.00" fill="#000000"> </text>
</g>
<!-- MC1 -->
<g id="node4" class="node">
<title>MC1</title>
<polygon fill="none" stroke="#000000" stroke-dasharray="1,5" points="540.5,-129.5 301.5,-129.5 301.5,-16.5 540.5,-16.5 540.5,-129.5"/>
<text text-anchor="start" x="350.5" y="-114.3" font-family="Courier,monospace" font-size="14.00" fill="#000000">* matrix_property</text>
<text text-anchor="start" x="354.5" y="-99.3" font-family="Courier,monospace" font-size="14.00" fill="#c0c0c0">|| default_value</text>
<text text-anchor="start" x="371" y="-84.3" font-family="Courier,monospace" font-size="14.00" fill="#000000">@&#45; row_value</text>
<text text-anchor="start" x="416.5" y="-69.3" font-family="Courier,monospace" font-size="14.00" fill="#000000"> </text>
<text text-anchor="start" x="321.5" y="-54.3" font-family="Courier,monospace" font-size="14.00" fill="#000000">CountBy(matrix_property)</text>
<text text-anchor="start" x="309.5" y="-39.3" font-family="Courier,monospace" font-size="14.00" fill="#c0c0c0">|&gt; IfMissing(default_value)</text>
<text text-anchor="start" x="321.5" y="-24.3" font-family="Courier,monospace" font-size="14.00" fill="#000000">|&gt; RowIsEqual(row_value)</text>
</g>
<!-- Vector_data&#45;&gt;MC1 -->
<g id="edge15" class="edge">
<title>Vector_data&#45;&gt;MC1:w</title>
<path fill="none" stroke="#000000" d="M109.2593,-250.9121C130.669,-204.0491 195.3735,-81.7506 290.7585,-73.4451"/>
<polygon fill="#000000" stroke="#000000" points="291.1614,-76.931 301,-73 290.8574,-69.9376 291.1614,-76.931"/>
</g>
<!-- MC2 -->
<g id="node6" class="node">
<title>MC2</title>
<polygon fill="none" stroke="#000000" stroke-dasharray="1,5" points="553,-260.5 289,-260.5 289,-147.5 553,-147.5 553,-260.5"/>
<text text-anchor="start" x="350.5" y="-245.3" font-family="Courier,monospace" font-size="14.00" fill="#000000">* matrix_property</text>
<text text-anchor="start" x="354.5" y="-230.3" font-family="Courier,monospace" font-size="14.00" fill="#c0c0c0">|| default_value</text>
<text text-anchor="start" x="359" y="-215.3" font-family="Courier,monospace" font-size="14.00" fill="#000000">@| column_value</text>
<text text-anchor="start" x="416.5" y="-200.3" font-family="Courier,monospace" font-size="14.00" fill="#000000"> </text>
<text text-anchor="start" x="321.5" y="-185.3" font-family="Courier,monospace" font-size="14.00" fill="#000000">CountBy(matrix_property)</text>
<text text-anchor="start" x="309.5" y="-170.3" font-family="Courier,monospace" font-size="14.00" fill="#c0c0c0">|&gt; IfMissing(default_value)</text>
<text text-anchor="start" x="297" y="-155.3" font-family="Courier,monospace" font-size="14.00" fill="#000000">|&gt; ColumnIsEqual(column_value)</text>
</g>
<!-- Vector_data&#45;&gt;MC2 -->
<g id="edge16" class="edge">
<title>Vector_data&#45;&gt;MC2:w</title>
<path fill="none" stroke="#000000" d="M132.867,-250.8939C167.0744,-232.7878 224.257,-207.2126 278.8438,-204.2776"/>
<polygon fill="#000000" stroke="#000000" points="279.0994,-207.7721 289,-204 278.9081,-200.7747 279.0994,-207.7721"/>
</g>
<!-- MC3 -->
<g id="node8" class="node">
<title>MC3</title>
<polygon fill="none" stroke="#000000" stroke-dasharray="1,5" points="619,-391.5 223,-391.5 223,-278.5 619,-278.5 619,-391.5"/>
<text text-anchor="start" x="350.5" y="-376.3" font-family="Courier,monospace" font-size="14.00" fill="#000000">* matrix_property</text>
<text text-anchor="start" x="354.5" y="-361.3" font-family="Courier,monospace" font-size="14.00" fill="#c0c0c0">|| default_value</text>
<text text-anchor="start" x="301" y="-346.3" font-family="Courier,monospace" font-size="14.00" fill="#000000">@ columns_axis = column_value</text>
<text text-anchor="start" x="416.5" y="-331.3" font-family="Courier,monospace" font-size="14.00" fill="#000000"> </text>
<text text-anchor="start" x="321.5" y="-316.3" font-family="Courier,monospace" font-size="14.00" fill="#000000">CountBy(matrix_property)</text>
<text text-anchor="start" x="309.5" y="-301.3" font-family="Courier,monospace" font-size="14.00" fill="#c0c0c0">|&gt; IfMissing(default_value)</text>
<text text-anchor="start" x="231" y="-286.3" font-family="Courier,monospace" font-size="14.00" fill="#000000">|&gt; Axis(columns_axis) |&gt; IsEqual(column_value)</text>
</g>
<!-- Vector_data&#45;&gt;MC3 -->
<g id="edge17" class="edge">
<title>Vector_data&#45;&gt;MC3:w</title>
<path fill="none" stroke="#000000" d="M120.4043,-287.0348C141.0112,-304.8968 175.9711,-330.1803 212.6268,-334.3939"/>
<polygon fill="#000000" stroke="#000000" points="212.8128,-337.9107 223,-335 213.2212,-330.9226 212.8128,-337.9107"/>
</g>
<!-- MC4 -->
<g id="node10" class="node">
<title>MC4</title>
<polygon fill="none" stroke="#000000" stroke-dasharray="1,5" points="540.5,-492.5 301.5,-492.5 301.5,-409.5 540.5,-409.5 540.5,-492.5"/>
<text text-anchor="start" x="350.5" y="-477.3" font-family="Courier,monospace" font-size="14.00" fill="#000000">* vector_property</text>
<text text-anchor="start" x="354.5" y="-462.3" font-family="Courier,monospace" font-size="14.00" fill="#c0c0c0">|| default_value</text>
<text text-anchor="start" x="416.5" y="-447.3" font-family="Courier,monospace" font-size="14.00" fill="#000000"> </text>
<text text-anchor="start" x="321.5" y="-432.3" font-family="Courier,monospace" font-size="14.00" fill="#000000">CountBy(vector_property)</text>
<text text-anchor="start" x="309.5" y="-417.3" font-family="Courier,monospace" font-size="14.00" fill="#c0c0c0">|&gt; IfMissing(default_value)</text>
</g>
<!-- Vector_data&#45;&gt;MC4 -->
<g id="edge18" class="edge">
<title>Vector_data&#45;&gt;MC4:w</title>
<path fill="none" stroke="#000000" d="M110.3056,-287.1162C133.2571,-331.5326 199.534,-442.8025 290.9122,-450.5713"/>
<polygon fill="#000000" stroke="#000000" points="290.8604,-454.0721 301,-451 291.1577,-447.0784 290.8604,-454.0721"/>
</g>
<!-- Vector_other_values -->
<g id="node3" class="node">
<title>Vector_other_values</title>
<polygon fill="none" stroke="#000000" points="1136,-315 966,-315 966,-223 1136,-223 1136,-315"/>
<text text-anchor="start" x="974" y="-300.8" font-family="Sans-Serif" font-size="14.00" fill="#000000">VectorState</text>
<text text-anchor="start" x="1044" y="-300.8" font-family="Sans-Serif" font-style="italic" baseline-shift="sub" font-size="14.00" fill="#000000">values </text>
<text text-anchor="start" x="1082" y="-300.8" font-family="Sans-Serif" font-style="italic" font-size="14.00" fill="#000000">or </text>
<text text-anchor="start" x="1098" y="-300.8" font-family="Sans-Serif" font-style="italic" baseline-shift="sub" font-size="14.00" fill="#000000">axis</text>
<text text-anchor="start" x="1120" y="-300.8" font-family="Sans-Serif" font-size="14.00" fill="#000000">  </text>
<text text-anchor="start" x="1049" y="-286.8" font-family="Sans-Serif" font-size="14.00" fill="#000000"> </text>
<text text-anchor="start" x="1025" y="-272.8" font-family="Sans-Serif" font-size="14.00" fill="#000000">CountBy</text>
<text text-anchor="start" x="1049" y="-258.8" font-family="Sans-Serif" font-size="14.00" fill="#000000"> </text>
<text text-anchor="start" x="977.5" y="-244.8" font-family="Sans-Serif" font-size="14.00" fill="#000000">VectorState</text>
<text text-anchor="start" x="1047.5" y="-244.8" font-family="Sans-Serif" font-style="italic" baseline-shift="sub" font-size="14.00" fill="#000000">other values</text>
<text text-anchor="start" x="1112.5" y="-244.8" font-family="Sans-Serif" font-size="14.00" fill="#000000">   </text>
<text text-anchor="start" x="1049" y="-230.8" font-family="Sans-Serif" font-size="14.00" fill="#000000"> </text>
</g>
<!-- MC5 -->
<g id="node12" class="node">
<title>MC5</title>
<g id="a_node12"><a xlink:href="#../DataAxesFormats.Queries.VECTOR_OPERATION" xlink:title="VECTOR OPERATION">
<polygon fill="none" stroke="#000000" points="1128,-139 974,-139 974,-135 970,-135 970,-131 974,-131 974,-111 970,-111 970,-107 974,-107 974,-103 1128,-103 1128,-139"/>
<polyline fill="none" stroke="#000000" points="974,-135 978,-135 978,-131 974,-131 "/>
<polyline fill="none" stroke="#000000" points="974,-111 978,-111 978,-107 974,-107 "/>
<text text-anchor="middle" x="1051" y="-117.3" font-family="Sans-Serif" font-size="14.00" fill="#000000">VECTOR OPERATION</text>
</a>
</g>
</g>
<!-- Vector_other_values&#45;&gt;MC5 -->
<g id="edge9" class="edge">
<title>Vector_other_values&#45;&gt;MC5</title>
<path fill="none" stroke="#000000" d="M1100.562,-222.864C1115.6056,-197.2671 1109.9198,-171.6701 1083.5045,-146.0731"/>
<polygon fill="#000000" stroke="#000000" points="1085.6882,-143.3288 1075.9264,-139.2109 1080.9897,-148.5176 1085.6882,-143.3288"/>
</g>
<!-- MC6_ -->
<g id="node13" class="node">
<title>MC6_</title>
<polygon fill="none" stroke="#000000" points="1366,-254 1172,-254 1172,-230 1366,-230 1378,-242 1366,-254"/>
<text text-anchor="start" x="1180" y="-245.8" font-family="Sans-Serif" font-size="14.00" fill="#000000"> compute count matrix </text>
<text text-anchor="start" x="1319" y="-245.8" font-family="Sans-Serif" font-style="italic" baseline-shift="sub" font-size="14.00" fill="#000000">implicit</text>
<text text-anchor="start" x="1354" y="-245.8" font-family="Sans-Serif" font-size="14.00" fill="#000000">    </text>
<text text-anchor="start" x="1271" y="-231.8" font-family="Sans-Serif" font-size="14.00" fill="#000000">  </text>
</g>
<!-- Vector_other_values&#45;&gt;MC6_ -->
<g id="edge12" class="edge">
<title>Vector_other_values&#45;&gt;MC6_:w</title>
<path fill="none" stroke="#000000" d="M1136.0806,-245.1501C1144.6835,-243.7655 1153.4158,-242.7439 1162.0028,-242.2788"/>
<polygon fill="#000000" stroke="#000000" points="1162.1015,-245.7775 1172,-242 1161.9063,-238.7802 1162.1015,-245.7775"/>
</g>
<!-- MC7 -->
<g id="node14" class="node">
<title>MC7</title>
<g id="a_node14"><a xlink:href="#../DataAxesFormats.Queries.VECTOR_AS_AXIS" xlink:title="VECTOR AS AXIS">
<polygon fill="none" stroke="#000000" points="1339,-314 1211,-314 1211,-310 1207,-310 1207,-306 1211,-306 1211,-286 1207,-286 1207,-282 1211,-282 1211,-278 1339,-278 1339,-314"/>
<polyline fill="none" stroke="#000000" points="1211,-310 1215,-310 1215,-306 1211,-306 "/>
<polyline fill="none" stroke="#000000" points="1211,-286 1215,-286 1215,-282 1211,-282 "/>
<text text-anchor="middle" x="1275" y="-292.3" font-family="Sans-Serif" font-size="14.00" fill="#000000">VECTOR AS AXIS</text>
</a>
</g>
</g>
<!-- Vector_other_values&#45;&gt;MC7 -->
<g id="edge13" class="edge">
<title>Vector_other_values&#45;&gt;MC7:w</title>
<path fill="none" stroke="#000000" d="M1136.0803,-288.7645C1156.8699,-292.3188 1179.3342,-295.1287 1200.856,-295.8306"/>
<polygon fill="#000000" stroke="#000000" points="1200.9429,-299.3324 1211,-296 1201.0599,-292.3334 1200.9429,-299.3324"/>
</g>
<!-- MC1_ -->
<g id="node5" class="node">
<title>MC1_</title>
<polygon fill="none" stroke="#000000" points="907,-133 666,-133 666,-109 907,-109 919,-121 907,-133"/>
<text text-anchor="middle" x="792.5" y="-117.3" font-family="Sans-Serif" font-size="14.00" fill="#000000">lookup square matrix row other values  </text>
</g>
<!-- MC1&#45;&gt;MC1_ -->
<g id="edge1" class="edge">
<title>MC1:e&#45;&gt;MC1_:w</title>
<path fill="none" stroke="#000000" d="M541,-73C596.7127,-73 605.2872,-115.3635 655.2918,-120.4934"/>
<polygon fill="#000000" stroke="#000000" points="655.3388,-124 665.5,-121 655.6858,-117.0086 655.3388,-124"/>
</g>
<!-- MC1_&#45;&gt;Vector_other_values -->
<g id="edge2" class="edge">
<title>MC1_:e&#45;&gt;Vector_other_values:sw</title>
<path fill="none" stroke="#000000" d="M919.5,-121C965.8188,-121 935.755,-178.7111 959.6067,-215.1352"/>
<polygon fill="#000000" stroke="#000000" points="956.9763,-217.4481 966,-223 962.4081,-213.0326 956.9763,-217.4481"/>
</g>
<!-- MC1_&#45;&gt;MC5 -->
<!-- MC2_ -->
<g id="node7" class="node">
<title>MC2_</title>
<polygon fill="none" stroke="#000000" points="918,-235 655,-235 655,-211 918,-211 930,-223 918,-235"/>
<text text-anchor="middle" x="792.5" y="-219.3" font-family="Sans-Serif" font-size="14.00" fill="#000000">lookup square matrix column other values  </text>
</g>
<!-- MC2&#45;&gt;MC2_ -->
<g id="edge3" class="edge">
<title>MC2:e&#45;&gt;MC2_:w</title>
<path fill="none" stroke="#000000" d="M553,-204C595.5105,-204 607.1379,-220.1472 644.823,-222.6702"/>
<polygon fill="#000000" stroke="#000000" points="644.8919,-226.1742 655,-223 645.1186,-219.1779 644.8919,-226.1742"/>
</g>
<!-- MC2_&#45;&gt;Vector_other_values -->
<g id="edge4" class="edge">
<title>MC2_:e&#45;&gt;Vector_other_values</title>
<path fill="none" stroke="#000000" d="M930,-223C938.6542,-223 947.4426,-224.0408 956.1291,-225.8093"/>
<polygon fill="#000000" stroke="#000000" points="955.3452,-229.2204 965.8805,-228.0986 956.9451,-222.4057 955.3452,-229.2204"/>
</g>
<!-- MC3_ -->
<g id="node9" class="node">
<title>MC3_</title>
<polygon fill="none" stroke="#000000" points="895.5,-327 677.5,-327 677.5,-303 895.5,-303 907.5,-315 895.5,-327"/>
<text text-anchor="middle" x="792.5" y="-311.3" font-family="Sans-Serif" font-size="14.00" fill="#000000">lookup matrix column other values  </text>
</g>
<!-- MC3&#45;&gt;MC3_ -->
<g id="edge5" class="edge">
<title>MC3:e&#45;&gt;MC3_:w</title>
<path fill="none" stroke="#000000" d="M619,-335C642.7208,-335 648.6058,-320.0949 667.4497,-316.0193"/>
<polygon fill="#000000" stroke="#000000" points="667.9042,-319.4912 677.5,-315 667.1978,-312.527 667.9042,-319.4912"/>
</g>
<!-- MC3_&#45;&gt;Vector_other_values -->
<g id="edge6" class="edge">
<title>MC3_:e&#45;&gt;Vector_other_values</title>
<path fill="none" stroke="#000000" d="M907.5,-315C923.5323,-315 940.112,-312.3641 956.0582,-308.3542"/>
<polygon fill="#000000" stroke="#000000" points="957.1567,-311.6829 965.8946,-305.6912 955.3274,-304.9261 957.1567,-311.6829"/>
</g>
<!-- MC4_ -->
<g id="node11" class="node">
<title>MC4_</title>
<polygon fill="none" stroke="#000000" points="871.5,-431 701.5,-431 701.5,-407 871.5,-407 883.5,-419 871.5,-431"/>
<text text-anchor="middle" x="792.5" y="-415.3" font-family="Sans-Serif" font-size="14.00" fill="#000000">lookup vector other values  </text>
</g>
<!-- MC4&#45;&gt;MC4_ -->
<g id="edge7" class="edge">
<title>MC4:e&#45;&gt;MC4_:w</title>
<path fill="none" stroke="#000000" d="M541,-451C610.1857,-451 627.1578,-422.0487 691.2445,-419.2214"/>
<polygon fill="#000000" stroke="#000000" points="691.5779,-422.7151 701.5,-419 691.4267,-415.7168 691.5779,-422.7151"/>
</g>
<!-- MC4_&#45;&gt;Vector_other_values -->
<g id="edge8" class="edge">
<title>MC4_:e&#45;&gt;Vector_other_values</title>
<path fill="none" stroke="#000000" d="M883.5,-419C942.6029,-419 990.3851,-366.5315 1019.5639,-323.6574"/>
<polygon fill="#000000" stroke="#000000" points="1022.5428,-325.4981 1025.1494,-315.2289 1016.7078,-321.6312 1022.5428,-325.4981"/>
</g>
<!-- MC5&#45;&gt;Vector_other_values -->
<g id="edge10" class="edge">
<title>MC5&#45;&gt;Vector_other_values</title>
<path fill="none" stroke="#000000" d="M1026.0736,-139.2109C996.8507,-164.0455 987.1407,-188.88 996.9436,-213.7145"/>
<polygon fill="#000000" stroke="#000000" points="993.8875,-215.4316 1001.438,-222.864 1000.1704,-212.3453 993.8875,-215.4316"/>
</g>
<!-- MC6_&#45;&gt;Matrix_values -->
<g id="edge19" class="edge">
<title>MC6_:e&#45;&gt;Matrix_values:w</title>
<path fill="none" stroke="#000000" d="M1378,-242C1390.0095,-242 1395.2636,-242 1403.8954,-242"/>
<polygon fill="#000000" stroke="#000000" points="1404.0285,-245.5001 1414.0284,-242 1404.0284,-238.5001 1404.0285,-245.5001"/>
</g>
<!-- MC7&#45;&gt;MC6_ -->
<g id="edge14" class="edge">
<title>MC7:s&#45;&gt;MC6_:n</title>
<path fill="none" stroke="#000000" d="M1275,-270.4161C1275,-272.4902 1275,-274.75 1275,-278"/>
<polygon fill="#000000" stroke="#000000" points="1278.5001,-270 1275,-260 1271.5001,-270 1278.5001,-270"/>
</g>
</g>
</svg>
