<?xml version="1.0" encoding="UTF-8" standalone="no"?>
<!DOCTYPE svg PUBLIC "-//W3C//DTD SVG 1.1//EN"
 "http://www.w3.org/Graphics/SVG/1.1/DTD/svg11.dtd">
<!-- Generated by graphviz version 14.1.1 (20251213.1925)
 -->
<!-- Pages: 1 -->
<svg width="2072pt" height="639pt"
 viewBox="0.00 0.00 2072.00 639.00" xmlns="http://www.w3.org/2000/svg" xmlns:xlink="http://www.w3.org/1999/xlink">
<g id="graph0" class="graph" transform="scale(1 1) rotate(0) translate(4 635)">
<polygon fill="white" stroke="none" points="-4,4 -4,-635 2068.25,-635 2068.25,4 -4,4"/>
<g id="clust1" class="cluster">
<title>cluster_all</title>
<polygon fill="none" stroke="black" points="188,-8 188,-623 1880.75,-623 1880.75,-8 188,-8"/>
<text xml:space="preserve" text-anchor="middle" x="302.88" y="-592.4" font-family="Sans-Serif" font-size="28.00">MATRIX GROUP</text>
</g>
<!-- Matrix_base_values -->
<g id="node1" class="node">
<title>Matrix_base_values</title>
<polygon fill="none" stroke="black" points="160,-329 0,-329 0,-293 160,-293 160,-329"/>
<text xml:space="preserve" text-anchor="start" x="8" y="-312.7" font-family="Sans-Serif" font-size="14.00">MatrixState</text>
<text xml:space="preserve" text-anchor="start" x="77" y="-312.7" font-family="Sans-Serif" font-style="italic" baseline-shift="sub" font-size="14.00">base values</text>
<text xml:space="preserve" text-anchor="start" x="140.75" y="-312.7" font-family="Sans-Serif" font-size="14.00">   </text>
<text xml:space="preserve" text-anchor="start" x="78.12" y="-298.7" font-family="Sans-Serif" font-size="14.00"> </text>
</g>
<!-- MG2 -->
<g id="node6" class="node">
<title>MG2</title>
<polygon fill="none" stroke="black" stroke-dasharray="1,5" points="585.12,-302 202.38,-302 202.38,-168 585.12,-168 585.12,-302"/>
<text xml:space="preserve" text-anchor="start" x="301.12" y="-285.7" font-family="Courier,monospace" font-size="14.00">|/</text>
<text xml:space="preserve" text-anchor="start" x="317.62" y="-285.7" font-family="Courier,monospace" font-style="italic" baseline-shift="sub" font-size="14.00">or </text>
<text xml:space="preserve" text-anchor="start" x="337.88" y="-285.7" font-family="Courier,monospace" font-size="14.00">&#45;/ matrix_property</text>
<text xml:space="preserve" text-anchor="start" x="389.62" y="-271.7" font-family="Courier,monospace" font-size="14.00"> </text>
<text xml:space="preserve" text-anchor="start" x="327.75" y="-257.7" font-family="Courier,monospace" font-size="14.00" fill="gray">|| default_value</text>
<text xml:space="preserve" text-anchor="start" x="331.88" y="-243.7" font-family="Courier,monospace" font-size="14.00">@| column_value</text>
<text xml:space="preserve" text-anchor="start" x="389.62" y="-229.7" font-family="Courier,monospace" font-size="14.00"> </text>
<text xml:space="preserve" text-anchor="start" x="210.38" y="-215.7" font-family="Courier,monospace" font-size="14.00">GroupColumnsBy</text>
<text xml:space="preserve" text-anchor="start" x="325.88" y="-215.7" font-family="Courier,monospace" font-style="italic" baseline-shift="sub" font-size="14.00">or </text>
<text xml:space="preserve" text-anchor="start" x="346.12" y="-215.7" font-family="Courier,monospace" font-size="14.00">GroupRowsBy(matrix_property)</text>
<text xml:space="preserve" text-anchor="start" x="389.62" y="-201.7" font-family="Courier,monospace" font-size="14.00"> </text>
<text xml:space="preserve" text-anchor="start" x="282.38" y="-187.7" font-family="Courier,monospace" font-size="14.00" fill="gray">|&gt; IfMissing(default_value)</text>
<text xml:space="preserve" text-anchor="start" x="270" y="-173.7" font-family="Courier,monospace" font-size="14.00">|&gt; ColumnIsEqual(column_value)</text>
</g>
<!-- Matrix_base_values&#45;&gt;MG2 -->
<g id="edge16" class="edge">
<title>Matrix_base_values&#45;&gt;MG2:w</title>
<path fill="none" stroke="black" d="M96.9,-292.6C116.38,-272.04 151.61,-240.94 190.36,-235.75"/>
<polygon fill="black" stroke="black" points="190.12,-239.27 199.86,-235.1 189.65,-232.29 190.12,-239.27"/>
</g>
<!-- MG3 -->
<g id="node8" class="node">
<title>MG3</title>
<polygon fill="none" stroke="black" stroke-dasharray="1,5" points="591.5,-454 196,-454 196,-320 591.5,-320 591.5,-454"/>
<text xml:space="preserve" text-anchor="start" x="301.12" y="-437.7" font-family="Courier,monospace" font-size="14.00">|/</text>
<text xml:space="preserve" text-anchor="start" x="317.62" y="-437.7" font-family="Courier,monospace" font-style="italic" baseline-shift="sub" font-size="14.00">or </text>
<text xml:space="preserve" text-anchor="start" x="337.88" y="-437.7" font-family="Courier,monospace" font-size="14.00">&#45;/ matrix_property</text>
<text xml:space="preserve" text-anchor="start" x="389.62" y="-423.7" font-family="Courier,monospace" font-size="14.00"> </text>
<text xml:space="preserve" text-anchor="start" x="327.75" y="-409.7" font-family="Courier,monospace" font-size="14.00" fill="gray">|| default_value</text>
<text xml:space="preserve" text-anchor="start" x="274.12" y="-395.7" font-family="Courier,monospace" font-size="14.00">@ columns_axis = column_value</text>
<text xml:space="preserve" text-anchor="start" x="389.62" y="-381.7" font-family="Courier,monospace" font-size="14.00"> </text>
<text xml:space="preserve" text-anchor="start" x="210.38" y="-367.7" font-family="Courier,monospace" font-size="14.00">GroupColumnsBy(matrix_property)</text>
<text xml:space="preserve" text-anchor="start" x="466.12" y="-367.7" font-family="Courier,monospace" font-style="italic" baseline-shift="sub" font-size="14.00">or </text>
<text xml:space="preserve" text-anchor="start" x="486.38" y="-367.7" font-family="Courier,monospace" font-size="14.00">GroupRowsBy</text>
<text xml:space="preserve" text-anchor="start" x="389.62" y="-353.7" font-family="Courier,monospace" font-size="14.00"> </text>
<text xml:space="preserve" text-anchor="start" x="282.38" y="-339.7" font-family="Courier,monospace" font-size="14.00" fill="gray">|&gt; IfMissing(default_value)</text>
<text xml:space="preserve" text-anchor="start" x="204" y="-325.7" font-family="Courier,monospace" font-size="14.00">|&gt; Axis(columns_axis) |&gt; IsEqual(column_value)</text>
</g>
<!-- Matrix_base_values&#45;&gt;MG3 -->
<g id="edge17" class="edge">
<title>Matrix_base_values&#45;&gt;MG3:w</title>
<path fill="none" stroke="black" d="M95.86,-329.4C114.03,-349.87 146.96,-380.79 183.94,-386.18"/>
<polygon fill="black" stroke="black" points="183.26,-389.64 193.49,-386.89 183.78,-382.66 183.26,-389.64"/>
</g>
<!-- Matrix_final_values -->
<g id="node2" class="node">
<title>Matrix_final_values</title>
<polygon fill="none" stroke="black" points="2064.25,-263 1908.75,-263 1908.75,-227 2064.25,-227 2064.25,-263"/>
<text xml:space="preserve" text-anchor="start" x="1916.75" y="-246.7" font-family="Sans-Serif" font-size="14.00">MatrixState</text>
<text xml:space="preserve" text-anchor="start" x="1985.75" y="-246.7" font-family="Sans-Serif" font-style="italic" baseline-shift="sub" font-size="14.00">final values</text>
<text xml:space="preserve" text-anchor="start" x="2045" y="-246.7" font-family="Sans-Serif" font-size="14.00">   </text>
<text xml:space="preserve" text-anchor="start" x="1984.62" y="-232.7" font-family="Sans-Serif" font-size="14.00"> </text>
</g>
<!-- Matrix_group_values -->
<g id="node3" class="node">
<title>Matrix_group_values</title>
<polygon fill="none" stroke="black" points="1269.25,-339 1044,-339 1044,-233 1269.25,-233 1269.25,-339"/>
<text xml:space="preserve" text-anchor="start" x="1081.62" y="-322.7" font-family="Sans-Serif" font-size="14.00">VectorState</text>
<text xml:space="preserve" text-anchor="start" x="1152.12" y="-322.7" font-family="Sans-Serif" font-style="italic" baseline-shift="sub" font-size="14.00">group values</text>
<text xml:space="preserve" text-anchor="start" x="1220.38" y="-322.7" font-family="Sans-Serif" font-size="14.00">   </text>
<text xml:space="preserve" text-anchor="start" x="1154.75" y="-308.7" font-family="Sans-Serif" font-size="14.00"> </text>
<text xml:space="preserve" text-anchor="start" x="1052" y="-294.7" font-family="Sans-Serif" font-size="14.00">GroupColumnsBy</text>
<text xml:space="preserve" text-anchor="start" x="1160" y="-294.7" font-family="Sans-Serif" font-style="italic" baseline-shift="sub" font-size="14.00">or </text>
<text xml:space="preserve" text-anchor="start" x="1173.5" y="-294.7" font-family="Sans-Serif" font-size="14.00">GroupRowsBy</text>
<text xml:space="preserve" text-anchor="start" x="1154.75" y="-280.7" font-family="Sans-Serif" font-size="14.00"> </text>
<text xml:space="preserve" text-anchor="start" x="1154.75" y="-266.7" font-family="Sans-Serif" font-size="14.00"> </text>
<text xml:space="preserve" text-anchor="start" x="1084.62" y="-252.7" font-family="Sans-Serif" font-size="14.00">MatrixState</text>
<text xml:space="preserve" text-anchor="start" x="1153.62" y="-252.7" font-family="Sans-Serif" font-style="italic" baseline-shift="sub" font-size="14.00">base values</text>
<text xml:space="preserve" text-anchor="start" x="1217.38" y="-252.7" font-family="Sans-Serif" font-size="14.00">   </text>
<text xml:space="preserve" text-anchor="start" x="1154.75" y="-238.7" font-family="Sans-Serif" font-size="14.00"> </text>
</g>
<!-- MG5 -->
<g id="node12" class="node">
<title>MG5</title>
<g id="a_node12"><a xlink:href="#../DataAxesFormats.Queries.VECTOR_OPERATION" xlink:title="VECTOR OPERATION">
<polygon fill="none" stroke="black" points="1235.12,-158 1078.12,-158 1078.12,-154 1074.12,-154 1074.12,-150 1078.12,-150 1078.12,-130 1074.12,-130 1074.12,-126 1078.12,-126 1078.12,-122 1235.12,-122 1235.12,-158"/>
<polyline fill="none" stroke="black" points="1078.12,-154 1082.12,-154 1082.12,-150 1078.12,-150"/>
<polyline fill="none" stroke="black" points="1078.12,-130 1082.12,-130 1082.12,-126 1078.12,-126"/>
<text xml:space="preserve" text-anchor="middle" x="1156.62" y="-134.2" font-family="Sans-Serif" font-size="14.00">VECTOR OPERATION</text>
</a>
</g>
</g>
<!-- Matrix_group_values&#45;&gt;MG5 -->
<g id="edge10" class="edge">
<title>Matrix_group_values&#45;&gt;MG5</title>
<path fill="none" stroke="black" d="M1211.25,-232.6C1220.9,-210.34 1214.11,-188.07 1190.89,-165.8"/>
<polygon fill="black" stroke="black" points="1193.32,-163.28 1183.51,-159.25 1188.67,-168.51 1193.32,-163.28"/>
</g>
<!-- MG6 -->
<g id="node13" class="node">
<title>MG6</title>
<polygon fill="none" stroke="black" stroke-dasharray="1,5" points="1577,-291 1305.25,-291 1305.25,-199 1577,-199 1577,-291"/>
<text xml:space="preserve" text-anchor="start" x="1323.75" y="-274.7" font-family="Courier,monospace" font-size="14.00">&gt;|</text>
<text xml:space="preserve" text-anchor="start" x="1340.25" y="-274.7" font-family="Courier,monospace" font-style="italic" baseline-shift="sub" font-size="14.00">or </text>
<text xml:space="preserve" text-anchor="start" x="1360.5" y="-274.7" font-family="Courier,monospace" font-size="14.00">&gt;&#45; Reduction </text>
<text xml:space="preserve" text-anchor="start" x="1467.75" y="-274.7" font-family="Courier,monospace" font-size="14.00" fill="gray">param value</text>
<text xml:space="preserve" text-anchor="start" x="1375.12" y="-260.7" font-family="Courier,monospace" font-size="14.00" fill="gray">|| default_value</text>
<text xml:space="preserve" text-anchor="start" x="1437" y="-246.7" font-family="Courier,monospace" font-size="14.00"> </text>
<text xml:space="preserve" text-anchor="start" x="1323.75" y="-232.7" font-family="Courier,monospace" font-size="14.00">ReduceToColumn</text>
<text xml:space="preserve" text-anchor="start" x="1439.25" y="-232.7" font-family="Courier,monospace" font-style="italic" baseline-shift="sub" font-size="14.00">or </text>
<text xml:space="preserve" text-anchor="start" x="1459.5" y="-232.7" font-family="Courier,monospace" font-size="14.00">ReduceToRows</text>
<text xml:space="preserve" text-anchor="start" x="1313.25" y="-218.7" font-family="Courier,monospace" font-size="14.00">(Reduction(</text>
<text xml:space="preserve" text-anchor="start" x="1404" y="-218.7" font-family="Courier,monospace" font-size="14.00" fill="gray">param = value, ...</text>
<text xml:space="preserve" text-anchor="start" x="1552.5" y="-218.7" font-family="Courier,monospace" font-size="14.00">))</text>
<text xml:space="preserve" text-anchor="start" x="1329.75" y="-204.7" font-family="Courier,monospace" font-size="14.00" fill="gray">|&gt; IfMissing(default_value)</text>
</g>
<!-- Matrix_group_values&#45;&gt;MG6 -->
<g id="edge13" class="edge">
<title>Matrix_group_values&#45;&gt;MG6:w</title>
<path fill="none" stroke="black" d="M1269.59,-248.22C1277.69,-246.85 1285.84,-245.86 1293.91,-245.36"/>
<polygon fill="black" stroke="black" points="1293.85,-248.86 1303.74,-245.05 1293.63,-241.87 1293.85,-248.86"/>
</g>
<!-- MG7 -->
<g id="node15" class="node">
<title>MG7</title>
<g id="a_node15"><a xlink:href="#../DataAxesFormats.Queries.VECTOR_AS_AXIS" xlink:title="VECTOR AS AXIS">
<polygon fill="none" stroke="black" points="1505.38,-345 1376.88,-345 1376.88,-341 1372.88,-341 1372.88,-337 1376.88,-337 1376.88,-317 1372.88,-317 1372.88,-313 1376.88,-313 1376.88,-309 1505.38,-309 1505.38,-345"/>
<polyline fill="none" stroke="black" points="1376.88,-341 1380.88,-341 1380.88,-337 1376.88,-337"/>
<polyline fill="none" stroke="black" points="1376.88,-317 1380.88,-317 1380.88,-313 1376.88,-313"/>
<text xml:space="preserve" text-anchor="middle" x="1441.12" y="-321.2" font-family="Sans-Serif" font-size="14.00">VECTOR AS AXIS</text>
</a>
</g>
</g>
<!-- Matrix_group_values&#45;&gt;MG7 -->
<g id="edge14" class="edge">
<title>Matrix_group_values&#45;&gt;MG7:w</title>
<path fill="none" stroke="black" d="M1269.73,-315.31C1299.82,-321.18 1332.73,-325.87 1364.12,-326.82"/>
<polygon fill="black" stroke="black" points="1364.04,-330.32 1374.09,-326.98 1364.15,-323.32 1364.04,-330.32"/>
</g>
<!-- MG1 -->
<g id="node4" class="node">
<title>MG1</title>
<polygon fill="none" stroke="black" stroke-dasharray="1,5" points="585.12,-150 202.38,-150 202.38,-16 585.12,-16 585.12,-150"/>
<text xml:space="preserve" text-anchor="start" x="301.12" y="-133.7" font-family="Courier,monospace" font-size="14.00">|/</text>
<text xml:space="preserve" text-anchor="start" x="317.62" y="-133.7" font-family="Courier,monospace" font-style="italic" baseline-shift="sub" font-size="14.00">or </text>
<text xml:space="preserve" text-anchor="start" x="337.88" y="-133.7" font-family="Courier,monospace" font-size="14.00">&#45;/ matrix_property</text>
<text xml:space="preserve" text-anchor="start" x="389.62" y="-119.7" font-family="Courier,monospace" font-size="14.00"> </text>
<text xml:space="preserve" text-anchor="start" x="327.75" y="-105.7" font-family="Courier,monospace" font-size="14.00" fill="gray">|| default_value</text>
<text xml:space="preserve" text-anchor="start" x="344.25" y="-91.7" font-family="Courier,monospace" font-size="14.00">@&#45; row_value</text>
<text xml:space="preserve" text-anchor="start" x="389.62" y="-77.7" font-family="Courier,monospace" font-size="14.00"> </text>
<text xml:space="preserve" text-anchor="start" x="210.38" y="-63.7" font-family="Courier,monospace" font-size="14.00">GroupColumnsBy</text>
<text xml:space="preserve" text-anchor="start" x="325.88" y="-63.7" font-family="Courier,monospace" font-style="italic" baseline-shift="sub" font-size="14.00">or </text>
<text xml:space="preserve" text-anchor="start" x="346.12" y="-63.7" font-family="Courier,monospace" font-size="14.00">GroupRowsBy(matrix_property)</text>
<text xml:space="preserve" text-anchor="start" x="389.62" y="-49.7" font-family="Courier,monospace" font-size="14.00"> </text>
<text xml:space="preserve" text-anchor="start" x="282.38" y="-35.7" font-family="Courier,monospace" font-size="14.00" fill="gray">|&gt; IfMissing(default_value)</text>
<text xml:space="preserve" text-anchor="start" x="294.75" y="-21.7" font-family="Courier,monospace" font-size="14.00">|&gt; RowIsEqual(row_value)</text>
</g>
<!-- MG1_ -->
<g id="node5" class="node">
<title>MG1_</title>
<polygon fill="none" stroke="black" points="984.75,-152 638.75,-152 638.75,-128 984.75,-128 996.75,-140 984.75,-152"/>
<text xml:space="preserve" text-anchor="start" x="646.75" y="-141.7" font-family="Sans-Serif" font-size="14.00">lookup square matrix row matrix columns</text>
<text xml:space="preserve" text-anchor="start" x="894.25" y="-141.7" font-family="Sans-Serif" font-style="italic" baseline-shift="sub" font-size="14.00">or </text>
<text xml:space="preserve" text-anchor="start" x="907.75" y="-141.7" font-family="Sans-Serif" font-size="14.00">rows groups  </text>
<text xml:space="preserve" text-anchor="start" x="815.88" y="-127.7" font-family="Sans-Serif" font-size="14.00"> </text>
</g>
<!-- MG1&#45;&gt;MG1_ -->
<g id="edge1" class="edge">
<title>MG1:e&#45;&gt;MG1_:w</title>
<path fill="none" stroke="black" d="M586.12,-83C615.69,-83 606.94,-125.86 626.33,-137.25"/>
<polygon fill="black" stroke="black" points="625.44,-140.64 635.99,-139.64 627.12,-133.84 625.44,-140.64"/>
</g>
<!-- MG1_&#45;&gt;Matrix_group_values -->
<g id="edge2" class="edge">
<title>MG1_:e&#45;&gt;Matrix_group_values:sw</title>
<path fill="none" stroke="black" d="M998.04,-140C1040.37,-140 1017.19,-190.35 1037.9,-224"/>
<polygon fill="black" stroke="black" points="1035.12,-226.13 1044.06,-231.81 1040.62,-221.79 1035.12,-226.13"/>
</g>
<!-- MG1_&#45;&gt;MG5 -->
<!-- MG2_ -->
<g id="node7" class="node">
<title>MG2_</title>
<polygon fill="none" stroke="black" points="996,-271 627.5,-271 627.5,-247 996,-247 1008,-259 996,-271"/>
<text xml:space="preserve" text-anchor="start" x="635.5" y="-260.7" font-family="Sans-Serif" font-size="14.00">lookup square matrix column matrix columns</text>
<text xml:space="preserve" text-anchor="start" x="905.5" y="-260.7" font-family="Sans-Serif" font-style="italic" baseline-shift="sub" font-size="14.00">or </text>
<text xml:space="preserve" text-anchor="start" x="919" y="-260.7" font-family="Sans-Serif" font-size="14.00">rows groups  </text>
<text xml:space="preserve" text-anchor="start" x="815.88" y="-246.7" font-family="Sans-Serif" font-size="14.00"> </text>
</g>
<!-- MG2&#45;&gt;MG2_ -->
<g id="edge3" class="edge">
<title>MG2:e&#45;&gt;MG2_:w</title>
<path fill="none" stroke="black" d="M586.12,-235C602.9,-235 605.73,-249.94 616.62,-256.25"/>
<polygon fill="black" stroke="black" points="615.48,-259.57 626.03,-258.63 617.2,-252.78 615.48,-259.57"/>
</g>
<!-- MG2_&#45;&gt;Matrix_group_values -->
<g id="edge4" class="edge">
<title>MG2_:e&#45;&gt;Matrix_group_values</title>
<path fill="none" stroke="black" d="M1008,-259C1015.97,-259 1024.15,-259.39 1032.36,-260.06"/>
<polygon fill="black" stroke="black" points="1031.77,-263.52 1042.07,-261.02 1032.46,-256.56 1031.77,-263.52"/>
</g>
<!-- MG3_ -->
<g id="node9" class="node">
<title>MG3_</title>
<polygon fill="none" stroke="black" points="973.5,-374 650,-374 650,-350 973.5,-350 985.5,-362 973.5,-374"/>
<text xml:space="preserve" text-anchor="start" x="658" y="-363.7" font-family="Sans-Serif" font-size="14.00">lookup matrix column matrix columns</text>
<text xml:space="preserve" text-anchor="start" x="883" y="-363.7" font-family="Sans-Serif" font-style="italic" baseline-shift="sub" font-size="14.00">or </text>
<text xml:space="preserve" text-anchor="start" x="896.5" y="-363.7" font-family="Sans-Serif" font-size="14.00">rows groups  </text>
<text xml:space="preserve" text-anchor="start" x="815.88" y="-349.7" font-family="Sans-Serif" font-size="14.00"> </text>
</g>
<!-- MG3&#45;&gt;MG3_ -->
<g id="edge5" class="edge">
<title>MG3:e&#45;&gt;MG3_:w</title>
<path fill="none" stroke="black" d="M591.5,-387C614.92,-387 619.8,-369.2 637.43,-363.64"/>
<polygon fill="black" stroke="black" points="637.84,-367.12 647.23,-362.22 636.83,-360.19 637.84,-367.12"/>
</g>
<!-- MG3_&#45;&gt;Matrix_group_values -->
<g id="edge6" class="edge">
<title>MG3_:e&#45;&gt;Matrix_group_values</title>
<path fill="none" stroke="black" d="M986.77,-362C1012.68,-362 1039,-354.47 1062.92,-344.15"/>
<polygon fill="black" stroke="black" points="1064.33,-347.35 1071.99,-340.03 1061.44,-340.98 1064.33,-347.35"/>
</g>
<!-- MG4 -->
<g id="node10" class="node">
<title>MG4</title>
<polygon fill="none" stroke="black" stroke-dasharray="1,5" points="585.12,-578 202.38,-578 202.38,-472 585.12,-472 585.12,-578"/>
<text xml:space="preserve" text-anchor="start" x="301.12" y="-561.7" font-family="Courier,monospace" font-size="14.00">|/</text>
<text xml:space="preserve" text-anchor="start" x="317.62" y="-561.7" font-family="Courier,monospace" font-style="italic" baseline-shift="sub" font-size="14.00">or </text>
<text xml:space="preserve" text-anchor="start" x="337.88" y="-561.7" font-family="Courier,monospace" font-size="14.00">&#45;/ vector_property</text>
<text xml:space="preserve" text-anchor="start" x="389.62" y="-547.7" font-family="Courier,monospace" font-size="14.00"> </text>
<text xml:space="preserve" text-anchor="start" x="327.75" y="-533.7" font-family="Courier,monospace" font-size="14.00" fill="gray">|| default_value</text>
<text xml:space="preserve" text-anchor="start" x="389.62" y="-519.7" font-family="Courier,monospace" font-size="14.00"> </text>
<text xml:space="preserve" text-anchor="start" x="210.38" y="-505.7" font-family="Courier,monospace" font-size="14.00">GroupColumnsBy</text>
<text xml:space="preserve" text-anchor="start" x="325.88" y="-505.7" font-family="Courier,monospace" font-style="italic" baseline-shift="sub" font-size="14.00">or </text>
<text xml:space="preserve" text-anchor="start" x="346.12" y="-505.7" font-family="Courier,monospace" font-size="14.00">GroupRowsBy(vector_property)</text>
<text xml:space="preserve" text-anchor="start" x="389.62" y="-491.7" font-family="Courier,monospace" font-size="14.00"> </text>
<text xml:space="preserve" text-anchor="start" x="282.38" y="-477.7" font-family="Courier,monospace" font-size="14.00" fill="gray">|&gt; IfMissing(default_value)</text>
</g>
<!-- MG4_ -->
<g id="node11" class="node">
<title>MG4_</title>
<polygon fill="none" stroke="black" points="949.12,-494 674.38,-494 674.38,-470 949.12,-470 961.12,-482 949.12,-494"/>
<text xml:space="preserve" text-anchor="start" x="682.38" y="-483.7" font-family="Sans-Serif" font-size="14.00">lookup vector matrix columns</text>
<text xml:space="preserve" text-anchor="start" x="858.62" y="-483.7" font-family="Sans-Serif" font-style="italic" baseline-shift="sub" font-size="14.00">or </text>
<text xml:space="preserve" text-anchor="start" x="872.12" y="-483.7" font-family="Sans-Serif" font-size="14.00">rows groups  </text>
<text xml:space="preserve" text-anchor="start" x="815.88" y="-469.7" font-family="Sans-Serif" font-size="14.00"> </text>
</g>
<!-- MG4&#45;&gt;MG4_ -->
<g id="edge7" class="edge">
<title>MG4:e&#45;&gt;MG4_:w</title>
<path fill="none" stroke="black" d="M586.12,-525C625.22,-525 629.49,-489.68 662.06,-483.06"/>
<polygon fill="black" stroke="black" points="662.01,-486.58 671.64,-482.14 661.35,-479.62 662.01,-486.58"/>
</g>
<!-- MG4_&#45;&gt;Matrix_group_values -->
<g id="edge8" class="edge">
<title>MG4_:e&#45;&gt;Matrix_group_values</title>
<path fill="none" stroke="black" d="M962.36,-482C1038.21,-482 1094.3,-406.66 1125.97,-349.4"/>
<polygon fill="black" stroke="black" points="1129.03,-351.1 1130.69,-340.63 1122.87,-347.78 1129.03,-351.1"/>
</g>
<!-- MG5&#45;&gt;Matrix_group_values -->
<g id="edge11" class="edge">
<title>MG5&#45;&gt;Matrix_group_values</title>
<path fill="none" stroke="black" d="M1130.87,-158.25C1105.22,-179.45 1094.47,-200.66 1098.62,-221.86"/>
<polygon fill="black" stroke="black" points="1095.2,-222.67 1101.54,-231.16 1101.88,-220.57 1095.2,-222.67"/>
</g>
<!-- MG6_ -->
<g id="node14" class="node">
<title>MG6_</title>
<polygon fill="none" stroke="black" points="1860.75,-257 1613,-257 1613,-233 1860.75,-233 1872.75,-245 1860.75,-257"/>
<text xml:space="preserve" text-anchor="start" x="1621" y="-246.7" font-family="Sans-Serif" font-size="14.00"> reduce grouped matrix columns</text>
<text xml:space="preserve" text-anchor="start" x="1815.25" y="-246.7" font-family="Sans-Serif" font-style="italic" baseline-shift="sub" font-size="14.00">or </text>
<text xml:space="preserve" text-anchor="start" x="1828.75" y="-246.7" font-family="Sans-Serif" font-size="14.00">rows  </text>
<text xml:space="preserve" text-anchor="start" x="1739.12" y="-232.7" font-family="Sans-Serif" font-size="14.00">  </text>
</g>
<!-- MG6&#45;&gt;MG6_ -->
<g id="edge12" class="edge">
<title>MG6:e&#45;&gt;MG6_:w</title>
<path fill="none" stroke="black" d="M1577,-245C1588.38,-245 1593.68,-245 1601.55,-245"/>
<polygon fill="black" stroke="black" points="1601.49,-248.5 1611.49,-245 1601.49,-241.5 1601.49,-248.5"/>
</g>
<!-- MG6_&#45;&gt;Matrix_final_values -->
<g id="edge18" class="edge">
<title>MG6_:e&#45;&gt;Matrix_final_values</title>
<path fill="none" stroke="black" d="M1873.96,-245C1881.44,-245 1889.21,-245 1897,-245"/>
<polygon fill="black" stroke="black" points="1896.88,-248.5 1906.88,-245 1896.88,-241.5 1896.88,-248.5"/>
</g>
<!-- MG7&#45;&gt;MG6 -->
<g id="edge15" class="edge">
<title>MG7:s&#45;&gt;MG6:n</title>
<path fill="none" stroke="black" d="M1441.12,-302.39C1441.12,-304.21 1441.12,-306.25 1441.12,-309"/>
<polygon fill="black" stroke="black" points="1444.63,-302.51 1441.13,-292.51 1437.63,-302.51 1444.63,-302.51"/>
</g>
</g>
</svg>
