<?xml version="1.0" encoding="UTF-8" standalone="no"?>
<!DOCTYPE svg PUBLIC "-//W3C//DTD SVG 1.1//EN"
 "http://www.w3.org/Graphics/SVG/1.1/DTD/svg11.dtd">
<!-- Generated by graphviz version 2.40.1 (0)
 -->
<!-- Title: %3 Pages: 1 -->
<svg width="901pt" height="197pt"
 viewBox="0.00 0.00 901.06 197.00" xmlns="http://www.w3.org/2000/svg" xmlns:xlink="http://www.w3.org/1999/xlink">
<g id="graph0" class="graph" transform="scale(1 1) rotate(0) translate(4 193)">
<title>%3</title>
<polygon fill="#ffffff" stroke="transparent" points="-4,4 -4,-193 897.0569,-193 897.0569,4 -4,4"/>
<g id="clust1" class="cluster">
<title>cluster_all</title>
<polygon fill="none" stroke="#000000" points="8,-8 8,-181 885.0569,-181 885.0569,-8 8,-8"/>
<text text-anchor="middle" x="67" y="-154.6" font-family="Sans-Serif" font-size="28.00" fill="#000000">MATRIX</text>
</g>
<!-- Matrix_values -->
<g id="node1" class="node">
<title>Matrix_values</title>
<polygon fill="none" stroke="#000000" points="873.0842,-36.5678 873.0842,-59.4322 813.8871,-75.5997 730.1698,-75.5997 670.9726,-59.4322 670.9726,-36.5678 730.1698,-20.4003 813.8871,-20.4003 873.0842,-36.5678"/>
<polygon fill="none" stroke="#000000" points="877.0853,-33.5075 877.0853,-62.4925 814.4229,-79.6065 729.6339,-79.6065 666.9716,-62.4925 666.9716,-33.5075 729.6339,-16.3935 814.4229,-16.3935 877.0853,-33.5075"/>
<text text-anchor="start" x="714.0284" y="-51.8" font-family="Sans-Serif" font-size="14.00" fill="#000000"> MatrixState</text>
<text text-anchor="start" x="787.0284" y="-51.8" font-family="Sans-Serif" font-style="italic" baseline-shift="sub" font-size="14.00" fill="#000000">values</text>
<text text-anchor="start" x="822.0284" y="-51.8" font-family="Sans-Serif" font-size="14.00" fill="#000000">  </text>
<text text-anchor="start" x="770.0284" y="-37.8" font-family="Sans-Serif" font-size="14.00" fill="#000000"> </text>
</g>
<!-- M3 -->
<g id="node7" class="node">
<title>M3</title>
<g id="a_node7"><a xlink:href="#../DataAxesFormats.Queries.MATRIX_OPERATION" xlink:title="MATRIX OPERATION">
<polygon fill="none" stroke="#000000" points="846.5284,-134 697.5284,-134 697.5284,-130 693.5284,-130 693.5284,-126 697.5284,-126 697.5284,-106 693.5284,-106 693.5284,-102 697.5284,-102 697.5284,-98 846.5284,-98 846.5284,-134"/>
<polyline fill="none" stroke="#000000" points="697.5284,-130 701.5284,-130 701.5284,-126 697.5284,-126 "/>
<polyline fill="none" stroke="#000000" points="697.5284,-106 701.5284,-106 701.5284,-102 697.5284,-102 "/>
<text text-anchor="middle" x="772.0284" y="-112.3" font-family="Sans-Serif" font-size="14.00" fill="#000000">MATRIX OPERATION</text>
</a>
</g>
</g>
<!-- Matrix_values&#45;&gt;M3 -->
<g id="edge7" class="edge">
<title>Matrix_values&#45;&gt;M3</title>
<path fill="none" stroke="#000000" d="M843.8573,-71.9063C853.5469,-78.9502 853.0937,-85.9941 842.4974,-93.0381"/>
<polygon fill="#000000" stroke="#000000" points="840.65,-90.0588 833.5411,-97.9147 843.9974,-96.2066 840.65,-90.0588"/>
</g>
<!-- Vector_data -->
<g id="node2" class="node">
<title>Vector_data</title>
<polygon fill="none" stroke="#000000" points="184,-134 16,-134 16,-98 184,-98 184,-134"/>
<text text-anchor="start" x="24" y="-119.8" font-family="Sans-Serif" font-size="14.00" fill="#000000"> VectorState</text>
<text text-anchor="start" x="98" y="-119.8" font-family="Sans-Serif" font-style="italic" baseline-shift="sub" font-size="14.00" fill="#000000">values</text>
<text text-anchor="start" x="133" y="-119.8" font-family="Sans-Serif" font-style="italic" font-size="14.00" fill="#000000">or</text>
<text text-anchor="start" x="146" y="-119.8" font-family="Sans-Serif" font-style="italic" baseline-shift="sub" font-size="14.00" fill="#000000">axis</text>
<text text-anchor="start" x="168" y="-119.8" font-family="Sans-Serif" font-size="14.00" fill="#000000">  </text>
<text text-anchor="start" x="98" y="-105.8" font-family="Sans-Serif" font-size="14.00" fill="#000000"> </text>
</g>
<!-- M1 -->
<g id="node4" class="node">
<title>M1</title>
<polygon fill="none" stroke="#000000" stroke-dasharray="1,5" points="476,-99.5 220,-99.5 220,-16.5 476,-16.5 476,-99.5"/>
<text text-anchor="start" x="273.5" y="-84.3" font-family="Courier,monospace" font-size="14.00" fill="#000000">:: matrix_property</text>
<text text-anchor="start" x="281.5" y="-69.3" font-family="Courier,monospace" font-size="14.00" fill="#c0c0c0">|| default_value</text>
<text text-anchor="start" x="343.5" y="-54.3" font-family="Courier,monospace" font-size="14.00" fill="#000000"> </text>
<text text-anchor="start" x="228" y="-39.3" font-family="Courier,monospace" font-size="14.00" fill="#000000">LookupMatrix(vector_property)</text>
<text text-anchor="start" x="236.5" y="-24.3" font-family="Courier,monospace" font-size="14.00" fill="#c0c0c0">|&gt; IfMissing(default_value)</text>
</g>
<!-- Vector_data&#45;&gt;M1 -->
<!-- M2 -->
<g id="node6" class="node">
<title>M2</title>
<g id="a_node6"><a xlink:href="#../DataAxesFormats.Queries.MATRIX_COUNT" xlink:title="MATRIX COUNT">
<polygon fill="none" stroke="#000000" points="631,-130 512,-130 512,-126 508,-126 508,-122 512,-122 512,-102 508,-102 508,-98 512,-98 512,-94 631,-94 631,-130"/>
<polyline fill="none" stroke="#000000" points="512,-126 516,-126 516,-122 512,-122 "/>
<polyline fill="none" stroke="#000000" points="512,-102 516,-102 516,-98 512,-98 "/>
<text text-anchor="middle" x="571.5" y="-108.3" font-family="Sans-Serif" font-size="14.00" fill="#000000">MATRIX COUNT</text>
</a>
</g>
</g>
<!-- Vector_data&#45;&gt;M2 -->
<g id="edge4" class="edge">
<title>Vector_data&#45;&gt;M2:w</title>
<path fill="none" stroke="#000000" d="M184.0336,-114.7068C264.8524,-113.5724 390.8007,-112.0898 501.9759,-112.0039"/>
<polygon fill="#000000" stroke="#000000" points="502.0014,-115.504 512,-112 501.9986,-108.504 502.0014,-115.504"/>
</g>
<!-- Matrix_axes -->
<g id="node3" class="node">
<title>Matrix_axes</title>
<polygon fill="none" stroke="#000000" points="183.5,-80 16.5,-80 16.5,-16 183.5,-16 183.5,-80"/>
<text text-anchor="start" x="34.5" y="-65.8" font-family="Sans-Serif" font-size="14.00" fill="#000000">VectorState</text>
<text text-anchor="start" x="104.5" y="-65.8" font-family="Sans-Serif" font-style="italic" baseline-shift="sub" font-size="14.00" fill="#000000">rows axis</text>
<text text-anchor="start" x="153.5" y="-65.8" font-family="Sans-Serif" font-size="14.00" fill="#000000">   </text>
<text text-anchor="start" x="98" y="-51.8" font-family="Sans-Serif" font-size="14.00" fill="#000000"> </text>
<text text-anchor="start" x="24.5" y="-37.8" font-family="Sans-Serif" font-size="14.00" fill="#000000">VectorState</text>
<text text-anchor="start" x="94.5" y="-37.8" font-family="Sans-Serif" font-style="italic" baseline-shift="sub" font-size="14.00" fill="#000000">columns axis</text>
<text text-anchor="start" x="163.5" y="-37.8" font-family="Sans-Serif" font-size="14.00" fill="#000000">   </text>
<text text-anchor="start" x="98" y="-23.8" font-family="Sans-Serif" font-size="14.00" fill="#000000"> </text>
</g>
<!-- Matrix_axes&#45;&gt;M1 -->
<g id="edge2" class="edge">
<title>Matrix_axes&#45;&gt;M1:w</title>
<path fill="none" stroke="#000000" d="M183.5248,-56.7537C192.3083,-57.2994 201.2067,-57.7045 209.9031,-57.8892"/>
<polygon fill="#000000" stroke="#000000" points="209.9622,-61.39 220,-58 210.039,-54.3904 209.9622,-61.39"/>
</g>
<!-- M1_ -->
<g id="node5" class="node">
<title>M1_</title>
<polygon fill="none" stroke="#000000" points="610,-63 521,-63 521,-39 610,-39 622,-51 610,-63"/>
<text text-anchor="middle" x="571.5" y="-47.3" font-family="Sans-Serif" font-size="14.00" fill="#000000">lookup matrix </text>
</g>
<!-- M1&#45;&gt;M1_ -->
<g id="edge1" class="edge">
<title>M1:e&#45;&gt;M1_:w</title>
<path fill="none" stroke="#000000" d="M476,-58C492.1106,-58 498.1439,-53.4673 510.3181,-51.6968"/>
<polygon fill="#000000" stroke="#000000" points="510.7623,-55.1747 520.5,-51 510.2843,-48.191 510.7623,-55.1747"/>
</g>
<!-- M1&#45;&gt;M2 -->
<!-- M1_&#45;&gt;Matrix_values -->
<g id="edge3" class="edge">
<title>M1_:e&#45;&gt;Matrix_values</title>
<path fill="none" stroke="#000000" d="M622.5,-51C633.5453,-51 645.0486,-50.9172 656.5527,-50.779"/>
<polygon fill="#000000" stroke="#000000" points="656.6988,-54.2775 666.6511,-50.6441 656.6052,-47.2781 656.6988,-54.2775"/>
</g>
<!-- M2&#45;&gt;Matrix_values -->
<g id="edge6" class="edge">
<title>M2:e&#45;&gt;Matrix_values</title>
<path fill="none" stroke="#000000" d="M631,-112C649.9867,-112 650.0751,-97.6047 667,-89 675.6371,-84.6088 684.8608,-80.3829 694.1214,-76.4225"/>
<polygon fill="#000000" stroke="#000000" points="695.4978,-79.6407 703.374,-72.5544 692.7977,-73.1824 695.4978,-79.6407"/>
</g>
<!-- M2&#45;&gt;M3 -->
<!-- M3&#45;&gt;Matrix_values -->
<g id="edge8" class="edge">
<title>M3&#45;&gt;Matrix_values</title>
<path fill="none" stroke="#000000" d="M710.5157,-97.9147C697.2947,-91.8189 691.6697,-85.7232 693.6407,-79.6275"/>
<polygon fill="#000000" stroke="#000000" points="696.3929,-81.7936 700.1996,-71.9063 691.0579,-77.2617 696.3929,-81.7936"/>
</g>
</g>
</svg>
