<?xml version="1.0" encoding="UTF-8" standalone="no"?>
<!DOCTYPE svg PUBLIC "-//W3C//DTD SVG 1.1//EN"
 "http://www.w3.org/Graphics/SVG/1.1/DTD/svg11.dtd">
<!-- Generated by graphviz version 14.1.1 (20251213.1925)
 -->
<!-- Pages: 1 -->
<svg width="680pt" height="210pt"
 viewBox="0.00 0.00 680.00 210.00" xmlns="http://www.w3.org/2000/svg" xmlns:xlink="http://www.w3.org/1999/xlink">
<g id="graph0" class="graph" transform="scale(1 1) rotate(0) translate(4 206)">
<polygon fill="white" stroke="none" points="-4,4 -4,-206 676.25,-206 676.25,4 -4,4"/>
<g id="clust1" class="cluster">
<title>cluster_all</title>
<polygon fill="none" stroke="black" points="158.75,-8 158.75,-194 527,-194 527,-8 158.75,-8"/>
<text xml:space="preserve" text-anchor="middle" x="275.12" y="-163.4" font-family="Sans-Serif" font-size="28.00">MATRIX AS AXIS</text>
</g>
<!-- Matrix_values -->
<g id="node1" class="node">
<title>Matrix_values</title>
<polygon fill="none" stroke="black" points="130.75,-101 0,-101 0,-65 130.75,-65 130.75,-101"/>
<text xml:space="preserve" text-anchor="start" x="8" y="-84.7" font-family="Sans-Serif" font-size="14.00"> MatrixState</text>
<text xml:space="preserve" text-anchor="start" x="80.75" y="-84.7" font-family="Sans-Serif" font-style="italic" baseline-shift="sub" font-size="14.00">values</text>
<text xml:space="preserve" text-anchor="start" x="115.25" y="-84.7" font-family="Sans-Serif" font-size="14.00">  </text>
<text xml:space="preserve" text-anchor="start" x="63.5" y="-70.7" font-family="Sans-Serif" font-size="14.00"> </text>
</g>
<!-- MAA1 -->
<g id="node3" class="node">
<title>MAA1</title>
<polygon fill="none" stroke="black" stroke-dasharray="1,5" points="265.25,-73.75 166.75,-73.75 166.75,-16.25 265.25,-16.25 265.25,-73.75"/>
<text xml:space="preserve" text-anchor="start" x="191.25" y="-56.45" font-family="Courier,monospace" font-size="14.00">@ axis</text>
<text xml:space="preserve" text-anchor="start" x="211.88" y="-39.95" font-family="Courier,monospace" font-size="14.00"> </text>
<text xml:space="preserve" text-anchor="start" x="174.75" y="-23.45" font-family="Courier,monospace" font-size="14.00">Axis(axis)</text>
</g>
<!-- Matrix_values&#45;&gt;MAA1 -->
<g id="edge3" class="edge">
<title>Matrix_values&#45;&gt;MAA1:w</title>
<path fill="none" stroke="black" d="M97.01,-64.67C113.12,-56.47 133.75,-48.1 154.34,-45.69"/>
<polygon fill="black" stroke="black" points="154.47,-49.19 164.24,-45.09 154.05,-42.2 154.47,-49.19"/>
</g>
<!-- MAA2 -->
<g id="node5" class="node">
<title>MAA2</title>
<polygon fill="none" stroke="black" stroke-dasharray="1,5" points="248.75,-149.75 183.25,-149.75 183.25,-92.25 248.75,-92.25 248.75,-149.75"/>
<text xml:space="preserve" text-anchor="start" x="211.88" y="-132.45" font-family="Courier,monospace" font-size="14.00">@</text>
<text xml:space="preserve" text-anchor="start" x="211.88" y="-115.95" font-family="Courier,monospace" font-size="14.00"> </text>
<text xml:space="preserve" text-anchor="start" x="191.25" y="-99.45" font-family="Courier,monospace" font-size="14.00">Axis()</text>
</g>
<!-- Matrix_values&#45;&gt;MAA2 -->
<g id="edge4" class="edge">
<title>Matrix_values&#45;&gt;MAA2:w</title>
<path fill="none" stroke="black" d="M102.7,-101.44C121.99,-109.8 146.67,-118.3 170.83,-120.47"/>
<polygon fill="black" stroke="black" points="170.59,-123.96 180.74,-120.93 170.91,-116.97 170.59,-123.96"/>
</g>
<!-- Matrix_axis -->
<g id="node2" class="node">
<title>Matrix_axis</title>
<polygon fill="none" stroke="black" points="672.25,-100 555,-100 555,-64 672.25,-64 672.25,-100"/>
<text xml:space="preserve" text-anchor="start" x="563" y="-83.7" font-family="Sans-Serif" font-size="14.00"> MatrixState</text>
<text xml:space="preserve" text-anchor="start" x="635.75" y="-83.7" font-family="Sans-Serif" font-style="italic" baseline-shift="sub" font-size="14.00">axis</text>
<text xml:space="preserve" text-anchor="start" x="656.75" y="-83.7" font-family="Sans-Serif" font-size="14.00">  </text>
<text xml:space="preserve" text-anchor="start" x="611.75" y="-69.7" font-family="Sans-Serif" font-size="14.00"> </text>
</g>
<!-- MAA1_ -->
<g id="node4" class="node">
<title>MAA1_</title>
<polygon fill="none" stroke="black" points="507,-62 301.25,-62 301.25,-38 507,-38 519,-50 507,-62"/>
<text xml:space="preserve" text-anchor="middle" x="410.12" y="-44.2" font-family="Sans-Serif" font-size="14.00">matrix values are entries of axis   </text>
</g>
<!-- MAA1&#45;&gt;MAA1_ -->
<g id="edge1" class="edge">
<title>MAA1:e&#45;&gt;MAA1_:w</title>
<path fill="none" stroke="black" d="M265.25,-45C276.86,-45 282.03,-47.58 290.02,-49.04"/>
<polygon fill="black" stroke="black" points="289.48,-52.5 299.74,-49.87 290.08,-45.53 289.48,-52.5"/>
</g>
<!-- MAA1_&#45;&gt;Matrix_axis -->
<g id="edge5" class="edge">
<title>MAA1_:e&#45;&gt;Matrix_axis</title>
<path fill="none" stroke="black" d="M520.46,-50C535.98,-50 552.2,-54.1 566.63,-59.37"/>
<polygon fill="black" stroke="black" points="565.28,-62.6 575.86,-63.01 567.85,-56.09 565.28,-62.6"/>
</g>
<!-- MAA2_ -->
<g id="node6" class="node">
<title>MAA2_</title>
<polygon fill="none" stroke="black" points="487.12,-127 321.12,-127 321.12,-103 487.12,-103 499.12,-115 487.12,-127"/>
<text xml:space="preserve" text-anchor="middle" x="410.12" y="-109.2" font-family="Sans-Serif" font-size="14.00">matrix property is an axis   </text>
</g>
<!-- MAA2&#45;&gt;MAA2_ -->
<g id="edge2" class="edge">
<title>MAA2:e&#45;&gt;MAA2_:w</title>
<path fill="none" stroke="black" d="M249.75,-121C276.83,-121 286.1,-116.49 308.45,-115.29"/>
<polygon fill="black" stroke="black" points="308.33,-118.79 318.24,-115.04 308.15,-111.8 308.33,-118.79"/>
</g>
<!-- MAA2_&#45;&gt;Matrix_axis -->
<g id="edge6" class="edge">
<title>MAA2_:e&#45;&gt;Matrix_axis</title>
<path fill="none" stroke="black" d="M500.5,-115C520.42,-115 541.55,-110.15 560.04,-104.16"/>
<polygon fill="black" stroke="black" points="561.13,-107.49 569.45,-100.92 558.85,-100.87 561.13,-107.49"/>
</g>
</g>
</svg>
