<?xml version="1.0" encoding="UTF-8" standalone="no"?>
<!DOCTYPE svg PUBLIC "-//W3C//DTD SVG 1.1//EN"
 "http://www.w3.org/Graphics/SVG/1.1/DTD/svg11.dtd">
<!-- Generated by graphviz version 14.1.4 (20260321.0153)
 -->
<!-- Pages: 1 -->
<svg width="656pt" height="470pt"
 viewBox="0.00 0.00 656.00 470.00" xmlns="http://www.w3.org/2000/svg" xmlns:xlink="http://www.w3.org/1999/xlink">
<g id="graph0" class="graph" transform="scale(1 1) rotate(0) translate(4 465.88)">
<polygon fill="white" stroke="none" points="-4,4 -4,-465.88 652.44,-465.88 652.44,4 -4,4"/>
<!-- Copies -->
<g id="node1" class="node">
<title>Copies</title>
<g id="a_node1"><a xlink:href="../copies.html" xlink:title="Copies" target="_top">
<polygon fill="none" stroke="white" points="536.44,-185.28 490.12,-185.28 490.12,-165.96 536.44,-165.96 536.44,-185.28"/>
<text xml:space="preserve" text-anchor="middle" x="513.28" y="-169.82" font-family="Sans-Serif" font-size="14.00">Copies</text>
</a>
</g>
</g>
<!-- Adapters -->
<g id="node3" class="node">
<title>Adapters</title>
<g id="a_node3"><a xlink:href="../adapters.html" xlink:title="Adapters" target="_top">
<polygon fill="none" stroke="white" points="523.44,-19.32 465.12,-19.32 465.12,0 523.44,0 523.44,-19.32"/>
<text xml:space="preserve" text-anchor="middle" x="494.28" y="-3.86" font-family="Sans-Serif" font-size="14.00">Adapters</text>
</a>
</g>
</g>
<!-- Copies&#45;&gt;Adapters -->
<g id="edge2" class="edge">
<title>Copies&#45;&gt;Adapters</title>
<path fill="none" stroke="black" d="M536.83,-168.39C566.05,-160.12 613.27,-144.83 623.28,-129.96 628.08,-122.84 625.93,-118.81 623.28,-110.64 613.94,-81.77 606.39,-74.98 583.28,-55.32 567.69,-42.05 547.48,-31.51 530.26,-24"/>
<polygon fill="black" stroke="black" points="531.97,-20.92 521.39,-20.3 529.27,-27.38 531.97,-20.92"/>
</g>
<!-- Concat -->
<g id="node27" class="node">
<title>Concat</title>
<g id="a_node27"><a xlink:href="../concat.html" xlink:title="Concat" target="_top">
<polygon fill="none" stroke="white" points="613.82,-129.96 566.75,-129.96 566.75,-110.64 613.82,-110.64 613.82,-129.96"/>
<text xml:space="preserve" text-anchor="middle" x="590.28" y="-114.5" font-family="Sans-Serif" font-size="14.00">Concat</text>
</a>
</g>
</g>
<!-- Copies&#45;&gt;Concat -->
<g id="edge41" class="edge">
<title>Copies&#45;&gt;Concat</title>
<path fill="none" stroke="black" d="M526.35,-165.57C537.74,-157.69 554.51,-146.07 568.02,-136.72"/>
<polygon fill="black" stroke="black" points="569.69,-139.82 575.91,-131.25 565.7,-134.07 569.69,-139.82"/>
</g>
<!-- Writers -->
<g id="node2" class="node">
<title>Writers</title>
<g id="a_node2"><a xlink:href="../writers.html" xlink:title="Writers" target="_top">
<polygon fill="none" stroke="white" points="354.82,-240.6 307.75,-240.6 307.75,-221.28 354.82,-221.28 354.82,-240.6"/>
<text xml:space="preserve" text-anchor="middle" x="331.28" y="-225.14" font-family="Sans-Serif" font-size="14.00">Writers</text>
</a>
</g>
</g>
<!-- Writers&#45;&gt;Copies -->
<g id="edge1" class="edge">
<title>Writers&#45;&gt;Copies</title>
<path fill="none" stroke="black" d="M355.08,-222.97C386.64,-213.72 442.57,-197.34 478.77,-186.73"/>
<polygon fill="black" stroke="black" points="479.71,-190.1 488.32,-183.93 477.74,-183.39 479.71,-190.1"/>
</g>
<!-- MemoryFormat -->
<g id="node4" class="node">
<title>MemoryFormat</title>
<g id="a_node4"><a xlink:href="../memory_format.html" xlink:title="MemoryFormat" target="_top">
<polygon fill="none" stroke="white" points="376.32,-185.28 278.25,-185.28 278.25,-165.96 376.32,-165.96 376.32,-185.28"/>
<text xml:space="preserve" text-anchor="middle" x="327.28" y="-169.82" font-family="Sans-Serif" font-size="14.00">MemoryFormat</text>
</a>
</g>
</g>
<!-- Writers&#45;&gt;MemoryFormat -->
<g id="edge26" class="edge">
<title>Writers&#45;&gt;MemoryFormat</title>
<path fill="none" stroke="black" d="M330.62,-221.14C330.13,-214.54 329.43,-205.24 328.8,-196.85"/>
<polygon fill="black" stroke="black" points="332.31,-196.84 328.07,-187.13 325.33,-197.36 332.31,-196.84"/>
</g>
<!-- Chains -->
<g id="node5" class="node">
<title>Chains</title>
<g id="a_node5"><a xlink:href="../chains.html" xlink:title="Chains" target="_top">
<polygon fill="none" stroke="white" points="430.44,-129.96 384.12,-129.96 384.12,-110.64 430.44,-110.64 430.44,-129.96"/>
<text xml:space="preserve" text-anchor="middle" x="407.28" y="-114.5" font-family="Sans-Serif" font-size="14.00">Chains</text>
</a>
</g>
</g>
<!-- Writers&#45;&gt;Chains -->
<g id="edge34" class="edge">
<title>Writers&#45;&gt;Chains</title>
<path fill="none" stroke="black" d="M346.05,-221.03C358.14,-213.04 374.9,-200.28 385.28,-185.28 394.4,-172.11 400.05,-154.81 403.34,-141.52"/>
<polygon fill="black" stroke="black" points="406.76,-142.27 405.48,-131.75 399.92,-140.77 406.76,-142.27"/>
</g>
<!-- FilesFormat -->
<g id="node15" class="node">
<title>FilesFormat</title>
<g id="a_node15"><a xlink:href="../files_format.html" xlink:title="FilesFormat" target="_top">
<polygon fill="none" stroke="white" points="260.44,-185.28 184.12,-185.28 184.12,-165.96 260.44,-165.96 260.44,-185.28"/>
<text xml:space="preserve" text-anchor="middle" x="222.28" y="-169.82" font-family="Sans-Serif" font-size="14.00">FilesFormat</text>
</a>
</g>
</g>
<!-- Writers&#45;&gt;FilesFormat -->
<g id="edge39" class="edge">
<title>Writers&#45;&gt;FilesFormat</title>
<path fill="none" stroke="black" d="M312.79,-220.89C295.88,-212.62 270.6,-200.25 251.05,-190.69"/>
<polygon fill="black" stroke="black" points="252.75,-187.62 242.23,-186.37 249.67,-193.91 252.75,-187.62"/>
</g>
<!-- H5dfFormat -->
<g id="node16" class="node">
<title>H5dfFormat</title>
<g id="a_node16"><a xlink:href="../h5df_format.html" xlink:title="H5dfFormat" target="_top">
<polygon fill="none" stroke="white" points="166.44,-185.28 90.12,-185.28 90.12,-165.96 166.44,-165.96 166.44,-185.28"/>
<text xml:space="preserve" text-anchor="middle" x="128.28" y="-169.82" font-family="Sans-Serif" font-size="14.00">H5dfFormat</text>
</a>
</g>
</g>
<!-- Writers&#45;&gt;H5dfFormat -->
<g id="edge29" class="edge">
<title>Writers&#45;&gt;H5dfFormat</title>
<path fill="none" stroke="black" d="M307.6,-223.72C274.93,-215.14 215.38,-199.5 173.91,-188.6"/>
<polygon fill="black" stroke="black" points="175.02,-185.28 164.46,-186.12 173.24,-192.05 175.02,-185.28"/>
</g>
<!-- ZarrFormat -->
<g id="node23" class="node">
<title>ZarrFormat</title>
<g id="a_node23"><a xlink:href="../zarr_format.html" xlink:title="ZarrFormat" target="_top">
<polygon fill="none" stroke="white" points="72.57,-185.28 0,-185.28 0,-165.96 72.57,-165.96 72.57,-185.28"/>
<text xml:space="preserve" text-anchor="middle" x="36.28" y="-169.82" font-family="Sans-Serif" font-size="14.00">ZarrFormat</text>
</a>
</g>
</g>
<!-- Writers&#45;&gt;ZarrFormat -->
<g id="edge23" class="edge">
<title>Writers&#45;&gt;ZarrFormat</title>
<path fill="none" stroke="black" d="M307.48,-225.8C264.83,-218.35 172.31,-202.09 83.94,-185.75"/>
<polygon fill="black" stroke="black" points="84.58,-182.31 74.11,-183.93 83.31,-189.2 84.58,-182.31"/>
</g>
<!-- Reconstruction -->
<g id="node28" class="node">
<title>Reconstruction</title>
<g id="a_node28"><a xlink:href="../reconstruction.html" xlink:title="Reconstruction" target="_top">
<polygon fill="none" stroke="white" points="648.44,-185.28 554.12,-185.28 554.12,-165.96 648.44,-165.96 648.44,-185.28"/>
<text xml:space="preserve" text-anchor="middle" x="601.28" y="-169.82" font-family="Sans-Serif" font-size="14.00">Reconstruction</text>
</a>
</g>
</g>
<!-- Writers&#45;&gt;Reconstruction -->
<g id="edge45" class="edge">
<title>Writers&#45;&gt;Reconstruction</title>
<path fill="none" stroke="black" d="M355.25,-225.21C397.32,-216.9 485.56,-199.47 544.12,-187.91"/>
<polygon fill="black" stroke="black" points="544.43,-191.41 553.57,-186.04 543.08,-184.55 544.43,-191.41"/>
</g>
<!-- MemoryFormat&#45;&gt;Adapters -->
<g id="edge3" class="edge">
<title>MemoryFormat&#45;&gt;Adapters</title>
<path fill="none" stroke="black" d="M370.89,-165.49C393.59,-158.86 420.45,-147.83 439.28,-129.96 447.06,-122.59 473.06,-61.75 486.33,-29.92"/>
<polygon fill="black" stroke="black" points="489.41,-31.63 490.01,-21.05 482.95,-28.95 489.41,-31.63"/>
</g>
<!-- ExampleData -->
<g id="node21" class="node">
<title>ExampleData</title>
<g id="a_node21"><a xlink:href="../example_data.html" xlink:title="ExampleData" target="_top">
<polygon fill="none" stroke="white" points="294.32,-74.64 208.25,-74.64 208.25,-55.32 294.32,-55.32 294.32,-74.64"/>
<text xml:space="preserve" text-anchor="middle" x="251.28" y="-59.18" font-family="Sans-Serif" font-size="14.00">ExampleData</text>
</a>
</g>
</g>
<!-- MemoryFormat&#45;&gt;ExampleData -->
<g id="edge21" class="edge">
<title>MemoryFormat&#45;&gt;ExampleData</title>
<path fill="none" stroke="black" d="M302.64,-165.57C286.9,-158.42 267.58,-146.82 257.28,-129.96 249.35,-116.97 248.17,-99.66 248.8,-86.32"/>
<polygon fill="black" stroke="black" points="252.27,-86.79 249.66,-76.52 245.3,-86.18 252.27,-86.79"/>
</g>
<!-- AnnDataFormat -->
<g id="node26" class="node">
<title>AnnDataFormat</title>
<g id="a_node26"><a xlink:href="../anndata_format.html" xlink:title="AnnDataFormat" target="_top">
<polygon fill="none" stroke="white" points="366.44,-129.96 266.12,-129.96 266.12,-110.64 366.44,-110.64 366.44,-129.96"/>
<text xml:space="preserve" text-anchor="middle" x="316.28" y="-114.5" font-family="Sans-Serif" font-size="14.00">AnnDataFormat</text>
</a>
</g>
</g>
<!-- MemoryFormat&#45;&gt;AnnDataFormat -->
<g id="edge36" class="edge">
<title>MemoryFormat&#45;&gt;AnnDataFormat</title>
<path fill="none" stroke="black" d="M325.47,-165.82C324.11,-159.22 322.19,-149.92 320.46,-141.53"/>
<polygon fill="black" stroke="black" points="323.9,-140.86 318.45,-131.78 317.04,-142.28 323.9,-140.86"/>
</g>
<!-- Chains&#45;&gt;Adapters -->
<g id="edge4" class="edge">
<title>Chains&#45;&gt;Adapters</title>
<path fill="none" stroke="black" d="M411.28,-110.47C417.34,-97.59 429.71,-73.23 444.28,-55.32 452.77,-44.89 463.78,-34.78 473.3,-26.83"/>
<polygon fill="black" stroke="black" points="475.42,-29.61 481.01,-20.61 471.03,-24.17 475.42,-29.61"/>
</g>
<!-- CompleteDaf -->
<g id="node14" class="node">
<title>CompleteDaf</title>
<g id="a_node14"><a xlink:href="../complete.html" xlink:title="CompleteDaf" target="_top">
<polygon fill="none" stroke="white" points="190.19,-74.64 106.38,-74.64 106.38,-55.32 190.19,-55.32 190.19,-74.64"/>
<text xml:space="preserve" text-anchor="middle" x="148.28" y="-59.18" font-family="Sans-Serif" font-size="14.00">CompleteDaf</text>
</a>
</g>
</g>
<!-- Chains&#45;&gt;CompleteDaf -->
<g id="edge13" class="edge">
<title>Chains&#45;&gt;CompleteDaf</title>
<path fill="none" stroke="black" d="M383.91,-112.77C381.02,-112.02 378.09,-111.29 375.28,-110.64 316.15,-96.84 247.69,-83.76 201.54,-75.37"/>
<polygon fill="black" stroke="black" points="202.26,-71.94 191.8,-73.61 201.02,-78.83 202.26,-71.94"/>
</g>
<!-- Chains&#45;&gt;ExampleData -->
<g id="edge22" class="edge">
<title>Chains&#45;&gt;ExampleData</title>
<path fill="none" stroke="black" d="M383.93,-111.32C358.76,-102.71 318.32,-88.89 288.71,-78.77"/>
<polygon fill="black" stroke="black" points="289.97,-75.5 279.37,-75.58 287.7,-82.13 289.97,-75.5"/>
</g>
<!-- Computations -->
<g id="node6" class="node">
<title>Computations</title>
<g id="a_node6"><a xlink:href="../computations.html" xlink:title="Computations" target="_top">
<polygon fill="none" stroke="white" points="574.44,-74.64 486.12,-74.64 486.12,-55.32 574.44,-55.32 574.44,-74.64"/>
<text xml:space="preserve" text-anchor="middle" x="530.28" y="-59.18" font-family="Sans-Serif" font-size="14.00">Computations</text>
</a>
</g>
</g>
<!-- Computations&#45;&gt;Adapters -->
<g id="edge5" class="edge">
<title>Computations&#45;&gt;Adapters</title>
<path fill="none" stroke="black" d="M524.34,-55.18C519.57,-48.12 512.72,-37.97 506.76,-29.14"/>
<polygon fill="black" stroke="black" points="509.7,-27.24 501.21,-20.91 503.9,-31.16 509.7,-27.24"/>
</g>
<!-- Views -->
<g id="node7" class="node">
<title>Views</title>
<g id="a_node7"><a xlink:href="../views.html" xlink:title="Views" target="_top">
<polygon fill="none" stroke="white" points="472.44,-185.28 432.12,-185.28 432.12,-165.96 472.44,-165.96 472.44,-185.28"/>
<text xml:space="preserve" text-anchor="middle" x="452.28" y="-169.82" font-family="Sans-Serif" font-size="14.00">Views</text>
</a>
</g>
</g>
<!-- Views&#45;&gt;Chains -->
<g id="edge35" class="edge">
<title>Views&#45;&gt;Chains</title>
<path fill="none" stroke="black" d="M444.85,-165.82C438.7,-158.53 429.77,-147.94 422.16,-138.92"/>
<polygon fill="black" stroke="black" points="424.98,-136.84 415.85,-131.45 419.63,-141.35 424.98,-136.84"/>
</g>
<!-- Contracts -->
<g id="node17" class="node">
<title>Contracts</title>
<g id="a_node17"><a xlink:href="../contracts.html" xlink:title="Contracts" target="_top">
<polygon fill="none" stroke="white" points="548.32,-129.96 486.25,-129.96 486.25,-110.64 548.32,-110.64 548.32,-129.96"/>
<text xml:space="preserve" text-anchor="middle" x="517.28" y="-114.5" font-family="Sans-Serif" font-size="14.00">Contracts</text>
</a>
</g>
</g>
<!-- Views&#45;&gt;Contracts -->
<g id="edge15" class="edge">
<title>Views&#45;&gt;Contracts</title>
<path fill="none" stroke="black" d="M463.31,-165.57C472.71,-157.87 486.43,-146.61 497.69,-137.37"/>
<polygon fill="black" stroke="black" points="499.74,-140.22 505.25,-131.17 495.3,-134.81 499.74,-140.22"/>
</g>
<!-- Views&#45;&gt;Concat -->
<g id="edge42" class="edge">
<title>Views&#45;&gt;Concat</title>
<path fill="none" stroke="black" d="M472.94,-166.64C494.92,-158.15 530.04,-144.58 556.14,-134.49"/>
<polygon fill="black" stroke="black" points="557.23,-137.83 565.29,-130.96 554.7,-131.3 557.23,-137.83"/>
</g>
<!-- Queries -->
<g id="node8" class="node">
<title>Queries</title>
<g id="a_node8"><a xlink:href="../queries.html" xlink:title="Queries" target="_top">
<polygon fill="none" stroke="white" points="453.44,-240.6 401.12,-240.6 401.12,-221.28 453.44,-221.28 453.44,-240.6"/>
<text xml:space="preserve" text-anchor="middle" x="427.28" y="-225.14" font-family="Sans-Serif" font-size="14.00">Queries</text>
</a>
</g>
</g>
<!-- Queries&#45;&gt;Views -->
<g id="edge6" class="edge">
<title>Queries&#45;&gt;Views</title>
<path fill="none" stroke="black" d="M431.41,-221.14C434.61,-214.31 439.17,-204.59 443.21,-195.97"/>
<polygon fill="black" stroke="black" points="446.35,-197.53 447.42,-186.99 440.01,-194.55 446.35,-197.53"/>
</g>
<!-- Queries&#45;&gt;Reconstruction -->
<g id="edge44" class="edge">
<title>Queries&#45;&gt;Reconstruction</title>
<path fill="none" stroke="black" d="M453.71,-221.84C482.15,-213.13 527.75,-199.16 560.73,-189.05"/>
<polygon fill="black" stroke="black" points="561.41,-192.5 569.95,-186.22 559.36,-185.81 561.41,-192.5"/>
</g>
<!-- ReadOnly -->
<g id="node9" class="node">
<title>ReadOnly</title>
<g id="a_node9"><a xlink:href="../read_only.html" xlink:title="ReadOnly" target="_top">
<polygon fill="none" stroke="white" points="250.82,-240.6 185.75,-240.6 185.75,-221.28 250.82,-221.28 250.82,-240.6"/>
<text xml:space="preserve" text-anchor="middle" x="218.28" y="-225.14" font-family="Sans-Serif" font-size="14.00">ReadOnly</text>
</a>
</g>
</g>
<!-- ReadOnly&#45;&gt;Views -->
<g id="edge7" class="edge">
<title>ReadOnly&#45;&gt;Views</title>
<path fill="none" stroke="black" d="M251.32,-222.41C296.32,-212.16 376.36,-193.92 420.64,-183.83"/>
<polygon fill="black" stroke="black" points="421.41,-187.24 430.38,-181.61 419.86,-180.42 421.41,-187.24"/>
</g>
<!-- ReadOnly&#45;&gt;FilesFormat -->
<g id="edge40" class="edge">
<title>ReadOnly&#45;&gt;FilesFormat</title>
<path fill="none" stroke="black" d="M218.95,-221.14C219.44,-214.54 220.14,-205.24 220.77,-196.85"/>
<polygon fill="black" stroke="black" points="224.24,-197.36 221.5,-187.13 217.26,-196.84 224.24,-197.36"/>
</g>
<!-- ReadOnly&#45;&gt;H5dfFormat -->
<g id="edge31" class="edge">
<title>ReadOnly&#45;&gt;H5dfFormat</title>
<path fill="none" stroke="black" d="M203.02,-220.89C189.44,-212.85 169.33,-200.94 153.39,-191.49"/>
<polygon fill="black" stroke="black" points="155.32,-188.57 144.93,-186.48 151.75,-194.59 155.32,-188.57"/>
</g>
<!-- ReadOnly&#45;&gt;ZarrFormat -->
<g id="edge25" class="edge">
<title>ReadOnly&#45;&gt;ZarrFormat</title>
<path fill="none" stroke="black" d="M187.41,-220.89C157.34,-212.09 111.42,-198.63 78.09,-188.87"/>
<polygon fill="black" stroke="black" points="79.34,-185.59 68.76,-186.13 77.38,-192.31 79.34,-185.59"/>
</g>
<!-- Operations -->
<g id="node10" class="node">
<title>Operations</title>
<g id="a_node10"><a xlink:href="../operations.html" xlink:title="Operations" target="_top">
<polygon fill="none" stroke="white" points="340.82,-295.92 269.75,-295.92 269.75,-276.6 340.82,-276.6 340.82,-295.92"/>
<text xml:space="preserve" text-anchor="middle" x="305.28" y="-280.46" font-family="Sans-Serif" font-size="14.00">Operations</text>
</a>
</g>
</g>
<!-- Operations&#45;&gt;Queries -->
<g id="edge10" class="edge">
<title>Operations&#45;&gt;Queries</title>
<path fill="none" stroke="black" d="M325.98,-276.21C345.17,-267.83 374,-255.23 396,-245.61"/>
<polygon fill="black" stroke="black" points="397.34,-248.85 405.1,-241.64 394.54,-242.43 397.34,-248.85"/>
</g>
<!-- Operations&#45;&gt;FilesFormat -->
<g id="edge37" class="edge">
<title>Operations&#45;&gt;FilesFormat</title>
<path fill="none" stroke="black" d="M299.42,-276.38C291.06,-263.86 275.09,-240.39 260.28,-221.28 253.21,-212.14 244.93,-202.32 237.91,-194.22"/>
<polygon fill="black" stroke="black" points="240.62,-192 231.4,-186.79 235.36,-196.62 240.62,-192"/>
</g>
<!-- Registry -->
<g id="node11" class="node">
<title>Registry</title>
<g id="a_node11"><a xlink:href="../registry.html" xlink:title="Registry" target="_top">
<polygon fill="none" stroke="white" points="338.19,-406.56 284.37,-406.56 284.37,-387.24 338.19,-387.24 338.19,-406.56"/>
<text xml:space="preserve" text-anchor="middle" x="311.28" y="-391.1" font-family="Sans-Serif" font-size="14.00">Registry</text>
</a>
</g>
</g>
<!-- Registry&#45;&gt;Operations -->
<g id="edge8" class="edge">
<title>Registry&#45;&gt;Operations</title>
<path fill="none" stroke="black" d="M310.79,-387.01C309.84,-369.74 307.72,-331.27 306.4,-307.48"/>
<polygon fill="black" stroke="black" points="309.91,-307.58 305.87,-297.78 302.92,-307.96 309.91,-307.58"/>
</g>
<!-- Formats -->
<g id="node19" class="node">
<title>Formats</title>
<g id="a_node19"><a xlink:href="../formats.html" xlink:title="Formats" target="_top">
<polygon fill="none" stroke="white" points="245.57,-351.24 191,-351.24 191,-331.92 245.57,-331.92 245.57,-351.24"/>
<text xml:space="preserve" text-anchor="middle" x="218.28" y="-335.78" font-family="Sans-Serif" font-size="14.00">Formats</text>
</a>
</g>
</g>
<!-- Registry&#45;&gt;Formats -->
<g id="edge18" class="edge">
<title>Registry&#45;&gt;Formats</title>
<path fill="none" stroke="black" d="M295.51,-386.85C281.35,-378.74 260.3,-366.67 243.76,-357.18"/>
<polygon fill="black" stroke="black" points="245.87,-354.36 235.45,-352.42 242.39,-360.43 245.87,-354.36"/>
</g>
<!-- Tokens -->
<g id="node12" class="node">
<title>Tokens</title>
<g id="a_node12"><a xlink:href="../tokens.html" xlink:title="Tokens" target="_top">
<polygon fill="none" stroke="white" points="266.82,-406.56 219.75,-406.56 219.75,-387.24 266.82,-387.24 266.82,-406.56"/>
<text xml:space="preserve" text-anchor="middle" x="243.28" y="-391.1" font-family="Sans-Serif" font-size="14.00">Tokens</text>
</a>
</g>
</g>
<!-- Tokens&#45;&gt;Operations -->
<g id="edge9" class="edge">
<title>Tokens&#45;&gt;Operations</title>
<path fill="none" stroke="black" d="M248.36,-387.01C258.4,-369.42 280.98,-329.85 294.49,-306.17"/>
<polygon fill="black" stroke="black" points="297.47,-308.01 299.39,-297.59 291.39,-304.54 297.47,-308.01"/>
</g>
<!-- Tokens&#45;&gt;Formats -->
<g id="edge19" class="edge">
<title>Tokens&#45;&gt;Formats</title>
<path fill="none" stroke="black" d="M239.16,-387.1C235.96,-380.27 231.4,-370.55 227.36,-361.93"/>
<polygon fill="black" stroke="black" points="230.56,-360.51 223.15,-352.95 224.22,-363.49 230.56,-360.51"/>
</g>
<!-- Readers -->
<g id="node13" class="node">
<title>Readers</title>
<g id="a_node13"><a xlink:href="../readers.html" xlink:title="Readers" target="_top">
<polygon fill="none" stroke="white" points="245.94,-295.92 190.62,-295.92 190.62,-276.6 245.94,-276.6 245.94,-295.92"/>
<text xml:space="preserve" text-anchor="middle" x="218.28" y="-280.46" font-family="Sans-Serif" font-size="14.00">Readers</text>
</a>
</g>
</g>
<!-- Readers&#45;&gt;Writers -->
<g id="edge33" class="edge">
<title>Readers&#45;&gt;Writers</title>
<path fill="none" stroke="black" d="M237.45,-276.21C255.07,-267.9 281.44,-255.46 301.75,-245.88"/>
<polygon fill="black" stroke="black" points="303.1,-249.11 310.65,-241.68 300.12,-242.78 303.1,-249.11"/>
</g>
<!-- Readers&#45;&gt;Queries -->
<g id="edge11" class="edge">
<title>Readers&#45;&gt;Queries</title>
<path fill="none" stroke="black" d="M246.04,-278.18C282.98,-268.75 348.45,-252.05 389.77,-241.51"/>
<polygon fill="black" stroke="black" points="390.45,-244.95 399.27,-239.09 388.72,-238.17 390.45,-244.95"/>
</g>
<!-- Readers&#45;&gt;ReadOnly -->
<g id="edge46" class="edge">
<title>Readers&#45;&gt;ReadOnly</title>
<path fill="none" stroke="black" d="M218.28,-276.46C218.28,-269.86 218.28,-260.56 218.28,-252.17"/>
<polygon fill="black" stroke="black" points="221.79,-252.45 218.29,-242.45 214.79,-252.45 221.79,-252.45"/>
</g>
<!-- Reorder -->
<g id="node18" class="node">
<title>Reorder</title>
<g id="a_node18"><a xlink:href="../reorder.html" xlink:title="Reorder" target="_top">
<polygon fill="none" stroke="white" points="167.82,-240.6 114.75,-240.6 114.75,-221.28 167.82,-221.28 167.82,-240.6"/>
<text xml:space="preserve" text-anchor="middle" x="141.28" y="-225.14" font-family="Sans-Serif" font-size="14.00">Reorder</text>
</a>
</g>
</g>
<!-- Readers&#45;&gt;Reorder -->
<g id="edge16" class="edge">
<title>Readers&#45;&gt;Reorder</title>
<path fill="none" stroke="black" d="M205.22,-276.21C193.83,-268.33 177.06,-256.71 163.55,-247.36"/>
<polygon fill="black" stroke="black" points="165.87,-244.71 155.66,-241.89 161.88,-250.46 165.87,-244.71"/>
</g>
<!-- Groups -->
<g id="node25" class="node">
<title>Groups</title>
<g id="a_node25"><a xlink:href="../groups.html" xlink:title="Groups" target="_top">
<polygon fill="none" stroke="white" points="96.94,-240.6 47.62,-240.6 47.62,-221.28 96.94,-221.28 96.94,-240.6"/>
<text xml:space="preserve" text-anchor="middle" x="72.28" y="-225.14" font-family="Sans-Serif" font-size="14.00">Groups</text>
</a>
</g>
</g>
<!-- Readers&#45;&gt;Groups -->
<g id="edge32" class="edge">
<title>Readers&#45;&gt;Groups</title>
<path fill="none" stroke="black" d="M193.52,-276.21C170.03,-267.64 134.47,-254.65 107.93,-244.96"/>
<polygon fill="black" stroke="black" points="109.19,-241.69 98.6,-241.55 106.79,-248.27 109.19,-241.69"/>
</g>
<!-- FilesFormat&#45;&gt;CompleteDaf -->
<g id="edge12" class="edge">
<title>FilesFormat&#45;&gt;CompleteDaf</title>
<path fill="none" stroke="black" d="M216.23,-165.73C204.14,-147.98 176.81,-107.85 160.73,-84.26"/>
<polygon fill="black" stroke="black" points="163.8,-82.54 155.28,-76.24 158.01,-86.48 163.8,-82.54"/>
</g>
<!-- FilesFormat&#45;&gt;ExampleData -->
<g id="edge20" class="edge">
<title>FilesFormat&#45;&gt;ExampleData</title>
<path fill="none" stroke="black" d="M221.17,-165.7C219.9,-153.13 218.68,-129.61 224.28,-110.64 227.04,-101.32 232.23,-91.97 237.32,-84.25"/>
<polygon fill="black" stroke="black" points="240.16,-86.31 243.1,-76.13 234.45,-82.25 240.16,-86.31"/>
</g>
<!-- H5dfFormat&#45;&gt;CompleteDaf -->
<g id="edge14" class="edge">
<title>H5dfFormat&#45;&gt;CompleteDaf</title>
<path fill="none" stroke="black" d="M129.92,-165.73C133.1,-148.46 140.18,-109.99 144.56,-86.2"/>
<polygon fill="black" stroke="black" points="147.98,-86.95 146.35,-76.48 141.1,-85.68 147.98,-86.95"/>
</g>
<!-- Contracts&#45;&gt;Computations -->
<g id="edge43" class="edge">
<title>Contracts&#45;&gt;Computations</title>
<path fill="none" stroke="black" d="M519.43,-110.5C521.06,-103.82 523.36,-94.38 525.43,-85.91"/>
<polygon fill="black" stroke="black" points="528.76,-86.99 527.73,-76.45 521.96,-85.33 528.76,-86.99"/>
</g>
<!-- Reorder&#45;&gt;MemoryFormat -->
<g id="edge27" class="edge">
<title>Reorder&#45;&gt;MemoryFormat</title>
<path fill="none" stroke="black" d="M167.93,-222.3C198.43,-213.56 248.79,-199.12 284.73,-188.82"/>
<polygon fill="black" stroke="black" points="285.28,-192.3 293.93,-186.18 283.35,-185.57 285.28,-192.3"/>
</g>
<!-- Reorder&#45;&gt;FilesFormat -->
<g id="edge38" class="edge">
<title>Reorder&#45;&gt;FilesFormat</title>
<path fill="none" stroke="black" d="M155.03,-220.89C167.01,-213.01 184.66,-201.39 198.87,-192.04"/>
<polygon fill="black" stroke="black" points="200.78,-194.96 207.21,-186.54 196.94,-189.12 200.78,-194.96"/>
</g>
<!-- Reorder&#45;&gt;H5dfFormat -->
<g id="edge30" class="edge">
<title>Reorder&#45;&gt;H5dfFormat</title>
<path fill="none" stroke="black" d="M139.14,-221.14C137.51,-214.46 135.21,-205.02 133.14,-196.55"/>
<polygon fill="black" stroke="black" points="136.61,-195.97 130.84,-187.09 129.81,-197.63 136.61,-195.97"/>
</g>
<!-- Reorder&#45;&gt;ZarrFormat -->
<g id="edge24" class="edge">
<title>Reorder&#45;&gt;ZarrFormat</title>
<path fill="none" stroke="black" d="M123.47,-220.89C107.26,-212.66 83.05,-200.37 64.25,-190.82"/>
<polygon fill="black" stroke="black" points="66.03,-187.8 55.53,-186.39 62.87,-194.04 66.03,-187.8"/>
</g>
<!-- Formats&#45;&gt;Readers -->
<g id="edge47" class="edge">
<title>Formats&#45;&gt;Readers</title>
<path fill="none" stroke="black" d="M218.28,-331.78C218.28,-325.18 218.28,-315.88 218.28,-307.49"/>
<polygon fill="black" stroke="black" points="221.79,-307.77 218.29,-297.77 214.79,-307.77 221.79,-307.77"/>
</g>
<!-- Keys -->
<g id="node20" class="node">
<title>Keys</title>
<g id="a_node20"><a xlink:href="../keys.html" xlink:title="Keys" target="_top">
<polygon fill="none" stroke="white" points="201.44,-406.56 167.12,-406.56 167.12,-387.24 201.44,-387.24 201.44,-406.56"/>
<text xml:space="preserve" text-anchor="middle" x="184.28" y="-391.1" font-family="Sans-Serif" font-size="14.00">Keys</text>
</a>
</g>
</g>
<!-- Keys&#45;&gt;Formats -->
<g id="edge17" class="edge">
<title>Keys&#45;&gt;Formats</title>
<path fill="none" stroke="black" d="M189.9,-387.1C194.4,-380.04 200.87,-369.89 206.5,-361.06"/>
<polygon fill="black" stroke="black" points="209.31,-363.17 211.73,-352.85 203.41,-359.4 209.31,-363.17"/>
</g>
<!-- MmapZipStores -->
<g id="node22" class="node">
<title>MmapZipStores</title>
<g id="a_node22"><a xlink:href="../mmap_zip_store.html" xlink:title="MmapZipStores" target="_top">
<polygon fill="none" stroke="white" points="474.82,-461.88 373.75,-461.88 373.75,-442.56 474.82,-442.56 474.82,-461.88"/>
<text xml:space="preserve" text-anchor="middle" x="424.28" y="-446.42" font-family="Sans-Serif" font-size="14.00">MmapZipStores</text>
</a>
</g>
</g>
<!-- StorageTypes -->
<g id="node24" class="node">
<title>StorageTypes</title>
<g id="a_node24"><a xlink:href="../storage_types.html" xlink:title="StorageTypes" target="_top">
<polygon fill="none" stroke="white" points="355.44,-461.88 267.12,-461.88 267.12,-442.56 355.44,-442.56 355.44,-461.88"/>
<text xml:space="preserve" text-anchor="middle" x="311.28" y="-446.42" font-family="Sans-Serif" font-size="14.00">StorageTypes</text>
</a>
</g>
</g>
<!-- StorageTypes&#45;&gt;Registry -->
<g id="edge28" class="edge">
<title>StorageTypes&#45;&gt;Registry</title>
<path fill="none" stroke="black" d="M311.28,-442.42C311.28,-435.82 311.28,-426.52 311.28,-418.13"/>
<polygon fill="black" stroke="black" points="314.79,-418.41 311.29,-408.41 307.79,-418.41 314.79,-418.41"/>
</g>
</g>
</svg>
