<?xml version="1.0" encoding="UTF-8" standalone="no"?>
<!DOCTYPE svg PUBLIC "-//W3C//DTD SVG 1.1//EN"
 "http://www.w3.org/Graphics/SVG/1.1/DTD/svg11.dtd">
<!-- Generated by graphviz version 14.1.4 (20260321.0153)
 -->
<!-- Pages: 1 -->
<svg width="719pt" height="470pt"
 viewBox="0.00 0.00 719.00 470.00" xmlns="http://www.w3.org/2000/svg" xmlns:xlink="http://www.w3.org/1999/xlink">
<g id="graph0" class="graph" transform="scale(1 1) rotate(0) translate(4 465.88)">
<polygon fill="white" stroke="none" points="-4,4 -4,-465.88 714.82,-465.88 714.82,4 -4,4"/>
<!-- Copies -->
<g id="node1" class="node">
<title>Copies</title>
<g id="a_node1"><a xlink:href="../copies.html" xlink:title="Copies" target="_top">
<polygon fill="none" stroke="white" points="216.32,-185.28 170,-185.28 170,-165.96 216.32,-165.96 216.32,-185.28"/>
<text xml:space="preserve" text-anchor="middle" x="193.16" y="-169.82" font-family="Sans-Serif" font-size="14.00">Copies</text>
</a>
</g>
</g>
<!-- Adapters -->
<g id="node3" class="node">
<title>Adapters</title>
<g id="a_node3"><a xlink:href="../adapters.html" xlink:title="Adapters" target="_top">
<polygon fill="none" stroke="white" points="243.32,-19.32 185,-19.32 185,0 243.32,0 243.32,-19.32"/>
<text xml:space="preserve" text-anchor="middle" x="214.16" y="-3.86" font-family="Sans-Serif" font-size="14.00">Adapters</text>
</a>
</g>
</g>
<!-- Copies&#45;&gt;Adapters -->
<g id="edge5" class="edge">
<title>Copies&#45;&gt;Adapters</title>
<path fill="none" stroke="black" d="M194.29,-165.8C197.54,-140.45 206.96,-66.85 211.57,-30.9"/>
<polygon fill="black" stroke="black" points="215.03,-31.38 212.83,-21.02 208.09,-30.49 215.03,-31.38"/>
</g>
<!-- Concat -->
<g id="node28" class="node">
<title>Concat</title>
<g id="a_node28"><a xlink:href="../concat.html" xlink:title="Concat" target="_top">
<polygon fill="none" stroke="white" points="166.69,-129.96 119.62,-129.96 119.62,-110.64 166.69,-110.64 166.69,-129.96"/>
<text xml:space="preserve" text-anchor="middle" x="143.16" y="-114.5" font-family="Sans-Serif" font-size="14.00">Concat</text>
</a>
</g>
</g>
<!-- Copies&#45;&gt;Concat -->
<g id="edge45" class="edge">
<title>Copies&#45;&gt;Concat</title>
<path fill="none" stroke="black" d="M184.9,-165.82C178,-158.45 167.94,-147.72 159.42,-138.64"/>
<polygon fill="black" stroke="black" points="162.02,-136.3 152.63,-131.4 156.92,-141.09 162.02,-136.3"/>
</g>
<!-- Writers -->
<g id="node2" class="node">
<title>Writers</title>
<g id="a_node2"><a xlink:href="../writers.html" xlink:title="Writers" target="_top">
<polygon fill="none" stroke="white" points="351.69,-240.6 304.62,-240.6 304.62,-221.28 351.69,-221.28 351.69,-240.6"/>
<text xml:space="preserve" text-anchor="middle" x="328.16" y="-225.14" font-family="Sans-Serif" font-size="14.00">Writers</text>
</a>
</g>
</g>
<!-- Writers&#45;&gt;Copies -->
<g id="edge1" class="edge">
<title>Writers&#45;&gt;Copies</title>
<path fill="none" stroke="black" d="M305.26,-220.89C283.73,-212.39 251.25,-199.56 226.78,-189.9"/>
<polygon fill="black" stroke="black" points="228.17,-186.68 217.58,-186.27 225.6,-193.19 228.17,-186.68"/>
</g>
<!-- MemoryFormat -->
<g id="node4" class="node">
<title>MemoryFormat</title>
<g id="a_node4"><a xlink:href="../memory_format.html" xlink:title="MemoryFormat" target="_top">
<polygon fill="none" stroke="white" points="558.19,-185.28 460.12,-185.28 460.12,-165.96 558.19,-165.96 558.19,-185.28"/>
<text xml:space="preserve" text-anchor="middle" x="509.16" y="-169.82" font-family="Sans-Serif" font-size="14.00">MemoryFormat</text>
</a>
</g>
</g>
<!-- Writers&#45;&gt;MemoryFormat -->
<g id="edge27" class="edge">
<title>Writers&#45;&gt;MemoryFormat</title>
<path fill="none" stroke="black" d="M351.82,-222.97C381.17,-214.32 431.72,-199.43 467.6,-188.86"/>
<polygon fill="black" stroke="black" points="468.16,-192.35 476.77,-186.16 466.19,-185.63 468.16,-192.35"/>
</g>
<!-- Chains -->
<g id="node5" class="node">
<title>Chains</title>
<g id="a_node5"><a xlink:href="../chains.html" xlink:title="Chains" target="_top">
<polygon fill="none" stroke="white" points="269.32,-129.96 223,-129.96 223,-110.64 269.32,-110.64 269.32,-129.96"/>
<text xml:space="preserve" text-anchor="middle" x="246.16" y="-114.5" font-family="Sans-Serif" font-size="14.00">Chains</text>
</a>
</g>
</g>
<!-- Writers&#45;&gt;Chains -->
<g id="edge35" class="edge">
<title>Writers&#45;&gt;Chains</title>
<path fill="none" stroke="black" d="M307.94,-220.87C293.4,-213.34 274.44,-201.28 263.16,-185.28 254.12,-172.47 249.89,-155.14 247.91,-141.76"/>
<polygon fill="black" stroke="black" points="251.4,-141.44 246.78,-131.9 244.44,-142.23 251.4,-141.44"/>
</g>
<!-- FilesFormat -->
<g id="node15" class="node">
<title>FilesFormat</title>
<g id="a_node15"><a xlink:href="../files_format.html" xlink:title="FilesFormat" target="_top">
<polygon fill="none" stroke="white" points="348.32,-185.28 272,-185.28 272,-165.96 348.32,-165.96 348.32,-185.28"/>
<text xml:space="preserve" text-anchor="middle" x="310.16" y="-169.82" font-family="Sans-Serif" font-size="14.00">FilesFormat</text>
</a>
</g>
</g>
<!-- Writers&#45;&gt;FilesFormat -->
<g id="edge38" class="edge">
<title>Writers&#45;&gt;FilesFormat</title>
<path fill="none" stroke="black" d="M325.19,-221.14C322.91,-214.38 319.67,-204.81 316.79,-196.26"/>
<polygon fill="black" stroke="black" points="320.2,-195.41 313.68,-187.05 313.56,-197.64 320.2,-195.41"/>
</g>
<!-- H5dfFormat -->
<g id="node16" class="node">
<title>H5dfFormat</title>
<g id="a_node16"><a xlink:href="../h5df_format.html" xlink:title="H5dfFormat" target="_top">
<polygon fill="none" stroke="white" points="442.32,-185.28 366,-185.28 366,-165.96 442.32,-165.96 442.32,-185.28"/>
<text xml:space="preserve" text-anchor="middle" x="404.16" y="-169.82" font-family="Sans-Serif" font-size="14.00">H5dfFormat</text>
</a>
</g>
</g>
<!-- Writers&#45;&gt;H5dfFormat -->
<g id="edge30" class="edge">
<title>Writers&#45;&gt;H5dfFormat</title>
<path fill="none" stroke="black" d="M341.05,-220.89C352.19,-213.08 368.53,-201.61 381.8,-192.31"/>
<polygon fill="black" stroke="black" points="383.79,-195.19 389.97,-186.58 379.77,-189.46 383.79,-195.19"/>
</g>
<!-- ZarrFormat -->
<g id="node23" class="node">
<title>ZarrFormat</title>
<g id="a_node23"><a xlink:href="../zarr_format.html" xlink:title="ZarrFormat" target="_top">
<polygon fill="none" stroke="white" points="648.44,-185.28 575.88,-185.28 575.88,-165.96 648.44,-165.96 648.44,-185.28"/>
<text xml:space="preserve" text-anchor="middle" x="612.16" y="-169.82" font-family="Sans-Serif" font-size="14.00">ZarrFormat</text>
</a>
</g>
</g>
<!-- Writers&#45;&gt;ZarrFormat -->
<g id="edge23" class="edge">
<title>Writers&#45;&gt;ZarrFormat</title>
<path fill="none" stroke="black" d="M351.87,-223.26C354.65,-222.56 357.46,-221.88 360.16,-221.28 447.85,-201.83 473.38,-202.06 564.66,-185.69"/>
<polygon fill="black" stroke="black" points="565.12,-189.17 574.33,-183.94 563.87,-182.28 565.12,-189.17"/>
</g>
<!-- Reconstruction -->
<g id="node29" class="node">
<title>Reconstruction</title>
<g id="a_node29"><a xlink:href="../reconstruction.html" xlink:title="Reconstruction" target="_top">
<polygon fill="none" stroke="white" points="94.32,-185.28 0,-185.28 0,-165.96 94.32,-165.96 94.32,-185.28"/>
<text xml:space="preserve" text-anchor="middle" x="47.16" y="-169.82" font-family="Sans-Serif" font-size="14.00">Reconstruction</text>
</a>
</g>
</g>
<!-- Writers&#45;&gt;Reconstruction -->
<g id="edge47" class="edge">
<title>Writers&#45;&gt;Reconstruction</title>
<path fill="none" stroke="black" d="M304.42,-223.47C301.31,-222.7 298.17,-221.94 295.16,-221.28 230.76,-207.05 156.2,-194.1 105.79,-185.84"/>
<polygon fill="black" stroke="black" points="106.39,-182.4 95.96,-184.25 105.26,-189.31 106.39,-182.4"/>
</g>
<!-- MemoryFormat&#45;&gt;Adapters -->
<g id="edge2" class="edge">
<title>MemoryFormat&#45;&gt;Adapters</title>
<path fill="none" stroke="black" d="M506.49,-165.52C498.91,-140.23 476.55,-70.01 458.16,-55.32 427.34,-30.7 315.68,-18.45 254.66,-13.47"/>
<polygon fill="black" stroke="black" points="255.28,-10.01 245.04,-12.71 254.74,-16.99 255.28,-10.01"/>
</g>
<!-- ExampleData -->
<g id="node21" class="node">
<title>ExampleData</title>
<g id="a_node21"><a xlink:href="../example_data.html" xlink:title="ExampleData" target="_top">
<polygon fill="none" stroke="white" points="449.19,-74.64 363.12,-74.64 363.12,-55.32 449.19,-55.32 449.19,-74.64"/>
<text xml:space="preserve" text-anchor="middle" x="406.16" y="-59.18" font-family="Sans-Serif" font-size="14.00">ExampleData</text>
</a>
</g>
</g>
<!-- MemoryFormat&#45;&gt;ExampleData -->
<g id="edge22" class="edge">
<title>MemoryFormat&#45;&gt;ExampleData</title>
<path fill="none" stroke="black" d="M499.45,-165.58C490,-156.69 475.33,-142.66 463.16,-129.96 448.42,-114.57 432.33,-96.38 421.02,-83.33"/>
<polygon fill="black" stroke="black" points="423.88,-81.29 414.7,-76 418.58,-85.86 423.88,-81.29"/>
</g>
<!-- AnnDataFormat -->
<g id="node26" class="node">
<title>AnnDataFormat</title>
<g id="a_node26"><a xlink:href="../anndata_format.html" xlink:title="AnnDataFormat" target="_top">
<polygon fill="none" stroke="white" points="605.32,-129.96 505,-129.96 505,-110.64 605.32,-110.64 605.32,-129.96"/>
<text xml:space="preserve" text-anchor="middle" x="555.16" y="-114.5" font-family="Sans-Serif" font-size="14.00">AnnDataFormat</text>
</a>
</g>
</g>
<!-- MemoryFormat&#45;&gt;AnnDataFormat -->
<g id="edge37" class="edge">
<title>MemoryFormat&#45;&gt;AnnDataFormat</title>
<path fill="none" stroke="black" d="M516.76,-165.82C523.04,-158.53 532.17,-147.94 539.96,-138.92"/>
<polygon fill="black" stroke="black" points="542.53,-141.3 546.41,-131.44 537.23,-136.73 542.53,-141.3"/>
</g>
<!-- Chains&#45;&gt;Adapters -->
<g id="edge3" class="edge">
<title>Chains&#45;&gt;Adapters</title>
<path fill="none" stroke="black" d="M243.54,-110.41C238.43,-93.06 227.02,-54.32 220.02,-30.55"/>
<polygon fill="black" stroke="black" points="223.43,-29.73 217.24,-21.13 216.71,-31.71 223.43,-29.73"/>
</g>
<!-- CompleteDaf -->
<g id="node14" class="node">
<title>CompleteDaf</title>
<g id="a_node14"><a xlink:href="../complete.html" xlink:title="CompleteDaf" target="_top">
<polygon fill="none" stroke="white" points="345.07,-74.64 261.25,-74.64 261.25,-55.32 345.07,-55.32 345.07,-74.64"/>
<text xml:space="preserve" text-anchor="middle" x="303.16" y="-59.18" font-family="Sans-Serif" font-size="14.00">CompleteDaf</text>
</a>
</g>
</g>
<!-- Chains&#45;&gt;CompleteDaf -->
<g id="edge12" class="edge">
<title>Chains&#45;&gt;CompleteDaf</title>
<path fill="none" stroke="black" d="M255.83,-110.25C263.9,-102.7 275.63,-91.74 285.38,-82.61"/>
<polygon fill="black" stroke="black" points="287.62,-85.31 292.53,-75.93 282.83,-80.2 287.62,-85.31"/>
</g>
<!-- Chains&#45;&gt;ExampleData -->
<g id="edge21" class="edge">
<title>Chains&#45;&gt;ExampleData</title>
<path fill="none" stroke="black" d="M269.77,-111.43C295.63,-102.82 337.48,-88.87 368.01,-78.69"/>
<polygon fill="black" stroke="black" points="368.88,-82.09 377.26,-75.61 366.67,-75.45 368.88,-82.09"/>
</g>
<!-- Computations -->
<g id="node6" class="node">
<title>Computations</title>
<g id="a_node6"><a xlink:href="../computations.html" xlink:title="Computations" target="_top">
<polygon fill="none" stroke="white" points="141.32,-74.64 53,-74.64 53,-55.32 141.32,-55.32 141.32,-74.64"/>
<text xml:space="preserve" text-anchor="middle" x="97.16" y="-59.18" font-family="Sans-Serif" font-size="14.00">Computations</text>
</a>
</g>
</g>
<!-- Computations&#45;&gt;Adapters -->
<g id="edge4" class="edge">
<title>Computations&#45;&gt;Adapters</title>
<path fill="none" stroke="black" d="M117.01,-54.93C135.33,-46.59 162.81,-34.06 183.87,-24.46"/>
<polygon fill="black" stroke="black" points="185.19,-27.71 192.84,-20.38 182.29,-21.34 185.19,-27.71"/>
</g>
<!-- Views -->
<g id="node7" class="node">
<title>Views</title>
<g id="a_node7"><a xlink:href="../views.html" xlink:title="Views" target="_top">
<polygon fill="none" stroke="white" points="152.32,-185.28 112,-185.28 112,-165.96 152.32,-165.96 152.32,-185.28"/>
<text xml:space="preserve" text-anchor="middle" x="132.16" y="-169.82" font-family="Sans-Serif" font-size="14.00">Views</text>
</a>
</g>
</g>
<!-- Views&#45;&gt;Chains -->
<g id="edge36" class="edge">
<title>Views&#45;&gt;Chains</title>
<path fill="none" stroke="black" d="M151.5,-165.57C169.27,-157.26 195.88,-144.82 216.36,-135.24"/>
<polygon fill="black" stroke="black" points="217.78,-138.44 225.36,-131.03 214.81,-132.1 217.78,-138.44"/>
</g>
<!-- Contracts -->
<g id="node17" class="node">
<title>Contracts</title>
<g id="a_node17"><a xlink:href="../contracts.html" xlink:title="Contracts" target="_top">
<polygon fill="none" stroke="white" points="101.19,-129.96 39.12,-129.96 39.12,-110.64 101.19,-110.64 101.19,-129.96"/>
<text xml:space="preserve" text-anchor="middle" x="70.16" y="-114.5" font-family="Sans-Serif" font-size="14.00">Contracts</text>
</a>
</g>
</g>
<!-- Views&#45;&gt;Contracts -->
<g id="edge15" class="edge">
<title>Views&#45;&gt;Contracts</title>
<path fill="none" stroke="black" d="M121.64,-165.57C112.77,-157.95 99.85,-146.83 89.17,-137.65"/>
<polygon fill="black" stroke="black" points="91.53,-135.07 81.67,-131.2 86.97,-140.37 91.53,-135.07"/>
</g>
<!-- Views&#45;&gt;Concat -->
<g id="edge44" class="edge">
<title>Views&#45;&gt;Concat</title>
<path fill="none" stroke="black" d="M133.98,-165.82C135.34,-159.22 137.26,-149.92 138.99,-141.53"/>
<polygon fill="black" stroke="black" points="142.41,-142.28 141,-131.78 135.55,-140.86 142.41,-142.28"/>
</g>
<!-- ReadOnly -->
<g id="node8" class="node">
<title>ReadOnly</title>
<g id="a_node8"><a xlink:href="../read_only.html" xlink:title="ReadOnly" target="_top">
<polygon fill="none" stroke="white" points="434.69,-240.6 369.62,-240.6 369.62,-221.28 434.69,-221.28 434.69,-240.6"/>
<text xml:space="preserve" text-anchor="middle" x="402.16" y="-225.14" font-family="Sans-Serif" font-size="14.00">ReadOnly</text>
</a>
</g>
</g>
<!-- ReadOnly&#45;&gt;Views -->
<g id="edge6" class="edge">
<title>ReadOnly&#45;&gt;Views</title>
<path fill="none" stroke="black" d="M369.5,-222.95C366.68,-222.37 363.87,-221.81 361.16,-221.28 275.98,-204.62 250.95,-206.09 163.64,-185.66"/>
<polygon fill="black" stroke="black" points="164.69,-182.31 154.15,-183.41 163.07,-189.12 164.69,-182.31"/>
</g>
<!-- ReadOnly&#45;&gt;FilesFormat -->
<g id="edge39" class="edge">
<title>ReadOnly&#45;&gt;FilesFormat</title>
<path fill="none" stroke="black" d="M386.55,-220.89C372.54,-212.78 351.73,-200.71 335.36,-191.22"/>
<polygon fill="black" stroke="black" points="337.56,-188.45 327.15,-186.47 334.05,-194.51 337.56,-188.45"/>
</g>
<!-- ReadOnly&#45;&gt;H5dfFormat -->
<g id="edge31" class="edge">
<title>ReadOnly&#45;&gt;H5dfFormat</title>
<path fill="none" stroke="black" d="M402.49,-221.14C402.74,-214.54 403.09,-205.24 403.4,-196.85"/>
<polygon fill="black" stroke="black" points="406.89,-197.25 403.77,-187.13 399.89,-196.99 406.89,-197.25"/>
</g>
<!-- ReadOnly&#45;&gt;ZarrFormat -->
<g id="edge24" class="edge">
<title>ReadOnly&#45;&gt;ZarrFormat</title>
<path fill="none" stroke="black" d="M434.97,-221.61C470.01,-212.71 525.83,-198.54 565.45,-188.48"/>
<polygon fill="black" stroke="black" points="566.12,-191.92 574.95,-186.07 564.4,-185.14 566.12,-191.92"/>
</g>
<!-- Queries -->
<g id="node9" class="node">
<title>Queries</title>
<g id="a_node9"><a xlink:href="../queries.html" xlink:title="Queries" target="_top">
<polygon fill="none" stroke="white" points="158.32,-240.6 106,-240.6 106,-221.28 158.32,-221.28 158.32,-240.6"/>
<text xml:space="preserve" text-anchor="middle" x="132.16" y="-225.14" font-family="Sans-Serif" font-size="14.00">Queries</text>
</a>
</g>
</g>
<!-- Queries&#45;&gt;Views -->
<g id="edge7" class="edge">
<title>Queries&#45;&gt;Views</title>
<path fill="none" stroke="black" d="M132.16,-221.14C132.16,-214.54 132.16,-205.24 132.16,-196.85"/>
<polygon fill="black" stroke="black" points="135.66,-197.13 132.16,-187.13 128.66,-197.13 135.66,-197.13"/>
</g>
<!-- Queries&#45;&gt;Reconstruction -->
<g id="edge48" class="edge">
<title>Queries&#45;&gt;Reconstruction</title>
<path fill="none" stroke="black" d="M117.74,-220.89C105.04,-212.93 86.29,-201.16 71.3,-191.76"/>
<polygon fill="black" stroke="black" points="73.26,-188.86 62.93,-186.51 69.54,-194.79 73.26,-188.86"/>
</g>
<!-- Operations -->
<g id="node10" class="node">
<title>Operations</title>
<g id="a_node10"><a xlink:href="../operations.html" xlink:title="Operations" target="_top">
<polygon fill="none" stroke="white" points="234.69,-295.92 163.62,-295.92 163.62,-276.6 234.69,-276.6 234.69,-295.92"/>
<text xml:space="preserve" text-anchor="middle" x="199.16" y="-280.46" font-family="Sans-Serif" font-size="14.00">Operations</text>
</a>
</g>
</g>
<!-- Operations&#45;&gt;Queries -->
<g id="edge11" class="edge">
<title>Operations&#45;&gt;Queries</title>
<path fill="none" stroke="black" d="M187.79,-276.21C178.11,-268.51 163.96,-257.25 152.35,-248.01"/>
<polygon fill="black" stroke="black" points="154.55,-245.28 144.54,-241.79 150.19,-250.76 154.55,-245.28"/>
</g>
<!-- Operations&#45;&gt;FilesFormat -->
<g id="edge41" class="edge">
<title>Operations&#45;&gt;FilesFormat</title>
<path fill="none" stroke="black" d="M197.37,-276.42C195.2,-263.1 193.18,-237.67 205.16,-221.28 218.34,-203.25 240.27,-192.44 260.69,-185.98"/>
<polygon fill="black" stroke="black" points="261.38,-189.43 270.04,-183.32 259.47,-182.69 261.38,-189.43"/>
</g>
<!-- HttpFormat -->
<g id="node27" class="node">
<title>HttpFormat</title>
<g id="a_node27"><a xlink:href="../http_format.html" xlink:title="HttpFormat" target="_top">
<polygon fill="none" stroke="white" points="286.44,-240.6 213.88,-240.6 213.88,-221.28 286.44,-221.28 286.44,-240.6"/>
<text xml:space="preserve" text-anchor="middle" x="250.16" y="-225.14" font-family="Sans-Serif" font-size="14.00">HttpFormat</text>
</a>
</g>
</g>
<!-- Operations&#45;&gt;HttpFormat -->
<g id="edge43" class="edge">
<title>Operations&#45;&gt;HttpFormat</title>
<path fill="none" stroke="black" d="M207.58,-276.46C214.7,-269.01 225.1,-258.14 233.85,-249"/>
<polygon fill="black" stroke="black" points="236.13,-251.68 240.51,-242.03 231.07,-246.84 236.13,-251.68"/>
</g>
<!-- Registry -->
<g id="node11" class="node">
<title>Registry</title>
<g id="a_node11"><a xlink:href="../registry.html" xlink:title="Registry" target="_top">
<polygon fill="none" stroke="white" points="226.07,-406.56 172.25,-406.56 172.25,-387.24 226.07,-387.24 226.07,-406.56"/>
<text xml:space="preserve" text-anchor="middle" x="199.16" y="-391.1" font-family="Sans-Serif" font-size="14.00">Registry</text>
</a>
</g>
</g>
<!-- Registry&#45;&gt;Operations -->
<g id="edge8" class="edge">
<title>Registry&#45;&gt;Operations</title>
<path fill="none" stroke="black" d="M199.16,-387.01C199.16,-369.74 199.16,-331.27 199.16,-307.48"/>
<polygon fill="black" stroke="black" points="202.66,-307.79 199.16,-297.79 195.66,-307.79 202.66,-307.79"/>
</g>
<!-- Formats -->
<g id="node19" class="node">
<title>Formats</title>
<g id="a_node19"><a xlink:href="../formats.html" xlink:title="Formats" target="_top">
<polygon fill="none" stroke="white" points="343.44,-351.24 288.87,-351.24 288.87,-331.92 343.44,-331.92 343.44,-351.24"/>
<text xml:space="preserve" text-anchor="middle" x="316.16" y="-335.78" font-family="Sans-Serif" font-size="14.00">Formats</text>
</a>
</g>
</g>
<!-- Registry&#45;&gt;Formats -->
<g id="edge18" class="edge">
<title>Registry&#45;&gt;Formats</title>
<path fill="none" stroke="black" d="M219.01,-386.85C237.33,-378.51 264.81,-365.98 285.87,-356.38"/>
<polygon fill="black" stroke="black" points="287.19,-359.63 294.84,-352.3 284.29,-353.26 287.19,-359.63"/>
</g>
<!-- Tokens -->
<g id="node12" class="node">
<title>Tokens</title>
<g id="a_node12"><a xlink:href="../tokens.html" xlink:title="Tokens" target="_top">
<polygon fill="none" stroke="white" points="290.69,-406.56 243.62,-406.56 243.62,-387.24 290.69,-387.24 290.69,-406.56"/>
<text xml:space="preserve" text-anchor="middle" x="267.16" y="-391.1" font-family="Sans-Serif" font-size="14.00">Tokens</text>
</a>
</g>
</g>
<!-- Tokens&#45;&gt;Operations -->
<g id="edge9" class="edge">
<title>Tokens&#45;&gt;Operations</title>
<path fill="none" stroke="black" d="M261.6,-387.01C250.54,-369.34 225.59,-329.49 210.8,-305.85"/>
<polygon fill="black" stroke="black" points="213.88,-304.18 205.6,-297.56 207.94,-307.89 213.88,-304.18"/>
</g>
<!-- Tokens&#45;&gt;Formats -->
<g id="edge17" class="edge">
<title>Tokens&#45;&gt;Formats</title>
<path fill="none" stroke="black" d="M275.25,-387.1C282.02,-379.73 291.88,-369 300.22,-359.92"/>
<polygon fill="black" stroke="black" points="302.68,-362.42 306.87,-352.69 297.53,-357.69 302.68,-362.42"/>
</g>
<!-- Readers -->
<g id="node13" class="node">
<title>Readers</title>
<g id="a_node13"><a xlink:href="../readers.html" xlink:title="Readers" target="_top">
<polygon fill="none" stroke="white" points="355.82,-295.92 300.5,-295.92 300.5,-276.6 355.82,-276.6 355.82,-295.92"/>
<text xml:space="preserve" text-anchor="middle" x="328.16" y="-280.46" font-family="Sans-Serif" font-size="14.00">Readers</text>
</a>
</g>
</g>
<!-- Readers&#45;&gt;Writers -->
<g id="edge34" class="edge">
<title>Readers&#45;&gt;Writers</title>
<path fill="none" stroke="black" d="M328.16,-276.46C328.16,-269.86 328.16,-260.56 328.16,-252.17"/>
<polygon fill="black" stroke="black" points="331.66,-252.45 328.16,-242.45 324.66,-252.45 331.66,-252.45"/>
</g>
<!-- Readers&#45;&gt;ReadOnly -->
<g id="edge49" class="edge">
<title>Readers&#45;&gt;ReadOnly</title>
<path fill="none" stroke="black" d="M340.71,-276.21C351.62,-268.35 367.66,-256.8 380.62,-247.46"/>
<polygon fill="black" stroke="black" points="382.5,-250.42 388.56,-241.74 378.4,-244.74 382.5,-250.42"/>
</g>
<!-- Readers&#45;&gt;Queries -->
<g id="edge10" class="edge">
<title>Readers&#45;&gt;Queries</title>
<path fill="none" stroke="black" d="M300.08,-277.62C265.68,-268.26 207.32,-252.39 169.26,-242.03"/>
<polygon fill="black" stroke="black" points="170.65,-238.78 160.08,-239.54 168.81,-245.54 170.65,-238.78"/>
</g>
<!-- Reorder -->
<g id="node18" class="node">
<title>Reorder</title>
<g id="a_node18"><a xlink:href="../reorder.html" xlink:title="Reorder" target="_top">
<polygon fill="none" stroke="white" points="505.69,-240.6 452.62,-240.6 452.62,-221.28 505.69,-221.28 505.69,-240.6"/>
<text xml:space="preserve" text-anchor="middle" x="479.16" y="-225.14" font-family="Sans-Serif" font-size="14.00">Reorder</text>
</a>
</g>
</g>
<!-- Readers&#45;&gt;Reorder -->
<g id="edge16" class="edge">
<title>Readers&#45;&gt;Reorder</title>
<path fill="none" stroke="black" d="M353.78,-276.21C378.18,-267.6 415.17,-254.54 442.66,-244.83"/>
<polygon fill="black" stroke="black" points="443.73,-248.16 451.99,-241.53 441.4,-241.56 443.73,-248.16"/>
</g>
<!-- Groups -->
<g id="node25" class="node">
<title>Groups</title>
<g id="a_node25"><a xlink:href="../groups.html" xlink:title="Groups" target="_top">
<polygon fill="none" stroke="white" points="710.82,-240.6 661.5,-240.6 661.5,-221.28 710.82,-221.28 710.82,-240.6"/>
<text xml:space="preserve" text-anchor="middle" x="686.16" y="-225.14" font-family="Sans-Serif" font-size="14.00">Groups</text>
</a>
</g>
</g>
<!-- Readers&#45;&gt;Groups -->
<g id="edge33" class="edge">
<title>Readers&#45;&gt;Groups</title>
<path fill="none" stroke="black" d="M356.17,-282.56C410.92,-277.03 536.09,-263.2 650.02,-241.04"/>
<polygon fill="black" stroke="black" points="650.39,-244.54 659.52,-239.17 649.03,-237.67 650.39,-244.54"/>
</g>
<!-- Readers&#45;&gt;HttpFormat -->
<g id="edge42" class="edge">
<title>Readers&#45;&gt;HttpFormat</title>
<path fill="none" stroke="black" d="M314.93,-276.21C303.39,-268.33 286.39,-256.71 272.71,-247.36"/>
<polygon fill="black" stroke="black" points="274.94,-244.64 264.71,-241.88 270.99,-250.42 274.94,-244.64"/>
</g>
<!-- FilesFormat&#45;&gt;CompleteDaf -->
<g id="edge13" class="edge">
<title>FilesFormat&#45;&gt;CompleteDaf</title>
<path fill="none" stroke="black" d="M309.59,-165.73C308.47,-148.46 306,-109.99 304.46,-86.2"/>
<polygon fill="black" stroke="black" points="307.97,-86.26 303.84,-76.5 300.99,-86.71 307.97,-86.26"/>
</g>
<!-- FilesFormat&#45;&gt;ExampleData -->
<g id="edge20" class="edge">
<title>FilesFormat&#45;&gt;ExampleData</title>
<path fill="none" stroke="black" d="M318.02,-165.73C333.91,-147.74 370.12,-106.77 390.84,-83.31"/>
<polygon fill="black" stroke="black" points="393.19,-85.94 397.19,-76.13 387.95,-81.3 393.19,-85.94"/>
</g>
<!-- H5dfFormat&#45;&gt;CompleteDaf -->
<g id="edge14" class="edge">
<title>H5dfFormat&#45;&gt;CompleteDaf</title>
<path fill="none" stroke="black" d="M395.89,-165.73C379.17,-147.74 341.08,-106.77 319.27,-83.31"/>
<polygon fill="black" stroke="black" points="321.94,-81.04 312.57,-76.1 316.82,-85.81 321.94,-81.04"/>
</g>
<!-- Contracts&#45;&gt;Computations -->
<g id="edge46" class="edge">
<title>Contracts&#45;&gt;Computations</title>
<path fill="none" stroke="black" d="M74.62,-110.5C78.11,-103.59 83.11,-93.73 87.51,-85.04"/>
<polygon fill="black" stroke="black" points="90.53,-86.83 91.92,-76.33 84.28,-83.67 90.53,-86.83"/>
</g>
<!-- Reorder&#45;&gt;MemoryFormat -->
<g id="edge28" class="edge">
<title>Reorder&#45;&gt;MemoryFormat</title>
<path fill="none" stroke="black" d="M484.11,-221.14C488.04,-214.15 493.67,-204.15 498.6,-195.39"/>
<polygon fill="black" stroke="black" points="501.5,-197.37 503.36,-186.94 495.4,-193.93 501.5,-197.37"/>
</g>
<!-- Reorder&#45;&gt;FilesFormat -->
<g id="edge40" class="edge">
<title>Reorder&#45;&gt;FilesFormat</title>
<path fill="none" stroke="black" d="M452.38,-221.49C424.74,-212.77 381.31,-199.07 349.72,-189.1"/>
<polygon fill="black" stroke="black" points="351.11,-185.87 340.52,-186.2 349,-192.55 351.11,-185.87"/>
</g>
<!-- Reorder&#45;&gt;H5dfFormat -->
<g id="edge32" class="edge">
<title>Reorder&#45;&gt;H5dfFormat</title>
<path fill="none" stroke="black" d="M466.44,-220.89C455.45,-213.08 439.32,-201.61 426.23,-192.31"/>
<polygon fill="black" stroke="black" points="428.36,-189.53 418.18,-186.59 424.3,-195.23 428.36,-189.53"/>
</g>
<!-- Reorder&#45;&gt;ZarrFormat -->
<g id="edge26" class="edge">
<title>Reorder&#45;&gt;ZarrFormat</title>
<path fill="none" stroke="black" d="M501.72,-220.89C522.93,-212.39 554.93,-199.56 579.04,-189.9"/>
<polygon fill="black" stroke="black" points="580.1,-193.24 588.08,-186.27 577.5,-186.75 580.1,-193.24"/>
</g>
<!-- Formats&#45;&gt;Readers -->
<g id="edge50" class="edge">
<title>Formats&#45;&gt;Readers</title>
<path fill="none" stroke="black" d="M318.14,-331.78C319.63,-325.18 321.72,-315.88 323.61,-307.49"/>
<polygon fill="black" stroke="black" points="327.02,-308.26 325.8,-297.73 320.19,-306.72 327.02,-308.26"/>
</g>
<!-- Keys -->
<g id="node20" class="node">
<title>Keys</title>
<g id="a_node20"><a xlink:href="../keys.html" xlink:title="Keys" target="_top">
<polygon fill="none" stroke="white" points="343.32,-406.56 309,-406.56 309,-387.24 343.32,-387.24 343.32,-406.56"/>
<text xml:space="preserve" text-anchor="middle" x="326.16" y="-391.1" font-family="Sans-Serif" font-size="14.00">Keys</text>
</a>
</g>
</g>
<!-- Keys&#45;&gt;Formats -->
<g id="edge19" class="edge">
<title>Keys&#45;&gt;Formats</title>
<path fill="none" stroke="black" d="M324.51,-387.1C323.27,-380.5 321.53,-371.2 319.95,-362.81"/>
<polygon fill="black" stroke="black" points="323.41,-362.25 318.13,-353.06 316.53,-363.54 323.41,-362.25"/>
</g>
<!-- MmapZipStores -->
<g id="node22" class="node">
<title>MmapZipStores</title>
<g id="a_node22"><a xlink:href="../mmap_zip_store.html" xlink:title="MmapZipStores" target="_top">
<polygon fill="none" stroke="white" points="643.69,-240.6 542.62,-240.6 542.62,-221.28 643.69,-221.28 643.69,-240.6"/>
<text xml:space="preserve" text-anchor="middle" x="593.16" y="-225.14" font-family="Sans-Serif" font-size="14.00">MmapZipStores</text>
</a>
</g>
</g>
<!-- MmapZipStores&#45;&gt;ZarrFormat -->
<g id="edge25" class="edge">
<title>MmapZipStores&#45;&gt;ZarrFormat</title>
<path fill="none" stroke="black" d="M596.3,-221.14C598.7,-214.38 602.12,-204.81 605.16,-196.26"/>
<polygon fill="black" stroke="black" points="608.39,-197.64 608.45,-187.04 601.79,-195.29 608.39,-197.64"/>
</g>
<!-- StorageTypes -->
<g id="node24" class="node">
<title>StorageTypes</title>
<g id="a_node24"><a xlink:href="../storage_types.html" xlink:title="StorageTypes" target="_top">
<polygon fill="none" stroke="white" points="243.32,-461.88 155,-461.88 155,-442.56 243.32,-442.56 243.32,-461.88"/>
<text xml:space="preserve" text-anchor="middle" x="199.16" y="-446.42" font-family="Sans-Serif" font-size="14.00">StorageTypes</text>
</a>
</g>
</g>
<!-- StorageTypes&#45;&gt;Registry -->
<g id="edge29" class="edge">
<title>StorageTypes&#45;&gt;Registry</title>
<path fill="none" stroke="black" d="M199.16,-442.42C199.16,-435.82 199.16,-426.52 199.16,-418.13"/>
<polygon fill="black" stroke="black" points="202.66,-418.41 199.16,-408.41 195.66,-418.41 202.66,-418.41"/>
</g>
</g>
</svg>
