<?xml version="1.0" encoding="UTF-8" standalone="no"?>
<!DOCTYPE svg PUBLIC "-//W3C//DTD SVG 1.1//EN"
 "http://www.w3.org/Graphics/SVG/1.1/DTD/svg11.dtd">
<!-- Generated by graphviz version 14.1.5 (20260411.2331)
 -->
<!-- Pages: 1 -->
<svg width="730pt" height="470pt"
 viewBox="0.00 0.00 730.00 470.00" xmlns="http://www.w3.org/2000/svg" xmlns:xlink="http://www.w3.org/1999/xlink">
<g id="graph0" class="graph" transform="scale(1 1) rotate(0) translate(4 465.88)">
<polygon fill="white" stroke="none" points="-4,4 -4,-465.88 726.32,-465.88 726.32,4 -4,4"/>
<!-- Copies -->
<g id="node1" class="node">
<title>Copies</title>
<g id="a_node1"><a xlink:href="../copies.html" xlink:title="Copies" target="_top">
<polygon fill="none" stroke="white" points="158.32,-185.28 112,-185.28 112,-165.96 158.32,-165.96 158.32,-185.28"/>
<text xml:space="preserve" text-anchor="middle" x="135.16" y="-169.82" font-family="Sans-Serif" font-size="14.00">Copies</text>
</a>
</g>
</g>
<!-- Adapters -->
<g id="node7" class="node">
<title>Adapters</title>
<g id="a_node7"><a xlink:href="../adapters.html" xlink:title="Adapters" target="_top">
<polygon fill="none" stroke="white" points="239.32,-19.32 181,-19.32 181,0 239.32,0 239.32,-19.32"/>
<text xml:space="preserve" text-anchor="middle" x="210.16" y="-3.86" font-family="Sans-Serif" font-size="14.00">Adapters</text>
</a>
</g>
</g>
<!-- Copies&#45;&gt;Adapters -->
<g id="edge6" class="edge">
<title>Copies&#45;&gt;Adapters</title>
<path fill="none" stroke="black" d="M111.71,-165.9C96.29,-158.79 77.33,-147.09 68.16,-129.96 64.11,-122.39 64.96,-118.61 68.16,-110.64 85.93,-66.4 135.94,-38.66 171.57,-23.92"/>
<polygon fill="black" stroke="black" points="172.69,-27.25 180.7,-20.32 170.12,-20.73 172.69,-27.25"/>
</g>
<!-- Concat -->
<g id="node32" class="node">
<title>Concat</title>
<g id="a_node32"><a xlink:href="../concat.html" xlink:title="Concat" target="_top">
<polygon fill="none" stroke="white" points="124.69,-129.96 77.62,-129.96 77.62,-110.64 124.69,-110.64 124.69,-129.96"/>
<text xml:space="preserve" text-anchor="middle" x="101.16" y="-114.5" font-family="Sans-Serif" font-size="14.00">Concat</text>
</a>
</g>
</g>
<!-- Copies&#45;&gt;Concat -->
<g id="edge47" class="edge">
<title>Copies&#45;&gt;Concat</title>
<path fill="none" stroke="black" d="M129.55,-165.82C125.04,-158.76 118.57,-148.61 112.95,-139.78"/>
<polygon fill="black" stroke="black" points="116.04,-138.12 107.71,-131.57 110.14,-141.89 116.04,-138.12"/>
</g>
<!-- Writers -->
<g id="node2" class="node">
<title>Writers</title>
<g id="a_node2"><a xlink:href="../writers.html" xlink:title="Writers" target="_top">
<polygon fill="none" stroke="white" points="312.69,-240.6 265.62,-240.6 265.62,-221.28 312.69,-221.28 312.69,-240.6"/>
<text xml:space="preserve" text-anchor="middle" x="289.16" y="-225.14" font-family="Sans-Serif" font-size="14.00">Writers</text>
</a>
</g>
</g>
<!-- Writers&#45;&gt;Copies -->
<g id="edge1" class="edge">
<title>Writers&#45;&gt;Copies</title>
<path fill="none" stroke="black" d="M265.43,-221.73C239.7,-212.81 198.39,-198.51 169.2,-188.4"/>
<polygon fill="black" stroke="black" points="170.68,-185.22 160.09,-185.25 168.39,-191.83 170.68,-185.22"/>
</g>
<!-- Chains -->
<g id="node9" class="node">
<title>Chains</title>
<g id="a_node9"><a xlink:href="../chains.html" xlink:title="Chains" target="_top">
<polygon fill="none" stroke="white" points="269.32,-129.96 223,-129.96 223,-110.64 269.32,-110.64 269.32,-129.96"/>
<text xml:space="preserve" text-anchor="middle" x="246.16" y="-114.5" font-family="Sans-Serif" font-size="14.00">Chains</text>
</a>
</g>
</g>
<!-- Writers&#45;&gt;Chains -->
<g id="edge40" class="edge">
<title>Writers&#45;&gt;Chains</title>
<path fill="none" stroke="black" d="M283.63,-220.97C278.36,-212.14 270.46,-198.14 265.16,-185.28 259.2,-170.83 254.25,-153.84 250.9,-141.01"/>
<polygon fill="black" stroke="black" points="254.38,-140.51 248.56,-131.66 247.59,-142.21 254.38,-140.51"/>
</g>
<!-- MemoryFormat -->
<g id="node10" class="node">
<title>MemoryFormat</title>
<g id="a_node10"><a xlink:href="../memory_format.html" xlink:title="MemoryFormat" target="_top">
<polygon fill="none" stroke="white" points="372.19,-185.28 274.12,-185.28 274.12,-165.96 372.19,-165.96 372.19,-185.28"/>
<text xml:space="preserve" text-anchor="middle" x="323.16" y="-169.82" font-family="Sans-Serif" font-size="14.00">MemoryFormat</text>
</a>
</g>
</g>
<!-- Writers&#45;&gt;MemoryFormat -->
<g id="edge29" class="edge">
<title>Writers&#45;&gt;MemoryFormat</title>
<path fill="none" stroke="black" d="M294.77,-221.14C299.28,-214.08 305.75,-203.93 311.37,-195.1"/>
<polygon fill="black" stroke="black" points="314.18,-197.21 316.61,-186.89 308.28,-193.44 314.18,-197.21"/>
</g>
<!-- H5dfFormat -->
<g id="node19" class="node">
<title>H5dfFormat</title>
<g id="a_node19"><a xlink:href="../h5df_format.html" xlink:title="H5dfFormat" target="_top">
<polygon fill="none" stroke="white" points="466.32,-185.28 390,-185.28 390,-165.96 466.32,-165.96 466.32,-185.28"/>
<text xml:space="preserve" text-anchor="middle" x="428.16" y="-169.82" font-family="Sans-Serif" font-size="14.00">H5dfFormat</text>
</a>
</g>
</g>
<!-- Writers&#45;&gt;H5dfFormat -->
<g id="edge34" class="edge">
<title>Writers&#45;&gt;H5dfFormat</title>
<path fill="none" stroke="black" d="M312.74,-220.89C335,-212.35 368.65,-199.45 393.88,-189.77"/>
<polygon fill="black" stroke="black" points="394.97,-193.1 403.05,-186.25 392.46,-186.57 394.97,-193.1"/>
</g>
<!-- FilesFormat -->
<g id="node26" class="node">
<title>FilesFormat</title>
<g id="a_node26"><a xlink:href="../files_format.html" xlink:title="FilesFormat" target="_top">
<polygon fill="none" stroke="white" points="560.32,-185.28 484,-185.28 484,-165.96 560.32,-165.96 560.32,-185.28"/>
<text xml:space="preserve" text-anchor="middle" x="522.16" y="-169.82" font-family="Sans-Serif" font-size="14.00">FilesFormat</text>
</a>
</g>
</g>
<!-- Writers&#45;&gt;FilesFormat -->
<g id="edge44" class="edge">
<title>Writers&#45;&gt;FilesFormat</title>
<path fill="none" stroke="black" d="M312.89,-223.39C315.68,-222.66 318.48,-221.94 321.16,-221.28 372.45,-208.65 431.49,-195.72 472.25,-187.05"/>
<polygon fill="black" stroke="black" points="472.97,-190.47 482.02,-184.97 471.52,-183.62 472.97,-190.47"/>
</g>
<!-- Reconstruction -->
<g id="node33" class="node">
<title>Reconstruction</title>
<g id="a_node33"><a xlink:href="../reconstruction.html" xlink:title="Reconstruction" target="_top">
<polygon fill="none" stroke="white" points="94.32,-185.28 0,-185.28 0,-165.96 94.32,-165.96 94.32,-185.28"/>
<text xml:space="preserve" text-anchor="middle" x="47.16" y="-169.82" font-family="Sans-Serif" font-size="14.00">Reconstruction</text>
</a>
</g>
</g>
<!-- Writers&#45;&gt;Reconstruction -->
<g id="edge51" class="edge">
<title>Writers&#45;&gt;Reconstruction</title>
<path fill="none" stroke="black" d="M265.52,-224.73C227.37,-216.33 151.32,-199.57 99.84,-188.23"/>
<polygon fill="black" stroke="black" points="100.6,-184.81 90.08,-186.08 99.09,-191.65 100.6,-184.81"/>
</g>
<!-- PackedFormat -->
<g id="node3" class="node">
<title>PackedFormat</title>
<g id="a_node3"><a xlink:href="../packed_format.html" xlink:title="PackedFormat" target="_top">
<polygon fill="none" stroke="white" points="335.57,-295.92 242.75,-295.92 242.75,-276.6 335.57,-276.6 335.57,-295.92"/>
<text xml:space="preserve" text-anchor="middle" x="289.16" y="-280.46" font-family="Sans-Serif" font-size="14.00">PackedFormat</text>
</a>
</g>
</g>
<!-- PackedFormat&#45;&gt;Writers -->
<g id="edge37" class="edge">
<title>PackedFormat&#45;&gt;Writers</title>
<path fill="none" stroke="black" d="M289.16,-276.46C289.16,-269.86 289.16,-260.56 289.16,-252.17"/>
<polygon fill="black" stroke="black" points="292.66,-252.45 289.16,-242.45 285.66,-252.45 292.66,-252.45"/>
</g>
<!-- MmapZipStores -->
<g id="node4" class="node">
<title>MmapZipStores</title>
<g id="a_node4"><a xlink:href="../mmap_zip_store.html" xlink:title="MmapZipStores" target="_top">
<polygon fill="none" stroke="white" points="339.69,-351.24 238.62,-351.24 238.62,-331.92 339.69,-331.92 339.69,-351.24"/>
<text xml:space="preserve" text-anchor="middle" x="289.16" y="-335.78" font-family="Sans-Serif" font-size="14.00">MmapZipStores</text>
</a>
</g>
</g>
<!-- MmapZipStores&#45;&gt;PackedFormat -->
<g id="edge2" class="edge">
<title>MmapZipStores&#45;&gt;PackedFormat</title>
<path fill="none" stroke="black" d="M289.16,-331.78C289.16,-325.18 289.16,-315.88 289.16,-307.49"/>
<polygon fill="black" stroke="black" points="292.66,-307.77 289.16,-297.77 285.66,-307.77 292.66,-307.77"/>
</g>
<!-- Operations -->
<g id="node5" class="node">
<title>Operations</title>
<g id="a_node5"><a xlink:href="../operations.html" xlink:title="Operations" target="_top">
<polygon fill="none" stroke="white" points="220.69,-351.24 149.62,-351.24 149.62,-331.92 220.69,-331.92 220.69,-351.24"/>
<text xml:space="preserve" text-anchor="middle" x="185.16" y="-335.78" font-family="Sans-Serif" font-size="14.00">Operations</text>
</a>
</g>
</g>
<!-- Operations&#45;&gt;PackedFormat -->
<g id="edge3" class="edge">
<title>Operations&#45;&gt;PackedFormat</title>
<path fill="none" stroke="black" d="M202.8,-331.53C218.79,-323.34 242.62,-311.12 261.2,-301.6"/>
<polygon fill="black" stroke="black" points="262.78,-304.72 270.08,-297.04 259.59,-298.49 262.78,-304.72"/>
</g>
<!-- Queries -->
<g id="node13" class="node">
<title>Queries</title>
<g id="a_node13"><a xlink:href="../queries.html" xlink:title="Queries" target="_top">
<polygon fill="none" stroke="white" points="220.32,-240.6 168,-240.6 168,-221.28 220.32,-221.28 220.32,-240.6"/>
<text xml:space="preserve" text-anchor="middle" x="194.16" y="-225.14" font-family="Sans-Serif" font-size="14.00">Queries</text>
</a>
</g>
</g>
<!-- Operations&#45;&gt;Queries -->
<g id="edge14" class="edge">
<title>Operations&#45;&gt;Queries</title>
<path fill="none" stroke="black" d="M185.9,-331.69C187.33,-314.42 190.51,-275.95 192.49,-252.16"/>
<polygon fill="black" stroke="black" points="195.95,-252.72 193.29,-242.46 188.97,-252.14 195.95,-252.72"/>
</g>
<!-- Formats -->
<g id="node6" class="node">
<title>Formats</title>
<g id="a_node6"><a xlink:href="../formats.html" xlink:title="Formats" target="_top">
<polygon fill="none" stroke="white" points="412.44,-351.24 357.87,-351.24 357.87,-331.92 412.44,-331.92 412.44,-351.24"/>
<text xml:space="preserve" text-anchor="middle" x="385.16" y="-335.78" font-family="Sans-Serif" font-size="14.00">Formats</text>
</a>
</g>
</g>
<!-- Formats&#45;&gt;PackedFormat -->
<g id="edge4" class="edge">
<title>Formats&#45;&gt;PackedFormat</title>
<path fill="none" stroke="black" d="M368.87,-331.53C354.26,-323.42 332.53,-311.35 315.45,-301.86"/>
<polygon fill="black" stroke="black" points="317.29,-298.88 306.85,-297.08 313.89,-305 317.29,-298.88"/>
</g>
<!-- Readers -->
<g id="node16" class="node">
<title>Readers</title>
<g id="a_node16"><a xlink:href="../readers.html" xlink:title="Readers" target="_top">
<polygon fill="none" stroke="white" points="410.82,-295.92 355.5,-295.92 355.5,-276.6 410.82,-276.6 410.82,-295.92"/>
<text xml:space="preserve" text-anchor="middle" x="383.16" y="-280.46" font-family="Sans-Serif" font-size="14.00">Readers</text>
</a>
</g>
</g>
<!-- Formats&#45;&gt;Readers -->
<g id="edge53" class="edge">
<title>Formats&#45;&gt;Readers</title>
<path fill="none" stroke="black" d="M384.83,-331.78C384.58,-325.18 384.23,-315.88 383.92,-307.49"/>
<polygon fill="black" stroke="black" points="387.43,-307.63 383.55,-297.77 380.43,-307.89 387.43,-307.63"/>
</g>
<!-- Computations -->
<g id="node8" class="node">
<title>Computations</title>
<g id="a_node8"><a xlink:href="../computations.html" xlink:title="Computations" target="_top">
<polygon fill="none" stroke="white" points="218.32,-74.64 130,-74.64 130,-55.32 218.32,-55.32 218.32,-74.64"/>
<text xml:space="preserve" text-anchor="middle" x="174.16" y="-59.18" font-family="Sans-Serif" font-size="14.00">Computations</text>
</a>
</g>
</g>
<!-- Computations&#45;&gt;Adapters -->
<g id="edge5" class="edge">
<title>Computations&#45;&gt;Adapters</title>
<path fill="none" stroke="black" d="M180.1,-55.18C184.87,-48.12 191.72,-37.97 197.68,-29.14"/>
<polygon fill="black" stroke="black" points="200.54,-31.16 203.24,-20.91 194.74,-27.24 200.54,-31.16"/>
</g>
<!-- Chains&#45;&gt;Adapters -->
<g id="edge7" class="edge">
<title>Chains&#45;&gt;Adapters</title>
<path fill="none" stroke="black" d="M243.78,-110.54C240.37,-98.16 233.77,-74.86 227.16,-55.32 224.34,-46.97 220.93,-37.86 217.91,-30.06"/>
<polygon fill="black" stroke="black" points="221.22,-28.92 214.3,-20.89 214.71,-31.48 221.22,-28.92"/>
</g>
<!-- CompleteDaf -->
<g id="node17" class="node">
<title>CompleteDaf</title>
<g id="a_node17"><a xlink:href="../complete.html" xlink:title="CompleteDaf" target="_top">
<polygon fill="none" stroke="white" points="599.07,-19.32 515.25,-19.32 515.25,0 599.07,0 599.07,-19.32"/>
<text xml:space="preserve" text-anchor="middle" x="557.16" y="-3.86" font-family="Sans-Serif" font-size="14.00">CompleteDaf</text>
</a>
</g>
</g>
<!-- Chains&#45;&gt;CompleteDaf -->
<g id="edge16" class="edge">
<title>Chains&#45;&gt;CompleteDaf</title>
<path fill="none" stroke="black" d="M265.95,-110.29C295.15,-97.18 351.67,-72.56 401.16,-55.32 437.18,-42.78 478.72,-31.01 509.88,-22.71"/>
<polygon fill="black" stroke="black" points="510.62,-26.13 519.4,-20.2 508.84,-19.36 510.62,-26.13"/>
</g>
<!-- ExampleData -->
<g id="node25" class="node">
<title>ExampleData</title>
<g id="a_node25"><a xlink:href="../example_data.html" xlink:title="ExampleData" target="_top">
<polygon fill="none" stroke="white" points="496.19,-74.64 410.12,-74.64 410.12,-55.32 496.19,-55.32 496.19,-74.64"/>
<text xml:space="preserve" text-anchor="middle" x="453.16" y="-59.18" font-family="Sans-Serif" font-size="14.00">ExampleData</text>
</a>
</g>
</g>
<!-- Chains&#45;&gt;ExampleData -->
<g id="edge25" class="edge">
<title>Chains&#45;&gt;ExampleData</title>
<path fill="none" stroke="black" d="M269.5,-113.29C302.7,-104.74 364.24,-88.89 406.88,-77.9"/>
<polygon fill="black" stroke="black" points="407.55,-81.34 416.36,-75.46 405.8,-74.56 407.55,-81.34"/>
</g>
<!-- MemoryFormat&#45;&gt;Adapters -->
<g id="edge8" class="edge">
<title>MemoryFormat&#45;&gt;Adapters</title>
<path fill="none" stroke="black" d="M317.41,-165.5C304.65,-145.35 272.79,-95.62 244.16,-55.32 237.82,-46.4 230.5,-36.71 224.28,-28.64"/>
<polygon fill="black" stroke="black" points="227.2,-26.7 218.3,-20.96 221.68,-31 227.2,-26.7"/>
</g>
<!-- MemoryFormat&#45;&gt;ExampleData -->
<g id="edge27" class="edge">
<title>MemoryFormat&#45;&gt;ExampleData</title>
<path fill="none" stroke="black" d="M370.77,-165.48C392.79,-158.99 417.66,-148.09 434.16,-129.96 445.03,-118.02 449.69,-100.12 451.69,-86.29"/>
<polygon fill="black" stroke="black" points="455.15,-86.83 452.72,-76.52 448.19,-86.1 455.15,-86.83"/>
</g>
<!-- AnnDataFormat -->
<g id="node30" class="node">
<title>AnnDataFormat</title>
<g id="a_node30"><a xlink:href="../anndata_format.html" xlink:title="AnnDataFormat" target="_top">
<polygon fill="none" stroke="white" points="425.32,-129.96 325,-129.96 325,-110.64 425.32,-110.64 425.32,-129.96"/>
<text xml:space="preserve" text-anchor="middle" x="375.16" y="-114.5" font-family="Sans-Serif" font-size="14.00">AnnDataFormat</text>
</a>
</g>
</g>
<!-- MemoryFormat&#45;&gt;AnnDataFormat -->
<g id="edge41" class="edge">
<title>MemoryFormat&#45;&gt;AnnDataFormat</title>
<path fill="none" stroke="black" d="M331.75,-165.82C339,-158.37 349.61,-147.5 358.53,-138.36"/>
<polygon fill="black" stroke="black" points="360.85,-140.98 365.33,-131.38 355.84,-136.1 360.85,-140.98"/>
</g>
<!-- Views -->
<g id="node11" class="node">
<title>Views</title>
<g id="a_node11"><a xlink:href="../views.html" xlink:title="Views" target="_top">
<polygon fill="none" stroke="white" points="216.32,-185.28 176,-185.28 176,-165.96 216.32,-165.96 216.32,-185.28"/>
<text xml:space="preserve" text-anchor="middle" x="196.16" y="-169.82" font-family="Sans-Serif" font-size="14.00">Views</text>
</a>
</g>
</g>
<!-- Views&#45;&gt;Chains -->
<g id="edge39" class="edge">
<title>Views&#45;&gt;Chains</title>
<path fill="none" stroke="black" d="M204.42,-165.82C211.32,-158.45 221.38,-147.72 229.9,-138.64"/>
<polygon fill="black" stroke="black" points="232.4,-141.09 236.69,-131.4 227.3,-136.3 232.4,-141.09"/>
</g>
<!-- Contracts -->
<g id="node21" class="node">
<title>Contracts</title>
<g id="a_node21"><a xlink:href="../contracts.html" xlink:title="Contracts" target="_top">
<polygon fill="none" stroke="white" points="205.19,-129.96 143.12,-129.96 143.12,-110.64 205.19,-110.64 205.19,-129.96"/>
<text xml:space="preserve" text-anchor="middle" x="174.16" y="-114.5" font-family="Sans-Serif" font-size="14.00">Contracts</text>
</a>
</g>
</g>
<!-- Views&#45;&gt;Contracts -->
<g id="edge19" class="edge">
<title>Views&#45;&gt;Contracts</title>
<path fill="none" stroke="black" d="M192.53,-165.82C189.71,-158.99 185.7,-149.27 182.14,-140.65"/>
<polygon fill="black" stroke="black" points="185.5,-139.6 178.45,-131.7 179.03,-142.27 185.5,-139.6"/>
</g>
<!-- Views&#45;&gt;Concat -->
<g id="edge48" class="edge">
<title>Views&#45;&gt;Concat</title>
<path fill="none" stroke="black" d="M180.04,-165.57C165.58,-157.46 144.08,-145.39 127.18,-135.9"/>
<polygon fill="black" stroke="black" points="129.11,-132.97 118.67,-131.13 125.68,-139.08 129.11,-132.97"/>
</g>
<!-- ReadOnly -->
<g id="node12" class="node">
<title>ReadOnly</title>
<g id="a_node12"><a xlink:href="../read_only.html" xlink:title="ReadOnly" target="_top">
<polygon fill="none" stroke="white" points="395.69,-240.6 330.62,-240.6 330.62,-221.28 395.69,-221.28 395.69,-240.6"/>
<text xml:space="preserve" text-anchor="middle" x="363.16" y="-225.14" font-family="Sans-Serif" font-size="14.00">ReadOnly</text>
</a>
</g>
</g>
<!-- ReadOnly&#45;&gt;Views -->
<g id="edge9" class="edge">
<title>ReadOnly&#45;&gt;Views</title>
<path fill="none" stroke="black" d="M334.83,-220.89C304.99,-211.37 258.15,-196.41 227.29,-186.56"/>
<polygon fill="black" stroke="black" points="228.74,-183.35 218.15,-183.64 226.61,-190.02 228.74,-183.35"/>
</g>
<!-- ReadOnly&#45;&gt;H5dfFormat -->
<g id="edge33" class="edge">
<title>ReadOnly&#45;&gt;H5dfFormat</title>
<path fill="none" stroke="black" d="M374.19,-220.89C383.58,-213.19 397.31,-201.93 408.57,-192.69"/>
<polygon fill="black" stroke="black" points="410.61,-195.54 416.13,-186.49 406.17,-190.13 410.61,-195.54"/>
</g>
<!-- ReadOnly&#45;&gt;FilesFormat -->
<g id="edge42" class="edge">
<title>ReadOnly&#45;&gt;FilesFormat</title>
<path fill="none" stroke="black" d="M390.13,-220.89C416.06,-212.2 455.47,-198.98 484.49,-189.25"/>
<polygon fill="black" stroke="black" points="485.25,-192.69 493.62,-186.19 483.03,-186.05 485.25,-192.69"/>
</g>
<!-- Queries&#45;&gt;Views -->
<g id="edge10" class="edge">
<title>Queries&#45;&gt;Views</title>
<path fill="none" stroke="black" d="M194.49,-221.14C194.74,-214.54 195.09,-205.24 195.4,-196.85"/>
<polygon fill="black" stroke="black" points="198.89,-197.25 195.77,-187.13 191.89,-196.99 198.89,-197.25"/>
</g>
<!-- Queries&#45;&gt;Reconstruction -->
<g id="edge50" class="edge">
<title>Queries&#45;&gt;Reconstruction</title>
<path fill="none" stroke="black" d="M169.22,-220.89C145.47,-212.28 109.45,-199.22 82.7,-189.51"/>
<polygon fill="black" stroke="black" points="84.24,-186.35 73.64,-186.23 81.85,-192.93 84.24,-186.35"/>
</g>
<!-- Registry -->
<g id="node14" class="node">
<title>Registry</title>
<g id="a_node14"><a xlink:href="../registry.html" xlink:title="Registry" target="_top">
<polygon fill="none" stroke="white" points="333.07,-406.56 279.25,-406.56 279.25,-387.24 333.07,-387.24 333.07,-406.56"/>
<text xml:space="preserve" text-anchor="middle" x="306.16" y="-391.1" font-family="Sans-Serif" font-size="14.00">Registry</text>
</a>
</g>
</g>
<!-- Registry&#45;&gt;Operations -->
<g id="edge11" class="edge">
<title>Registry&#45;&gt;Operations</title>
<path fill="none" stroke="black" d="M285.63,-386.85C266.6,-378.47 238.01,-365.87 216.19,-356.25"/>
<polygon fill="black" stroke="black" points="217.73,-353.11 207.17,-352.28 214.91,-359.52 217.73,-353.11"/>
</g>
<!-- Registry&#45;&gt;Formats -->
<g id="edge22" class="edge">
<title>Registry&#45;&gt;Formats</title>
<path fill="none" stroke="black" d="M319.56,-386.85C331.25,-378.97 348.46,-367.35 362.32,-358"/>
<polygon fill="black" stroke="black" points="364.11,-361.01 370.44,-352.52 360.19,-355.21 364.11,-361.01"/>
</g>
<!-- Tokens -->
<g id="node15" class="node">
<title>Tokens</title>
<g id="a_node15"><a xlink:href="../tokens.html" xlink:title="Tokens" target="_top">
<polygon fill="none" stroke="white" points="226.69,-406.56 179.62,-406.56 179.62,-387.24 226.69,-387.24 226.69,-406.56"/>
<text xml:space="preserve" text-anchor="middle" x="203.16" y="-391.1" font-family="Sans-Serif" font-size="14.00">Tokens</text>
</a>
</g>
</g>
<!-- Tokens&#45;&gt;Operations -->
<g id="edge12" class="edge">
<title>Tokens&#45;&gt;Operations</title>
<path fill="none" stroke="black" d="M200.19,-387.1C197.91,-380.34 194.67,-370.77 191.79,-362.22"/>
<polygon fill="black" stroke="black" points="195.2,-361.37 188.68,-353.01 188.56,-363.6 195.2,-361.37"/>
</g>
<!-- Tokens&#45;&gt;Formats -->
<g id="edge23" class="edge">
<title>Tokens&#45;&gt;Formats</title>
<path fill="none" stroke="black" d="M226.95,-388.93C257.43,-380 310.62,-364.42 346.84,-353.81"/>
<polygon fill="black" stroke="black" points="347.43,-357.28 356.04,-351.11 345.46,-350.56 347.43,-357.28"/>
</g>
<!-- Readers&#45;&gt;Writers -->
<g id="edge38" class="edge">
<title>Readers&#45;&gt;Writers</title>
<path fill="none" stroke="black" d="M367.21,-276.21C352.9,-268.1 331.63,-256.03 314.91,-246.54"/>
<polygon fill="black" stroke="black" points="316.93,-243.67 306.5,-241.78 313.47,-249.75 316.93,-243.67"/>
</g>
<!-- Readers&#45;&gt;ReadOnly -->
<g id="edge52" class="edge">
<title>Readers&#45;&gt;ReadOnly</title>
<path fill="none" stroke="black" d="M379.86,-276.46C377.33,-269.7 373.73,-260.13 370.53,-251.58"/>
<polygon fill="black" stroke="black" points="373.86,-250.49 367.07,-242.35 367.3,-252.95 373.86,-250.49"/>
</g>
<!-- Readers&#45;&gt;Queries -->
<g id="edge13" class="edge">
<title>Readers&#45;&gt;Queries</title>
<path fill="none" stroke="black" d="M355.27,-277.39C322.42,-268.13 267.73,-252.69 231.31,-242.42"/>
<polygon fill="black" stroke="black" points="232.67,-239.17 222.09,-239.82 230.77,-245.9 232.67,-239.17"/>
</g>
<!-- Reorder -->
<g id="node22" class="node">
<title>Reorder</title>
<g id="a_node22"><a xlink:href="../reorder.html" xlink:title="Reorder" target="_top">
<polygon fill="none" stroke="white" points="466.69,-240.6 413.62,-240.6 413.62,-221.28 466.69,-221.28 466.69,-240.6"/>
<text xml:space="preserve" text-anchor="middle" x="440.16" y="-225.14" font-family="Sans-Serif" font-size="14.00">Reorder</text>
</a>
</g>
</g>
<!-- Readers&#45;&gt;Reorder -->
<g id="edge20" class="edge">
<title>Readers&#45;&gt;Reorder</title>
<path fill="none" stroke="black" d="M392.83,-276.21C400.9,-268.66 412.63,-257.7 422.38,-248.57"/>
<polygon fill="black" stroke="black" points="424.62,-251.27 429.53,-241.89 419.83,-246.16 424.62,-251.27"/>
</g>
<!-- Groups -->
<g id="node29" class="node">
<title>Groups</title>
<g id="a_node29"><a xlink:href="../groups.html" xlink:title="Groups" target="_top">
<polygon fill="none" stroke="white" points="626.82,-240.6 577.5,-240.6 577.5,-221.28 626.82,-221.28 626.82,-240.6"/>
<text xml:space="preserve" text-anchor="middle" x="602.16" y="-225.14" font-family="Sans-Serif" font-size="14.00">Groups</text>
</a>
</g>
</g>
<!-- Readers&#45;&gt;Groups -->
<g id="edge36" class="edge">
<title>Readers&#45;&gt;Groups</title>
<path fill="none" stroke="black" d="M411.25,-278.71C445.64,-270.65 505.94,-256.38 566.42,-241.25"/>
<polygon fill="black" stroke="black" points="566.99,-244.72 575.84,-238.89 565.29,-237.93 566.99,-244.72"/>
</g>
<!-- ZarrFormat -->
<g id="node18" class="node">
<title>ZarrFormat</title>
<g id="a_node18"><a xlink:href="../zarr_format.html" xlink:title="ZarrFormat" target="_top">
<polygon fill="none" stroke="white" points="720.44,-74.64 647.88,-74.64 647.88,-55.32 720.44,-55.32 720.44,-74.64"/>
<text xml:space="preserve" text-anchor="middle" x="684.16" y="-59.18" font-family="Sans-Serif" font-size="14.00">ZarrFormat</text>
</a>
</g>
</g>
<!-- ZarrFormat&#45;&gt;CompleteDaf -->
<g id="edge15" class="edge">
<title>ZarrFormat&#45;&gt;CompleteDaf</title>
<path fill="none" stroke="black" d="M662.62,-54.93C642.55,-46.51 612.36,-33.83 589.41,-24.2"/>
<polygon fill="black" stroke="black" points="590.78,-20.98 580.21,-20.34 588.07,-27.43 590.78,-20.98"/>
</g>
<!-- ZarrConvert -->
<g id="node24" class="node">
<title>ZarrConvert</title>
<g id="a_node24"><a xlink:href="../zarr_convert.html" xlink:title="ZarrConvert" target="_top">
<polygon fill="none" stroke="white" points="722.32,-19.32 646,-19.32 646,0 722.32,0 722.32,-19.32"/>
<text xml:space="preserve" text-anchor="middle" x="684.16" y="-3.86" font-family="Sans-Serif" font-size="14.00">ZarrConvert</text>
</a>
</g>
</g>
<!-- ZarrFormat&#45;&gt;ZarrConvert -->
<g id="edge24" class="edge">
<title>ZarrFormat&#45;&gt;ZarrConvert</title>
<path fill="none" stroke="black" d="M684.16,-55.18C684.16,-48.58 684.16,-39.28 684.16,-30.89"/>
<polygon fill="black" stroke="black" points="687.66,-31.17 684.16,-21.17 680.66,-31.17 687.66,-31.17"/>
</g>
<!-- H5dfFormat&#45;&gt;CompleteDaf -->
<g id="edge17" class="edge">
<title>H5dfFormat&#45;&gt;CompleteDaf</title>
<path fill="none" stroke="black" d="M435.1,-165.8C455.57,-139.78 516.02,-62.95 543.4,-28.14"/>
<polygon fill="black" stroke="black" points="545.82,-30.73 549.25,-20.71 540.32,-26.4 545.82,-30.73"/>
</g>
<!-- HttpFormat -->
<g id="node20" class="node">
<title>HttpFormat</title>
<g id="a_node20"><a xlink:href="../http_format.html" xlink:title="HttpFormat" target="_top">
<polygon fill="none" stroke="white" points="629.44,-74.64 556.88,-74.64 556.88,-55.32 629.44,-55.32 629.44,-74.64"/>
<text xml:space="preserve" text-anchor="middle" x="593.16" y="-59.18" font-family="Sans-Serif" font-size="14.00">HttpFormat</text>
</a>
</g>
</g>
<!-- HttpFormat&#45;&gt;CompleteDaf -->
<g id="edge18" class="edge">
<title>HttpFormat&#45;&gt;CompleteDaf</title>
<path fill="none" stroke="black" d="M587.22,-55.18C582.45,-48.12 575.6,-37.97 569.64,-29.14"/>
<polygon fill="black" stroke="black" points="572.58,-27.24 564.08,-20.91 566.78,-31.16 572.58,-27.24"/>
</g>
<!-- Contracts&#45;&gt;Computations -->
<g id="edge49" class="edge">
<title>Contracts&#45;&gt;Computations</title>
<path fill="none" stroke="black" d="M174.16,-110.5C174.16,-103.9 174.16,-94.6 174.16,-86.21"/>
<polygon fill="black" stroke="black" points="177.66,-86.49 174.16,-76.49 170.66,-86.49 177.66,-86.49"/>
</g>
<!-- Reorder&#45;&gt;MemoryFormat -->
<g id="edge30" class="edge">
<title>Reorder&#45;&gt;MemoryFormat</title>
<path fill="none" stroke="black" d="M420.31,-220.89C401.99,-212.55 374.51,-200.02 353.45,-190.42"/>
<polygon fill="black" stroke="black" points="355.03,-187.3 344.48,-186.34 352.13,-193.67 355.03,-187.3"/>
</g>
<!-- Reorder&#45;&gt;H5dfFormat -->
<g id="edge35" class="edge">
<title>Reorder&#45;&gt;H5dfFormat</title>
<path fill="none" stroke="black" d="M438.18,-221.14C436.69,-214.54 434.6,-205.24 432.71,-196.85"/>
<polygon fill="black" stroke="black" points="436.13,-196.08 430.52,-187.09 429.3,-197.62 436.13,-196.08"/>
</g>
<!-- Reorder&#45;&gt;FilesFormat -->
<g id="edge45" class="edge">
<title>Reorder&#45;&gt;FilesFormat</title>
<path fill="none" stroke="black" d="M454.07,-220.89C466.32,-212.93 484.41,-201.16 498.87,-191.76"/>
<polygon fill="black" stroke="black" points="500.44,-194.92 506.91,-186.53 496.62,-189.05 500.44,-194.92"/>
</g>
<!-- Keys -->
<g id="node23" class="node">
<title>Keys</title>
<g id="a_node23"><a xlink:href="../keys.html" xlink:title="Keys" target="_top">
<polygon fill="none" stroke="white" points="402.32,-406.56 368,-406.56 368,-387.24 402.32,-387.24 402.32,-406.56"/>
<text xml:space="preserve" text-anchor="middle" x="385.16" y="-391.1" font-family="Sans-Serif" font-size="14.00">Keys</text>
</a>
</g>
</g>
<!-- Keys&#45;&gt;Formats -->
<g id="edge21" class="edge">
<title>Keys&#45;&gt;Formats</title>
<path fill="none" stroke="black" d="M385.16,-387.1C385.16,-380.5 385.16,-371.2 385.16,-362.81"/>
<polygon fill="black" stroke="black" points="388.66,-363.09 385.16,-353.09 381.66,-363.09 388.66,-363.09"/>
</g>
<!-- FilesFormat&#45;&gt;HttpFormat -->
<g id="edge46" class="edge">
<title>FilesFormat&#45;&gt;HttpFormat</title>
<path fill="none" stroke="black" d="M527.97,-165.73C539.52,-148.06 565.56,-108.21 581.01,-84.57"/>
<polygon fill="black" stroke="black" points="583.9,-86.55 586.44,-76.26 578.04,-82.72 583.9,-86.55"/>
</g>
<!-- FilesFormat&#45;&gt;ExampleData -->
<g id="edge26" class="edge">
<title>FilesFormat&#45;&gt;ExampleData</title>
<path fill="none" stroke="black" d="M516.51,-165.73C505.29,-148.06 479.98,-108.21 464.97,-84.57"/>
<polygon fill="black" stroke="black" points="468.01,-82.84 459.7,-76.27 462.1,-86.59 468.01,-82.84"/>
</g>
<!-- ZipFormat -->
<g id="node27" class="node">
<title>ZipFormat</title>
<g id="a_node27"><a xlink:href="../zip_files.html" xlink:title="ZipFormat" target="_top">
<polygon fill="none" stroke="white" points="702.44,-129.96 635.88,-129.96 635.88,-110.64 702.44,-110.64 702.44,-129.96"/>
<text xml:space="preserve" text-anchor="middle" x="669.16" y="-114.5" font-family="Sans-Serif" font-size="14.00">ZipFormat</text>
</a>
</g>
</g>
<!-- FilesFormat&#45;&gt;ZipFormat -->
<g id="edge31" class="edge">
<title>FilesFormat&#45;&gt;ZipFormat</title>
<path fill="none" stroke="black" d="M547.1,-165.57C570.85,-156.96 606.87,-143.9 633.62,-134.19"/>
<polygon fill="black" stroke="black" points="634.47,-137.61 642.68,-130.91 632.08,-131.03 634.47,-137.61"/>
</g>
<!-- ZipFormat&#45;&gt;ZarrFormat -->
<g id="edge28" class="edge">
<title>ZipFormat&#45;&gt;ZarrFormat</title>
<path fill="none" stroke="black" d="M671.64,-110.5C673.51,-103.82 676.17,-94.38 678.55,-85.91"/>
<polygon fill="black" stroke="black" points="681.88,-87.01 681.22,-76.43 675.14,-85.11 681.88,-87.01"/>
</g>
<!-- StorageTypes -->
<g id="node28" class="node">
<title>StorageTypes</title>
<g id="a_node28"><a xlink:href="../storage_types.html" xlink:title="StorageTypes" target="_top">
<polygon fill="none" stroke="white" points="350.32,-461.88 262,-461.88 262,-442.56 350.32,-442.56 350.32,-461.88"/>
<text xml:space="preserve" text-anchor="middle" x="306.16" y="-446.42" font-family="Sans-Serif" font-size="14.00">StorageTypes</text>
</a>
</g>
</g>
<!-- StorageTypes&#45;&gt;Registry -->
<g id="edge32" class="edge">
<title>StorageTypes&#45;&gt;Registry</title>
<path fill="none" stroke="black" d="M306.16,-442.42C306.16,-435.82 306.16,-426.52 306.16,-418.13"/>
<polygon fill="black" stroke="black" points="309.66,-418.41 306.16,-408.41 302.66,-418.41 309.66,-418.41"/>
</g>
<!-- LazySparse -->
<g id="node31" class="node">
<title>LazySparse</title>
<g id="a_node31"><a xlink:href="../lazy_sparse.html" xlink:title="LazySparse" target="_top">
<polygon fill="none" stroke="white" points="559.94,-240.6 484.38,-240.6 484.38,-221.28 559.94,-221.28 559.94,-240.6"/>
<text xml:space="preserve" text-anchor="middle" x="522.16" y="-225.14" font-family="Sans-Serif" font-size="14.00">LazySparse</text>
</a>
</g>
</g>
<!-- LazySparse&#45;&gt;FilesFormat -->
<g id="edge43" class="edge">
<title>LazySparse&#45;&gt;FilesFormat</title>
<path fill="none" stroke="black" d="M522.16,-221.14C522.16,-214.54 522.16,-205.24 522.16,-196.85"/>
<polygon fill="black" stroke="black" points="525.66,-197.13 522.16,-187.13 518.66,-197.13 525.66,-197.13"/>
</g>
</g>
</svg>
