<?xml version="1.0" encoding="UTF-8" standalone="no"?>
<!DOCTYPE svg PUBLIC "-//W3C//DTD SVG 1.1//EN"
 "http://www.w3.org/Graphics/SVG/1.1/DTD/svg11.dtd">
<!-- Generated by graphviz version 14.1.4 (20260321.0153)
 -->
<!-- Pages: 1 -->
<svg width="671pt" height="470pt"
 viewBox="0.00 0.00 671.00 470.00" xmlns="http://www.w3.org/2000/svg" xmlns:xlink="http://www.w3.org/1999/xlink">
<g id="graph0" class="graph" transform="scale(1 1) rotate(0) translate(4 465.88)">
<polygon fill="white" stroke="none" points="-4,4 -4,-465.88 666.69,-465.88 666.69,4 -4,4"/>
<!-- Copies -->
<g id="node1" class="node">
<title>Copies</title>
<g id="a_node1"><a xlink:href="../copies.html" xlink:title="Copies" target="_top">
<polygon fill="none" stroke="white" points="492.69,-185.28 446.37,-185.28 446.37,-165.96 492.69,-165.96 492.69,-185.28"/>
<text xml:space="preserve" text-anchor="middle" x="469.53" y="-169.82" font-family="Sans-Serif" font-size="14.00">Copies</text>
</a>
</g>
</g>
<!-- Adapters -->
<g id="node3" class="node">
<title>Adapters</title>
<g id="a_node3"><a xlink:href="../adapters.html" xlink:title="Adapters" target="_top">
<polygon fill="none" stroke="white" points="479.69,-19.32 421.37,-19.32 421.37,0 479.69,0 479.69,-19.32"/>
<text xml:space="preserve" text-anchor="middle" x="450.53" y="-3.86" font-family="Sans-Serif" font-size="14.00">Adapters</text>
</a>
</g>
</g>
<!-- Copies&#45;&gt;Adapters -->
<g id="edge5" class="edge">
<title>Copies&#45;&gt;Adapters</title>
<path fill="none" stroke="black" d="M468.51,-165.8C465.58,-140.45 457.05,-66.85 452.88,-30.9"/>
<polygon fill="black" stroke="black" points="456.36,-30.55 451.74,-21.02 449.41,-31.36 456.36,-30.55"/>
</g>
<!-- Concat -->
<g id="node27" class="node">
<title>Concat</title>
<g id="a_node27"><a xlink:href="../concat.html" xlink:title="Concat" target="_top">
<polygon fill="none" stroke="white" points="545.07,-129.96 498,-129.96 498,-110.64 545.07,-110.64 545.07,-129.96"/>
<text xml:space="preserve" text-anchor="middle" x="521.53" y="-114.5" font-family="Sans-Serif" font-size="14.00">Concat</text>
</a>
</g>
</g>
<!-- Copies&#45;&gt;Concat -->
<g id="edge42" class="edge">
<title>Copies&#45;&gt;Concat</title>
<path fill="none" stroke="black" d="M478.12,-165.82C485.38,-158.37 495.99,-147.5 504.9,-138.36"/>
<polygon fill="black" stroke="black" points="507.23,-140.98 511.7,-131.38 502.22,-136.1 507.23,-140.98"/>
</g>
<!-- Writers -->
<g id="node2" class="node">
<title>Writers</title>
<g id="a_node2"><a xlink:href="../writers.html" xlink:title="Writers" target="_top">
<polygon fill="none" stroke="white" points="410.07,-240.6 363,-240.6 363,-221.28 410.07,-221.28 410.07,-240.6"/>
<text xml:space="preserve" text-anchor="middle" x="386.53" y="-225.14" font-family="Sans-Serif" font-size="14.00">Writers</text>
</a>
</g>
</g>
<!-- Writers&#45;&gt;Copies -->
<g id="edge1" class="edge">
<title>Writers&#45;&gt;Copies</title>
<path fill="none" stroke="black" d="M400.61,-220.89C413.02,-212.93 431.33,-201.16 445.96,-191.76"/>
<polygon fill="black" stroke="black" points="447.59,-194.88 454.11,-186.53 443.81,-188.99 447.59,-194.88"/>
</g>
<!-- MemoryFormat -->
<g id="node4" class="node">
<title>MemoryFormat</title>
<g id="a_node4"><a xlink:href="../memory_format.html" xlink:title="MemoryFormat" target="_top">
<polygon fill="none" stroke="white" points="202.57,-185.28 104.5,-185.28 104.5,-165.96 202.57,-165.96 202.57,-185.28"/>
<text xml:space="preserve" text-anchor="middle" x="153.53" y="-169.82" font-family="Sans-Serif" font-size="14.00">MemoryFormat</text>
</a>
</g>
</g>
<!-- Writers&#45;&gt;MemoryFormat -->
<g id="edge28" class="edge">
<title>Writers&#45;&gt;MemoryFormat</title>
<path fill="none" stroke="black" d="M362.8,-223.39C360.02,-222.66 357.22,-221.94 354.53,-221.28 305.31,-209.16 248.93,-196.76 208.43,-188.11"/>
<polygon fill="black" stroke="black" points="209.18,-184.69 198.67,-186.03 207.72,-191.54 209.18,-184.69"/>
</g>
<!-- Chains -->
<g id="node5" class="node">
<title>Chains</title>
<g id="a_node5"><a xlink:href="../chains.html" xlink:title="Chains" target="_top">
<polygon fill="none" stroke="white" points="441.69,-129.96 395.37,-129.96 395.37,-110.64 441.69,-110.64 441.69,-129.96"/>
<text xml:space="preserve" text-anchor="middle" x="418.53" y="-114.5" font-family="Sans-Serif" font-size="14.00">Chains</text>
</a>
</g>
</g>
<!-- Writers&#45;&gt;Chains -->
<g id="edge36" class="edge">
<title>Writers&#45;&gt;Chains</title>
<path fill="none" stroke="black" d="M389.15,-221.05C394.26,-203.7 405.68,-164.96 412.68,-141.19"/>
<polygon fill="black" stroke="black" points="415.98,-142.35 415.45,-131.77 409.27,-140.37 415.98,-142.35"/>
</g>
<!-- FilesFormat -->
<g id="node15" class="node">
<title>FilesFormat</title>
<g id="a_node15"><a xlink:href="../files_format.html" xlink:title="FilesFormat" target="_top">
<polygon fill="none" stroke="white" points="390.69,-185.28 314.38,-185.28 314.38,-165.96 390.69,-165.96 390.69,-185.28"/>
<text xml:space="preserve" text-anchor="middle" x="352.53" y="-169.82" font-family="Sans-Serif" font-size="14.00">FilesFormat</text>
</a>
</g>
</g>
<!-- Writers&#45;&gt;FilesFormat -->
<g id="edge40" class="edge">
<title>Writers&#45;&gt;FilesFormat</title>
<path fill="none" stroke="black" d="M380.92,-221.14C376.42,-214.08 369.95,-203.93 364.32,-195.1"/>
<polygon fill="black" stroke="black" points="367.41,-193.44 359.09,-186.89 361.51,-197.21 367.41,-193.44"/>
</g>
<!-- H5dfFormat -->
<g id="node16" class="node">
<title>H5dfFormat</title>
<g id="a_node16"><a xlink:href="../h5df_format.html" xlink:title="H5dfFormat" target="_top">
<polygon fill="none" stroke="white" points="296.69,-185.28 220.37,-185.28 220.37,-165.96 296.69,-165.96 296.69,-185.28"/>
<text xml:space="preserve" text-anchor="middle" x="258.53" y="-169.82" font-family="Sans-Serif" font-size="14.00">H5dfFormat</text>
</a>
</g>
</g>
<!-- Writers&#45;&gt;H5dfFormat -->
<g id="edge31" class="edge">
<title>Writers&#45;&gt;H5dfFormat</title>
<path fill="none" stroke="black" d="M364.82,-220.89C344.5,-212.43 313.89,-199.68 290.73,-190.03"/>
<polygon fill="black" stroke="black" points="292.33,-186.91 281.75,-186.29 289.64,-193.37 292.33,-186.91"/>
</g>
<!-- ZarrFormat -->
<g id="node23" class="node">
<title>ZarrFormat</title>
<g id="a_node23"><a xlink:href="../zarr_format.html" xlink:title="ZarrFormat" target="_top">
<polygon fill="none" stroke="white" points="86.82,-185.28 14.25,-185.28 14.25,-165.96 86.82,-165.96 86.82,-185.28"/>
<text xml:space="preserve" text-anchor="middle" x="50.53" y="-169.82" font-family="Sans-Serif" font-size="14.00">ZarrFormat</text>
</a>
</g>
</g>
<!-- Writers&#45;&gt;ZarrFormat -->
<g id="edge25" class="edge">
<title>Writers&#45;&gt;ZarrFormat</title>
<path fill="none" stroke="black" d="M362.5,-223.09C359.82,-222.43 357.13,-221.81 354.53,-221.28 244.22,-198.78 212.18,-203.91 98.15,-185.62"/>
<polygon fill="black" stroke="black" points="98.78,-182.18 88.35,-184.02 97.65,-189.09 98.78,-182.18"/>
</g>
<!-- Reconstruction -->
<g id="node28" class="node">
<title>Reconstruction</title>
<g id="a_node28"><a xlink:href="../reconstruction.html" xlink:title="Reconstruction" target="_top">
<polygon fill="none" stroke="white" points="662.69,-185.28 568.38,-185.28 568.38,-165.96 662.69,-165.96 662.69,-185.28"/>
<text xml:space="preserve" text-anchor="middle" x="615.53" y="-169.82" font-family="Sans-Serif" font-size="14.00">Reconstruction</text>
</a>
</g>
</g>
<!-- Writers&#45;&gt;Reconstruction -->
<g id="edge46" class="edge">
<title>Writers&#45;&gt;Reconstruction</title>
<path fill="none" stroke="black" d="M410.18,-224.43C446.57,-215.96 517.14,-199.53 565.29,-188.32"/>
<polygon fill="black" stroke="black" points="565.99,-191.75 574.94,-186.07 564.41,-184.93 565.99,-191.75"/>
</g>
<!-- MemoryFormat&#45;&gt;Adapters -->
<g id="edge2" class="edge">
<title>MemoryFormat&#45;&gt;Adapters</title>
<path fill="none" stroke="black" d="M149.02,-165.5C143.34,-152.68 135.28,-128.87 143.53,-110.64 158.9,-76.69 173,-71.55 206.53,-55.32 272.92,-23.18 359.69,-14.06 409.86,-11.54"/>
<polygon fill="black" stroke="black" points="409.84,-15.04 419.68,-11.12 409.53,-8.05 409.84,-15.04"/>
</g>
<!-- ExampleData -->
<g id="node21" class="node">
<title>ExampleData</title>
<g id="a_node21"><a xlink:href="../example_data.html" xlink:title="ExampleData" target="_top">
<polygon fill="none" stroke="white" points="301.57,-74.64 215.5,-74.64 215.5,-55.32 301.57,-55.32 301.57,-74.64"/>
<text xml:space="preserve" text-anchor="middle" x="258.53" y="-59.18" font-family="Sans-Serif" font-size="14.00">ExampleData</text>
</a>
</g>
</g>
<!-- MemoryFormat&#45;&gt;ExampleData -->
<g id="edge20" class="edge">
<title>MemoryFormat&#45;&gt;ExampleData</title>
<path fill="none" stroke="black" d="M150.92,-165.88C147.52,-152.69 143.28,-127.44 154.53,-110.64 165.97,-93.57 185.42,-83 204.42,-76.46"/>
<polygon fill="black" stroke="black" points="205.21,-79.87 213.74,-73.58 203.15,-73.19 205.21,-79.87"/>
</g>
<!-- AnnDataFormat -->
<g id="node26" class="node">
<title>AnnDataFormat</title>
<g id="a_node26"><a xlink:href="../anndata_format.html" xlink:title="AnnDataFormat" target="_top">
<polygon fill="none" stroke="white" points="263.69,-129.96 163.38,-129.96 163.38,-110.64 263.69,-110.64 263.69,-129.96"/>
<text xml:space="preserve" text-anchor="middle" x="213.53" y="-114.5" font-family="Sans-Serif" font-size="14.00">AnnDataFormat</text>
</a>
</g>
</g>
<!-- MemoryFormat&#45;&gt;AnnDataFormat -->
<g id="edge37" class="edge">
<title>MemoryFormat&#45;&gt;AnnDataFormat</title>
<path fill="none" stroke="black" d="M163.71,-165.57C172.3,-157.95 184.8,-146.83 195.14,-137.65"/>
<polygon fill="black" stroke="black" points="197.23,-140.48 202.38,-131.22 192.58,-135.24 197.23,-140.48"/>
</g>
<!-- Chains&#45;&gt;Adapters -->
<g id="edge3" class="edge">
<title>Chains&#45;&gt;Adapters</title>
<path fill="none" stroke="black" d="M421.15,-110.41C426.26,-93.06 437.68,-54.32 444.68,-30.55"/>
<polygon fill="black" stroke="black" points="447.98,-31.71 447.45,-21.13 441.27,-29.73 447.98,-31.71"/>
</g>
<!-- CompleteDaf -->
<g id="node14" class="node">
<title>CompleteDaf</title>
<g id="a_node14"><a xlink:href="../complete.html" xlink:title="CompleteDaf" target="_top">
<polygon fill="none" stroke="white" points="403.44,-74.64 319.62,-74.64 319.62,-55.32 403.44,-55.32 403.44,-74.64"/>
<text xml:space="preserve" text-anchor="middle" x="361.53" y="-59.18" font-family="Sans-Serif" font-size="14.00">CompleteDaf</text>
</a>
</g>
</g>
<!-- Chains&#45;&gt;CompleteDaf -->
<g id="edge13" class="edge">
<title>Chains&#45;&gt;CompleteDaf</title>
<path fill="none" stroke="black" d="M408.87,-110.25C400.79,-102.7 389.07,-91.74 379.31,-82.61"/>
<polygon fill="black" stroke="black" points="381.86,-80.2 372.17,-75.93 377.08,-85.31 381.86,-80.2"/>
</g>
<!-- Chains&#45;&gt;ExampleData -->
<g id="edge21" class="edge">
<title>Chains&#45;&gt;ExampleData</title>
<path fill="none" stroke="black" d="M394.93,-111.43C369.07,-102.82 327.22,-88.87 296.69,-78.69"/>
<polygon fill="black" stroke="black" points="298.03,-75.45 287.44,-75.61 295.82,-82.09 298.03,-75.45"/>
</g>
<!-- Computations -->
<g id="node6" class="node">
<title>Computations</title>
<g id="a_node6"><a xlink:href="../computations.html" xlink:title="Computations" target="_top">
<polygon fill="none" stroke="white" points="611.69,-74.64 523.38,-74.64 523.38,-55.32 611.69,-55.32 611.69,-74.64"/>
<text xml:space="preserve" text-anchor="middle" x="567.53" y="-59.18" font-family="Sans-Serif" font-size="14.00">Computations</text>
</a>
</g>
</g>
<!-- Computations&#45;&gt;Adapters -->
<g id="edge4" class="edge">
<title>Computations&#45;&gt;Adapters</title>
<path fill="none" stroke="black" d="M547.69,-54.93C529.37,-46.59 501.89,-34.06 480.83,-24.46"/>
<polygon fill="black" stroke="black" points="482.41,-21.34 471.86,-20.38 479.51,-27.71 482.41,-21.34"/>
</g>
<!-- Views -->
<g id="node7" class="node">
<title>Views</title>
<g id="a_node7"><a xlink:href="../views.html" xlink:title="Views" target="_top">
<polygon fill="none" stroke="white" points="550.69,-185.28 510.37,-185.28 510.37,-165.96 550.69,-165.96 550.69,-185.28"/>
<text xml:space="preserve" text-anchor="middle" x="530.53" y="-169.82" font-family="Sans-Serif" font-size="14.00">Views</text>
</a>
</g>
</g>
<!-- Views&#45;&gt;Chains -->
<g id="edge35" class="edge">
<title>Views&#45;&gt;Chains</title>
<path fill="none" stroke="black" d="M511.54,-165.57C494.08,-157.26 467.94,-144.82 447.81,-135.24"/>
<polygon fill="black" stroke="black" points="449.53,-132.18 438.99,-131.04 446.52,-138.5 449.53,-132.18"/>
</g>
<!-- Contracts -->
<g id="node17" class="node">
<title>Contracts</title>
<g id="a_node17"><a xlink:href="../contracts.html" xlink:title="Contracts" target="_top">
<polygon fill="none" stroke="white" points="625.57,-129.96 563.5,-129.96 563.5,-110.64 625.57,-110.64 625.57,-129.96"/>
<text xml:space="preserve" text-anchor="middle" x="594.53" y="-114.5" font-family="Sans-Serif" font-size="14.00">Contracts</text>
</a>
</g>
</g>
<!-- Views&#45;&gt;Contracts -->
<g id="edge15" class="edge">
<title>Views&#45;&gt;Contracts</title>
<path fill="none" stroke="black" d="M541.39,-165.57C550.64,-157.87 564.16,-146.61 575.24,-137.37"/>
<polygon fill="black" stroke="black" points="577.23,-140.27 582.68,-131.18 572.75,-134.89 577.23,-140.27"/>
</g>
<!-- Views&#45;&gt;Concat -->
<g id="edge43" class="edge">
<title>Views&#45;&gt;Concat</title>
<path fill="none" stroke="black" d="M529.05,-165.82C527.94,-159.22 526.37,-149.92 524.95,-141.53"/>
<polygon fill="black" stroke="black" points="528.42,-141.07 523.31,-131.79 521.52,-142.23 528.42,-141.07"/>
</g>
<!-- Queries -->
<g id="node8" class="node">
<title>Queries</title>
<g id="a_node8"><a xlink:href="../queries.html" xlink:title="Queries" target="_top">
<polygon fill="none" stroke="white" points="537.69,-240.6 485.38,-240.6 485.38,-221.28 537.69,-221.28 537.69,-240.6"/>
<text xml:space="preserve" text-anchor="middle" x="511.53" y="-225.14" font-family="Sans-Serif" font-size="14.00">Queries</text>
</a>
</g>
</g>
<!-- Queries&#45;&gt;Views -->
<g id="edge6" class="edge">
<title>Queries&#45;&gt;Views</title>
<path fill="none" stroke="black" d="M514.67,-221.14C517.08,-214.38 520.49,-204.81 523.54,-196.26"/>
<polygon fill="black" stroke="black" points="526.76,-197.64 526.82,-187.04 520.17,-195.29 526.76,-197.64"/>
</g>
<!-- Queries&#45;&gt;Reconstruction -->
<g id="edge45" class="edge">
<title>Queries&#45;&gt;Reconstruction</title>
<path fill="none" stroke="black" d="M529.18,-220.89C545.16,-212.7 568.99,-200.48 587.57,-190.96"/>
<polygon fill="black" stroke="black" points="589.16,-194.08 596.46,-186.4 585.96,-187.85 589.16,-194.08"/>
</g>
<!-- ReadOnly -->
<g id="node9" class="node">
<title>ReadOnly</title>
<g id="a_node9"><a xlink:href="../read_only.html" xlink:title="ReadOnly" target="_top">
<polygon fill="none" stroke="white" points="345.07,-240.6 280,-240.6 280,-221.28 345.07,-221.28 345.07,-240.6"/>
<text xml:space="preserve" text-anchor="middle" x="312.53" y="-225.14" font-family="Sans-Serif" font-size="14.00">ReadOnly</text>
</a>
</g>
</g>
<!-- ReadOnly&#45;&gt;Views -->
<g id="edge7" class="edge">
<title>ReadOnly&#45;&gt;Views</title>
<path fill="none" stroke="black" d="M345.46,-222.77C381.07,-214.88 439.74,-201.5 498.93,-185.86"/>
<polygon fill="black" stroke="black" points="499.76,-189.27 508.52,-183.31 497.96,-182.5 499.76,-189.27"/>
</g>
<!-- ReadOnly&#45;&gt;FilesFormat -->
<g id="edge41" class="edge">
<title>ReadOnly&#45;&gt;FilesFormat</title>
<path fill="none" stroke="black" d="M319.14,-221.14C324.49,-214 332.21,-203.71 338.88,-194.82"/>
<polygon fill="black" stroke="black" points="341.68,-196.93 344.88,-186.83 336.08,-192.73 341.68,-196.93"/>
</g>
<!-- ReadOnly&#45;&gt;H5dfFormat -->
<g id="edge32" class="edge">
<title>ReadOnly&#45;&gt;H5dfFormat</title>
<path fill="none" stroke="black" d="M303.62,-221.14C296.08,-213.69 285.07,-202.82 275.81,-193.68"/>
<polygon fill="black" stroke="black" points="278.3,-191.22 268.72,-186.68 273.38,-196.2 278.3,-191.22"/>
</g>
<!-- ReadOnly&#45;&gt;ZarrFormat -->
<g id="edge26" class="edge">
<title>ReadOnly&#45;&gt;ZarrFormat</title>
<path fill="none" stroke="black" d="M279.87,-223.01C277.05,-222.42 274.24,-221.84 271.53,-221.28 211.94,-208.96 143.22,-195.14 98.44,-186.18"/>
<polygon fill="black" stroke="black" points="99.29,-182.78 88.8,-184.25 97.92,-189.64 99.29,-182.78"/>
</g>
<!-- Operations -->
<g id="node10" class="node">
<title>Operations</title>
<g id="a_node10"><a xlink:href="../operations.html" xlink:title="Operations" target="_top">
<polygon fill="none" stroke="white" points="474.07,-295.92 403,-295.92 403,-276.6 474.07,-276.6 474.07,-295.92"/>
<text xml:space="preserve" text-anchor="middle" x="438.53" y="-280.46" font-family="Sans-Serif" font-size="14.00">Operations</text>
</a>
</g>
</g>
<!-- Operations&#45;&gt;Queries -->
<g id="edge11" class="edge">
<title>Operations&#45;&gt;Queries</title>
<path fill="none" stroke="black" d="M450.92,-276.21C461.68,-268.35 477.51,-256.8 490.29,-247.46"/>
<polygon fill="black" stroke="black" points="492.1,-250.47 498.11,-241.74 487.97,-244.82 492.1,-250.47"/>
</g>
<!-- Operations&#45;&gt;FilesFormat -->
<g id="edge39" class="edge">
<title>Operations&#45;&gt;FilesFormat</title>
<path fill="none" stroke="black" d="M437.78,-276.13C436.28,-262.87 431.92,-238.06 419.53,-221.28 410.17,-208.59 396.04,-198.41 383.17,-190.99"/>
<polygon fill="black" stroke="black" points="385.03,-188.02 374.57,-186.36 381.71,-194.18 385.03,-188.02"/>
</g>
<!-- Tokens -->
<g id="node11" class="node">
<title>Tokens</title>
<g id="a_node11"><a xlink:href="../tokens.html" xlink:title="Tokens" target="_top">
<polygon fill="none" stroke="white" points="462.07,-406.56 415,-406.56 415,-387.24 462.07,-387.24 462.07,-406.56"/>
<text xml:space="preserve" text-anchor="middle" x="438.53" y="-391.1" font-family="Sans-Serif" font-size="14.00">Tokens</text>
</a>
</g>
</g>
<!-- Tokens&#45;&gt;Operations -->
<g id="edge8" class="edge">
<title>Tokens&#45;&gt;Operations</title>
<path fill="none" stroke="black" d="M438.53,-387.01C438.53,-369.74 438.53,-331.27 438.53,-307.48"/>
<polygon fill="black" stroke="black" points="442.04,-307.79 438.54,-297.79 435.04,-307.79 442.04,-307.79"/>
</g>
<!-- Formats -->
<g id="node19" class="node">
<title>Formats</title>
<g id="a_node19"><a xlink:href="../formats.html" xlink:title="Formats" target="_top">
<polygon fill="none" stroke="white" points="356.82,-351.24 302.25,-351.24 302.25,-331.92 356.82,-331.92 356.82,-351.24"/>
<text xml:space="preserve" text-anchor="middle" x="329.53" y="-335.78" font-family="Sans-Serif" font-size="14.00">Formats</text>
</a>
</g>
</g>
<!-- Tokens&#45;&gt;Formats -->
<g id="edge17" class="edge">
<title>Tokens&#45;&gt;Formats</title>
<path fill="none" stroke="black" d="M420.04,-386.85C403.13,-378.58 377.85,-366.21 358.3,-356.65"/>
<polygon fill="black" stroke="black" points="360,-353.58 349.48,-352.33 356.92,-359.87 360,-353.58"/>
</g>
<!-- Registry -->
<g id="node12" class="node">
<title>Registry</title>
<g id="a_node12"><a xlink:href="../registry.html" xlink:title="Registry" target="_top">
<polygon fill="none" stroke="white" points="397.44,-406.56 343.62,-406.56 343.62,-387.24 397.44,-387.24 397.44,-406.56"/>
<text xml:space="preserve" text-anchor="middle" x="370.53" y="-391.1" font-family="Sans-Serif" font-size="14.00">Registry</text>
</a>
</g>
</g>
<!-- Registry&#45;&gt;Operations -->
<g id="edge9" class="edge">
<title>Registry&#45;&gt;Operations</title>
<path fill="none" stroke="black" d="M376.1,-387.01C387.16,-369.34 412.1,-329.49 426.9,-305.85"/>
<polygon fill="black" stroke="black" points="429.75,-307.89 432.09,-297.56 423.82,-304.18 429.75,-307.89"/>
</g>
<!-- Registry&#45;&gt;Formats -->
<g id="edge19" class="edge">
<title>Registry&#45;&gt;Formats</title>
<path fill="none" stroke="black" d="M363.76,-387.1C358.22,-379.88 350.19,-369.45 343.31,-360.49"/>
<polygon fill="black" stroke="black" points="346.25,-358.57 337.38,-352.78 340.7,-362.84 346.25,-358.57"/>
</g>
<!-- Readers -->
<g id="node13" class="node">
<title>Readers</title>
<g id="a_node13"><a xlink:href="../readers.html" xlink:title="Readers" target="_top">
<polygon fill="none" stroke="white" points="341.19,-295.92 285.87,-295.92 285.87,-276.6 341.19,-276.6 341.19,-295.92"/>
<text xml:space="preserve" text-anchor="middle" x="313.53" y="-280.46" font-family="Sans-Serif" font-size="14.00">Readers</text>
</a>
</g>
</g>
<!-- Readers&#45;&gt;Writers -->
<g id="edge34" class="edge">
<title>Readers&#45;&gt;Writers</title>
<path fill="none" stroke="black" d="M325.92,-276.21C336.68,-268.35 352.51,-256.8 365.29,-247.46"/>
<polygon fill="black" stroke="black" points="367.1,-250.47 373.11,-241.74 362.97,-244.82 367.1,-250.47"/>
</g>
<!-- Readers&#45;&gt;Queries -->
<g id="edge10" class="edge">
<title>Readers&#45;&gt;Queries</title>
<path fill="none" stroke="black" d="M341.48,-277.73C376.22,-268.38 435.61,-252.39 474.21,-241.99"/>
<polygon fill="black" stroke="black" points="474.79,-245.46 483.53,-239.48 472.97,-238.7 474.79,-245.46"/>
</g>
<!-- Readers&#45;&gt;ReadOnly -->
<g id="edge47" class="edge">
<title>Readers&#45;&gt;ReadOnly</title>
<path fill="none" stroke="black" d="M313.37,-276.46C313.25,-269.86 313.07,-260.56 312.91,-252.17"/>
<polygon fill="black" stroke="black" points="316.42,-252.38 312.73,-242.45 309.42,-252.51 316.42,-252.38"/>
</g>
<!-- Reorder -->
<g id="node18" class="node">
<title>Reorder</title>
<g id="a_node18"><a xlink:href="../reorder.html" xlink:title="Reorder" target="_top">
<polygon fill="none" stroke="white" points="262.07,-240.6 209,-240.6 209,-221.28 262.07,-221.28 262.07,-240.6"/>
<text xml:space="preserve" text-anchor="middle" x="235.53" y="-225.14" font-family="Sans-Serif" font-size="14.00">Reorder</text>
</a>
</g>
</g>
<!-- Readers&#45;&gt;Reorder -->
<g id="edge16" class="edge">
<title>Readers&#45;&gt;Reorder</title>
<path fill="none" stroke="black" d="M300.3,-276.21C288.76,-268.33 271.77,-256.71 258.09,-247.36"/>
<polygon fill="black" stroke="black" points="260.31,-244.64 250.08,-241.88 256.36,-250.42 260.31,-244.64"/>
</g>
<!-- Groups -->
<g id="node25" class="node">
<title>Groups</title>
<g id="a_node25"><a xlink:href="../groups.html" xlink:title="Groups" target="_top">
<polygon fill="none" stroke="white" points="191.19,-240.6 141.88,-240.6 141.88,-221.28 191.19,-221.28 191.19,-240.6"/>
<text xml:space="preserve" text-anchor="middle" x="166.53" y="-225.14" font-family="Sans-Serif" font-size="14.00">Groups</text>
</a>
</g>
</g>
<!-- Readers&#45;&gt;Groups -->
<g id="edge33" class="edge">
<title>Readers&#45;&gt;Groups</title>
<path fill="none" stroke="black" d="M288.6,-276.21C264.84,-267.6 228.83,-254.54 202.07,-244.83"/>
<polygon fill="black" stroke="black" points="203.61,-241.67 193.02,-241.55 201.22,-248.25 203.61,-241.67"/>
</g>
<!-- FilesFormat&#45;&gt;CompleteDaf -->
<g id="edge12" class="edge">
<title>FilesFormat&#45;&gt;CompleteDaf</title>
<path fill="none" stroke="black" d="M353.27,-165.73C354.7,-148.46 357.89,-109.99 359.86,-86.2"/>
<polygon fill="black" stroke="black" points="363.33,-86.76 360.66,-76.5 356.35,-86.18 363.33,-86.76"/>
</g>
<!-- FilesFormat&#45;&gt;ExampleData -->
<g id="edge22" class="edge">
<title>FilesFormat&#45;&gt;ExampleData</title>
<path fill="none" stroke="black" d="M344.84,-165.73C329.35,-147.82 294.14,-107.13 273.8,-83.63"/>
<polygon fill="black" stroke="black" points="276.51,-81.41 267.32,-76.14 271.22,-85.99 276.51,-81.41"/>
</g>
<!-- H5dfFormat&#45;&gt;CompleteDaf -->
<g id="edge14" class="edge">
<title>H5dfFormat&#45;&gt;CompleteDaf</title>
<path fill="none" stroke="black" d="M266.96,-165.73C284.01,-147.74 322.87,-106.77 345.1,-83.31"/>
<polygon fill="black" stroke="black" points="347.61,-85.76 351.95,-76.09 342.53,-80.94 347.61,-85.76"/>
</g>
<!-- Contracts&#45;&gt;Computations -->
<g id="edge44" class="edge">
<title>Contracts&#45;&gt;Computations</title>
<path fill="none" stroke="black" d="M590.08,-110.5C586.58,-103.59 581.59,-93.73 577.19,-85.04"/>
<polygon fill="black" stroke="black" points="580.41,-83.67 572.77,-76.33 574.17,-86.83 580.41,-83.67"/>
</g>
<!-- Reorder&#45;&gt;MemoryFormat -->
<g id="edge27" class="edge">
<title>Reorder&#45;&gt;MemoryFormat</title>
<path fill="none" stroke="black" d="M221.62,-220.89C209.37,-212.93 191.28,-201.16 176.82,-191.76"/>
<polygon fill="black" stroke="black" points="179.07,-189.05 168.78,-186.53 175.26,-194.92 179.07,-189.05"/>
</g>
<!-- Reorder&#45;&gt;FilesFormat -->
<g id="edge38" class="edge">
<title>Reorder&#45;&gt;FilesFormat</title>
<path fill="none" stroke="black" d="M255.38,-220.89C273.7,-212.55 301.18,-200.02 322.24,-190.42"/>
<polygon fill="black" stroke="black" points="323.56,-193.67 331.21,-186.34 320.66,-187.3 323.56,-193.67"/>
</g>
<!-- Reorder&#45;&gt;H5dfFormat -->
<g id="edge30" class="edge">
<title>Reorder&#45;&gt;H5dfFormat</title>
<path fill="none" stroke="black" d="M239.33,-221.14C242.28,-214.31 246.47,-204.59 250.19,-195.97"/>
<polygon fill="black" stroke="black" points="253.31,-197.57 254.06,-187.01 246.88,-194.8 253.31,-197.57"/>
</g>
<!-- Reorder&#45;&gt;ZarrFormat -->
<g id="edge24" class="edge">
<title>Reorder&#45;&gt;ZarrFormat</title>
<path fill="none" stroke="black" d="M208.63,-222.19C178.34,-213.46 128.71,-199.15 93.13,-188.9"/>
<polygon fill="black" stroke="black" points="94.15,-185.55 83.57,-186.14 92.21,-192.27 94.15,-185.55"/>
</g>
<!-- Formats&#45;&gt;Readers -->
<g id="edge48" class="edge">
<title>Formats&#45;&gt;Readers</title>
<path fill="none" stroke="black" d="M326.89,-331.78C324.89,-325.1 322.06,-315.66 319.52,-307.19"/>
<polygon fill="black" stroke="black" points="322.9,-306.28 316.67,-297.71 316.19,-308.29 322.9,-306.28"/>
</g>
<!-- Keys -->
<g id="node20" class="node">
<title>Keys</title>
<g id="a_node20"><a xlink:href="../keys.html" xlink:title="Keys" target="_top">
<polygon fill="none" stroke="white" points="325.69,-406.56 291.37,-406.56 291.37,-387.24 325.69,-387.24 325.69,-406.56"/>
<text xml:space="preserve" text-anchor="middle" x="308.53" y="-391.1" font-family="Sans-Serif" font-size="14.00">Keys</text>
</a>
</g>
</g>
<!-- Keys&#45;&gt;Formats -->
<g id="edge18" class="edge">
<title>Keys&#45;&gt;Formats</title>
<path fill="none" stroke="black" d="M312,-387.1C314.66,-380.34 318.43,-370.77 321.8,-362.22"/>
<polygon fill="black" stroke="black" points="325.03,-363.57 325.44,-352.98 318.52,-361.01 325.03,-363.57"/>
</g>
<!-- MmapZipStores -->
<g id="node22" class="node">
<title>MmapZipStores</title>
<g id="a_node22"><a xlink:href="../mmap_zip_store.html" xlink:title="MmapZipStores" target="_top">
<polygon fill="none" stroke="white" points="101.07,-240.6 0,-240.6 0,-221.28 101.07,-221.28 101.07,-240.6"/>
<text xml:space="preserve" text-anchor="middle" x="50.53" y="-225.14" font-family="Sans-Serif" font-size="14.00">MmapZipStores</text>
</a>
</g>
</g>
<!-- MmapZipStores&#45;&gt;ZarrFormat -->
<g id="edge23" class="edge">
<title>MmapZipStores&#45;&gt;ZarrFormat</title>
<path fill="none" stroke="black" d="M50.53,-221.14C50.53,-214.54 50.53,-205.24 50.53,-196.85"/>
<polygon fill="black" stroke="black" points="54.04,-197.13 50.54,-187.13 47.04,-197.13 54.04,-197.13"/>
</g>
<!-- StorageTypes -->
<g id="node24" class="node">
<title>StorageTypes</title>
<g id="a_node24"><a xlink:href="../storage_types.html" xlink:title="StorageTypes" target="_top">
<polygon fill="none" stroke="white" points="414.69,-461.88 326.38,-461.88 326.38,-442.56 414.69,-442.56 414.69,-461.88"/>
<text xml:space="preserve" text-anchor="middle" x="370.53" y="-446.42" font-family="Sans-Serif" font-size="14.00">StorageTypes</text>
</a>
</g>
</g>
<!-- StorageTypes&#45;&gt;Registry -->
<g id="edge29" class="edge">
<title>StorageTypes&#45;&gt;Registry</title>
<path fill="none" stroke="black" d="M370.53,-442.42C370.53,-435.82 370.53,-426.52 370.53,-418.13"/>
<polygon fill="black" stroke="black" points="374.04,-418.41 370.54,-408.41 367.04,-418.41 374.04,-418.41"/>
</g>
</g>
</svg>
