<?xml version="1.0" encoding="UTF-8" standalone="no"?>
<!DOCTYPE svg PUBLIC "-//W3C//DTD SVG 1.1//EN"
 "http://www.w3.org/Graphics/SVG/1.1/DTD/svg11.dtd">
<!-- Generated by graphviz version 2.40.1 (0)
 -->
<!-- Title: %3 Pages: 1 -->
<svg width="660pt" height="467pt"
 viewBox="0.00 0.00 659.50 467.00" xmlns="http://www.w3.org/2000/svg" xmlns:xlink="http://www.w3.org/1999/xlink">
<g id="graph0" class="graph" transform="scale(1 1) rotate(0) translate(4 463)">
<title>%3</title>
<polygon fill="#ffffff" stroke="transparent" points="-4,4 -4,-463 655.5,-463 655.5,4 -4,4"/>
<!-- H5dfFormat -->
<g id="node1" class="node">
<title>H5dfFormat</title>
<g id="a_node1"><a xlink:href="../h5df_format.html" xlink:title="H5dfFormat" target="_top">
<polygon fill="none" stroke="#ffffff" points="556.5,-129 479.5,-129 479.5,-110 556.5,-110 556.5,-129"/>
<text text-anchor="middle" x="518" y="-115.8" font-family="Sans-Serif" font-size="14.00" fill="#000000">H5dfFormat</text>
</a>
</g>
</g>
<!-- CompleteDaf -->
<g id="node17" class="node">
<title>CompleteDaf</title>
<g id="a_node17"><a xlink:href="../complete.html" xlink:title="CompleteDaf" target="_top">
<polygon fill="none" stroke="#ffffff" points="621,-74 537,-74 537,-55 621,-55 621,-74"/>
<text text-anchor="middle" x="579" y="-60.8" font-family="Sans-Serif" font-size="14.00" fill="#000000">CompleteDaf</text>
</a>
</g>
</g>
<!-- H5dfFormat&#45;&gt;CompleteDaf -->
<g id="edge17" class="edge">
<title>H5dfFormat&#45;&gt;CompleteDaf</title>
<path fill="none" stroke="#000000" d="M528.6254,-109.9197C537.4385,-101.9735 550.173,-90.4916 560.6329,-81.0605"/>
<polygon fill="#000000" stroke="#000000" points="563.0025,-83.6367 568.0856,-74.3408 558.315,-78.4378 563.0025,-83.6367"/>
</g>
<!-- Writers -->
<g id="node2" class="node">
<title>Writers</title>
<g id="a_node2"><a xlink:href="../writers.html" xlink:title="Writers" target="_top">
<polygon fill="none" stroke="#ffffff" points="415.5,-184 368.5,-184 368.5,-165 415.5,-165 415.5,-184"/>
<text text-anchor="middle" x="392" y="-170.8" font-family="Sans-Serif" font-size="14.00" fill="#000000">Writers</text>
</a>
</g>
</g>
<!-- Writers&#45;&gt;H5dfFormat -->
<g id="edge1" class="edge">
<title>Writers&#45;&gt;H5dfFormat</title>
<path fill="none" stroke="#000000" d="M413.9475,-164.9197C434.0598,-156.1406 464.0589,-143.0457 486.6857,-133.1689"/>
<polygon fill="#000000" stroke="#000000" points="488.1165,-136.3634 495.8812,-129.155 485.3161,-129.9479 488.1165,-136.3634"/>
</g>
<!-- MemoryFormat -->
<g id="node5" class="node">
<title>MemoryFormat</title>
<g id="a_node5"><a xlink:href="../memory_format.html" xlink:title="MemoryFormat" target="_top">
<polygon fill="none" stroke="#ffffff" points="396,-129 298,-129 298,-110 396,-110 396,-129"/>
<text text-anchor="middle" x="347" y="-115.8" font-family="Sans-Serif" font-size="14.00" fill="#000000">MemoryFormat</text>
</a>
</g>
</g>
<!-- Writers&#45;&gt;MemoryFormat -->
<g id="edge4" class="edge">
<title>Writers&#45;&gt;MemoryFormat</title>
<path fill="none" stroke="#000000" d="M384.1616,-164.9197C377.9151,-157.2851 368.9982,-146.3867 361.4648,-137.1792"/>
<polygon fill="#000000" stroke="#000000" points="364.0929,-134.8641 355.0516,-129.3408 358.6751,-139.2968 364.0929,-134.8641"/>
</g>
<!-- Copies -->
<g id="node7" class="node">
<title>Copies</title>
<g id="a_node7"><a xlink:href="../copies.html" xlink:title="Copies" target="_top">
<polygon fill="none" stroke="#ffffff" points="279.5,-129 232.5,-129 232.5,-110 279.5,-110 279.5,-129"/>
<text text-anchor="middle" x="256" y="-115.8" font-family="Sans-Serif" font-size="14.00" fill="#000000">Copies</text>
</a>
</g>
</g>
<!-- Writers&#45;&gt;Copies -->
<g id="edge40" class="edge">
<title>Writers&#45;&gt;Copies</title>
<path fill="none" stroke="#000000" d="M368.3106,-164.9197C346.4083,-156.0622 313.643,-142.8115 289.1473,-132.9052"/>
<polygon fill="#000000" stroke="#000000" points="290.4571,-129.6595 279.8742,-129.155 287.8326,-136.1489 290.4571,-129.6595"/>
</g>
<!-- Chains -->
<g id="node10" class="node">
<title>Chains</title>
<g id="a_node10"><a xlink:href="../chains.html" xlink:title="Chains" target="_top">
<polygon fill="none" stroke="#ffffff" points="461.5,-129 414.5,-129 414.5,-110 461.5,-110 461.5,-129"/>
<text text-anchor="middle" x="438" y="-115.8" font-family="Sans-Serif" font-size="14.00" fill="#000000">Chains</text>
</a>
</g>
</g>
<!-- Writers&#45;&gt;Chains -->
<g id="edge8" class="edge">
<title>Writers&#45;&gt;Chains</title>
<path fill="none" stroke="#000000" d="M400.0126,-164.9197C406.3979,-157.2851 415.513,-146.3867 423.2138,-137.1792"/>
<polygon fill="#000000" stroke="#000000" points="426.0387,-139.2571 429.7695,-129.3408 420.6691,-134.7662 426.0387,-139.2571"/>
</g>
<!-- FilesFormat -->
<g id="node12" class="node">
<title>FilesFormat</title>
<g id="a_node12"><a xlink:href="../files_format.html" xlink:title="FilesFormat" target="_top">
<polygon fill="none" stroke="#ffffff" points="651.5,-129 574.5,-129 574.5,-110 651.5,-110 651.5,-129"/>
<text text-anchor="middle" x="613" y="-115.8" font-family="Sans-Serif" font-size="14.00" fill="#000000">FilesFormat</text>
</a>
</g>
</g>
<!-- Writers&#45;&gt;FilesFormat -->
<g id="edge29" class="edge">
<title>Writers&#45;&gt;FilesFormat</title>
<path fill="none" stroke="#000000" d="M415.6509,-168.614C451.1298,-159.7844 518.8777,-142.9241 564.9925,-131.4476"/>
<polygon fill="#000000" stroke="#000000" points="565.9141,-134.8251 574.7728,-129.0136 564.2235,-128.0323 565.9141,-134.8251"/>
</g>
<!-- Reconstruction -->
<g id="node19" class="node">
<title>Reconstruction</title>
<g id="a_node19"><a xlink:href="../reconstruction.html" xlink:title="Reconstruction" target="_top">
<polygon fill="none" stroke="#ffffff" points="175.5,-129 80.5,-129 80.5,-110 175.5,-110 175.5,-129"/>
<text text-anchor="middle" x="128" y="-115.8" font-family="Sans-Serif" font-size="14.00" fill="#000000">Reconstruction</text>
</a>
</g>
</g>
<!-- Writers&#45;&gt;Reconstruction -->
<g id="edge22" class="edge">
<title>Writers&#45;&gt;Reconstruction</title>
<path fill="none" stroke="#000000" d="M368.3028,-167.1922C365.5145,-166.4134 362.7012,-165.6643 360,-165 301.1442,-150.5268 232.996,-137.6117 185.8577,-129.2728"/>
<polygon fill="#000000" stroke="#000000" points="186.2874,-125.7947 175.8327,-127.5122 185.0766,-132.6892 186.2874,-125.7947"/>
</g>
<!-- ReadOnly -->
<g id="node3" class="node">
<title>ReadOnly</title>
<g id="a_node3"><a xlink:href="../read_only.html" xlink:title="ReadOnly" target="_top">
<polygon fill="none" stroke="#ffffff" points="550.5,-239 485.5,-239 485.5,-220 550.5,-220 550.5,-239"/>
<text text-anchor="middle" x="518" y="-225.8" font-family="Sans-Serif" font-size="14.00" fill="#000000">ReadOnly</text>
</a>
</g>
</g>
<!-- ReadOnly&#45;&gt;H5dfFormat -->
<g id="edge2" class="edge">
<title>ReadOnly&#45;&gt;H5dfFormat</title>
<path fill="none" stroke="#000000" d="M518,-219.7382C518,-201.7541 518,-163.0652 518,-139.3599"/>
<polygon fill="#000000" stroke="#000000" points="521.5001,-139.0828 518,-129.0828 514.5001,-139.0829 521.5001,-139.0828"/>
</g>
<!-- Views -->
<g id="node8" class="node">
<title>Views</title>
<g id="a_node8"><a xlink:href="../views.html" xlink:title="Views" target="_top">
<polygon fill="none" stroke="#ffffff" points="350.5,-184 309.5,-184 309.5,-165 350.5,-165 350.5,-184"/>
<text text-anchor="middle" x="330" y="-170.8" font-family="Sans-Serif" font-size="14.00" fill="#000000">Views</text>
</a>
</g>
</g>
<!-- ReadOnly&#45;&gt;Views -->
<g id="edge15" class="edge">
<title>ReadOnly&#45;&gt;Views</title>
<path fill="none" stroke="#000000" d="M485.2451,-220.3386C455.2397,-211.8864 409.3603,-198.8131 360.4528,-184.0805"/>
<polygon fill="#000000" stroke="#000000" points="361.2197,-180.656 350.6347,-181.1127 359.1942,-187.3565 361.2197,-180.656"/>
</g>
<!-- ReadOnly&#45;&gt;FilesFormat -->
<g id="edge31" class="edge">
<title>ReadOnly&#45;&gt;FilesFormat</title>
<path fill="none" stroke="#000000" d="M526.4306,-219.7382C542.5271,-201.1002 577.8292,-160.224 598.0288,-136.835"/>
<polygon fill="#000000" stroke="#000000" points="600.8366,-138.9388 604.7239,-129.0828 595.5388,-134.3634 600.8366,-138.9388"/>
</g>
<!-- Readers -->
<g id="node4" class="node">
<title>Readers</title>
<g id="a_node4"><a xlink:href="../readers.html" xlink:title="Readers" target="_top">
<polygon fill="none" stroke="#ffffff" points="443,-294 387,-294 387,-275 443,-275 443,-294"/>
<text text-anchor="middle" x="415" y="-280.8" font-family="Sans-Serif" font-size="14.00" fill="#000000">Readers</text>
</a>
</g>
</g>
<!-- Readers&#45;&gt;Writers -->
<g id="edge13" class="edge">
<title>Readers&#45;&gt;Writers</title>
<path fill="none" stroke="#000000" d="M412.9589,-274.7382C409.1815,-256.6724 401.0354,-217.713 396.0851,-194.0376"/>
<polygon fill="#000000" stroke="#000000" points="399.4763,-193.1548 394.0037,-184.0828 392.6245,-194.5875 399.4763,-193.1548"/>
</g>
<!-- Readers&#45;&gt;ReadOnly -->
<g id="edge3" class="edge">
<title>Readers&#45;&gt;ReadOnly</title>
<path fill="none" stroke="#000000" d="M432.9412,-274.9197C448.9418,-266.3757 472.5974,-253.7441 490.9028,-243.9694"/>
<polygon fill="#000000" stroke="#000000" points="492.7462,-246.9528 499.9188,-239.155 489.449,-240.778 492.7462,-246.9528"/>
</g>
<!-- Queries -->
<g id="node15" class="node">
<title>Queries</title>
<g id="a_node15"><a xlink:href="../queries.html" xlink:title="Queries" target="_top">
<polygon fill="none" stroke="#ffffff" points="358.5,-239 305.5,-239 305.5,-220 358.5,-220 358.5,-239"/>
<text text-anchor="middle" x="332" y="-225.8" font-family="Sans-Serif" font-size="14.00" fill="#000000">Queries</text>
</a>
</g>
</g>
<!-- Readers&#45;&gt;Queries -->
<g id="edge20" class="edge">
<title>Readers&#45;&gt;Queries</title>
<path fill="none" stroke="#000000" d="M400.5425,-274.9197C388.0037,-266.6109 369.6312,-254.4363 355.0632,-244.7828"/>
<polygon fill="#000000" stroke="#000000" points="356.8396,-241.7613 346.5703,-239.155 352.9729,-247.5964 356.8396,-241.7613"/>
</g>
<!-- Groups -->
<g id="node20" class="node">
<title>Groups</title>
<g id="a_node20"><a xlink:href="../groups.html" xlink:title="Groups" target="_top">
<polygon fill="none" stroke="#ffffff" points="467,-239 417,-239 417,-220 467,-220 467,-239"/>
<text text-anchor="middle" x="442" y="-225.8" font-family="Sans-Serif" font-size="14.00" fill="#000000">Groups</text>
</a>
</g>
</g>
<!-- Readers&#45;&gt;Groups -->
<g id="edge24" class="edge">
<title>Readers&#45;&gt;Groups</title>
<path fill="none" stroke="#000000" d="M419.703,-274.9197C423.2597,-267.6746 428.2593,-257.4903 432.6231,-248.601"/>
<polygon fill="#000000" stroke="#000000" points="435.9041,-249.8599 437.169,-239.3408 429.6204,-246.7751 435.9041,-249.8599"/>
</g>
<!-- ExampleData -->
<g id="node11" class="node">
<title>ExampleData</title>
<g id="a_node11"><a xlink:href="../example_data.html" xlink:title="ExampleData" target="_top">
<polygon fill="none" stroke="#ffffff" points="481,-74 395,-74 395,-55 481,-55 481,-74"/>
<text text-anchor="middle" x="438" y="-60.8" font-family="Sans-Serif" font-size="14.00" fill="#000000">ExampleData</text>
</a>
</g>
</g>
<!-- MemoryFormat&#45;&gt;ExampleData -->
<g id="edge10" class="edge">
<title>MemoryFormat&#45;&gt;ExampleData</title>
<path fill="none" stroke="#000000" d="M362.851,-109.9197C376.7281,-101.5325 397.1223,-89.2063 413.1648,-79.5103"/>
<polygon fill="#000000" stroke="#000000" points="415.2774,-82.3231 422.0253,-74.155 411.6566,-76.3323 415.2774,-82.3231"/>
</g>
<!-- AnnDataFormat -->
<g id="node24" class="node">
<title>AnnDataFormat</title>
<g id="a_node24"><a xlink:href="../anndata_format.html" xlink:title="AnnDataFormat" target="_top">
<polygon fill="none" stroke="#ffffff" points="338.5,-74 237.5,-74 237.5,-55 338.5,-55 338.5,-74"/>
<text text-anchor="middle" x="288" y="-60.8" font-family="Sans-Serif" font-size="14.00" fill="#000000">AnnDataFormat</text>
</a>
</g>
</g>
<!-- MemoryFormat&#45;&gt;AnnDataFormat -->
<g id="edge28" class="edge">
<title>MemoryFormat&#45;&gt;AnnDataFormat</title>
<path fill="none" stroke="#000000" d="M336.723,-109.9197C328.2824,-102.0514 316.123,-90.7164 306.0631,-81.3385"/>
<polygon fill="#000000" stroke="#000000" points="308.2578,-78.5995 298.5565,-74.3408 303.4846,-83.7198 308.2578,-78.5995"/>
</g>
<!-- Adapters -->
<g id="node25" class="node">
<title>Adapters</title>
<g id="a_node25"><a xlink:href="../adapters.html" xlink:title="Adapters" target="_top">
<polygon fill="none" stroke="#ffffff" points="317.5,-19 258.5,-19 258.5,0 317.5,0 317.5,-19"/>
<text text-anchor="middle" x="288" y="-5.8" font-family="Sans-Serif" font-size="14.00" fill="#000000">Adapters</text>
</a>
</g>
</g>
<!-- MemoryFormat&#45;&gt;Adapters -->
<g id="edge33" class="edge">
<title>MemoryFormat&#45;&gt;Adapters</title>
<path fill="none" stroke="#000000" d="M349.8007,-109.7121C353.0074,-96.5195 356.768,-72.6531 348,-55 341.5585,-42.0311 329.4586,-31.7668 317.8027,-24.2947"/>
<polygon fill="#000000" stroke="#000000" points="319.4647,-21.2112 309.077,-19.1263 315.8973,-27.234 319.4647,-21.2112"/>
</g>
<!-- Concat -->
<g id="node6" class="node">
<title>Concat</title>
<g id="a_node6"><a xlink:href="../concat.html" xlink:title="Concat" target="_top">
<polygon fill="none" stroke="#ffffff" points="180.5,-74 133.5,-74 133.5,-55 180.5,-55 180.5,-74"/>
<text text-anchor="middle" x="157" y="-60.8" font-family="Sans-Serif" font-size="14.00" fill="#000000">Concat</text>
</a>
</g>
</g>
<!-- Copies&#45;&gt;Concat -->
<g id="edge5" class="edge">
<title>Copies&#45;&gt;Concat</title>
<path fill="none" stroke="#000000" d="M238.7555,-109.9197C223.5174,-101.4541 201.056,-88.9755 183.5304,-79.2391"/>
<polygon fill="#000000" stroke="#000000" points="184.8204,-75.9519 174.379,-74.155 181.4209,-82.0711 184.8204,-75.9519"/>
</g>
<!-- Copies&#45;&gt;Adapters -->
<g id="edge35" class="edge">
<title>Copies&#45;&gt;Adapters</title>
<path fill="none" stroke="#000000" d="M246.3136,-109.7419C234.8822,-96.9845 218.5512,-74.0238 228,-55 234.4415,-42.0311 246.5414,-31.7668 258.1973,-24.2947"/>
<polygon fill="#000000" stroke="#000000" points="260.1027,-27.234 266.923,-19.1263 256.5353,-21.2112 260.1027,-27.234"/>
</g>
<!-- Views&#45;&gt;Concat -->
<g id="edge6" class="edge">
<title>Views&#45;&gt;Concat</title>
<path fill="none" stroke="#000000" d="M309.1478,-168.2094C286.7112,-160.8717 250.5456,-147.3631 223,-129 203.1642,-115.7766 184.0898,-96.1346 171.5929,-82.0028"/>
<polygon fill="#000000" stroke="#000000" points="174.2224,-79.6926 165.039,-74.4091 168.9232,-84.2663 174.2224,-79.6926"/>
</g>
<!-- Views&#45;&gt;Chains -->
<g id="edge9" class="edge">
<title>Views&#45;&gt;Chains</title>
<path fill="none" stroke="#000000" d="M348.8122,-164.9197C365.7434,-156.2973 390.8492,-143.512 410.1142,-133.7011"/>
<polygon fill="#000000" stroke="#000000" points="411.7183,-136.812 419.041,-129.155 408.5417,-130.5742 411.7183,-136.812"/>
</g>
<!-- Contracts -->
<g id="node14" class="node">
<title>Contracts</title>
<g id="a_node14"><a xlink:href="../contracts.html" xlink:title="Contracts" target="_top">
<polygon fill="none" stroke="#ffffff" points="62,-129 0,-129 0,-110 62,-110 62,-129"/>
<text text-anchor="middle" x="31" y="-115.8" font-family="Sans-Serif" font-size="14.00" fill="#000000">Contracts</text>
</a>
</g>
</g>
<!-- Views&#45;&gt;Contracts -->
<g id="edge39" class="edge">
<title>Views&#45;&gt;Contracts</title>
<path fill="none" stroke="#000000" d="M309.4405,-171.3132C267.0134,-164.6469 166.4926,-148.3888 72.3697,-129.1928"/>
<polygon fill="#000000" stroke="#000000" points="72.9037,-125.7295 62.4037,-127.1441 71.4941,-132.5861 72.9037,-125.7295"/>
</g>
<!-- Formats -->
<g id="node9" class="node">
<title>Formats</title>
<g id="a_node9"><a xlink:href="../formats.html" xlink:title="Formats" target="_top">
<polygon fill="none" stroke="#ffffff" points="442.5,-349 387.5,-349 387.5,-330 442.5,-330 442.5,-349"/>
<text text-anchor="middle" x="415" y="-335.8" font-family="Sans-Serif" font-size="14.00" fill="#000000">Formats</text>
</a>
</g>
</g>
<!-- Formats&#45;&gt;Readers -->
<g id="edge7" class="edge">
<title>Formats&#45;&gt;Readers</title>
<path fill="none" stroke="#000000" d="M415,-329.9197C415,-322.9083 415,-313.1442 415,-304.4652"/>
<polygon fill="#000000" stroke="#000000" points="418.5001,-304.3408 415,-294.3408 411.5001,-304.3409 418.5001,-304.3408"/>
</g>
<!-- Chains&#45;&gt;ExampleData -->
<g id="edge11" class="edge">
<title>Chains&#45;&gt;ExampleData</title>
<path fill="none" stroke="#000000" d="M438,-109.9197C438,-102.9083 438,-93.1442 438,-84.4652"/>
<polygon fill="#000000" stroke="#000000" points="441.5001,-84.3408 438,-74.3408 434.5001,-84.3409 441.5001,-84.3408"/>
</g>
<!-- Chains&#45;&gt;CompleteDaf -->
<g id="edge18" class="edge">
<title>Chains&#45;&gt;CompleteDaf</title>
<path fill="none" stroke="#000000" d="M461.6002,-110.2942C484.4015,-101.4001 519.1813,-87.8335 544.973,-77.7729"/>
<polygon fill="#000000" stroke="#000000" points="546.3298,-81.0006 554.3742,-74.1058 543.7859,-74.4792 546.3298,-81.0006"/>
</g>
<!-- Chains&#45;&gt;Adapters -->
<g id="edge34" class="edge">
<title>Chains&#45;&gt;Adapters</title>
<path fill="none" stroke="#000000" d="M455.3994,-109.9024C475.9918,-97.3186 505.6325,-74.5453 490,-55 470.0552,-30.0629 380.5106,-17.8245 327.5718,-12.6693"/>
<polygon fill="#000000" stroke="#000000" points="327.7852,-9.1741 317.5036,-11.731 327.1356,-16.1439 327.7852,-9.1741"/>
</g>
<!-- FilesFormat&#45;&gt;ExampleData -->
<g id="edge12" class="edge">
<title>FilesFormat&#45;&gt;ExampleData</title>
<path fill="none" stroke="#000000" d="M582.5173,-109.9197C553.6223,-100.8384 510.0342,-87.1393 478.285,-77.161"/>
<polygon fill="#000000" stroke="#000000" points="479.0158,-73.7219 468.4264,-74.0626 476.917,-80.3999 479.0158,-73.7219"/>
</g>
<!-- FilesFormat&#45;&gt;CompleteDaf -->
<g id="edge19" class="edge">
<title>FilesFormat&#45;&gt;CompleteDaf</title>
<path fill="none" stroke="#000000" d="M607.0777,-109.9197C602.5025,-102.5188 596.0314,-92.0509 590.4545,-83.0294"/>
<polygon fill="#000000" stroke="#000000" points="593.3188,-81.0064 585.0834,-74.3408 587.3646,-84.6872 593.3188,-81.0064"/>
</g>
<!-- Computations -->
<g id="node13" class="node">
<title>Computations</title>
<g id="a_node13"><a xlink:href="../computations.html" xlink:title="Computations" target="_top">
<polygon fill="none" stroke="#ffffff" points="95.5,-74 6.5,-74 6.5,-55 95.5,-55 95.5,-74"/>
<text text-anchor="middle" x="51" y="-60.8" font-family="Sans-Serif" font-size="14.00" fill="#000000">Computations</text>
</a>
</g>
</g>
<!-- Computations&#45;&gt;Adapters -->
<g id="edge32" class="edge">
<title>Computations&#45;&gt;Adapters</title>
<path fill="none" stroke="#000000" d="M92.0117,-54.9825C135.9212,-44.7925 205.108,-28.7365 248.4475,-18.6788"/>
<polygon fill="#000000" stroke="#000000" points="249.3964,-22.0517 258.3463,-16.3817 247.8139,-15.2329 249.3964,-22.0517"/>
</g>
<!-- Contracts&#45;&gt;Computations -->
<g id="edge14" class="edge">
<title>Contracts&#45;&gt;Computations</title>
<path fill="none" stroke="#000000" d="M34.4837,-109.9197C37.09,-102.7525 40.7422,-92.7089 43.9497,-83.8882"/>
<polygon fill="#000000" stroke="#000000" points="47.2933,-84.9349 47.4215,-74.3408 40.7147,-82.5426 47.2933,-84.9349"/>
</g>
<!-- Queries&#45;&gt;Views -->
<g id="edge16" class="edge">
<title>Queries&#45;&gt;Views</title>
<path fill="none" stroke="#000000" d="M331.6516,-219.9197C331.3967,-212.9083 331.0416,-203.1442 330.726,-194.4652"/>
<polygon fill="#000000" stroke="#000000" points="334.219,-194.207 330.3578,-184.3408 327.2237,-194.4614 334.219,-194.207"/>
</g>
<!-- Queries&#45;&gt;Reconstruction -->
<g id="edge23" class="edge">
<title>Queries&#45;&gt;Reconstruction</title>
<path fill="none" stroke="#000000" d="M314.2532,-219.9306C278.3849,-200.5899 197.0841,-156.7512 154.7509,-133.9245"/>
<polygon fill="#000000" stroke="#000000" points="156.3142,-130.7911 145.851,-129.1256 152.9918,-136.9524 156.3142,-130.7911"/>
</g>
<!-- Keys -->
<g id="node16" class="node">
<title>Keys</title>
<g id="a_node16"><a xlink:href="../keys.html" xlink:title="Keys" target="_top">
<polygon fill="none" stroke="#ffffff" points="398,-404 364,-404 364,-385 398,-385 398,-404"/>
<text text-anchor="middle" x="381" y="-390.8" font-family="Sans-Serif" font-size="14.00" fill="#000000">Keys</text>
</a>
</g>
</g>
<!-- Keys&#45;&gt;Formats -->
<g id="edge37" class="edge">
<title>Keys&#45;&gt;Formats</title>
<path fill="none" stroke="#000000" d="M386.9223,-384.9197C391.4975,-377.5188 397.9686,-367.0509 403.5455,-358.0294"/>
<polygon fill="#000000" stroke="#000000" points="406.6354,-359.6872 408.9166,-349.3408 400.6812,-356.0064 406.6354,-359.6872"/>
</g>
<!-- Operations -->
<g id="node18" class="node">
<title>Operations</title>
<g id="a_node18"><a xlink:href="../operations.html" xlink:title="Operations" target="_top">
<polygon fill="none" stroke="#ffffff" points="538.5,-294 467.5,-294 467.5,-275 538.5,-275 538.5,-294"/>
<text text-anchor="middle" x="503" y="-280.8" font-family="Sans-Serif" font-size="14.00" fill="#000000">Operations</text>
</a>
</g>
</g>
<!-- Operations&#45;&gt;FilesFormat -->
<g id="edge30" class="edge">
<title>Operations&#45;&gt;FilesFormat</title>
<path fill="none" stroke="#000000" d="M518.7614,-274.9598C531.2885,-266.7248 548.5505,-253.8354 560,-239 584.0369,-207.8548 599.8225,-164.096 607.5101,-139.0866"/>
<polygon fill="#000000" stroke="#000000" points="610.9196,-139.8988 610.3915,-129.3171 604.2055,-137.9185 610.9196,-139.8988"/>
</g>
<!-- Operations&#45;&gt;Queries -->
<g id="edge21" class="edge">
<title>Operations&#45;&gt;Queries</title>
<path fill="none" stroke="#000000" d="M473.2141,-274.9197C444.0298,-265.533 399.506,-251.2124 368.2736,-241.167"/>
<polygon fill="#000000" stroke="#000000" points="369.228,-237.7974 358.6366,-238.0673 367.0846,-244.4612 369.228,-237.7974"/>
</g>
<!-- Tokens -->
<g id="node21" class="node">
<title>Tokens</title>
<g id="a_node21"><a xlink:href="../tokens.html" xlink:title="Tokens" target="_top">
<polygon fill="none" stroke="#ffffff" points="463.5,-404 416.5,-404 416.5,-385 463.5,-385 463.5,-404"/>
<text text-anchor="middle" x="440" y="-390.8" font-family="Sans-Serif" font-size="14.00" fill="#000000">Tokens</text>
</a>
</g>
</g>
<!-- Tokens&#45;&gt;Formats -->
<g id="edge36" class="edge">
<title>Tokens&#45;&gt;Formats</title>
<path fill="none" stroke="#000000" d="M435.6453,-384.9197C432.3521,-377.6746 427.7228,-367.4903 423.6823,-358.601"/>
<polygon fill="#000000" stroke="#000000" points="426.7975,-356.9962 419.4731,-349.3408 420.4249,-359.8928 426.7975,-356.9962"/>
</g>
<!-- Tokens&#45;&gt;Operations -->
<g id="edge27" class="edge">
<title>Tokens&#45;&gt;Operations</title>
<path fill="none" stroke="#000000" d="M445.5908,-384.7382C456.1249,-366.3454 479.0624,-326.2959 492.5378,-302.7673"/>
<polygon fill="#000000" stroke="#000000" points="495.5789,-304.4999 497.5117,-294.0828 489.5046,-301.0209 495.5789,-304.4999"/>
</g>
<!-- Registry -->
<g id="node22" class="node">
<title>Registry</title>
<g id="a_node22"><a xlink:href="../registry.html" xlink:title="Registry" target="_top">
<polygon fill="none" stroke="#ffffff" points="536,-404 482,-404 482,-385 536,-385 536,-404"/>
<text text-anchor="middle" x="509" y="-390.8" font-family="Sans-Serif" font-size="14.00" fill="#000000">Registry</text>
</a>
</g>
</g>
<!-- Registry&#45;&gt;Formats -->
<g id="edge38" class="edge">
<title>Registry&#45;&gt;Formats</title>
<path fill="none" stroke="#000000" d="M492.6264,-384.9197C478.1579,-376.4541 456.8309,-363.9755 440.1905,-354.2391"/>
<polygon fill="#000000" stroke="#000000" points="441.9,-351.1843 431.5013,-349.155 438.3649,-357.2261 441.9,-351.1843"/>
</g>
<!-- Registry&#45;&gt;Operations -->
<g id="edge26" class="edge">
<title>Registry&#45;&gt;Operations</title>
<path fill="none" stroke="#000000" d="M508.4675,-384.7382C507.4866,-366.7541 505.3763,-328.0652 504.0833,-304.3599"/>
<polygon fill="#000000" stroke="#000000" points="507.5622,-303.8773 503.5227,-294.0828 500.5726,-304.2586 507.5622,-303.8773"/>
</g>
<!-- StorageTypes -->
<g id="node23" class="node">
<title>StorageTypes</title>
<g id="a_node23"><a xlink:href="../storage_types.html" xlink:title="StorageTypes" target="_top">
<polygon fill="none" stroke="#ffffff" points="552.5,-459 465.5,-459 465.5,-440 552.5,-440 552.5,-459"/>
<text text-anchor="middle" x="509" y="-445.8" font-family="Sans-Serif" font-size="14.00" fill="#000000">StorageTypes</text>
</a>
</g>
</g>
<!-- StorageTypes&#45;&gt;Registry -->
<g id="edge25" class="edge">
<title>StorageTypes&#45;&gt;Registry</title>
<path fill="none" stroke="#000000" d="M509,-439.9197C509,-432.9083 509,-423.1442 509,-414.4652"/>
<polygon fill="#000000" stroke="#000000" points="512.5001,-414.3408 509,-404.3408 505.5001,-414.3409 512.5001,-414.3408"/>
</g>
</g>
</svg>
