<?xml version="1.0" encoding="UTF-8" standalone="no"?>
<!DOCTYPE svg PUBLIC "-//W3C//DTD SVG 1.1//EN"
 "http://www.w3.org/Graphics/SVG/1.1/DTD/svg11.dtd">
<!-- Generated by graphviz version 14.1.4 (20260321.0153)
 -->
<!-- Pages: 1 -->
<svg width="686pt" height="470pt"
 viewBox="0.00 0.00 686.00 470.00" xmlns="http://www.w3.org/2000/svg" xmlns:xlink="http://www.w3.org/1999/xlink">
<g id="graph0" class="graph" transform="scale(1 1) rotate(0) translate(4 465.88)">
<polygon fill="white" stroke="none" points="-4,4 -4,-465.88 681.82,-465.88 681.82,4 -4,4"/>
<!-- Copies -->
<g id="node1" class="node">
<title>Copies</title>
<g id="a_node1"><a xlink:href="../copies.html" xlink:title="Copies" target="_top">
<polygon fill="none" stroke="white" points="158.32,-185.28 112,-185.28 112,-165.96 158.32,-165.96 158.32,-185.28"/>
<text xml:space="preserve" text-anchor="middle" x="135.16" y="-169.82" font-family="Sans-Serif" font-size="14.00">Copies</text>
</a>
</g>
</g>
<!-- Adapters -->
<g id="node3" class="node">
<title>Adapters</title>
<g id="a_node3"><a xlink:href="../adapters.html" xlink:title="Adapters" target="_top">
<polygon fill="none" stroke="white" points="247.32,-19.32 189,-19.32 189,0 247.32,0 247.32,-19.32"/>
<text xml:space="preserve" text-anchor="middle" x="218.16" y="-3.86" font-family="Sans-Serif" font-size="14.00">Adapters</text>
</a>
</g>
</g>
<!-- Copies&#45;&gt;Adapters -->
<g id="edge4" class="edge">
<title>Copies&#45;&gt;Adapters</title>
<path fill="none" stroke="black" d="M119.55,-165.48C107.93,-157.7 92.95,-145.33 86.16,-129.96 82.69,-122.11 83.37,-118.76 86.16,-110.64 101.01,-67.33 148.47,-39.21 182.22,-24.15"/>
<polygon fill="black" stroke="black" points="183.42,-27.44 191.25,-20.3 180.67,-21 183.42,-27.44"/>
</g>
<!-- Concat -->
<g id="node29" class="node">
<title>Concat</title>
<g id="a_node29"><a xlink:href="../concat.html" xlink:title="Concat" target="_top">
<polygon fill="none" stroke="white" points="142.69,-129.96 95.62,-129.96 95.62,-110.64 142.69,-110.64 142.69,-129.96"/>
<text xml:space="preserve" text-anchor="middle" x="119.16" y="-114.5" font-family="Sans-Serif" font-size="14.00">Concat</text>
</a>
</g>
</g>
<!-- Copies&#45;&gt;Concat -->
<g id="edge47" class="edge">
<title>Copies&#45;&gt;Concat</title>
<path fill="none" stroke="black" d="M132.52,-165.82C130.52,-159.14 127.68,-149.7 125.14,-141.23"/>
<polygon fill="black" stroke="black" points="128.52,-140.32 122.29,-131.75 121.82,-142.33 128.52,-140.32"/>
</g>
<!-- Writers -->
<g id="node2" class="node">
<title>Writers</title>
<g id="a_node2"><a xlink:href="../writers.html" xlink:title="Writers" target="_top">
<polygon fill="none" stroke="white" points="337.69,-240.6 290.62,-240.6 290.62,-221.28 337.69,-221.28 337.69,-240.6"/>
<text xml:space="preserve" text-anchor="middle" x="314.16" y="-225.14" font-family="Sans-Serif" font-size="14.00">Writers</text>
</a>
</g>
</g>
<!-- Writers&#45;&gt;Copies -->
<g id="edge1" class="edge">
<title>Writers&#45;&gt;Copies</title>
<path fill="none" stroke="black" d="M290.39,-222.86C259.41,-213.63 205.02,-197.43 169.54,-186.86"/>
<polygon fill="black" stroke="black" points="170.78,-183.58 160.19,-184.08 168.78,-190.29 170.78,-183.58"/>
</g>
<!-- MemoryFormat -->
<g id="node5" class="node">
<title>MemoryFormat</title>
<g id="a_node5"><a xlink:href="../memory_format.html" xlink:title="MemoryFormat" target="_top">
<polygon fill="none" stroke="white" points="652.19,-185.28 554.12,-185.28 554.12,-165.96 652.19,-165.96 652.19,-185.28"/>
<text xml:space="preserve" text-anchor="middle" x="603.16" y="-169.82" font-family="Sans-Serif" font-size="14.00">MemoryFormat</text>
</a>
</g>
</g>
<!-- Writers&#45;&gt;MemoryFormat -->
<g id="edge30" class="edge">
<title>Writers&#45;&gt;MemoryFormat</title>
<path fill="none" stroke="black" d="M337.87,-223.26C340.65,-222.56 343.46,-221.88 346.16,-221.28 382.66,-213.19 478.96,-196.96 542.75,-186.46"/>
<polygon fill="black" stroke="black" points="543.08,-189.95 552.38,-184.87 541.94,-183.04 543.08,-189.95"/>
</g>
<!-- Chains -->
<g id="node6" class="node">
<title>Chains</title>
<g id="a_node6"><a xlink:href="../chains.html" xlink:title="Chains" target="_top">
<polygon fill="none" stroke="white" points="287.32,-129.96 241,-129.96 241,-110.64 287.32,-110.64 287.32,-129.96"/>
<text xml:space="preserve" text-anchor="middle" x="264.16" y="-114.5" font-family="Sans-Serif" font-size="14.00">Chains</text>
</a>
</g>
</g>
<!-- Writers&#45;&gt;Chains -->
<g id="edge38" class="edge">
<title>Writers&#45;&gt;Chains</title>
<path fill="none" stroke="black" d="M299.82,-220.89C288.71,-212.99 274.09,-200.43 267.16,-185.28 260.85,-171.49 260.41,-154.23 261.38,-141.11"/>
<polygon fill="black" stroke="black" points="264.82,-141.88 262.43,-131.56 257.86,-141.12 264.82,-141.88"/>
</g>
<!-- FilesFormat -->
<g id="node15" class="node">
<title>FilesFormat</title>
<g id="a_node15"><a xlink:href="../files_format.html" xlink:title="FilesFormat" target="_top">
<polygon fill="none" stroke="white" points="352.32,-185.28 276,-185.28 276,-165.96 352.32,-165.96 352.32,-185.28"/>
<text xml:space="preserve" text-anchor="middle" x="314.16" y="-169.82" font-family="Sans-Serif" font-size="14.00">FilesFormat</text>
</a>
</g>
</g>
<!-- Writers&#45;&gt;FilesFormat -->
<g id="edge43" class="edge">
<title>Writers&#45;&gt;FilesFormat</title>
<path fill="none" stroke="black" d="M314.16,-221.14C314.16,-214.54 314.16,-205.24 314.16,-196.85"/>
<polygon fill="black" stroke="black" points="317.66,-197.13 314.16,-187.13 310.66,-197.13 317.66,-197.13"/>
</g>
<!-- H5dfFormat -->
<g id="node16" class="node">
<title>H5dfFormat</title>
<g id="a_node16"><a xlink:href="../h5df_format.html" xlink:title="H5dfFormat" target="_top">
<polygon fill="none" stroke="white" points="446.32,-185.28 370,-185.28 370,-165.96 446.32,-165.96 446.32,-185.28"/>
<text xml:space="preserve" text-anchor="middle" x="408.16" y="-169.82" font-family="Sans-Serif" font-size="14.00">H5dfFormat</text>
</a>
</g>
</g>
<!-- Writers&#45;&gt;H5dfFormat -->
<g id="edge34" class="edge">
<title>Writers&#45;&gt;H5dfFormat</title>
<path fill="none" stroke="black" d="M330.11,-220.89C344.42,-212.78 365.69,-200.71 382.41,-191.22"/>
<polygon fill="black" stroke="black" points="383.85,-194.43 390.82,-186.46 380.39,-188.35 383.85,-194.43"/>
</g>
<!-- ZarrFormat -->
<g id="node22" class="node">
<title>ZarrFormat</title>
<g id="a_node22"><a xlink:href="../zarr_format.html" xlink:title="ZarrFormat" target="_top">
<polygon fill="none" stroke="white" points="536.44,-185.28 463.88,-185.28 463.88,-165.96 536.44,-165.96 536.44,-185.28"/>
<text xml:space="preserve" text-anchor="middle" x="500.16" y="-169.82" font-family="Sans-Serif" font-size="14.00">ZarrFormat</text>
</a>
</g>
</g>
<!-- Writers&#45;&gt;ZarrFormat -->
<g id="edge28" class="edge">
<title>Writers&#45;&gt;ZarrFormat</title>
<path fill="none" stroke="black" d="M338.1,-223.08C368.15,-214.46 420.25,-199.53 457.26,-188.92"/>
<polygon fill="black" stroke="black" points="458.12,-192.31 466.77,-186.19 456.19,-185.58 458.12,-192.31"/>
</g>
<!-- Reconstruction -->
<g id="node30" class="node">
<title>Reconstruction</title>
<g id="a_node30"><a xlink:href="../reconstruction.html" xlink:title="Reconstruction" target="_top">
<polygon fill="none" stroke="white" points="94.32,-185.28 0,-185.28 0,-165.96 94.32,-165.96 94.32,-185.28"/>
<text xml:space="preserve" text-anchor="middle" x="47.16" y="-169.82" font-family="Sans-Serif" font-size="14.00">Reconstruction</text>
</a>
</g>
</g>
<!-- Writers&#45;&gt;Reconstruction -->
<g id="edge50" class="edge">
<title>Writers&#45;&gt;Reconstruction</title>
<path fill="none" stroke="black" d="M290.41,-223.5C287.31,-222.72 284.16,-221.96 281.16,-221.28 221.72,-207.83 153.18,-195.06 105.71,-186.65"/>
<polygon fill="black" stroke="black" points="106.36,-183.22 95.91,-184.93 105.15,-190.11 106.36,-183.22"/>
</g>
<!-- Computations -->
<g id="node4" class="node">
<title>Computations</title>
<g id="a_node4"><a xlink:href="../computations.html" xlink:title="Computations" target="_top">
<polygon fill="none" stroke="white" points="226.32,-74.64 138,-74.64 138,-55.32 226.32,-55.32 226.32,-74.64"/>
<text xml:space="preserve" text-anchor="middle" x="182.16" y="-59.18" font-family="Sans-Serif" font-size="14.00">Computations</text>
</a>
</g>
</g>
<!-- Computations&#45;&gt;Adapters -->
<g id="edge2" class="edge">
<title>Computations&#45;&gt;Adapters</title>
<path fill="none" stroke="black" d="M188.1,-55.18C192.87,-48.12 199.72,-37.97 205.68,-29.14"/>
<polygon fill="black" stroke="black" points="208.54,-31.16 211.24,-20.91 202.74,-27.24 208.54,-31.16"/>
</g>
<!-- MemoryFormat&#45;&gt;Adapters -->
<g id="edge3" class="edge">
<title>MemoryFormat&#45;&gt;Adapters</title>
<path fill="none" stroke="black" d="M621.7,-165.54C643.69,-153.53 675.56,-131.45 660.16,-110.64 612.38,-46.07 359.6,-20.9 259.26,-13.35"/>
<polygon fill="black" stroke="black" points="259.54,-9.86 249.31,-12.63 259.03,-16.85 259.54,-9.86"/>
</g>
<!-- ExampleData -->
<g id="node23" class="node">
<title>ExampleData</title>
<g id="a_node23"><a xlink:href="../example_data.html" xlink:title="ExampleData" target="_top">
<polygon fill="none" stroke="white" points="368.19,-74.64 282.12,-74.64 282.12,-55.32 368.19,-55.32 368.19,-74.64"/>
<text xml:space="preserve" text-anchor="middle" x="325.16" y="-59.18" font-family="Sans-Serif" font-size="14.00">ExampleData</text>
</a>
</g>
</g>
<!-- MemoryFormat&#45;&gt;ExampleData -->
<g id="edge23" class="edge">
<title>MemoryFormat&#45;&gt;ExampleData</title>
<path fill="none" stroke="black" d="M585.75,-165.59C560.03,-152.46 510.18,-127.81 466.16,-110.64 434.06,-98.12 396.87,-86.46 368.75,-78.19"/>
<polygon fill="black" stroke="black" points="370.09,-74.94 359.51,-75.5 368.14,-81.66 370.09,-74.94"/>
</g>
<!-- AnnDataFormat -->
<g id="node27" class="node">
<title>AnnDataFormat</title>
<g id="a_node27"><a xlink:href="../anndata_format.html" xlink:title="AnnDataFormat" target="_top">
<polygon fill="none" stroke="white" points="651.32,-129.96 551,-129.96 551,-110.64 651.32,-110.64 651.32,-129.96"/>
<text xml:space="preserve" text-anchor="middle" x="601.16" y="-114.5" font-family="Sans-Serif" font-size="14.00">AnnDataFormat</text>
</a>
</g>
</g>
<!-- MemoryFormat&#45;&gt;AnnDataFormat -->
<g id="edge39" class="edge">
<title>MemoryFormat&#45;&gt;AnnDataFormat</title>
<path fill="none" stroke="black" d="M602.83,-165.82C602.58,-159.22 602.23,-149.92 601.92,-141.53"/>
<polygon fill="black" stroke="black" points="605.43,-141.67 601.55,-131.81 598.43,-141.93 605.43,-141.67"/>
</g>
<!-- Chains&#45;&gt;Adapters -->
<g id="edge5" class="edge">
<title>Chains&#45;&gt;Adapters</title>
<path fill="none" stroke="black" d="M260.4,-110.41C253.02,-92.98 236.5,-53.96 226.44,-30.22"/>
<polygon fill="black" stroke="black" points="229.69,-28.91 222.57,-21.07 223.24,-31.64 229.69,-28.91"/>
</g>
<!-- CompleteDaf -->
<g id="node14" class="node">
<title>CompleteDaf</title>
<g id="a_node14"><a xlink:href="../complete.html" xlink:title="CompleteDaf" target="_top">
<polygon fill="none" stroke="white" points="470.07,-74.64 386.25,-74.64 386.25,-55.32 470.07,-55.32 470.07,-74.64"/>
<text xml:space="preserve" text-anchor="middle" x="428.16" y="-59.18" font-family="Sans-Serif" font-size="14.00">CompleteDaf</text>
</a>
</g>
</g>
<!-- Chains&#45;&gt;CompleteDaf -->
<g id="edge12" class="edge">
<title>Chains&#45;&gt;CompleteDaf</title>
<path fill="none" stroke="black" d="M287.66,-111.66C314.2,-103.03 357.8,-88.85 389.4,-78.58"/>
<polygon fill="black" stroke="black" points="390.17,-82.01 398.59,-75.59 388,-75.36 390.17,-82.01"/>
</g>
<!-- Chains&#45;&gt;ExampleData -->
<g id="edge22" class="edge">
<title>Chains&#45;&gt;ExampleData</title>
<path fill="none" stroke="black" d="M274.51,-110.25C283.24,-102.63 295.95,-91.51 306.46,-82.33"/>
<polygon fill="black" stroke="black" points="308.6,-85.1 313.83,-75.89 303.99,-79.83 308.6,-85.1"/>
</g>
<!-- Views -->
<g id="node7" class="node">
<title>Views</title>
<g id="a_node7"><a xlink:href="../views.html" xlink:title="Views" target="_top">
<polygon fill="none" stroke="white" points="216.32,-185.28 176,-185.28 176,-165.96 216.32,-165.96 216.32,-185.28"/>
<text xml:space="preserve" text-anchor="middle" x="196.16" y="-169.82" font-family="Sans-Serif" font-size="14.00">Views</text>
</a>
</g>
</g>
<!-- Views&#45;&gt;Chains -->
<g id="edge37" class="edge">
<title>Views&#45;&gt;Chains</title>
<path fill="none" stroke="black" d="M207.7,-165.57C217.62,-157.79 232.17,-146.38 244.02,-137.09"/>
<polygon fill="black" stroke="black" points="245.89,-140.07 251.6,-131.15 241.58,-134.56 245.89,-140.07"/>
</g>
<!-- Contracts -->
<g id="node17" class="node">
<title>Contracts</title>
<g id="a_node17"><a xlink:href="../contracts.html" xlink:title="Contracts" target="_top">
<polygon fill="none" stroke="white" points="223.19,-129.96 161.12,-129.96 161.12,-110.64 223.19,-110.64 223.19,-129.96"/>
<text xml:space="preserve" text-anchor="middle" x="192.16" y="-114.5" font-family="Sans-Serif" font-size="14.00">Contracts</text>
</a>
</g>
</g>
<!-- Views&#45;&gt;Contracts -->
<g id="edge15" class="edge">
<title>Views&#45;&gt;Contracts</title>
<path fill="none" stroke="black" d="M195.5,-165.82C195,-159.22 194.31,-149.92 193.68,-141.53"/>
<polygon fill="black" stroke="black" points="197.19,-141.52 192.95,-131.81 190.21,-142.04 197.19,-141.52"/>
</g>
<!-- Views&#45;&gt;Concat -->
<g id="edge46" class="edge">
<title>Views&#45;&gt;Concat</title>
<path fill="none" stroke="black" d="M183.1,-165.57C171.7,-157.69 154.93,-146.07 141.42,-136.72"/>
<polygon fill="black" stroke="black" points="143.74,-134.07 133.53,-131.25 139.76,-139.82 143.74,-134.07"/>
</g>
<!-- ReadOnly -->
<g id="node8" class="node">
<title>ReadOnly</title>
<g id="a_node8"><a xlink:href="../read_only.html" xlink:title="ReadOnly" target="_top">
<polygon fill="none" stroke="white" points="420.69,-240.6 355.62,-240.6 355.62,-221.28 420.69,-221.28 420.69,-240.6"/>
<text xml:space="preserve" text-anchor="middle" x="388.16" y="-225.14" font-family="Sans-Serif" font-size="14.00">ReadOnly</text>
</a>
</g>
</g>
<!-- ReadOnly&#45;&gt;Views -->
<g id="edge6" class="edge">
<title>ReadOnly&#45;&gt;Views</title>
<path fill="none" stroke="black" d="M355.59,-220.89C319.93,-210.99 263.13,-195.22 227.83,-185.41"/>
<polygon fill="black" stroke="black" points="228.77,-182.04 218.2,-182.74 226.9,-188.79 228.77,-182.04"/>
</g>
<!-- ReadOnly&#45;&gt;FilesFormat -->
<g id="edge41" class="edge">
<title>ReadOnly&#45;&gt;FilesFormat</title>
<path fill="none" stroke="black" d="M375.61,-220.89C364.7,-213.03 348.66,-201.48 335.7,-192.14"/>
<polygon fill="black" stroke="black" points="337.92,-189.42 327.76,-186.42 333.82,-195.1 337.92,-189.42"/>
</g>
<!-- ReadOnly&#45;&gt;H5dfFormat -->
<g id="edge32" class="edge">
<title>ReadOnly&#45;&gt;H5dfFormat</title>
<path fill="none" stroke="black" d="M391.46,-221.14C393.99,-214.38 397.59,-204.81 400.79,-196.26"/>
<polygon fill="black" stroke="black" points="404.02,-197.63 404.25,-187.03 397.46,-195.17 404.02,-197.63"/>
</g>
<!-- ReadOnly&#45;&gt;ZarrFormat -->
<g id="edge26" class="edge">
<title>ReadOnly&#45;&gt;ZarrFormat</title>
<path fill="none" stroke="black" d="M407.16,-220.89C424.62,-212.58 450.76,-200.14 470.88,-190.56"/>
<polygon fill="black" stroke="black" points="472.18,-193.82 479.7,-186.36 469.17,-187.5 472.18,-193.82"/>
</g>
<!-- Queries -->
<g id="node9" class="node">
<title>Queries</title>
<g id="a_node9"><a xlink:href="../queries.html" xlink:title="Queries" target="_top">
<polygon fill="none" stroke="white" points="144.32,-240.6 92,-240.6 92,-221.28 144.32,-221.28 144.32,-240.6"/>
<text xml:space="preserve" text-anchor="middle" x="118.16" y="-225.14" font-family="Sans-Serif" font-size="14.00">Queries</text>
</a>
</g>
</g>
<!-- Queries&#45;&gt;Views -->
<g id="edge7" class="edge">
<title>Queries&#45;&gt;Views</title>
<path fill="none" stroke="black" d="M131.39,-220.89C142.93,-213.01 159.93,-201.39 173.61,-192.04"/>
<polygon fill="black" stroke="black" points="175.33,-195.1 181.61,-186.56 171.38,-189.32 175.33,-195.1"/>
</g>
<!-- Queries&#45;&gt;Reconstruction -->
<g id="edge49" class="edge">
<title>Queries&#45;&gt;Reconstruction</title>
<path fill="none" stroke="black" d="M106.12,-220.89C95.75,-213.11 80.56,-201.7 68.19,-192.41"/>
<polygon fill="black" stroke="black" points="70.33,-189.65 60.24,-186.44 66.13,-195.24 70.33,-189.65"/>
</g>
<!-- Operations -->
<g id="node10" class="node">
<title>Operations</title>
<g id="a_node10"><a xlink:href="../operations.html" xlink:title="Operations" target="_top">
<polygon fill="none" stroke="white" points="219.69,-295.92 148.62,-295.92 148.62,-276.6 219.69,-276.6 219.69,-295.92"/>
<text xml:space="preserve" text-anchor="middle" x="184.16" y="-280.46" font-family="Sans-Serif" font-size="14.00">Operations</text>
</a>
</g>
</g>
<!-- Operations&#45;&gt;Queries -->
<g id="edge11" class="edge">
<title>Operations&#45;&gt;Queries</title>
<path fill="none" stroke="black" d="M172.96,-276.21C163.42,-268.51 149.49,-257.25 138.05,-248.01"/>
<polygon fill="black" stroke="black" points="140.35,-245.36 130.37,-241.8 135.95,-250.81 140.35,-245.36"/>
</g>
<!-- Operations&#45;&gt;FilesFormat -->
<g id="edge40" class="edge">
<title>Operations&#45;&gt;FilesFormat</title>
<path fill="none" stroke="black" d="M182.43,-276.32C180.36,-262.86 178.6,-237.27 191.16,-221.28 208.76,-198.87 238.64,-187.7 264.55,-182.13"/>
<polygon fill="black" stroke="black" points="265.07,-185.59 274.25,-180.29 263.77,-178.72 265.07,-185.59"/>
</g>
<!-- HttpFormat -->
<g id="node28" class="node">
<title>HttpFormat</title>
<g id="a_node28"><a xlink:href="../http_format.html" xlink:title="HttpFormat" target="_top">
<polygon fill="none" stroke="white" points="272.44,-240.6 199.88,-240.6 199.88,-221.28 272.44,-221.28 272.44,-240.6"/>
<text xml:space="preserve" text-anchor="middle" x="236.16" y="-225.14" font-family="Sans-Serif" font-size="14.00">HttpFormat</text>
</a>
</g>
</g>
<!-- Operations&#45;&gt;HttpFormat -->
<g id="edge45" class="edge">
<title>Operations&#45;&gt;HttpFormat</title>
<path fill="none" stroke="black" d="M192.75,-276.46C200,-269.01 210.61,-258.14 219.53,-249"/>
<polygon fill="black" stroke="black" points="221.85,-251.62 226.33,-242.02 216.84,-246.74 221.85,-251.62"/>
</g>
<!-- Registry -->
<g id="node11" class="node">
<title>Registry</title>
<g id="a_node11"><a xlink:href="../registry.html" xlink:title="Registry" target="_top">
<polygon fill="none" stroke="white" points="279.07,-406.56 225.25,-406.56 225.25,-387.24 279.07,-387.24 279.07,-406.56"/>
<text xml:space="preserve" text-anchor="middle" x="252.16" y="-391.1" font-family="Sans-Serif" font-size="14.00">Registry</text>
</a>
</g>
</g>
<!-- Registry&#45;&gt;Operations -->
<g id="edge8" class="edge">
<title>Registry&#45;&gt;Operations</title>
<path fill="none" stroke="black" d="M246.6,-387.01C235.54,-369.34 210.59,-329.49 195.8,-305.85"/>
<polygon fill="black" stroke="black" points="198.88,-304.18 190.6,-297.56 192.94,-307.89 198.88,-304.18"/>
</g>
<!-- Formats -->
<g id="node19" class="node">
<title>Formats</title>
<g id="a_node19"><a xlink:href="../formats.html" xlink:title="Formats" target="_top">
<polygon fill="none" stroke="white" points="330.44,-351.24 275.87,-351.24 275.87,-331.92 330.44,-331.92 330.44,-351.24"/>
<text xml:space="preserve" text-anchor="middle" x="303.16" y="-335.78" font-family="Sans-Serif" font-size="14.00">Formats</text>
</a>
</g>
</g>
<!-- Registry&#45;&gt;Formats -->
<g id="edge17" class="edge">
<title>Registry&#45;&gt;Formats</title>
<path fill="none" stroke="black" d="M260.58,-387.1C267.7,-379.65 278.1,-368.78 286.85,-359.64"/>
<polygon fill="black" stroke="black" points="289.13,-362.32 293.51,-352.67 284.07,-357.48 289.13,-362.32"/>
</g>
<!-- Tokens -->
<g id="node12" class="node">
<title>Tokens</title>
<g id="a_node12"><a xlink:href="../tokens.html" xlink:title="Tokens" target="_top">
<polygon fill="none" stroke="white" points="207.69,-406.56 160.62,-406.56 160.62,-387.24 207.69,-387.24 207.69,-406.56"/>
<text xml:space="preserve" text-anchor="middle" x="184.16" y="-391.1" font-family="Sans-Serif" font-size="14.00">Tokens</text>
</a>
</g>
</g>
<!-- Tokens&#45;&gt;Operations -->
<g id="edge9" class="edge">
<title>Tokens&#45;&gt;Operations</title>
<path fill="none" stroke="black" d="M184.16,-387.01C184.16,-369.74 184.16,-331.27 184.16,-307.48"/>
<polygon fill="black" stroke="black" points="187.66,-307.79 184.16,-297.79 180.66,-307.79 187.66,-307.79"/>
</g>
<!-- Tokens&#45;&gt;Formats -->
<g id="edge19" class="edge">
<title>Tokens&#45;&gt;Formats</title>
<path fill="none" stroke="black" d="M204.35,-386.85C223.07,-378.47 251.18,-365.87 272.64,-356.25"/>
<polygon fill="black" stroke="black" points="273.8,-359.57 281.49,-352.29 270.94,-353.18 273.8,-359.57"/>
</g>
<!-- Readers -->
<g id="node13" class="node">
<title>Readers</title>
<g id="a_node13"><a xlink:href="../readers.html" xlink:title="Readers" target="_top">
<polygon fill="none" stroke="white" points="341.82,-295.92 286.5,-295.92 286.5,-276.6 341.82,-276.6 341.82,-295.92"/>
<text xml:space="preserve" text-anchor="middle" x="314.16" y="-280.46" font-family="Sans-Serif" font-size="14.00">Readers</text>
</a>
</g>
</g>
<!-- Readers&#45;&gt;Writers -->
<g id="edge36" class="edge">
<title>Readers&#45;&gt;Writers</title>
<path fill="none" stroke="black" d="M314.16,-276.46C314.16,-269.86 314.16,-260.56 314.16,-252.17"/>
<polygon fill="black" stroke="black" points="317.66,-252.45 314.16,-242.45 310.66,-252.45 317.66,-252.45"/>
</g>
<!-- Readers&#45;&gt;ReadOnly -->
<g id="edge51" class="edge">
<title>Readers&#45;&gt;ReadOnly</title>
<path fill="none" stroke="black" d="M326.71,-276.21C337.62,-268.35 353.66,-256.8 366.62,-247.46"/>
<polygon fill="black" stroke="black" points="368.5,-250.42 374.56,-241.74 364.4,-244.74 368.5,-250.42"/>
</g>
<!-- Readers&#45;&gt;Queries -->
<g id="edge10" class="edge">
<title>Readers&#45;&gt;Queries</title>
<path fill="none" stroke="black" d="M286.08,-277.62C251.68,-268.26 193.32,-252.39 155.26,-242.03"/>
<polygon fill="black" stroke="black" points="156.65,-238.78 146.08,-239.54 154.81,-245.54 156.65,-238.78"/>
</g>
<!-- Reorder -->
<g id="node18" class="node">
<title>Reorder</title>
<g id="a_node18"><a xlink:href="../reorder.html" xlink:title="Reorder" target="_top">
<polygon fill="none" stroke="white" points="491.69,-240.6 438.62,-240.6 438.62,-221.28 491.69,-221.28 491.69,-240.6"/>
<text xml:space="preserve" text-anchor="middle" x="465.16" y="-225.14" font-family="Sans-Serif" font-size="14.00">Reorder</text>
</a>
</g>
</g>
<!-- Readers&#45;&gt;Reorder -->
<g id="edge16" class="edge">
<title>Readers&#45;&gt;Reorder</title>
<path fill="none" stroke="black" d="M339.78,-276.21C364.18,-267.6 401.17,-254.54 428.66,-244.83"/>
<polygon fill="black" stroke="black" points="429.73,-248.16 437.99,-241.53 427.4,-241.56 429.73,-248.16"/>
</g>
<!-- Groups -->
<g id="node26" class="node">
<title>Groups</title>
<g id="a_node26"><a xlink:href="../groups.html" xlink:title="Groups" target="_top">
<polygon fill="none" stroke="white" points="677.82,-240.6 628.5,-240.6 628.5,-221.28 677.82,-221.28 677.82,-240.6"/>
<text xml:space="preserve" text-anchor="middle" x="653.16" y="-225.14" font-family="Sans-Serif" font-size="14.00">Groups</text>
</a>
</g>
</g>
<!-- Readers&#45;&gt;Groups -->
<g id="edge35" class="edge">
<title>Readers&#45;&gt;Groups</title>
<path fill="none" stroke="black" d="M342.19,-282.23C394.41,-276.36 510.34,-262.27 616.75,-241.12"/>
<polygon fill="black" stroke="black" points="617.41,-244.56 626.52,-239.15 616.03,-237.7 617.41,-244.56"/>
</g>
<!-- Readers&#45;&gt;HttpFormat -->
<g id="edge44" class="edge">
<title>Readers&#45;&gt;HttpFormat</title>
<path fill="none" stroke="black" d="M300.93,-276.21C289.39,-268.33 272.39,-256.71 258.71,-247.36"/>
<polygon fill="black" stroke="black" points="260.94,-244.64 250.71,-241.88 256.99,-250.42 260.94,-244.64"/>
</g>
<!-- FilesFormat&#45;&gt;CompleteDaf -->
<g id="edge13" class="edge">
<title>FilesFormat&#45;&gt;CompleteDaf</title>
<path fill="none" stroke="black" d="M321.61,-165.51C332.26,-152.7 352.7,-128.9 372.16,-110.64 382.99,-100.47 395.9,-90.07 406.6,-81.87"/>
<polygon fill="black" stroke="black" points="408.59,-84.75 414.47,-75.93 404.38,-79.16 408.59,-84.75"/>
</g>
<!-- ZarrConvert -->
<g id="node21" class="node">
<title>ZarrConvert</title>
<g id="a_node21"><a xlink:href="../zarr_convert.html" xlink:title="ZarrConvert" target="_top">
<polygon fill="none" stroke="white" points="457.32,-129.96 381,-129.96 381,-110.64 457.32,-110.64 457.32,-129.96"/>
<text xml:space="preserve" text-anchor="middle" x="419.16" y="-114.5" font-family="Sans-Serif" font-size="14.00">ZarrConvert</text>
</a>
</g>
</g>
<!-- FilesFormat&#45;&gt;ZarrConvert -->
<g id="edge21" class="edge">
<title>FilesFormat&#45;&gt;ZarrConvert</title>
<path fill="none" stroke="black" d="M331.97,-165.57C348.19,-157.34 372.4,-145.05 391.19,-135.5"/>
<polygon fill="black" stroke="black" points="392.58,-138.72 399.91,-131.07 389.41,-132.48 392.58,-138.72"/>
</g>
<!-- FilesFormat&#45;&gt;ExampleData -->
<g id="edge24" class="edge">
<title>FilesFormat&#45;&gt;ExampleData</title>
<path fill="none" stroke="black" d="M315.06,-165.73C316.81,-148.46 320.7,-109.99 323.11,-86.2"/>
<polygon fill="black" stroke="black" points="326.57,-86.8 324.09,-76.5 319.61,-86.1 326.57,-86.8"/>
</g>
<!-- H5dfFormat&#45;&gt;CompleteDaf -->
<g id="edge14" class="edge">
<title>H5dfFormat&#45;&gt;CompleteDaf</title>
<path fill="none" stroke="black" d="M427.68,-165.57C441.22,-158.12 458.19,-146.15 466.16,-129.96 474.35,-113.32 461.4,-95.22 448.45,-82.54"/>
<polygon fill="black" stroke="black" points="451.05,-80.17 441.29,-76.06 446.36,-85.36 451.05,-80.17"/>
</g>
<!-- Contracts&#45;&gt;Computations -->
<g id="edge48" class="edge">
<title>Contracts&#45;&gt;Computations</title>
<path fill="none" stroke="black" d="M190.51,-110.5C189.27,-103.9 187.53,-94.6 185.95,-86.21"/>
<polygon fill="black" stroke="black" points="189.41,-85.65 184.13,-76.46 182.53,-86.94 189.41,-85.65"/>
</g>
<!-- Reorder&#45;&gt;MemoryFormat -->
<g id="edge29" class="edge">
<title>Reorder&#45;&gt;MemoryFormat</title>
<path fill="none" stroke="black" d="M488.57,-220.89C510.68,-212.35 544.08,-199.45 569.13,-189.77"/>
<polygon fill="black" stroke="black" points="570.16,-193.12 578.22,-186.25 567.63,-186.59 570.16,-193.12"/>
</g>
<!-- Reorder&#45;&gt;FilesFormat -->
<g id="edge42" class="edge">
<title>Reorder&#45;&gt;FilesFormat</title>
<path fill="none" stroke="black" d="M439.54,-220.89C415.14,-212.28 378.15,-199.22 350.66,-189.51"/>
<polygon fill="black" stroke="black" points="351.92,-186.24 341.33,-186.21 349.59,-192.84 351.92,-186.24"/>
</g>
<!-- Reorder&#45;&gt;H5dfFormat -->
<g id="edge33" class="edge">
<title>Reorder&#45;&gt;H5dfFormat</title>
<path fill="none" stroke="black" d="M455.49,-220.89C447.42,-213.34 435.69,-202.38 425.94,-193.25"/>
<polygon fill="black" stroke="black" points="428.49,-190.84 418.79,-186.57 423.7,-195.95 428.49,-190.84"/>
</g>
<!-- Reorder&#45;&gt;ZarrFormat -->
<g id="edge27" class="edge">
<title>Reorder&#45;&gt;ZarrFormat</title>
<path fill="none" stroke="black" d="M470.94,-221.14C475.57,-214.08 482.23,-203.93 488.03,-195.1"/>
<polygon fill="black" stroke="black" points="490.86,-197.16 493.42,-186.88 485.01,-193.32 490.86,-197.16"/>
</g>
<!-- Formats&#45;&gt;Readers -->
<g id="edge52" class="edge">
<title>Formats&#45;&gt;Readers</title>
<path fill="none" stroke="black" d="M304.98,-331.78C306.34,-325.18 308.26,-315.88 309.99,-307.49"/>
<polygon fill="black" stroke="black" points="313.41,-308.24 312,-297.74 306.55,-306.82 313.41,-308.24"/>
</g>
<!-- Keys -->
<g id="node20" class="node">
<title>Keys</title>
<g id="a_node20"><a xlink:href="../keys.html" xlink:title="Keys" target="_top">
<polygon fill="none" stroke="white" points="331.32,-406.56 297,-406.56 297,-387.24 331.32,-387.24 331.32,-406.56"/>
<text xml:space="preserve" text-anchor="middle" x="314.16" y="-391.1" font-family="Sans-Serif" font-size="14.00">Keys</text>
</a>
</g>
</g>
<!-- Keys&#45;&gt;Formats -->
<g id="edge18" class="edge">
<title>Keys&#45;&gt;Formats</title>
<path fill="none" stroke="black" d="M312.34,-387.1C310.98,-380.5 309.06,-371.2 307.33,-362.81"/>
<polygon fill="black" stroke="black" points="310.77,-362.14 305.32,-353.06 303.91,-363.56 310.77,-362.14"/>
</g>
<!-- ZarrFormat&#45;&gt;ZarrConvert -->
<g id="edge20" class="edge">
<title>ZarrFormat&#45;&gt;ZarrConvert</title>
<path fill="none" stroke="black" d="M486.42,-165.57C474.43,-157.69 456.79,-146.07 442.58,-136.72"/>
<polygon fill="black" stroke="black" points="444.51,-133.8 434.23,-131.22 440.66,-139.64 444.51,-133.8"/>
</g>
<!-- MmapZipStores -->
<g id="node24" class="node">
<title>MmapZipStores</title>
<g id="a_node24"><a xlink:href="../mmap_zip_store.html" xlink:title="MmapZipStores" target="_top">
<polygon fill="none" stroke="white" points="610.69,-240.6 509.62,-240.6 509.62,-221.28 610.69,-221.28 610.69,-240.6"/>
<text xml:space="preserve" text-anchor="middle" x="560.16" y="-225.14" font-family="Sans-Serif" font-size="14.00">MmapZipStores</text>
</a>
</g>
</g>
<!-- MmapZipStores&#45;&gt;ZarrFormat -->
<g id="edge25" class="edge">
<title>MmapZipStores&#45;&gt;ZarrFormat</title>
<path fill="none" stroke="black" d="M549.98,-220.89C541.4,-213.27 528.89,-202.15 518.56,-192.97"/>
<polygon fill="black" stroke="black" points="521.12,-190.56 511.32,-186.54 516.47,-195.8 521.12,-190.56"/>
</g>
<!-- StorageTypes -->
<g id="node25" class="node">
<title>StorageTypes</title>
<g id="a_node25"><a xlink:href="../storage_types.html" xlink:title="StorageTypes" target="_top">
<polygon fill="none" stroke="white" points="296.32,-461.88 208,-461.88 208,-442.56 296.32,-442.56 296.32,-461.88"/>
<text xml:space="preserve" text-anchor="middle" x="252.16" y="-446.42" font-family="Sans-Serif" font-size="14.00">StorageTypes</text>
</a>
</g>
</g>
<!-- StorageTypes&#45;&gt;Registry -->
<g id="edge31" class="edge">
<title>StorageTypes&#45;&gt;Registry</title>
<path fill="none" stroke="black" d="M252.16,-442.42C252.16,-435.82 252.16,-426.52 252.16,-418.13"/>
<polygon fill="black" stroke="black" points="255.66,-418.41 252.16,-408.41 248.66,-418.41 255.66,-418.41"/>
</g>
</g>
</svg>
