<?xml version="1.0" encoding="UTF-8" standalone="no"?>
<!DOCTYPE svg PUBLIC "-//W3C//DTD SVG 1.1//EN"
 "http://www.w3.org/Graphics/SVG/1.1/DTD/svg11.dtd">
<!-- Generated by graphviz version 14.1.4 (20260321.0153)
 -->
<!-- Pages: 1 -->
<svg width="671pt" height="470pt"
 viewBox="0.00 0.00 671.00 470.00" xmlns="http://www.w3.org/2000/svg" xmlns:xlink="http://www.w3.org/1999/xlink">
<g id="graph0" class="graph" transform="scale(1 1) rotate(0) translate(4 465.88)">
<polygon fill="white" stroke="none" points="-4,4 -4,-465.88 666.69,-465.88 666.69,4 -4,4"/>
<!-- Copies -->
<g id="node1" class="node">
<title>Copies</title>
<g id="a_node1"><a xlink:href="../copies.html" xlink:title="Copies" target="_top">
<polygon fill="none" stroke="white" points="254.32,-185.28 208,-185.28 208,-165.96 254.32,-165.96 254.32,-185.28"/>
<text xml:space="preserve" text-anchor="middle" x="231.16" y="-169.82" font-family="Sans-Serif" font-size="14.00">Copies</text>
</a>
</g>
</g>
<!-- Adapters -->
<g id="node3" class="node">
<title>Adapters</title>
<g id="a_node3"><a xlink:href="../adapters.html" xlink:title="Adapters" target="_top">
<polygon fill="none" stroke="white" points="276.32,-19.32 218,-19.32 218,0 276.32,0 276.32,-19.32"/>
<text xml:space="preserve" text-anchor="middle" x="247.16" y="-3.86" font-family="Sans-Serif" font-size="14.00">Adapters</text>
</a>
</g>
</g>
<!-- Copies&#45;&gt;Adapters -->
<g id="edge3" class="edge">
<title>Copies&#45;&gt;Adapters</title>
<path fill="none" stroke="black" d="M240.44,-165.48C256.37,-149.06 288.34,-112.71 300.16,-74.64 302.71,-66.44 303.78,-63.11 300.16,-55.32 294.62,-43.41 284.18,-33.54 274.01,-26.14"/>
<polygon fill="black" stroke="black" points="276.04,-23.28 265.78,-20.64 272.16,-29.11 276.04,-23.28"/>
</g>
<!-- Concat -->
<g id="node27" class="node">
<title>Concat</title>
<g id="a_node27"><a xlink:href="../concat.html" xlink:title="Concat" target="_top">
<polygon fill="none" stroke="white" points="252.69,-129.96 205.62,-129.96 205.62,-110.64 252.69,-110.64 252.69,-129.96"/>
<text xml:space="preserve" text-anchor="middle" x="229.16" y="-114.5" font-family="Sans-Serif" font-size="14.00">Concat</text>
</a>
</g>
</g>
<!-- Copies&#45;&gt;Concat -->
<g id="edge43" class="edge">
<title>Copies&#45;&gt;Concat</title>
<path fill="none" stroke="black" d="M230.83,-165.82C230.58,-159.22 230.23,-149.92 229.92,-141.53"/>
<polygon fill="black" stroke="black" points="233.43,-141.67 229.55,-131.81 226.43,-141.93 233.43,-141.67"/>
</g>
<!-- Writers -->
<g id="node2" class="node">
<title>Writers</title>
<g id="a_node2"><a xlink:href="../writers.html" xlink:title="Writers" target="_top">
<polygon fill="none" stroke="white" points="274.69,-240.6 227.62,-240.6 227.62,-221.28 274.69,-221.28 274.69,-240.6"/>
<text xml:space="preserve" text-anchor="middle" x="251.16" y="-225.14" font-family="Sans-Serif" font-size="14.00">Writers</text>
</a>
</g>
</g>
<!-- Writers&#45;&gt;Copies -->
<g id="edge1" class="edge">
<title>Writers&#45;&gt;Copies</title>
<path fill="none" stroke="black" d="M247.86,-221.14C245.33,-214.38 241.73,-204.81 238.53,-196.26"/>
<polygon fill="black" stroke="black" points="241.86,-195.17 235.07,-187.03 235.3,-197.63 241.86,-195.17"/>
</g>
<!-- MemoryFormat -->
<g id="node5" class="node">
<title>MemoryFormat</title>
<g id="a_node5"><a xlink:href="../memory_format.html" xlink:title="MemoryFormat" target="_top">
<polygon fill="none" stroke="white" points="558.19,-185.28 460.12,-185.28 460.12,-165.96 558.19,-165.96 558.19,-185.28"/>
<text xml:space="preserve" text-anchor="middle" x="509.16" y="-169.82" font-family="Sans-Serif" font-size="14.00">MemoryFormat</text>
</a>
</g>
</g>
<!-- Writers&#45;&gt;MemoryFormat -->
<g id="edge27" class="edge">
<title>Writers&#45;&gt;MemoryFormat</title>
<path fill="none" stroke="black" d="M274.88,-223.32C277.66,-222.61 280.47,-221.91 283.16,-221.28 338.99,-208.23 403.16,-195.79 448.82,-187.37"/>
<polygon fill="black" stroke="black" points="449.32,-190.84 458.53,-185.59 448.06,-183.95 449.32,-190.84"/>
</g>
<!-- Chains -->
<g id="node6" class="node">
<title>Chains</title>
<g id="a_node6"><a xlink:href="../chains.html" xlink:title="Chains" target="_top">
<polygon fill="none" stroke="white" points="187.32,-129.96 141,-129.96 141,-110.64 187.32,-110.64 187.32,-129.96"/>
<text xml:space="preserve" text-anchor="middle" x="164.16" y="-114.5" font-family="Sans-Serif" font-size="14.00">Chains</text>
</a>
</g>
</g>
<!-- Writers&#45;&gt;Chains -->
<g id="edge36" class="edge">
<title>Writers&#45;&gt;Chains</title>
<path fill="none" stroke="black" d="M238.47,-221.1C227.17,-212.79 210.7,-199.52 199.16,-185.28 188.06,-171.58 178.69,-153.86 172.44,-140.54"/>
<polygon fill="black" stroke="black" points="175.7,-139.26 168.41,-131.57 169.31,-142.12 175.7,-139.26"/>
</g>
<!-- FilesFormat -->
<g id="node15" class="node">
<title>FilesFormat</title>
<g id="a_node15"><a xlink:href="../files_format.html" xlink:title="FilesFormat" target="_top">
<polygon fill="none" stroke="white" points="348.32,-185.28 272,-185.28 272,-165.96 348.32,-165.96 348.32,-185.28"/>
<text xml:space="preserve" text-anchor="middle" x="310.16" y="-169.82" font-family="Sans-Serif" font-size="14.00">FilesFormat</text>
</a>
</g>
</g>
<!-- Writers&#45;&gt;FilesFormat -->
<g id="edge39" class="edge">
<title>Writers&#45;&gt;FilesFormat</title>
<path fill="none" stroke="black" d="M261.17,-220.89C269.53,-213.34 281.66,-202.38 291.76,-193.25"/>
<polygon fill="black" stroke="black" points="294.1,-195.85 299.18,-186.55 289.41,-190.65 294.1,-195.85"/>
</g>
<!-- H5dfFormat -->
<g id="node16" class="node">
<title>H5dfFormat</title>
<g id="a_node16"><a xlink:href="../h5df_format.html" xlink:title="H5dfFormat" target="_top">
<polygon fill="none" stroke="white" points="442.32,-185.28 366,-185.28 366,-165.96 442.32,-165.96 442.32,-185.28"/>
<text xml:space="preserve" text-anchor="middle" x="404.16" y="-169.82" font-family="Sans-Serif" font-size="14.00">H5dfFormat</text>
</a>
</g>
</g>
<!-- Writers&#45;&gt;H5dfFormat -->
<g id="edge30" class="edge">
<title>Writers&#45;&gt;H5dfFormat</title>
<path fill="none" stroke="black" d="M275.07,-221.61C299.77,-213 338.67,-199.44 367.31,-189.46"/>
<polygon fill="black" stroke="black" points="368.4,-192.79 376.69,-186.19 366.09,-186.18 368.4,-192.79"/>
</g>
<!-- ZarrFormat -->
<g id="node23" class="node">
<title>ZarrFormat</title>
<g id="a_node23"><a xlink:href="../zarr_format.html" xlink:title="ZarrFormat" target="_top">
<polygon fill="none" stroke="white" points="648.44,-185.28 575.88,-185.28 575.88,-165.96 648.44,-165.96 648.44,-185.28"/>
<text xml:space="preserve" text-anchor="middle" x="612.16" y="-169.82" font-family="Sans-Serif" font-size="14.00">ZarrFormat</text>
</a>
</g>
</g>
<!-- Writers&#45;&gt;ZarrFormat -->
<g id="edge23" class="edge">
<title>Writers&#45;&gt;ZarrFormat</title>
<path fill="none" stroke="black" d="M275.19,-223.05C277.87,-222.4 280.56,-221.79 283.16,-221.28 404.44,-197.3 439.54,-204.85 564.67,-185.57"/>
<polygon fill="black" stroke="black" points="565.01,-189.06 574.35,-184.05 563.93,-182.14 565.01,-189.06"/>
</g>
<!-- Reconstruction -->
<g id="node28" class="node">
<title>Reconstruction</title>
<g id="a_node28"><a xlink:href="../reconstruction.html" xlink:title="Reconstruction" target="_top">
<polygon fill="none" stroke="white" points="94.32,-185.28 0,-185.28 0,-165.96 94.32,-165.96 94.32,-185.28"/>
<text xml:space="preserve" text-anchor="middle" x="47.16" y="-169.82" font-family="Sans-Serif" font-size="14.00">Reconstruction</text>
</a>
</g>
</g>
<!-- Writers&#45;&gt;Reconstruction -->
<g id="edge45" class="edge">
<title>Writers&#45;&gt;Reconstruction</title>
<path fill="none" stroke="black" d="M227.36,-223.72C194.53,-215.14 134.69,-199.5 93.01,-188.6"/>
<polygon fill="black" stroke="black" points="94.07,-185.26 83.51,-186.12 92.3,-192.03 94.07,-185.26"/>
</g>
<!-- Computations -->
<g id="node4" class="node">
<title>Computations</title>
<g id="a_node4"><a xlink:href="../computations.html" xlink:title="Computations" target="_top">
<polygon fill="none" stroke="white" points="140.32,-74.64 52,-74.64 52,-55.32 140.32,-55.32 140.32,-74.64"/>
<text xml:space="preserve" text-anchor="middle" x="96.16" y="-59.18" font-family="Sans-Serif" font-size="14.00">Computations</text>
</a>
</g>
</g>
<!-- Computations&#45;&gt;Adapters -->
<g id="edge2" class="edge">
<title>Computations&#45;&gt;Adapters</title>
<path fill="none" stroke="black" d="M121.78,-54.93C146.18,-46.32 183.17,-33.26 210.66,-23.55"/>
<polygon fill="black" stroke="black" points="211.73,-26.88 219.99,-20.25 209.4,-20.28 211.73,-26.88"/>
</g>
<!-- MemoryFormat&#45;&gt;Adapters -->
<g id="edge4" class="edge">
<title>MemoryFormat&#45;&gt;Adapters</title>
<path fill="none" stroke="black" d="M529.24,-165.6C552.14,-154 584.66,-132.7 570.16,-110.64 538.66,-62.72 367.08,-29.7 287.61,-16.76"/>
<polygon fill="black" stroke="black" points="288.5,-13.36 278.07,-15.24 287.39,-20.27 288.5,-13.36"/>
</g>
<!-- ExampleData -->
<g id="node21" class="node">
<title>ExampleData</title>
<g id="a_node21"><a xlink:href="../example_data.html" xlink:title="ExampleData" target="_top">
<polygon fill="none" stroke="white" points="433.19,-74.64 347.12,-74.64 347.12,-55.32 433.19,-55.32 433.19,-74.64"/>
<text xml:space="preserve" text-anchor="middle" x="390.16" y="-59.18" font-family="Sans-Serif" font-size="14.00">ExampleData</text>
</a>
</g>
</g>
<!-- MemoryFormat&#45;&gt;ExampleData -->
<g id="edge21" class="edge">
<title>MemoryFormat&#45;&gt;ExampleData</title>
<path fill="none" stroke="black" d="M496.54,-165.51C484.71,-156.79 466.74,-143.08 452.16,-129.96 435.53,-114.99 417.91,-96.52 405.71,-83.27"/>
<polygon fill="black" stroke="black" points="408.56,-81.2 399.24,-76.17 403.39,-85.92 408.56,-81.2"/>
</g>
<!-- AnnDataFormat -->
<g id="node26" class="node">
<title>AnnDataFormat</title>
<g id="a_node26"><a xlink:href="../anndata_format.html" xlink:title="AnnDataFormat" target="_top">
<polygon fill="none" stroke="white" points="561.32,-129.96 461,-129.96 461,-110.64 561.32,-110.64 561.32,-129.96"/>
<text xml:space="preserve" text-anchor="middle" x="511.16" y="-114.5" font-family="Sans-Serif" font-size="14.00">AnnDataFormat</text>
</a>
</g>
</g>
<!-- MemoryFormat&#45;&gt;AnnDataFormat -->
<g id="edge37" class="edge">
<title>MemoryFormat&#45;&gt;AnnDataFormat</title>
<path fill="none" stroke="black" d="M509.49,-165.82C509.74,-159.22 510.09,-149.92 510.4,-141.53"/>
<polygon fill="black" stroke="black" points="513.89,-141.93 510.77,-131.81 506.89,-141.67 513.89,-141.93"/>
</g>
<!-- Chains&#45;&gt;Adapters -->
<g id="edge5" class="edge">
<title>Chains&#45;&gt;Adapters</title>
<path fill="none" stroke="black" d="M167.7,-110.46C173.11,-97.57 184.28,-73.21 198.16,-55.32 206.31,-44.82 217.08,-34.7 226.45,-26.76"/>
<polygon fill="black" stroke="black" points="228.5,-29.61 234.03,-20.57 224.07,-24.19 228.5,-29.61"/>
</g>
<!-- CompleteDaf -->
<g id="node14" class="node">
<title>CompleteDaf</title>
<g id="a_node14"><a xlink:href="../complete.html" xlink:title="CompleteDaf" target="_top">
<polygon fill="none" stroke="white" points="291.07,-74.64 207.25,-74.64 207.25,-55.32 291.07,-55.32 291.07,-74.64"/>
<text xml:space="preserve" text-anchor="middle" x="249.16" y="-59.18" font-family="Sans-Serif" font-size="14.00">CompleteDaf</text>
</a>
</g>
</g>
<!-- Chains&#45;&gt;CompleteDaf -->
<g id="edge14" class="edge">
<title>Chains&#45;&gt;CompleteDaf</title>
<path fill="none" stroke="black" d="M178.58,-110.25C191.28,-102.29 210.03,-90.52 225.02,-81.12"/>
<polygon fill="black" stroke="black" points="226.78,-84.15 233.39,-75.87 223.06,-78.22 226.78,-84.15"/>
</g>
<!-- Chains&#45;&gt;ExampleData -->
<g id="edge22" class="edge">
<title>Chains&#45;&gt;ExampleData</title>
<path fill="none" stroke="black" d="M187.55,-112.86C190.45,-112.09 193.37,-111.34 196.16,-110.64 243.76,-98.72 298.24,-86.29 337.32,-77.57"/>
<polygon fill="black" stroke="black" points="337.94,-81.02 346.95,-75.44 336.42,-74.19 337.94,-81.02"/>
</g>
<!-- Views -->
<g id="node7" class="node">
<title>Views</title>
<g id="a_node7"><a xlink:href="../views.html" xlink:title="Views" target="_top">
<polygon fill="none" stroke="white" points="152.32,-185.28 112,-185.28 112,-165.96 152.32,-165.96 152.32,-185.28"/>
<text xml:space="preserve" text-anchor="middle" x="132.16" y="-169.82" font-family="Sans-Serif" font-size="14.00">Views</text>
</a>
</g>
</g>
<!-- Views&#45;&gt;Chains -->
<g id="edge35" class="edge">
<title>Views&#45;&gt;Chains</title>
<path fill="none" stroke="black" d="M137.44,-165.82C141.63,-158.83 147.64,-148.83 152.89,-140.07"/>
<polygon fill="black" stroke="black" points="155.84,-141.97 157.98,-131.59 149.84,-138.37 155.84,-141.97"/>
</g>
<!-- Contracts -->
<g id="node17" class="node">
<title>Contracts</title>
<g id="a_node17"><a xlink:href="../contracts.html" xlink:title="Contracts" target="_top">
<polygon fill="none" stroke="white" points="123.19,-129.96 61.12,-129.96 61.12,-110.64 123.19,-110.64 123.19,-129.96"/>
<text xml:space="preserve" text-anchor="middle" x="92.16" y="-114.5" font-family="Sans-Serif" font-size="14.00">Contracts</text>
</a>
</g>
</g>
<!-- Views&#45;&gt;Contracts -->
<g id="edge15" class="edge">
<title>Views&#45;&gt;Contracts</title>
<path fill="none" stroke="black" d="M125.55,-165.82C120.2,-158.68 112.48,-148.39 105.81,-139.5"/>
<polygon fill="black" stroke="black" points="108.62,-137.41 99.82,-131.51 103.02,-141.61 108.62,-137.41"/>
</g>
<!-- Views&#45;&gt;Concat -->
<g id="edge42" class="edge">
<title>Views&#45;&gt;Concat</title>
<path fill="none" stroke="black" d="M148.61,-165.57C163.39,-157.46 185.34,-145.39 202.59,-135.9"/>
<polygon fill="black" stroke="black" points="204.22,-139 211.3,-131.12 200.85,-132.87 204.22,-139"/>
</g>
<!-- ReadOnly -->
<g id="node8" class="node">
<title>ReadOnly</title>
<g id="a_node8"><a xlink:href="../read_only.html" xlink:title="ReadOnly" target="_top">
<polygon fill="none" stroke="white" points="424.69,-240.6 359.62,-240.6 359.62,-221.28 424.69,-221.28 424.69,-240.6"/>
<text xml:space="preserve" text-anchor="middle" x="392.16" y="-225.14" font-family="Sans-Serif" font-size="14.00">ReadOnly</text>
</a>
</g>
</g>
<!-- ReadOnly&#45;&gt;Views -->
<g id="edge6" class="edge">
<title>ReadOnly&#45;&gt;Views</title>
<path fill="none" stroke="black" d="M359.49,-223.02C356.67,-222.43 353.87,-221.84 351.16,-221.28 284.48,-207.44 206.3,-191.59 163.73,-182.99"/>
<polygon fill="black" stroke="black" points="164.68,-179.61 154.18,-181.06 163.29,-186.47 164.68,-179.61"/>
</g>
<!-- ReadOnly&#45;&gt;FilesFormat -->
<g id="edge40" class="edge">
<title>ReadOnly&#45;&gt;FilesFormat</title>
<path fill="none" stroke="black" d="M378.25,-220.89C366,-212.93 347.91,-201.16 333.45,-191.76"/>
<polygon fill="black" stroke="black" points="335.7,-189.05 325.41,-186.53 331.88,-194.92 335.7,-189.05"/>
</g>
<!-- ReadOnly&#45;&gt;H5dfFormat -->
<g id="edge32" class="edge">
<title>ReadOnly&#45;&gt;H5dfFormat</title>
<path fill="none" stroke="black" d="M394.14,-221.14C395.63,-214.54 397.72,-205.24 399.61,-196.85"/>
<polygon fill="black" stroke="black" points="403.02,-197.62 401.8,-187.09 396.19,-196.08 403.02,-197.62"/>
</g>
<!-- ReadOnly&#45;&gt;ZarrFormat -->
<g id="edge25" class="edge">
<title>ReadOnly&#45;&gt;ZarrFormat</title>
<path fill="none" stroke="black" d="M425.1,-221.96C462.1,-212.99 522.48,-198.35 564.6,-188.15"/>
<polygon fill="black" stroke="black" points="565.33,-191.57 574.22,-185.81 563.68,-184.77 565.33,-191.57"/>
</g>
<!-- Queries -->
<g id="node9" class="node">
<title>Queries</title>
<g id="a_node9"><a xlink:href="../queries.html" xlink:title="Queries" target="_top">
<polygon fill="none" stroke="white" points="165.32,-240.6 113,-240.6 113,-221.28 165.32,-221.28 165.32,-240.6"/>
<text xml:space="preserve" text-anchor="middle" x="139.16" y="-225.14" font-family="Sans-Serif" font-size="14.00">Queries</text>
</a>
</g>
</g>
<!-- Queries&#45;&gt;Views -->
<g id="edge7" class="edge">
<title>Queries&#45;&gt;Views</title>
<path fill="none" stroke="black" d="M138,-221.14C137.14,-214.54 135.92,-205.24 134.82,-196.85"/>
<polygon fill="black" stroke="black" points="138.31,-196.58 133.54,-187.12 131.37,-197.49 138.31,-196.58"/>
</g>
<!-- Queries&#45;&gt;Reconstruction -->
<g id="edge46" class="edge">
<title>Queries&#45;&gt;Reconstruction</title>
<path fill="none" stroke="black" d="M123.55,-220.89C109.54,-212.78 88.73,-200.71 72.36,-191.22"/>
<polygon fill="black" stroke="black" points="74.56,-188.45 64.15,-186.47 71.05,-194.51 74.56,-188.45"/>
</g>
<!-- Operations -->
<g id="node10" class="node">
<title>Operations</title>
<g id="a_node10"><a xlink:href="../operations.html" xlink:title="Operations" target="_top">
<polygon fill="none" stroke="white" points="234.69,-295.92 163.62,-295.92 163.62,-276.6 234.69,-276.6 234.69,-295.92"/>
<text xml:space="preserve" text-anchor="middle" x="199.16" y="-280.46" font-family="Sans-Serif" font-size="14.00">Operations</text>
</a>
</g>
</g>
<!-- Operations&#45;&gt;Queries -->
<g id="edge10" class="edge">
<title>Operations&#45;&gt;Queries</title>
<path fill="none" stroke="black" d="M188.98,-276.21C180.4,-268.59 167.89,-257.47 157.56,-248.29"/>
<polygon fill="black" stroke="black" points="160.12,-245.88 150.32,-241.86 155.47,-251.12 160.12,-245.88"/>
</g>
<!-- Operations&#45;&gt;FilesFormat -->
<g id="edge38" class="edge">
<title>Operations&#45;&gt;FilesFormat</title>
<path fill="none" stroke="black" d="M199.58,-276.34C200.67,-262.91 204.51,-237.36 218.16,-221.28 230.53,-206.71 248.76,-196.49 265.75,-189.55"/>
<polygon fill="black" stroke="black" points="266.56,-192.98 274.68,-186.17 264.09,-186.43 266.56,-192.98"/>
</g>
<!-- Tokens -->
<g id="node11" class="node">
<title>Tokens</title>
<g id="a_node11"><a xlink:href="../tokens.html" xlink:title="Tokens" target="_top">
<polygon fill="none" stroke="white" points="222.69,-406.56 175.62,-406.56 175.62,-387.24 222.69,-387.24 222.69,-406.56"/>
<text xml:space="preserve" text-anchor="middle" x="199.16" y="-391.1" font-family="Sans-Serif" font-size="14.00">Tokens</text>
</a>
</g>
</g>
<!-- Tokens&#45;&gt;Operations -->
<g id="edge8" class="edge">
<title>Tokens&#45;&gt;Operations</title>
<path fill="none" stroke="black" d="M199.16,-387.01C199.16,-369.74 199.16,-331.27 199.16,-307.48"/>
<polygon fill="black" stroke="black" points="202.66,-307.79 199.16,-297.79 195.66,-307.79 202.66,-307.79"/>
</g>
<!-- Formats -->
<g id="node19" class="node">
<title>Formats</title>
<g id="a_node19"><a xlink:href="../formats.html" xlink:title="Formats" target="_top">
<polygon fill="none" stroke="white" points="337.44,-351.24 282.87,-351.24 282.87,-331.92 337.44,-331.92 337.44,-351.24"/>
<text xml:space="preserve" text-anchor="middle" x="310.16" y="-335.78" font-family="Sans-Serif" font-size="14.00">Formats</text>
</a>
</g>
</g>
<!-- Tokens&#45;&gt;Formats -->
<g id="edge17" class="edge">
<title>Tokens&#45;&gt;Formats</title>
<path fill="none" stroke="black" d="M217.99,-386.85C235.21,-378.58 260.96,-366.21 280.87,-356.65"/>
<polygon fill="black" stroke="black" points="282.38,-359.81 289.87,-352.32 279.34,-353.5 282.38,-359.81"/>
</g>
<!-- Registry -->
<g id="node12" class="node">
<title>Registry</title>
<g id="a_node12"><a xlink:href="../registry.html" xlink:title="Registry" target="_top">
<polygon fill="none" stroke="white" points="294.07,-406.56 240.25,-406.56 240.25,-387.24 294.07,-387.24 294.07,-406.56"/>
<text xml:space="preserve" text-anchor="middle" x="267.16" y="-391.1" font-family="Sans-Serif" font-size="14.00">Registry</text>
</a>
</g>
</g>
<!-- Registry&#45;&gt;Operations -->
<g id="edge9" class="edge">
<title>Registry&#45;&gt;Operations</title>
<path fill="none" stroke="black" d="M261.6,-387.01C250.54,-369.34 225.59,-329.49 210.8,-305.85"/>
<polygon fill="black" stroke="black" points="213.88,-304.18 205.6,-297.56 207.94,-307.89 213.88,-304.18"/>
</g>
<!-- Registry&#45;&gt;Formats -->
<g id="edge19" class="edge">
<title>Registry&#45;&gt;Formats</title>
<path fill="none" stroke="black" d="M274.26,-387.1C280.08,-379.88 288.49,-369.45 295.72,-360.49"/>
<polygon fill="black" stroke="black" points="298.4,-362.74 301.96,-352.75 292.95,-358.34 298.4,-362.74"/>
</g>
<!-- Readers -->
<g id="node13" class="node">
<title>Readers</title>
<g id="a_node13"><a xlink:href="../readers.html" xlink:title="Readers" target="_top">
<polygon fill="none" stroke="white" points="340.82,-295.92 285.5,-295.92 285.5,-276.6 340.82,-276.6 340.82,-295.92"/>
<text xml:space="preserve" text-anchor="middle" x="313.16" y="-280.46" font-family="Sans-Serif" font-size="14.00">Readers</text>
</a>
</g>
</g>
<!-- Readers&#45;&gt;Writers -->
<g id="edge34" class="edge">
<title>Readers&#45;&gt;Writers</title>
<path fill="none" stroke="black" d="M302.64,-276.21C293.77,-268.59 280.85,-257.47 270.17,-248.29"/>
<polygon fill="black" stroke="black" points="272.53,-245.71 262.67,-241.84 267.97,-251.01 272.53,-245.71"/>
</g>
<!-- Readers&#45;&gt;ReadOnly -->
<g id="edge47" class="edge">
<title>Readers&#45;&gt;ReadOnly</title>
<path fill="none" stroke="black" d="M326.56,-276.21C338.25,-268.33 355.46,-256.71 369.32,-247.36"/>
<polygon fill="black" stroke="black" points="371.11,-250.37 377.44,-241.88 367.19,-244.57 371.11,-250.37"/>
</g>
<!-- Readers&#45;&gt;Queries -->
<g id="edge11" class="edge">
<title>Readers&#45;&gt;Queries</title>
<path fill="none" stroke="black" d="M285.2,-276.69C255.73,-267.66 209.13,-253.38 176.52,-243.39"/>
<polygon fill="black" stroke="black" points="177.65,-240.08 167.07,-240.49 175.6,-246.77 177.65,-240.08"/>
</g>
<!-- Reorder -->
<g id="node18" class="node">
<title>Reorder</title>
<g id="a_node18"><a xlink:href="../reorder.html" xlink:title="Reorder" target="_top">
<polygon fill="none" stroke="white" points="495.69,-240.6 442.62,-240.6 442.62,-221.28 495.69,-221.28 495.69,-240.6"/>
<text xml:space="preserve" text-anchor="middle" x="469.16" y="-225.14" font-family="Sans-Serif" font-size="14.00">Reorder</text>
</a>
</g>
</g>
<!-- Readers&#45;&gt;Reorder -->
<g id="edge16" class="edge">
<title>Readers&#45;&gt;Reorder</title>
<path fill="none" stroke="black" d="M339.62,-276.21C364.95,-267.56 403.39,-254.42 431.83,-244.7"/>
<polygon fill="black" stroke="black" points="432.8,-248.07 441.13,-241.52 430.54,-241.44 432.8,-248.07"/>
</g>
<!-- Groups -->
<g id="node25" class="node">
<title>Groups</title>
<g id="a_node25"><a xlink:href="../groups.html" xlink:title="Groups" target="_top">
<polygon fill="none" stroke="white" points="341.82,-240.6 292.5,-240.6 292.5,-221.28 341.82,-221.28 341.82,-240.6"/>
<text xml:space="preserve" text-anchor="middle" x="317.16" y="-225.14" font-family="Sans-Serif" font-size="14.00">Groups</text>
</a>
</g>
</g>
<!-- Readers&#45;&gt;Groups -->
<g id="edge33" class="edge">
<title>Readers&#45;&gt;Groups</title>
<path fill="none" stroke="black" d="M313.82,-276.46C314.32,-269.86 315.01,-260.56 315.64,-252.17"/>
<polygon fill="black" stroke="black" points="319.11,-252.68 316.37,-242.45 312.13,-252.16 319.11,-252.68"/>
</g>
<!-- FilesFormat&#45;&gt;CompleteDaf -->
<g id="edge12" class="edge">
<title>FilesFormat&#45;&gt;CompleteDaf</title>
<path fill="none" stroke="black" d="M305.17,-165.73C295.29,-148.14 273.07,-108.57 259.78,-84.89"/>
<polygon fill="black" stroke="black" points="262.91,-83.32 254.96,-76.31 256.81,-86.75 262.91,-83.32"/>
</g>
<!-- FilesFormat&#45;&gt;ExampleData -->
<g id="edge20" class="edge">
<title>FilesFormat&#45;&gt;ExampleData</title>
<path fill="none" stroke="black" d="M316.71,-165.73C329.77,-147.98 359.33,-107.85 376.7,-84.26"/>
<polygon fill="black" stroke="black" points="379.51,-86.34 382.63,-76.21 373.88,-82.19 379.51,-86.34"/>
</g>
<!-- H5dfFormat&#45;&gt;CompleteDaf -->
<g id="edge13" class="edge">
<title>H5dfFormat&#45;&gt;CompleteDaf</title>
<path fill="none" stroke="black" d="M391.21,-165.54C364.7,-146.97 304,-104.42 271.18,-81.42"/>
<polygon fill="black" stroke="black" points="273.4,-78.7 263.2,-75.82 269.38,-84.43 273.4,-78.7"/>
</g>
<!-- Contracts&#45;&gt;Computations -->
<g id="edge44" class="edge">
<title>Contracts&#45;&gt;Computations</title>
<path fill="none" stroke="black" d="M92.82,-110.5C93.32,-103.9 94.01,-94.6 94.64,-86.21"/>
<polygon fill="black" stroke="black" points="98.11,-86.72 95.37,-76.49 91.13,-86.2 98.11,-86.72"/>
</g>
<!-- Reorder&#45;&gt;MemoryFormat -->
<g id="edge28" class="edge">
<title>Reorder&#45;&gt;MemoryFormat</title>
<path fill="none" stroke="black" d="M475.77,-221.14C481.12,-214 488.84,-203.71 495.51,-194.82"/>
<polygon fill="black" stroke="black" points="498.3,-196.93 501.5,-186.83 492.7,-192.73 498.3,-196.93"/>
</g>
<!-- Reorder&#45;&gt;FilesFormat -->
<g id="edge41" class="edge">
<title>Reorder&#45;&gt;FilesFormat</title>
<path fill="none" stroke="black" d="M442.19,-220.89C416.26,-212.2 376.85,-198.98 347.83,-189.25"/>
<polygon fill="black" stroke="black" points="349.29,-186.05 338.7,-186.19 347.07,-192.69 349.29,-186.05"/>
</g>
<!-- Reorder&#45;&gt;H5dfFormat -->
<g id="edge31" class="edge">
<title>Reorder&#45;&gt;H5dfFormat</title>
<path fill="none" stroke="black" d="M458.13,-220.89C448.74,-213.19 435.01,-201.93 423.75,-192.69"/>
<polygon fill="black" stroke="black" points="426.15,-190.13 416.19,-186.49 421.71,-195.54 426.15,-190.13"/>
</g>
<!-- Reorder&#45;&gt;ZarrFormat -->
<g id="edge26" class="edge">
<title>Reorder&#45;&gt;ZarrFormat</title>
<path fill="none" stroke="black" d="M493.42,-220.89C516.43,-212.32 551.25,-199.33 577.24,-189.64"/>
<polygon fill="black" stroke="black" points="578.22,-193.01 586.36,-186.24 575.77,-186.45 578.22,-193.01"/>
</g>
<!-- Formats&#45;&gt;Readers -->
<g id="edge48" class="edge">
<title>Formats&#45;&gt;Readers</title>
<path fill="none" stroke="black" d="M310.66,-331.78C311.03,-325.18 311.55,-315.88 312.02,-307.49"/>
<polygon fill="black" stroke="black" points="315.5,-307.95 312.57,-297.77 308.51,-307.55 315.5,-307.95"/>
</g>
<!-- Keys -->
<g id="node20" class="node">
<title>Keys</title>
<g id="a_node20"><a xlink:href="../keys.html" xlink:title="Keys" target="_top">
<polygon fill="none" stroke="white" points="346.32,-406.56 312,-406.56 312,-387.24 346.32,-387.24 346.32,-406.56"/>
<text xml:space="preserve" text-anchor="middle" x="329.16" y="-391.1" font-family="Sans-Serif" font-size="14.00">Keys</text>
</a>
</g>
</g>
<!-- Keys&#45;&gt;Formats -->
<g id="edge18" class="edge">
<title>Keys&#45;&gt;Formats</title>
<path fill="none" stroke="black" d="M326.02,-387.1C323.62,-380.34 320.2,-370.77 317.16,-362.22"/>
<polygon fill="black" stroke="black" points="320.53,-361.25 313.87,-353 313.93,-363.6 320.53,-361.25"/>
</g>
<!-- MmapZipStores -->
<g id="node22" class="node">
<title>MmapZipStores</title>
<g id="a_node22"><a xlink:href="../mmap_zip_store.html" xlink:title="MmapZipStores" target="_top">
<polygon fill="none" stroke="white" points="662.69,-240.6 561.62,-240.6 561.62,-221.28 662.69,-221.28 662.69,-240.6"/>
<text xml:space="preserve" text-anchor="middle" x="612.16" y="-225.14" font-family="Sans-Serif" font-size="14.00">MmapZipStores</text>
</a>
</g>
</g>
<!-- MmapZipStores&#45;&gt;ZarrFormat -->
<g id="edge24" class="edge">
<title>MmapZipStores&#45;&gt;ZarrFormat</title>
<path fill="none" stroke="black" d="M612.16,-221.14C612.16,-214.54 612.16,-205.24 612.16,-196.85"/>
<polygon fill="black" stroke="black" points="615.66,-197.13 612.16,-187.13 608.66,-197.13 615.66,-197.13"/>
</g>
<!-- StorageTypes -->
<g id="node24" class="node">
<title>StorageTypes</title>
<g id="a_node24"><a xlink:href="../storage_types.html" xlink:title="StorageTypes" target="_top">
<polygon fill="none" stroke="white" points="311.32,-461.88 223,-461.88 223,-442.56 311.32,-442.56 311.32,-461.88"/>
<text xml:space="preserve" text-anchor="middle" x="267.16" y="-446.42" font-family="Sans-Serif" font-size="14.00">StorageTypes</text>
</a>
</g>
</g>
<!-- StorageTypes&#45;&gt;Registry -->
<g id="edge29" class="edge">
<title>StorageTypes&#45;&gt;Registry</title>
<path fill="none" stroke="black" d="M267.16,-442.42C267.16,-435.82 267.16,-426.52 267.16,-418.13"/>
<polygon fill="black" stroke="black" points="270.66,-418.41 267.16,-408.41 263.66,-418.41 270.66,-418.41"/>
</g>
</g>
</svg>
