<?xml version="1.0" encoding="UTF-8" standalone="no"?>
<!DOCTYPE svg PUBLIC "-//W3C//DTD SVG 1.1//EN"
 "http://www.w3.org/Graphics/SVG/1.1/DTD/svg11.dtd">
<!-- Generated by graphviz version 14.1.4 (20260321.0153)
 -->
<!-- Pages: 1 -->
<svg width="656pt" height="470pt"
 viewBox="0.00 0.00 656.00 470.00" xmlns="http://www.w3.org/2000/svg" xmlns:xlink="http://www.w3.org/1999/xlink">
<g id="graph0" class="graph" transform="scale(1 1) rotate(0) translate(4 465.88)">
<polygon fill="white" stroke="none" points="-4,4 -4,-465.88 652.44,-465.88 652.44,4 -4,4"/>
<!-- Copies -->
<g id="node1" class="node">
<title>Copies</title>
<g id="a_node1"><a xlink:href="../copies.html" xlink:title="Copies" target="_top">
<polygon fill="none" stroke="white" points="536.44,-185.28 490.12,-185.28 490.12,-165.96 536.44,-165.96 536.44,-185.28"/>
<text xml:space="preserve" text-anchor="middle" x="513.28" y="-169.82" font-family="Sans-Serif" font-size="14.00">Copies</text>
</a>
</g>
</g>
<!-- Adapters -->
<g id="node3" class="node">
<title>Adapters</title>
<g id="a_node3"><a xlink:href="../adapters.html" xlink:title="Adapters" target="_top">
<polygon fill="none" stroke="white" points="471.44,-19.32 413.12,-19.32 413.12,0 471.44,0 471.44,-19.32"/>
<text xml:space="preserve" text-anchor="middle" x="442.28" y="-3.86" font-family="Sans-Serif" font-size="14.00">Adapters</text>
</a>
</g>
</g>
<!-- Copies&#45;&gt;Adapters -->
<g id="edge4" class="edge">
<title>Copies&#45;&gt;Adapters</title>
<path fill="none" stroke="black" d="M534.39,-165.52C548.51,-158.17 565.97,-146.35 574.28,-129.96 578.17,-122.3 577.07,-118.76 574.28,-110.64 559.43,-67.33 511.97,-39.21 478.22,-24.15"/>
<polygon fill="black" stroke="black" points="479.77,-21 469.2,-20.3 477.03,-27.44 479.77,-21"/>
</g>
<!-- Concat -->
<g id="node26" class="node">
<title>Concat</title>
<g id="a_node26"><a xlink:href="../concat.html" xlink:title="Concat" target="_top">
<polygon fill="none" stroke="white" points="564.82,-129.96 517.75,-129.96 517.75,-110.64 564.82,-110.64 564.82,-129.96"/>
<text xml:space="preserve" text-anchor="middle" x="541.28" y="-114.5" font-family="Sans-Serif" font-size="14.00">Concat</text>
</a>
</g>
</g>
<!-- Copies&#45;&gt;Concat -->
<g id="edge41" class="edge">
<title>Copies&#45;&gt;Concat</title>
<path fill="none" stroke="black" d="M517.91,-165.82C521.53,-158.91 526.71,-149.05 531.28,-140.36"/>
<polygon fill="black" stroke="black" points="534.31,-142.12 535.86,-131.64 528.11,-138.86 534.31,-142.12"/>
</g>
<!-- Writers -->
<g id="node2" class="node">
<title>Writers</title>
<g id="a_node2"><a xlink:href="../writers.html" xlink:title="Writers" target="_top">
<polygon fill="none" stroke="white" points="369.82,-240.6 322.75,-240.6 322.75,-221.28 369.82,-221.28 369.82,-240.6"/>
<text xml:space="preserve" text-anchor="middle" x="346.28" y="-225.14" font-family="Sans-Serif" font-size="14.00">Writers</text>
</a>
</g>
</g>
<!-- Writers&#45;&gt;Copies -->
<g id="edge1" class="edge">
<title>Writers&#45;&gt;Copies</title>
<path fill="none" stroke="black" d="M370.21,-222.3C398.69,-213.21 446.46,-197.96 478.9,-187.6"/>
<polygon fill="black" stroke="black" points="479.77,-191 488.23,-184.62 477.64,-184.33 479.77,-191"/>
</g>
<!-- Chains -->
<g id="node4" class="node">
<title>Chains</title>
<g id="a_node4"><a xlink:href="../chains.html" xlink:title="Chains" target="_top">
<polygon fill="none" stroke="white" points="419.44,-129.96 373.12,-129.96 373.12,-110.64 419.44,-110.64 419.44,-129.96"/>
<text xml:space="preserve" text-anchor="middle" x="396.28" y="-114.5" font-family="Sans-Serif" font-size="14.00">Chains</text>
</a>
</g>
</g>
<!-- Writers&#45;&gt;Chains -->
<g id="edge34" class="edge">
<title>Writers&#45;&gt;Chains</title>
<path fill="none" stroke="black" d="M357.04,-220.81C366.07,-212.5 378.56,-199.41 385.28,-185.28 391.75,-171.69 394.46,-154.88 395.58,-141.9"/>
<polygon fill="black" stroke="black" points="399.07,-142.15 396.16,-131.96 392.08,-141.75 399.07,-142.15"/>
</g>
<!-- MemoryFormat -->
<g id="node5" class="node">
<title>MemoryFormat</title>
<g id="a_node5"><a xlink:href="../memory_format.html" xlink:title="MemoryFormat" target="_top">
<polygon fill="none" stroke="white" points="282.32,-185.28 184.25,-185.28 184.25,-165.96 282.32,-165.96 282.32,-185.28"/>
<text xml:space="preserve" text-anchor="middle" x="233.28" y="-169.82" font-family="Sans-Serif" font-size="14.00">MemoryFormat</text>
</a>
</g>
</g>
<!-- Writers&#45;&gt;MemoryFormat -->
<g id="edge26" class="edge">
<title>Writers&#45;&gt;MemoryFormat</title>
<path fill="none" stroke="black" d="M327.12,-220.89C309.5,-212.58 283.13,-200.14 262.82,-190.56"/>
<polygon fill="black" stroke="black" points="264.45,-187.46 253.92,-186.36 261.47,-193.79 264.45,-187.46"/>
</g>
<!-- H5dfFormat -->
<g id="node15" class="node">
<title>H5dfFormat</title>
<g id="a_node15"><a xlink:href="../h5df_format.html" xlink:title="H5dfFormat" target="_top">
<polygon fill="none" stroke="white" points="166.44,-185.28 90.12,-185.28 90.12,-165.96 166.44,-165.96 166.44,-185.28"/>
<text xml:space="preserve" text-anchor="middle" x="128.28" y="-169.82" font-family="Sans-Serif" font-size="14.00">H5dfFormat</text>
</a>
</g>
</g>
<!-- Writers&#45;&gt;H5dfFormat -->
<g id="edge30" class="edge">
<title>Writers&#45;&gt;H5dfFormat</title>
<path fill="none" stroke="black" d="M322.54,-223.43C319.76,-222.69 316.96,-221.96 314.28,-221.28 268.21,-209.52 215.49,-196.94 177.97,-188.14"/>
<polygon fill="black" stroke="black" points="178.85,-184.75 168.31,-185.88 177.25,-191.57 178.85,-184.75"/>
</g>
<!-- FilesFormat -->
<g id="node16" class="node">
<title>FilesFormat</title>
<g id="a_node16"><a xlink:href="../files_format.html" xlink:title="FilesFormat" target="_top">
<polygon fill="none" stroke="white" points="376.44,-185.28 300.12,-185.28 300.12,-165.96 376.44,-165.96 376.44,-185.28"/>
<text xml:space="preserve" text-anchor="middle" x="338.28" y="-169.82" font-family="Sans-Serif" font-size="14.00">FilesFormat</text>
</a>
</g>
</g>
<!-- Writers&#45;&gt;FilesFormat -->
<g id="edge39" class="edge">
<title>Writers&#45;&gt;FilesFormat</title>
<path fill="none" stroke="black" d="M344.96,-221.14C343.97,-214.54 342.58,-205.24 341.32,-196.85"/>
<polygon fill="black" stroke="black" points="344.8,-196.48 339.86,-187.11 337.88,-197.52 344.8,-196.48"/>
</g>
<!-- ZarrFormat -->
<g id="node22" class="node">
<title>ZarrFormat</title>
<g id="a_node22"><a xlink:href="../zarr_format.html" xlink:title="ZarrFormat" target="_top">
<polygon fill="none" stroke="white" points="72.57,-185.28 0,-185.28 0,-165.96 72.57,-165.96 72.57,-185.28"/>
<text xml:space="preserve" text-anchor="middle" x="36.28" y="-169.82" font-family="Sans-Serif" font-size="14.00">ZarrFormat</text>
</a>
</g>
</g>
<!-- Writers&#45;&gt;ZarrFormat -->
<g id="edge24" class="edge">
<title>Writers&#45;&gt;ZarrFormat</title>
<path fill="none" stroke="black" d="M322.59,-223.21C319.8,-222.51 316.99,-221.85 314.28,-221.28 215.28,-200.3 186.48,-202.97 83.8,-185.65"/>
<polygon fill="black" stroke="black" points="84.55,-182.22 74.11,-183.99 83.37,-189.12 84.55,-182.22"/>
</g>
<!-- Reconstruction -->
<g id="node27" class="node">
<title>Reconstruction</title>
<g id="a_node27"><a xlink:href="../reconstruction.html" xlink:title="Reconstruction" target="_top">
<polygon fill="none" stroke="white" points="648.44,-185.28 554.12,-185.28 554.12,-165.96 648.44,-165.96 648.44,-185.28"/>
<text xml:space="preserve" text-anchor="middle" x="601.28" y="-169.82" font-family="Sans-Serif" font-size="14.00">Reconstruction</text>
</a>
</g>
</g>
<!-- Writers&#45;&gt;Reconstruction -->
<g id="edge44" class="edge">
<title>Writers&#45;&gt;Reconstruction</title>
<path fill="none" stroke="black" d="M370.27,-224.92C410.32,-216.55 491.79,-199.52 546.47,-188.08"/>
<polygon fill="black" stroke="black" points="547.16,-191.51 556.23,-186.04 545.72,-184.66 547.16,-191.51"/>
</g>
<!-- Chains&#45;&gt;Adapters -->
<g id="edge2" class="edge">
<title>Chains&#45;&gt;Adapters</title>
<path fill="none" stroke="black" d="M400.05,-110.41C407.43,-92.98 423.95,-53.96 434,-30.22"/>
<polygon fill="black" stroke="black" points="437.2,-31.64 437.88,-21.07 430.76,-28.91 437.2,-31.64"/>
</g>
<!-- CompleteDaf -->
<g id="node14" class="node">
<title>CompleteDaf</title>
<g id="a_node14"><a xlink:href="../complete.html" xlink:title="CompleteDaf" target="_top">
<polygon fill="none" stroke="white" points="274.19,-74.64 190.37,-74.64 190.37,-55.32 274.19,-55.32 274.19,-74.64"/>
<text xml:space="preserve" text-anchor="middle" x="232.28" y="-59.18" font-family="Sans-Serif" font-size="14.00">CompleteDaf</text>
</a>
</g>
</g>
<!-- Chains&#45;&gt;CompleteDaf -->
<g id="edge13" class="edge">
<title>Chains&#45;&gt;CompleteDaf</title>
<path fill="none" stroke="black" d="M372.79,-111.66C346.25,-103.03 302.64,-88.85 271.04,-78.58"/>
<polygon fill="black" stroke="black" points="272.44,-75.36 261.85,-75.59 270.28,-82.01 272.44,-75.36"/>
</g>
<!-- ExampleData -->
<g id="node21" class="node">
<title>ExampleData</title>
<g id="a_node21"><a xlink:href="../example_data.html" xlink:title="ExampleData" target="_top">
<polygon fill="none" stroke="white" points="378.32,-74.64 292.25,-74.64 292.25,-55.32 378.32,-55.32 378.32,-74.64"/>
<text xml:space="preserve" text-anchor="middle" x="335.28" y="-59.18" font-family="Sans-Serif" font-size="14.00">ExampleData</text>
</a>
</g>
</g>
<!-- Chains&#45;&gt;ExampleData -->
<g id="edge21" class="edge">
<title>Chains&#45;&gt;ExampleData</title>
<path fill="none" stroke="black" d="M385.94,-110.25C377.21,-102.63 364.5,-91.51 353.99,-82.33"/>
<polygon fill="black" stroke="black" points="356.45,-79.83 346.62,-75.89 351.85,-85.1 356.45,-79.83"/>
</g>
<!-- MemoryFormat&#45;&gt;Adapters -->
<g id="edge3" class="edge">
<title>MemoryFormat&#45;&gt;Adapters</title>
<path fill="none" stroke="black" d="M185.28,-165.46C165.36,-159.04 144.16,-148.19 132.28,-129.96 109.35,-94.75 164.6,-64.6 181.28,-55.32 218.44,-34.65 338.18,-20.53 401.75,-14.29"/>
<polygon fill="black" stroke="black" points="401.81,-17.8 411.43,-13.36 401.14,-10.83 401.81,-17.8"/>
</g>
<!-- MemoryFormat&#45;&gt;ExampleData -->
<g id="edge22" class="edge">
<title>MemoryFormat&#45;&gt;ExampleData</title>
<path fill="none" stroke="black" d="M241.63,-165.73C258.52,-147.74 296.99,-106.77 319.01,-83.31"/>
<polygon fill="black" stroke="black" points="321.49,-85.78 325.79,-76.1 316.39,-80.99 321.49,-85.78"/>
</g>
<!-- AnnDataFormat -->
<g id="node25" class="node">
<title>AnnDataFormat</title>
<g id="a_node25"><a xlink:href="../anndata_format.html" xlink:title="AnnDataFormat" target="_top">
<polygon fill="none" stroke="white" points="241.44,-129.96 141.12,-129.96 141.12,-110.64 241.44,-110.64 241.44,-129.96"/>
<text xml:space="preserve" text-anchor="middle" x="191.28" y="-114.5" font-family="Sans-Serif" font-size="14.00">AnnDataFormat</text>
</a>
</g>
</g>
<!-- MemoryFormat&#45;&gt;AnnDataFormat -->
<g id="edge36" class="edge">
<title>MemoryFormat&#45;&gt;AnnDataFormat</title>
<path fill="none" stroke="black" d="M226.35,-165.82C220.67,-158.6 212.45,-148.17 205.39,-139.21"/>
<polygon fill="black" stroke="black" points="208.25,-137.17 199.31,-131.48 202.75,-141.51 208.25,-137.17"/>
</g>
<!-- Computations -->
<g id="node6" class="node">
<title>Computations</title>
<g id="a_node6"><a xlink:href="../computations.html" xlink:title="Computations" target="_top">
<polygon fill="none" stroke="white" points="522.44,-74.64 434.12,-74.64 434.12,-55.32 522.44,-55.32 522.44,-74.64"/>
<text xml:space="preserve" text-anchor="middle" x="478.28" y="-59.18" font-family="Sans-Serif" font-size="14.00">Computations</text>
</a>
</g>
</g>
<!-- Computations&#45;&gt;Adapters -->
<g id="edge5" class="edge">
<title>Computations&#45;&gt;Adapters</title>
<path fill="none" stroke="black" d="M472.34,-55.18C467.57,-48.12 460.72,-37.97 454.76,-29.14"/>
<polygon fill="black" stroke="black" points="457.7,-27.24 449.21,-20.91 451.9,-31.16 457.7,-27.24"/>
</g>
<!-- Views -->
<g id="node7" class="node">
<title>Views</title>
<g id="a_node7"><a xlink:href="../views.html" xlink:title="Views" target="_top">
<polygon fill="none" stroke="white" points="472.44,-185.28 432.12,-185.28 432.12,-165.96 472.44,-165.96 472.44,-185.28"/>
<text xml:space="preserve" text-anchor="middle" x="452.28" y="-169.82" font-family="Sans-Serif" font-size="14.00">Views</text>
</a>
</g>
</g>
<!-- Views&#45;&gt;Chains -->
<g id="edge35" class="edge">
<title>Views&#45;&gt;Chains</title>
<path fill="none" stroke="black" d="M442.79,-165.57C434.85,-158.02 423.34,-147.06 413.75,-137.93"/>
<polygon fill="black" stroke="black" points="416.4,-135.62 406.74,-131.26 411.57,-140.69 416.4,-135.62"/>
</g>
<!-- Contracts -->
<g id="node17" class="node">
<title>Contracts</title>
<g id="a_node17"><a xlink:href="../contracts.html" xlink:title="Contracts" target="_top">
<polygon fill="none" stroke="white" points="499.32,-129.96 437.25,-129.96 437.25,-110.64 499.32,-110.64 499.32,-129.96"/>
<text xml:space="preserve" text-anchor="middle" x="468.28" y="-114.5" font-family="Sans-Serif" font-size="14.00">Contracts</text>
</a>
</g>
</g>
<!-- Views&#45;&gt;Contracts -->
<g id="edge15" class="edge">
<title>Views&#45;&gt;Contracts</title>
<path fill="none" stroke="black" d="M454.93,-165.82C456.93,-159.14 459.76,-149.7 462.3,-141.23"/>
<polygon fill="black" stroke="black" points="465.63,-142.33 465.15,-131.75 458.92,-140.32 465.63,-142.33"/>
</g>
<!-- Views&#45;&gt;Concat -->
<g id="edge42" class="edge">
<title>Views&#45;&gt;Concat</title>
<path fill="none" stroke="black" d="M467.38,-165.57C480.81,-157.53 500.7,-145.62 516.46,-136.17"/>
<polygon fill="black" stroke="black" points="518.04,-139.31 524.81,-131.17 514.44,-133.3 518.04,-139.31"/>
</g>
<!-- ReadOnly -->
<g id="node8" class="node">
<title>ReadOnly</title>
<g id="a_node8"><a xlink:href="../read_only.html" xlink:title="ReadOnly" target="_top">
<polygon fill="none" stroke="white" points="237.82,-240.6 172.75,-240.6 172.75,-221.28 237.82,-221.28 237.82,-240.6"/>
<text xml:space="preserve" text-anchor="middle" x="205.28" y="-225.14" font-family="Sans-Serif" font-size="14.00">ReadOnly</text>
</a>
</g>
</g>
<!-- ReadOnly&#45;&gt;Views -->
<g id="edge6" class="edge">
<title>ReadOnly&#45;&gt;Views</title>
<path fill="none" stroke="black" d="M238.08,-222.86C285.75,-212.57 373.59,-193.61 420.61,-183.46"/>
<polygon fill="black" stroke="black" points="421.12,-186.93 430.16,-181.4 419.64,-180.09 421.12,-186.93"/>
</g>
<!-- ReadOnly&#45;&gt;H5dfFormat -->
<g id="edge29" class="edge">
<title>ReadOnly&#45;&gt;H5dfFormat</title>
<path fill="none" stroke="black" d="M192.22,-220.89C180.83,-213.01 164.06,-201.39 150.55,-192.04"/>
<polygon fill="black" stroke="black" points="152.87,-189.39 142.66,-186.57 148.88,-195.14 152.87,-189.39"/>
</g>
<!-- ReadOnly&#45;&gt;FilesFormat -->
<g id="edge38" class="edge">
<title>ReadOnly&#45;&gt;FilesFormat</title>
<path fill="none" stroke="black" d="M227.85,-220.89C249.06,-212.39 281.06,-199.56 305.16,-189.9"/>
<polygon fill="black" stroke="black" points="306.23,-193.24 314.21,-186.27 303.62,-186.75 306.23,-193.24"/>
</g>
<!-- ReadOnly&#45;&gt;ZarrFormat -->
<g id="edge23" class="edge">
<title>ReadOnly&#45;&gt;ZarrFormat</title>
<path fill="none" stroke="black" d="M176.62,-220.89C148.94,-212.16 106.8,-198.87 75.91,-189.12"/>
<polygon fill="black" stroke="black" points="77.13,-185.84 66.54,-186.16 75.02,-192.51 77.13,-185.84"/>
</g>
<!-- Queries -->
<g id="node9" class="node">
<title>Queries</title>
<g id="a_node9"><a xlink:href="../queries.html" xlink:title="Queries" target="_top">
<polygon fill="none" stroke="white" points="478.44,-240.6 426.12,-240.6 426.12,-221.28 478.44,-221.28 478.44,-240.6"/>
<text xml:space="preserve" text-anchor="middle" x="452.28" y="-225.14" font-family="Sans-Serif" font-size="14.00">Queries</text>
</a>
</g>
</g>
<!-- Queries&#45;&gt;Views -->
<g id="edge7" class="edge">
<title>Queries&#45;&gt;Views</title>
<path fill="none" stroke="black" d="M452.28,-221.14C452.28,-214.54 452.28,-205.24 452.28,-196.85"/>
<polygon fill="black" stroke="black" points="455.79,-197.13 452.29,-187.13 448.79,-197.13 455.79,-197.13"/>
</g>
<!-- Queries&#45;&gt;Reconstruction -->
<g id="edge45" class="edge">
<title>Queries&#45;&gt;Reconstruction</title>
<path fill="none" stroke="black" d="M477.56,-220.89C501.64,-212.28 538.14,-199.22 565.27,-189.51"/>
<polygon fill="black" stroke="black" points="566.22,-192.88 574.46,-186.22 563.87,-186.29 566.22,-192.88"/>
</g>
<!-- Operations -->
<g id="node10" class="node">
<title>Operations</title>
<g id="a_node10"><a xlink:href="../operations.html" xlink:title="Operations" target="_top">
<polygon fill="none" stroke="white" points="433.82,-295.92 362.75,-295.92 362.75,-276.6 433.82,-276.6 433.82,-295.92"/>
<text xml:space="preserve" text-anchor="middle" x="398.28" y="-280.46" font-family="Sans-Serif" font-size="14.00">Operations</text>
</a>
</g>
</g>
<!-- Operations&#45;&gt;Queries -->
<g id="edge10" class="edge">
<title>Operations&#45;&gt;Queries</title>
<path fill="none" stroke="black" d="M407.2,-276.46C414.74,-269.01 425.75,-258.14 435.01,-249"/>
<polygon fill="black" stroke="black" points="437.44,-251.52 442.1,-242 432.52,-246.54 437.44,-251.52"/>
</g>
<!-- Operations&#45;&gt;FilesFormat -->
<g id="edge37" class="edge">
<title>Operations&#45;&gt;FilesFormat</title>
<path fill="none" stroke="black" d="M396.98,-276.49C394.79,-263.68 389.57,-239.42 379.28,-221.28 373.48,-211.03 364.91,-201.21 357.11,-193.4"/>
<polygon fill="black" stroke="black" points="359.58,-190.92 349.92,-186.57 354.76,-195.99 359.58,-190.92"/>
</g>
<!-- Registry -->
<g id="node11" class="node">
<title>Registry</title>
<g id="a_node11"><a xlink:href="../registry.html" xlink:title="Registry" target="_top">
<polygon fill="none" stroke="white" points="425.19,-406.56 371.37,-406.56 371.37,-387.24 425.19,-387.24 425.19,-406.56"/>
<text xml:space="preserve" text-anchor="middle" x="398.28" y="-391.1" font-family="Sans-Serif" font-size="14.00">Registry</text>
</a>
</g>
</g>
<!-- Registry&#45;&gt;Operations -->
<g id="edge8" class="edge">
<title>Registry&#45;&gt;Operations</title>
<path fill="none" stroke="black" d="M398.28,-387.01C398.28,-369.74 398.28,-331.27 398.28,-307.48"/>
<polygon fill="black" stroke="black" points="401.79,-307.79 398.29,-297.79 394.79,-307.79 401.79,-307.79"/>
</g>
<!-- Formats -->
<g id="node19" class="node">
<title>Formats</title>
<g id="a_node19"><a xlink:href="../formats.html" xlink:title="Formats" target="_top">
<polygon fill="none" stroke="white" points="325.57,-351.24 271,-351.24 271,-331.92 325.57,-331.92 325.57,-351.24"/>
<text xml:space="preserve" text-anchor="middle" x="298.28" y="-335.78" font-family="Sans-Serif" font-size="14.00">Formats</text>
</a>
</g>
</g>
<!-- Registry&#45;&gt;Formats -->
<g id="edge18" class="edge">
<title>Registry&#45;&gt;Formats</title>
<path fill="none" stroke="black" d="M381.32,-386.85C366.02,-378.7 343.25,-366.56 325.42,-357.05"/>
<polygon fill="black" stroke="black" points="327.14,-354 316.67,-352.38 323.84,-360.17 327.14,-354"/>
</g>
<!-- Tokens -->
<g id="node12" class="node">
<title>Tokens</title>
<g id="a_node12"><a xlink:href="../tokens.html" xlink:title="Tokens" target="_top">
<polygon fill="none" stroke="white" points="353.82,-406.56 306.75,-406.56 306.75,-387.24 353.82,-387.24 353.82,-406.56"/>
<text xml:space="preserve" text-anchor="middle" x="330.28" y="-391.1" font-family="Sans-Serif" font-size="14.00">Tokens</text>
</a>
</g>
</g>
<!-- Tokens&#45;&gt;Operations -->
<g id="edge9" class="edge">
<title>Tokens&#45;&gt;Operations</title>
<path fill="none" stroke="black" d="M335.85,-387.01C346.91,-369.34 371.85,-329.49 386.65,-305.85"/>
<polygon fill="black" stroke="black" points="389.5,-307.89 391.84,-297.56 383.57,-304.18 389.5,-307.89"/>
</g>
<!-- Tokens&#45;&gt;Formats -->
<g id="edge19" class="edge">
<title>Tokens&#45;&gt;Formats</title>
<path fill="none" stroke="black" d="M325,-387.1C320.81,-380.11 314.81,-370.11 309.55,-361.35"/>
<polygon fill="black" stroke="black" points="312.61,-359.65 304.46,-352.87 306.61,-363.25 312.61,-359.65"/>
</g>
<!-- Readers -->
<g id="node13" class="node">
<title>Readers</title>
<g id="a_node13"><a xlink:href="../readers.html" xlink:title="Readers" target="_top">
<polygon fill="none" stroke="white" points="313.94,-295.92 258.62,-295.92 258.62,-276.6 313.94,-276.6 313.94,-295.92"/>
<text xml:space="preserve" text-anchor="middle" x="286.28" y="-280.46" font-family="Sans-Serif" font-size="14.00">Readers</text>
</a>
</g>
</g>
<!-- Readers&#45;&gt;Writers -->
<g id="edge33" class="edge">
<title>Readers&#45;&gt;Writers</title>
<path fill="none" stroke="black" d="M296.46,-276.21C305.05,-268.59 317.55,-257.47 327.89,-248.29"/>
<polygon fill="black" stroke="black" points="329.98,-251.12 335.13,-241.86 325.33,-245.88 329.98,-251.12"/>
</g>
<!-- Readers&#45;&gt;ReadOnly -->
<g id="edge46" class="edge">
<title>Readers&#45;&gt;ReadOnly</title>
<path fill="none" stroke="black" d="M272.54,-276.21C260.56,-268.33 242.91,-256.71 228.7,-247.36"/>
<polygon fill="black" stroke="black" points="230.63,-244.44 220.36,-241.86 226.79,-250.28 230.63,-244.44"/>
</g>
<!-- Readers&#45;&gt;Queries -->
<g id="edge11" class="edge">
<title>Readers&#45;&gt;Queries</title>
<path fill="none" stroke="black" d="M314.44,-276.21C342.13,-267.32 384.54,-253.7 415,-243.92"/>
<polygon fill="black" stroke="black" points="415.75,-247.35 424.2,-240.96 413.6,-240.69 415.75,-247.35"/>
</g>
<!-- Reorder -->
<g id="node18" class="node">
<title>Reorder</title>
<g id="a_node18"><a xlink:href="../reorder.html" xlink:title="Reorder" target="_top">
<polygon fill="none" stroke="white" points="154.82,-240.6 101.75,-240.6 101.75,-221.28 154.82,-221.28 154.82,-240.6"/>
<text xml:space="preserve" text-anchor="middle" x="128.28" y="-225.14" font-family="Sans-Serif" font-size="14.00">Reorder</text>
</a>
</g>
</g>
<!-- Readers&#45;&gt;Reorder -->
<g id="edge16" class="edge">
<title>Readers&#45;&gt;Reorder</title>
<path fill="none" stroke="black" d="M259.48,-276.21C233.83,-267.56 194.9,-254.42 166.1,-244.7"/>
<polygon fill="black" stroke="black" points="167.25,-241.39 156.65,-241.51 165.01,-248.03 167.25,-241.39"/>
</g>
<!-- Groups -->
<g id="node24" class="node">
<title>Groups</title>
<g id="a_node24"><a xlink:href="../groups.html" xlink:title="Groups" target="_top">
<polygon fill="none" stroke="white" points="304.94,-240.6 255.62,-240.6 255.62,-221.28 304.94,-221.28 304.94,-240.6"/>
<text xml:space="preserve" text-anchor="middle" x="280.28" y="-225.14" font-family="Sans-Serif" font-size="14.00">Groups</text>
</a>
</g>
</g>
<!-- Readers&#45;&gt;Groups -->
<g id="edge32" class="edge">
<title>Readers&#45;&gt;Groups</title>
<path fill="none" stroke="black" d="M285.29,-276.46C284.55,-269.86 283.51,-260.56 282.56,-252.17"/>
<polygon fill="black" stroke="black" points="286.06,-251.99 281.47,-242.44 279.11,-252.77 286.06,-251.99"/>
</g>
<!-- H5dfFormat&#45;&gt;CompleteDaf -->
<g id="edge12" class="edge">
<title>H5dfFormat&#45;&gt;CompleteDaf</title>
<path fill="none" stroke="black" d="M126.2,-165.84C123.59,-152.6 120.74,-127.28 132.28,-110.64 143.33,-94.72 161.44,-84.4 179.22,-77.74"/>
<polygon fill="black" stroke="black" points="180.11,-81.13 188.46,-74.62 177.87,-74.5 180.11,-81.13"/>
</g>
<!-- FilesFormat&#45;&gt;CompleteDaf -->
<g id="edge14" class="edge">
<title>FilesFormat&#45;&gt;CompleteDaf</title>
<path fill="none" stroke="black" d="M329.61,-165.73C311.99,-147.67 271.73,-106.4 248.89,-83"/>
<polygon fill="black" stroke="black" points="251.63,-80.79 242.14,-76.08 246.61,-85.68 251.63,-80.79"/>
</g>
<!-- FilesFormat&#45;&gt;ExampleData -->
<g id="edge20" class="edge">
<title>FilesFormat&#45;&gt;ExampleData</title>
<path fill="none" stroke="black" d="M338.04,-165.73C337.56,-148.46 336.5,-109.99 335.84,-86.2"/>
<polygon fill="black" stroke="black" points="339.35,-86.41 335.58,-76.51 332.35,-86.6 339.35,-86.41"/>
</g>
<!-- Contracts&#45;&gt;Computations -->
<g id="edge43" class="edge">
<title>Contracts&#45;&gt;Computations</title>
<path fill="none" stroke="black" d="M469.94,-110.5C471.17,-103.9 472.92,-94.6 474.49,-86.21"/>
<polygon fill="black" stroke="black" points="477.92,-86.94 476.32,-76.46 471.04,-85.65 477.92,-86.94"/>
</g>
<!-- Reorder&#45;&gt;MemoryFormat -->
<g id="edge27" class="edge">
<title>Reorder&#45;&gt;MemoryFormat</title>
<path fill="none" stroke="black" d="M146.1,-220.89C162.31,-212.66 186.52,-200.37 205.32,-190.82"/>
<polygon fill="black" stroke="black" points="206.7,-194.04 214.04,-186.39 203.54,-187.8 206.7,-194.04"/>
</g>
<!-- Reorder&#45;&gt;H5dfFormat -->
<g id="edge31" class="edge">
<title>Reorder&#45;&gt;H5dfFormat</title>
<path fill="none" stroke="black" d="M128.28,-221.14C128.28,-214.54 128.28,-205.24 128.28,-196.85"/>
<polygon fill="black" stroke="black" points="131.79,-197.13 128.29,-187.13 124.79,-197.13 131.79,-197.13"/>
</g>
<!-- Reorder&#45;&gt;FilesFormat -->
<g id="edge40" class="edge">
<title>Reorder&#45;&gt;FilesFormat</title>
<path fill="none" stroke="black" d="M155.31,-223.08C189.61,-214.37 249.33,-199.2 291.19,-188.58"/>
<polygon fill="black" stroke="black" points="291.93,-192 300.76,-186.15 290.2,-185.22 291.93,-192"/>
</g>
<!-- Reorder&#45;&gt;ZarrFormat -->
<g id="edge25" class="edge">
<title>Reorder&#45;&gt;ZarrFormat</title>
<path fill="none" stroke="black" d="M112.68,-220.89C98.67,-212.78 77.85,-200.71 61.48,-191.22"/>
<polygon fill="black" stroke="black" points="63.68,-188.45 53.28,-186.47 60.17,-194.51 63.68,-188.45"/>
</g>
<!-- Formats&#45;&gt;Readers -->
<g id="edge47" class="edge">
<title>Formats&#45;&gt;Readers</title>
<path fill="none" stroke="black" d="M296.3,-331.78C294.82,-325.18 292.73,-315.88 290.84,-307.49"/>
<polygon fill="black" stroke="black" points="294.25,-306.72 288.64,-297.73 287.42,-308.26 294.25,-306.72"/>
</g>
<!-- Keys -->
<g id="node20" class="node">
<title>Keys</title>
<g id="a_node20"><a xlink:href="../keys.html" xlink:title="Keys" target="_top">
<polygon fill="none" stroke="white" points="288.44,-406.56 254.12,-406.56 254.12,-387.24 288.44,-387.24 288.44,-406.56"/>
<text xml:space="preserve" text-anchor="middle" x="271.28" y="-391.1" font-family="Sans-Serif" font-size="14.00">Keys</text>
</a>
</g>
</g>
<!-- Keys&#45;&gt;Formats -->
<g id="edge17" class="edge">
<title>Keys&#45;&gt;Formats</title>
<path fill="none" stroke="black" d="M275.74,-387.1C279.24,-380.19 284.23,-370.33 288.63,-361.64"/>
<polygon fill="black" stroke="black" points="291.65,-363.43 293.05,-352.93 285.41,-360.27 291.65,-363.43"/>
</g>
<!-- StorageTypes -->
<g id="node23" class="node">
<title>StorageTypes</title>
<g id="a_node23"><a xlink:href="../storage_types.html" xlink:title="StorageTypes" target="_top">
<polygon fill="none" stroke="white" points="442.44,-461.88 354.12,-461.88 354.12,-442.56 442.44,-442.56 442.44,-461.88"/>
<text xml:space="preserve" text-anchor="middle" x="398.28" y="-446.42" font-family="Sans-Serif" font-size="14.00">StorageTypes</text>
</a>
</g>
</g>
<!-- StorageTypes&#45;&gt;Registry -->
<g id="edge28" class="edge">
<title>StorageTypes&#45;&gt;Registry</title>
<path fill="none" stroke="black" d="M398.28,-442.42C398.28,-435.82 398.28,-426.52 398.28,-418.13"/>
<polygon fill="black" stroke="black" points="401.79,-418.41 398.29,-408.41 394.79,-418.41 401.79,-418.41"/>
</g>
</g>
</svg>
