<?xml version="1.0" encoding="UTF-8" standalone="no"?>
<!DOCTYPE svg PUBLIC "-//W3C//DTD SVG 1.1//EN"
 "http://www.w3.org/Graphics/SVG/1.1/DTD/svg11.dtd">
<!-- Generated by graphviz version 14.1.4 (20260321.0153)
 -->
<!-- Pages: 1 -->
<svg width="734pt" height="470pt"
 viewBox="0.00 0.00 734.00 470.00" xmlns="http://www.w3.org/2000/svg" xmlns:xlink="http://www.w3.org/1999/xlink">
<g id="graph0" class="graph" transform="scale(1 1) rotate(0) translate(4 465.88)">
<polygon fill="white" stroke="none" points="-4,4 -4,-465.88 730.32,-465.88 730.32,4 -4,4"/>
<!-- Copies -->
<g id="node1" class="node">
<title>Copies</title>
<g id="a_node1"><a xlink:href="../copies.html" xlink:title="Copies" target="_top">
<polygon fill="none" stroke="white" points="614.32,-185.28 568,-185.28 568,-165.96 614.32,-165.96 614.32,-185.28"/>
<text xml:space="preserve" text-anchor="middle" x="591.16" y="-169.82" font-family="Sans-Serif" font-size="14.00">Copies</text>
</a>
</g>
</g>
<!-- Adapters -->
<g id="node7" class="node">
<title>Adapters</title>
<g id="a_node7"><a xlink:href="../adapters.html" xlink:title="Adapters" target="_top">
<polygon fill="none" stroke="white" points="541.32,-19.32 483,-19.32 483,0 541.32,0 541.32,-19.32"/>
<text xml:space="preserve" text-anchor="middle" x="512.16" y="-3.86" font-family="Sans-Serif" font-size="14.00">Adapters</text>
</a>
</g>
</g>
<!-- Copies&#45;&gt;Adapters -->
<g id="edge8" class="edge">
<title>Copies&#45;&gt;Adapters</title>
<path fill="none" stroke="black" d="M613.25,-165.54C627.77,-158.26 645.6,-146.51 654.16,-129.96 658.1,-122.33 657.36,-118.61 654.16,-110.64 636.39,-66.4 586.38,-38.66 550.75,-23.92"/>
<polygon fill="black" stroke="black" points="552.2,-20.73 541.62,-20.32 549.63,-27.25 552.2,-20.73"/>
</g>
<!-- Concat -->
<g id="node32" class="node">
<title>Concat</title>
<g id="a_node32"><a xlink:href="../concat.html" xlink:title="Concat" target="_top">
<polygon fill="none" stroke="white" points="644.69,-129.96 597.62,-129.96 597.62,-110.64 644.69,-110.64 644.69,-129.96"/>
<text xml:space="preserve" text-anchor="middle" x="621.16" y="-114.5" font-family="Sans-Serif" font-size="14.00">Concat</text>
</a>
</g>
</g>
<!-- Copies&#45;&gt;Concat -->
<g id="edge48" class="edge">
<title>Copies&#45;&gt;Concat</title>
<path fill="none" stroke="black" d="M596.11,-165.82C600.04,-158.83 605.67,-148.83 610.6,-140.07"/>
<polygon fill="black" stroke="black" points="613.5,-142.05 615.36,-131.62 607.4,-138.61 613.5,-142.05"/>
</g>
<!-- Writers -->
<g id="node2" class="node">
<title>Writers</title>
<g id="a_node2"><a xlink:href="../writers.html" xlink:title="Writers" target="_top">
<polygon fill="none" stroke="white" points="456.69,-240.6 409.62,-240.6 409.62,-221.28 456.69,-221.28 456.69,-240.6"/>
<text xml:space="preserve" text-anchor="middle" x="433.16" y="-225.14" font-family="Sans-Serif" font-size="14.00">Writers</text>
</a>
</g>
</g>
<!-- Writers&#45;&gt;Copies -->
<g id="edge1" class="edge">
<title>Writers&#45;&gt;Copies</title>
<path fill="none" stroke="black" d="M457.16,-221.84C483.72,-212.88 526.75,-198.36 556.86,-188.19"/>
<polygon fill="black" stroke="black" points="557.92,-191.53 566.28,-185.02 555.68,-184.9 557.92,-191.53"/>
</g>
<!-- Chains -->
<g id="node8" class="node">
<title>Chains</title>
<g id="a_node8"><a xlink:href="../chains.html" xlink:title="Chains" target="_top">
<polygon fill="none" stroke="white" points="499.32,-129.96 453,-129.96 453,-110.64 499.32,-110.64 499.32,-129.96"/>
<text xml:space="preserve" text-anchor="middle" x="476.16" y="-114.5" font-family="Sans-Serif" font-size="14.00">Chains</text>
</a>
</g>
</g>
<!-- Writers&#45;&gt;Chains -->
<g id="edge39" class="edge">
<title>Writers&#45;&gt;Chains</title>
<path fill="none" stroke="black" d="M438.69,-220.97C443.96,-212.14 451.86,-198.14 457.16,-185.28 463.12,-170.83 468.07,-153.84 471.42,-141.01"/>
<polygon fill="black" stroke="black" points="474.73,-142.21 473.76,-131.66 467.94,-140.51 474.73,-142.21"/>
</g>
<!-- MemoryFormat -->
<g id="node9" class="node">
<title>MemoryFormat</title>
<g id="a_node9"><a xlink:href="../memory_format.html" xlink:title="MemoryFormat" target="_top">
<polygon fill="none" stroke="white" points="448.19,-185.28 350.12,-185.28 350.12,-165.96 448.19,-165.96 448.19,-185.28"/>
<text xml:space="preserve" text-anchor="middle" x="399.16" y="-169.82" font-family="Sans-Serif" font-size="14.00">MemoryFormat</text>
</a>
</g>
</g>
<!-- Writers&#45;&gt;MemoryFormat -->
<g id="edge30" class="edge">
<title>Writers&#45;&gt;MemoryFormat</title>
<path fill="none" stroke="black" d="M427.55,-221.14C423.04,-214.08 416.57,-203.93 410.95,-195.1"/>
<polygon fill="black" stroke="black" points="414.04,-193.44 405.71,-186.89 408.14,-197.21 414.04,-193.44"/>
</g>
<!-- H5dfFormat -->
<g id="node18" class="node">
<title>H5dfFormat</title>
<g id="a_node18"><a xlink:href="../h5df_format.html" xlink:title="H5dfFormat" target="_top">
<polygon fill="none" stroke="white" points="332.32,-185.28 256,-185.28 256,-165.96 332.32,-165.96 332.32,-185.28"/>
<text xml:space="preserve" text-anchor="middle" x="294.16" y="-169.82" font-family="Sans-Serif" font-size="14.00">H5dfFormat</text>
</a>
</g>
</g>
<!-- Writers&#45;&gt;H5dfFormat -->
<g id="edge34" class="edge">
<title>Writers&#45;&gt;H5dfFormat</title>
<path fill="none" stroke="black" d="M409.58,-220.89C387.32,-212.35 353.67,-199.45 328.44,-189.77"/>
<polygon fill="black" stroke="black" points="329.86,-186.57 319.27,-186.25 327.35,-193.1 329.86,-186.57"/>
</g>
<!-- FilesFormat -->
<g id="node26" class="node">
<title>FilesFormat</title>
<g id="a_node26"><a xlink:href="../files_format.html" xlink:title="FilesFormat" target="_top">
<polygon fill="none" stroke="white" points="238.32,-185.28 162,-185.28 162,-165.96 238.32,-165.96 238.32,-185.28"/>
<text xml:space="preserve" text-anchor="middle" x="200.16" y="-169.82" font-family="Sans-Serif" font-size="14.00">FilesFormat</text>
</a>
</g>
</g>
<!-- Writers&#45;&gt;FilesFormat -->
<g id="edge44" class="edge">
<title>Writers&#45;&gt;FilesFormat</title>
<path fill="none" stroke="black" d="M409.43,-223.39C406.64,-222.66 403.84,-221.94 401.16,-221.28 349.87,-208.65 290.83,-195.72 250.07,-187.05"/>
<polygon fill="black" stroke="black" points="250.8,-183.62 240.3,-184.97 249.35,-190.47 250.8,-183.62"/>
</g>
<!-- Reconstruction -->
<g id="node33" class="node">
<title>Reconstruction</title>
<g id="a_node33"><a xlink:href="../reconstruction.html" xlink:title="Reconstruction" target="_top">
<polygon fill="none" stroke="white" points="726.32,-185.28 632,-185.28 632,-165.96 726.32,-165.96 726.32,-185.28"/>
<text xml:space="preserve" text-anchor="middle" x="679.16" y="-169.82" font-family="Sans-Serif" font-size="14.00">Reconstruction</text>
</a>
</g>
</g>
<!-- Writers&#45;&gt;Reconstruction -->
<g id="edge50" class="edge">
<title>Writers&#45;&gt;Reconstruction</title>
<path fill="none" stroke="black" d="M456.75,-224.83C495.51,-216.43 573.62,-199.49 626.17,-188.1"/>
<polygon fill="black" stroke="black" points="626.79,-191.55 635.82,-186.01 625.31,-184.71 626.79,-191.55"/>
</g>
<!-- PackedFormat -->
<g id="node3" class="node">
<title>PackedFormat</title>
<g id="a_node3"><a xlink:href="../packed_format.html" xlink:title="PackedFormat" target="_top">
<polygon fill="none" stroke="white" points="479.57,-295.92 386.75,-295.92 386.75,-276.6 479.57,-276.6 479.57,-295.92"/>
<text xml:space="preserve" text-anchor="middle" x="433.16" y="-280.46" font-family="Sans-Serif" font-size="14.00">PackedFormat</text>
</a>
</g>
</g>
<!-- PackedFormat&#45;&gt;Writers -->
<g id="edge37" class="edge">
<title>PackedFormat&#45;&gt;Writers</title>
<path fill="none" stroke="black" d="M433.16,-276.46C433.16,-269.86 433.16,-260.56 433.16,-252.17"/>
<polygon fill="black" stroke="black" points="436.66,-252.45 433.16,-242.45 429.66,-252.45 436.66,-252.45"/>
</g>
<!-- Formats -->
<g id="node4" class="node">
<title>Formats</title>
<g id="a_node4"><a xlink:href="../formats.html" xlink:title="Formats" target="_top">
<polygon fill="none" stroke="white" points="364.44,-351.24 309.87,-351.24 309.87,-331.92 364.44,-331.92 364.44,-351.24"/>
<text xml:space="preserve" text-anchor="middle" x="337.16" y="-335.78" font-family="Sans-Serif" font-size="14.00">Formats</text>
</a>
</g>
</g>
<!-- Formats&#45;&gt;PackedFormat -->
<g id="edge2" class="edge">
<title>Formats&#45;&gt;PackedFormat</title>
<path fill="none" stroke="black" d="M353.45,-331.53C368.06,-323.42 389.79,-311.35 406.87,-301.86"/>
<polygon fill="black" stroke="black" points="408.43,-305 415.47,-297.08 405.03,-298.88 408.43,-305"/>
</g>
<!-- Readers -->
<g id="node16" class="node">
<title>Readers</title>
<g id="a_node16"><a xlink:href="../readers.html" xlink:title="Readers" target="_top">
<polygon fill="none" stroke="white" points="366.82,-295.92 311.5,-295.92 311.5,-276.6 366.82,-276.6 366.82,-295.92"/>
<text xml:space="preserve" text-anchor="middle" x="339.16" y="-280.46" font-family="Sans-Serif" font-size="14.00">Readers</text>
</a>
</g>
</g>
<!-- Formats&#45;&gt;Readers -->
<g id="edge53" class="edge">
<title>Formats&#45;&gt;Readers</title>
<path fill="none" stroke="black" d="M337.49,-331.78C337.74,-325.18 338.09,-315.88 338.4,-307.49"/>
<polygon fill="black" stroke="black" points="341.89,-307.89 338.77,-297.77 334.89,-307.63 341.89,-307.89"/>
</g>
<!-- MmapZipStores -->
<g id="node5" class="node">
<title>MmapZipStores</title>
<g id="a_node5"><a xlink:href="../mmap_zip_store.html" xlink:title="MmapZipStores" target="_top">
<polygon fill="none" stroke="white" points="483.69,-351.24 382.62,-351.24 382.62,-331.92 483.69,-331.92 483.69,-351.24"/>
<text xml:space="preserve" text-anchor="middle" x="433.16" y="-335.78" font-family="Sans-Serif" font-size="14.00">MmapZipStores</text>
</a>
</g>
</g>
<!-- MmapZipStores&#45;&gt;PackedFormat -->
<g id="edge3" class="edge">
<title>MmapZipStores&#45;&gt;PackedFormat</title>
<path fill="none" stroke="black" d="M433.16,-331.78C433.16,-325.18 433.16,-315.88 433.16,-307.49"/>
<polygon fill="black" stroke="black" points="436.66,-307.77 433.16,-297.77 429.66,-307.77 436.66,-307.77"/>
</g>
<!-- Operations -->
<g id="node6" class="node">
<title>Operations</title>
<g id="a_node6"><a xlink:href="../operations.html" xlink:title="Operations" target="_top">
<polygon fill="none" stroke="white" points="572.69,-351.24 501.62,-351.24 501.62,-331.92 572.69,-331.92 572.69,-351.24"/>
<text xml:space="preserve" text-anchor="middle" x="537.16" y="-335.78" font-family="Sans-Serif" font-size="14.00">Operations</text>
</a>
</g>
</g>
<!-- Operations&#45;&gt;PackedFormat -->
<g id="edge4" class="edge">
<title>Operations&#45;&gt;PackedFormat</title>
<path fill="none" stroke="black" d="M519.52,-331.53C503.53,-323.34 479.7,-311.12 461.12,-301.6"/>
<polygon fill="black" stroke="black" points="462.73,-298.49 452.24,-297.04 459.54,-304.72 462.73,-298.49"/>
</g>
<!-- Queries -->
<g id="node12" class="node">
<title>Queries</title>
<g id="a_node12"><a xlink:href="../queries.html" xlink:title="Queries" target="_top">
<polygon fill="none" stroke="white" points="559.32,-240.6 507,-240.6 507,-221.28 559.32,-221.28 559.32,-240.6"/>
<text xml:space="preserve" text-anchor="middle" x="533.16" y="-225.14" font-family="Sans-Serif" font-size="14.00">Queries</text>
</a>
</g>
</g>
<!-- Operations&#45;&gt;Queries -->
<g id="edge13" class="edge">
<title>Operations&#45;&gt;Queries</title>
<path fill="none" stroke="black" d="M536.83,-331.69C536.2,-314.42 534.78,-275.95 533.9,-252.16"/>
<polygon fill="black" stroke="black" points="537.41,-252.33 533.55,-242.47 530.42,-252.59 537.41,-252.33"/>
</g>
<!-- Chains&#45;&gt;Adapters -->
<g id="edge5" class="edge">
<title>Chains&#45;&gt;Adapters</title>
<path fill="none" stroke="black" d="M478.54,-110.54C481.95,-98.16 488.55,-74.86 495.16,-55.32 497.98,-46.97 501.39,-37.86 504.41,-30.06"/>
<polygon fill="black" stroke="black" points="507.61,-31.48 508.02,-20.89 501.1,-28.92 507.61,-31.48"/>
</g>
<!-- CompleteDaf -->
<g id="node17" class="node">
<title>CompleteDaf</title>
<g id="a_node17"><a xlink:href="../complete.html" xlink:title="CompleteDaf" target="_top">
<polygon fill="none" stroke="white" points="207.07,-19.32 123.25,-19.32 123.25,0 207.07,0 207.07,-19.32"/>
<text xml:space="preserve" text-anchor="middle" x="165.16" y="-3.86" font-family="Sans-Serif" font-size="14.00">CompleteDaf</text>
</a>
</g>
</g>
<!-- Chains&#45;&gt;CompleteDaf -->
<g id="edge16" class="edge">
<title>Chains&#45;&gt;CompleteDaf</title>
<path fill="none" stroke="black" d="M463.87,-110.23C444.51,-96.36 405.26,-69.95 368.16,-55.32 319.37,-36.08 260.55,-24.29 218.82,-17.69"/>
<polygon fill="black" stroke="black" points="219.43,-14.25 209.01,-16.2 218.37,-21.17 219.43,-14.25"/>
</g>
<!-- ExampleData -->
<g id="node25" class="node">
<title>ExampleData</title>
<g id="a_node25"><a xlink:href="../example_data.html" xlink:title="ExampleData" target="_top">
<polygon fill="none" stroke="white" points="359.19,-74.64 273.12,-74.64 273.12,-55.32 359.19,-55.32 359.19,-74.64"/>
<text xml:space="preserve" text-anchor="middle" x="316.16" y="-59.18" font-family="Sans-Serif" font-size="14.00">ExampleData</text>
</a>
</g>
</g>
<!-- Chains&#45;&gt;ExampleData -->
<g id="edge25" class="edge">
<title>Chains&#45;&gt;ExampleData</title>
<path fill="none" stroke="black" d="M452.55,-111.43C426.69,-102.82 384.84,-88.87 354.31,-78.69"/>
<polygon fill="black" stroke="black" points="355.65,-75.45 345.06,-75.61 353.44,-82.09 355.65,-75.45"/>
</g>
<!-- MemoryFormat&#45;&gt;Adapters -->
<g id="edge6" class="edge">
<title>MemoryFormat&#45;&gt;Adapters</title>
<path fill="none" stroke="black" d="M405.24,-165.8C423.09,-139.89 475.67,-63.6 499.8,-28.59"/>
<polygon fill="black" stroke="black" points="502.4,-30.99 505.2,-20.77 496.64,-27.01 502.4,-30.99"/>
</g>
<!-- MemoryFormat&#45;&gt;ExampleData -->
<g id="edge26" class="edge">
<title>MemoryFormat&#45;&gt;ExampleData</title>
<path fill="none" stroke="black" d="M396.17,-165.71C391.53,-152.72 381.71,-128.24 368.16,-110.64 359.8,-99.78 348.43,-89.65 338.46,-81.79"/>
<polygon fill="black" stroke="black" points="340.77,-79.15 330.68,-75.92 336.55,-84.74 340.77,-79.15"/>
</g>
<!-- AnnDataFormat -->
<g id="node30" class="node">
<title>AnnDataFormat</title>
<g id="a_node30"><a xlink:href="../anndata_format.html" xlink:title="AnnDataFormat" target="_top">
<polygon fill="none" stroke="white" points="359.32,-129.96 259,-129.96 259,-110.64 359.32,-110.64 359.32,-129.96"/>
<text xml:space="preserve" text-anchor="middle" x="309.16" y="-114.5" font-family="Sans-Serif" font-size="14.00">AnnDataFormat</text>
</a>
</g>
</g>
<!-- MemoryFormat&#45;&gt;AnnDataFormat -->
<g id="edge41" class="edge">
<title>MemoryFormat&#45;&gt;AnnDataFormat</title>
<path fill="none" stroke="black" d="M383.89,-165.57C370.32,-157.53 350.21,-145.62 334.26,-136.17"/>
<polygon fill="black" stroke="black" points="336.19,-133.25 325.8,-131.16 332.62,-139.27 336.19,-133.25"/>
</g>
<!-- Computations -->
<g id="node10" class="node">
<title>Computations</title>
<g id="a_node10"><a xlink:href="../computations.html" xlink:title="Computations" target="_top">
<polygon fill="none" stroke="white" points="592.32,-74.64 504,-74.64 504,-55.32 592.32,-55.32 592.32,-74.64"/>
<text xml:space="preserve" text-anchor="middle" x="548.16" y="-59.18" font-family="Sans-Serif" font-size="14.00">Computations</text>
</a>
</g>
</g>
<!-- Computations&#45;&gt;Adapters -->
<g id="edge7" class="edge">
<title>Computations&#45;&gt;Adapters</title>
<path fill="none" stroke="black" d="M542.22,-55.18C537.45,-48.12 530.6,-37.97 524.64,-29.14"/>
<polygon fill="black" stroke="black" points="527.58,-27.24 519.08,-20.91 521.78,-31.16 527.58,-27.24"/>
</g>
<!-- Views -->
<g id="node11" class="node">
<title>Views</title>
<g id="a_node11"><a xlink:href="../views.html" xlink:title="Views" target="_top">
<polygon fill="none" stroke="white" points="550.32,-185.28 510,-185.28 510,-165.96 550.32,-165.96 550.32,-185.28"/>
<text xml:space="preserve" text-anchor="middle" x="530.16" y="-169.82" font-family="Sans-Serif" font-size="14.00">Views</text>
</a>
</g>
</g>
<!-- Views&#45;&gt;Chains -->
<g id="edge40" class="edge">
<title>Views&#45;&gt;Chains</title>
<path fill="none" stroke="black" d="M521.24,-165.82C513.71,-158.37 502.69,-147.5 493.43,-138.36"/>
<polygon fill="black" stroke="black" points="495.92,-135.9 486.35,-131.36 491,-140.88 495.92,-135.9"/>
</g>
<!-- Contracts -->
<g id="node21" class="node">
<title>Contracts</title>
<g id="a_node21"><a xlink:href="../contracts.html" xlink:title="Contracts" target="_top">
<polygon fill="none" stroke="white" points="579.19,-129.96 517.12,-129.96 517.12,-110.64 579.19,-110.64 579.19,-129.96"/>
<text xml:space="preserve" text-anchor="middle" x="548.16" y="-114.5" font-family="Sans-Serif" font-size="14.00">Contracts</text>
</a>
</g>
</g>
<!-- Views&#45;&gt;Contracts -->
<g id="edge19" class="edge">
<title>Views&#45;&gt;Contracts</title>
<path fill="none" stroke="black" d="M533.13,-165.82C535.41,-159.06 538.65,-149.49 541.53,-140.94"/>
<polygon fill="black" stroke="black" points="544.76,-142.32 544.64,-131.73 538.12,-140.09 544.76,-142.32"/>
</g>
<!-- Views&#45;&gt;Concat -->
<g id="edge47" class="edge">
<title>Views&#45;&gt;Concat</title>
<path fill="none" stroke="black" d="M545.6,-165.57C559.32,-157.53 579.66,-145.62 595.78,-136.17"/>
<polygon fill="black" stroke="black" points="597.48,-139.23 604.34,-131.15 593.94,-133.19 597.48,-139.23"/>
</g>
<!-- Queries&#45;&gt;Views -->
<g id="edge9" class="edge">
<title>Queries&#45;&gt;Views</title>
<path fill="none" stroke="black" d="M532.66,-221.14C532.29,-214.54 531.77,-205.24 531.3,-196.85"/>
<polygon fill="black" stroke="black" points="534.81,-196.91 530.75,-187.13 527.82,-197.31 534.81,-196.91"/>
</g>
<!-- Queries&#45;&gt;Reconstruction -->
<g id="edge51" class="edge">
<title>Queries&#45;&gt;Reconstruction</title>
<path fill="none" stroke="black" d="M557.93,-220.89C581.42,-212.32 616.97,-199.33 643.51,-189.64"/>
<polygon fill="black" stroke="black" points="644.66,-192.95 652.85,-186.23 642.26,-186.37 644.66,-192.95"/>
</g>
<!-- ReadOnly -->
<g id="node13" class="node">
<title>ReadOnly</title>
<g id="a_node13"><a xlink:href="../read_only.html" xlink:title="ReadOnly" target="_top">
<polygon fill="none" stroke="white" points="391.69,-240.6 326.62,-240.6 326.62,-221.28 391.69,-221.28 391.69,-240.6"/>
<text xml:space="preserve" text-anchor="middle" x="359.16" y="-225.14" font-family="Sans-Serif" font-size="14.00">ReadOnly</text>
</a>
</g>
</g>
<!-- ReadOnly&#45;&gt;Views -->
<g id="edge10" class="edge">
<title>ReadOnly&#45;&gt;Views</title>
<path fill="none" stroke="black" d="M388.17,-220.89C418.89,-211.32 467.22,-196.24 498.81,-186.4"/>
<polygon fill="black" stroke="black" points="499.67,-189.79 508.18,-183.47 497.59,-183.11 499.67,-189.79"/>
</g>
<!-- ReadOnly&#45;&gt;H5dfFormat -->
<g id="edge35" class="edge">
<title>ReadOnly&#45;&gt;H5dfFormat</title>
<path fill="none" stroke="black" d="M348.13,-220.89C338.74,-213.19 325.01,-201.93 313.75,-192.69"/>
<polygon fill="black" stroke="black" points="316.15,-190.13 306.19,-186.49 311.71,-195.54 316.15,-190.13"/>
</g>
<!-- ReadOnly&#45;&gt;FilesFormat -->
<g id="edge45" class="edge">
<title>ReadOnly&#45;&gt;FilesFormat</title>
<path fill="none" stroke="black" d="M332.19,-220.89C306.26,-212.2 266.85,-198.98 237.83,-189.25"/>
<polygon fill="black" stroke="black" points="239.29,-186.05 228.7,-186.19 237.07,-192.69 239.29,-186.05"/>
</g>
<!-- Registry -->
<g id="node14" class="node">
<title>Registry</title>
<g id="a_node14"><a xlink:href="../registry.html" xlink:title="Registry" target="_top">
<polygon fill="none" stroke="white" points="461.07,-406.56 407.25,-406.56 407.25,-387.24 461.07,-387.24 461.07,-406.56"/>
<text xml:space="preserve" text-anchor="middle" x="434.16" y="-391.1" font-family="Sans-Serif" font-size="14.00">Registry</text>
</a>
</g>
</g>
<!-- Registry&#45;&gt;Formats -->
<g id="edge21" class="edge">
<title>Registry&#45;&gt;Formats</title>
<path fill="none" stroke="black" d="M417.71,-386.85C402.93,-378.74 380.98,-366.67 363.73,-357.18"/>
<polygon fill="black" stroke="black" points="365.47,-354.15 355.02,-352.4 362.1,-360.28 365.47,-354.15"/>
</g>
<!-- Registry&#45;&gt;Operations -->
<g id="edge11" class="edge">
<title>Registry&#45;&gt;Operations</title>
<path fill="none" stroke="black" d="M451.63,-386.85C467.47,-378.66 491.07,-366.44 509.47,-356.92"/>
<polygon fill="black" stroke="black" points="510.99,-360.07 518.26,-352.37 507.77,-353.85 510.99,-360.07"/>
</g>
<!-- Tokens -->
<g id="node15" class="node">
<title>Tokens</title>
<g id="a_node15"><a xlink:href="../tokens.html" xlink:title="Tokens" target="_top">
<polygon fill="none" stroke="white" points="542.69,-406.56 495.62,-406.56 495.62,-387.24 542.69,-387.24 542.69,-406.56"/>
<text xml:space="preserve" text-anchor="middle" x="519.16" y="-391.1" font-family="Sans-Serif" font-size="14.00">Tokens</text>
</a>
</g>
</g>
<!-- Tokens&#45;&gt;Formats -->
<g id="edge22" class="edge">
<title>Tokens&#45;&gt;Formats</title>
<path fill="none" stroke="black" d="M495.37,-388.93C464.89,-380 411.7,-364.42 375.48,-353.81"/>
<polygon fill="black" stroke="black" points="376.86,-350.56 366.28,-351.11 374.89,-357.28 376.86,-350.56"/>
</g>
<!-- Tokens&#45;&gt;Operations -->
<g id="edge12" class="edge">
<title>Tokens&#45;&gt;Operations</title>
<path fill="none" stroke="black" d="M522.13,-387.1C524.41,-380.34 527.65,-370.77 530.53,-362.22"/>
<polygon fill="black" stroke="black" points="533.76,-363.6 533.64,-353.01 527.12,-361.37 533.76,-363.6"/>
</g>
<!-- Readers&#45;&gt;Writers -->
<g id="edge38" class="edge">
<title>Readers&#45;&gt;Writers</title>
<path fill="none" stroke="black" d="M355.11,-276.21C369.42,-268.1 390.69,-256.03 407.41,-246.54"/>
<polygon fill="black" stroke="black" points="408.85,-249.75 415.82,-241.78 405.39,-243.67 408.85,-249.75"/>
</g>
<!-- Readers&#45;&gt;Queries -->
<g id="edge14" class="edge">
<title>Readers&#45;&gt;Queries</title>
<path fill="none" stroke="black" d="M366.96,-277.62C400.76,-268.33 457.95,-252.61 495.64,-242.25"/>
<polygon fill="black" stroke="black" points="496.49,-245.65 505.2,-239.62 494.63,-238.9 496.49,-245.65"/>
</g>
<!-- Readers&#45;&gt;ReadOnly -->
<g id="edge52" class="edge">
<title>Readers&#45;&gt;ReadOnly</title>
<path fill="none" stroke="black" d="M342.46,-276.46C344.99,-269.7 348.59,-260.13 351.79,-251.58"/>
<polygon fill="black" stroke="black" points="355.02,-252.95 355.25,-242.35 348.46,-250.49 355.02,-252.95"/>
</g>
<!-- Reorder -->
<g id="node22" class="node">
<title>Reorder</title>
<g id="a_node22"><a xlink:href="../reorder.html" xlink:title="Reorder" target="_top">
<polygon fill="none" stroke="white" points="308.69,-240.6 255.62,-240.6 255.62,-221.28 308.69,-221.28 308.69,-240.6"/>
<text xml:space="preserve" text-anchor="middle" x="282.16" y="-225.14" font-family="Sans-Serif" font-size="14.00">Reorder</text>
</a>
</g>
</g>
<!-- Readers&#45;&gt;Reorder -->
<g id="edge20" class="edge">
<title>Readers&#45;&gt;Reorder</title>
<path fill="none" stroke="black" d="M329.49,-276.21C321.42,-268.66 309.69,-257.7 299.94,-248.57"/>
<polygon fill="black" stroke="black" points="302.49,-246.16 292.79,-241.89 297.7,-251.27 302.49,-246.16"/>
</g>
<!-- Groups -->
<g id="node29" class="node">
<title>Groups</title>
<g id="a_node29"><a xlink:href="../groups.html" xlink:title="Groups" target="_top">
<polygon fill="none" stroke="white" points="144.82,-240.6 95.5,-240.6 95.5,-221.28 144.82,-221.28 144.82,-240.6"/>
<text xml:space="preserve" text-anchor="middle" x="120.16" y="-225.14" font-family="Sans-Serif" font-size="14.00">Groups</text>
</a>
</g>
</g>
<!-- Readers&#45;&gt;Groups -->
<g id="edge36" class="edge">
<title>Readers&#45;&gt;Groups</title>
<path fill="none" stroke="black" d="M311.07,-278.71C276.68,-270.65 216.38,-256.38 155.9,-241.25"/>
<polygon fill="black" stroke="black" points="157.03,-237.93 146.48,-238.89 155.33,-244.72 157.03,-237.93"/>
</g>
<!-- H5dfFormat&#45;&gt;CompleteDaf -->
<g id="edge15" class="edge">
<title>H5dfFormat&#45;&gt;CompleteDaf</title>
<path fill="none" stroke="black" d="M284.61,-165.79C275.39,-157.05 261.22,-143.13 250.16,-129.96 221.8,-96.18 192.85,-53.41 177.13,-29.34"/>
<polygon fill="black" stroke="black" points="180.08,-27.46 171.71,-20.97 174.2,-31.26 180.08,-27.46"/>
</g>
<!-- HttpFormat -->
<g id="node19" class="node">
<title>HttpFormat</title>
<g id="a_node19"><a xlink:href="../http_format.html" xlink:title="HttpFormat" target="_top">
<polygon fill="none" stroke="white" points="165.44,-74.64 92.88,-74.64 92.88,-55.32 165.44,-55.32 165.44,-74.64"/>
<text xml:space="preserve" text-anchor="middle" x="129.16" y="-59.18" font-family="Sans-Serif" font-size="14.00">HttpFormat</text>
</a>
</g>
</g>
<!-- HttpFormat&#45;&gt;CompleteDaf -->
<g id="edge17" class="edge">
<title>HttpFormat&#45;&gt;CompleteDaf</title>
<path fill="none" stroke="black" d="M135.1,-55.18C139.87,-48.12 146.72,-37.97 152.68,-29.14"/>
<polygon fill="black" stroke="black" points="155.54,-31.16 158.24,-20.91 149.74,-27.24 155.54,-31.16"/>
</g>
<!-- ZarrFormat -->
<g id="node20" class="node">
<title>ZarrFormat</title>
<g id="a_node20"><a xlink:href="../zarr_format.html" xlink:title="ZarrFormat" target="_top">
<polygon fill="none" stroke="white" points="74.44,-74.64 1.88,-74.64 1.88,-55.32 74.44,-55.32 74.44,-74.64"/>
<text xml:space="preserve" text-anchor="middle" x="38.16" y="-59.18" font-family="Sans-Serif" font-size="14.00">ZarrFormat</text>
</a>
</g>
</g>
<!-- ZarrFormat&#45;&gt;CompleteDaf -->
<g id="edge18" class="edge">
<title>ZarrFormat&#45;&gt;CompleteDaf</title>
<path fill="none" stroke="black" d="M59.7,-54.93C79.77,-46.51 109.96,-33.83 132.91,-24.2"/>
<polygon fill="black" stroke="black" points="134.25,-27.43 142.11,-20.34 131.54,-20.98 134.25,-27.43"/>
</g>
<!-- ZarrConvert -->
<g id="node24" class="node">
<title>ZarrConvert</title>
<g id="a_node24"><a xlink:href="../zarr_convert.html" xlink:title="ZarrConvert" target="_top">
<polygon fill="none" stroke="white" points="76.32,-19.32 0,-19.32 0,0 76.32,0 76.32,-19.32"/>
<text xml:space="preserve" text-anchor="middle" x="38.16" y="-3.86" font-family="Sans-Serif" font-size="14.00">ZarrConvert</text>
</a>
</g>
</g>
<!-- ZarrFormat&#45;&gt;ZarrConvert -->
<g id="edge24" class="edge">
<title>ZarrFormat&#45;&gt;ZarrConvert</title>
<path fill="none" stroke="black" d="M38.16,-55.18C38.16,-48.58 38.16,-39.28 38.16,-30.89"/>
<polygon fill="black" stroke="black" points="41.66,-31.17 38.16,-21.17 34.66,-31.17 41.66,-31.17"/>
</g>
<!-- Contracts&#45;&gt;Computations -->
<g id="edge49" class="edge">
<title>Contracts&#45;&gt;Computations</title>
<path fill="none" stroke="black" d="M548.16,-110.5C548.16,-103.9 548.16,-94.6 548.16,-86.21"/>
<polygon fill="black" stroke="black" points="551.66,-86.49 548.16,-76.49 544.66,-86.49 551.66,-86.49"/>
</g>
<!-- Reorder&#45;&gt;MemoryFormat -->
<g id="edge29" class="edge">
<title>Reorder&#45;&gt;MemoryFormat</title>
<path fill="none" stroke="black" d="M302.01,-220.89C320.33,-212.55 347.81,-200.02 368.87,-190.42"/>
<polygon fill="black" stroke="black" points="370.19,-193.67 377.84,-186.34 367.29,-187.3 370.19,-193.67"/>
</g>
<!-- Reorder&#45;&gt;H5dfFormat -->
<g id="edge33" class="edge">
<title>Reorder&#45;&gt;H5dfFormat</title>
<path fill="none" stroke="black" d="M284.14,-221.14C285.63,-214.54 287.72,-205.24 289.61,-196.85"/>
<polygon fill="black" stroke="black" points="293.02,-197.62 291.8,-187.09 286.19,-196.08 293.02,-197.62"/>
</g>
<!-- Reorder&#45;&gt;FilesFormat -->
<g id="edge43" class="edge">
<title>Reorder&#45;&gt;FilesFormat</title>
<path fill="none" stroke="black" d="M268.25,-220.89C256,-212.93 237.91,-201.16 223.45,-191.76"/>
<polygon fill="black" stroke="black" points="225.7,-189.05 215.41,-186.53 221.88,-194.92 225.7,-189.05"/>
</g>
<!-- Keys -->
<g id="node23" class="node">
<title>Keys</title>
<g id="a_node23"><a xlink:href="../keys.html" xlink:title="Keys" target="_top">
<polygon fill="none" stroke="white" points="354.32,-406.56 320,-406.56 320,-387.24 354.32,-387.24 354.32,-406.56"/>
<text xml:space="preserve" text-anchor="middle" x="337.16" y="-391.1" font-family="Sans-Serif" font-size="14.00">Keys</text>
</a>
</g>
</g>
<!-- Keys&#45;&gt;Formats -->
<g id="edge23" class="edge">
<title>Keys&#45;&gt;Formats</title>
<path fill="none" stroke="black" d="M337.16,-387.1C337.16,-380.5 337.16,-371.2 337.16,-362.81"/>
<polygon fill="black" stroke="black" points="340.66,-363.09 337.16,-353.09 333.66,-363.09 340.66,-363.09"/>
</g>
<!-- FilesFormat&#45;&gt;HttpFormat -->
<g id="edge46" class="edge">
<title>FilesFormat&#45;&gt;HttpFormat</title>
<path fill="none" stroke="black" d="M194.35,-165.73C182.8,-148.06 156.76,-108.21 141.31,-84.57"/>
<polygon fill="black" stroke="black" points="144.28,-82.72 135.88,-76.26 138.42,-86.55 144.28,-82.72"/>
</g>
<!-- FilesFormat&#45;&gt;ExampleData -->
<g id="edge27" class="edge">
<title>FilesFormat&#45;&gt;ExampleData</title>
<path fill="none" stroke="black" d="M205.86,-165.63C214.43,-152.55 231.61,-127.96 250.16,-110.64 262.29,-99.32 277.54,-88.8 290.32,-80.82"/>
<polygon fill="black" stroke="black" points="291.91,-83.95 298.65,-75.78 288.28,-77.97 291.91,-83.95"/>
</g>
<!-- ZipFormat -->
<g id="node27" class="node">
<title>ZipFormat</title>
<g id="a_node27"><a xlink:href="../zip_files.html" xlink:title="ZipFormat" target="_top">
<polygon fill="none" stroke="white" points="99.44,-129.96 32.88,-129.96 32.88,-110.64 99.44,-110.64 99.44,-129.96"/>
<text xml:space="preserve" text-anchor="middle" x="66.16" y="-114.5" font-family="Sans-Serif" font-size="14.00">ZipFormat</text>
</a>
</g>
</g>
<!-- FilesFormat&#45;&gt;ZipFormat -->
<g id="edge31" class="edge">
<title>FilesFormat&#45;&gt;ZipFormat</title>
<path fill="none" stroke="black" d="M177.43,-165.57C156.06,-157.07 123.82,-144.24 99.53,-134.58"/>
<polygon fill="black" stroke="black" points="100.99,-131.39 90.41,-130.95 98.41,-137.9 100.99,-131.39"/>
</g>
<!-- ZipFormat&#45;&gt;ZarrFormat -->
<g id="edge28" class="edge">
<title>ZipFormat&#45;&gt;ZarrFormat</title>
<path fill="none" stroke="black" d="M61.54,-110.5C57.91,-103.59 52.73,-93.73 48.17,-85.04"/>
<polygon fill="black" stroke="black" points="51.34,-83.54 43.59,-76.32 45.14,-86.8 51.34,-83.54"/>
</g>
<!-- StorageTypes -->
<g id="node28" class="node">
<title>StorageTypes</title>
<g id="a_node28"><a xlink:href="../storage_types.html" xlink:title="StorageTypes" target="_top">
<polygon fill="none" stroke="white" points="478.32,-461.88 390,-461.88 390,-442.56 478.32,-442.56 478.32,-461.88"/>
<text xml:space="preserve" text-anchor="middle" x="434.16" y="-446.42" font-family="Sans-Serif" font-size="14.00">StorageTypes</text>
</a>
</g>
</g>
<!-- StorageTypes&#45;&gt;Registry -->
<g id="edge32" class="edge">
<title>StorageTypes&#45;&gt;Registry</title>
<path fill="none" stroke="black" d="M434.16,-442.42C434.16,-435.82 434.16,-426.52 434.16,-418.13"/>
<polygon fill="black" stroke="black" points="437.66,-418.41 434.16,-408.41 430.66,-418.41 437.66,-418.41"/>
</g>
<!-- LazySparse -->
<g id="node31" class="node">
<title>LazySparse</title>
<g id="a_node31"><a xlink:href="../lazy_sparse.html" xlink:title="LazySparse" target="_top">
<polygon fill="none" stroke="white" points="237.94,-240.6 162.38,-240.6 162.38,-221.28 237.94,-221.28 237.94,-240.6"/>
<text xml:space="preserve" text-anchor="middle" x="200.16" y="-225.14" font-family="Sans-Serif" font-size="14.00">LazySparse</text>
</a>
</g>
</g>
<!-- LazySparse&#45;&gt;FilesFormat -->
<g id="edge42" class="edge">
<title>LazySparse&#45;&gt;FilesFormat</title>
<path fill="none" stroke="black" d="M200.16,-221.14C200.16,-214.54 200.16,-205.24 200.16,-196.85"/>
<polygon fill="black" stroke="black" points="203.66,-197.13 200.16,-187.13 196.66,-197.13 203.66,-197.13"/>
</g>
</g>
</svg>
