<?xml version="1.0" encoding="UTF-8" standalone="no"?>
<!DOCTYPE svg PUBLIC "-//W3C//DTD SVG 1.1//EN"
 "http://www.w3.org/Graphics/SVG/1.1/DTD/svg11.dtd">
<!-- Generated by graphviz version 14.1.4 (20260321.0153)
 -->
<!-- Pages: 1 -->
<svg width="652pt" height="470pt"
 viewBox="0.00 0.00 652.00 470.00" xmlns="http://www.w3.org/2000/svg" xmlns:xlink="http://www.w3.org/1999/xlink">
<g id="graph0" class="graph" transform="scale(1 1) rotate(0) translate(4 465.88)">
<polygon fill="white" stroke="none" points="-4,4 -4,-465.88 648.19,-465.88 648.19,4 -4,4"/>
<!-- Copies -->
<g id="node1" class="node">
<title>Copies</title>
<g id="a_node1"><a xlink:href="../copies.html" xlink:title="Copies" target="_top">
<polygon fill="none" stroke="white" points="276.2,-129.96 229.88,-129.96 229.88,-110.64 276.2,-110.64 276.2,-129.96"/>
<text xml:space="preserve" text-anchor="middle" x="253.04" y="-114.5" font-family="Sans-Serif" font-size="14.00">Copies</text>
</a>
</g>
</g>
<!-- Adapters -->
<g id="node3" class="node">
<title>Adapters</title>
<g id="a_node3"><a xlink:href="../adapters.html" xlink:title="Adapters" target="_top">
<polygon fill="none" stroke="white" points="275.2,-19.32 216.88,-19.32 216.88,0 275.2,0 275.2,-19.32"/>
<text xml:space="preserve" text-anchor="middle" x="246.04" y="-3.86" font-family="Sans-Serif" font-size="14.00">Adapters</text>
</a>
</g>
</g>
<!-- Copies&#45;&gt;Adapters -->
<g id="edge4" class="edge">
<title>Copies&#45;&gt;Adapters</title>
<path fill="none" stroke="black" d="M252.46,-110.41C251.35,-93.14 248.87,-54.67 247.34,-30.88"/>
<polygon fill="black" stroke="black" points="250.85,-30.94 246.71,-21.18 243.86,-31.39 250.85,-30.94"/>
</g>
<!-- Concat -->
<g id="node24" class="node">
<title>Concat</title>
<g id="a_node24"><a xlink:href="../concat.html" xlink:title="Concat" target="_top">
<polygon fill="none" stroke="white" points="198.57,-74.64 151.5,-74.64 151.5,-55.32 198.57,-55.32 198.57,-74.64"/>
<text xml:space="preserve" text-anchor="middle" x="175.04" y="-59.18" font-family="Sans-Serif" font-size="14.00">Concat</text>
</a>
</g>
</g>
<!-- Copies&#45;&gt;Concat -->
<g id="edge35" class="edge">
<title>Copies&#45;&gt;Concat</title>
<path fill="none" stroke="black" d="M239.8,-110.25C228.26,-102.37 211.27,-90.75 197.59,-81.4"/>
<polygon fill="black" stroke="black" points="199.81,-78.68 189.58,-75.92 195.86,-84.46 199.81,-78.68"/>
</g>
<!-- Writers -->
<g id="node2" class="node">
<title>Writers</title>
<g id="a_node2"><a xlink:href="../writers.html" xlink:title="Writers" target="_top">
<polygon fill="none" stroke="white" points="411.57,-185.28 364.5,-185.28 364.5,-165.96 411.57,-165.96 411.57,-185.28"/>
<text xml:space="preserve" text-anchor="middle" x="388.04" y="-169.82" font-family="Sans-Serif" font-size="14.00">Writers</text>
</a>
</g>
</g>
<!-- Writers&#45;&gt;Copies -->
<g id="edge1" class="edge">
<title>Writers&#45;&gt;Copies</title>
<path fill="none" stroke="black" d="M365.13,-165.57C343.61,-157.07 311.12,-144.24 286.66,-134.58"/>
<polygon fill="black" stroke="black" points="288.04,-131.36 277.46,-130.95 285.47,-137.87 288.04,-131.36"/>
</g>
<!-- Chains -->
<g id="node4" class="node">
<title>Chains</title>
<g id="a_node4"><a xlink:href="../chains.html" xlink:title="Chains" target="_top">
<polygon fill="none" stroke="white" points="456.2,-129.96 409.88,-129.96 409.88,-110.64 456.2,-110.64 456.2,-129.96"/>
<text xml:space="preserve" text-anchor="middle" x="433.04" y="-114.5" font-family="Sans-Serif" font-size="14.00">Chains</text>
</a>
</g>
</g>
<!-- Writers&#45;&gt;Chains -->
<g id="edge29" class="edge">
<title>Writers&#45;&gt;Chains</title>
<path fill="none" stroke="black" d="M395.47,-165.82C401.62,-158.53 410.55,-147.94 418.16,-138.92"/>
<polygon fill="black" stroke="black" points="420.69,-141.35 424.47,-131.45 415.34,-136.84 420.69,-141.35"/>
</g>
<!-- MemoryFormat -->
<g id="node5" class="node">
<title>MemoryFormat</title>
<g id="a_node5"><a xlink:href="../memory_format.html" xlink:title="MemoryFormat" target="_top">
<polygon fill="none" stroke="white" points="392.07,-129.96 294,-129.96 294,-110.64 392.07,-110.64 392.07,-129.96"/>
<text xml:space="preserve" text-anchor="middle" x="343.04" y="-114.5" font-family="Sans-Serif" font-size="14.00">MemoryFormat</text>
</a>
</g>
</g>
<!-- Writers&#45;&gt;MemoryFormat -->
<g id="edge22" class="edge">
<title>Writers&#45;&gt;MemoryFormat</title>
<path fill="none" stroke="black" d="M380.6,-165.82C374.45,-158.53 365.52,-147.94 357.91,-138.92"/>
<polygon fill="black" stroke="black" points="360.73,-136.84 351.6,-131.45 355.38,-141.35 360.73,-136.84"/>
</g>
<!-- FilesFormat -->
<g id="node15" class="node">
<title>FilesFormat</title>
<g id="a_node15"><a xlink:href="../files_format.html" xlink:title="FilesFormat" target="_top">
<polygon fill="none" stroke="white" points="644.2,-129.96 567.88,-129.96 567.88,-110.64 644.2,-110.64 644.2,-129.96"/>
<text xml:space="preserve" text-anchor="middle" x="606.04" y="-114.5" font-family="Sans-Serif" font-size="14.00">FilesFormat</text>
</a>
</g>
</g>
<!-- Writers&#45;&gt;FilesFormat -->
<g id="edge32" class="edge">
<title>Writers&#45;&gt;FilesFormat</title>
<path fill="none" stroke="black" d="M411.78,-168.81C446.67,-160.28 512.56,-144.16 557.85,-133.09"/>
<polygon fill="black" stroke="black" points="558.53,-136.52 567.42,-130.75 556.87,-129.72 558.53,-136.52"/>
</g>
<!-- H5dfFormat -->
<g id="node16" class="node">
<title>H5dfFormat</title>
<g id="a_node16"><a xlink:href="../h5df_format.html" xlink:title="H5dfFormat" target="_top">
<polygon fill="none" stroke="white" points="550.2,-129.96 473.88,-129.96 473.88,-110.64 550.2,-110.64 550.2,-129.96"/>
<text xml:space="preserve" text-anchor="middle" x="512.04" y="-114.5" font-family="Sans-Serif" font-size="14.00">H5dfFormat</text>
</a>
</g>
</g>
<!-- Writers&#45;&gt;H5dfFormat -->
<g id="edge25" class="edge">
<title>Writers&#45;&gt;H5dfFormat</title>
<path fill="none" stroke="black" d="M409.07,-165.57C428.67,-157.15 458.14,-144.47 480.54,-134.84"/>
<polygon fill="black" stroke="black" points="481.7,-138.15 489.51,-130.99 478.94,-131.72 481.7,-138.15"/>
</g>
<!-- Reconstruction -->
<g id="node25" class="node">
<title>Reconstruction</title>
<g id="a_node25"><a xlink:href="../reconstruction.html" xlink:title="Reconstruction" target="_top">
<polygon fill="none" stroke="white" points="174.2,-129.96 79.88,-129.96 79.88,-110.64 174.2,-110.64 174.2,-129.96"/>
<text xml:space="preserve" text-anchor="middle" x="127.04" y="-114.5" font-family="Sans-Serif" font-size="14.00">Reconstruction</text>
</a>
</g>
</g>
<!-- Writers&#45;&gt;Reconstruction -->
<g id="edge37" class="edge">
<title>Writers&#45;&gt;Reconstruction</title>
<path fill="none" stroke="black" d="M364.29,-168.2C361.18,-167.41 358.04,-166.65 355.04,-165.96 297.77,-152.85 231.86,-140.2 185.68,-131.73"/>
<polygon fill="black" stroke="black" points="186.33,-128.29 175.87,-129.94 185.08,-135.18 186.33,-128.29"/>
</g>
<!-- Chains&#45;&gt;Adapters -->
<g id="edge2" class="edge">
<title>Chains&#45;&gt;Adapters</title>
<path fill="none" stroke="black" d="M456.52,-110.71C484.42,-99.24 524.93,-77.74 506.04,-55.32 478.47,-22.61 352.72,-13.86 286.73,-11.52"/>
<polygon fill="black" stroke="black" points="287.14,-8.03 277.04,-11.21 286.92,-15.02 287.14,-8.03"/>
</g>
<!-- CompleteDaf -->
<g id="node14" class="node">
<title>CompleteDaf</title>
<g id="a_node14"><a xlink:href="../complete.html" xlink:title="CompleteDaf" target="_top">
<polygon fill="none" stroke="white" points="636.95,-74.64 553.13,-74.64 553.13,-55.32 636.95,-55.32 636.95,-74.64"/>
<text xml:space="preserve" text-anchor="middle" x="595.04" y="-59.18" font-family="Sans-Serif" font-size="14.00">CompleteDaf</text>
</a>
</g>
</g>
<!-- Chains&#45;&gt;CompleteDaf -->
<g id="edge13" class="edge">
<title>Chains&#45;&gt;CompleteDaf</title>
<path fill="none" stroke="black" d="M456.59,-111.55C482.77,-102.93 525.45,-88.88 556.51,-78.66"/>
<polygon fill="black" stroke="black" points="557.54,-82.01 565.94,-75.56 555.35,-75.36 557.54,-82.01"/>
</g>
<!-- ExampleData -->
<g id="node20" class="node">
<title>ExampleData</title>
<g id="a_node20"><a xlink:href="../example_data.html" xlink:title="ExampleData" target="_top">
<polygon fill="none" stroke="white" points="497.07,-74.64 411,-74.64 411,-55.32 497.07,-55.32 497.07,-74.64"/>
<text xml:space="preserve" text-anchor="middle" x="454.04" y="-59.18" font-family="Sans-Serif" font-size="14.00">ExampleData</text>
</a>
</g>
</g>
<!-- Chains&#45;&gt;ExampleData -->
<g id="edge20" class="edge">
<title>Chains&#45;&gt;ExampleData</title>
<path fill="none" stroke="black" d="M436.5,-110.5C439.16,-103.74 442.93,-94.17 446.3,-85.62"/>
<polygon fill="black" stroke="black" points="449.53,-86.97 449.94,-76.38 443.02,-84.41 449.53,-86.97"/>
</g>
<!-- MemoryFormat&#45;&gt;Adapters -->
<g id="edge3" class="edge">
<title>MemoryFormat&#45;&gt;Adapters</title>
<path fill="none" stroke="black" d="M327.92,-110.22C315.17,-102.04 296.96,-89.1 284.04,-74.64 271.93,-61.09 261.66,-43.12 254.86,-29.68"/>
<polygon fill="black" stroke="black" points="258.16,-28.48 250.66,-21.01 251.86,-31.53 258.16,-28.48"/>
</g>
<!-- MemoryFormat&#45;&gt;ExampleData -->
<g id="edge21" class="edge">
<title>MemoryFormat&#45;&gt;ExampleData</title>
<path fill="none" stroke="black" d="M361.86,-110.25C379.09,-101.98 404.84,-89.61 424.74,-80.05"/>
<polygon fill="black" stroke="black" points="426.25,-83.21 433.75,-75.72 423.22,-76.9 426.25,-83.21"/>
</g>
<!-- AnnDataFormat -->
<g id="node23" class="node">
<title>AnnDataFormat</title>
<g id="a_node23"><a xlink:href="../anndata_format.html" xlink:title="AnnDataFormat" target="_top">
<polygon fill="none" stroke="white" points="393.2,-74.64 292.88,-74.64 292.88,-55.32 393.2,-55.32 393.2,-74.64"/>
<text xml:space="preserve" text-anchor="middle" x="343.04" y="-59.18" font-family="Sans-Serif" font-size="14.00">AnnDataFormat</text>
</a>
</g>
</g>
<!-- MemoryFormat&#45;&gt;AnnDataFormat -->
<g id="edge30" class="edge">
<title>MemoryFormat&#45;&gt;AnnDataFormat</title>
<path fill="none" stroke="black" d="M343.04,-110.5C343.04,-103.9 343.04,-94.6 343.04,-86.21"/>
<polygon fill="black" stroke="black" points="346.54,-86.49 343.04,-76.49 339.54,-86.49 346.54,-86.49"/>
</g>
<!-- Computations -->
<g id="node6" class="node">
<title>Computations</title>
<g id="a_node6"><a xlink:href="../computations.html" xlink:title="Computations" target="_top">
<polygon fill="none" stroke="white" points="104.2,-74.64 15.88,-74.64 15.88,-55.32 104.2,-55.32 104.2,-74.64"/>
<text xml:space="preserve" text-anchor="middle" x="60.04" y="-59.18" font-family="Sans-Serif" font-size="14.00">Computations</text>
</a>
</g>
</g>
<!-- Computations&#45;&gt;Adapters -->
<g id="edge5" class="edge">
<title>Computations&#45;&gt;Adapters</title>
<path fill="none" stroke="black" d="M91.59,-54.93C122.97,-45.94 171.25,-32.1 205.46,-22.29"/>
<polygon fill="black" stroke="black" points="206.38,-25.67 215.03,-19.55 204.45,-18.94 206.38,-25.67"/>
</g>
<!-- Views -->
<g id="node7" class="node">
<title>Views</title>
<g id="a_node7"><a xlink:href="../views.html" xlink:title="Views" target="_top">
<polygon fill="none" stroke="white" points="346.2,-185.28 305.88,-185.28 305.88,-165.96 346.2,-165.96 346.2,-185.28"/>
<text xml:space="preserve" text-anchor="middle" x="326.04" y="-169.82" font-family="Sans-Serif" font-size="14.00">Views</text>
</a>
</g>
</g>
<!-- Views&#45;&gt;Chains -->
<g id="edge28" class="edge">
<title>Views&#45;&gt;Chains</title>
<path fill="none" stroke="black" d="M344.19,-165.57C360.71,-157.34 385.38,-145.05 404.53,-135.5"/>
<polygon fill="black" stroke="black" points="406.05,-138.66 413.44,-131.06 402.93,-132.39 406.05,-138.66"/>
</g>
<!-- Contracts -->
<g id="node17" class="node">
<title>Contracts</title>
<g id="a_node17"><a xlink:href="../contracts.html" xlink:title="Contracts" target="_top">
<polygon fill="none" stroke="white" points="62.07,-129.96 0,-129.96 0,-110.64 62.07,-110.64 62.07,-129.96"/>
<text xml:space="preserve" text-anchor="middle" x="31.04" y="-114.5" font-family="Sans-Serif" font-size="14.00">Contracts</text>
</a>
</g>
</g>
<!-- Views&#45;&gt;Contracts -->
<g id="edge15" class="edge">
<title>Views&#45;&gt;Contracts</title>
<path fill="none" stroke="black" d="M305.49,-171.31C263.79,-164.52 165.97,-148.3 73.68,-130.41"/>
<polygon fill="black" stroke="black" points="74.42,-126.99 63.94,-128.52 73.08,-133.87 74.42,-126.99"/>
</g>
<!-- Views&#45;&gt;Concat -->
<g id="edge34" class="edge">
<title>Views&#45;&gt;Concat</title>
<path fill="none" stroke="black" d="M305.75,-169.56C283.24,-163.18 246.71,-150.5 221.04,-129.96 205.69,-117.69 193.09,-99.05 184.98,-85.05"/>
<polygon fill="black" stroke="black" points="188.08,-83.43 180.2,-76.35 181.95,-86.8 188.08,-83.43"/>
</g>
<!-- ReadOnly -->
<g id="node8" class="node">
<title>ReadOnly</title>
<g id="a_node8"><a xlink:href="../read_only.html" xlink:title="ReadOnly" target="_top">
<polygon fill="none" stroke="white" points="544.57,-240.6 479.5,-240.6 479.5,-221.28 544.57,-221.28 544.57,-240.6"/>
<text xml:space="preserve" text-anchor="middle" x="512.04" y="-225.14" font-family="Sans-Serif" font-size="14.00">ReadOnly</text>
</a>
</g>
</g>
<!-- ReadOnly&#45;&gt;Views -->
<g id="edge6" class="edge">
<title>ReadOnly&#45;&gt;Views</title>
<path fill="none" stroke="black" d="M479.53,-220.83C449.98,-212.51 404.92,-199.77 357.43,-185.95"/>
<polygon fill="black" stroke="black" points="358.65,-182.66 348.07,-183.23 356.69,-189.38 358.65,-182.66"/>
</g>
<!-- ReadOnly&#45;&gt;FilesFormat -->
<g id="edge31" class="edge">
<title>ReadOnly&#45;&gt;FilesFormat</title>
<path fill="none" stroke="black" d="M519.73,-221.05C535.22,-203.14 570.43,-162.45 590.77,-138.95"/>
<polygon fill="black" stroke="black" points="593.35,-141.31 597.25,-131.46 588.06,-136.73 593.35,-141.31"/>
</g>
<!-- ReadOnly&#45;&gt;H5dfFormat -->
<g id="edge24" class="edge">
<title>ReadOnly&#45;&gt;H5dfFormat</title>
<path fill="none" stroke="black" d="M512.04,-221.05C512.04,-203.78 512.04,-165.31 512.04,-141.52"/>
<polygon fill="black" stroke="black" points="515.54,-141.83 512.04,-131.83 508.54,-141.83 515.54,-141.83"/>
</g>
<!-- Queries -->
<g id="node9" class="node">
<title>Queries</title>
<g id="a_node9"><a xlink:href="../queries.html" xlink:title="Queries" target="_top">
<polygon fill="none" stroke="white" points="354.2,-240.6 301.88,-240.6 301.88,-221.28 354.2,-221.28 354.2,-240.6"/>
<text xml:space="preserve" text-anchor="middle" x="328.04" y="-225.14" font-family="Sans-Serif" font-size="14.00">Queries</text>
</a>
</g>
</g>
<!-- Queries&#45;&gt;Views -->
<g id="edge7" class="edge">
<title>Queries&#45;&gt;Views</title>
<path fill="none" stroke="black" d="M327.7,-221.14C327.46,-214.54 327.11,-205.24 326.79,-196.85"/>
<polygon fill="black" stroke="black" points="330.3,-196.99 326.43,-187.13 323.31,-197.25 330.3,-196.99"/>
</g>
<!-- Queries&#45;&gt;Reconstruction -->
<g id="edge38" class="edge">
<title>Queries&#45;&gt;Reconstruction</title>
<path fill="none" stroke="black" d="M311.24,-220.86C276.44,-202.05 196.16,-158.66 154.01,-135.88"/>
<polygon fill="black" stroke="black" points="155.71,-132.82 145.25,-131.15 152.38,-138.98 155.71,-132.82"/>
</g>
<!-- Operations -->
<g id="node10" class="node">
<title>Operations</title>
<g id="a_node10"><a xlink:href="../operations.html" xlink:title="Operations" target="_top">
<polygon fill="none" stroke="white" points="532.57,-295.92 461.5,-295.92 461.5,-276.6 532.57,-276.6 532.57,-295.92"/>
<text xml:space="preserve" text-anchor="middle" x="497.04" y="-280.46" font-family="Sans-Serif" font-size="14.00">Operations</text>
</a>
</g>
</g>
<!-- Operations&#45;&gt;Queries -->
<g id="edge11" class="edge">
<title>Operations&#45;&gt;Queries</title>
<path fill="none" stroke="black" d="M468.37,-276.21C440.02,-267.27 396.49,-253.54 365.44,-243.74"/>
<polygon fill="black" stroke="black" points="366.65,-240.45 356.06,-240.78 364.54,-247.13 366.65,-240.45"/>
</g>
<!-- Operations&#45;&gt;FilesFormat -->
<g id="edge33" class="edge">
<title>Operations&#45;&gt;FilesFormat</title>
<path fill="none" stroke="black" d="M512.58,-276.14C525.14,-268.11 542.57,-255.41 554.04,-240.6 577.93,-209.72 593.26,-166.17 600.7,-141.13"/>
<polygon fill="black" stroke="black" points="604.03,-142.2 603.39,-131.62 597.3,-140.29 604.03,-142.2"/>
</g>
<!-- Registry -->
<g id="node11" class="node">
<title>Registry</title>
<g id="a_node11"><a xlink:href="../registry.html" xlink:title="Registry" target="_top">
<polygon fill="none" stroke="white" points="461.95,-406.56 408.12,-406.56 408.12,-387.24 461.95,-387.24 461.95,-406.56"/>
<text xml:space="preserve" text-anchor="middle" x="435.04" y="-391.1" font-family="Sans-Serif" font-size="14.00">Registry</text>
</a>
</g>
</g>
<!-- Registry&#45;&gt;Operations -->
<g id="edge8" class="edge">
<title>Registry&#45;&gt;Operations</title>
<path fill="none" stroke="black" d="M440.11,-387.01C450.15,-369.42 472.73,-329.85 486.24,-306.17"/>
<polygon fill="black" stroke="black" points="489.22,-308.01 491.14,-297.59 483.14,-304.54 489.22,-308.01"/>
</g>
<!-- Formats -->
<g id="node18" class="node">
<title>Formats</title>
<g id="a_node18"><a xlink:href="../formats.html" xlink:title="Formats" target="_top">
<polygon fill="none" stroke="white" points="437.32,-351.24 382.75,-351.24 382.75,-331.92 437.32,-331.92 437.32,-351.24"/>
<text xml:space="preserve" text-anchor="middle" x="410.04" y="-335.78" font-family="Sans-Serif" font-size="14.00">Formats</text>
</a>
</g>
</g>
<!-- Registry&#45;&gt;Formats -->
<g id="edge17" class="edge">
<title>Registry&#45;&gt;Formats</title>
<path fill="none" stroke="black" d="M430.91,-387.1C427.71,-380.27 423.15,-370.55 419.11,-361.93"/>
<polygon fill="black" stroke="black" points="422.31,-360.51 414.9,-352.95 415.97,-363.49 422.31,-360.51"/>
</g>
<!-- Tokens -->
<g id="node12" class="node">
<title>Tokens</title>
<g id="a_node12"><a xlink:href="../tokens.html" xlink:title="Tokens" target="_top">
<polygon fill="none" stroke="white" points="526.57,-406.56 479.5,-406.56 479.5,-387.24 526.57,-387.24 526.57,-406.56"/>
<text xml:space="preserve" text-anchor="middle" x="503.04" y="-391.1" font-family="Sans-Serif" font-size="14.00">Tokens</text>
</a>
</g>
</g>
<!-- Tokens&#45;&gt;Operations -->
<g id="edge9" class="edge">
<title>Tokens&#45;&gt;Operations</title>
<path fill="none" stroke="black" d="M502.54,-387.01C501.59,-369.74 499.47,-331.27 498.15,-307.48"/>
<polygon fill="black" stroke="black" points="501.66,-307.58 497.62,-297.78 494.67,-307.96 501.66,-307.58"/>
</g>
<!-- Tokens&#45;&gt;Formats -->
<g id="edge18" class="edge">
<title>Tokens&#45;&gt;Formats</title>
<path fill="none" stroke="black" d="M487.26,-386.85C473.1,-378.74 452.05,-366.67 435.51,-357.18"/>
<polygon fill="black" stroke="black" points="437.62,-354.36 427.2,-352.42 434.14,-360.43 437.62,-354.36"/>
</g>
<!-- Readers -->
<g id="node13" class="node">
<title>Readers</title>
<g id="a_node13"><a xlink:href="../readers.html" xlink:title="Readers" target="_top">
<polygon fill="none" stroke="white" points="437.7,-295.92 382.38,-295.92 382.38,-276.6 437.7,-276.6 437.7,-295.92"/>
<text xml:space="preserve" text-anchor="middle" x="410.04" y="-280.46" font-family="Sans-Serif" font-size="14.00">Readers</text>
</a>
</g>
</g>
<!-- Readers&#45;&gt;Writers -->
<g id="edge27" class="edge">
<title>Readers&#45;&gt;Writers</title>
<path fill="none" stroke="black" d="M408.23,-276.37C404.74,-259.1 396.95,-220.63 392.13,-196.84"/>
<polygon fill="black" stroke="black" points="395.58,-196.22 390.16,-187.12 388.72,-197.61 395.58,-196.22"/>
</g>
<!-- Readers&#45;&gt;ReadOnly -->
<g id="edge39" class="edge">
<title>Readers&#45;&gt;ReadOnly</title>
<path fill="none" stroke="black" d="M427.34,-276.21C443.02,-268.02 466.39,-255.8 484.61,-246.28"/>
<polygon fill="black" stroke="black" points="486.07,-249.47 493.31,-241.73 482.82,-243.26 486.07,-249.47"/>
</g>
<!-- Readers&#45;&gt;Queries -->
<g id="edge10" class="edge">
<title>Readers&#45;&gt;Queries</title>
<path fill="none" stroke="black" d="M396.12,-276.21C383.87,-268.25 365.78,-256.48 351.32,-247.08"/>
<polygon fill="black" stroke="black" points="353.57,-244.37 343.28,-241.85 349.76,-250.24 353.57,-244.37"/>
</g>
<!-- Groups -->
<g id="node22" class="node">
<title>Groups</title>
<g id="a_node22"><a xlink:href="../groups.html" xlink:title="Groups" target="_top">
<polygon fill="none" stroke="white" points="461.7,-240.6 412.38,-240.6 412.38,-221.28 461.7,-221.28 461.7,-240.6"/>
<text xml:space="preserve" text-anchor="middle" x="437.04" y="-225.14" font-family="Sans-Serif" font-size="14.00">Groups</text>
</a>
</g>
</g>
<!-- Readers&#45;&gt;Groups -->
<g id="edge26" class="edge">
<title>Readers&#45;&gt;Groups</title>
<path fill="none" stroke="black" d="M414.49,-276.46C417.99,-269.55 422.98,-259.69 427.38,-251"/>
<polygon fill="black" stroke="black" points="430.4,-252.79 431.8,-242.29 424.16,-249.63 430.4,-252.79"/>
</g>
<!-- FilesFormat&#45;&gt;CompleteDaf -->
<g id="edge12" class="edge">
<title>FilesFormat&#45;&gt;CompleteDaf</title>
<path fill="none" stroke="black" d="M604.22,-110.5C602.86,-103.9 600.94,-94.6 599.21,-86.21"/>
<polygon fill="black" stroke="black" points="602.65,-85.54 597.2,-76.46 595.79,-86.96 602.65,-85.54"/>
</g>
<!-- FilesFormat&#45;&gt;ExampleData -->
<g id="edge19" class="edge">
<title>FilesFormat&#45;&gt;ExampleData</title>
<path fill="none" stroke="black" d="M580.25,-110.25C555.68,-101.64 518.45,-88.58 490.78,-78.87"/>
<polygon fill="black" stroke="black" points="491.97,-75.58 481.37,-75.57 489.65,-82.18 491.97,-75.58"/>
</g>
<!-- H5dfFormat&#45;&gt;CompleteDaf -->
<g id="edge14" class="edge">
<title>H5dfFormat&#45;&gt;CompleteDaf</title>
<path fill="none" stroke="black" d="M526.11,-110.25C538.52,-102.29 556.83,-90.52 571.46,-81.12"/>
<polygon fill="black" stroke="black" points="573.09,-84.24 579.61,-75.89 569.31,-78.35 573.09,-84.24"/>
</g>
<!-- Contracts&#45;&gt;Computations -->
<g id="edge36" class="edge">
<title>Contracts&#45;&gt;Computations</title>
<path fill="none" stroke="black" d="M35.82,-110.5C39.58,-103.59 44.94,-93.73 49.67,-85.04"/>
<polygon fill="black" stroke="black" points="52.72,-86.76 54.42,-76.31 46.57,-83.42 52.72,-86.76"/>
</g>
<!-- Formats&#45;&gt;Readers -->
<g id="edge40" class="edge">
<title>Formats&#45;&gt;Readers</title>
<path fill="none" stroke="black" d="M410.04,-331.78C410.04,-325.18 410.04,-315.88 410.04,-307.49"/>
<polygon fill="black" stroke="black" points="413.54,-307.77 410.04,-297.77 406.54,-307.77 413.54,-307.77"/>
</g>
<!-- Keys -->
<g id="node19" class="node">
<title>Keys</title>
<g id="a_node19"><a xlink:href="../keys.html" xlink:title="Keys" target="_top">
<polygon fill="none" stroke="white" points="390.2,-406.56 355.88,-406.56 355.88,-387.24 390.2,-387.24 390.2,-406.56"/>
<text xml:space="preserve" text-anchor="middle" x="373.04" y="-391.1" font-family="Sans-Serif" font-size="14.00">Keys</text>
</a>
</g>
</g>
<!-- Keys&#45;&gt;Formats -->
<g id="edge16" class="edge">
<title>Keys&#45;&gt;Formats</title>
<path fill="none" stroke="black" d="M379.14,-387.1C384.1,-379.96 391.24,-369.67 397.41,-360.78"/>
<polygon fill="black" stroke="black" points="400.1,-363.03 402.93,-352.82 394.35,-359.04 400.1,-363.03"/>
</g>
<!-- StorageTypes -->
<g id="node21" class="node">
<title>StorageTypes</title>
<g id="a_node21"><a xlink:href="../storage_types.html" xlink:title="StorageTypes" target="_top">
<polygon fill="none" stroke="white" points="479.2,-461.88 390.88,-461.88 390.88,-442.56 479.2,-442.56 479.2,-461.88"/>
<text xml:space="preserve" text-anchor="middle" x="435.04" y="-446.42" font-family="Sans-Serif" font-size="14.00">StorageTypes</text>
</a>
</g>
</g>
<!-- StorageTypes&#45;&gt;Registry -->
<g id="edge23" class="edge">
<title>StorageTypes&#45;&gt;Registry</title>
<path fill="none" stroke="black" d="M435.04,-442.42C435.04,-435.82 435.04,-426.52 435.04,-418.13"/>
<polygon fill="black" stroke="black" points="438.54,-418.41 435.04,-408.41 431.54,-418.41 438.54,-418.41"/>
</g>
</g>
</svg>
