<?xml version="1.0" encoding="UTF-8" standalone="no"?>
<!DOCTYPE svg PUBLIC "-//W3C//DTD SVG 1.1//EN"
 "http://www.w3.org/Graphics/SVG/1.1/DTD/svg11.dtd">
<!-- Generated by graphviz version 14.1.4 (20260321.0153)
 -->
<!-- Pages: 1 -->
<svg width="580pt" height="470pt"
 viewBox="0.00 0.00 580.00 470.00" xmlns="http://www.w3.org/2000/svg" xmlns:xlink="http://www.w3.org/1999/xlink">
<g id="graph0" class="graph" transform="scale(1 1) rotate(0) translate(4 465.88)">
<polygon fill="white" stroke="none" points="-4,4 -4,-465.88 576.3,-465.88 576.3,4 -4,4"/>
<!-- Copies -->
<g id="node1" class="node">
<title>Copies</title>
<g id="a_node1"><a xlink:href="../copies.html" xlink:title="Copies" target="_top">
<polygon fill="none" stroke="white" points="460.3,-185.28 413.98,-185.28 413.98,-165.96 460.3,-165.96 460.3,-185.28"/>
<text xml:space="preserve" text-anchor="middle" x="437.14" y="-169.82" font-family="Sans-Serif" font-size="14.00">Copies</text>
</a>
</g>
</g>
<!-- Adapters -->
<g id="node3" class="node">
<title>Adapters</title>
<g id="a_node3"><a xlink:href="../adapters.html" xlink:title="Adapters" target="_top">
<polygon fill="none" stroke="white" points="383.3,-19.32 324.98,-19.32 324.98,0 383.3,0 383.3,-19.32"/>
<text xml:space="preserve" text-anchor="middle" x="354.14" y="-3.86" font-family="Sans-Serif" font-size="14.00">Adapters</text>
</a>
</g>
</g>
<!-- Copies&#45;&gt;Adapters -->
<g id="edge5" class="edge">
<title>Copies&#45;&gt;Adapters</title>
<path fill="none" stroke="black" d="M451.37,-165.58C462.35,-157.69 476.73,-145.13 483.14,-129.96 486.49,-122.05 485.79,-118.81 483.14,-110.64 473.8,-81.77 466.25,-74.98 443.14,-55.32 427.55,-42.05 407.34,-31.51 390.12,-24"/>
<polygon fill="black" stroke="black" points="391.82,-20.92 381.25,-20.3 389.13,-27.38 391.82,-20.92"/>
</g>
<!-- Concat -->
<g id="node25" class="node">
<title>Concat</title>
<g id="a_node25"><a xlink:href="../concat.html" xlink:title="Concat" target="_top">
<polygon fill="none" stroke="white" points="473.68,-129.96 426.61,-129.96 426.61,-110.64 473.68,-110.64 473.68,-129.96"/>
<text xml:space="preserve" text-anchor="middle" x="450.14" y="-114.5" font-family="Sans-Serif" font-size="14.00">Concat</text>
</a>
</g>
</g>
<!-- Copies&#45;&gt;Concat -->
<g id="edge39" class="edge">
<title>Copies&#45;&gt;Concat</title>
<path fill="none" stroke="black" d="M439.29,-165.82C440.92,-159.14 443.22,-149.7 445.28,-141.23"/>
<polygon fill="black" stroke="black" points="448.62,-142.31 447.59,-131.77 441.82,-140.65 448.62,-142.31"/>
</g>
<!-- Writers -->
<g id="node2" class="node">
<title>Writers</title>
<g id="a_node2"><a xlink:href="../writers.html" xlink:title="Writers" target="_top">
<polygon fill="none" stroke="white" points="351.68,-240.6 304.61,-240.6 304.61,-221.28 351.68,-221.28 351.68,-240.6"/>
<text xml:space="preserve" text-anchor="middle" x="328.14" y="-225.14" font-family="Sans-Serif" font-size="14.00">Writers</text>
</a>
</g>
</g>
<!-- Writers&#45;&gt;Copies -->
<g id="edge1" class="edge">
<title>Writers&#45;&gt;Copies</title>
<path fill="none" stroke="black" d="M346.63,-220.89C363.54,-212.62 388.83,-200.25 408.38,-190.69"/>
<polygon fill="black" stroke="black" points="409.76,-193.91 417.2,-186.37 406.68,-187.62 409.76,-193.91"/>
</g>
<!-- Chains -->
<g id="node4" class="node">
<title>Chains</title>
<g id="a_node4"><a xlink:href="../chains.html" xlink:title="Chains" target="_top">
<polygon fill="none" stroke="white" points="328.3,-129.96 281.98,-129.96 281.98,-110.64 328.3,-110.64 328.3,-129.96"/>
<text xml:space="preserve" text-anchor="middle" x="305.14" y="-114.5" font-family="Sans-Serif" font-size="14.00">Chains</text>
</a>
</g>
</g>
<!-- Writers&#45;&gt;Chains -->
<g id="edge31" class="edge">
<title>Writers&#45;&gt;Chains</title>
<path fill="none" stroke="black" d="M326.26,-221.05C322.6,-203.78 314.46,-165.31 309.42,-141.52"/>
<polygon fill="black" stroke="black" points="312.86,-140.85 307.36,-131.79 306.01,-142.3 312.86,-140.85"/>
</g>
<!-- MemoryFormat -->
<g id="node5" class="node">
<title>MemoryFormat</title>
<g id="a_node5"><a xlink:href="../memory_format.html" xlink:title="MemoryFormat" target="_top">
<polygon fill="none" stroke="white" points="112.18,-185.28 14.11,-185.28 14.11,-165.96 112.18,-165.96 112.18,-185.28"/>
<text xml:space="preserve" text-anchor="middle" x="63.14" y="-169.82" font-family="Sans-Serif" font-size="14.00">MemoryFormat</text>
</a>
</g>
</g>
<!-- Writers&#45;&gt;MemoryFormat -->
<g id="edge23" class="edge">
<title>Writers&#45;&gt;MemoryFormat</title>
<path fill="none" stroke="black" d="M304.16,-225.11C262.71,-216.77 176.63,-199.46 119.37,-187.93"/>
<polygon fill="black" stroke="black" points="120.3,-184.55 109.81,-186.01 118.92,-191.41 120.3,-184.55"/>
</g>
<!-- FilesFormat -->
<g id="node15" class="node">
<title>FilesFormat</title>
<g id="a_node15"><a xlink:href="../files_format.html" xlink:title="FilesFormat" target="_top">
<polygon fill="none" stroke="white" points="300.3,-185.28 223.98,-185.28 223.98,-165.96 300.3,-165.96 300.3,-185.28"/>
<text xml:space="preserve" text-anchor="middle" x="262.14" y="-169.82" font-family="Sans-Serif" font-size="14.00">FilesFormat</text>
</a>
</g>
</g>
<!-- Writers&#45;&gt;FilesFormat -->
<g id="edge34" class="edge">
<title>Writers&#45;&gt;FilesFormat</title>
<path fill="none" stroke="black" d="M316.95,-220.89C307.41,-213.19 293.47,-201.93 282.04,-192.69"/>
<polygon fill="black" stroke="black" points="284.33,-190.04 274.35,-186.48 279.93,-195.49 284.33,-190.04"/>
</g>
<!-- H5dfFormat -->
<g id="node16" class="node">
<title>H5dfFormat</title>
<g id="a_node16"><a xlink:href="../h5df_format.html" xlink:title="H5dfFormat" target="_top">
<polygon fill="none" stroke="white" points="206.3,-185.28 129.98,-185.28 129.98,-165.96 206.3,-165.96 206.3,-185.28"/>
<text xml:space="preserve" text-anchor="middle" x="168.14" y="-169.82" font-family="Sans-Serif" font-size="14.00">H5dfFormat</text>
</a>
</g>
</g>
<!-- Writers&#45;&gt;H5dfFormat -->
<g id="edge26" class="edge">
<title>Writers&#45;&gt;H5dfFormat</title>
<path fill="none" stroke="black" d="M304.19,-221.96C278.26,-213.32 236.53,-199.41 206.12,-189.28"/>
<polygon fill="black" stroke="black" points="207.51,-186.05 196.92,-186.21 205.3,-192.69 207.51,-186.05"/>
</g>
<!-- Reconstruction -->
<g id="node26" class="node">
<title>Reconstruction</title>
<g id="a_node26"><a xlink:href="../reconstruction.html" xlink:title="Reconstruction" target="_top">
<polygon fill="none" stroke="white" points="572.3,-185.28 477.98,-185.28 477.98,-165.96 572.3,-165.96 572.3,-185.28"/>
<text xml:space="preserve" text-anchor="middle" x="525.14" y="-169.82" font-family="Sans-Serif" font-size="14.00">Reconstruction</text>
</a>
</g>
</g>
<!-- Writers&#45;&gt;Reconstruction -->
<g id="edge41" class="edge">
<title>Writers&#45;&gt;Reconstruction</title>
<path fill="none" stroke="black" d="M351.91,-223.51C383.64,-214.92 440.49,-199.53 480.38,-188.73"/>
<polygon fill="black" stroke="black" points="481.21,-192.14 489.95,-186.15 479.38,-185.38 481.21,-192.14"/>
</g>
<!-- Chains&#45;&gt;Adapters -->
<g id="edge2" class="edge">
<title>Chains&#45;&gt;Adapters</title>
<path fill="none" stroke="black" d="M309.15,-110.41C317.05,-92.9 334.77,-53.61 345.47,-29.9"/>
<polygon fill="black" stroke="black" points="348.53,-31.61 349.45,-21.05 342.15,-28.73 348.53,-31.61"/>
</g>
<!-- CompleteDaf -->
<g id="node14" class="node">
<title>CompleteDaf</title>
<g id="a_node14"><a xlink:href="../complete.html" xlink:title="CompleteDaf" target="_top">
<polygon fill="none" stroke="white" points="290.05,-74.64 206.23,-74.64 206.23,-55.32 290.05,-55.32 290.05,-74.64"/>
<text xml:space="preserve" text-anchor="middle" x="248.14" y="-59.18" font-family="Sans-Serif" font-size="14.00">CompleteDaf</text>
</a>
</g>
</g>
<!-- Chains&#45;&gt;CompleteDaf -->
<g id="edge12" class="edge">
<title>Chains&#45;&gt;CompleteDaf</title>
<path fill="none" stroke="black" d="M295.47,-110.25C287.4,-102.7 275.68,-91.74 265.92,-82.61"/>
<polygon fill="black" stroke="black" points="268.47,-80.2 258.77,-75.93 263.69,-85.31 268.47,-80.2"/>
</g>
<!-- ExampleData -->
<g id="node21" class="node">
<title>ExampleData</title>
<g id="a_node21"><a xlink:href="../example_data.html" xlink:title="ExampleData" target="_top">
<polygon fill="none" stroke="white" points="188.18,-74.64 102.11,-74.64 102.11,-55.32 188.18,-55.32 188.18,-74.64"/>
<text xml:space="preserve" text-anchor="middle" x="145.14" y="-59.18" font-family="Sans-Serif" font-size="14.00">ExampleData</text>
</a>
</g>
</g>
<!-- Chains&#45;&gt;ExampleData -->
<g id="edge22" class="edge">
<title>Chains&#45;&gt;ExampleData</title>
<path fill="none" stroke="black" d="M281.53,-111.43C255.68,-102.82 213.82,-88.87 183.29,-78.69"/>
<polygon fill="black" stroke="black" points="184.64,-75.45 174.04,-75.61 182.42,-82.09 184.64,-75.45"/>
</g>
<!-- MemoryFormat&#45;&gt;Adapters -->
<g id="edge3" class="edge">
<title>MemoryFormat&#45;&gt;Adapters</title>
<path fill="none" stroke="black" d="M43.49,-165.66C21.47,-154.28 -9.57,-133.37 3.14,-110.64 26.06,-69.66 49.21,-71.87 93.14,-55.32 167.73,-27.22 261.01,-16.7 313.45,-12.83"/>
<polygon fill="black" stroke="black" points="313.37,-16.35 323.11,-12.17 312.89,-9.36 313.37,-16.35"/>
</g>
<!-- MemoryFormat&#45;&gt;ExampleData -->
<g id="edge20" class="edge">
<title>MemoryFormat&#45;&gt;ExampleData</title>
<path fill="none" stroke="black" d="M79.43,-165.56C92.32,-157.65 109.96,-145.08 121.14,-129.96 130.86,-116.81 137.07,-99.28 140.74,-85.89"/>
<polygon fill="black" stroke="black" points="144.06,-87.02 143.05,-76.48 137.26,-85.35 144.06,-87.02"/>
</g>
<!-- AnnDataFormat -->
<g id="node24" class="node">
<title>AnnDataFormat</title>
<g id="a_node24"><a xlink:href="../anndata_format.html" xlink:title="AnnDataFormat" target="_top">
<polygon fill="none" stroke="white" points="112.3,-129.96 11.98,-129.96 11.98,-110.64 112.3,-110.64 112.3,-129.96"/>
<text xml:space="preserve" text-anchor="middle" x="62.14" y="-114.5" font-family="Sans-Serif" font-size="14.00">AnnDataFormat</text>
</a>
</g>
</g>
<!-- MemoryFormat&#45;&gt;AnnDataFormat -->
<g id="edge33" class="edge">
<title>MemoryFormat&#45;&gt;AnnDataFormat</title>
<path fill="none" stroke="black" d="M62.98,-165.82C62.85,-159.22 62.68,-149.92 62.52,-141.53"/>
<polygon fill="black" stroke="black" points="66.03,-141.74 62.34,-131.81 59.03,-141.87 66.03,-141.74"/>
</g>
<!-- Computations -->
<g id="node6" class="node">
<title>Computations</title>
<g id="a_node6"><a xlink:href="../computations.html" xlink:title="Computations" target="_top">
<polygon fill="none" stroke="white" points="434.3,-74.64 345.98,-74.64 345.98,-55.32 434.3,-55.32 434.3,-74.64"/>
<text xml:space="preserve" text-anchor="middle" x="390.14" y="-59.18" font-family="Sans-Serif" font-size="14.00">Computations</text>
</a>
</g>
</g>
<!-- Computations&#45;&gt;Adapters -->
<g id="edge4" class="edge">
<title>Computations&#45;&gt;Adapters</title>
<path fill="none" stroke="black" d="M384.2,-55.18C379.43,-48.12 372.58,-37.97 366.62,-29.14"/>
<polygon fill="black" stroke="black" points="369.56,-27.24 361.06,-20.91 363.76,-31.16 369.56,-27.24"/>
</g>
<!-- Views -->
<g id="node7" class="node">
<title>Views</title>
<g id="a_node7"><a xlink:href="../views.html" xlink:title="Views" target="_top">
<polygon fill="none" stroke="white" points="396.3,-185.28 355.98,-185.28 355.98,-165.96 396.3,-165.96 396.3,-185.28"/>
<text xml:space="preserve" text-anchor="middle" x="376.14" y="-169.82" font-family="Sans-Serif" font-size="14.00">Views</text>
</a>
</g>
</g>
<!-- Views&#45;&gt;Chains -->
<g id="edge32" class="edge">
<title>Views&#45;&gt;Chains</title>
<path fill="none" stroke="black" d="M364.1,-165.57C353.73,-157.79 338.54,-146.38 326.17,-137.09"/>
<polygon fill="black" stroke="black" points="328.32,-134.33 318.22,-131.12 324.11,-139.92 328.32,-134.33"/>
</g>
<!-- Contracts -->
<g id="node17" class="node">
<title>Contracts</title>
<g id="a_node17"><a xlink:href="../contracts.html" xlink:title="Contracts" target="_top">
<polygon fill="none" stroke="white" points="408.18,-129.96 346.11,-129.96 346.11,-110.64 408.18,-110.64 408.18,-129.96"/>
<text xml:space="preserve" text-anchor="middle" x="377.14" y="-114.5" font-family="Sans-Serif" font-size="14.00">Contracts</text>
</a>
</g>
</g>
<!-- Views&#45;&gt;Contracts -->
<g id="edge15" class="edge">
<title>Views&#45;&gt;Contracts</title>
<path fill="none" stroke="black" d="M376.31,-165.82C376.43,-159.22 376.61,-149.92 376.76,-141.53"/>
<polygon fill="black" stroke="black" points="380.26,-141.87 376.95,-131.81 373.26,-141.74 380.26,-141.87"/>
</g>
<!-- Views&#45;&gt;Concat -->
<g id="edge38" class="edge">
<title>Views&#45;&gt;Concat</title>
<path fill="none" stroke="black" d="M388.7,-165.57C399.6,-157.71 415.65,-146.16 428.6,-136.82"/>
<polygon fill="black" stroke="black" points="430.48,-139.78 436.55,-131.1 426.39,-134.1 430.48,-139.78"/>
</g>
<!-- ReadOnly -->
<g id="node8" class="node">
<title>ReadOnly</title>
<g id="a_node8"><a xlink:href="../read_only.html" xlink:title="ReadOnly" target="_top">
<polygon fill="none" stroke="white" points="247.68,-240.6 182.61,-240.6 182.61,-221.28 247.68,-221.28 247.68,-240.6"/>
<text xml:space="preserve" text-anchor="middle" x="215.14" y="-225.14" font-family="Sans-Serif" font-size="14.00">ReadOnly</text>
</a>
</g>
</g>
<!-- ReadOnly&#45;&gt;Views -->
<g id="edge6" class="edge">
<title>ReadOnly&#45;&gt;Views</title>
<path fill="none" stroke="black" d="M242.45,-220.89C270.93,-211.46 315.49,-196.71 345.24,-186.85"/>
<polygon fill="black" stroke="black" points="346.02,-190.28 354.41,-183.82 343.82,-183.64 346.02,-190.28"/>
</g>
<!-- ReadOnly&#45;&gt;FilesFormat -->
<g id="edge37" class="edge">
<title>ReadOnly&#45;&gt;FilesFormat</title>
<path fill="none" stroke="black" d="M222.9,-221.14C229.33,-213.85 238.66,-203.26 246.61,-194.24"/>
<polygon fill="black" stroke="black" points="249.22,-196.57 253.21,-186.75 243.97,-191.94 249.22,-196.57"/>
</g>
<!-- ReadOnly&#45;&gt;H5dfFormat -->
<g id="edge28" class="edge">
<title>ReadOnly&#45;&gt;H5dfFormat</title>
<path fill="none" stroke="black" d="M207.38,-221.14C200.96,-213.85 191.63,-203.26 183.68,-194.24"/>
<polygon fill="black" stroke="black" points="186.31,-191.94 177.07,-186.75 181.06,-196.57 186.31,-191.94"/>
</g>
<!-- Queries -->
<g id="node9" class="node">
<title>Queries</title>
<g id="a_node9"><a xlink:href="../queries.html" xlink:title="Queries" target="_top">
<polygon fill="none" stroke="white" points="422.3,-240.6 369.98,-240.6 369.98,-221.28 422.3,-221.28 422.3,-240.6"/>
<text xml:space="preserve" text-anchor="middle" x="396.14" y="-225.14" font-family="Sans-Serif" font-size="14.00">Queries</text>
</a>
</g>
</g>
<!-- Queries&#45;&gt;Views -->
<g id="edge7" class="edge">
<title>Queries&#45;&gt;Views</title>
<path fill="none" stroke="black" d="M392.84,-221.14C390.31,-214.38 386.71,-204.81 383.51,-196.26"/>
<polygon fill="black" stroke="black" points="386.84,-195.17 380.05,-187.03 380.28,-197.63 386.84,-195.17"/>
</g>
<!-- Queries&#45;&gt;Reconstruction -->
<g id="edge42" class="edge">
<title>Queries&#45;&gt;Reconstruction</title>
<path fill="none" stroke="black" d="M418.03,-220.89C438.5,-212.43 469.36,-199.68 492.7,-190.03"/>
<polygon fill="black" stroke="black" points="493.85,-193.34 501.75,-186.29 491.17,-186.87 493.85,-193.34"/>
</g>
<!-- Operations -->
<g id="node10" class="node">
<title>Operations</title>
<g id="a_node10"><a xlink:href="../operations.html" xlink:title="Operations" target="_top">
<polygon fill="none" stroke="white" points="337.68,-295.92 266.61,-295.92 266.61,-276.6 337.68,-276.6 337.68,-295.92"/>
<text xml:space="preserve" text-anchor="middle" x="302.14" y="-280.46" font-family="Sans-Serif" font-size="14.00">Operations</text>
</a>
</g>
</g>
<!-- Operations&#45;&gt;Queries -->
<g id="edge10" class="edge">
<title>Operations&#45;&gt;Queries</title>
<path fill="none" stroke="black" d="M318.09,-276.21C332.4,-268.1 353.67,-256.03 370.4,-246.54"/>
<polygon fill="black" stroke="black" points="371.83,-249.75 378.8,-241.78 368.38,-243.67 371.83,-249.75"/>
</g>
<!-- Operations&#45;&gt;FilesFormat -->
<g id="edge35" class="edge">
<title>Operations&#45;&gt;FilesFormat</title>
<path fill="none" stroke="black" d="M298.87,-276.37C292.45,-258.94 278.09,-219.92 269.34,-196.18"/>
<polygon fill="black" stroke="black" points="272.72,-195.23 265.98,-187.05 266.15,-197.65 272.72,-195.23"/>
</g>
<!-- Tokens -->
<g id="node11" class="node">
<title>Tokens</title>
<g id="a_node11"><a xlink:href="../tokens.html" xlink:title="Tokens" target="_top">
<polygon fill="none" stroke="white" points="331.68,-406.56 284.61,-406.56 284.61,-387.24 331.68,-387.24 331.68,-406.56"/>
<text xml:space="preserve" text-anchor="middle" x="308.14" y="-391.1" font-family="Sans-Serif" font-size="14.00">Tokens</text>
</a>
</g>
</g>
<!-- Tokens&#45;&gt;Operations -->
<g id="edge8" class="edge">
<title>Tokens&#45;&gt;Operations</title>
<path fill="none" stroke="black" d="M307.65,-387.01C306.7,-369.74 304.57,-331.27 303.26,-307.48"/>
<polygon fill="black" stroke="black" points="306.77,-307.58 302.72,-297.78 299.78,-307.96 306.77,-307.58"/>
</g>
<!-- Formats -->
<g id="node19" class="node">
<title>Formats</title>
<g id="a_node19"><a xlink:href="../formats.html" xlink:title="Formats" target="_top">
<polygon fill="none" stroke="white" points="242.43,-351.24 187.86,-351.24 187.86,-331.92 242.43,-331.92 242.43,-351.24"/>
<text xml:space="preserve" text-anchor="middle" x="215.14" y="-335.78" font-family="Sans-Serif" font-size="14.00">Formats</text>
</a>
</g>
</g>
<!-- Tokens&#45;&gt;Formats -->
<g id="edge19" class="edge">
<title>Tokens&#45;&gt;Formats</title>
<path fill="none" stroke="black" d="M292.37,-386.85C278.2,-378.74 257.16,-366.67 240.61,-357.18"/>
<polygon fill="black" stroke="black" points="242.73,-354.36 232.31,-352.42 239.24,-360.43 242.73,-354.36"/>
</g>
<!-- Registry -->
<g id="node12" class="node">
<title>Registry</title>
<g id="a_node12"><a xlink:href="../registry.html" xlink:title="Registry" target="_top">
<polygon fill="none" stroke="white" points="267.05,-406.56 213.23,-406.56 213.23,-387.24 267.05,-387.24 267.05,-406.56"/>
<text xml:space="preserve" text-anchor="middle" x="240.14" y="-391.1" font-family="Sans-Serif" font-size="14.00">Registry</text>
</a>
</g>
</g>
<!-- Registry&#45;&gt;Operations -->
<g id="edge9" class="edge">
<title>Registry&#45;&gt;Operations</title>
<path fill="none" stroke="black" d="M245.22,-387.01C255.25,-369.42 277.84,-329.85 291.35,-306.17"/>
<polygon fill="black" stroke="black" points="294.33,-308.01 296.25,-297.59 288.25,-304.54 294.33,-308.01"/>
</g>
<!-- Registry&#45;&gt;Formats -->
<g id="edge18" class="edge">
<title>Registry&#45;&gt;Formats</title>
<path fill="none" stroke="black" d="M236.01,-387.1C232.81,-380.27 228.26,-370.55 224.22,-361.93"/>
<polygon fill="black" stroke="black" points="227.42,-360.51 220,-352.95 221.08,-363.49 227.42,-360.51"/>
</g>
<!-- Readers -->
<g id="node13" class="node">
<title>Readers</title>
<g id="a_node13"><a xlink:href="../readers.html" xlink:title="Readers" target="_top">
<polygon fill="none" stroke="white" points="242.8,-295.92 187.48,-295.92 187.48,-276.6 242.8,-276.6 242.8,-295.92"/>
<text xml:space="preserve" text-anchor="middle" x="215.14" y="-280.46" font-family="Sans-Serif" font-size="14.00">Readers</text>
</a>
</g>
</g>
<!-- Readers&#45;&gt;Writers -->
<g id="edge30" class="edge">
<title>Readers&#45;&gt;Writers</title>
<path fill="none" stroke="black" d="M234.31,-276.21C251.92,-267.9 278.3,-255.46 298.61,-245.88"/>
<polygon fill="black" stroke="black" points="299.96,-249.11 307.51,-241.68 296.97,-242.78 299.96,-249.11"/>
</g>
<!-- Readers&#45;&gt;ReadOnly -->
<g id="edge43" class="edge">
<title>Readers&#45;&gt;ReadOnly</title>
<path fill="none" stroke="black" d="M215.14,-276.46C215.14,-269.86 215.14,-260.56 215.14,-252.17"/>
<polygon fill="black" stroke="black" points="218.64,-252.45 215.14,-242.45 211.64,-252.45 218.64,-252.45"/>
</g>
<!-- Readers&#45;&gt;Queries -->
<g id="edge11" class="edge">
<title>Readers&#45;&gt;Queries</title>
<path fill="none" stroke="black" d="M243.03,-277.05C274.03,-267.91 324.27,-253.11 358.68,-242.97"/>
<polygon fill="black" stroke="black" points="359.64,-246.34 368.25,-240.16 357.67,-239.63 359.64,-246.34"/>
</g>
<!-- Reorder -->
<g id="node18" class="node">
<title>Reorder</title>
<g id="a_node18"><a xlink:href="../reorder.html" xlink:title="Reorder" target="_top">
<polygon fill="none" stroke="white" points="97.68,-240.6 44.61,-240.6 44.61,-221.28 97.68,-221.28 97.68,-240.6"/>
<text xml:space="preserve" text-anchor="middle" x="71.14" y="-225.14" font-family="Sans-Serif" font-size="14.00">Reorder</text>
</a>
</g>
</g>
<!-- Readers&#45;&gt;Reorder -->
<g id="edge16" class="edge">
<title>Readers&#45;&gt;Reorder</title>
<path fill="none" stroke="black" d="M190.71,-276.21C167.54,-267.64 132.48,-254.65 106.3,-244.96"/>
<polygon fill="black" stroke="black" points="107.7,-241.75 97.11,-241.55 105.27,-248.31 107.7,-241.75"/>
</g>
<!-- Groups -->
<g id="node23" class="node">
<title>Groups</title>
<g id="a_node23"><a xlink:href="../groups.html" xlink:title="Groups" target="_top">
<polygon fill="none" stroke="white" points="164.8,-240.6 115.48,-240.6 115.48,-221.28 164.8,-221.28 164.8,-240.6"/>
<text xml:space="preserve" text-anchor="middle" x="140.14" y="-225.14" font-family="Sans-Serif" font-size="14.00">Groups</text>
</a>
</g>
</g>
<!-- Readers&#45;&gt;Groups -->
<g id="edge29" class="edge">
<title>Readers&#45;&gt;Groups</title>
<path fill="none" stroke="black" d="M202.42,-276.21C191.43,-268.4 175.3,-256.93 162.21,-247.63"/>
<polygon fill="black" stroke="black" points="164.34,-244.85 154.16,-241.91 160.28,-250.55 164.34,-244.85"/>
</g>
<!-- FilesFormat&#45;&gt;CompleteDaf -->
<g id="edge13" class="edge">
<title>FilesFormat&#45;&gt;CompleteDaf</title>
<path fill="none" stroke="black" d="M261,-165.73C258.77,-148.46 253.81,-109.99 250.75,-86.2"/>
<polygon fill="black" stroke="black" points="254.25,-85.97 249.5,-76.49 247.3,-86.86 254.25,-85.97"/>
</g>
<!-- FilesFormat&#45;&gt;ExampleData -->
<g id="edge21" class="edge">
<title>FilesFormat&#45;&gt;ExampleData</title>
<path fill="none" stroke="black" d="M252.57,-165.73C233.03,-147.59 188.29,-106.04 163.14,-82.69"/>
<polygon fill="black" stroke="black" points="165.67,-80.26 155.96,-76.02 160.9,-85.39 165.67,-80.26"/>
</g>
<!-- H5dfFormat&#45;&gt;CompleteDaf -->
<g id="edge14" class="edge">
<title>H5dfFormat&#45;&gt;CompleteDaf</title>
<path fill="none" stroke="black" d="M174.69,-165.73C187.76,-147.98 217.31,-107.85 234.68,-84.26"/>
<polygon fill="black" stroke="black" points="237.5,-86.34 240.61,-76.21 231.86,-82.19 237.5,-86.34"/>
</g>
<!-- Contracts&#45;&gt;Computations -->
<g id="edge40" class="edge">
<title>Contracts&#45;&gt;Computations</title>
<path fill="none" stroke="black" d="M379.29,-110.5C380.92,-103.82 383.22,-94.38 385.28,-85.91"/>
<polygon fill="black" stroke="black" points="388.62,-86.99 387.59,-76.45 381.82,-85.33 388.62,-86.99"/>
</g>
<!-- Reorder&#45;&gt;MemoryFormat -->
<g id="edge24" class="edge">
<title>Reorder&#45;&gt;MemoryFormat</title>
<path fill="none" stroke="black" d="M69.82,-221.14C68.83,-214.54 67.44,-205.24 66.18,-196.85"/>
<polygon fill="black" stroke="black" points="69.66,-196.48 64.72,-187.11 62.74,-197.52 69.66,-196.48"/>
</g>
<!-- Reorder&#45;&gt;FilesFormat -->
<g id="edge36" class="edge">
<title>Reorder&#45;&gt;FilesFormat</title>
<path fill="none" stroke="black" d="M98.1,-222.41C129.41,-213.67 181.5,-199.13 218.58,-188.78"/>
<polygon fill="black" stroke="black" points="219.42,-192.18 228.11,-186.12 217.54,-185.44 219.42,-192.18"/>
</g>
<!-- Reorder&#45;&gt;H5dfFormat -->
<g id="edge27" class="edge">
<title>Reorder&#45;&gt;H5dfFormat</title>
<path fill="none" stroke="black" d="M87.6,-220.89C102.37,-212.78 124.32,-200.71 141.57,-191.22"/>
<polygon fill="black" stroke="black" points="143.2,-194.32 150.28,-186.44 139.83,-188.19 143.2,-194.32"/>
</g>
<!-- Formats&#45;&gt;Readers -->
<g id="edge44" class="edge">
<title>Formats&#45;&gt;Readers</title>
<path fill="none" stroke="black" d="M215.14,-331.78C215.14,-325.18 215.14,-315.88 215.14,-307.49"/>
<polygon fill="black" stroke="black" points="218.64,-307.77 215.14,-297.77 211.64,-307.77 218.64,-307.77"/>
</g>
<!-- Keys -->
<g id="node20" class="node">
<title>Keys</title>
<g id="a_node20"><a xlink:href="../keys.html" xlink:title="Keys" target="_top">
<polygon fill="none" stroke="white" points="195.3,-406.56 160.98,-406.56 160.98,-387.24 195.3,-387.24 195.3,-406.56"/>
<text xml:space="preserve" text-anchor="middle" x="178.14" y="-391.1" font-family="Sans-Serif" font-size="14.00">Keys</text>
</a>
</g>
</g>
<!-- Keys&#45;&gt;Formats -->
<g id="edge17" class="edge">
<title>Keys&#45;&gt;Formats</title>
<path fill="none" stroke="black" d="M184.25,-387.1C189.2,-379.96 196.35,-369.67 202.52,-360.78"/>
<polygon fill="black" stroke="black" points="205.21,-363.03 208.04,-352.82 199.46,-359.04 205.21,-363.03"/>
</g>
<!-- StorageTypes -->
<g id="node22" class="node">
<title>StorageTypes</title>
<g id="a_node22"><a xlink:href="../storage_types.html" xlink:title="StorageTypes" target="_top">
<polygon fill="none" stroke="white" points="284.3,-461.88 195.98,-461.88 195.98,-442.56 284.3,-442.56 284.3,-461.88"/>
<text xml:space="preserve" text-anchor="middle" x="240.14" y="-446.42" font-family="Sans-Serif" font-size="14.00">StorageTypes</text>
</a>
</g>
</g>
<!-- StorageTypes&#45;&gt;Registry -->
<g id="edge25" class="edge">
<title>StorageTypes&#45;&gt;Registry</title>
<path fill="none" stroke="black" d="M240.14,-442.42C240.14,-435.82 240.14,-426.52 240.14,-418.13"/>
<polygon fill="black" stroke="black" points="243.64,-418.41 240.14,-408.41 236.64,-418.41 243.64,-418.41"/>
</g>
</g>
</svg>
