<?xml version="1.0" encoding="UTF-8" standalone="no"?>
<!DOCTYPE svg PUBLIC "-//W3C//DTD SVG 1.1//EN"
 "http://www.w3.org/Graphics/SVG/1.1/DTD/svg11.dtd">
<!-- Generated by graphviz version 14.1.4 (20260321.0153)
 -->
<!-- Pages: 1 -->
<svg width="750pt" height="470pt"
 viewBox="0.00 0.00 750.00 470.00" xmlns="http://www.w3.org/2000/svg" xmlns:xlink="http://www.w3.org/1999/xlink">
<g id="graph0" class="graph" transform="scale(1 1) rotate(0) translate(4 465.88)">
<polygon fill="white" stroke="none" points="-4,4 -4,-465.88 745.69,-465.88 745.69,4 -4,4"/>
<!-- Copies -->
<g id="node1" class="node">
<title>Copies</title>
<g id="a_node1"><a xlink:href="../copies.html" xlink:title="Copies" target="_top">
<polygon fill="none" stroke="white" points="629.69,-185.28 583.38,-185.28 583.38,-165.96 629.69,-165.96 629.69,-185.28"/>
<text xml:space="preserve" text-anchor="middle" x="606.53" y="-169.82" font-family="Sans-Serif" font-size="14.00">Copies</text>
</a>
</g>
</g>
<!-- Adapters -->
<g id="node3" class="node">
<title>Adapters</title>
<g id="a_node3"><a xlink:href="../adapters.html" xlink:title="Adapters" target="_top">
<polygon fill="none" stroke="white" points="591.69,-19.32 533.38,-19.32 533.38,0 591.69,0 591.69,-19.32"/>
<text xml:space="preserve" text-anchor="middle" x="562.53" y="-3.86" font-family="Sans-Serif" font-size="14.00">Adapters</text>
</a>
</g>
</g>
<!-- Copies&#45;&gt;Adapters -->
<g id="edge2" class="edge">
<title>Copies&#45;&gt;Adapters</title>
<path fill="none" stroke="black" d="M629.84,-167.26C656.02,-158.45 695.99,-143.25 704.53,-129.96 709.18,-122.74 707.74,-118.61 704.53,-110.64 686.76,-66.4 636.76,-38.66 601.13,-23.92"/>
<polygon fill="black" stroke="black" points="602.58,-20.73 591.99,-20.32 600.01,-27.25 602.58,-20.73"/>
</g>
<!-- Concat -->
<g id="node29" class="node">
<title>Concat</title>
<g id="a_node29"><a xlink:href="../concat.html" xlink:title="Concat" target="_top">
<polygon fill="none" stroke="white" points="695.07,-129.96 648,-129.96 648,-110.64 695.07,-110.64 695.07,-129.96"/>
<text xml:space="preserve" text-anchor="middle" x="671.53" y="-114.5" font-family="Sans-Serif" font-size="14.00">Concat</text>
</a>
</g>
</g>
<!-- Copies&#45;&gt;Concat -->
<g id="edge49" class="edge">
<title>Copies&#45;&gt;Concat</title>
<path fill="none" stroke="black" d="M617.56,-165.57C626.96,-157.87 640.68,-146.61 651.94,-137.37"/>
<polygon fill="black" stroke="black" points="653.99,-140.22 659.5,-131.17 649.55,-134.81 653.99,-140.22"/>
</g>
<!-- Writers -->
<g id="node2" class="node">
<title>Writers</title>
<g id="a_node2"><a xlink:href="../writers.html" xlink:title="Writers" target="_top">
<polygon fill="none" stroke="white" points="426.07,-240.6 379,-240.6 379,-221.28 426.07,-221.28 426.07,-240.6"/>
<text xml:space="preserve" text-anchor="middle" x="402.53" y="-225.14" font-family="Sans-Serif" font-size="14.00">Writers</text>
</a>
</g>
</g>
<!-- Writers&#45;&gt;Copies -->
<g id="edge1" class="edge">
<title>Writers&#45;&gt;Copies</title>
<path fill="none" stroke="black" d="M426.33,-223.69C429.42,-222.88 432.55,-222.06 435.53,-221.28 493.91,-206.06 511.01,-202.04 572.07,-185.91"/>
<polygon fill="black" stroke="black" points="572.89,-189.32 581.66,-183.37 571.1,-182.55 572.89,-189.32"/>
</g>
<!-- MemoryFormat -->
<g id="node4" class="node">
<title>MemoryFormat</title>
<g id="a_node4"><a xlink:href="../memory_format.html" xlink:title="MemoryFormat" target="_top">
<polygon fill="none" stroke="white" points="446.57,-185.28 348.5,-185.28 348.5,-165.96 446.57,-165.96 446.57,-185.28"/>
<text xml:space="preserve" text-anchor="middle" x="397.53" y="-169.82" font-family="Sans-Serif" font-size="14.00">MemoryFormat</text>
</a>
</g>
</g>
<!-- Writers&#45;&gt;MemoryFormat -->
<g id="edge32" class="edge">
<title>Writers&#45;&gt;MemoryFormat</title>
<path fill="none" stroke="black" d="M401.71,-221.14C401.09,-214.54 400.22,-205.24 399.43,-196.85"/>
<polygon fill="black" stroke="black" points="402.94,-196.75 398.52,-187.12 395.97,-197.41 402.94,-196.75"/>
</g>
<!-- Chains -->
<g id="node5" class="node">
<title>Chains</title>
<g id="a_node5"><a xlink:href="../chains.html" xlink:title="Chains" target="_top">
<polygon fill="none" stroke="white" points="549.69,-129.96 503.37,-129.96 503.37,-110.64 549.69,-110.64 549.69,-129.96"/>
<text xml:space="preserve" text-anchor="middle" x="526.53" y="-114.5" font-family="Sans-Serif" font-size="14.00">Chains</text>
</a>
</g>
</g>
<!-- Writers&#45;&gt;Chains -->
<g id="edge40" class="edge">
<title>Writers&#45;&gt;Chains</title>
<path fill="none" stroke="black" d="M413.59,-220.81C424.37,-211.85 441.2,-197.77 455.53,-185.28 473.8,-169.36 494.33,-150.79 508.59,-137.77"/>
<polygon fill="black" stroke="black" points="510.85,-140.45 515.86,-131.12 506.12,-135.29 510.85,-140.45"/>
</g>
<!-- ZarrFormat -->
<g id="node15" class="node">
<title>ZarrFormat</title>
<g id="a_node15"><a xlink:href="../zarr_format.html" xlink:title="ZarrFormat" target="_top">
<polygon fill="none" stroke="white" points="94.82,-185.28 22.25,-185.28 22.25,-165.96 94.82,-165.96 94.82,-185.28"/>
<text xml:space="preserve" text-anchor="middle" x="58.53" y="-169.82" font-family="Sans-Serif" font-size="14.00">ZarrFormat</text>
</a>
</g>
</g>
<!-- Writers&#45;&gt;ZarrFormat -->
<g id="edge28" class="edge">
<title>Writers&#45;&gt;ZarrFormat</title>
<path fill="none" stroke="black" d="M378.84,-226.74C329.88,-220.07 213.77,-203.86 105.94,-185.63"/>
<polygon fill="black" stroke="black" points="106.8,-182.23 96.35,-184 105.62,-189.13 106.8,-182.23"/>
</g>
<!-- FilesFormat -->
<g id="node17" class="node">
<title>FilesFormat</title>
<g id="a_node17"><a xlink:href="../files_format.html" xlink:title="FilesFormat" target="_top">
<polygon fill="none" stroke="white" points="282.69,-185.28 206.38,-185.28 206.38,-165.96 282.69,-165.96 282.69,-185.28"/>
<text xml:space="preserve" text-anchor="middle" x="244.53" y="-169.82" font-family="Sans-Serif" font-size="14.00">FilesFormat</text>
</a>
</g>
</g>
<!-- Writers&#45;&gt;FilesFormat -->
<g id="edge45" class="edge">
<title>Writers&#45;&gt;FilesFormat</title>
<path fill="none" stroke="black" d="M378.54,-221.84C353.05,-213.24 312.39,-199.52 282.54,-189.44"/>
<polygon fill="black" stroke="black" points="283.71,-186.15 273.11,-186.26 281.47,-192.78 283.71,-186.15"/>
</g>
<!-- H5dfFormat -->
<g id="node18" class="node">
<title>H5dfFormat</title>
<g id="a_node18"><a xlink:href="../h5df_format.html" xlink:title="H5dfFormat" target="_top">
<polygon fill="none" stroke="white" points="188.69,-185.28 112.38,-185.28 112.38,-165.96 188.69,-165.96 188.69,-185.28"/>
<text xml:space="preserve" text-anchor="middle" x="150.53" y="-169.82" font-family="Sans-Serif" font-size="14.00">H5dfFormat</text>
</a>
</g>
</g>
<!-- Writers&#45;&gt;H5dfFormat -->
<g id="edge36" class="edge">
<title>Writers&#45;&gt;H5dfFormat</title>
<path fill="none" stroke="black" d="M378.83,-224.92C338.11,-216.31 254.05,-198.52 200.09,-187.1"/>
<polygon fill="black" stroke="black" points="201.04,-183.73 190.53,-185.08 199.59,-190.58 201.04,-183.73"/>
</g>
<!-- Reconstruction -->
<g id="node30" class="node">
<title>Reconstruction</title>
<g id="a_node30"><a xlink:href="../reconstruction.html" xlink:title="Reconstruction" target="_top">
<polygon fill="none" stroke="white" points="741.69,-185.28 647.38,-185.28 647.38,-165.96 741.69,-165.96 741.69,-185.28"/>
<text xml:space="preserve" text-anchor="middle" x="694.53" y="-169.82" font-family="Sans-Serif" font-size="14.00">Reconstruction</text>
</a>
</g>
</g>
<!-- Writers&#45;&gt;Reconstruction -->
<g id="edge52" class="edge">
<title>Writers&#45;&gt;Reconstruction</title>
<path fill="none" stroke="black" d="M426.27,-223.45C429.38,-222.68 432.53,-221.93 435.53,-221.28 472.76,-213.2 571.61,-196.66 635.86,-186.14"/>
<polygon fill="black" stroke="black" points="636.24,-189.62 645.54,-184.55 635.11,-182.71 636.24,-189.62"/>
</g>
<!-- MemoryFormat&#45;&gt;Adapters -->
<g id="edge3" class="edge">
<title>MemoryFormat&#45;&gt;Adapters</title>
<path fill="none" stroke="black" d="M378.01,-165.51C356.97,-154.28 327.82,-133.82 338.53,-110.64 370.39,-41.7 466.55,-20.29 521.97,-13.65"/>
<polygon fill="black" stroke="black" points="522.07,-17.16 531.64,-12.61 521.32,-10.2 522.07,-17.16"/>
</g>
<!-- ExampleData -->
<g id="node24" class="node">
<title>ExampleData</title>
<g id="a_node24"><a xlink:href="../example_data.html" xlink:title="ExampleData" target="_top">
<polygon fill="none" stroke="white" points="498.57,-74.64 412.5,-74.64 412.5,-55.32 498.57,-55.32 498.57,-74.64"/>
<text xml:space="preserve" text-anchor="middle" x="455.53" y="-59.18" font-family="Sans-Serif" font-size="14.00">ExampleData</text>
</a>
</g>
</g>
<!-- MemoryFormat&#45;&gt;ExampleData -->
<g id="edge25" class="edge">
<title>MemoryFormat&#45;&gt;ExampleData</title>
<path fill="none" stroke="black" d="M417.67,-165.5C431.39,-158.08 448.47,-146.18 456.53,-129.96 463.28,-116.39 462.55,-99.12 460.4,-85.94"/>
<polygon fill="black" stroke="black" points="463.86,-85.38 458.41,-76.3 457.01,-86.8 463.86,-85.38"/>
</g>
<!-- AnnDataFormat -->
<g id="node28" class="node">
<title>AnnDataFormat</title>
<g id="a_node28"><a xlink:href="../anndata_format.html" xlink:title="AnnDataFormat" target="_top">
<polygon fill="none" stroke="white" points="447.69,-129.96 347.38,-129.96 347.38,-110.64 447.69,-110.64 447.69,-129.96"/>
<text xml:space="preserve" text-anchor="middle" x="397.53" y="-114.5" font-family="Sans-Serif" font-size="14.00">AnnDataFormat</text>
</a>
</g>
</g>
<!-- MemoryFormat&#45;&gt;AnnDataFormat -->
<g id="edge41" class="edge">
<title>MemoryFormat&#45;&gt;AnnDataFormat</title>
<path fill="none" stroke="black" d="M397.53,-165.82C397.53,-159.22 397.53,-149.92 397.53,-141.53"/>
<polygon fill="black" stroke="black" points="401.04,-141.81 397.54,-131.81 394.04,-141.81 401.04,-141.81"/>
</g>
<!-- Chains&#45;&gt;Adapters -->
<g id="edge4" class="edge">
<title>Chains&#45;&gt;Adapters</title>
<path fill="none" stroke="black" d="M528.91,-110.54C532.32,-98.16 538.93,-74.86 545.53,-55.32 548.36,-46.97 551.77,-37.86 554.79,-30.06"/>
<polygon fill="black" stroke="black" points="557.99,-31.48 558.4,-20.89 551.48,-28.92 557.99,-31.48"/>
</g>
<!-- CompleteDaf -->
<g id="node14" class="node">
<title>CompleteDaf</title>
<g id="a_node14"><a xlink:href="../complete.html" xlink:title="CompleteDaf" target="_top">
<polygon fill="none" stroke="white" points="247.44,-74.64 163.62,-74.64 163.62,-55.32 247.44,-55.32 247.44,-74.64"/>
<text xml:space="preserve" text-anchor="middle" x="205.53" y="-59.18" font-family="Sans-Serif" font-size="14.00">CompleteDaf</text>
</a>
</g>
</g>
<!-- Chains&#45;&gt;CompleteDaf -->
<g id="edge14" class="edge">
<title>Chains&#45;&gt;CompleteDaf</title>
<path fill="none" stroke="black" d="M502.93,-115.38C451.84,-106.89 329.92,-86.64 259.06,-74.87"/>
<polygon fill="black" stroke="black" points="259.66,-71.42 249.22,-73.24 258.51,-78.33 259.66,-71.42"/>
</g>
<!-- Chains&#45;&gt;ExampleData -->
<g id="edge24" class="edge">
<title>Chains&#45;&gt;ExampleData</title>
<path fill="none" stroke="black" d="M514.49,-110.25C504.13,-102.47 488.93,-91.06 476.57,-81.77"/>
<polygon fill="black" stroke="black" points="478.71,-79.01 468.61,-75.8 474.51,-84.6 478.71,-79.01"/>
</g>
<!-- Computations -->
<g id="node6" class="node">
<title>Computations</title>
<g id="a_node6"><a xlink:href="../computations.html" xlink:title="Computations" target="_top">
<polygon fill="none" stroke="white" points="642.69,-74.64 554.38,-74.64 554.38,-55.32 642.69,-55.32 642.69,-74.64"/>
<text xml:space="preserve" text-anchor="middle" x="598.53" y="-59.18" font-family="Sans-Serif" font-size="14.00">Computations</text>
</a>
</g>
</g>
<!-- Computations&#45;&gt;Adapters -->
<g id="edge5" class="edge">
<title>Computations&#45;&gt;Adapters</title>
<path fill="none" stroke="black" d="M592.59,-55.18C587.82,-48.12 580.97,-37.97 575.01,-29.14"/>
<polygon fill="black" stroke="black" points="577.95,-27.24 569.46,-20.91 572.15,-31.16 577.95,-27.24"/>
</g>
<!-- Views -->
<g id="node7" class="node">
<title>Views</title>
<g id="a_node7"><a xlink:href="../views.html" xlink:title="Views" target="_top">
<polygon fill="none" stroke="white" points="565.69,-185.28 525.38,-185.28 525.38,-165.96 565.69,-165.96 565.69,-185.28"/>
<text xml:space="preserve" text-anchor="middle" x="545.53" y="-169.82" font-family="Sans-Serif" font-size="14.00">Views</text>
</a>
</g>
</g>
<!-- Views&#45;&gt;Chains -->
<g id="edge39" class="edge">
<title>Views&#45;&gt;Chains</title>
<path fill="none" stroke="black" d="M542.4,-165.82C539.99,-159.06 536.58,-149.49 533.53,-140.94"/>
<polygon fill="black" stroke="black" points="536.9,-139.97 530.25,-131.72 530.31,-142.32 536.9,-139.97"/>
</g>
<!-- Contracts -->
<g id="node19" class="node">
<title>Contracts</title>
<g id="a_node19"><a xlink:href="../contracts.html" xlink:title="Contracts" target="_top">
<polygon fill="none" stroke="white" points="629.57,-129.96 567.5,-129.96 567.5,-110.64 629.57,-110.64 629.57,-129.96"/>
<text xml:space="preserve" text-anchor="middle" x="598.53" y="-114.5" font-family="Sans-Serif" font-size="14.00">Contracts</text>
</a>
</g>
</g>
<!-- Views&#45;&gt;Contracts -->
<g id="edge17" class="edge">
<title>Views&#45;&gt;Contracts</title>
<path fill="none" stroke="black" d="M554.29,-165.82C561.68,-158.37 572.5,-147.5 581.58,-138.36"/>
<polygon fill="black" stroke="black" points="583.96,-140.93 588.53,-131.37 578.99,-135.99 583.96,-140.93"/>
</g>
<!-- Views&#45;&gt;Concat -->
<g id="edge48" class="edge">
<title>Views&#45;&gt;Concat</title>
<path fill="none" stroke="black" d="M566.06,-165.93C586.05,-157.48 616.71,-144.5 639.83,-134.72"/>
<polygon fill="black" stroke="black" points="640.94,-138.05 648.78,-130.93 638.21,-131.6 640.94,-138.05"/>
</g>
<!-- ReadOnly -->
<g id="node8" class="node">
<title>ReadOnly</title>
<g id="a_node8"><a xlink:href="../read_only.html" xlink:title="ReadOnly" target="_top">
<polygon fill="none" stroke="white" points="255.07,-240.6 190,-240.6 190,-221.28 255.07,-221.28 255.07,-240.6"/>
<text xml:space="preserve" text-anchor="middle" x="222.53" y="-225.14" font-family="Sans-Serif" font-size="14.00">ReadOnly</text>
</a>
</g>
</g>
<!-- ReadOnly&#45;&gt;Views -->
<g id="edge6" class="edge">
<title>ReadOnly&#45;&gt;Views</title>
<path fill="none" stroke="black" d="M255.18,-222.89C258,-222.33 260.82,-221.78 263.53,-221.28 353.98,-204.58 461.46,-188.63 513.77,-181.11"/>
<polygon fill="black" stroke="black" points="514.05,-184.61 523.45,-179.73 513.06,-177.68 514.05,-184.61"/>
</g>
<!-- ReadOnly&#45;&gt;ZarrFormat -->
<g id="edge27" class="edge">
<title>ReadOnly&#45;&gt;ZarrFormat</title>
<path fill="none" stroke="black" d="M194.71,-220.89C167.97,-212.2 127.32,-198.98 97.39,-189.25"/>
<polygon fill="black" stroke="black" points="98.52,-185.94 87.93,-186.18 96.36,-192.6 98.52,-185.94"/>
</g>
<!-- ReadOnly&#45;&gt;FilesFormat -->
<g id="edge42" class="edge">
<title>ReadOnly&#45;&gt;FilesFormat</title>
<path fill="none" stroke="black" d="M226.17,-221.14C228.99,-214.31 233,-204.59 236.55,-195.97"/>
<polygon fill="black" stroke="black" points="239.67,-197.59 240.25,-187.02 233.2,-194.92 239.67,-197.59"/>
</g>
<!-- ReadOnly&#45;&gt;H5dfFormat -->
<g id="edge34" class="edge">
<title>ReadOnly&#45;&gt;H5dfFormat</title>
<path fill="none" stroke="black" d="M210.32,-220.89C199.71,-213.03 184.1,-201.48 171.49,-192.14"/>
<polygon fill="black" stroke="black" points="173.9,-189.57 163.78,-186.43 169.74,-195.2 173.9,-189.57"/>
</g>
<!-- Queries -->
<g id="node9" class="node">
<title>Queries</title>
<g id="a_node9"><a xlink:href="../queries.html" xlink:title="Queries" target="_top">
<polygon fill="none" stroke="white" points="586.69,-240.6 534.38,-240.6 534.38,-221.28 586.69,-221.28 586.69,-240.6"/>
<text xml:space="preserve" text-anchor="middle" x="560.53" y="-225.14" font-family="Sans-Serif" font-size="14.00">Queries</text>
</a>
</g>
</g>
<!-- Queries&#45;&gt;Views -->
<g id="edge7" class="edge">
<title>Queries&#45;&gt;Views</title>
<path fill="none" stroke="black" d="M558.06,-221.14C556.18,-214.46 553.53,-205.02 551.14,-196.55"/>
<polygon fill="black" stroke="black" points="554.55,-195.75 548.48,-187.07 547.81,-197.65 554.55,-195.75"/>
</g>
<!-- Queries&#45;&gt;Reconstruction -->
<g id="edge51" class="edge">
<title>Queries&#45;&gt;Reconstruction</title>
<path fill="none" stroke="black" d="M583.27,-220.89C604.63,-212.39 636.88,-199.56 661.16,-189.9"/>
<polygon fill="black" stroke="black" points="662.29,-193.22 670.29,-186.27 659.7,-186.71 662.29,-193.22"/>
</g>
<!-- Operations -->
<g id="node10" class="node">
<title>Operations</title>
<g id="a_node10"><a xlink:href="../operations.html" xlink:title="Operations" target="_top">
<polygon fill="none" stroke="white" points="516.07,-295.92 445,-295.92 445,-276.6 516.07,-276.6 516.07,-295.92"/>
<text xml:space="preserve" text-anchor="middle" x="480.53" y="-280.46" font-family="Sans-Serif" font-size="14.00">Operations</text>
</a>
</g>
</g>
<!-- Operations&#45;&gt;Queries -->
<g id="edge11" class="edge">
<title>Operations&#45;&gt;Queries</title>
<path fill="none" stroke="black" d="M494.11,-276.21C505.94,-268.33 523.37,-256.71 537.41,-247.36"/>
<polygon fill="black" stroke="black" points="539.26,-250.33 545.64,-241.87 535.38,-244.5 539.26,-250.33"/>
</g>
<!-- HttpFormat -->
<g id="node16" class="node">
<title>HttpFormat</title>
<g id="a_node16"><a xlink:href="../http_format.html" xlink:title="HttpFormat" target="_top">
<polygon fill="none" stroke="white" points="516.82,-240.6 444.25,-240.6 444.25,-221.28 516.82,-221.28 516.82,-240.6"/>
<text xml:space="preserve" text-anchor="middle" x="480.53" y="-225.14" font-family="Sans-Serif" font-size="14.00">HttpFormat</text>
</a>
</g>
</g>
<!-- Operations&#45;&gt;HttpFormat -->
<g id="edge47" class="edge">
<title>Operations&#45;&gt;HttpFormat</title>
<path fill="none" stroke="black" d="M480.53,-276.46C480.53,-269.86 480.53,-260.56 480.53,-252.17"/>
<polygon fill="black" stroke="black" points="484.04,-252.45 480.54,-242.45 477.04,-252.45 484.04,-252.45"/>
</g>
<!-- Operations&#45;&gt;FilesFormat -->
<g id="edge43" class="edge">
<title>Operations&#45;&gt;FilesFormat</title>
<path fill="none" stroke="black" d="M456.01,-276.13C433.34,-267.51 398.83,-253.96 369.53,-240.6 367.08,-239.48 308.25,-209.32 272.18,-190.81"/>
<polygon fill="black" stroke="black" points="274.09,-187.85 263.59,-186.4 270.89,-194.08 274.09,-187.85"/>
</g>
<!-- Tokens -->
<g id="node11" class="node">
<title>Tokens</title>
<g id="a_node11"><a xlink:href="../tokens.html" xlink:title="Tokens" target="_top">
<polygon fill="none" stroke="white" points="442.07,-406.56 395,-406.56 395,-387.24 442.07,-387.24 442.07,-406.56"/>
<text xml:space="preserve" text-anchor="middle" x="418.53" y="-391.1" font-family="Sans-Serif" font-size="14.00">Tokens</text>
</a>
</g>
</g>
<!-- Tokens&#45;&gt;Operations -->
<g id="edge8" class="edge">
<title>Tokens&#45;&gt;Operations</title>
<path fill="none" stroke="black" d="M423.61,-387.01C433.65,-369.42 456.23,-329.85 469.74,-306.17"/>
<polygon fill="black" stroke="black" points="472.72,-308.01 474.64,-297.59 466.64,-304.54 472.72,-308.01"/>
</g>
<!-- Formats -->
<g id="node21" class="node">
<title>Formats</title>
<g id="a_node21"><a xlink:href="../formats.html" xlink:title="Formats" target="_top">
<polygon fill="none" stroke="white" points="420.82,-351.24 366.25,-351.24 366.25,-331.92 420.82,-331.92 420.82,-351.24"/>
<text xml:space="preserve" text-anchor="middle" x="393.53" y="-335.78" font-family="Sans-Serif" font-size="14.00">Formats</text>
</a>
</g>
</g>
<!-- Tokens&#45;&gt;Formats -->
<g id="edge20" class="edge">
<title>Tokens&#45;&gt;Formats</title>
<path fill="none" stroke="black" d="M414.41,-387.1C411.21,-380.27 406.65,-370.55 402.61,-361.93"/>
<polygon fill="black" stroke="black" points="405.81,-360.51 398.4,-352.95 399.47,-363.49 405.81,-360.51"/>
</g>
<!-- Registry -->
<g id="node12" class="node">
<title>Registry</title>
<g id="a_node12"><a xlink:href="../registry.html" xlink:title="Registry" target="_top">
<polygon fill="none" stroke="white" points="513.44,-406.56 459.62,-406.56 459.62,-387.24 513.44,-387.24 513.44,-406.56"/>
<text xml:space="preserve" text-anchor="middle" x="486.53" y="-391.1" font-family="Sans-Serif" font-size="14.00">Registry</text>
</a>
</g>
</g>
<!-- Registry&#45;&gt;Operations -->
<g id="edge9" class="edge">
<title>Registry&#45;&gt;Operations</title>
<path fill="none" stroke="black" d="M486.04,-387.01C485.09,-369.74 482.97,-331.27 481.65,-307.48"/>
<polygon fill="black" stroke="black" points="485.16,-307.58 481.12,-297.78 478.17,-307.96 485.16,-307.58"/>
</g>
<!-- Registry&#45;&gt;Formats -->
<g id="edge21" class="edge">
<title>Registry&#45;&gt;Formats</title>
<path fill="none" stroke="black" d="M470.76,-386.85C456.6,-378.74 435.55,-366.67 419.01,-357.18"/>
<polygon fill="black" stroke="black" points="421.12,-354.36 410.7,-352.42 417.64,-360.43 421.12,-354.36"/>
</g>
<!-- Readers -->
<g id="node13" class="node">
<title>Readers</title>
<g id="a_node13"><a xlink:href="../readers.html" xlink:title="Readers" target="_top">
<polygon fill="none" stroke="white" points="421.19,-295.92 365.87,-295.92 365.87,-276.6 421.19,-276.6 421.19,-295.92"/>
<text xml:space="preserve" text-anchor="middle" x="393.53" y="-280.46" font-family="Sans-Serif" font-size="14.00">Readers</text>
</a>
</g>
</g>
<!-- Readers&#45;&gt;Writers -->
<g id="edge38" class="edge">
<title>Readers&#45;&gt;Writers</title>
<path fill="none" stroke="black" d="M395.02,-276.46C396.13,-269.86 397.7,-260.56 399.12,-252.17"/>
<polygon fill="black" stroke="black" points="402.55,-252.87 400.76,-242.43 395.65,-251.71 402.55,-252.87"/>
</g>
<!-- Readers&#45;&gt;ReadOnly -->
<g id="edge53" class="edge">
<title>Readers&#45;&gt;ReadOnly</title>
<path fill="none" stroke="black" d="M365.68,-276.57C337.66,-267.84 294.17,-254.28 262.48,-244.4"/>
<polygon fill="black" stroke="black" points="263.84,-241.15 253.26,-241.52 261.76,-247.84 263.84,-241.15"/>
</g>
<!-- Readers&#45;&gt;Queries -->
<g id="edge10" class="edge">
<title>Readers&#45;&gt;Queries</title>
<path fill="none" stroke="black" d="M421.49,-276.34C449.44,-267.41 492.59,-253.63 523.4,-243.8"/>
<polygon fill="black" stroke="black" points="524.24,-247.2 532.7,-240.83 522.11,-240.53 524.24,-247.2"/>
</g>
<!-- Readers&#45;&gt;HttpFormat -->
<g id="edge46" class="edge">
<title>Readers&#45;&gt;HttpFormat</title>
<path fill="none" stroke="black" d="M408.29,-276.21C421.42,-268.17 440.86,-256.26 456.27,-246.81"/>
<polygon fill="black" stroke="black" points="457.72,-250.03 464.41,-241.82 454.06,-244.06 457.72,-250.03"/>
</g>
<!-- Reorder -->
<g id="node20" class="node">
<title>Reorder</title>
<g id="a_node20"><a xlink:href="../reorder.html" xlink:title="Reorder" target="_top">
<polygon fill="none" stroke="white" points="172.07,-240.6 119,-240.6 119,-221.28 172.07,-221.28 172.07,-240.6"/>
<text xml:space="preserve" text-anchor="middle" x="145.53" y="-225.14" font-family="Sans-Serif" font-size="14.00">Reorder</text>
</a>
</g>
</g>
<!-- Readers&#45;&gt;Reorder -->
<g id="edge18" class="edge">
<title>Readers&#45;&gt;Reorder</title>
<path fill="none" stroke="black" d="M365.55,-279.73C326.76,-271.98 254.19,-257.24 183.18,-241.15"/>
<polygon fill="black" stroke="black" points="184.27,-237.8 173.74,-238.99 182.71,-244.63 184.27,-237.8"/>
</g>
<!-- Groups -->
<g id="node27" class="node">
<title>Groups</title>
<g id="a_node27"><a xlink:href="../groups.html" xlink:title="Groups" target="_top">
<polygon fill="none" stroke="white" points="322.19,-240.6 272.87,-240.6 272.87,-221.28 322.19,-221.28 322.19,-240.6"/>
<text xml:space="preserve" text-anchor="middle" x="297.53" y="-225.14" font-family="Sans-Serif" font-size="14.00">Groups</text>
</a>
</g>
</g>
<!-- Readers&#45;&gt;Groups -->
<g id="edge37" class="edge">
<title>Readers&#45;&gt;Groups</title>
<path fill="none" stroke="black" d="M377.25,-276.21C362.63,-268.1 340.91,-256.03 323.83,-246.54"/>
<polygon fill="black" stroke="black" points="325.66,-243.56 315.22,-241.76 322.27,-249.68 325.66,-243.56"/>
</g>
<!-- ZarrFormat&#45;&gt;CompleteDaf -->
<g id="edge12" class="edge">
<title>ZarrFormat&#45;&gt;CompleteDaf</title>
<path fill="none" stroke="black" d="M54.69,-165.74C49.55,-152.36 42.41,-126.87 54.53,-110.64 76.88,-80.73 118.35,-70.02 152.19,-66.54"/>
<polygon fill="black" stroke="black" points="152.15,-70.06 161.83,-65.75 151.57,-63.08 152.15,-70.06"/>
</g>
<!-- ZarrConvert -->
<g id="node23" class="node">
<title>ZarrConvert</title>
<g id="a_node23"><a xlink:href="../zarr_convert.html" xlink:title="ZarrConvert" target="_top">
<polygon fill="none" stroke="white" points="139.69,-129.96 63.38,-129.96 63.38,-110.64 139.69,-110.64 139.69,-129.96"/>
<text xml:space="preserve" text-anchor="middle" x="101.53" y="-114.5" font-family="Sans-Serif" font-size="14.00">ZarrConvert</text>
</a>
</g>
</g>
<!-- ZarrFormat&#45;&gt;ZarrConvert -->
<g id="edge22" class="edge">
<title>ZarrFormat&#45;&gt;ZarrConvert</title>
<path fill="none" stroke="black" d="M65.64,-165.82C71.45,-158.6 79.87,-148.17 87.09,-139.21"/>
<polygon fill="black" stroke="black" points="89.78,-141.46 93.33,-131.47 84.33,-137.06 89.78,-141.46"/>
</g>
<!-- HttpFormat&#45;&gt;CompleteDaf -->
<g id="edge13" class="edge">
<title>HttpFormat&#45;&gt;CompleteDaf</title>
<path fill="none" stroke="black" d="M443.76,-222.76C414.25,-215.98 372.46,-204 339.53,-185.28 290.34,-157.3 243.48,-108.95 220.42,-83.23"/>
<polygon fill="black" stroke="black" points="223.28,-81.18 214.04,-75.99 218.03,-85.81 223.28,-81.18"/>
</g>
<!-- FilesFormat&#45;&gt;CompleteDaf -->
<g id="edge15" class="edge">
<title>FilesFormat&#45;&gt;CompleteDaf</title>
<path fill="none" stroke="black" d="M241.34,-165.73C235.09,-148.3 221.08,-109.28 212.56,-85.54"/>
<polygon fill="black" stroke="black" points="215.95,-84.65 209.28,-76.42 209.37,-87.01 215.95,-84.65"/>
</g>
<!-- FilesFormat&#45;&gt;ZarrConvert -->
<g id="edge23" class="edge">
<title>FilesFormat&#45;&gt;ZarrConvert</title>
<path fill="none" stroke="black" d="M220.28,-165.57C197.27,-157 162.44,-144.01 136.45,-134.32"/>
<polygon fill="black" stroke="black" points="137.92,-131.13 127.33,-130.92 135.48,-137.69 137.92,-131.13"/>
</g>
<!-- FilesFormat&#45;&gt;ExampleData -->
<g id="edge26" class="edge">
<title>FilesFormat&#45;&gt;ExampleData</title>
<path fill="none" stroke="black" d="M255.86,-165.62C272.99,-152.31 306.86,-127.18 338.53,-110.64 363.21,-97.76 392.48,-86.59 415.56,-78.64"/>
<polygon fill="black" stroke="black" points="416.56,-82 424.92,-75.49 414.32,-75.37 416.56,-82"/>
</g>
<!-- H5dfFormat&#45;&gt;CompleteDaf -->
<g id="edge16" class="edge">
<title>H5dfFormat&#45;&gt;CompleteDaf</title>
<path fill="none" stroke="black" d="M155.04,-165.73C163.9,-148.22 183.79,-108.93 195.8,-85.22"/>
<polygon fill="black" stroke="black" points="198.89,-86.85 200.29,-76.34 192.65,-83.68 198.89,-86.85"/>
</g>
<!-- Contracts&#45;&gt;Computations -->
<g id="edge50" class="edge">
<title>Contracts&#45;&gt;Computations</title>
<path fill="none" stroke="black" d="M598.53,-110.5C598.53,-103.9 598.53,-94.6 598.53,-86.21"/>
<polygon fill="black" stroke="black" points="602.04,-86.49 598.54,-76.49 595.04,-86.49 602.04,-86.49"/>
</g>
<!-- Reorder&#45;&gt;MemoryFormat -->
<g id="edge31" class="edge">
<title>Reorder&#45;&gt;MemoryFormat</title>
<path fill="none" stroke="black" d="M172.26,-223.21C175.05,-222.54 177.85,-221.89 180.53,-221.28 234.08,-209.15 295.38,-196.66 339.14,-187.99"/>
<polygon fill="black" stroke="black" points="339.82,-191.42 348.95,-186.05 338.46,-184.55 339.82,-191.42"/>
</g>
<!-- Reorder&#45;&gt;ZarrFormat -->
<g id="edge29" class="edge">
<title>Reorder&#45;&gt;ZarrFormat</title>
<path fill="none" stroke="black" d="M130.78,-220.89C117.65,-212.85 98.21,-200.94 82.8,-191.49"/>
<polygon fill="black" stroke="black" points="85.01,-188.74 74.66,-186.5 81.35,-194.71 85.01,-188.74"/>
</g>
<!-- Reorder&#45;&gt;FilesFormat -->
<g id="edge44" class="edge">
<title>Reorder&#45;&gt;FilesFormat</title>
<path fill="none" stroke="black" d="M162.33,-220.89C177.55,-212.7 200.23,-200.48 217.92,-190.96"/>
<polygon fill="black" stroke="black" points="219.18,-194.25 226.33,-186.43 215.86,-188.09 219.18,-194.25"/>
</g>
<!-- Reorder&#45;&gt;H5dfFormat -->
<g id="edge35" class="edge">
<title>Reorder&#45;&gt;H5dfFormat</title>
<path fill="none" stroke="black" d="M146.36,-221.14C146.98,-214.54 147.85,-205.24 148.64,-196.85"/>
<polygon fill="black" stroke="black" points="152.1,-197.41 149.55,-187.12 145.13,-196.75 152.1,-197.41"/>
</g>
<!-- Formats&#45;&gt;Readers -->
<g id="edge54" class="edge">
<title>Formats&#45;&gt;Readers</title>
<path fill="none" stroke="black" d="M393.53,-331.78C393.53,-325.18 393.53,-315.88 393.53,-307.49"/>
<polygon fill="black" stroke="black" points="397.04,-307.77 393.54,-297.77 390.04,-307.77 397.04,-307.77"/>
</g>
<!-- Keys -->
<g id="node22" class="node">
<title>Keys</title>
<g id="a_node22"><a xlink:href="../keys.html" xlink:title="Keys" target="_top">
<polygon fill="none" stroke="white" points="376.69,-406.56 342.37,-406.56 342.37,-387.24 376.69,-387.24 376.69,-406.56"/>
<text xml:space="preserve" text-anchor="middle" x="359.53" y="-391.1" font-family="Sans-Serif" font-size="14.00">Keys</text>
</a>
</g>
</g>
<!-- Keys&#45;&gt;Formats -->
<g id="edge19" class="edge">
<title>Keys&#45;&gt;Formats</title>
<path fill="none" stroke="black" d="M365.15,-387.1C369.65,-380.04 376.12,-369.89 381.75,-361.06"/>
<polygon fill="black" stroke="black" points="384.56,-363.17 386.98,-352.85 378.66,-359.4 384.56,-363.17"/>
</g>
<!-- MmapZipStores -->
<g id="node25" class="node">
<title>MmapZipStores</title>
<g id="a_node25"><a xlink:href="../mmap_zip_store.html" xlink:title="MmapZipStores" target="_top">
<polygon fill="none" stroke="white" points="101.07,-240.6 0,-240.6 0,-221.28 101.07,-221.28 101.07,-240.6"/>
<text xml:space="preserve" text-anchor="middle" x="50.53" y="-225.14" font-family="Sans-Serif" font-size="14.00">MmapZipStores</text>
</a>
</g>
</g>
<!-- MmapZipStores&#45;&gt;ZarrFormat -->
<g id="edge30" class="edge">
<title>MmapZipStores&#45;&gt;ZarrFormat</title>
<path fill="none" stroke="black" d="M51.86,-221.14C52.85,-214.54 54.24,-205.24 55.5,-196.85"/>
<polygon fill="black" stroke="black" points="58.94,-197.52 56.96,-187.11 52.02,-196.48 58.94,-197.52"/>
</g>
<!-- StorageTypes -->
<g id="node26" class="node">
<title>StorageTypes</title>
<g id="a_node26"><a xlink:href="../storage_types.html" xlink:title="StorageTypes" target="_top">
<polygon fill="none" stroke="white" points="530.69,-461.88 442.38,-461.88 442.38,-442.56 530.69,-442.56 530.69,-461.88"/>
<text xml:space="preserve" text-anchor="middle" x="486.53" y="-446.42" font-family="Sans-Serif" font-size="14.00">StorageTypes</text>
</a>
</g>
</g>
<!-- StorageTypes&#45;&gt;Registry -->
<g id="edge33" class="edge">
<title>StorageTypes&#45;&gt;Registry</title>
<path fill="none" stroke="black" d="M486.53,-442.42C486.53,-435.82 486.53,-426.52 486.53,-418.13"/>
<polygon fill="black" stroke="black" points="490.04,-418.41 486.54,-408.41 483.04,-418.41 490.04,-418.41"/>
</g>
</g>
</svg>
