<?xml version="1.0" encoding="UTF-8" standalone="no"?>
<!DOCTYPE svg PUBLIC "-//W3C//DTD SVG 1.1//EN"
 "http://www.w3.org/Graphics/SVG/1.1/DTD/svg11.dtd">
<!-- Generated by graphviz version 14.1.4 (20260321.0153)
 -->
<!-- Pages: 1 -->
<svg width="656pt" height="470pt"
 viewBox="0.00 0.00 656.00 470.00" xmlns="http://www.w3.org/2000/svg" xmlns:xlink="http://www.w3.org/1999/xlink">
<g id="graph0" class="graph" transform="scale(1 1) rotate(0) translate(4 465.88)">
<polygon fill="white" stroke="none" points="-4,4 -4,-465.88 652.19,-465.88 652.19,4 -4,4"/>
<!-- Copies -->
<g id="node1" class="node">
<title>Copies</title>
<g id="a_node1"><a xlink:href="../copies.html" xlink:title="Copies" target="_top">
<polygon fill="none" stroke="white" points="536.19,-185.28 489.87,-185.28 489.87,-165.96 536.19,-165.96 536.19,-185.28"/>
<text xml:space="preserve" text-anchor="middle" x="513.03" y="-169.82" font-family="Sans-Serif" font-size="14.00">Copies</text>
</a>
</g>
</g>
<!-- Adapters -->
<g id="node3" class="node">
<title>Adapters</title>
<g id="a_node3"><a xlink:href="../adapters.html" xlink:title="Adapters" target="_top">
<polygon fill="none" stroke="white" points="443.19,-19.32 384.87,-19.32 384.87,0 443.19,0 443.19,-19.32"/>
<text xml:space="preserve" text-anchor="middle" x="414.03" y="-3.86" font-family="Sans-Serif" font-size="14.00">Adapters</text>
</a>
</g>
</g>
<!-- Copies&#45;&gt;Adapters -->
<g id="edge4" class="edge">
<title>Copies&#45;&gt;Adapters</title>
<path fill="none" stroke="black" d="M523.49,-165.49C535.95,-153.43 554.25,-131.3 547.03,-110.64 531.91,-67.33 484.37,-39.28 450.45,-24.22"/>
<polygon fill="black" stroke="black" points="451.94,-21.05 441.37,-20.38 449.21,-27.5 451.94,-21.05"/>
</g>
<!-- Concat -->
<g id="node27" class="node">
<title>Concat</title>
<g id="a_node27"><a xlink:href="../concat.html" xlink:title="Concat" target="_top">
<polygon fill="none" stroke="white" points="537.57,-129.96 490.5,-129.96 490.5,-110.64 537.57,-110.64 537.57,-129.96"/>
<text xml:space="preserve" text-anchor="middle" x="514.03" y="-114.5" font-family="Sans-Serif" font-size="14.00">Concat</text>
</a>
</g>
</g>
<!-- Copies&#45;&gt;Concat -->
<g id="edge42" class="edge">
<title>Copies&#45;&gt;Concat</title>
<path fill="none" stroke="black" d="M513.2,-165.82C513.32,-159.22 513.5,-149.92 513.66,-141.53"/>
<polygon fill="black" stroke="black" points="517.15,-141.87 513.84,-131.81 510.15,-141.74 517.15,-141.87"/>
</g>
<!-- Writers -->
<g id="node2" class="node">
<title>Writers</title>
<g id="a_node2"><a xlink:href="../writers.html" xlink:title="Writers" target="_top">
<polygon fill="none" stroke="white" points="382.57,-240.6 335.5,-240.6 335.5,-221.28 382.57,-221.28 382.57,-240.6"/>
<text xml:space="preserve" text-anchor="middle" x="359.03" y="-225.14" font-family="Sans-Serif" font-size="14.00">Writers</text>
</a>
</g>
</g>
<!-- Writers&#45;&gt;Copies -->
<g id="edge1" class="edge">
<title>Writers&#45;&gt;Copies</title>
<path fill="none" stroke="black" d="M382.76,-221.73C408.5,-212.81 449.81,-198.51 479,-188.4"/>
<polygon fill="black" stroke="black" points="479.8,-191.83 488.11,-185.25 477.51,-185.22 479.8,-191.83"/>
</g>
<!-- MemoryFormat -->
<g id="node5" class="node">
<title>MemoryFormat</title>
<g id="a_node5"><a xlink:href="../memory_format.html" xlink:title="MemoryFormat" target="_top">
<polygon fill="none" stroke="white" points="98.07,-185.28 0,-185.28 0,-165.96 98.07,-165.96 98.07,-185.28"/>
<text xml:space="preserve" text-anchor="middle" x="49.03" y="-169.82" font-family="Sans-Serif" font-size="14.00">MemoryFormat</text>
</a>
</g>
</g>
<!-- Writers&#45;&gt;MemoryFormat -->
<g id="edge26" class="edge">
<title>Writers&#45;&gt;MemoryFormat</title>
<path fill="none" stroke="black" d="M335.34,-223.23C332.55,-222.53 329.74,-221.86 327.03,-221.28 306.21,-216.8 184.87,-197.72 109.54,-185.99"/>
<polygon fill="black" stroke="black" points="110.24,-182.56 99.82,-184.48 109.16,-189.48 110.24,-182.56"/>
</g>
<!-- Chains -->
<g id="node6" class="node">
<title>Chains</title>
<g id="a_node6"><a xlink:href="../chains.html" xlink:title="Chains" target="_top">
<polygon fill="none" stroke="white" points="392.19,-129.96 345.87,-129.96 345.87,-110.64 392.19,-110.64 392.19,-129.96"/>
<text xml:space="preserve" text-anchor="middle" x="369.03" y="-114.5" font-family="Sans-Serif" font-size="14.00">Chains</text>
</a>
</g>
</g>
<!-- Writers&#45;&gt;Chains -->
<g id="edge35" class="edge">
<title>Writers&#45;&gt;Chains</title>
<path fill="none" stroke="black" d="M366.17,-221.01C372.53,-212.42 381.39,-198.79 385.03,-185.28 389.06,-170.38 384.41,-153.44 379.11,-140.74"/>
<polygon fill="black" stroke="black" points="382.34,-139.38 374.93,-131.81 376,-142.35 382.34,-139.38"/>
</g>
<!-- FilesFormat -->
<g id="node15" class="node">
<title>FilesFormat</title>
<g id="a_node15"><a xlink:href="../files_format.html" xlink:title="FilesFormat" target="_top">
<polygon fill="none" stroke="white" points="376.19,-185.28 299.88,-185.28 299.88,-165.96 376.19,-165.96 376.19,-185.28"/>
<text xml:space="preserve" text-anchor="middle" x="338.03" y="-169.82" font-family="Sans-Serif" font-size="14.00">FilesFormat</text>
</a>
</g>
</g>
<!-- Writers&#45;&gt;FilesFormat -->
<g id="edge37" class="edge">
<title>Writers&#45;&gt;FilesFormat</title>
<path fill="none" stroke="black" d="M355.57,-221.14C352.91,-214.38 349.14,-204.81 345.77,-196.26"/>
<polygon fill="black" stroke="black" points="349.05,-195.05 342.13,-187.02 342.54,-197.61 349.05,-195.05"/>
</g>
<!-- H5dfFormat -->
<g id="node16" class="node">
<title>H5dfFormat</title>
<g id="a_node16"><a xlink:href="../h5df_format.html" xlink:title="H5dfFormat" target="_top">
<polygon fill="none" stroke="white" points="192.19,-185.28 115.87,-185.28 115.87,-165.96 192.19,-165.96 192.19,-185.28"/>
<text xml:space="preserve" text-anchor="middle" x="154.03" y="-169.82" font-family="Sans-Serif" font-size="14.00">H5dfFormat</text>
</a>
</g>
</g>
<!-- Writers&#45;&gt;H5dfFormat -->
<g id="edge29" class="edge">
<title>Writers&#45;&gt;H5dfFormat</title>
<path fill="none" stroke="black" d="M335.28,-223.48C332.5,-222.73 329.71,-221.99 327.03,-221.28 284.28,-209.98 235.49,-197.41 200.65,-188.5"/>
<polygon fill="black" stroke="black" points="201.87,-185.2 191.32,-186.11 200.14,-191.98 201.87,-185.2"/>
</g>
<!-- ZarrFormat -->
<g id="node23" class="node">
<title>ZarrFormat</title>
<g id="a_node23"><a xlink:href="../zarr_format.html" xlink:title="ZarrFormat" target="_top">
<polygon fill="none" stroke="white" points="282.32,-185.28 209.75,-185.28 209.75,-165.96 282.32,-165.96 282.32,-185.28"/>
<text xml:space="preserve" text-anchor="middle" x="246.03" y="-169.82" font-family="Sans-Serif" font-size="14.00">ZarrFormat</text>
</a>
</g>
</g>
<!-- Writers&#45;&gt;ZarrFormat -->
<g id="edge23" class="edge">
<title>Writers&#45;&gt;ZarrFormat</title>
<path fill="none" stroke="black" d="M339.87,-220.89C322.25,-212.58 295.88,-200.14 275.57,-190.56"/>
<polygon fill="black" stroke="black" points="277.2,-187.46 266.67,-186.36 274.22,-193.79 277.2,-187.46"/>
</g>
<!-- Reconstruction -->
<g id="node28" class="node">
<title>Reconstruction</title>
<g id="a_node28"><a xlink:href="../reconstruction.html" xlink:title="Reconstruction" target="_top">
<polygon fill="none" stroke="white" points="648.19,-185.28 553.88,-185.28 553.88,-165.96 648.19,-165.96 648.19,-185.28"/>
<text xml:space="preserve" text-anchor="middle" x="601.03" y="-169.82" font-family="Sans-Serif" font-size="14.00">Reconstruction</text>
</a>
</g>
</g>
<!-- Writers&#45;&gt;Reconstruction -->
<g id="edge44" class="edge">
<title>Writers&#45;&gt;Reconstruction</title>
<path fill="none" stroke="black" d="M382.68,-224.73C420.83,-216.33 496.87,-199.57 548.36,-188.23"/>
<polygon fill="black" stroke="black" points="549.1,-191.65 558.12,-186.08 547.6,-184.81 549.1,-191.65"/>
</g>
<!-- Computations -->
<g id="node4" class="node">
<title>Computations</title>
<g id="a_node4"><a xlink:href="../computations.html" xlink:title="Computations" target="_top">
<polygon fill="none" stroke="white" points="494.19,-74.64 405.88,-74.64 405.88,-55.32 494.19,-55.32 494.19,-74.64"/>
<text xml:space="preserve" text-anchor="middle" x="450.03" y="-59.18" font-family="Sans-Serif" font-size="14.00">Computations</text>
</a>
</g>
</g>
<!-- Computations&#45;&gt;Adapters -->
<g id="edge2" class="edge">
<title>Computations&#45;&gt;Adapters</title>
<path fill="none" stroke="black" d="M444.09,-55.18C439.32,-48.12 432.47,-37.97 426.51,-29.14"/>
<polygon fill="black" stroke="black" points="429.45,-27.24 420.96,-20.91 423.65,-31.16 429.45,-27.24"/>
</g>
<!-- MemoryFormat&#45;&gt;Adapters -->
<g id="edge3" class="edge">
<title>MemoryFormat&#45;&gt;Adapters</title>
<path fill="none" stroke="black" d="M51.88,-165.59C56.35,-152.47 65.95,-127.82 80.03,-110.64 105.85,-79.16 115.68,-71.51 153.03,-55.32 226.37,-23.54 320.47,-14.33 373.31,-11.69"/>
<polygon fill="black" stroke="black" points="373.21,-15.19 383.05,-11.26 372.91,-8.2 373.21,-15.19"/>
</g>
<!-- ExampleData -->
<g id="node21" class="node">
<title>ExampleData</title>
<g id="a_node21"><a xlink:href="../example_data.html" xlink:title="ExampleData" target="_top">
<polygon fill="none" stroke="white" points="248.07,-74.64 162,-74.64 162,-55.32 248.07,-55.32 248.07,-74.64"/>
<text xml:space="preserve" text-anchor="middle" x="205.03" y="-59.18" font-family="Sans-Serif" font-size="14.00">ExampleData</text>
</a>
</g>
</g>
<!-- MemoryFormat&#45;&gt;ExampleData -->
<g id="edge21" class="edge">
<title>MemoryFormat&#45;&gt;ExampleData</title>
<path fill="none" stroke="black" d="M54.95,-165.67C64.24,-152.2 83.42,-126.6 105.03,-110.64 123.28,-97.17 146.23,-86.56 165.54,-79.07"/>
<polygon fill="black" stroke="black" points="166.56,-82.42 174.71,-75.65 164.12,-75.86 166.56,-82.42"/>
</g>
<!-- AnnDataFormat -->
<g id="node26" class="node">
<title>AnnDataFormat</title>
<g id="a_node26"><a xlink:href="../anndata_format.html" xlink:title="AnnDataFormat" target="_top">
<polygon fill="none" stroke="white" points="214.19,-129.96 113.87,-129.96 113.87,-110.64 214.19,-110.64 214.19,-129.96"/>
<text xml:space="preserve" text-anchor="middle" x="164.03" y="-114.5" font-family="Sans-Serif" font-size="14.00">AnnDataFormat</text>
</a>
</g>
</g>
<!-- MemoryFormat&#45;&gt;AnnDataFormat -->
<g id="edge36" class="edge">
<title>MemoryFormat&#45;&gt;AnnDataFormat</title>
<path fill="none" stroke="black" d="M68.54,-165.57C86.55,-157.23 113.56,-144.7 134.26,-135.1"/>
<polygon fill="black" stroke="black" points="135.46,-138.41 143.06,-131.03 132.51,-132.06 135.46,-138.41"/>
</g>
<!-- Chains&#45;&gt;Adapters -->
<g id="edge5" class="edge">
<title>Chains&#45;&gt;Adapters</title>
<path fill="none" stroke="black" d="M372.72,-110.41C379.94,-92.98 396.1,-53.96 405.93,-30.22"/>
<polygon fill="black" stroke="black" points="409.13,-31.65 409.72,-21.07 402.66,-28.97 409.13,-31.65"/>
</g>
<!-- CompleteDaf -->
<g id="node14" class="node">
<title>CompleteDaf</title>
<g id="a_node14"><a xlink:href="../complete.html" xlink:title="CompleteDaf" target="_top">
<polygon fill="none" stroke="white" points="349.94,-74.64 266.12,-74.64 266.12,-55.32 349.94,-55.32 349.94,-74.64"/>
<text xml:space="preserve" text-anchor="middle" x="308.03" y="-59.18" font-family="Sans-Serif" font-size="14.00">CompleteDaf</text>
</a>
</g>
</g>
<!-- Chains&#45;&gt;CompleteDaf -->
<g id="edge14" class="edge">
<title>Chains&#45;&gt;CompleteDaf</title>
<path fill="none" stroke="black" d="M358.69,-110.25C349.96,-102.63 337.25,-91.51 326.74,-82.33"/>
<polygon fill="black" stroke="black" points="329.2,-79.83 319.37,-75.89 324.6,-85.1 329.2,-79.83"/>
</g>
<!-- Chains&#45;&gt;ExampleData -->
<g id="edge22" class="edge">
<title>Chains&#45;&gt;ExampleData</title>
<path fill="none" stroke="black" d="M345.54,-111.66C319,-103.03 275.39,-88.85 243.79,-78.58"/>
<polygon fill="black" stroke="black" points="245.19,-75.36 234.6,-75.59 243.03,-82.01 245.19,-75.36"/>
</g>
<!-- Views -->
<g id="node7" class="node">
<title>Views</title>
<g id="a_node7"><a xlink:href="../views.html" xlink:title="Views" target="_top">
<polygon fill="none" stroke="white" points="472.19,-185.28 431.87,-185.28 431.87,-165.96 472.19,-165.96 472.19,-185.28"/>
<text xml:space="preserve" text-anchor="middle" x="452.03" y="-169.82" font-family="Sans-Serif" font-size="14.00">Views</text>
</a>
</g>
</g>
<!-- Views&#45;&gt;Chains -->
<g id="edge34" class="edge">
<title>Views&#45;&gt;Chains</title>
<path fill="none" stroke="black" d="M437.96,-165.57C425.55,-157.61 407.24,-145.84 392.61,-136.44"/>
<polygon fill="black" stroke="black" points="394.76,-133.67 384.46,-131.21 390.98,-139.56 394.76,-133.67"/>
</g>
<!-- Contracts -->
<g id="node17" class="node">
<title>Contracts</title>
<g id="a_node17"><a xlink:href="../contracts.html" xlink:title="Contracts" target="_top">
<polygon fill="none" stroke="white" points="472.07,-129.96 410,-129.96 410,-110.64 472.07,-110.64 472.07,-129.96"/>
<text xml:space="preserve" text-anchor="middle" x="441.03" y="-114.5" font-family="Sans-Serif" font-size="14.00">Contracts</text>
</a>
</g>
</g>
<!-- Views&#45;&gt;Contracts -->
<g id="edge15" class="edge">
<title>Views&#45;&gt;Contracts</title>
<path fill="none" stroke="black" d="M450.22,-165.82C448.86,-159.22 446.94,-149.92 445.21,-141.53"/>
<polygon fill="black" stroke="black" points="448.65,-140.86 443.2,-131.78 441.79,-142.28 448.65,-140.86"/>
</g>
<!-- Views&#45;&gt;Concat -->
<g id="edge41" class="edge">
<title>Views&#45;&gt;Concat</title>
<path fill="none" stroke="black" d="M462.55,-165.57C471.42,-157.95 484.35,-146.83 495.02,-137.65"/>
<polygon fill="black" stroke="black" points="497.23,-140.37 502.53,-131.2 492.66,-135.07 497.23,-140.37"/>
</g>
<!-- Queries -->
<g id="node8" class="node">
<title>Queries</title>
<g id="a_node8"><a xlink:href="../queries.html" xlink:title="Queries" target="_top">
<polygon fill="none" stroke="white" points="491.19,-240.6 438.88,-240.6 438.88,-221.28 491.19,-221.28 491.19,-240.6"/>
<text xml:space="preserve" text-anchor="middle" x="465.03" y="-225.14" font-family="Sans-Serif" font-size="14.00">Queries</text>
</a>
</g>
</g>
<!-- Queries&#45;&gt;Views -->
<g id="edge6" class="edge">
<title>Queries&#45;&gt;Views</title>
<path fill="none" stroke="black" d="M462.89,-221.14C461.26,-214.46 458.96,-205.02 456.89,-196.55"/>
<polygon fill="black" stroke="black" points="460.36,-195.97 454.59,-187.09 453.56,-197.63 460.36,-195.97"/>
</g>
<!-- Queries&#45;&gt;Reconstruction -->
<g id="edge45" class="edge">
<title>Queries&#45;&gt;Reconstruction</title>
<path fill="none" stroke="black" d="M488.11,-220.89C509.79,-212.39 542.52,-199.56 567.16,-189.9"/>
<polygon fill="black" stroke="black" points="568.41,-193.17 576.44,-186.26 565.85,-186.65 568.41,-193.17"/>
</g>
<!-- ReadOnly -->
<g id="node9" class="node">
<title>ReadOnly</title>
<g id="a_node9"><a xlink:href="../read_only.html" xlink:title="ReadOnly" target="_top">
<polygon fill="none" stroke="white" points="317.57,-240.6 252.5,-240.6 252.5,-221.28 317.57,-221.28 317.57,-240.6"/>
<text xml:space="preserve" text-anchor="middle" x="285.03" y="-225.14" font-family="Sans-Serif" font-size="14.00">ReadOnly</text>
</a>
</g>
</g>
<!-- ReadOnly&#45;&gt;Views -->
<g id="edge7" class="edge">
<title>ReadOnly&#45;&gt;Views</title>
<path fill="none" stroke="black" d="M313.36,-220.89C343.2,-211.37 390.05,-196.41 420.9,-186.56"/>
<polygon fill="black" stroke="black" points="421.58,-190.02 430.04,-183.64 419.45,-183.35 421.58,-190.02"/>
</g>
<!-- ReadOnly&#45;&gt;FilesFormat -->
<g id="edge40" class="edge">
<title>ReadOnly&#45;&gt;FilesFormat</title>
<path fill="none" stroke="black" d="M293.79,-221.14C301.18,-213.69 312,-202.82 321.08,-193.68"/>
<polygon fill="black" stroke="black" points="323.46,-196.25 328.03,-186.69 318.49,-191.31 323.46,-196.25"/>
</g>
<!-- ReadOnly&#45;&gt;H5dfFormat -->
<g id="edge31" class="edge">
<title>ReadOnly&#45;&gt;H5dfFormat</title>
<path fill="none" stroke="black" d="M262.81,-220.89C242.02,-212.43 210.69,-199.68 186.98,-190.03"/>
<polygon fill="black" stroke="black" points="188.35,-186.81 177.77,-186.28 185.71,-193.29 188.35,-186.81"/>
</g>
<!-- ReadOnly&#45;&gt;ZarrFormat -->
<g id="edge25" class="edge">
<title>ReadOnly&#45;&gt;ZarrFormat</title>
<path fill="none" stroke="black" d="M278.59,-221.14C273.38,-214 265.85,-203.71 259.34,-194.82"/>
<polygon fill="black" stroke="black" points="262.24,-192.84 253.51,-186.84 256.59,-196.98 262.24,-192.84"/>
</g>
<!-- Operations -->
<g id="node10" class="node">
<title>Operations</title>
<g id="a_node10"><a xlink:href="../operations.html" xlink:title="Operations" target="_top">
<polygon fill="none" stroke="white" points="446.57,-295.92 375.5,-295.92 375.5,-276.6 446.57,-276.6 446.57,-295.92"/>
<text xml:space="preserve" text-anchor="middle" x="411.03" y="-280.46" font-family="Sans-Serif" font-size="14.00">Operations</text>
</a>
</g>
</g>
<!-- Operations&#45;&gt;Queries -->
<g id="edge11" class="edge">
<title>Operations&#45;&gt;Queries</title>
<path fill="none" stroke="black" d="M419.95,-276.46C427.49,-269.01 438.5,-258.14 447.76,-249"/>
<polygon fill="black" stroke="black" points="450.19,-251.52 454.85,-242 445.27,-246.54 450.19,-251.52"/>
</g>
<!-- Operations&#45;&gt;FilesFormat -->
<g id="edge38" class="edge">
<title>Operations&#45;&gt;FilesFormat</title>
<path fill="none" stroke="black" d="M410.05,-276.29C408.26,-263.24 403.54,-238.68 392.03,-221.28 384.51,-209.9 373.21,-199.92 362.89,-192.29"/>
<polygon fill="black" stroke="black" points="364.91,-189.43 354.7,-186.6 360.92,-195.18 364.91,-189.43"/>
</g>
<!-- Registry -->
<g id="node11" class="node">
<title>Registry</title>
<g id="a_node11"><a xlink:href="../registry.html" xlink:title="Registry" target="_top">
<polygon fill="none" stroke="white" points="437.94,-406.56 384.12,-406.56 384.12,-387.24 437.94,-387.24 437.94,-406.56"/>
<text xml:space="preserve" text-anchor="middle" x="411.03" y="-391.1" font-family="Sans-Serif" font-size="14.00">Registry</text>
</a>
</g>
</g>
<!-- Registry&#45;&gt;Operations -->
<g id="edge8" class="edge">
<title>Registry&#45;&gt;Operations</title>
<path fill="none" stroke="black" d="M411.03,-387.01C411.03,-369.74 411.03,-331.27 411.03,-307.48"/>
<polygon fill="black" stroke="black" points="414.54,-307.79 411.04,-297.79 407.54,-307.79 414.54,-307.79"/>
</g>
<!-- Formats -->
<g id="node19" class="node">
<title>Formats</title>
<g id="a_node19"><a xlink:href="../formats.html" xlink:title="Formats" target="_top">
<polygon fill="none" stroke="white" points="329.32,-351.24 274.75,-351.24 274.75,-331.92 329.32,-331.92 329.32,-351.24"/>
<text xml:space="preserve" text-anchor="middle" x="302.03" y="-335.78" font-family="Sans-Serif" font-size="14.00">Formats</text>
</a>
</g>
</g>
<!-- Registry&#45;&gt;Formats -->
<g id="edge19" class="edge">
<title>Registry&#45;&gt;Formats</title>
<path fill="none" stroke="black" d="M392.54,-386.85C375.63,-378.58 350.35,-366.21 330.8,-356.65"/>
<polygon fill="black" stroke="black" points="332.5,-353.58 321.98,-352.33 329.42,-359.87 332.5,-353.58"/>
</g>
<!-- Tokens -->
<g id="node12" class="node">
<title>Tokens</title>
<g id="a_node12"><a xlink:href="../tokens.html" xlink:title="Tokens" target="_top">
<polygon fill="none" stroke="white" points="366.57,-406.56 319.5,-406.56 319.5,-387.24 366.57,-387.24 366.57,-406.56"/>
<text xml:space="preserve" text-anchor="middle" x="343.03" y="-391.1" font-family="Sans-Serif" font-size="14.00">Tokens</text>
</a>
</g>
</g>
<!-- Tokens&#45;&gt;Operations -->
<g id="edge9" class="edge">
<title>Tokens&#45;&gt;Operations</title>
<path fill="none" stroke="black" d="M348.6,-387.01C359.66,-369.34 384.6,-329.49 399.4,-305.85"/>
<polygon fill="black" stroke="black" points="402.25,-307.89 404.59,-297.56 396.32,-304.18 402.25,-307.89"/>
</g>
<!-- Tokens&#45;&gt;Formats -->
<g id="edge18" class="edge">
<title>Tokens&#45;&gt;Formats</title>
<path fill="none" stroke="black" d="M336.26,-387.1C330.72,-379.88 322.69,-369.45 315.81,-360.49"/>
<polygon fill="black" stroke="black" points="318.75,-358.57 309.88,-352.78 313.2,-362.84 318.75,-358.57"/>
</g>
<!-- Readers -->
<g id="node13" class="node">
<title>Readers</title>
<g id="a_node13"><a xlink:href="../readers.html" xlink:title="Readers" target="_top">
<polygon fill="none" stroke="white" points="313.69,-295.92 258.37,-295.92 258.37,-276.6 313.69,-276.6 313.69,-295.92"/>
<text xml:space="preserve" text-anchor="middle" x="286.03" y="-280.46" font-family="Sans-Serif" font-size="14.00">Readers</text>
</a>
</g>
</g>
<!-- Readers&#45;&gt;Writers -->
<g id="edge33" class="edge">
<title>Readers&#45;&gt;Writers</title>
<path fill="none" stroke="black" d="M298.42,-276.21C309.18,-268.35 325.01,-256.8 337.79,-247.46"/>
<polygon fill="black" stroke="black" points="339.6,-250.47 345.61,-241.74 335.47,-244.82 339.6,-250.47"/>
</g>
<!-- Readers&#45;&gt;Queries -->
<g id="edge10" class="edge">
<title>Readers&#45;&gt;Queries</title>
<path fill="none" stroke="black" d="M314,-276.93C344.57,-267.82 393.69,-253.19 427.57,-243.1"/>
<polygon fill="black" stroke="black" points="428.39,-246.51 436.98,-240.3 426.4,-239.8 428.39,-246.51"/>
</g>
<!-- Readers&#45;&gt;ReadOnly -->
<g id="edge46" class="edge">
<title>Readers&#45;&gt;ReadOnly</title>
<path fill="none" stroke="black" d="M285.87,-276.46C285.75,-269.86 285.57,-260.56 285.41,-252.17"/>
<polygon fill="black" stroke="black" points="288.92,-252.38 285.23,-242.45 281.92,-252.51 288.92,-252.38"/>
</g>
<!-- Reorder -->
<g id="node18" class="node">
<title>Reorder</title>
<g id="a_node18"><a xlink:href="../reorder.html" xlink:title="Reorder" target="_top">
<polygon fill="none" stroke="white" points="167.57,-240.6 114.5,-240.6 114.5,-221.28 167.57,-221.28 167.57,-240.6"/>
<text xml:space="preserve" text-anchor="middle" x="141.03" y="-225.14" font-family="Sans-Serif" font-size="14.00">Reorder</text>
</a>
</g>
</g>
<!-- Readers&#45;&gt;Reorder -->
<g id="edge16" class="edge">
<title>Readers&#45;&gt;Reorder</title>
<path fill="none" stroke="black" d="M261.44,-276.21C238.11,-267.64 202.8,-254.65 176.44,-244.96"/>
<polygon fill="black" stroke="black" points="177.77,-241.72 167.17,-241.55 175.35,-248.29 177.77,-241.72"/>
</g>
<!-- Groups -->
<g id="node25" class="node">
<title>Groups</title>
<g id="a_node25"><a xlink:href="../groups.html" xlink:title="Groups" target="_top">
<polygon fill="none" stroke="white" points="234.69,-240.6 185.37,-240.6 185.37,-221.28 234.69,-221.28 234.69,-240.6"/>
<text xml:space="preserve" text-anchor="middle" x="210.03" y="-225.14" font-family="Sans-Serif" font-size="14.00">Groups</text>
</a>
</g>
</g>
<!-- Readers&#45;&gt;Groups -->
<g id="edge32" class="edge">
<title>Readers&#45;&gt;Groups</title>
<path fill="none" stroke="black" d="M273.14,-276.21C262.01,-268.4 245.66,-256.93 232.4,-247.63"/>
<polygon fill="black" stroke="black" points="234.43,-244.78 224.23,-241.9 230.41,-250.51 234.43,-244.78"/>
</g>
<!-- FilesFormat&#45;&gt;CompleteDaf -->
<g id="edge12" class="edge">
<title>FilesFormat&#45;&gt;CompleteDaf</title>
<path fill="none" stroke="black" d="M335.58,-165.73C330.79,-148.38 320.09,-109.64 313.53,-85.87"/>
<polygon fill="black" stroke="black" points="316.96,-85.16 310.93,-76.45 310.21,-87.02 316.96,-85.16"/>
</g>
<!-- FilesFormat&#45;&gt;ExampleData -->
<g id="edge20" class="edge">
<title>FilesFormat&#45;&gt;ExampleData</title>
<path fill="none" stroke="black" d="M327.15,-165.73C304.74,-147.43 253.18,-105.31 224.75,-82.08"/>
<polygon fill="black" stroke="black" points="227.2,-79.57 217.24,-75.95 222.77,-84.99 227.2,-79.57"/>
</g>
<!-- H5dfFormat&#45;&gt;CompleteDaf -->
<g id="edge13" class="edge">
<title>H5dfFormat&#45;&gt;CompleteDaf</title>
<path fill="none" stroke="black" d="M168.77,-165.51C182.88,-156.68 204.67,-142.79 223.03,-129.96 245.56,-114.22 270.62,-95.16 287.65,-81.96"/>
<polygon fill="black" stroke="black" points="289.74,-84.77 295.48,-75.87 285.44,-79.25 289.74,-84.77"/>
</g>
<!-- Contracts&#45;&gt;Computations -->
<g id="edge43" class="edge">
<title>Contracts&#45;&gt;Computations</title>
<path fill="none" stroke="black" d="M442.52,-110.5C443.63,-103.9 445.2,-94.6 446.62,-86.21"/>
<polygon fill="black" stroke="black" points="450.05,-86.91 448.26,-76.47 443.15,-85.75 450.05,-86.91"/>
</g>
<!-- Reorder&#45;&gt;MemoryFormat -->
<g id="edge27" class="edge">
<title>Reorder&#45;&gt;MemoryFormat</title>
<path fill="none" stroke="black" d="M125.43,-220.89C111.42,-212.78 90.6,-200.71 74.23,-191.22"/>
<polygon fill="black" stroke="black" points="76.43,-188.45 66.03,-186.47 72.92,-194.51 76.43,-188.45"/>
</g>
<!-- Reorder&#45;&gt;FilesFormat -->
<g id="edge39" class="edge">
<title>Reorder&#45;&gt;FilesFormat</title>
<path fill="none" stroke="black" d="M168.01,-222.64C200.34,-213.89 254.95,-199.11 293.55,-188.66"/>
<polygon fill="black" stroke="black" points="294.27,-192.09 303.01,-186.1 292.44,-185.33 294.27,-192.09"/>
</g>
<!-- Reorder&#45;&gt;H5dfFormat -->
<g id="edge30" class="edge">
<title>Reorder&#45;&gt;H5dfFormat</title>
<path fill="none" stroke="black" d="M143.18,-221.14C144.81,-214.46 147.11,-205.02 149.18,-196.55"/>
<polygon fill="black" stroke="black" points="152.51,-197.63 151.48,-187.09 145.71,-195.97 152.51,-197.63"/>
</g>
<!-- Reorder&#45;&gt;ZarrFormat -->
<g id="edge24" class="edge">
<title>Reorder&#45;&gt;ZarrFormat</title>
<path fill="none" stroke="black" d="M158.85,-220.89C175.06,-212.66 199.27,-200.37 218.07,-190.82"/>
<polygon fill="black" stroke="black" points="219.45,-194.04 226.79,-186.39 216.29,-187.8 219.45,-194.04"/>
</g>
<!-- Formats&#45;&gt;Readers -->
<g id="edge47" class="edge">
<title>Formats&#45;&gt;Readers</title>
<path fill="none" stroke="black" d="M299.39,-331.78C297.39,-325.1 294.56,-315.66 292.02,-307.19"/>
<polygon fill="black" stroke="black" points="295.4,-306.28 289.17,-297.71 288.69,-308.29 295.4,-306.28"/>
</g>
<!-- Keys -->
<g id="node20" class="node">
<title>Keys</title>
<g id="a_node20"><a xlink:href="../keys.html" xlink:title="Keys" target="_top">
<polygon fill="none" stroke="white" points="301.19,-406.56 266.87,-406.56 266.87,-387.24 301.19,-387.24 301.19,-406.56"/>
<text xml:space="preserve" text-anchor="middle" x="284.03" y="-391.1" font-family="Sans-Serif" font-size="14.00">Keys</text>
</a>
</g>
</g>
<!-- Keys&#45;&gt;Formats -->
<g id="edge17" class="edge">
<title>Keys&#45;&gt;Formats</title>
<path fill="none" stroke="black" d="M287.01,-387.1C289.29,-380.34 292.52,-370.77 295.4,-362.22"/>
<polygon fill="black" stroke="black" points="298.63,-363.6 298.51,-353.01 292,-361.37 298.63,-363.6"/>
</g>
<!-- MmapZipStores -->
<g id="node22" class="node">
<title>MmapZipStores</title>
<g id="a_node22"><a xlink:href="../mmap_zip_store.html" xlink:title="MmapZipStores" target="_top">
<polygon fill="none" stroke="white" points="574.57,-461.88 473.5,-461.88 473.5,-442.56 574.57,-442.56 574.57,-461.88"/>
<text xml:space="preserve" text-anchor="middle" x="524.03" y="-446.42" font-family="Sans-Serif" font-size="14.00">MmapZipStores</text>
</a>
</g>
</g>
<!-- StorageTypes -->
<g id="node24" class="node">
<title>StorageTypes</title>
<g id="a_node24"><a xlink:href="../storage_types.html" xlink:title="StorageTypes" target="_top">
<polygon fill="none" stroke="white" points="455.19,-461.88 366.88,-461.88 366.88,-442.56 455.19,-442.56 455.19,-461.88"/>
<text xml:space="preserve" text-anchor="middle" x="411.03" y="-446.42" font-family="Sans-Serif" font-size="14.00">StorageTypes</text>
</a>
</g>
</g>
<!-- StorageTypes&#45;&gt;Registry -->
<g id="edge28" class="edge">
<title>StorageTypes&#45;&gt;Registry</title>
<path fill="none" stroke="black" d="M411.03,-442.42C411.03,-435.82 411.03,-426.52 411.03,-418.13"/>
<polygon fill="black" stroke="black" points="414.54,-418.41 411.04,-408.41 407.54,-418.41 414.54,-418.41"/>
</g>
</g>
</svg>
