<?xml version="1.0" encoding="UTF-8" standalone="no"?>
<!DOCTYPE svg PUBLIC "-//W3C//DTD SVG 1.1//EN"
 "http://www.w3.org/Graphics/SVG/1.1/DTD/svg11.dtd">
<!-- Generated by graphviz version 14.1.4 (20260321.0153)
 -->
<!-- Pages: 1 -->
<svg width="674pt" height="470pt"
 viewBox="0.00 0.00 674.00 470.00" xmlns="http://www.w3.org/2000/svg" xmlns:xlink="http://www.w3.org/1999/xlink">
<g id="graph0" class="graph" transform="scale(1 1) rotate(0) translate(4 465.88)">
<polygon fill="white" stroke="none" points="-4,4 -4,-465.88 669.69,-465.88 669.69,4 -4,4"/>
<!-- Copies -->
<g id="node1" class="node">
<title>Copies</title>
<g id="a_node1"><a xlink:href="../copies.html" xlink:title="Copies" target="_top">
<polygon fill="none" stroke="white" points="158.32,-185.28 112,-185.28 112,-165.96 158.32,-165.96 158.32,-185.28"/>
<text xml:space="preserve" text-anchor="middle" x="135.16" y="-169.82" font-family="Sans-Serif" font-size="14.00">Copies</text>
</a>
</g>
</g>
<!-- Adapters -->
<g id="node3" class="node">
<title>Adapters</title>
<g id="a_node3"><a xlink:href="../adapters.html" xlink:title="Adapters" target="_top">
<polygon fill="none" stroke="white" points="246.32,-19.32 188,-19.32 188,0 246.32,0 246.32,-19.32"/>
<text xml:space="preserve" text-anchor="middle" x="217.16" y="-3.86" font-family="Sans-Serif" font-size="14.00">Adapters</text>
</a>
</g>
</g>
<!-- Copies&#45;&gt;Adapters -->
<g id="edge4" class="edge">
<title>Copies&#45;&gt;Adapters</title>
<path fill="none" stroke="black" d="M120.93,-165.58C109.95,-157.69 95.58,-145.13 89.16,-129.96 85.82,-122.05 86.56,-118.83 89.16,-110.64 98.25,-81.96 105.36,-74.95 128.16,-55.32 143.56,-42.05 163.6,-31.55 180.75,-24.07"/>
<polygon fill="black" stroke="black" points="181.71,-27.47 189.6,-20.39 179.02,-21 181.71,-27.47"/>
</g>
<!-- Concat -->
<g id="node27" class="node">
<title>Concat</title>
<g id="a_node27"><a xlink:href="../concat.html" xlink:title="Concat" target="_top">
<polygon fill="none" stroke="white" points="145.69,-129.96 98.62,-129.96 98.62,-110.64 145.69,-110.64 145.69,-129.96"/>
<text xml:space="preserve" text-anchor="middle" x="122.16" y="-114.5" font-family="Sans-Serif" font-size="14.00">Concat</text>
</a>
</g>
</g>
<!-- Copies&#45;&gt;Concat -->
<g id="edge43" class="edge">
<title>Copies&#45;&gt;Concat</title>
<path fill="none" stroke="black" d="M133.01,-165.82C131.39,-159.14 129.08,-149.7 127.02,-141.23"/>
<polygon fill="black" stroke="black" points="130.48,-140.65 124.71,-131.77 123.68,-142.31 130.48,-140.65"/>
</g>
<!-- Writers -->
<g id="node2" class="node">
<title>Writers</title>
<g id="a_node2"><a xlink:href="../writers.html" xlink:title="Writers" target="_top">
<polygon fill="none" stroke="white" points="325.69,-240.6 278.62,-240.6 278.62,-221.28 325.69,-221.28 325.69,-240.6"/>
<text xml:space="preserve" text-anchor="middle" x="302.16" y="-225.14" font-family="Sans-Serif" font-size="14.00">Writers</text>
</a>
</g>
</g>
<!-- Writers&#45;&gt;Copies -->
<g id="edge1" class="edge">
<title>Writers&#45;&gt;Copies</title>
<path fill="none" stroke="black" d="M278.23,-222.3C249.75,-213.21 201.98,-197.96 169.55,-187.6"/>
<polygon fill="black" stroke="black" points="170.81,-184.33 160.21,-184.62 168.68,-191 170.81,-184.33"/>
</g>
<!-- MemoryFormat -->
<g id="node4" class="node">
<title>MemoryFormat</title>
<g id="a_node4"><a xlink:href="../memory_format.html" xlink:title="MemoryFormat" target="_top">
<polygon fill="none" stroke="white" points="558.19,-185.28 460.12,-185.28 460.12,-165.96 558.19,-165.96 558.19,-185.28"/>
<text xml:space="preserve" text-anchor="middle" x="509.16" y="-169.82" font-family="Sans-Serif" font-size="14.00">MemoryFormat</text>
</a>
</g>
</g>
<!-- Writers&#45;&gt;MemoryFormat -->
<g id="edge27" class="edge">
<title>Writers&#45;&gt;MemoryFormat</title>
<path fill="none" stroke="black" d="M325.92,-223.47C328.69,-222.73 331.49,-221.98 334.16,-221.28 377.39,-209.91 426.75,-197.36 462,-188.46"/>
<polygon fill="black" stroke="black" points="462.61,-191.91 471.46,-186.08 460.9,-185.13 462.61,-191.91"/>
</g>
<!-- Chains -->
<g id="node5" class="node">
<title>Chains</title>
<g id="a_node5"><a xlink:href="../chains.html" xlink:title="Chains" target="_top">
<polygon fill="none" stroke="white" points="290.32,-129.96 244,-129.96 244,-110.64 290.32,-110.64 290.32,-129.96"/>
<text xml:space="preserve" text-anchor="middle" x="267.16" y="-114.5" font-family="Sans-Serif" font-size="14.00">Chains</text>
</a>
</g>
</g>
<!-- Writers&#45;&gt;Chains -->
<g id="edge35" class="edge">
<title>Writers&#45;&gt;Chains</title>
<path fill="none" stroke="black" d="M290.8,-221.07C281.37,-212.93 268.66,-199.93 263.16,-185.28 257.89,-171.22 259.28,-154.22 261.78,-141.27"/>
<polygon fill="black" stroke="black" points="265.13,-142.34 263.99,-131.81 258.31,-140.75 265.13,-142.34"/>
</g>
<!-- FilesFormat -->
<g id="node15" class="node">
<title>FilesFormat</title>
<g id="a_node15"><a xlink:href="../files_format.html" xlink:title="FilesFormat" target="_top">
<polygon fill="none" stroke="white" points="348.32,-185.28 272,-185.28 272,-165.96 348.32,-165.96 348.32,-185.28"/>
<text xml:space="preserve" text-anchor="middle" x="310.16" y="-169.82" font-family="Sans-Serif" font-size="14.00">FilesFormat</text>
</a>
</g>
</g>
<!-- Writers&#45;&gt;FilesFormat -->
<g id="edge38" class="edge">
<title>Writers&#45;&gt;FilesFormat</title>
<path fill="none" stroke="black" d="M303.48,-221.14C304.47,-214.54 305.87,-205.24 307.13,-196.85"/>
<polygon fill="black" stroke="black" points="310.56,-197.52 308.59,-187.11 303.64,-196.48 310.56,-197.52"/>
</g>
<!-- H5dfFormat -->
<g id="node16" class="node">
<title>H5dfFormat</title>
<g id="a_node16"><a xlink:href="../h5df_format.html" xlink:title="H5dfFormat" target="_top">
<polygon fill="none" stroke="white" points="442.32,-185.28 366,-185.28 366,-165.96 442.32,-165.96 442.32,-185.28"/>
<text xml:space="preserve" text-anchor="middle" x="404.16" y="-169.82" font-family="Sans-Serif" font-size="14.00">H5dfFormat</text>
</a>
</g>
</g>
<!-- Writers&#45;&gt;H5dfFormat -->
<g id="edge30" class="edge">
<title>Writers&#45;&gt;H5dfFormat</title>
<path fill="none" stroke="black" d="M319.46,-220.89C335.14,-212.7 358.51,-200.48 376.74,-190.96"/>
<polygon fill="black" stroke="black" points="378.19,-194.15 385.43,-186.41 374.95,-187.94 378.19,-194.15"/>
</g>
<!-- ZarrFormat -->
<g id="node23" class="node">
<title>ZarrFormat</title>
<g id="a_node23"><a xlink:href="../zarr_format.html" xlink:title="ZarrFormat" target="_top">
<polygon fill="none" stroke="white" points="648.44,-185.28 575.88,-185.28 575.88,-165.96 648.44,-165.96 648.44,-185.28"/>
<text xml:space="preserve" text-anchor="middle" x="612.16" y="-169.82" font-family="Sans-Serif" font-size="14.00">ZarrFormat</text>
</a>
</g>
</g>
<!-- Writers&#45;&gt;ZarrFormat -->
<g id="edge23" class="edge">
<title>Writers&#45;&gt;ZarrFormat</title>
<path fill="none" stroke="black" d="M325.85,-223.21C328.64,-222.51 331.46,-221.85 334.16,-221.28 433.16,-200.3 461.97,-202.97 564.65,-185.65"/>
<polygon fill="black" stroke="black" points="565.07,-189.12 574.34,-183.99 563.89,-182.22 565.07,-189.12"/>
</g>
<!-- Reconstruction -->
<g id="node28" class="node">
<title>Reconstruction</title>
<g id="a_node28"><a xlink:href="../reconstruction.html" xlink:title="Reconstruction" target="_top">
<polygon fill="none" stroke="white" points="94.32,-185.28 0,-185.28 0,-165.96 94.32,-165.96 94.32,-185.28"/>
<text xml:space="preserve" text-anchor="middle" x="47.16" y="-169.82" font-family="Sans-Serif" font-size="14.00">Reconstruction</text>
</a>
</g>
</g>
<!-- Writers&#45;&gt;Reconstruction -->
<g id="edge45" class="edge">
<title>Writers&#45;&gt;Reconstruction</title>
<path fill="none" stroke="black" d="M278.17,-224.92C238.12,-216.55 156.65,-199.52 101.97,-188.08"/>
<polygon fill="black" stroke="black" points="102.72,-184.66 92.22,-186.04 101.29,-191.51 102.72,-184.66"/>
</g>
<!-- MemoryFormat&#45;&gt;Adapters -->
<g id="edge2" class="edge">
<title>MemoryFormat&#45;&gt;Adapters</title>
<path fill="none" stroke="black" d="M528.83,-165.65C550.87,-154.26 581.92,-133.34 569.16,-110.64 545.96,-69.38 522.49,-71.9 478.16,-55.32 403.5,-27.4 310.25,-16.81 257.83,-12.89"/>
<polygon fill="black" stroke="black" points="258.4,-9.42 248.18,-12.21 257.91,-16.4 258.4,-9.42"/>
</g>
<!-- ExampleData -->
<g id="node21" class="node">
<title>ExampleData</title>
<g id="a_node21"><a xlink:href="../example_data.html" xlink:title="ExampleData" target="_top">
<polygon fill="none" stroke="white" points="469.19,-74.64 383.12,-74.64 383.12,-55.32 469.19,-55.32 469.19,-74.64"/>
<text xml:space="preserve" text-anchor="middle" x="426.16" y="-59.18" font-family="Sans-Serif" font-size="14.00">ExampleData</text>
</a>
</g>
</g>
<!-- MemoryFormat&#45;&gt;ExampleData -->
<g id="edge20" class="edge">
<title>MemoryFormat&#45;&gt;ExampleData</title>
<path fill="none" stroke="black" d="M492.93,-165.51C480.07,-157.58 462.45,-145.01 451.16,-129.96 441.3,-116.81 434.81,-99.28 430.92,-85.89"/>
<polygon fill="black" stroke="black" points="434.37,-85.25 428.44,-76.47 427.6,-87.03 434.37,-85.25"/>
</g>
<!-- AnnDataFormat -->
<g id="node26" class="node">
<title>AnnDataFormat</title>
<g id="a_node26"><a xlink:href="../anndata_format.html" xlink:title="AnnDataFormat" target="_top">
<polygon fill="none" stroke="white" points="560.32,-129.96 460,-129.96 460,-110.64 560.32,-110.64 560.32,-129.96"/>
<text xml:space="preserve" text-anchor="middle" x="510.16" y="-114.5" font-family="Sans-Serif" font-size="14.00">AnnDataFormat</text>
</a>
</g>
</g>
<!-- MemoryFormat&#45;&gt;AnnDataFormat -->
<g id="edge37" class="edge">
<title>MemoryFormat&#45;&gt;AnnDataFormat</title>
<path fill="none" stroke="black" d="M509.33,-165.82C509.45,-159.22 509.62,-149.92 509.78,-141.53"/>
<polygon fill="black" stroke="black" points="513.27,-141.87 509.96,-131.81 506.28,-141.74 513.27,-141.87"/>
</g>
<!-- Chains&#45;&gt;Adapters -->
<g id="edge3" class="edge">
<title>Chains&#45;&gt;Adapters</title>
<path fill="none" stroke="black" d="M263.07,-110.41C255.01,-92.9 236.93,-53.61 226.01,-29.9"/>
<polygon fill="black" stroke="black" points="229.3,-28.67 221.94,-21.05 222.94,-31.6 229.3,-28.67"/>
</g>
<!-- CompleteDaf -->
<g id="node14" class="node">
<title>CompleteDaf</title>
<g id="a_node14"><a xlink:href="../complete.html" xlink:title="CompleteDaf" target="_top">
<polygon fill="none" stroke="white" points="365.07,-74.64 281.25,-74.64 281.25,-55.32 365.07,-55.32 365.07,-74.64"/>
<text xml:space="preserve" text-anchor="middle" x="323.16" y="-59.18" font-family="Sans-Serif" font-size="14.00">CompleteDaf</text>
</a>
</g>
</g>
<!-- Chains&#45;&gt;CompleteDaf -->
<g id="edge13" class="edge">
<title>Chains&#45;&gt;CompleteDaf</title>
<path fill="none" stroke="black" d="M276.66,-110.25C284.59,-102.7 296.11,-91.74 305.7,-82.61"/>
<polygon fill="black" stroke="black" points="307.88,-85.37 312.7,-75.94 303.05,-80.3 307.88,-85.37"/>
</g>
<!-- Chains&#45;&gt;ExampleData -->
<g id="edge21" class="edge">
<title>Chains&#45;&gt;ExampleData</title>
<path fill="none" stroke="black" d="M290.62,-111.43C316.32,-102.82 357.91,-88.87 388.25,-78.69"/>
<polygon fill="black" stroke="black" points="389.06,-82.11 397.43,-75.61 386.84,-75.48 389.06,-82.11"/>
</g>
<!-- Computations -->
<g id="node6" class="node">
<title>Computations</title>
<g id="a_node6"><a xlink:href="../computations.html" xlink:title="Computations" target="_top">
<polygon fill="none" stroke="white" points="225.32,-74.64 137,-74.64 137,-55.32 225.32,-55.32 225.32,-74.64"/>
<text xml:space="preserve" text-anchor="middle" x="181.16" y="-59.18" font-family="Sans-Serif" font-size="14.00">Computations</text>
</a>
</g>
</g>
<!-- Computations&#45;&gt;Adapters -->
<g id="edge5" class="edge">
<title>Computations&#45;&gt;Adapters</title>
<path fill="none" stroke="black" d="M187.1,-55.18C191.87,-48.12 198.72,-37.97 204.68,-29.14"/>
<polygon fill="black" stroke="black" points="207.54,-31.16 210.24,-20.91 201.74,-27.24 207.54,-31.16"/>
</g>
<!-- Views -->
<g id="node7" class="node">
<title>Views</title>
<g id="a_node7"><a xlink:href="../views.html" xlink:title="Views" target="_top">
<polygon fill="none" stroke="white" points="216.32,-185.28 176,-185.28 176,-165.96 216.32,-165.96 216.32,-185.28"/>
<text xml:space="preserve" text-anchor="middle" x="196.16" y="-169.82" font-family="Sans-Serif" font-size="14.00">Views</text>
</a>
</g>
</g>
<!-- Views&#45;&gt;Chains -->
<g id="edge36" class="edge">
<title>Views&#45;&gt;Chains</title>
<path fill="none" stroke="black" d="M208.2,-165.57C218.57,-157.79 233.76,-146.38 246.13,-137.09"/>
<polygon fill="black" stroke="black" points="248.19,-139.92 254.08,-131.12 243.99,-134.33 248.19,-139.92"/>
</g>
<!-- Contracts -->
<g id="node17" class="node">
<title>Contracts</title>
<g id="a_node17"><a xlink:href="../contracts.html" xlink:title="Contracts" target="_top">
<polygon fill="none" stroke="white" points="226.19,-129.96 164.12,-129.96 164.12,-110.64 226.19,-110.64 226.19,-129.96"/>
<text xml:space="preserve" text-anchor="middle" x="195.16" y="-114.5" font-family="Sans-Serif" font-size="14.00">Contracts</text>
</a>
</g>
</g>
<!-- Views&#45;&gt;Contracts -->
<g id="edge15" class="edge">
<title>Views&#45;&gt;Contracts</title>
<path fill="none" stroke="black" d="M195.99,-165.82C195.87,-159.22 195.7,-149.92 195.54,-141.53"/>
<polygon fill="black" stroke="black" points="199.04,-141.74 195.36,-131.81 192.05,-141.87 199.04,-141.74"/>
</g>
<!-- Views&#45;&gt;Concat -->
<g id="edge42" class="edge">
<title>Views&#45;&gt;Concat</title>
<path fill="none" stroke="black" d="M183.61,-165.57C172.7,-157.71 156.66,-146.16 143.7,-136.82"/>
<polygon fill="black" stroke="black" points="145.92,-134.1 135.76,-131.1 141.82,-139.78 145.92,-134.1"/>
</g>
<!-- ReadOnly -->
<g id="node8" class="node">
<title>ReadOnly</title>
<g id="a_node8"><a xlink:href="../read_only.html" xlink:title="ReadOnly" target="_top">
<polygon fill="none" stroke="white" points="408.69,-240.6 343.62,-240.6 343.62,-221.28 408.69,-221.28 408.69,-240.6"/>
<text xml:space="preserve" text-anchor="middle" x="376.16" y="-225.14" font-family="Sans-Serif" font-size="14.00">ReadOnly</text>
</a>
</g>
</g>
<!-- ReadOnly&#45;&gt;Views -->
<g id="edge6" class="edge">
<title>ReadOnly&#45;&gt;Views</title>
<path fill="none" stroke="black" d="M345.63,-220.89C312.79,-211.17 260.83,-195.78 227.63,-185.94"/>
<polygon fill="black" stroke="black" points="228.77,-182.63 218.19,-183.14 226.78,-189.34 228.77,-182.63"/>
</g>
<!-- ReadOnly&#45;&gt;FilesFormat -->
<g id="edge39" class="edge">
<title>ReadOnly&#45;&gt;FilesFormat</title>
<path fill="none" stroke="black" d="M364.96,-220.89C355.42,-213.19 341.49,-201.93 330.05,-192.69"/>
<polygon fill="black" stroke="black" points="332.35,-190.04 322.37,-186.48 327.95,-195.49 332.35,-190.04"/>
</g>
<!-- ReadOnly&#45;&gt;H5dfFormat -->
<g id="edge31" class="edge">
<title>ReadOnly&#45;&gt;H5dfFormat</title>
<path fill="none" stroke="black" d="M380.78,-221.14C384.41,-214.23 389.59,-204.37 394.15,-195.68"/>
<polygon fill="black" stroke="black" points="397.18,-197.44 398.73,-186.96 390.98,-194.18 397.18,-197.44"/>
</g>
<!-- ReadOnly&#45;&gt;ZarrFormat -->
<g id="edge24" class="edge">
<title>ReadOnly&#45;&gt;ZarrFormat</title>
<path fill="none" stroke="black" d="M408.97,-222.53C449.46,-213.38 518.59,-197.76 564.81,-187.32"/>
<polygon fill="black" stroke="black" points="565.29,-190.8 574.28,-185.18 563.75,-183.97 565.29,-190.8"/>
</g>
<!-- Queries -->
<g id="node9" class="node">
<title>Queries</title>
<g id="a_node9"><a xlink:href="../queries.html" xlink:title="Queries" target="_top">
<polygon fill="none" stroke="white" points="222.32,-240.6 170,-240.6 170,-221.28 222.32,-221.28 222.32,-240.6"/>
<text xml:space="preserve" text-anchor="middle" x="196.16" y="-225.14" font-family="Sans-Serif" font-size="14.00">Queries</text>
</a>
</g>
</g>
<!-- Queries&#45;&gt;Views -->
<g id="edge7" class="edge">
<title>Queries&#45;&gt;Views</title>
<path fill="none" stroke="black" d="M196.16,-221.14C196.16,-214.54 196.16,-205.24 196.16,-196.85"/>
<polygon fill="black" stroke="black" points="199.66,-197.13 196.16,-187.13 192.66,-197.13 199.66,-197.13"/>
</g>
<!-- Queries&#45;&gt;Reconstruction -->
<g id="edge46" class="edge">
<title>Queries&#45;&gt;Reconstruction</title>
<path fill="none" stroke="black" d="M170.88,-220.89C146.8,-212.28 110.3,-199.22 83.18,-189.51"/>
<polygon fill="black" stroke="black" points="84.58,-186.29 73.98,-186.22 82.22,-192.88 84.58,-186.29"/>
</g>
<!-- Operations -->
<g id="node10" class="node">
<title>Operations</title>
<g id="a_node10"><a xlink:href="../operations.html" xlink:title="Operations" target="_top">
<polygon fill="none" stroke="white" points="285.69,-295.92 214.62,-295.92 214.62,-276.6 285.69,-276.6 285.69,-295.92"/>
<text xml:space="preserve" text-anchor="middle" x="250.16" y="-280.46" font-family="Sans-Serif" font-size="14.00">Operations</text>
</a>
</g>
</g>
<!-- Operations&#45;&gt;Queries -->
<g id="edge10" class="edge">
<title>Operations&#45;&gt;Queries</title>
<path fill="none" stroke="black" d="M241.24,-276.46C233.71,-269.01 222.69,-258.14 213.43,-249"/>
<polygon fill="black" stroke="black" points="215.92,-246.54 206.35,-242 211,-251.52 215.92,-246.54"/>
</g>
<!-- Operations&#45;&gt;FilesFormat -->
<g id="edge41" class="edge">
<title>Operations&#45;&gt;FilesFormat</title>
<path fill="none" stroke="black" d="M251.47,-276.49C253.66,-263.68 258.87,-239.42 269.16,-221.28 274.97,-211.03 283.53,-201.21 291.33,-193.4"/>
<polygon fill="black" stroke="black" points="293.69,-195.99 298.53,-186.57 288.87,-190.92 293.69,-195.99"/>
</g>
<!-- Registry -->
<g id="node11" class="node">
<title>Registry</title>
<g id="a_node11"><a xlink:href="../registry.html" xlink:title="Registry" target="_top">
<polygon fill="none" stroke="white" points="277.07,-406.56 223.25,-406.56 223.25,-387.24 277.07,-387.24 277.07,-406.56"/>
<text xml:space="preserve" text-anchor="middle" x="250.16" y="-391.1" font-family="Sans-Serif" font-size="14.00">Registry</text>
</a>
</g>
</g>
<!-- Registry&#45;&gt;Operations -->
<g id="edge8" class="edge">
<title>Registry&#45;&gt;Operations</title>
<path fill="none" stroke="black" d="M250.16,-387.01C250.16,-369.74 250.16,-331.27 250.16,-307.48"/>
<polygon fill="black" stroke="black" points="253.66,-307.79 250.16,-297.79 246.66,-307.79 253.66,-307.79"/>
</g>
<!-- Formats -->
<g id="node19" class="node">
<title>Formats</title>
<g id="a_node19"><a xlink:href="../formats.html" xlink:title="Formats" target="_top">
<polygon fill="none" stroke="white" points="394.44,-351.24 339.87,-351.24 339.87,-331.92 394.44,-331.92 394.44,-351.24"/>
<text xml:space="preserve" text-anchor="middle" x="367.16" y="-335.78" font-family="Sans-Serif" font-size="14.00">Formats</text>
</a>
</g>
</g>
<!-- Registry&#45;&gt;Formats -->
<g id="edge18" class="edge">
<title>Registry&#45;&gt;Formats</title>
<path fill="none" stroke="black" d="M270.01,-386.85C288.33,-378.51 315.81,-365.98 336.87,-356.38"/>
<polygon fill="black" stroke="black" points="338.19,-359.63 345.84,-352.3 335.29,-353.26 338.19,-359.63"/>
</g>
<!-- Tokens -->
<g id="node12" class="node">
<title>Tokens</title>
<g id="a_node12"><a xlink:href="../tokens.html" xlink:title="Tokens" target="_top">
<polygon fill="none" stroke="white" points="341.69,-406.56 294.62,-406.56 294.62,-387.24 341.69,-387.24 341.69,-406.56"/>
<text xml:space="preserve" text-anchor="middle" x="318.16" y="-391.1" font-family="Sans-Serif" font-size="14.00">Tokens</text>
</a>
</g>
</g>
<!-- Tokens&#45;&gt;Operations -->
<g id="edge9" class="edge">
<title>Tokens&#45;&gt;Operations</title>
<path fill="none" stroke="black" d="M312.6,-387.01C301.54,-369.34 276.59,-329.49 261.8,-305.85"/>
<polygon fill="black" stroke="black" points="264.88,-304.18 256.6,-297.56 258.94,-307.89 264.88,-304.18"/>
</g>
<!-- Tokens&#45;&gt;Formats -->
<g id="edge19" class="edge">
<title>Tokens&#45;&gt;Formats</title>
<path fill="none" stroke="black" d="M326.25,-387.1C333.02,-379.73 342.88,-369 351.22,-359.92"/>
<polygon fill="black" stroke="black" points="353.68,-362.42 357.87,-352.69 348.53,-357.69 353.68,-362.42"/>
</g>
<!-- Readers -->
<g id="node13" class="node">
<title>Readers</title>
<g id="a_node13"><a xlink:href="../readers.html" xlink:title="Readers" target="_top">
<polygon fill="none" stroke="white" points="398.82,-295.92 343.5,-295.92 343.5,-276.6 398.82,-276.6 398.82,-295.92"/>
<text xml:space="preserve" text-anchor="middle" x="371.16" y="-280.46" font-family="Sans-Serif" font-size="14.00">Readers</text>
</a>
</g>
</g>
<!-- Readers&#45;&gt;Writers -->
<g id="edge34" class="edge">
<title>Readers&#45;&gt;Writers</title>
<path fill="none" stroke="black" d="M359.46,-276.21C349.38,-268.43 334.62,-257.02 322.6,-247.73"/>
<polygon fill="black" stroke="black" points="324.94,-245.12 314.89,-241.78 320.66,-250.66 324.94,-245.12"/>
</g>
<!-- Readers&#45;&gt;ReadOnly -->
<g id="edge47" class="edge">
<title>Readers&#45;&gt;ReadOnly</title>
<path fill="none" stroke="black" d="M371.99,-276.46C372.6,-269.86 373.48,-260.56 374.26,-252.17"/>
<polygon fill="black" stroke="black" points="377.73,-252.73 375.18,-242.44 370.76,-252.07 377.73,-252.73"/>
</g>
<!-- Readers&#45;&gt;Queries -->
<g id="edge11" class="edge">
<title>Readers&#45;&gt;Queries</title>
<path fill="none" stroke="black" d="M343.04,-276.69C313.4,-267.66 266.54,-253.38 233.74,-243.39"/>
<polygon fill="black" stroke="black" points="234.81,-240.06 224.22,-240.49 232.77,-246.75 234.81,-240.06"/>
</g>
<!-- Reorder -->
<g id="node18" class="node">
<title>Reorder</title>
<g id="a_node18"><a xlink:href="../reorder.html" xlink:title="Reorder" target="_top">
<polygon fill="none" stroke="white" points="479.69,-240.6 426.62,-240.6 426.62,-221.28 479.69,-221.28 479.69,-240.6"/>
<text xml:space="preserve" text-anchor="middle" x="453.16" y="-225.14" font-family="Sans-Serif" font-size="14.00">Reorder</text>
</a>
</g>
</g>
<!-- Readers&#45;&gt;Reorder -->
<g id="edge16" class="edge">
<title>Readers&#45;&gt;Reorder</title>
<path fill="none" stroke="black" d="M385.07,-276.21C397.32,-268.25 415.41,-256.48 429.87,-247.08"/>
<polygon fill="black" stroke="black" points="431.44,-250.24 437.91,-241.85 427.62,-244.37 431.44,-250.24"/>
</g>
<!-- Groups -->
<g id="node25" class="node">
<title>Groups</title>
<g id="a_node25"><a xlink:href="../groups.html" xlink:title="Groups" target="_top">
<polygon fill="none" stroke="white" points="546.82,-240.6 497.5,-240.6 497.5,-221.28 546.82,-221.28 546.82,-240.6"/>
<text xml:space="preserve" text-anchor="middle" x="522.16" y="-225.14" font-family="Sans-Serif" font-size="14.00">Groups</text>
</a>
</g>
</g>
<!-- Readers&#45;&gt;Groups -->
<g id="edge33" class="edge">
<title>Readers&#45;&gt;Groups</title>
<path fill="none" stroke="black" d="M396.78,-276.21C421.4,-267.52 458.84,-254.3 486.4,-244.57"/>
<polygon fill="black" stroke="black" points="487.48,-247.9 495.75,-241.27 485.15,-241.3 487.48,-247.9"/>
</g>
<!-- FilesFormat&#45;&gt;CompleteDaf -->
<g id="edge12" class="edge">
<title>FilesFormat&#45;&gt;CompleteDaf</title>
<path fill="none" stroke="black" d="M311.22,-165.73C313.29,-148.46 317.89,-109.99 320.74,-86.2"/>
<polygon fill="black" stroke="black" points="324.19,-86.84 321.9,-76.5 317.24,-86.01 324.19,-86.84"/>
</g>
<!-- FilesFormat&#45;&gt;ExampleData -->
<g id="edge22" class="edge">
<title>FilesFormat&#45;&gt;ExampleData</title>
<path fill="none" stroke="black" d="M319.65,-165.73C339.03,-147.59 383.39,-106.04 408.31,-82.69"/>
<polygon fill="black" stroke="black" points="410.53,-85.42 415.43,-76.03 405.74,-80.31 410.53,-85.42"/>
</g>
<!-- H5dfFormat&#45;&gt;CompleteDaf -->
<g id="edge14" class="edge">
<title>H5dfFormat&#45;&gt;CompleteDaf</title>
<path fill="none" stroke="black" d="M397.53,-165.73C384.24,-147.9 354.11,-107.49 336.55,-83.94"/>
<polygon fill="black" stroke="black" points="339.57,-82.13 330.78,-76.21 333.96,-86.32 339.57,-82.13"/>
</g>
<!-- Contracts&#45;&gt;Computations -->
<g id="edge44" class="edge">
<title>Contracts&#45;&gt;Computations</title>
<path fill="none" stroke="black" d="M192.85,-110.5C191.1,-103.82 188.62,-94.38 186.39,-85.91"/>
<polygon fill="black" stroke="black" points="189.83,-85.22 183.91,-76.44 183.06,-87 189.83,-85.22"/>
</g>
<!-- Reorder&#45;&gt;MemoryFormat -->
<g id="edge28" class="edge">
<title>Reorder&#45;&gt;MemoryFormat</title>
<path fill="none" stroke="black" d="M462.66,-220.89C470.59,-213.34 482.11,-202.38 491.7,-193.25"/>
<polygon fill="black" stroke="black" points="493.88,-196.01 498.7,-186.58 489.05,-190.94 493.88,-196.01"/>
</g>
<!-- Reorder&#45;&gt;FilesFormat -->
<g id="edge40" class="edge">
<title>Reorder&#45;&gt;FilesFormat</title>
<path fill="none" stroke="black" d="M428.9,-220.89C405.89,-212.32 371.07,-199.33 345.08,-189.64"/>
<polygon fill="black" stroke="black" points="346.55,-186.45 335.96,-186.24 344.1,-193.01 346.55,-186.45"/>
</g>
<!-- Reorder&#45;&gt;H5dfFormat -->
<g id="edge32" class="edge">
<title>Reorder&#45;&gt;H5dfFormat</title>
<path fill="none" stroke="black" d="M445.07,-221.14C438.3,-213.77 428.44,-203.04 420.1,-193.96"/>
<polygon fill="black" stroke="black" points="422.79,-191.73 413.45,-186.73 417.64,-196.46 422.79,-191.73"/>
</g>
<!-- Reorder&#45;&gt;ZarrFormat -->
<g id="edge26" class="edge">
<title>Reorder&#45;&gt;ZarrFormat</title>
<path fill="none" stroke="black" d="M480.13,-220.89C506.06,-212.2 545.47,-198.98 574.49,-189.25"/>
<polygon fill="black" stroke="black" points="575.25,-192.69 583.62,-186.19 573.03,-186.05 575.25,-192.69"/>
</g>
<!-- Formats&#45;&gt;Readers -->
<g id="edge48" class="edge">
<title>Formats&#45;&gt;Readers</title>
<path fill="none" stroke="black" d="M367.82,-331.78C368.32,-325.18 369.01,-315.88 369.64,-307.49"/>
<polygon fill="black" stroke="black" points="373.11,-308 370.37,-297.77 366.13,-307.48 373.11,-308"/>
</g>
<!-- Keys -->
<g id="node20" class="node">
<title>Keys</title>
<g id="a_node20"><a xlink:href="../keys.html" xlink:title="Keys" target="_top">
<polygon fill="none" stroke="white" points="394.32,-406.56 360,-406.56 360,-387.24 394.32,-387.24 394.32,-406.56"/>
<text xml:space="preserve" text-anchor="middle" x="377.16" y="-391.1" font-family="Sans-Serif" font-size="14.00">Keys</text>
</a>
</g>
</g>
<!-- Keys&#45;&gt;Formats -->
<g id="edge17" class="edge">
<title>Keys&#45;&gt;Formats</title>
<path fill="none" stroke="black" d="M375.51,-387.1C374.27,-380.5 372.53,-371.2 370.95,-362.81"/>
<polygon fill="black" stroke="black" points="374.41,-362.25 369.13,-353.06 367.53,-363.54 374.41,-362.25"/>
</g>
<!-- MmapZipStores -->
<g id="node22" class="node">
<title>MmapZipStores</title>
<g id="a_node22"><a xlink:href="../mmap_zip_store.html" xlink:title="MmapZipStores" target="_top">
<polygon fill="none" stroke="white" points="665.69,-240.6 564.62,-240.6 564.62,-221.28 665.69,-221.28 665.69,-240.6"/>
<text xml:space="preserve" text-anchor="middle" x="615.16" y="-225.14" font-family="Sans-Serif" font-size="14.00">MmapZipStores</text>
</a>
</g>
</g>
<!-- MmapZipStores&#45;&gt;ZarrFormat -->
<g id="edge25" class="edge">
<title>MmapZipStores&#45;&gt;ZarrFormat</title>
<path fill="none" stroke="black" d="M614.66,-221.14C614.29,-214.54 613.77,-205.24 613.3,-196.85"/>
<polygon fill="black" stroke="black" points="616.81,-196.91 612.75,-187.13 609.82,-197.31 616.81,-196.91"/>
</g>
<!-- StorageTypes -->
<g id="node24" class="node">
<title>StorageTypes</title>
<g id="a_node24"><a xlink:href="../storage_types.html" xlink:title="StorageTypes" target="_top">
<polygon fill="none" stroke="white" points="294.32,-461.88 206,-461.88 206,-442.56 294.32,-442.56 294.32,-461.88"/>
<text xml:space="preserve" text-anchor="middle" x="250.16" y="-446.42" font-family="Sans-Serif" font-size="14.00">StorageTypes</text>
</a>
</g>
</g>
<!-- StorageTypes&#45;&gt;Registry -->
<g id="edge29" class="edge">
<title>StorageTypes&#45;&gt;Registry</title>
<path fill="none" stroke="black" d="M250.16,-442.42C250.16,-435.82 250.16,-426.52 250.16,-418.13"/>
<polygon fill="black" stroke="black" points="253.66,-418.41 250.16,-408.41 246.66,-418.41 253.66,-418.41"/>
</g>
</g>
</svg>
