<?xml version="1.0" encoding="UTF-8" standalone="no"?>
<!DOCTYPE svg PUBLIC "-//W3C//DTD SVG 1.1//EN"
 "http://www.w3.org/Graphics/SVG/1.1/DTD/svg11.dtd">
<!-- Generated by graphviz version 14.1.5 (20260411.2331)
 -->
<!-- Pages: 1 -->
<svg width="713pt" height="470pt"
 viewBox="0.00 0.00 713.00 470.00" xmlns="http://www.w3.org/2000/svg" xmlns:xlink="http://www.w3.org/1999/xlink">
<g id="graph0" class="graph" transform="scale(1 1) rotate(0) translate(4 465.88)">
<polygon fill="white" stroke="none" points="-4,4 -4,-465.88 709.32,-465.88 709.32,4 -4,4"/>
<!-- Copies -->
<g id="node1" class="node">
<title>Copies</title>
<g id="a_node1"><a xlink:href="../copies.html" xlink:title="Copies" target="_top">
<polygon fill="none" stroke="white" points="158.32,-185.28 112,-185.28 112,-165.96 158.32,-165.96 158.32,-185.28"/>
<text xml:space="preserve" text-anchor="middle" x="135.16" y="-169.82" font-family="Sans-Serif" font-size="14.00">Copies</text>
</a>
</g>
</g>
<!-- Adapters -->
<g id="node7" class="node">
<title>Adapters</title>
<g id="a_node7"><a xlink:href="../adapters.html" xlink:title="Adapters" target="_top">
<polygon fill="none" stroke="white" points="191.32,-19.32 133,-19.32 133,0 191.32,0 191.32,-19.32"/>
<text xml:space="preserve" text-anchor="middle" x="162.16" y="-3.86" font-family="Sans-Serif" font-size="14.00">Adapters</text>
</a>
</g>
</g>
<!-- Copies&#45;&gt;Adapters -->
<g id="edge8" class="edge">
<title>Copies&#45;&gt;Adapters</title>
<path fill="none" stroke="black" d="M111.68,-167.08C79.64,-156.55 25.57,-137.87 20.16,-129.96 15.31,-122.87 16.96,-118.61 20.16,-110.64 37.93,-66.4 87.94,-38.66 123.57,-23.92"/>
<polygon fill="black" stroke="black" points="124.69,-27.25 132.7,-20.32 122.12,-20.73 124.69,-27.25"/>
</g>
<!-- Concat -->
<g id="node32" class="node">
<title>Concat</title>
<g id="a_node32"><a xlink:href="../concat.html" xlink:title="Concat" target="_top">
<polygon fill="none" stroke="white" points="76.69,-129.96 29.62,-129.96 29.62,-110.64 76.69,-110.64 76.69,-129.96"/>
<text xml:space="preserve" text-anchor="middle" x="53.16" y="-114.5" font-family="Sans-Serif" font-size="14.00">Concat</text>
</a>
</g>
</g>
<!-- Copies&#45;&gt;Concat -->
<g id="edge48" class="edge">
<title>Copies&#45;&gt;Concat</title>
<path fill="none" stroke="black" d="M121.25,-165.57C109,-157.61 90.91,-145.84 76.45,-136.44"/>
<polygon fill="black" stroke="black" points="78.7,-133.73 68.41,-131.21 74.88,-139.6 78.7,-133.73"/>
</g>
<!-- Writers -->
<g id="node2" class="node">
<title>Writers</title>
<g id="a_node2"><a xlink:href="../writers.html" xlink:title="Writers" target="_top">
<polygon fill="none" stroke="white" points="306.69,-240.6 259.62,-240.6 259.62,-221.28 306.69,-221.28 306.69,-240.6"/>
<text xml:space="preserve" text-anchor="middle" x="283.16" y="-225.14" font-family="Sans-Serif" font-size="14.00">Writers</text>
</a>
</g>
</g>
<!-- Writers&#45;&gt;Copies -->
<g id="edge1" class="edge">
<title>Writers&#45;&gt;Copies</title>
<path fill="none" stroke="black" d="M259.38,-221.37C234.96,-212.58 196.73,-198.8 169.13,-188.86"/>
<polygon fill="black" stroke="black" points="170.41,-185.6 159.82,-185.5 168.04,-192.19 170.41,-185.6"/>
</g>
<!-- MemoryFormat -->
<g id="node9" class="node">
<title>MemoryFormat</title>
<g id="a_node9"><a xlink:href="../memory_format.html" xlink:title="MemoryFormat" target="_top">
<polygon fill="none" stroke="white" points="376.19,-185.28 278.12,-185.28 278.12,-165.96 376.19,-165.96 376.19,-185.28"/>
<text xml:space="preserve" text-anchor="middle" x="327.16" y="-169.82" font-family="Sans-Serif" font-size="14.00">MemoryFormat</text>
</a>
</g>
</g>
<!-- Writers&#45;&gt;MemoryFormat -->
<g id="edge30" class="edge">
<title>Writers&#45;&gt;MemoryFormat</title>
<path fill="none" stroke="black" d="M290.43,-221.14C296.44,-213.85 305.17,-203.26 312.62,-194.24"/>
<polygon fill="black" stroke="black" points="315.11,-196.72 318.77,-186.78 309.71,-192.27 315.11,-196.72"/>
</g>
<!-- Chains -->
<g id="node10" class="node">
<title>Chains</title>
<g id="a_node10"><a xlink:href="../chains.html" xlink:title="Chains" target="_top">
<polygon fill="none" stroke="white" points="221.32,-129.96 175,-129.96 175,-110.64 221.32,-110.64 221.32,-129.96"/>
<text xml:space="preserve" text-anchor="middle" x="198.16" y="-114.5" font-family="Sans-Serif" font-size="14.00">Chains</text>
</a>
</g>
</g>
<!-- Writers&#45;&gt;Chains -->
<g id="edge41" class="edge">
<title>Writers&#45;&gt;Chains</title>
<path fill="none" stroke="black" d="M276.2,-221.05C262.26,-203.22 230.64,-162.81 212.21,-139.26"/>
<polygon fill="black" stroke="black" points="215.06,-137.22 206.14,-131.51 209.55,-141.54 215.06,-137.22"/>
</g>
<!-- H5dfFormat -->
<g id="node20" class="node">
<title>H5dfFormat</title>
<g id="a_node20"><a xlink:href="../h5df_format.html" xlink:title="H5dfFormat" target="_top">
<polygon fill="none" stroke="white" points="565.32,-185.28 489,-185.28 489,-165.96 565.32,-165.96 565.32,-185.28"/>
<text xml:space="preserve" text-anchor="middle" x="527.16" y="-169.82" font-family="Sans-Serif" font-size="14.00">H5dfFormat</text>
</a>
</g>
</g>
<!-- Writers&#45;&gt;H5dfFormat -->
<g id="edge36" class="edge">
<title>Writers&#45;&gt;H5dfFormat</title>
<path fill="none" stroke="black" d="M306.89,-223.36C309.67,-222.63 312.47,-221.93 315.16,-221.28 370.55,-207.96 434.61,-194.77 477.69,-186.22"/>
<polygon fill="black" stroke="black" points="478.1,-189.7 487.23,-184.33 476.74,-182.84 478.1,-189.7"/>
</g>
<!-- FilesFormat -->
<g id="node26" class="node">
<title>FilesFormat</title>
<g id="a_node26"><a xlink:href="../files_format.html" xlink:title="FilesFormat" target="_top">
<polygon fill="none" stroke="white" points="471.32,-185.28 395,-185.28 395,-165.96 471.32,-165.96 471.32,-185.28"/>
<text xml:space="preserve" text-anchor="middle" x="433.16" y="-169.82" font-family="Sans-Serif" font-size="14.00">FilesFormat</text>
</a>
</g>
</g>
<!-- Writers&#45;&gt;FilesFormat -->
<g id="edge46" class="edge">
<title>Writers&#45;&gt;FilesFormat</title>
<path fill="none" stroke="black" d="M306.93,-221.49C331.14,-212.88 369,-199.43 396.94,-189.49"/>
<polygon fill="black" stroke="black" points="397.82,-192.9 406.07,-186.25 395.47,-186.3 397.82,-192.9"/>
</g>
<!-- Reconstruction -->
<g id="node33" class="node">
<title>Reconstruction</title>
<g id="a_node33"><a xlink:href="../reconstruction.html" xlink:title="Reconstruction" target="_top">
<polygon fill="none" stroke="white" points="94.32,-185.28 0,-185.28 0,-165.96 94.32,-165.96 94.32,-185.28"/>
<text xml:space="preserve" text-anchor="middle" x="47.16" y="-169.82" font-family="Sans-Serif" font-size="14.00">Reconstruction</text>
</a>
</g>
</g>
<!-- Writers&#45;&gt;Reconstruction -->
<g id="edge52" class="edge">
<title>Writers&#45;&gt;Reconstruction</title>
<path fill="none" stroke="black" d="M259.23,-224.53C221.83,-216.08 148.66,-199.55 98.84,-188.3"/>
<polygon fill="black" stroke="black" points="99.66,-184.89 89.13,-186.1 98.11,-191.72 99.66,-184.89"/>
</g>
<!-- PackedFormat -->
<g id="node3" class="node">
<title>PackedFormat</title>
<g id="a_node3"><a xlink:href="../packed_format.html" xlink:title="PackedFormat" target="_top">
<polygon fill="none" stroke="white" points="329.57,-295.92 236.75,-295.92 236.75,-276.6 329.57,-276.6 329.57,-295.92"/>
<text xml:space="preserve" text-anchor="middle" x="283.16" y="-280.46" font-family="Sans-Serif" font-size="14.00">PackedFormat</text>
</a>
</g>
</g>
<!-- PackedFormat&#45;&gt;Writers -->
<g id="edge38" class="edge">
<title>PackedFormat&#45;&gt;Writers</title>
<path fill="none" stroke="black" d="M283.16,-276.46C283.16,-269.86 283.16,-260.56 283.16,-252.17"/>
<polygon fill="black" stroke="black" points="286.66,-252.45 283.16,-242.45 279.66,-252.45 286.66,-252.45"/>
</g>
<!-- Operations -->
<g id="node4" class="node">
<title>Operations</title>
<g id="a_node4"><a xlink:href="../operations.html" xlink:title="Operations" target="_top">
<polygon fill="none" stroke="white" points="214.69,-351.24 143.62,-351.24 143.62,-331.92 214.69,-331.92 214.69,-351.24"/>
<text xml:space="preserve" text-anchor="middle" x="179.16" y="-335.78" font-family="Sans-Serif" font-size="14.00">Operations</text>
</a>
</g>
</g>
<!-- Operations&#45;&gt;PackedFormat -->
<g id="edge2" class="edge">
<title>Operations&#45;&gt;PackedFormat</title>
<path fill="none" stroke="black" d="M196.8,-331.53C212.79,-323.34 236.62,-311.12 255.2,-301.6"/>
<polygon fill="black" stroke="black" points="256.78,-304.72 264.08,-297.04 253.59,-298.49 256.78,-304.72"/>
</g>
<!-- Queries -->
<g id="node12" class="node">
<title>Queries</title>
<g id="a_node12"><a xlink:href="../queries.html" xlink:title="Queries" target="_top">
<polygon fill="none" stroke="white" points="220.32,-240.6 168,-240.6 168,-221.28 220.32,-221.28 220.32,-240.6"/>
<text xml:space="preserve" text-anchor="middle" x="194.16" y="-225.14" font-family="Sans-Serif" font-size="14.00">Queries</text>
</a>
</g>
</g>
<!-- Operations&#45;&gt;Queries -->
<g id="edge13" class="edge">
<title>Operations&#45;&gt;Queries</title>
<path fill="none" stroke="black" d="M180.39,-331.69C182.77,-314.42 188.08,-275.95 191.37,-252.16"/>
<polygon fill="black" stroke="black" points="194.81,-252.84 192.71,-242.45 187.87,-251.88 194.81,-252.84"/>
</g>
<!-- Formats -->
<g id="node5" class="node">
<title>Formats</title>
<g id="a_node5"><a xlink:href="../formats.html" xlink:title="Formats" target="_top">
<polygon fill="none" stroke="white" points="406.44,-351.24 351.87,-351.24 351.87,-331.92 406.44,-331.92 406.44,-351.24"/>
<text xml:space="preserve" text-anchor="middle" x="379.16" y="-335.78" font-family="Sans-Serif" font-size="14.00">Formats</text>
</a>
</g>
</g>
<!-- Formats&#45;&gt;PackedFormat -->
<g id="edge3" class="edge">
<title>Formats&#45;&gt;PackedFormat</title>
<path fill="none" stroke="black" d="M362.87,-331.53C348.26,-323.42 326.53,-311.35 309.45,-301.86"/>
<polygon fill="black" stroke="black" points="311.29,-298.88 300.85,-297.08 307.89,-305 311.29,-298.88"/>
</g>
<!-- Readers -->
<g id="node16" class="node">
<title>Readers</title>
<g id="a_node16"><a xlink:href="../readers.html" xlink:title="Readers" target="_top">
<polygon fill="none" stroke="white" points="404.82,-295.92 349.5,-295.92 349.5,-276.6 404.82,-276.6 404.82,-295.92"/>
<text xml:space="preserve" text-anchor="middle" x="377.16" y="-280.46" font-family="Sans-Serif" font-size="14.00">Readers</text>
</a>
</g>
</g>
<!-- Formats&#45;&gt;Readers -->
<g id="edge54" class="edge">
<title>Formats&#45;&gt;Readers</title>
<path fill="none" stroke="black" d="M378.83,-331.78C378.58,-325.18 378.23,-315.88 377.92,-307.49"/>
<polygon fill="black" stroke="black" points="381.43,-307.63 377.55,-297.77 374.43,-307.89 381.43,-307.63"/>
</g>
<!-- MmapZipStores -->
<g id="node6" class="node">
<title>MmapZipStores</title>
<g id="a_node6"><a xlink:href="../mmap_zip_store.html" xlink:title="MmapZipStores" target="_top">
<polygon fill="none" stroke="white" points="333.69,-351.24 232.62,-351.24 232.62,-331.92 333.69,-331.92 333.69,-351.24"/>
<text xml:space="preserve" text-anchor="middle" x="283.16" y="-335.78" font-family="Sans-Serif" font-size="14.00">MmapZipStores</text>
</a>
</g>
</g>
<!-- MmapZipStores&#45;&gt;PackedFormat -->
<g id="edge4" class="edge">
<title>MmapZipStores&#45;&gt;PackedFormat</title>
<path fill="none" stroke="black" d="M283.16,-331.78C283.16,-325.18 283.16,-315.88 283.16,-307.49"/>
<polygon fill="black" stroke="black" points="286.66,-307.77 283.16,-297.77 279.66,-307.77 286.66,-307.77"/>
</g>
<!-- Computations -->
<g id="node8" class="node">
<title>Computations</title>
<g id="a_node8"><a xlink:href="../computations.html" xlink:title="Computations" target="_top">
<polygon fill="none" stroke="white" points="170.32,-74.64 82,-74.64 82,-55.32 170.32,-55.32 170.32,-74.64"/>
<text xml:space="preserve" text-anchor="middle" x="126.16" y="-59.18" font-family="Sans-Serif" font-size="14.00">Computations</text>
</a>
</g>
</g>
<!-- Computations&#45;&gt;Adapters -->
<g id="edge5" class="edge">
<title>Computations&#45;&gt;Adapters</title>
<path fill="none" stroke="black" d="M132.1,-55.18C136.87,-48.12 143.72,-37.97 149.68,-29.14"/>
<polygon fill="black" stroke="black" points="152.54,-31.16 155.24,-20.91 146.74,-27.24 152.54,-31.16"/>
</g>
<!-- MemoryFormat&#45;&gt;Adapters -->
<g id="edge6" class="edge">
<title>MemoryFormat&#45;&gt;Adapters</title>
<path fill="none" stroke="black" d="M313.92,-165.73C301.57,-157.17 282.88,-143.56 268.16,-129.96 232.22,-96.73 195.4,-52.55 176.04,-28.36"/>
<polygon fill="black" stroke="black" points="178.97,-26.43 170.01,-20.76 173.48,-30.77 178.97,-26.43"/>
</g>
<!-- ExampleData -->
<g id="node25" class="node">
<title>ExampleData</title>
<g id="a_node25"><a xlink:href="../example_data.html" xlink:title="ExampleData" target="_top">
<polygon fill="none" stroke="white" points="448.19,-74.64 362.12,-74.64 362.12,-55.32 448.19,-55.32 448.19,-74.64"/>
<text xml:space="preserve" text-anchor="middle" x="405.16" y="-59.18" font-family="Sans-Serif" font-size="14.00">ExampleData</text>
</a>
</g>
</g>
<!-- MemoryFormat&#45;&gt;ExampleData -->
<g id="edge25" class="edge">
<title>MemoryFormat&#45;&gt;ExampleData</title>
<path fill="none" stroke="black" d="M344.56,-165.51C357.79,-157.74 375.48,-145.38 386.16,-129.96 395.16,-116.97 399.96,-99.66 402.49,-86.32"/>
<polygon fill="black" stroke="black" points="405.93,-86.93 404.03,-76.51 399.02,-85.84 405.93,-86.93"/>
</g>
<!-- AnnDataFormat -->
<g id="node31" class="node">
<title>AnnDataFormat</title>
<g id="a_node31"><a xlink:href="../anndata_format.html" xlink:title="AnnDataFormat" target="_top">
<polygon fill="none" stroke="white" points="377.32,-129.96 277,-129.96 277,-110.64 377.32,-110.64 377.32,-129.96"/>
<text xml:space="preserve" text-anchor="middle" x="327.16" y="-114.5" font-family="Sans-Serif" font-size="14.00">AnnDataFormat</text>
</a>
</g>
</g>
<!-- MemoryFormat&#45;&gt;AnnDataFormat -->
<g id="edge42" class="edge">
<title>MemoryFormat&#45;&gt;AnnDataFormat</title>
<path fill="none" stroke="black" d="M327.16,-165.82C327.16,-159.22 327.16,-149.92 327.16,-141.53"/>
<polygon fill="black" stroke="black" points="330.66,-141.81 327.16,-131.81 323.66,-141.81 330.66,-141.81"/>
</g>
<!-- Chains&#45;&gt;Adapters -->
<g id="edge7" class="edge">
<title>Chains&#45;&gt;Adapters</title>
<path fill="none" stroke="black" d="M195.78,-110.54C192.37,-98.16 185.77,-74.86 179.16,-55.32 176.34,-46.97 172.93,-37.86 169.91,-30.06"/>
<polygon fill="black" stroke="black" points="173.22,-28.92 166.3,-20.89 166.71,-31.48 173.22,-28.92"/>
</g>
<!-- CompleteDaf -->
<g id="node17" class="node">
<title>CompleteDaf</title>
<g id="a_node17"><a xlink:href="../complete.html" xlink:title="CompleteDaf" target="_top">
<polygon fill="none" stroke="white" points="587.07,-19.32 503.25,-19.32 503.25,0 587.07,0 587.07,-19.32"/>
<text xml:space="preserve" text-anchor="middle" x="545.16" y="-3.86" font-family="Sans-Serif" font-size="14.00">CompleteDaf</text>
</a>
</g>
</g>
<!-- Chains&#45;&gt;CompleteDaf -->
<g id="edge16" class="edge">
<title>Chains&#45;&gt;CompleteDaf</title>
<path fill="none" stroke="black" d="M217.35,-110.18C246.27,-96.72 302.98,-71.39 353.16,-55.32 399.29,-40.54 453.09,-28.46 491.99,-20.6"/>
<polygon fill="black" stroke="black" points="492.44,-24.08 501.57,-18.69 491.08,-17.21 492.44,-24.08"/>
</g>
<!-- Chains&#45;&gt;ExampleData -->
<g id="edge27" class="edge">
<title>Chains&#45;&gt;ExampleData</title>
<path fill="none" stroke="black" d="M221.5,-113.29C254.7,-104.74 316.24,-88.89 358.88,-77.9"/>
<polygon fill="black" stroke="black" points="359.55,-81.34 368.36,-75.46 357.8,-74.56 359.55,-81.34"/>
</g>
<!-- Views -->
<g id="node11" class="node">
<title>Views</title>
<g id="a_node11"><a xlink:href="../views.html" xlink:title="Views" target="_top">
<polygon fill="none" stroke="white" points="216.32,-185.28 176,-185.28 176,-165.96 216.32,-165.96 216.32,-185.28"/>
<text xml:space="preserve" text-anchor="middle" x="196.16" y="-169.82" font-family="Sans-Serif" font-size="14.00">Views</text>
</a>
</g>
</g>
<!-- Views&#45;&gt;Chains -->
<g id="edge40" class="edge">
<title>Views&#45;&gt;Chains</title>
<path fill="none" stroke="black" d="M196.49,-165.82C196.74,-159.22 197.09,-149.92 197.4,-141.53"/>
<polygon fill="black" stroke="black" points="200.89,-141.93 197.77,-131.81 193.89,-141.67 200.89,-141.93"/>
</g>
<!-- Contracts -->
<g id="node21" class="node">
<title>Contracts</title>
<g id="a_node21"><a xlink:href="../contracts.html" xlink:title="Contracts" target="_top">
<polygon fill="none" stroke="white" points="157.19,-129.96 95.12,-129.96 95.12,-110.64 157.19,-110.64 157.19,-129.96"/>
<text xml:space="preserve" text-anchor="middle" x="126.16" y="-114.5" font-family="Sans-Serif" font-size="14.00">Contracts</text>
</a>
</g>
</g>
<!-- Views&#45;&gt;Contracts -->
<g id="edge19" class="edge">
<title>Views&#45;&gt;Contracts</title>
<path fill="none" stroke="black" d="M184.29,-165.57C174.07,-157.79 159.09,-146.38 146.9,-137.09"/>
<polygon fill="black" stroke="black" points="149.14,-134.4 139.06,-131.13 144.9,-139.97 149.14,-134.4"/>
</g>
<!-- Views&#45;&gt;Concat -->
<g id="edge49" class="edge">
<title>Views&#45;&gt;Concat</title>
<path fill="none" stroke="black" d="M175.67,-166.98C152.73,-158.43 115.17,-144.42 87.67,-134.17"/>
<polygon fill="black" stroke="black" points="88.96,-130.91 78.36,-130.7 86.51,-137.47 88.96,-130.91"/>
</g>
<!-- Queries&#45;&gt;Views -->
<g id="edge9" class="edge">
<title>Queries&#45;&gt;Views</title>
<path fill="none" stroke="black" d="M194.49,-221.14C194.74,-214.54 195.09,-205.24 195.4,-196.85"/>
<polygon fill="black" stroke="black" points="198.89,-197.25 195.77,-187.13 191.89,-196.99 198.89,-197.25"/>
</g>
<!-- Queries&#45;&gt;Reconstruction -->
<g id="edge51" class="edge">
<title>Queries&#45;&gt;Reconstruction</title>
<path fill="none" stroke="black" d="M169.22,-220.89C145.47,-212.28 109.45,-199.22 82.7,-189.51"/>
<polygon fill="black" stroke="black" points="84.24,-186.35 73.64,-186.23 81.85,-192.93 84.24,-186.35"/>
</g>
<!-- ReadOnly -->
<g id="node13" class="node">
<title>ReadOnly</title>
<g id="a_node13"><a xlink:href="../read_only.html" xlink:title="ReadOnly" target="_top">
<polygon fill="none" stroke="white" points="389.69,-240.6 324.62,-240.6 324.62,-221.28 389.69,-221.28 389.69,-240.6"/>
<text xml:space="preserve" text-anchor="middle" x="357.16" y="-225.14" font-family="Sans-Serif" font-size="14.00">ReadOnly</text>
</a>
</g>
</g>
<!-- ReadOnly&#45;&gt;Views -->
<g id="edge10" class="edge">
<title>ReadOnly&#45;&gt;Views</title>
<path fill="none" stroke="black" d="M329.85,-220.89C301.37,-211.46 256.81,-196.71 227.06,-186.85"/>
<polygon fill="black" stroke="black" points="228.48,-183.64 217.89,-183.82 226.28,-190.28 228.48,-183.64"/>
</g>
<!-- ReadOnly&#45;&gt;H5dfFormat -->
<g id="edge35" class="edge">
<title>ReadOnly&#45;&gt;H5dfFormat</title>
<path fill="none" stroke="black" d="M386,-220.89C413.84,-212.16 456.23,-198.87 487.3,-189.12"/>
<polygon fill="black" stroke="black" points="488.24,-192.49 496.74,-186.16 486.15,-185.82 488.24,-192.49"/>
</g>
<!-- ReadOnly&#45;&gt;FilesFormat -->
<g id="edge45" class="edge">
<title>ReadOnly&#45;&gt;FilesFormat</title>
<path fill="none" stroke="black" d="M370.05,-220.89C381.19,-213.08 397.53,-201.61 410.8,-192.31"/>
<polygon fill="black" stroke="black" points="412.79,-195.19 418.97,-186.58 408.77,-189.46 412.79,-195.19"/>
</g>
<!-- Registry -->
<g id="node14" class="node">
<title>Registry</title>
<g id="a_node14"><a xlink:href="../registry.html" xlink:title="Registry" target="_top">
<polygon fill="none" stroke="white" points="327.07,-406.56 273.25,-406.56 273.25,-387.24 327.07,-387.24 327.07,-406.56"/>
<text xml:space="preserve" text-anchor="middle" x="300.16" y="-391.1" font-family="Sans-Serif" font-size="14.00">Registry</text>
</a>
</g>
</g>
<!-- Registry&#45;&gt;Operations -->
<g id="edge11" class="edge">
<title>Registry&#45;&gt;Operations</title>
<path fill="none" stroke="black" d="M279.63,-386.85C260.6,-378.47 232.01,-365.87 210.19,-356.25"/>
<polygon fill="black" stroke="black" points="211.73,-353.11 201.17,-352.28 208.91,-359.52 211.73,-353.11"/>
</g>
<!-- Registry&#45;&gt;Formats -->
<g id="edge21" class="edge">
<title>Registry&#45;&gt;Formats</title>
<path fill="none" stroke="black" d="M313.56,-386.85C325.25,-378.97 342.46,-367.35 356.32,-358"/>
<polygon fill="black" stroke="black" points="358.11,-361.01 364.44,-352.52 354.19,-355.21 358.11,-361.01"/>
</g>
<!-- Tokens -->
<g id="node15" class="node">
<title>Tokens</title>
<g id="a_node15"><a xlink:href="../tokens.html" xlink:title="Tokens" target="_top">
<polygon fill="none" stroke="white" points="220.69,-406.56 173.62,-406.56 173.62,-387.24 220.69,-387.24 220.69,-406.56"/>
<text xml:space="preserve" text-anchor="middle" x="197.16" y="-391.1" font-family="Sans-Serif" font-size="14.00">Tokens</text>
</a>
</g>
</g>
<!-- Tokens&#45;&gt;Operations -->
<g id="edge12" class="edge">
<title>Tokens&#45;&gt;Operations</title>
<path fill="none" stroke="black" d="M194.19,-387.1C191.91,-380.34 188.67,-370.77 185.79,-362.22"/>
<polygon fill="black" stroke="black" points="189.2,-361.37 182.68,-353.01 182.56,-363.6 189.2,-361.37"/>
</g>
<!-- Tokens&#45;&gt;Formats -->
<g id="edge22" class="edge">
<title>Tokens&#45;&gt;Formats</title>
<path fill="none" stroke="black" d="M220.95,-388.93C251.43,-380 304.62,-364.42 340.84,-353.81"/>
<polygon fill="black" stroke="black" points="341.43,-357.28 350.04,-351.11 339.46,-350.56 341.43,-357.28"/>
</g>
<!-- Readers&#45;&gt;Writers -->
<g id="edge39" class="edge">
<title>Readers&#45;&gt;Writers</title>
<path fill="none" stroke="black" d="M361.21,-276.21C346.9,-268.1 325.63,-256.03 308.91,-246.54"/>
<polygon fill="black" stroke="black" points="310.93,-243.67 300.5,-241.78 307.47,-249.75 310.93,-243.67"/>
</g>
<!-- Readers&#45;&gt;Queries -->
<g id="edge14" class="edge">
<title>Readers&#45;&gt;Queries</title>
<path fill="none" stroke="black" d="M349.37,-277.16C317.88,-267.99 266.41,-252.99 231.45,-242.8"/>
<polygon fill="black" stroke="black" points="232.76,-239.54 222.18,-240.1 230.8,-246.26 232.76,-239.54"/>
</g>
<!-- Readers&#45;&gt;ReadOnly -->
<g id="edge53" class="edge">
<title>Readers&#45;&gt;ReadOnly</title>
<path fill="none" stroke="black" d="M373.86,-276.46C371.33,-269.7 367.73,-260.13 364.53,-251.58"/>
<polygon fill="black" stroke="black" points="367.86,-250.49 361.07,-242.35 361.3,-252.95 367.86,-250.49"/>
</g>
<!-- Reorder -->
<g id="node22" class="node">
<title>Reorder</title>
<g id="a_node22"><a xlink:href="../reorder.html" xlink:title="Reorder" target="_top">
<polygon fill="none" stroke="white" points="460.69,-240.6 407.62,-240.6 407.62,-221.28 460.69,-221.28 460.69,-240.6"/>
<text xml:space="preserve" text-anchor="middle" x="434.16" y="-225.14" font-family="Sans-Serif" font-size="14.00">Reorder</text>
</a>
</g>
</g>
<!-- Readers&#45;&gt;Reorder -->
<g id="edge20" class="edge">
<title>Readers&#45;&gt;Reorder</title>
<path fill="none" stroke="black" d="M386.83,-276.21C394.9,-268.66 406.63,-257.7 416.38,-248.57"/>
<polygon fill="black" stroke="black" points="418.62,-251.27 423.53,-241.89 413.83,-246.16 418.62,-251.27"/>
</g>
<!-- Groups -->
<g id="node30" class="node">
<title>Groups</title>
<g id="a_node30"><a xlink:href="../groups.html" xlink:title="Groups" target="_top">
<polygon fill="none" stroke="white" points="620.82,-240.6 571.5,-240.6 571.5,-221.28 620.82,-221.28 620.82,-240.6"/>
<text xml:space="preserve" text-anchor="middle" x="596.16" y="-225.14" font-family="Sans-Serif" font-size="14.00">Groups</text>
</a>
</g>
</g>
<!-- Readers&#45;&gt;Groups -->
<g id="edge37" class="edge">
<title>Readers&#45;&gt;Groups</title>
<path fill="none" stroke="black" d="M405.25,-278.71C439.64,-270.65 499.94,-256.38 560.42,-241.25"/>
<polygon fill="black" stroke="black" points="560.99,-244.72 569.84,-238.89 559.29,-237.93 560.99,-244.72"/>
</g>
<!-- ZarrFormat -->
<g id="node18" class="node">
<title>ZarrFormat</title>
<g id="a_node18"><a xlink:href="../zarr_format.html" xlink:title="ZarrFormat" target="_top">
<polygon fill="none" stroke="white" points="703.44,-74.64 630.88,-74.64 630.88,-55.32 703.44,-55.32 703.44,-74.64"/>
<text xml:space="preserve" text-anchor="middle" x="667.16" y="-59.18" font-family="Sans-Serif" font-size="14.00">ZarrFormat</text>
</a>
</g>
</g>
<!-- ZarrFormat&#45;&gt;CompleteDaf -->
<g id="edge15" class="edge">
<title>ZarrFormat&#45;&gt;CompleteDaf</title>
<path fill="none" stroke="black" d="M646.46,-54.93C627.27,-46.55 598.45,-33.95 576.44,-24.33"/>
<polygon fill="black" stroke="black" points="577.91,-21.15 567.34,-20.36 575.11,-27.57 577.91,-21.15"/>
</g>
<!-- ZarrConvert -->
<g id="node24" class="node">
<title>ZarrConvert</title>
<g id="a_node24"><a xlink:href="../zarr_convert.html" xlink:title="ZarrConvert" target="_top">
<polygon fill="none" stroke="white" points="705.32,-19.32 629,-19.32 629,0 705.32,0 705.32,-19.32"/>
<text xml:space="preserve" text-anchor="middle" x="667.16" y="-3.86" font-family="Sans-Serif" font-size="14.00">ZarrConvert</text>
</a>
</g>
</g>
<!-- ZarrFormat&#45;&gt;ZarrConvert -->
<g id="edge24" class="edge">
<title>ZarrFormat&#45;&gt;ZarrConvert</title>
<path fill="none" stroke="black" d="M667.16,-55.18C667.16,-48.58 667.16,-39.28 667.16,-30.89"/>
<polygon fill="black" stroke="black" points="670.66,-31.17 667.16,-21.17 663.66,-31.17 670.66,-31.17"/>
</g>
<!-- HttpFormat -->
<g id="node19" class="node">
<title>HttpFormat</title>
<g id="a_node19"><a xlink:href="../http_format.html" xlink:title="HttpFormat" target="_top">
<polygon fill="none" stroke="white" points="557.44,-74.64 484.88,-74.64 484.88,-55.32 557.44,-55.32 557.44,-74.64"/>
<text xml:space="preserve" text-anchor="middle" x="521.16" y="-59.18" font-family="Sans-Serif" font-size="14.00">HttpFormat</text>
</a>
</g>
</g>
<!-- HttpFormat&#45;&gt;CompleteDaf -->
<g id="edge17" class="edge">
<title>HttpFormat&#45;&gt;CompleteDaf</title>
<path fill="none" stroke="black" d="M525.12,-55.18C528.2,-48.35 532.57,-38.63 536.45,-30.01"/>
<polygon fill="black" stroke="black" points="539.58,-31.59 540.49,-21.04 533.19,-28.72 539.58,-31.59"/>
</g>
<!-- H5dfFormat&#45;&gt;CompleteDaf -->
<g id="edge18" class="edge">
<title>H5dfFormat&#45;&gt;CompleteDaf</title>
<path fill="none" stroke="black" d="M546.35,-165.49C559.66,-158 576.35,-146.01 584.16,-129.96 600.85,-95.67 576.5,-52.51 559.42,-28.64"/>
<polygon fill="black" stroke="black" points="562.39,-26.77 553.59,-20.87 556.79,-30.97 562.39,-26.77"/>
</g>
<!-- Contracts&#45;&gt;Computations -->
<g id="edge50" class="edge">
<title>Contracts&#45;&gt;Computations</title>
<path fill="none" stroke="black" d="M126.16,-110.5C126.16,-103.9 126.16,-94.6 126.16,-86.21"/>
<polygon fill="black" stroke="black" points="129.66,-86.49 126.16,-76.49 122.66,-86.49 129.66,-86.49"/>
</g>
<!-- Reorder&#45;&gt;MemoryFormat -->
<g id="edge29" class="edge">
<title>Reorder&#45;&gt;MemoryFormat</title>
<path fill="none" stroke="black" d="M416.01,-220.89C399.48,-212.66 374.82,-200.37 355.66,-190.82"/>
<polygon fill="black" stroke="black" points="357.27,-187.71 346.75,-186.38 354.14,-193.98 357.27,-187.71"/>
</g>
<!-- Reorder&#45;&gt;H5dfFormat -->
<g id="edge34" class="edge">
<title>Reorder&#45;&gt;H5dfFormat</title>
<path fill="none" stroke="black" d="M449.94,-220.89C464.1,-212.78 485.14,-200.71 501.69,-191.22"/>
<polygon fill="black" stroke="black" points="503.06,-194.47 509.99,-186.46 499.58,-188.4 503.06,-194.47"/>
</g>
<!-- Reorder&#45;&gt;FilesFormat -->
<g id="edge44" class="edge">
<title>Reorder&#45;&gt;FilesFormat</title>
<path fill="none" stroke="black" d="M433.99,-221.14C433.87,-214.54 433.7,-205.24 433.54,-196.85"/>
<polygon fill="black" stroke="black" points="437.04,-197.06 433.36,-187.13 430.05,-197.19 437.04,-197.06"/>
</g>
<!-- Keys -->
<g id="node23" class="node">
<title>Keys</title>
<g id="a_node23"><a xlink:href="../keys.html" xlink:title="Keys" target="_top">
<polygon fill="none" stroke="white" points="396.32,-406.56 362,-406.56 362,-387.24 396.32,-387.24 396.32,-406.56"/>
<text xml:space="preserve" text-anchor="middle" x="379.16" y="-391.1" font-family="Sans-Serif" font-size="14.00">Keys</text>
</a>
</g>
</g>
<!-- Keys&#45;&gt;Formats -->
<g id="edge23" class="edge">
<title>Keys&#45;&gt;Formats</title>
<path fill="none" stroke="black" d="M379.16,-387.1C379.16,-380.5 379.16,-371.2 379.16,-362.81"/>
<polygon fill="black" stroke="black" points="382.66,-363.09 379.16,-353.09 375.66,-363.09 382.66,-363.09"/>
</g>
<!-- FilesFormat&#45;&gt;HttpFormat -->
<g id="edge47" class="edge">
<title>FilesFormat&#45;&gt;HttpFormat</title>
<path fill="none" stroke="black" d="M440.36,-165.73C454.8,-147.9 487.54,-107.49 506.61,-83.94"/>
<polygon fill="black" stroke="black" points="509.33,-86.14 512.91,-76.17 503.89,-81.74 509.33,-86.14"/>
</g>
<!-- FilesFormat&#45;&gt;ExampleData -->
<g id="edge26" class="edge">
<title>FilesFormat&#45;&gt;ExampleData</title>
<path fill="none" stroke="black" d="M431.5,-165.87C429.09,-153.49 424.36,-130.2 419.16,-110.64 416.97,-102.39 414.22,-93.4 411.74,-85.66"/>
<polygon fill="black" stroke="black" points="415.1,-84.66 408.65,-76.25 408.45,-86.84 415.1,-84.66"/>
</g>
<!-- ZipFormat -->
<g id="node27" class="node">
<title>ZipFormat</title>
<g id="a_node27"><a xlink:href="../zip_files.html" xlink:title="ZipFormat" target="_top">
<polygon fill="none" stroke="white" points="575.44,-129.96 508.88,-129.96 508.88,-110.64 575.44,-110.64 575.44,-129.96"/>
<text xml:space="preserve" text-anchor="middle" x="542.16" y="-114.5" font-family="Sans-Serif" font-size="14.00">ZipFormat</text>
</a>
</g>
</g>
<!-- FilesFormat&#45;&gt;ZipFormat -->
<g id="edge31" class="edge">
<title>FilesFormat&#45;&gt;ZipFormat</title>
<path fill="none" stroke="black" d="M451.65,-165.57C468.56,-157.3 493.85,-144.93 513.4,-135.37"/>
<polygon fill="black" stroke="black" points="514.77,-138.59 522.22,-131.05 511.7,-132.3 514.77,-138.59"/>
</g>
<!-- ZipFormat&#45;&gt;ZarrFormat -->
<g id="edge28" class="edge">
<title>ZipFormat&#45;&gt;ZarrFormat</title>
<path fill="none" stroke="black" d="M563.36,-110.25C583.12,-101.83 612.83,-89.15 635.41,-79.52"/>
<polygon fill="black" stroke="black" points="636.63,-82.81 644.46,-75.66 633.89,-76.37 636.63,-82.81"/>
</g>
<!-- StorageTypes -->
<g id="node28" class="node">
<title>StorageTypes</title>
<g id="a_node28"><a xlink:href="../storage_types.html" xlink:title="StorageTypes" target="_top">
<polygon fill="none" stroke="white" points="344.32,-461.88 256,-461.88 256,-442.56 344.32,-442.56 344.32,-461.88"/>
<text xml:space="preserve" text-anchor="middle" x="300.16" y="-446.42" font-family="Sans-Serif" font-size="14.00">StorageTypes</text>
</a>
</g>
</g>
<!-- StorageTypes&#45;&gt;Registry -->
<g id="edge32" class="edge">
<title>StorageTypes&#45;&gt;Registry</title>
<path fill="none" stroke="black" d="M300.16,-442.42C300.16,-435.82 300.16,-426.52 300.16,-418.13"/>
<polygon fill="black" stroke="black" points="303.66,-418.41 300.16,-408.41 296.66,-418.41 303.66,-418.41"/>
</g>
<!-- LazySparse -->
<g id="node29" class="node">
<title>LazySparse</title>
<g id="a_node29"><a xlink:href="../lazy_sparse.html" xlink:title="LazySparse" target="_top">
<polygon fill="none" stroke="white" points="553.94,-240.6 478.38,-240.6 478.38,-221.28 553.94,-221.28 553.94,-240.6"/>
<text xml:space="preserve" text-anchor="middle" x="516.16" y="-225.14" font-family="Sans-Serif" font-size="14.00">LazySparse</text>
</a>
</g>
</g>
<!-- LazySparse&#45;&gt;H5dfFormat -->
<g id="edge33" class="edge">
<title>LazySparse&#45;&gt;H5dfFormat</title>
<path fill="none" stroke="black" d="M517.98,-221.14C519.34,-214.54 521.26,-205.24 522.99,-196.85"/>
<polygon fill="black" stroke="black" points="526.41,-197.6 525,-187.1 519.55,-196.18 526.41,-197.6"/>
</g>
<!-- LazySparse&#45;&gt;FilesFormat -->
<g id="edge43" class="edge">
<title>LazySparse&#45;&gt;FilesFormat</title>
<path fill="none" stroke="black" d="M502.08,-220.89C489.68,-212.93 471.37,-201.16 456.73,-191.76"/>
<polygon fill="black" stroke="black" points="458.89,-188.99 448.58,-186.53 455.1,-194.88 458.89,-188.99"/>
</g>
</g>
</svg>
