<?xml version="1.0" encoding="UTF-8" standalone="no"?>
<!DOCTYPE svg PUBLIC "-//W3C//DTD SVG 1.1//EN"
 "http://www.w3.org/Graphics/SVG/1.1/DTD/svg11.dtd">
<!-- Generated by graphviz version 14.1.4 (20260321.0153)
 -->
<!-- Pages: 1 -->
<svg width="671pt" height="470pt"
 viewBox="0.00 0.00 671.00 470.00" xmlns="http://www.w3.org/2000/svg" xmlns:xlink="http://www.w3.org/1999/xlink">
<g id="graph0" class="graph" transform="scale(1 1) rotate(0) translate(4 465.88)">
<polygon fill="white" stroke="none" points="-4,4 -4,-465.88 666.69,-465.88 666.69,4 -4,4"/>
<!-- Copies -->
<g id="node1" class="node">
<title>Copies</title>
<g id="a_node1"><a xlink:href="../copies.html" xlink:title="Copies" target="_top">
<polygon fill="none" stroke="white" points="216.32,-185.28 170,-185.28 170,-165.96 216.32,-165.96 216.32,-185.28"/>
<text xml:space="preserve" text-anchor="middle" x="193.16" y="-169.82" font-family="Sans-Serif" font-size="14.00">Copies</text>
</a>
</g>
</g>
<!-- Adapters -->
<g id="node3" class="node">
<title>Adapters</title>
<g id="a_node3"><a xlink:href="../adapters.html" xlink:title="Adapters" target="_top">
<polygon fill="none" stroke="white" points="245.32,-19.32 187,-19.32 187,0 245.32,0 245.32,-19.32"/>
<text xml:space="preserve" text-anchor="middle" x="216.16" y="-3.86" font-family="Sans-Serif" font-size="14.00">Adapters</text>
</a>
</g>
</g>
<!-- Copies&#45;&gt;Adapters -->
<g id="edge3" class="edge">
<title>Copies&#45;&gt;Adapters</title>
<path fill="none" stroke="black" d="M194.4,-165.8C197.95,-140.45 208.28,-66.85 213.32,-30.9"/>
<polygon fill="black" stroke="black" points="216.78,-31.41 214.71,-21.02 209.85,-30.43 216.78,-31.41"/>
</g>
<!-- Concat -->
<g id="node27" class="node">
<title>Concat</title>
<g id="a_node27"><a xlink:href="../concat.html" xlink:title="Concat" target="_top">
<polygon fill="none" stroke="white" points="168.69,-129.96 121.62,-129.96 121.62,-110.64 168.69,-110.64 168.69,-129.96"/>
<text xml:space="preserve" text-anchor="middle" x="145.16" y="-114.5" font-family="Sans-Serif" font-size="14.00">Concat</text>
</a>
</g>
</g>
<!-- Copies&#45;&gt;Concat -->
<g id="edge42" class="edge">
<title>Copies&#45;&gt;Concat</title>
<path fill="none" stroke="black" d="M185.23,-165.82C178.6,-158.45 168.94,-147.72 160.77,-138.64"/>
<polygon fill="black" stroke="black" points="163.56,-136.51 154.27,-131.42 158.36,-141.19 163.56,-136.51"/>
</g>
<!-- Writers -->
<g id="node2" class="node">
<title>Writers</title>
<g id="a_node2"><a xlink:href="../writers.html" xlink:title="Writers" target="_top">
<polygon fill="none" stroke="white" points="331.69,-240.6 284.62,-240.6 284.62,-221.28 331.69,-221.28 331.69,-240.6"/>
<text xml:space="preserve" text-anchor="middle" x="308.16" y="-225.14" font-family="Sans-Serif" font-size="14.00">Writers</text>
</a>
</g>
</g>
<!-- Writers&#45;&gt;Copies -->
<g id="edge1" class="edge">
<title>Writers&#45;&gt;Copies</title>
<path fill="none" stroke="black" d="M288.65,-220.89C270.64,-212.55 243.64,-200.02 222.93,-190.42"/>
<polygon fill="black" stroke="black" points="224.68,-187.38 214.14,-186.35 221.74,-193.73 224.68,-187.38"/>
</g>
<!-- Chains -->
<g id="node5" class="node">
<title>Chains</title>
<g id="a_node5"><a xlink:href="../chains.html" xlink:title="Chains" target="_top">
<polygon fill="none" stroke="white" points="271.32,-129.96 225,-129.96 225,-110.64 271.32,-110.64 271.32,-129.96"/>
<text xml:space="preserve" text-anchor="middle" x="248.16" y="-114.5" font-family="Sans-Serif" font-size="14.00">Chains</text>
</a>
</g>
</g>
<!-- Writers&#45;&gt;Chains -->
<g id="edge35" class="edge">
<title>Writers&#45;&gt;Chains</title>
<path fill="none" stroke="black" d="M295.96,-221.05C285.66,-212.89 271.32,-199.88 263.16,-185.28 255.57,-171.7 251.81,-154.42 249.95,-141.25"/>
<polygon fill="black" stroke="black" points="253.46,-141.18 248.86,-131.63 246.51,-141.96 253.46,-141.18"/>
</g>
<!-- MemoryFormat -->
<g id="node6" class="node">
<title>MemoryFormat</title>
<g id="a_node6"><a xlink:href="../memory_format.html" xlink:title="MemoryFormat" target="_top">
<polygon fill="none" stroke="white" points="558.19,-185.28 460.12,-185.28 460.12,-165.96 558.19,-165.96 558.19,-185.28"/>
<text xml:space="preserve" text-anchor="middle" x="509.16" y="-169.82" font-family="Sans-Serif" font-size="14.00">MemoryFormat</text>
</a>
</g>
</g>
<!-- Writers&#45;&gt;MemoryFormat -->
<g id="edge28" class="edge">
<title>Writers&#45;&gt;MemoryFormat</title>
<path fill="none" stroke="black" d="M331.92,-223.49C334.7,-222.74 337.49,-221.99 340.16,-221.28 381.91,-210.11 429.5,-197.55 463.52,-188.6"/>
<polygon fill="black" stroke="black" points="464.27,-192.03 473.05,-186.1 462.49,-185.26 464.27,-192.03"/>
</g>
<!-- H5dfFormat -->
<g id="node15" class="node">
<title>H5dfFormat</title>
<g id="a_node15"><a xlink:href="../h5df_format.html" xlink:title="H5dfFormat" target="_top">
<polygon fill="none" stroke="white" points="442.32,-185.28 366,-185.28 366,-165.96 442.32,-165.96 442.32,-185.28"/>
<text xml:space="preserve" text-anchor="middle" x="404.16" y="-169.82" font-family="Sans-Serif" font-size="14.00">H5dfFormat</text>
</a>
</g>
</g>
<!-- Writers&#45;&gt;H5dfFormat -->
<g id="edge32" class="edge">
<title>Writers&#45;&gt;H5dfFormat</title>
<path fill="none" stroke="black" d="M324.45,-220.89C339.06,-212.78 360.79,-200.71 377.87,-191.22"/>
<polygon fill="black" stroke="black" points="379.43,-194.36 386.47,-186.44 376.03,-188.24 379.43,-194.36"/>
</g>
<!-- FilesFormat -->
<g id="node16" class="node">
<title>FilesFormat</title>
<g id="a_node16"><a xlink:href="../files_format.html" xlink:title="FilesFormat" target="_top">
<polygon fill="none" stroke="white" points="348.32,-185.28 272,-185.28 272,-165.96 348.32,-165.96 348.32,-185.28"/>
<text xml:space="preserve" text-anchor="middle" x="310.16" y="-169.82" font-family="Sans-Serif" font-size="14.00">FilesFormat</text>
</a>
</g>
</g>
<!-- Writers&#45;&gt;FilesFormat -->
<g id="edge40" class="edge">
<title>Writers&#45;&gt;FilesFormat</title>
<path fill="none" stroke="black" d="M308.49,-221.14C308.74,-214.54 309.09,-205.24 309.4,-196.85"/>
<polygon fill="black" stroke="black" points="312.89,-197.25 309.77,-187.13 305.89,-196.99 312.89,-197.25"/>
</g>
<!-- ZarrFormat -->
<g id="node23" class="node">
<title>ZarrFormat</title>
<g id="a_node23"><a xlink:href="../zarr_format.html" xlink:title="ZarrFormat" target="_top">
<polygon fill="none" stroke="white" points="648.44,-185.28 575.88,-185.28 575.88,-165.96 648.44,-165.96 648.44,-185.28"/>
<text xml:space="preserve" text-anchor="middle" x="612.16" y="-169.82" font-family="Sans-Serif" font-size="14.00">ZarrFormat</text>
</a>
</g>
</g>
<!-- Writers&#45;&gt;ZarrFormat -->
<g id="edge26" class="edge">
<title>Writers&#45;&gt;ZarrFormat</title>
<path fill="none" stroke="black" d="M331.86,-223.22C334.65,-222.52 337.46,-221.86 340.16,-221.28 436.54,-200.66 464.59,-202.75 564.6,-185.66"/>
<polygon fill="black" stroke="black" points="565.08,-189.13 574.34,-183.98 563.89,-182.24 565.08,-189.13"/>
</g>
<!-- Reconstruction -->
<g id="node28" class="node">
<title>Reconstruction</title>
<g id="a_node28"><a xlink:href="../reconstruction.html" xlink:title="Reconstruction" target="_top">
<polygon fill="none" stroke="white" points="94.32,-185.28 0,-185.28 0,-165.96 94.32,-165.96 94.32,-185.28"/>
<text xml:space="preserve" text-anchor="middle" x="47.16" y="-169.82" font-family="Sans-Serif" font-size="14.00">Reconstruction</text>
</a>
</g>
</g>
<!-- Writers&#45;&gt;Reconstruction -->
<g id="edge46" class="edge">
<title>Writers&#45;&gt;Reconstruction</title>
<path fill="none" stroke="black" d="M284.44,-223.32C281.66,-222.6 278.85,-221.91 276.16,-221.28 218.57,-207.89 152.21,-195.25 105.79,-186.86"/>
<polygon fill="black" stroke="black" points="106.69,-183.46 96.23,-185.14 105.45,-190.35 106.69,-183.46"/>
</g>
<!-- Computations -->
<g id="node4" class="node">
<title>Computations</title>
<g id="a_node4"><a xlink:href="../computations.html" xlink:title="Computations" target="_top">
<polygon fill="none" stroke="white" points="143.32,-74.64 55,-74.64 55,-55.32 143.32,-55.32 143.32,-74.64"/>
<text xml:space="preserve" text-anchor="middle" x="99.16" y="-59.18" font-family="Sans-Serif" font-size="14.00">Computations</text>
</a>
</g>
</g>
<!-- Computations&#45;&gt;Adapters -->
<g id="edge2" class="edge">
<title>Computations&#45;&gt;Adapters</title>
<path fill="none" stroke="black" d="M119.01,-54.93C137.33,-46.59 164.81,-34.06 185.87,-24.46"/>
<polygon fill="black" stroke="black" points="187.19,-27.71 194.84,-20.38 184.29,-21.34 187.19,-27.71"/>
</g>
<!-- Chains&#45;&gt;Adapters -->
<g id="edge4" class="edge">
<title>Chains&#45;&gt;Adapters</title>
<path fill="none" stroke="black" d="M245.54,-110.41C240.43,-93.06 229.02,-54.32 222.02,-30.55"/>
<polygon fill="black" stroke="black" points="225.43,-29.73 219.24,-21.13 218.71,-31.71 225.43,-29.73"/>
</g>
<!-- CompleteDaf -->
<g id="node14" class="node">
<title>CompleteDaf</title>
<g id="a_node14"><a xlink:href="../complete.html" xlink:title="CompleteDaf" target="_top">
<polygon fill="none" stroke="white" points="347.07,-74.64 263.25,-74.64 263.25,-55.32 347.07,-55.32 347.07,-74.64"/>
<text xml:space="preserve" text-anchor="middle" x="305.16" y="-59.18" font-family="Sans-Serif" font-size="14.00">CompleteDaf</text>
</a>
</g>
</g>
<!-- Chains&#45;&gt;CompleteDaf -->
<g id="edge14" class="edge">
<title>Chains&#45;&gt;CompleteDaf</title>
<path fill="none" stroke="black" d="M257.83,-110.25C265.9,-102.7 277.63,-91.74 287.38,-82.61"/>
<polygon fill="black" stroke="black" points="289.62,-85.31 294.53,-75.93 284.83,-80.2 289.62,-85.31"/>
</g>
<!-- ExampleData -->
<g id="node21" class="node">
<title>ExampleData</title>
<g id="a_node21"><a xlink:href="../example_data.html" xlink:title="ExampleData" target="_top">
<polygon fill="none" stroke="white" points="451.19,-74.64 365.12,-74.64 365.12,-55.32 451.19,-55.32 451.19,-74.64"/>
<text xml:space="preserve" text-anchor="middle" x="408.16" y="-59.18" font-family="Sans-Serif" font-size="14.00">ExampleData</text>
</a>
</g>
</g>
<!-- Chains&#45;&gt;ExampleData -->
<g id="edge21" class="edge">
<title>Chains&#45;&gt;ExampleData</title>
<path fill="none" stroke="black" d="M271.77,-111.43C297.63,-102.82 339.48,-88.87 370.01,-78.69"/>
<polygon fill="black" stroke="black" points="370.88,-82.09 379.26,-75.61 368.67,-75.45 370.88,-82.09"/>
</g>
<!-- MemoryFormat&#45;&gt;Adapters -->
<g id="edge5" class="edge">
<title>MemoryFormat&#45;&gt;Adapters</title>
<path fill="none" stroke="black" d="M524.23,-165.52C542.13,-153.5 568.16,-131.4 556.16,-110.64 531.52,-68 506.39,-72.29 460.16,-55.32 391.44,-30.09 306.4,-18.67 257.01,-13.85"/>
<polygon fill="black" stroke="black" points="257.34,-10.37 247.06,-12.93 256.7,-17.34 257.34,-10.37"/>
</g>
<!-- MemoryFormat&#45;&gt;ExampleData -->
<g id="edge22" class="edge">
<title>MemoryFormat&#45;&gt;ExampleData</title>
<path fill="none" stroke="black" d="M488.26,-165.48C472.78,-157.84 452.05,-145.67 438.16,-129.96 426.72,-117.02 418.79,-98.97 413.97,-85.34"/>
<polygon fill="black" stroke="black" points="417.41,-84.6 410.99,-76.17 410.76,-86.77 417.41,-84.6"/>
</g>
<!-- AnnDataFormat -->
<g id="node26" class="node">
<title>AnnDataFormat</title>
<g id="a_node26"><a xlink:href="../anndata_format.html" xlink:title="AnnDataFormat" target="_top">
<polygon fill="none" stroke="white" points="547.32,-129.96 447,-129.96 447,-110.64 547.32,-110.64 547.32,-129.96"/>
<text xml:space="preserve" text-anchor="middle" x="497.16" y="-114.5" font-family="Sans-Serif" font-size="14.00">AnnDataFormat</text>
</a>
</g>
</g>
<!-- MemoryFormat&#45;&gt;AnnDataFormat -->
<g id="edge37" class="edge">
<title>MemoryFormat&#45;&gt;AnnDataFormat</title>
<path fill="none" stroke="black" d="M507.18,-165.82C505.69,-159.22 503.6,-149.92 501.71,-141.53"/>
<polygon fill="black" stroke="black" points="505.13,-140.76 499.52,-131.77 498.3,-142.3 505.13,-140.76"/>
</g>
<!-- Views -->
<g id="node7" class="node">
<title>Views</title>
<g id="a_node7"><a xlink:href="../views.html" xlink:title="Views" target="_top">
<polygon fill="none" stroke="white" points="152.32,-185.28 112,-185.28 112,-165.96 152.32,-165.96 152.32,-185.28"/>
<text xml:space="preserve" text-anchor="middle" x="132.16" y="-169.82" font-family="Sans-Serif" font-size="14.00">Views</text>
</a>
</g>
</g>
<!-- Views&#45;&gt;Chains -->
<g id="edge36" class="edge">
<title>Views&#45;&gt;Chains</title>
<path fill="none" stroke="black" d="M151.84,-165.57C170,-157.23 197.24,-144.7 218.13,-135.1"/>
<polygon fill="black" stroke="black" points="219.39,-138.38 227.01,-131.02 216.46,-132.02 219.39,-138.38"/>
</g>
<!-- Contracts -->
<g id="node17" class="node">
<title>Contracts</title>
<g id="a_node17"><a xlink:href="../contracts.html" xlink:title="Contracts" target="_top">
<polygon fill="none" stroke="white" points="103.19,-129.96 41.12,-129.96 41.12,-110.64 103.19,-110.64 103.19,-129.96"/>
<text xml:space="preserve" text-anchor="middle" x="72.16" y="-114.5" font-family="Sans-Serif" font-size="14.00">Contracts</text>
</a>
</g>
</g>
<!-- Views&#45;&gt;Contracts -->
<g id="edge15" class="edge">
<title>Views&#45;&gt;Contracts</title>
<path fill="none" stroke="black" d="M121.98,-165.57C113.4,-157.95 100.89,-146.83 90.56,-137.65"/>
<polygon fill="black" stroke="black" points="93.12,-135.24 83.32,-131.22 88.47,-140.48 93.12,-135.24"/>
</g>
<!-- Views&#45;&gt;Concat -->
<g id="edge43" class="edge">
<title>Views&#45;&gt;Concat</title>
<path fill="none" stroke="black" d="M134.31,-165.82C135.93,-159.14 138.24,-149.7 140.3,-141.23"/>
<polygon fill="black" stroke="black" points="143.64,-142.31 142.61,-131.77 136.84,-140.65 143.64,-142.31"/>
</g>
<!-- Queries -->
<g id="node8" class="node">
<title>Queries</title>
<g id="a_node8"><a xlink:href="../queries.html" xlink:title="Queries" target="_top">
<polygon fill="none" stroke="white" points="160.32,-240.6 108,-240.6 108,-221.28 160.32,-221.28 160.32,-240.6"/>
<text xml:space="preserve" text-anchor="middle" x="134.16" y="-225.14" font-family="Sans-Serif" font-size="14.00">Queries</text>
</a>
</g>
</g>
<!-- Queries&#45;&gt;Views -->
<g id="edge6" class="edge">
<title>Queries&#45;&gt;Views</title>
<path fill="none" stroke="black" d="M133.83,-221.14C133.58,-214.54 133.23,-205.24 132.92,-196.85"/>
<polygon fill="black" stroke="black" points="136.43,-196.99 132.55,-187.13 129.43,-197.25 136.43,-196.99"/>
</g>
<!-- Queries&#45;&gt;Reconstruction -->
<g id="edge45" class="edge">
<title>Queries&#45;&gt;Reconstruction</title>
<path fill="none" stroke="black" d="M119.4,-220.89C106.28,-212.85 86.84,-200.94 71.43,-191.49"/>
<polygon fill="black" stroke="black" points="73.64,-188.74 63.28,-186.5 69.98,-194.71 73.64,-188.74"/>
</g>
<!-- ReadOnly -->
<g id="node9" class="node">
<title>ReadOnly</title>
<g id="a_node9"><a xlink:href="../read_only.html" xlink:title="ReadOnly" target="_top">
<polygon fill="none" stroke="white" points="414.69,-240.6 349.62,-240.6 349.62,-221.28 414.69,-221.28 414.69,-240.6"/>
<text xml:space="preserve" text-anchor="middle" x="382.16" y="-225.14" font-family="Sans-Serif" font-size="14.00">ReadOnly</text>
</a>
</g>
</g>
<!-- ReadOnly&#45;&gt;Views -->
<g id="edge7" class="edge">
<title>ReadOnly&#45;&gt;Views</title>
<path fill="none" stroke="black" d="M349.49,-223.01C346.68,-222.42 343.87,-221.84 341.16,-221.28 264.68,-205.56 242.24,-204.99 163.63,-185.72"/>
<polygon fill="black" stroke="black" points="164.71,-182.38 154.16,-183.37 163.02,-189.18 164.71,-182.38"/>
</g>
<!-- ReadOnly&#45;&gt;H5dfFormat -->
<g id="edge31" class="edge">
<title>ReadOnly&#45;&gt;H5dfFormat</title>
<path fill="none" stroke="black" d="M385.79,-221.14C388.61,-214.31 392.62,-204.59 396.18,-195.97"/>
<polygon fill="black" stroke="black" points="399.29,-197.59 399.87,-187.02 392.82,-194.92 399.29,-197.59"/>
</g>
<!-- ReadOnly&#45;&gt;FilesFormat -->
<g id="edge41" class="edge">
<title>ReadOnly&#45;&gt;FilesFormat</title>
<path fill="none" stroke="black" d="M369.95,-220.89C359.33,-213.03 343.72,-201.48 331.12,-192.14"/>
<polygon fill="black" stroke="black" points="333.53,-189.57 323.41,-186.43 329.36,-195.2 333.53,-189.57"/>
</g>
<!-- ReadOnly&#45;&gt;ZarrFormat -->
<g id="edge24" class="edge">
<title>ReadOnly&#45;&gt;ZarrFormat</title>
<path fill="none" stroke="black" d="M415.11,-222.3C454.19,-213.24 519.65,-198.07 564.31,-187.71"/>
<polygon fill="black" stroke="black" points="565.04,-191.14 573.99,-185.47 563.46,-184.32 565.04,-191.14"/>
</g>
<!-- Operations -->
<g id="node10" class="node">
<title>Operations</title>
<g id="a_node10"><a xlink:href="../operations.html" xlink:title="Operations" target="_top">
<polygon fill="none" stroke="white" points="224.69,-295.92 153.62,-295.92 153.62,-276.6 224.69,-276.6 224.69,-295.92"/>
<text xml:space="preserve" text-anchor="middle" x="189.16" y="-280.46" font-family="Sans-Serif" font-size="14.00">Operations</text>
</a>
</g>
</g>
<!-- Operations&#45;&gt;Queries -->
<g id="edge10" class="edge">
<title>Operations&#45;&gt;Queries</title>
<path fill="none" stroke="black" d="M180.08,-276.46C172.32,-268.94 160.95,-257.91 151.46,-248.71"/>
<polygon fill="black" stroke="black" points="154.14,-246.44 144.53,-241.99 149.27,-251.46 154.14,-246.44"/>
</g>
<!-- Operations&#45;&gt;FilesFormat -->
<g id="edge38" class="edge">
<title>Operations&#45;&gt;FilesFormat</title>
<path fill="none" stroke="black" d="M189.51,-276.28C190.49,-262.76 194.2,-237.09 208.16,-221.28 221.96,-205.65 242.23,-195.27 261.07,-188.48"/>
<polygon fill="black" stroke="black" points="262.11,-191.82 270.51,-185.36 259.91,-185.18 262.11,-191.82"/>
</g>
<!-- Tokens -->
<g id="node11" class="node">
<title>Tokens</title>
<g id="a_node11"><a xlink:href="../tokens.html" xlink:title="Tokens" target="_top">
<polygon fill="none" stroke="white" points="212.69,-406.56 165.62,-406.56 165.62,-387.24 212.69,-387.24 212.69,-406.56"/>
<text xml:space="preserve" text-anchor="middle" x="189.16" y="-391.1" font-family="Sans-Serif" font-size="14.00">Tokens</text>
</a>
</g>
</g>
<!-- Tokens&#45;&gt;Operations -->
<g id="edge8" class="edge">
<title>Tokens&#45;&gt;Operations</title>
<path fill="none" stroke="black" d="M189.16,-387.01C189.16,-369.74 189.16,-331.27 189.16,-307.48"/>
<polygon fill="black" stroke="black" points="192.66,-307.79 189.16,-297.79 185.66,-307.79 192.66,-307.79"/>
</g>
<!-- Formats -->
<g id="node19" class="node">
<title>Formats</title>
<g id="a_node19"><a xlink:href="../formats.html" xlink:title="Formats" target="_top">
<polygon fill="none" stroke="white" points="277.44,-351.24 222.88,-351.24 222.88,-331.92 277.44,-331.92 277.44,-351.24"/>
<text xml:space="preserve" text-anchor="middle" x="250.16" y="-335.78" font-family="Sans-Serif" font-size="14.00">Formats</text>
</a>
</g>
</g>
<!-- Tokens&#45;&gt;Formats -->
<g id="edge18" class="edge">
<title>Tokens&#45;&gt;Formats</title>
<path fill="none" stroke="black" d="M199.51,-386.85C208.24,-379.23 220.95,-368.11 231.46,-358.93"/>
<polygon fill="black" stroke="black" points="233.6,-361.7 238.83,-352.49 228.99,-356.43 233.6,-361.7"/>
</g>
<!-- Registry -->
<g id="node12" class="node">
<title>Registry</title>
<g id="a_node12"><a xlink:href="../registry.html" xlink:title="Registry" target="_top">
<polygon fill="none" stroke="white" points="337.07,-406.56 283.25,-406.56 283.25,-387.24 337.07,-387.24 337.07,-406.56"/>
<text xml:space="preserve" text-anchor="middle" x="310.16" y="-391.1" font-family="Sans-Serif" font-size="14.00">Registry</text>
</a>
</g>
</g>
<!-- Registry&#45;&gt;Operations -->
<g id="edge9" class="edge">
<title>Registry&#45;&gt;Operations</title>
<path fill="none" stroke="black" d="M308.99,-386.92C306.79,-373.4 300.86,-347.73 286.16,-331.92 272.67,-317.42 253.55,-307.24 235.85,-300.31"/>
<polygon fill="black" stroke="black" points="237.08,-297.03 226.49,-296.91 234.7,-303.61 237.08,-297.03"/>
</g>
<!-- Registry&#45;&gt;Formats -->
<g id="edge19" class="edge">
<title>Registry&#45;&gt;Formats</title>
<path fill="none" stroke="black" d="M299.98,-386.85C291.4,-379.23 278.89,-368.11 268.56,-358.93"/>
<polygon fill="black" stroke="black" points="271.12,-356.52 261.32,-352.5 266.47,-361.76 271.12,-356.52"/>
</g>
<!-- Readers -->
<g id="node13" class="node">
<title>Readers</title>
<g id="a_node13"><a xlink:href="../readers.html" xlink:title="Readers" target="_top">
<polygon fill="none" stroke="white" points="316.82,-295.92 261.5,-295.92 261.5,-276.6 316.82,-276.6 316.82,-295.92"/>
<text xml:space="preserve" text-anchor="middle" x="289.16" y="-280.46" font-family="Sans-Serif" font-size="14.00">Readers</text>
</a>
</g>
</g>
<!-- Readers&#45;&gt;Writers -->
<g id="edge34" class="edge">
<title>Readers&#45;&gt;Writers</title>
<path fill="none" stroke="black" d="M292.3,-276.46C294.7,-269.7 298.12,-260.13 301.16,-251.58"/>
<polygon fill="black" stroke="black" points="304.39,-252.96 304.45,-242.36 297.79,-250.61 304.39,-252.96"/>
</g>
<!-- Readers&#45;&gt;Queries -->
<g id="edge11" class="edge">
<title>Readers&#45;&gt;Queries</title>
<path fill="none" stroke="black" d="M262.87,-276.21C237.7,-267.56 199.51,-254.42 171.25,-244.7"/>
<polygon fill="black" stroke="black" points="172.61,-241.47 162.01,-241.52 170.33,-248.08 172.61,-241.47"/>
</g>
<!-- Readers&#45;&gt;ReadOnly -->
<g id="edge47" class="edge">
<title>Readers&#45;&gt;ReadOnly</title>
<path fill="none" stroke="black" d="M304.94,-276.21C319.1,-268.1 340.14,-256.03 356.69,-246.54"/>
<polygon fill="black" stroke="black" points="358.06,-249.79 364.99,-241.78 354.58,-243.72 358.06,-249.79"/>
</g>
<!-- Reorder -->
<g id="node18" class="node">
<title>Reorder</title>
<g id="a_node18"><a xlink:href="../reorder.html" xlink:title="Reorder" target="_top">
<polygon fill="none" stroke="white" points="485.69,-240.6 432.62,-240.6 432.62,-221.28 485.69,-221.28 485.69,-240.6"/>
<text xml:space="preserve" text-anchor="middle" x="459.16" y="-225.14" font-family="Sans-Serif" font-size="14.00">Reorder</text>
</a>
</g>
</g>
<!-- Readers&#45;&gt;Reorder -->
<g id="edge16" class="edge">
<title>Readers&#45;&gt;Reorder</title>
<path fill="none" stroke="black" d="M317.23,-276.46C345.62,-267.55 389.69,-253.73 421.19,-243.85"/>
<polygon fill="black" stroke="black" points="422.23,-247.19 430.73,-240.86 420.14,-240.51 422.23,-247.19"/>
</g>
<!-- Groups -->
<g id="node25" class="node">
<title>Groups</title>
<g id="a_node25"><a xlink:href="../groups.html" xlink:title="Groups" target="_top">
<polygon fill="none" stroke="white" points="266.82,-240.6 217.5,-240.6 217.5,-221.28 266.82,-221.28 266.82,-240.6"/>
<text xml:space="preserve" text-anchor="middle" x="242.16" y="-225.14" font-family="Sans-Serif" font-size="14.00">Groups</text>
</a>
</g>
</g>
<!-- Readers&#45;&gt;Groups -->
<g id="edge33" class="edge">
<title>Readers&#45;&gt;Groups</title>
<path fill="none" stroke="black" d="M281.4,-276.46C274.97,-269.17 265.65,-258.58 257.7,-249.56"/>
<polygon fill="black" stroke="black" points="260.33,-247.26 251.09,-242.07 255.08,-251.89 260.33,-247.26"/>
</g>
<!-- H5dfFormat&#45;&gt;CompleteDaf -->
<g id="edge12" class="edge">
<title>H5dfFormat&#45;&gt;CompleteDaf</title>
<path fill="none" stroke="black" d="M396.06,-165.73C379.67,-147.74 342.33,-106.77 320.95,-83.31"/>
<polygon fill="black" stroke="black" points="323.72,-81.15 314.39,-76.11 318.54,-85.86 323.72,-81.15"/>
</g>
<!-- FilesFormat&#45;&gt;CompleteDaf -->
<g id="edge13" class="edge">
<title>FilesFormat&#45;&gt;CompleteDaf</title>
<path fill="none" stroke="black" d="M309.75,-165.73C308.96,-148.46 307.19,-109.99 306.09,-86.2"/>
<polygon fill="black" stroke="black" points="309.6,-86.33 305.64,-76.51 302.61,-86.66 309.6,-86.33"/>
</g>
<!-- FilesFormat&#45;&gt;ExampleData -->
<g id="edge20" class="edge">
<title>FilesFormat&#45;&gt;ExampleData</title>
<path fill="none" stroke="black" d="M318.18,-165.73C334.4,-147.74 371.37,-106.77 392.52,-83.31"/>
<polygon fill="black" stroke="black" points="394.92,-85.89 399.02,-76.12 389.72,-81.2 394.92,-85.89"/>
</g>
<!-- Contracts&#45;&gt;Computations -->
<g id="edge44" class="edge">
<title>Contracts&#45;&gt;Computations</title>
<path fill="none" stroke="black" d="M76.62,-110.5C80.11,-103.59 85.11,-93.73 89.51,-85.04"/>
<polygon fill="black" stroke="black" points="92.53,-86.83 93.92,-76.33 86.28,-83.67 92.53,-86.83"/>
</g>
<!-- Reorder&#45;&gt;MemoryFormat -->
<g id="edge27" class="edge">
<title>Reorder&#45;&gt;MemoryFormat</title>
<path fill="none" stroke="black" d="M467.42,-221.14C474.32,-213.77 484.38,-203.04 492.9,-193.96"/>
<polygon fill="black" stroke="black" points="495.4,-196.41 499.69,-186.72 490.3,-191.62 495.4,-196.41"/>
</g>
<!-- Reorder&#45;&gt;H5dfFormat -->
<g id="edge30" class="edge">
<title>Reorder&#45;&gt;H5dfFormat</title>
<path fill="none" stroke="black" d="M450.08,-221.14C442.32,-213.62 430.95,-202.59 421.46,-193.39"/>
<polygon fill="black" stroke="black" points="424.14,-191.12 414.53,-186.67 419.27,-196.14 424.14,-191.12"/>
</g>
<!-- Reorder&#45;&gt;FilesFormat -->
<g id="edge39" class="edge">
<title>Reorder&#45;&gt;FilesFormat</title>
<path fill="none" stroke="black" d="M433.88,-220.89C409.8,-212.28 373.3,-199.22 346.18,-189.51"/>
<polygon fill="black" stroke="black" points="347.58,-186.29 336.98,-186.22 345.22,-192.88 347.58,-186.29"/>
</g>
<!-- Reorder&#45;&gt;ZarrFormat -->
<g id="edge23" class="edge">
<title>Reorder&#45;&gt;ZarrFormat</title>
<path fill="none" stroke="black" d="M485.11,-220.89C509.95,-212.24 547.66,-199.1 575.54,-189.38"/>
<polygon fill="black" stroke="black" points="576.36,-192.8 584.65,-186.21 574.05,-186.19 576.36,-192.8"/>
</g>
<!-- Formats&#45;&gt;Readers -->
<g id="edge48" class="edge">
<title>Formats&#45;&gt;Readers</title>
<path fill="none" stroke="black" d="M256.6,-331.78C261.82,-324.64 269.35,-314.35 275.85,-305.46"/>
<polygon fill="black" stroke="black" points="278.61,-307.62 281.69,-297.48 272.96,-303.48 278.61,-307.62"/>
</g>
<!-- Keys -->
<g id="node20" class="node">
<title>Keys</title>
<g id="a_node20"><a xlink:href="../keys.html" xlink:title="Keys" target="_top">
<polygon fill="none" stroke="white" points="265.32,-406.56 231,-406.56 231,-387.24 265.32,-387.24 265.32,-406.56"/>
<text xml:space="preserve" text-anchor="middle" x="248.16" y="-391.1" font-family="Sans-Serif" font-size="14.00">Keys</text>
</a>
</g>
</g>
<!-- Keys&#45;&gt;Formats -->
<g id="edge17" class="edge">
<title>Keys&#45;&gt;Formats</title>
<path fill="none" stroke="black" d="M248.49,-387.1C248.74,-380.5 249.09,-371.2 249.4,-362.81"/>
<polygon fill="black" stroke="black" points="252.89,-363.21 249.77,-353.09 245.89,-362.95 252.89,-363.21"/>
</g>
<!-- MmapZipStores -->
<g id="node22" class="node">
<title>MmapZipStores</title>
<g id="a_node22"><a xlink:href="../mmap_zip_store.html" xlink:title="MmapZipStores" target="_top">
<polygon fill="none" stroke="white" points="662.69,-240.6 561.62,-240.6 561.62,-221.28 662.69,-221.28 662.69,-240.6"/>
<text xml:space="preserve" text-anchor="middle" x="612.16" y="-225.14" font-family="Sans-Serif" font-size="14.00">MmapZipStores</text>
</a>
</g>
</g>
<!-- MmapZipStores&#45;&gt;ZarrFormat -->
<g id="edge25" class="edge">
<title>MmapZipStores&#45;&gt;ZarrFormat</title>
<path fill="none" stroke="black" d="M612.16,-221.14C612.16,-214.54 612.16,-205.24 612.16,-196.85"/>
<polygon fill="black" stroke="black" points="615.66,-197.13 612.16,-187.13 608.66,-197.13 615.66,-197.13"/>
</g>
<!-- StorageTypes -->
<g id="node24" class="node">
<title>StorageTypes</title>
<g id="a_node24"><a xlink:href="../storage_types.html" xlink:title="StorageTypes" target="_top">
<polygon fill="none" stroke="white" points="354.32,-461.88 266,-461.88 266,-442.56 354.32,-442.56 354.32,-461.88"/>
<text xml:space="preserve" text-anchor="middle" x="310.16" y="-446.42" font-family="Sans-Serif" font-size="14.00">StorageTypes</text>
</a>
</g>
</g>
<!-- StorageTypes&#45;&gt;Registry -->
<g id="edge29" class="edge">
<title>StorageTypes&#45;&gt;Registry</title>
<path fill="none" stroke="black" d="M310.16,-442.42C310.16,-435.82 310.16,-426.52 310.16,-418.13"/>
<polygon fill="black" stroke="black" points="313.66,-418.41 310.16,-408.41 306.66,-418.41 313.66,-418.41"/>
</g>
</g>
</svg>
