<?xml version="1.0" encoding="UTF-8" standalone="no"?>
<!DOCTYPE svg PUBLIC "-//W3C//DTD SVG 1.1//EN"
 "http://www.w3.org/Graphics/SVG/1.1/DTD/svg11.dtd">
<!-- Generated by graphviz version 14.1.5 (20260411.2331)
 -->
<!-- Pages: 1 -->
<svg width="758pt" height="470pt"
 viewBox="0.00 0.00 758.00 470.00" xmlns="http://www.w3.org/2000/svg" xmlns:xlink="http://www.w3.org/1999/xlink">
<g id="graph0" class="graph" transform="scale(1 1) rotate(0) translate(4 465.88)">
<polygon fill="white" stroke="none" points="-4,4 -4,-465.88 754.32,-465.88 754.32,4 -4,4"/>
<!-- Copies -->
<g id="node1" class="node">
<title>Copies</title>
<g id="a_node1"><a xlink:href="../copies.html" xlink:title="Copies" target="_top">
<polygon fill="none" stroke="white" points="158.32,-185.28 112,-185.28 112,-165.96 158.32,-165.96 158.32,-185.28"/>
<text xml:space="preserve" text-anchor="middle" x="135.16" y="-169.82" font-family="Sans-Serif" font-size="14.00">Copies</text>
</a>
</g>
</g>
<!-- Adapters -->
<g id="node7" class="node">
<title>Adapters</title>
<g id="a_node7"><a xlink:href="../adapters.html" xlink:title="Adapters" target="_top">
<polygon fill="none" stroke="white" points="236.32,-19.32 178,-19.32 178,0 236.32,0 236.32,-19.32"/>
<text xml:space="preserve" text-anchor="middle" x="207.16" y="-3.86" font-family="Sans-Serif" font-size="14.00">Adapters</text>
</a>
</g>
</g>
<!-- Copies&#45;&gt;Adapters -->
<g id="edge8" class="edge">
<title>Copies&#45;&gt;Adapters</title>
<path fill="none" stroke="black" d="M111.73,-166.62C95.46,-159.69 75,-147.91 65.16,-129.96 61.03,-122.43 61.96,-118.61 65.16,-110.64 82.93,-66.4 132.94,-38.66 168.57,-23.92"/>
<polygon fill="black" stroke="black" points="169.69,-27.25 177.7,-20.32 167.12,-20.73 169.69,-27.25"/>
</g>
<!-- Concat -->
<g id="node32" class="node">
<title>Concat</title>
<g id="a_node32"><a xlink:href="../concat.html" xlink:title="Concat" target="_top">
<polygon fill="none" stroke="white" points="121.69,-129.96 74.62,-129.96 74.62,-110.64 121.69,-110.64 121.69,-129.96"/>
<text xml:space="preserve" text-anchor="middle" x="98.16" y="-114.5" font-family="Sans-Serif" font-size="14.00">Concat</text>
</a>
</g>
</g>
<!-- Copies&#45;&gt;Concat -->
<g id="edge48" class="edge">
<title>Copies&#45;&gt;Concat</title>
<path fill="none" stroke="black" d="M129.05,-165.82C124.1,-158.68 116.96,-148.39 110.79,-139.5"/>
<polygon fill="black" stroke="black" points="113.84,-137.76 105.27,-131.54 108.09,-141.75 113.84,-137.76"/>
</g>
<!-- Writers -->
<g id="node2" class="node">
<title>Writers</title>
<g id="a_node2"><a xlink:href="../writers.html" xlink:title="Writers" target="_top">
<polygon fill="none" stroke="white" points="290.69,-240.6 243.62,-240.6 243.62,-221.28 290.69,-221.28 290.69,-240.6"/>
<text xml:space="preserve" text-anchor="middle" x="267.16" y="-225.14" font-family="Sans-Serif" font-size="14.00">Writers</text>
</a>
</g>
</g>
<!-- Writers&#45;&gt;Copies -->
<g id="edge1" class="edge">
<title>Writers&#45;&gt;Copies</title>
<path fill="none" stroke="black" d="M244.77,-220.89C223.72,-212.39 191.96,-199.56 168.04,-189.9"/>
<polygon fill="black" stroke="black" points="169.65,-186.78 159.07,-186.28 167.03,-193.27 169.65,-186.78"/>
</g>
<!-- MemoryFormat -->
<g id="node9" class="node">
<title>MemoryFormat</title>
<g id="a_node9"><a xlink:href="../memory_format.html" xlink:title="MemoryFormat" target="_top">
<polygon fill="none" stroke="white" points="421.19,-185.28 323.12,-185.28 323.12,-165.96 421.19,-165.96 421.19,-185.28"/>
<text xml:space="preserve" text-anchor="middle" x="372.16" y="-169.82" font-family="Sans-Serif" font-size="14.00">MemoryFormat</text>
</a>
</g>
</g>
<!-- Writers&#45;&gt;MemoryFormat -->
<g id="edge29" class="edge">
<title>Writers&#45;&gt;MemoryFormat</title>
<path fill="none" stroke="black" d="M284.97,-220.89C301.19,-212.66 325.4,-200.37 344.19,-190.82"/>
<polygon fill="black" stroke="black" points="345.58,-194.04 352.91,-186.39 342.41,-187.8 345.58,-194.04"/>
</g>
<!-- Chains -->
<g id="node10" class="node">
<title>Chains</title>
<g id="a_node10"><a xlink:href="../chains.html" xlink:title="Chains" target="_top">
<polygon fill="none" stroke="white" points="266.32,-129.96 220,-129.96 220,-110.64 266.32,-110.64 266.32,-129.96"/>
<text xml:space="preserve" text-anchor="middle" x="243.16" y="-114.5" font-family="Sans-Serif" font-size="14.00">Chains</text>
</a>
</g>
</g>
<!-- Writers&#45;&gt;Chains -->
<g id="edge40" class="edge">
<title>Writers&#45;&gt;Chains</title>
<path fill="none" stroke="black" d="M265.2,-221.05C261.38,-203.78 252.88,-165.31 247.63,-141.52"/>
<polygon fill="black" stroke="black" points="251.05,-140.8 245.48,-131.79 244.22,-142.31 251.05,-140.8"/>
</g>
<!-- H5dfFormat -->
<g id="node18" class="node">
<title>H5dfFormat</title>
<g id="a_node18"><a xlink:href="../h5df_format.html" xlink:title="H5dfFormat" target="_top">
<polygon fill="none" stroke="white" points="614.32,-185.28 538,-185.28 538,-165.96 614.32,-165.96 614.32,-185.28"/>
<text xml:space="preserve" text-anchor="middle" x="576.16" y="-169.82" font-family="Sans-Serif" font-size="14.00">H5dfFormat</text>
</a>
</g>
</g>
<!-- Writers&#45;&gt;H5dfFormat -->
<g id="edge34" class="edge">
<title>Writers&#45;&gt;H5dfFormat</title>
<path fill="none" stroke="black" d="M290.86,-223.22C293.64,-222.52 296.46,-221.86 299.16,-221.28 396.9,-200.47 425.24,-202.48 526.65,-185.65"/>
<polygon fill="black" stroke="black" points="526.93,-189.16 536.21,-184.04 525.77,-182.25 526.93,-189.16"/>
</g>
<!-- FilesFormat -->
<g id="node26" class="node">
<title>FilesFormat</title>
<g id="a_node26"><a xlink:href="../files_format.html" xlink:title="FilesFormat" target="_top">
<polygon fill="none" stroke="white" points="520.32,-185.28 444,-185.28 444,-165.96 520.32,-165.96 520.32,-185.28"/>
<text xml:space="preserve" text-anchor="middle" x="482.16" y="-169.82" font-family="Sans-Serif" font-size="14.00">FilesFormat</text>
</a>
</g>
</g>
<!-- Writers&#45;&gt;FilesFormat -->
<g id="edge44" class="edge">
<title>Writers&#45;&gt;FilesFormat</title>
<path fill="none" stroke="black" d="M290.91,-223.44C293.69,-222.7 296.48,-221.97 299.16,-221.28 344.22,-209.69 395.72,-197.18 432.59,-188.36"/>
<polygon fill="black" stroke="black" points="433.15,-191.83 442.06,-186.1 431.52,-185.02 433.15,-191.83"/>
</g>
<!-- Reconstruction -->
<g id="node33" class="node">
<title>Reconstruction</title>
<g id="a_node33"><a xlink:href="../reconstruction.html" xlink:title="Reconstruction" target="_top">
<polygon fill="none" stroke="white" points="94.32,-185.28 0,-185.28 0,-165.96 94.32,-165.96 94.32,-185.28"/>
<text xml:space="preserve" text-anchor="middle" x="47.16" y="-169.82" font-family="Sans-Serif" font-size="14.00">Reconstruction</text>
</a>
</g>
</g>
<!-- Writers&#45;&gt;Reconstruction -->
<g id="edge52" class="edge">
<title>Writers&#45;&gt;Reconstruction</title>
<path fill="none" stroke="black" d="M243.2,-224.13C207.98,-215.6 141.49,-199.48 95.79,-188.41"/>
<polygon fill="black" stroke="black" points="96.66,-185.02 86.12,-186.06 95.02,-191.82 96.66,-185.02"/>
</g>
<!-- PackedFormat -->
<g id="node3" class="node">
<title>PackedFormat</title>
<g id="a_node3"><a xlink:href="../packed_format.html" xlink:title="PackedFormat" target="_top">
<polygon fill="none" stroke="white" points="313.57,-295.92 220.75,-295.92 220.75,-276.6 313.57,-276.6 313.57,-295.92"/>
<text xml:space="preserve" text-anchor="middle" x="267.16" y="-280.46" font-family="Sans-Serif" font-size="14.00">PackedFormat</text>
</a>
</g>
</g>
<!-- PackedFormat&#45;&gt;Writers -->
<g id="edge39" class="edge">
<title>PackedFormat&#45;&gt;Writers</title>
<path fill="none" stroke="black" d="M267.16,-276.46C267.16,-269.86 267.16,-260.56 267.16,-252.17"/>
<polygon fill="black" stroke="black" points="270.66,-252.45 267.16,-242.45 263.66,-252.45 270.66,-252.45"/>
</g>
<!-- Formats -->
<g id="node4" class="node">
<title>Formats</title>
<g id="a_node4"><a xlink:href="../formats.html" xlink:title="Formats" target="_top">
<polygon fill="none" stroke="white" points="390.44,-351.24 335.87,-351.24 335.87,-331.92 390.44,-331.92 390.44,-351.24"/>
<text xml:space="preserve" text-anchor="middle" x="363.16" y="-335.78" font-family="Sans-Serif" font-size="14.00">Formats</text>
</a>
</g>
</g>
<!-- Formats&#45;&gt;PackedFormat -->
<g id="edge2" class="edge">
<title>Formats&#45;&gt;PackedFormat</title>
<path fill="none" stroke="black" d="M346.87,-331.53C332.26,-323.42 310.53,-311.35 293.45,-301.86"/>
<polygon fill="black" stroke="black" points="295.29,-298.88 284.85,-297.08 291.89,-305 295.29,-298.88"/>
</g>
<!-- Readers -->
<g id="node16" class="node">
<title>Readers</title>
<g id="a_node16"><a xlink:href="../readers.html" xlink:title="Readers" target="_top">
<polygon fill="none" stroke="white" points="388.82,-295.92 333.5,-295.92 333.5,-276.6 388.82,-276.6 388.82,-295.92"/>
<text xml:space="preserve" text-anchor="middle" x="361.16" y="-280.46" font-family="Sans-Serif" font-size="14.00">Readers</text>
</a>
</g>
</g>
<!-- Formats&#45;&gt;Readers -->
<g id="edge54" class="edge">
<title>Formats&#45;&gt;Readers</title>
<path fill="none" stroke="black" d="M362.83,-331.78C362.58,-325.18 362.23,-315.88 361.92,-307.49"/>
<polygon fill="black" stroke="black" points="365.43,-307.63 361.55,-297.77 358.43,-307.89 365.43,-307.63"/>
</g>
<!-- Operations -->
<g id="node5" class="node">
<title>Operations</title>
<g id="a_node5"><a xlink:href="../operations.html" xlink:title="Operations" target="_top">
<polygon fill="none" stroke="white" points="198.69,-351.24 127.62,-351.24 127.62,-331.92 198.69,-331.92 198.69,-351.24"/>
<text xml:space="preserve" text-anchor="middle" x="163.16" y="-335.78" font-family="Sans-Serif" font-size="14.00">Operations</text>
</a>
</g>
</g>
<!-- Operations&#45;&gt;PackedFormat -->
<g id="edge3" class="edge">
<title>Operations&#45;&gt;PackedFormat</title>
<path fill="none" stroke="black" d="M180.8,-331.53C196.79,-323.34 220.62,-311.12 239.2,-301.6"/>
<polygon fill="black" stroke="black" points="240.78,-304.72 248.08,-297.04 237.59,-298.49 240.78,-304.72"/>
</g>
<!-- Queries -->
<g id="node12" class="node">
<title>Queries</title>
<g id="a_node12"><a xlink:href="../queries.html" xlink:title="Queries" target="_top">
<polygon fill="none" stroke="white" points="214.32,-240.6 162,-240.6 162,-221.28 214.32,-221.28 214.32,-240.6"/>
<text xml:space="preserve" text-anchor="middle" x="188.16" y="-225.14" font-family="Sans-Serif" font-size="14.00">Queries</text>
</a>
</g>
</g>
<!-- Operations&#45;&gt;Queries -->
<g id="edge14" class="edge">
<title>Operations&#45;&gt;Queries</title>
<path fill="none" stroke="black" d="M165.21,-331.69C169.18,-314.42 178.03,-275.95 183.51,-252.16"/>
<polygon fill="black" stroke="black" points="186.91,-252.96 185.75,-242.43 180.09,-251.39 186.91,-252.96"/>
</g>
<!-- MmapZipStores -->
<g id="node6" class="node">
<title>MmapZipStores</title>
<g id="a_node6"><a xlink:href="../mmap_zip_store.html" xlink:title="MmapZipStores" target="_top">
<polygon fill="none" stroke="white" points="317.69,-351.24 216.62,-351.24 216.62,-331.92 317.69,-331.92 317.69,-351.24"/>
<text xml:space="preserve" text-anchor="middle" x="267.16" y="-335.78" font-family="Sans-Serif" font-size="14.00">MmapZipStores</text>
</a>
</g>
</g>
<!-- MmapZipStores&#45;&gt;PackedFormat -->
<g id="edge4" class="edge">
<title>MmapZipStores&#45;&gt;PackedFormat</title>
<path fill="none" stroke="black" d="M267.16,-331.78C267.16,-325.18 267.16,-315.88 267.16,-307.49"/>
<polygon fill="black" stroke="black" points="270.66,-307.77 267.16,-297.77 263.66,-307.77 270.66,-307.77"/>
</g>
<!-- Computations -->
<g id="node8" class="node">
<title>Computations</title>
<g id="a_node8"><a xlink:href="../computations.html" xlink:title="Computations" target="_top">
<polygon fill="none" stroke="white" points="215.32,-74.64 127,-74.64 127,-55.32 215.32,-55.32 215.32,-74.64"/>
<text xml:space="preserve" text-anchor="middle" x="171.16" y="-59.18" font-family="Sans-Serif" font-size="14.00">Computations</text>
</a>
</g>
</g>
<!-- Computations&#45;&gt;Adapters -->
<g id="edge5" class="edge">
<title>Computations&#45;&gt;Adapters</title>
<path fill="none" stroke="black" d="M177.1,-55.18C181.87,-48.12 188.72,-37.97 194.68,-29.14"/>
<polygon fill="black" stroke="black" points="197.54,-31.16 200.24,-20.91 191.74,-27.24 197.54,-31.16"/>
</g>
<!-- MemoryFormat&#45;&gt;Adapters -->
<g id="edge6" class="edge">
<title>MemoryFormat&#45;&gt;Adapters</title>
<path fill="none" stroke="black" d="M358.92,-165.73C346.57,-157.17 327.88,-143.56 313.16,-129.96 277.22,-96.73 240.4,-52.55 221.04,-28.36"/>
<polygon fill="black" stroke="black" points="223.97,-26.43 215.01,-20.76 218.48,-30.77 223.97,-26.43"/>
</g>
<!-- ExampleData -->
<g id="node25" class="node">
<title>ExampleData</title>
<g id="a_node25"><a xlink:href="../example_data.html" xlink:title="ExampleData" target="_top">
<polygon fill="none" stroke="white" points="493.19,-74.64 407.12,-74.64 407.12,-55.32 493.19,-55.32 493.19,-74.64"/>
<text xml:space="preserve" text-anchor="middle" x="450.16" y="-59.18" font-family="Sans-Serif" font-size="14.00">ExampleData</text>
</a>
</g>
</g>
<!-- MemoryFormat&#45;&gt;ExampleData -->
<g id="edge25" class="edge">
<title>MemoryFormat&#45;&gt;ExampleData</title>
<path fill="none" stroke="black" d="M389.56,-165.51C402.79,-157.74 420.48,-145.38 431.16,-129.96 440.16,-116.97 444.96,-99.66 447.49,-86.32"/>
<polygon fill="black" stroke="black" points="450.93,-86.93 449.03,-76.51 444.02,-85.84 450.93,-86.93"/>
</g>
<!-- AnnDataFormat -->
<g id="node31" class="node">
<title>AnnDataFormat</title>
<g id="a_node31"><a xlink:href="../anndata_format.html" xlink:title="AnnDataFormat" target="_top">
<polygon fill="none" stroke="white" points="422.32,-129.96 322,-129.96 322,-110.64 422.32,-110.64 422.32,-129.96"/>
<text xml:space="preserve" text-anchor="middle" x="372.16" y="-114.5" font-family="Sans-Serif" font-size="14.00">AnnDataFormat</text>
</a>
</g>
</g>
<!-- MemoryFormat&#45;&gt;AnnDataFormat -->
<g id="edge42" class="edge">
<title>MemoryFormat&#45;&gt;AnnDataFormat</title>
<path fill="none" stroke="black" d="M372.16,-165.82C372.16,-159.22 372.16,-149.92 372.16,-141.53"/>
<polygon fill="black" stroke="black" points="375.66,-141.81 372.16,-131.81 368.66,-141.81 375.66,-141.81"/>
</g>
<!-- Chains&#45;&gt;Adapters -->
<g id="edge7" class="edge">
<title>Chains&#45;&gt;Adapters</title>
<path fill="none" stroke="black" d="M240.78,-110.54C237.37,-98.16 230.77,-74.86 224.16,-55.32 221.34,-46.97 217.93,-37.86 214.91,-30.06"/>
<polygon fill="black" stroke="black" points="218.22,-28.92 211.3,-20.89 211.71,-31.48 218.22,-28.92"/>
</g>
<!-- CompleteDaf -->
<g id="node17" class="node">
<title>CompleteDaf</title>
<g id="a_node17"><a xlink:href="../complete.html" xlink:title="CompleteDaf" target="_top">
<polygon fill="none" stroke="white" points="632.07,-19.32 548.25,-19.32 548.25,0 632.07,0 632.07,-19.32"/>
<text xml:space="preserve" text-anchor="middle" x="590.16" y="-3.86" font-family="Sans-Serif" font-size="14.00">CompleteDaf</text>
</a>
</g>
</g>
<!-- Chains&#45;&gt;CompleteDaf -->
<g id="edge16" class="edge">
<title>Chains&#45;&gt;CompleteDaf</title>
<path fill="none" stroke="black" d="M262.35,-110.18C291.27,-96.72 347.98,-71.39 398.16,-55.32 444.29,-40.54 498.09,-28.46 536.99,-20.6"/>
<polygon fill="black" stroke="black" points="537.44,-24.08 546.57,-18.69 536.08,-17.21 537.44,-24.08"/>
</g>
<!-- Chains&#45;&gt;ExampleData -->
<g id="edge26" class="edge">
<title>Chains&#45;&gt;ExampleData</title>
<path fill="none" stroke="black" d="M266.5,-113.29C299.7,-104.74 361.24,-88.89 403.88,-77.9"/>
<polygon fill="black" stroke="black" points="404.55,-81.34 413.36,-75.46 402.8,-74.56 404.55,-81.34"/>
</g>
<!-- Views -->
<g id="node11" class="node">
<title>Views</title>
<g id="a_node11"><a xlink:href="../views.html" xlink:title="Views" target="_top">
<polygon fill="none" stroke="white" points="216.32,-185.28 176,-185.28 176,-165.96 216.32,-165.96 216.32,-185.28"/>
<text xml:space="preserve" text-anchor="middle" x="196.16" y="-169.82" font-family="Sans-Serif" font-size="14.00">Views</text>
</a>
</g>
</g>
<!-- Views&#45;&gt;Chains -->
<g id="edge41" class="edge">
<title>Views&#45;&gt;Chains</title>
<path fill="none" stroke="black" d="M203.92,-165.82C210.35,-158.53 219.67,-147.94 227.62,-138.92"/>
<polygon fill="black" stroke="black" points="230.24,-141.25 234.23,-131.43 224.99,-136.62 230.24,-141.25"/>
</g>
<!-- Contracts -->
<g id="node21" class="node">
<title>Contracts</title>
<g id="a_node21"><a xlink:href="../contracts.html" xlink:title="Contracts" target="_top">
<polygon fill="none" stroke="white" points="202.19,-129.96 140.12,-129.96 140.12,-110.64 202.19,-110.64 202.19,-129.96"/>
<text xml:space="preserve" text-anchor="middle" x="171.16" y="-114.5" font-family="Sans-Serif" font-size="14.00">Contracts</text>
</a>
</g>
</g>
<!-- Views&#45;&gt;Contracts -->
<g id="edge19" class="edge">
<title>Views&#45;&gt;Contracts</title>
<path fill="none" stroke="black" d="M192.03,-165.82C188.83,-158.99 184.27,-149.27 180.23,-140.65"/>
<polygon fill="black" stroke="black" points="183.43,-139.23 176.02,-131.67 177.1,-142.21 183.43,-139.23"/>
</g>
<!-- Views&#45;&gt;Concat -->
<g id="edge49" class="edge">
<title>Views&#45;&gt;Concat</title>
<path fill="none" stroke="black" d="M179.54,-165.57C164.47,-157.38 142.02,-145.16 124.51,-135.64"/>
<polygon fill="black" stroke="black" points="126.65,-132.82 116.2,-131.11 123.31,-138.97 126.65,-132.82"/>
</g>
<!-- Queries&#45;&gt;Views -->
<g id="edge9" class="edge">
<title>Queries&#45;&gt;Views</title>
<path fill="none" stroke="black" d="M189.48,-221.14C190.47,-214.54 191.87,-205.24 193.13,-196.85"/>
<polygon fill="black" stroke="black" points="196.56,-197.52 194.59,-187.11 189.64,-196.48 196.56,-197.52"/>
</g>
<!-- Queries&#45;&gt;Reconstruction -->
<g id="edge51" class="edge">
<title>Queries&#45;&gt;Reconstruction</title>
<path fill="none" stroke="black" d="M164.24,-220.89C141.66,-212.35 107.52,-199.45 81.93,-189.77"/>
<polygon fill="black" stroke="black" points="83.2,-186.51 72.61,-186.24 80.73,-193.06 83.2,-186.51"/>
</g>
<!-- ReadOnly -->
<g id="node13" class="node">
<title>ReadOnly</title>
<g id="a_node13"><a xlink:href="../read_only.html" xlink:title="ReadOnly" target="_top">
<polygon fill="none" stroke="white" points="440.69,-240.6 375.62,-240.6 375.62,-221.28 440.69,-221.28 440.69,-240.6"/>
<text xml:space="preserve" text-anchor="middle" x="408.16" y="-225.14" font-family="Sans-Serif" font-size="14.00">ReadOnly</text>
</a>
</g>
</g>
<!-- ReadOnly&#45;&gt;Views -->
<g id="edge10" class="edge">
<title>ReadOnly&#45;&gt;Views</title>
<path fill="none" stroke="black" d="M375.5,-221.73C335.31,-211.62 267.53,-194.57 227.81,-184.58"/>
<polygon fill="black" stroke="black" points="228.7,-181.2 218.15,-182.15 226.99,-187.98 228.7,-181.2"/>
</g>
<!-- ReadOnly&#45;&gt;H5dfFormat -->
<g id="edge33" class="edge">
<title>ReadOnly&#45;&gt;H5dfFormat</title>
<path fill="none" stroke="black" d="M436.66,-220.89C464.17,-212.16 506.07,-198.87 536.77,-189.12"/>
<polygon fill="black" stroke="black" points="537.61,-192.53 546.08,-186.17 535.49,-185.86 537.61,-192.53"/>
</g>
<!-- ReadOnly&#45;&gt;FilesFormat -->
<g id="edge43" class="edge">
<title>ReadOnly&#45;&gt;FilesFormat</title>
<path fill="none" stroke="black" d="M420.71,-220.89C431.62,-213.03 447.66,-201.48 460.62,-192.14"/>
<polygon fill="black" stroke="black" points="462.5,-195.1 468.56,-186.42 458.4,-189.42 462.5,-195.1"/>
</g>
<!-- Registry -->
<g id="node14" class="node">
<title>Registry</title>
<g id="a_node14"><a xlink:href="../registry.html" xlink:title="Registry" target="_top">
<polygon fill="none" stroke="white" points="311.07,-406.56 257.25,-406.56 257.25,-387.24 311.07,-387.24 311.07,-406.56"/>
<text xml:space="preserve" text-anchor="middle" x="284.16" y="-391.1" font-family="Sans-Serif" font-size="14.00">Registry</text>
</a>
</g>
</g>
<!-- Registry&#45;&gt;Formats -->
<g id="edge22" class="edge">
<title>Registry&#45;&gt;Formats</title>
<path fill="none" stroke="black" d="M297.56,-386.85C309.25,-378.97 326.46,-367.35 340.32,-358"/>
<polygon fill="black" stroke="black" points="342.11,-361.01 348.44,-352.52 338.19,-355.21 342.11,-361.01"/>
</g>
<!-- Registry&#45;&gt;Operations -->
<g id="edge11" class="edge">
<title>Registry&#45;&gt;Operations</title>
<path fill="none" stroke="black" d="M263.63,-386.85C244.6,-378.47 216.01,-365.87 194.19,-356.25"/>
<polygon fill="black" stroke="black" points="195.73,-353.11 185.17,-352.28 192.91,-359.52 195.73,-353.11"/>
</g>
<!-- Tokens -->
<g id="node15" class="node">
<title>Tokens</title>
<g id="a_node15"><a xlink:href="../tokens.html" xlink:title="Tokens" target="_top">
<polygon fill="none" stroke="white" points="204.69,-406.56 157.62,-406.56 157.62,-387.24 204.69,-387.24 204.69,-406.56"/>
<text xml:space="preserve" text-anchor="middle" x="181.16" y="-391.1" font-family="Sans-Serif" font-size="14.00">Tokens</text>
</a>
</g>
</g>
<!-- Tokens&#45;&gt;Formats -->
<g id="edge23" class="edge">
<title>Tokens&#45;&gt;Formats</title>
<path fill="none" stroke="black" d="M204.95,-388.93C235.43,-380 288.62,-364.42 324.84,-353.81"/>
<polygon fill="black" stroke="black" points="325.43,-357.28 334.04,-351.11 323.46,-350.56 325.43,-357.28"/>
</g>
<!-- Tokens&#45;&gt;Operations -->
<g id="edge12" class="edge">
<title>Tokens&#45;&gt;Operations</title>
<path fill="none" stroke="black" d="M178.19,-387.1C175.91,-380.34 172.67,-370.77 169.79,-362.22"/>
<polygon fill="black" stroke="black" points="173.2,-361.37 166.68,-353.01 166.56,-363.6 173.2,-361.37"/>
</g>
<!-- Readers&#45;&gt;Writers -->
<g id="edge38" class="edge">
<title>Readers&#45;&gt;Writers</title>
<path fill="none" stroke="black" d="M345.21,-276.21C330.9,-268.1 309.63,-256.03 292.91,-246.54"/>
<polygon fill="black" stroke="black" points="294.93,-243.67 284.5,-241.78 291.47,-249.75 294.93,-243.67"/>
</g>
<!-- Readers&#45;&gt;Queries -->
<g id="edge13" class="edge">
<title>Readers&#45;&gt;Queries</title>
<path fill="none" stroke="black" d="M333.36,-276.69C304.14,-267.69 258,-253.47 225.59,-243.48"/>
<polygon fill="black" stroke="black" points="226.78,-240.18 216.2,-240.58 224.72,-246.87 226.78,-240.18"/>
</g>
<!-- Readers&#45;&gt;ReadOnly -->
<g id="edge53" class="edge">
<title>Readers&#45;&gt;ReadOnly</title>
<path fill="none" stroke="black" d="M368.92,-276.46C375.35,-269.17 384.67,-258.58 392.62,-249.56"/>
<polygon fill="black" stroke="black" points="395.24,-251.89 399.23,-242.07 389.99,-247.26 395.24,-251.89"/>
</g>
<!-- Reorder -->
<g id="node22" class="node">
<title>Reorder</title>
<g id="a_node22"><a xlink:href="../reorder.html" xlink:title="Reorder" target="_top">
<polygon fill="none" stroke="white" points="511.69,-240.6 458.62,-240.6 458.62,-221.28 511.69,-221.28 511.69,-240.6"/>
<text xml:space="preserve" text-anchor="middle" x="485.16" y="-225.14" font-family="Sans-Serif" font-size="14.00">Reorder</text>
</a>
</g>
</g>
<!-- Readers&#45;&gt;Reorder -->
<g id="edge20" class="edge">
<title>Readers&#45;&gt;Reorder</title>
<path fill="none" stroke="black" d="M382.19,-276.21C401.79,-267.79 431.27,-255.11 453.67,-245.48"/>
<polygon fill="black" stroke="black" points="454.83,-248.79 462.63,-241.63 452.06,-242.36 454.83,-248.79"/>
</g>
<!-- Groups -->
<g id="node30" class="node">
<title>Groups</title>
<g id="a_node30"><a xlink:href="../groups.html" xlink:title="Groups" target="_top">
<polygon fill="none" stroke="white" points="357.82,-240.6 308.5,-240.6 308.5,-221.28 357.82,-221.28 357.82,-240.6"/>
<text xml:space="preserve" text-anchor="middle" x="333.16" y="-225.14" font-family="Sans-Serif" font-size="14.00">Groups</text>
</a>
</g>
</g>
<!-- Readers&#45;&gt;Groups -->
<g id="edge37" class="edge">
<title>Readers&#45;&gt;Groups</title>
<path fill="none" stroke="black" d="M356.54,-276.46C352.91,-269.55 347.73,-259.69 343.17,-251"/>
<polygon fill="black" stroke="black" points="346.34,-249.5 338.59,-242.28 340.14,-252.76 346.34,-249.5"/>
</g>
<!-- H5dfFormat&#45;&gt;CompleteDaf -->
<g id="edge15" class="edge">
<title>H5dfFormat&#45;&gt;CompleteDaf</title>
<path fill="none" stroke="black" d="M593.52,-165.48C606,-157.84 621.85,-145.67 629.16,-129.96 645.24,-95.38 621.11,-52.33 604.23,-28.55"/>
<polygon fill="black" stroke="black" points="607.26,-26.76 598.48,-20.83 601.65,-30.94 607.26,-26.76"/>
</g>
<!-- HttpFormat -->
<g id="node19" class="node">
<title>HttpFormat</title>
<g id="a_node19"><a xlink:href="../http_format.html" xlink:title="HttpFormat" target="_top">
<polygon fill="none" stroke="white" points="602.44,-74.64 529.88,-74.64 529.88,-55.32 602.44,-55.32 602.44,-74.64"/>
<text xml:space="preserve" text-anchor="middle" x="566.16" y="-59.18" font-family="Sans-Serif" font-size="14.00">HttpFormat</text>
</a>
</g>
</g>
<!-- HttpFormat&#45;&gt;CompleteDaf -->
<g id="edge17" class="edge">
<title>HttpFormat&#45;&gt;CompleteDaf</title>
<path fill="none" stroke="black" d="M570.12,-55.18C573.2,-48.35 577.57,-38.63 581.45,-30.01"/>
<polygon fill="black" stroke="black" points="584.58,-31.59 585.49,-21.04 578.19,-28.72 584.58,-31.59"/>
</g>
<!-- ZarrFormat -->
<g id="node20" class="node">
<title>ZarrFormat</title>
<g id="a_node20"><a xlink:href="../zarr_format.html" xlink:title="ZarrFormat" target="_top">
<polygon fill="none" stroke="white" points="748.44,-74.64 675.88,-74.64 675.88,-55.32 748.44,-55.32 748.44,-74.64"/>
<text xml:space="preserve" text-anchor="middle" x="712.16" y="-59.18" font-family="Sans-Serif" font-size="14.00">ZarrFormat</text>
</a>
</g>
</g>
<!-- ZarrFormat&#45;&gt;CompleteDaf -->
<g id="edge18" class="edge">
<title>ZarrFormat&#45;&gt;CompleteDaf</title>
<path fill="none" stroke="black" d="M691.46,-54.93C672.27,-46.55 643.45,-33.95 621.44,-24.33"/>
<polygon fill="black" stroke="black" points="622.91,-21.15 612.34,-20.36 620.11,-27.57 622.91,-21.15"/>
</g>
<!-- ZarrConvert -->
<g id="node24" class="node">
<title>ZarrConvert</title>
<g id="a_node24"><a xlink:href="../zarr_convert.html" xlink:title="ZarrConvert" target="_top">
<polygon fill="none" stroke="white" points="750.32,-19.32 674,-19.32 674,0 750.32,0 750.32,-19.32"/>
<text xml:space="preserve" text-anchor="middle" x="712.16" y="-3.86" font-family="Sans-Serif" font-size="14.00">ZarrConvert</text>
</a>
</g>
</g>
<!-- ZarrFormat&#45;&gt;ZarrConvert -->
<g id="edge24" class="edge">
<title>ZarrFormat&#45;&gt;ZarrConvert</title>
<path fill="none" stroke="black" d="M712.16,-55.18C712.16,-48.58 712.16,-39.28 712.16,-30.89"/>
<polygon fill="black" stroke="black" points="715.66,-31.17 712.16,-21.17 708.66,-31.17 715.66,-31.17"/>
</g>
<!-- Contracts&#45;&gt;Computations -->
<g id="edge50" class="edge">
<title>Contracts&#45;&gt;Computations</title>
<path fill="none" stroke="black" d="M171.16,-110.5C171.16,-103.9 171.16,-94.6 171.16,-86.21"/>
<polygon fill="black" stroke="black" points="174.66,-86.49 171.16,-76.49 167.66,-86.49 174.66,-86.49"/>
</g>
<!-- Reorder&#45;&gt;MemoryFormat -->
<g id="edge30" class="edge">
<title>Reorder&#45;&gt;MemoryFormat</title>
<path fill="none" stroke="black" d="M465.99,-220.89C448.38,-212.58 422,-200.14 401.7,-190.56"/>
<polygon fill="black" stroke="black" points="403.33,-187.46 392.79,-186.36 400.34,-193.79 403.33,-187.46"/>
</g>
<!-- Reorder&#45;&gt;H5dfFormat -->
<g id="edge36" class="edge">
<title>Reorder&#45;&gt;H5dfFormat</title>
<path fill="none" stroke="black" d="M500.6,-220.89C514.32,-212.85 534.66,-200.94 550.78,-191.49"/>
<polygon fill="black" stroke="black" points="552.48,-194.55 559.34,-186.47 548.94,-188.51 552.48,-194.55"/>
</g>
<!-- Reorder&#45;&gt;FilesFormat -->
<g id="edge46" class="edge">
<title>Reorder&#45;&gt;FilesFormat</title>
<path fill="none" stroke="black" d="M484.66,-221.14C484.29,-214.54 483.77,-205.24 483.3,-196.85"/>
<polygon fill="black" stroke="black" points="486.81,-196.91 482.75,-187.13 479.82,-197.31 486.81,-196.91"/>
</g>
<!-- Keys -->
<g id="node23" class="node">
<title>Keys</title>
<g id="a_node23"><a xlink:href="../keys.html" xlink:title="Keys" target="_top">
<polygon fill="none" stroke="white" points="380.32,-406.56 346,-406.56 346,-387.24 380.32,-387.24 380.32,-406.56"/>
<text xml:space="preserve" text-anchor="middle" x="363.16" y="-391.1" font-family="Sans-Serif" font-size="14.00">Keys</text>
</a>
</g>
</g>
<!-- Keys&#45;&gt;Formats -->
<g id="edge21" class="edge">
<title>Keys&#45;&gt;Formats</title>
<path fill="none" stroke="black" d="M363.16,-387.1C363.16,-380.5 363.16,-371.2 363.16,-362.81"/>
<polygon fill="black" stroke="black" points="366.66,-363.09 363.16,-353.09 359.66,-363.09 366.66,-363.09"/>
</g>
<!-- FilesFormat&#45;&gt;HttpFormat -->
<g id="edge47" class="edge">
<title>FilesFormat&#45;&gt;HttpFormat</title>
<path fill="none" stroke="black" d="M489.03,-165.73C502.82,-147.9 534.06,-107.49 552.27,-83.94"/>
<polygon fill="black" stroke="black" points="554.92,-86.24 558.27,-76.19 549.38,-81.96 554.92,-86.24"/>
</g>
<!-- FilesFormat&#45;&gt;ExampleData -->
<g id="edge27" class="edge">
<title>FilesFormat&#45;&gt;ExampleData</title>
<path fill="none" stroke="black" d="M479.68,-165.48C476.29,-153.05 469.95,-130.11 464.16,-110.64 461.73,-102.46 458.94,-93.48 456.49,-85.73"/>
<polygon fill="black" stroke="black" points="459.85,-84.76 453.49,-76.3 453.18,-86.89 459.85,-84.76"/>
</g>
<!-- ZipFormat -->
<g id="node27" class="node">
<title>ZipFormat</title>
<g id="a_node27"><a xlink:href="../zip_files.html" xlink:title="ZipFormat" target="_top">
<polygon fill="none" stroke="white" points="620.44,-129.96 553.88,-129.96 553.88,-110.64 620.44,-110.64 620.44,-129.96"/>
<text xml:space="preserve" text-anchor="middle" x="587.16" y="-114.5" font-family="Sans-Serif" font-size="14.00">ZipFormat</text>
</a>
</g>
</g>
<!-- FilesFormat&#45;&gt;ZipFormat -->
<g id="edge31" class="edge">
<title>FilesFormat&#45;&gt;ZipFormat</title>
<path fill="none" stroke="black" d="M499.97,-165.57C516.19,-157.34 540.4,-145.05 559.19,-135.5"/>
<polygon fill="black" stroke="black" points="560.58,-138.72 567.91,-131.07 557.41,-132.48 560.58,-138.72"/>
</g>
<!-- ZipFormat&#45;&gt;ZarrFormat -->
<g id="edge28" class="edge">
<title>ZipFormat&#45;&gt;ZarrFormat</title>
<path fill="none" stroke="black" d="M608.36,-110.25C628.12,-101.83 657.83,-89.15 680.41,-79.52"/>
<polygon fill="black" stroke="black" points="681.63,-82.81 689.46,-75.66 678.89,-76.37 681.63,-82.81"/>
</g>
<!-- StorageTypes -->
<g id="node28" class="node">
<title>StorageTypes</title>
<g id="a_node28"><a xlink:href="../storage_types.html" xlink:title="StorageTypes" target="_top">
<polygon fill="none" stroke="white" points="328.32,-461.88 240,-461.88 240,-442.56 328.32,-442.56 328.32,-461.88"/>
<text xml:space="preserve" text-anchor="middle" x="284.16" y="-446.42" font-family="Sans-Serif" font-size="14.00">StorageTypes</text>
</a>
</g>
</g>
<!-- StorageTypes&#45;&gt;Registry -->
<g id="edge32" class="edge">
<title>StorageTypes&#45;&gt;Registry</title>
<path fill="none" stroke="black" d="M284.16,-442.42C284.16,-435.82 284.16,-426.52 284.16,-418.13"/>
<polygon fill="black" stroke="black" points="287.66,-418.41 284.16,-408.41 280.66,-418.41 287.66,-418.41"/>
</g>
<!-- LazySparse -->
<g id="node29" class="node">
<title>LazySparse</title>
<g id="a_node29"><a xlink:href="../lazy_sparse.html" xlink:title="LazySparse" target="_top">
<polygon fill="none" stroke="white" points="610.94,-240.6 535.38,-240.6 535.38,-221.28 610.94,-221.28 610.94,-240.6"/>
<text xml:space="preserve" text-anchor="middle" x="573.16" y="-225.14" font-family="Sans-Serif" font-size="14.00">LazySparse</text>
</a>
</g>
</g>
<!-- LazySparse&#45;&gt;H5dfFormat -->
<g id="edge35" class="edge">
<title>LazySparse&#45;&gt;H5dfFormat</title>
<path fill="none" stroke="black" d="M573.66,-221.14C574.03,-214.54 574.55,-205.24 575.02,-196.85"/>
<polygon fill="black" stroke="black" points="578.5,-197.31 575.57,-187.13 571.51,-196.91 578.5,-197.31"/>
</g>
<!-- LazySparse&#45;&gt;FilesFormat -->
<g id="edge45" class="edge">
<title>LazySparse&#45;&gt;FilesFormat</title>
<path fill="none" stroke="black" d="M557.72,-220.89C544,-212.85 523.66,-200.94 507.54,-191.49"/>
<polygon fill="black" stroke="black" points="509.38,-188.51 498.98,-186.47 505.84,-194.55 509.38,-188.51"/>
</g>
</g>
</svg>
