<?xml version="1.0" encoding="UTF-8" standalone="no"?>
<!DOCTYPE svg PUBLIC "-//W3C//DTD SVG 1.1//EN"
 "http://www.w3.org/Graphics/SVG/1.1/DTD/svg11.dtd">
<!-- Generated by graphviz version 2.40.1 (0)
 -->
<!-- Title: %3 Pages: 1 -->
<svg width="581pt" height="467pt"
 viewBox="0.00 0.00 581.00 467.00" xmlns="http://www.w3.org/2000/svg" xmlns:xlink="http://www.w3.org/1999/xlink">
<g id="graph0" class="graph" transform="scale(1 1) rotate(0) translate(4 463)">
<title>%3</title>
<polygon fill="#ffffff" stroke="transparent" points="-4,4 -4,-463 577,-463 577,4 -4,4"/>
<!-- H5dfFormat -->
<g id="node1" class="node">
<title>H5dfFormat</title>
<g id="a_node1"><a xlink:href="../h5df_format.html" xlink:title="H5dfFormat" target="_top">
<polygon fill="none" stroke="#ffffff" points="478,-184 401,-184 401,-165 478,-165 478,-184"/>
<text text-anchor="middle" x="439.5" y="-170.8" font-family="Sans-Serif" font-size="14.00" fill="#000000">H5dfFormat</text>
</a>
</g>
</g>
<!-- CompleteDaf -->
<g id="node17" class="node">
<title>CompleteDaf</title>
<g id="a_node17"><a xlink:href="../complete.html" xlink:title="CompleteDaf" target="_top">
<polygon fill="none" stroke="#ffffff" points="529.5,-74 445.5,-74 445.5,-55 529.5,-55 529.5,-74"/>
<text text-anchor="middle" x="487.5" y="-60.8" font-family="Sans-Serif" font-size="14.00" fill="#000000">CompleteDaf</text>
</a>
</g>
</g>
<!-- H5dfFormat&#45;&gt;CompleteDaf -->
<g id="edge17" class="edge">
<title>H5dfFormat&#45;&gt;CompleteDaf</title>
<path fill="none" stroke="#000000" d="M443.7597,-164.7382C451.7143,-146.5089 468.9519,-107.0062 479.2533,-83.3986"/>
<polygon fill="#000000" stroke="#000000" points="482.5268,-84.6481 483.3184,-74.0828 476.111,-81.8484 482.5268,-84.6481"/>
</g>
<!-- ReadOnly -->
<g id="node2" class="node">
<title>ReadOnly</title>
<g id="a_node2"><a xlink:href="../read_only.html" xlink:title="ReadOnly" target="_top">
<polygon fill="none" stroke="#ffffff" points="463,-239 398,-239 398,-220 463,-220 463,-239"/>
<text text-anchor="middle" x="430.5" y="-225.8" font-family="Sans-Serif" font-size="14.00" fill="#000000">ReadOnly</text>
</a>
</g>
</g>
<!-- ReadOnly&#45;&gt;H5dfFormat -->
<g id="edge1" class="edge">
<title>ReadOnly&#45;&gt;H5dfFormat</title>
<path fill="none" stroke="#000000" d="M432.0677,-219.9197C433.215,-212.9083 434.8128,-203.1442 436.233,-194.4652"/>
<polygon fill="#000000" stroke="#000000" points="439.7288,-194.7748 437.8897,-184.3408 432.8207,-193.6443 439.7288,-194.7748"/>
</g>
<!-- Views -->
<g id="node8" class="node">
<title>Views</title>
<g id="a_node8"><a xlink:href="../views.html" xlink:title="Views" target="_top">
<polygon fill="none" stroke="#ffffff" points="383,-184 342,-184 342,-165 383,-165 383,-184"/>
<text text-anchor="middle" x="362.5" y="-170.8" font-family="Sans-Serif" font-size="14.00" fill="#000000">Views</text>
</a>
</g>
</g>
<!-- ReadOnly&#45;&gt;Views -->
<g id="edge16" class="edge">
<title>ReadOnly&#45;&gt;Views</title>
<path fill="none" stroke="#000000" d="M418.6553,-219.9197C408.7345,-211.8956 394.3562,-200.2661 382.6326,-190.7837"/>
<polygon fill="#000000" stroke="#000000" points="384.643,-187.9083 374.6668,-184.3408 380.2409,-193.3509 384.643,-187.9083"/>
</g>
<!-- FilesFormat -->
<g id="node12" class="node">
<title>FilesFormat</title>
<g id="a_node12"><a xlink:href="../files_format.html" xlink:title="FilesFormat" target="_top">
<polygon fill="none" stroke="#ffffff" points="573,-184 496,-184 496,-165 573,-165 573,-184"/>
<text text-anchor="middle" x="534.5" y="-170.8" font-family="Sans-Serif" font-size="14.00" fill="#000000">FilesFormat</text>
</a>
</g>
</g>
<!-- ReadOnly&#45;&gt;FilesFormat -->
<g id="edge29" class="edge">
<title>ReadOnly&#45;&gt;FilesFormat</title>
<path fill="none" stroke="#000000" d="M448.6154,-219.9197C464.8455,-211.3365 488.8759,-198.6281 507.3937,-188.8351"/>
<polygon fill="#000000" stroke="#000000" points="509.0395,-191.924 516.2432,-184.155 505.767,-185.7361 509.0395,-191.924"/>
</g>
<!-- Writers -->
<g id="node3" class="node">
<title>Writers</title>
<g id="a_node3"><a xlink:href="../writers.html" xlink:title="Writers" target="_top">
<polygon fill="none" stroke="#ffffff" points="300,-239 253,-239 253,-220 300,-220 300,-239"/>
<text text-anchor="middle" x="276.5" y="-225.8" font-family="Sans-Serif" font-size="14.00" fill="#000000">Writers</text>
</a>
</g>
</g>
<!-- Writers&#45;&gt;H5dfFormat -->
<g id="edge2" class="edge">
<title>Writers&#45;&gt;H5dfFormat</title>
<path fill="none" stroke="#000000" d="M300.2016,-221.5025C326.7329,-212.5503 370.1006,-197.917 401.405,-187.3541"/>
<polygon fill="#000000" stroke="#000000" points="402.7522,-190.5935 411.1083,-184.08 400.5141,-183.9609 402.7522,-190.5935"/>
</g>
<!-- MemoryFormat -->
<g id="node5" class="node">
<title>MemoryFormat</title>
<g id="a_node5"><a xlink:href="../memory_format.html" xlink:title="MemoryFormat" target="_top">
<polygon fill="none" stroke="#ffffff" points="139.5,-129 41.5,-129 41.5,-110 139.5,-110 139.5,-129"/>
<text text-anchor="middle" x="90.5" y="-115.8" font-family="Sans-Serif" font-size="14.00" fill="#000000">MemoryFormat</text>
</a>
</g>
</g>
<!-- Writers&#45;&gt;MemoryFormat -->
<g id="edge4" class="edge">
<title>Writers&#45;&gt;MemoryFormat</title>
<path fill="none" stroke="#000000" d="M252.712,-222.6331C249.6138,-221.7443 246.4818,-220.8485 243.5,-220 186.6604,-203.8256 159.2362,-223.7428 115.5,-184 102.751,-172.4151 96.4402,-153.5632 93.3552,-139.2247"/>
<polygon fill="#000000" stroke="#000000" points="96.791,-138.555 91.5717,-129.3349 89.9021,-139.7973 96.791,-138.555"/>
</g>
<!-- Copies -->
<g id="node7" class="node">
<title>Copies</title>
<g id="a_node7"><a xlink:href="../copies.html" xlink:title="Copies" target="_top">
<polygon fill="none" stroke="#ffffff" points="172,-184 125,-184 125,-165 172,-165 172,-184"/>
<text text-anchor="middle" x="148.5" y="-170.8" font-family="Sans-Serif" font-size="14.00" fill="#000000">Copies</text>
</a>
</g>
</g>
<!-- Writers&#45;&gt;Copies -->
<g id="edge40" class="edge">
<title>Writers&#45;&gt;Copies</title>
<path fill="none" stroke="#000000" d="M254.2041,-219.9197C233.7726,-211.1406 203.2973,-198.0457 180.3113,-188.1689"/>
<polygon fill="#000000" stroke="#000000" points="181.5394,-184.8872 170.9699,-184.155 178.7758,-191.3186 181.5394,-184.8872"/>
</g>
<!-- Chains -->
<g id="node10" class="node">
<title>Chains</title>
<g id="a_node10"><a xlink:href="../chains.html" xlink:title="Chains" target="_top">
<polygon fill="none" stroke="#ffffff" points="389,-129 342,-129 342,-110 389,-110 389,-129"/>
<text text-anchor="middle" x="365.5" y="-115.8" font-family="Sans-Serif" font-size="14.00" fill="#000000">Chains</text>
</a>
</g>
</g>
<!-- Writers&#45;&gt;Chains -->
<g id="edge8" class="edge">
<title>Writers&#45;&gt;Chains</title>
<path fill="none" stroke="#000000" d="M257.4927,-219.8646C235.8722,-207.6085 205.4035,-185.5595 220.5,-165 222.2167,-162.662 290.0304,-142.0559 332.2997,-129.3896"/>
<polygon fill="#000000" stroke="#000000" points="333.3486,-132.7291 341.926,-126.5098 331.3423,-126.0228 333.3486,-132.7291"/>
</g>
<!-- Writers&#45;&gt;FilesFormat -->
<g id="edge30" class="edge">
<title>Writers&#45;&gt;FilesFormat</title>
<path fill="none" stroke="#000000" d="M300.329,-223.8895C305.9546,-222.5897 311.9347,-221.2281 317.5,-220 375.2135,-207.2645 441.7569,-193.4385 485.7777,-184.4112"/>
<polygon fill="#000000" stroke="#000000" points="486.5453,-187.8267 495.6399,-182.3918 485.1411,-180.969 486.5453,-187.8267"/>
</g>
<!-- Reconstruction -->
<g id="node19" class="node">
<title>Reconstruction</title>
<g id="a_node19"><a xlink:href="../reconstruction.html" xlink:title="Reconstruction" target="_top">
<polygon fill="none" stroke="#ffffff" points="324,-184 229,-184 229,-165 324,-165 324,-184"/>
<text text-anchor="middle" x="276.5" y="-170.8" font-family="Sans-Serif" font-size="14.00" fill="#000000">Reconstruction</text>
</a>
</g>
</g>
<!-- Writers&#45;&gt;Reconstruction -->
<g id="edge23" class="edge">
<title>Writers&#45;&gt;Reconstruction</title>
<path fill="none" stroke="#000000" d="M276.5,-219.9197C276.5,-212.9083 276.5,-203.1442 276.5,-194.4652"/>
<polygon fill="#000000" stroke="#000000" points="280.0001,-194.3408 276.5,-184.3408 273.0001,-194.3409 280.0001,-194.3408"/>
</g>
<!-- Readers -->
<g id="node4" class="node">
<title>Readers</title>
<g id="a_node4"><a xlink:href="../readers.html" xlink:title="Readers" target="_top">
<polygon fill="none" stroke="#ffffff" points="306.5,-294 250.5,-294 250.5,-275 306.5,-275 306.5,-294"/>
<text text-anchor="middle" x="278.5" y="-280.8" font-family="Sans-Serif" font-size="14.00" fill="#000000">Readers</text>
</a>
</g>
</g>
<!-- Readers&#45;&gt;ReadOnly -->
<g id="edge3" class="edge">
<title>Readers&#45;&gt;ReadOnly</title>
<path fill="none" stroke="#000000" d="M304.9764,-274.9197C329.7478,-265.9564 366.9519,-252.4944 394.43,-242.5516"/>
<polygon fill="#000000" stroke="#000000" points="395.86,-245.7564 404.0725,-239.0626 393.4782,-239.174 395.86,-245.7564"/>
</g>
<!-- Readers&#45;&gt;Writers -->
<g id="edge13" class="edge">
<title>Readers&#45;&gt;Writers</title>
<path fill="none" stroke="#000000" d="M278.1516,-274.9197C277.8967,-267.9083 277.5416,-258.1442 277.226,-249.4652"/>
<polygon fill="#000000" stroke="#000000" points="280.719,-249.207 276.8578,-239.3408 273.7237,-249.4614 280.719,-249.207"/>
</g>
<!-- Queries -->
<g id="node15" class="node">
<title>Queries</title>
<g id="a_node15"><a xlink:href="../queries.html" xlink:title="Queries" target="_top">
<polygon fill="none" stroke="#ffffff" points="379,-239 326,-239 326,-220 379,-220 379,-239"/>
<text text-anchor="middle" x="352.5" y="-225.8" font-family="Sans-Serif" font-size="14.00" fill="#000000">Queries</text>
</a>
</g>
</g>
<!-- Readers&#45;&gt;Queries -->
<g id="edge20" class="edge">
<title>Readers&#45;&gt;Queries</title>
<path fill="none" stroke="#000000" d="M291.3898,-274.9197C302.2908,-266.8177 318.1372,-255.0399 330.9618,-245.5082"/>
<polygon fill="#000000" stroke="#000000" points="333.3215,-248.1152 339.2596,-239.3408 329.1458,-242.497 333.3215,-248.1152"/>
</g>
<!-- Groups -->
<g id="node20" class="node">
<title>Groups</title>
<g id="a_node20"><a xlink:href="../groups.html" xlink:title="Groups" target="_top">
<polygon fill="none" stroke="#ffffff" points="234.5,-239 184.5,-239 184.5,-220 234.5,-220 234.5,-239"/>
<text text-anchor="middle" x="209.5" y="-225.8" font-family="Sans-Serif" font-size="14.00" fill="#000000">Groups</text>
</a>
</g>
</g>
<!-- Readers&#45;&gt;Groups -->
<g id="edge24" class="edge">
<title>Readers&#45;&gt;Groups</title>
<path fill="none" stroke="#000000" d="M266.4811,-274.9197C256.4144,-266.8956 241.8247,-255.2661 229.9287,-245.7837"/>
<polygon fill="#000000" stroke="#000000" points="231.8471,-242.8371 221.8458,-239.3408 227.4839,-248.3109 231.8471,-242.8371"/>
</g>
<!-- ExampleData -->
<g id="node11" class="node">
<title>ExampleData</title>
<g id="a_node11"><a xlink:href="../example_data.html" xlink:title="ExampleData" target="_top">
<polygon fill="none" stroke="#ffffff" points="389.5,-74 303.5,-74 303.5,-55 389.5,-55 389.5,-74"/>
<text text-anchor="middle" x="346.5" y="-60.8" font-family="Sans-Serif" font-size="14.00" fill="#000000">ExampleData</text>
</a>
</g>
</g>
<!-- MemoryFormat&#45;&gt;ExampleData -->
<g id="edge10" class="edge">
<title>MemoryFormat&#45;&gt;ExampleData</title>
<path fill="none" stroke="#000000" d="M134.7995,-109.9825C178.7964,-100.5301 246.2875,-86.03 293.1939,-75.9525"/>
<polygon fill="#000000" stroke="#000000" points="294.1276,-79.3318 303.1693,-73.8093 292.6572,-72.488 294.1276,-79.3318"/>
</g>
<!-- AnnDataFormat -->
<g id="node24" class="node">
<title>AnnDataFormat</title>
<g id="a_node24"><a xlink:href="../anndata_format.html" xlink:title="AnnDataFormat" target="_top">
<polygon fill="none" stroke="#ffffff" points="101,-74 0,-74 0,-55 101,-55 101,-74"/>
<text text-anchor="middle" x="50.5" y="-60.8" font-family="Sans-Serif" font-size="14.00" fill="#000000">AnnDataFormat</text>
</a>
</g>
</g>
<!-- MemoryFormat&#45;&gt;AnnDataFormat -->
<g id="edge28" class="edge">
<title>MemoryFormat&#45;&gt;AnnDataFormat</title>
<path fill="none" stroke="#000000" d="M83.5325,-109.9197C78.0367,-102.363 70.2154,-91.6087 63.563,-82.4616"/>
<polygon fill="#000000" stroke="#000000" points="66.3693,-80.3696 57.657,-74.3408 60.7081,-84.4868 66.3693,-80.3696"/>
</g>
<!-- Adapters -->
<g id="node25" class="node">
<title>Adapters</title>
<g id="a_node25"><a xlink:href="../adapters.html" xlink:title="Adapters" target="_top">
<polygon fill="none" stroke="#ffffff" points="233,-19 174,-19 174,0 233,0 233,-19"/>
<text text-anchor="middle" x="203.5" y="-5.8" font-family="Sans-Serif" font-size="14.00" fill="#000000">Adapters</text>
</a>
</g>
</g>
<!-- MemoryFormat&#45;&gt;Adapters -->
<g id="edge34" class="edge">
<title>MemoryFormat&#45;&gt;Adapters</title>
<path fill="none" stroke="#000000" d="M99.7188,-109.7087C111.8417,-96.9155 133.9037,-73.916 153.5,-55 163.6887,-45.165 175.3801,-34.4935 184.8944,-25.9588"/>
<polygon fill="#000000" stroke="#000000" points="187.4696,-28.3518 192.6025,-19.0833 182.8101,-23.1279 187.4696,-28.3518"/>
</g>
<!-- Concat -->
<g id="node6" class="node">
<title>Concat</title>
<g id="a_node6"><a xlink:href="../concat.html" xlink:title="Concat" target="_top">
<polygon fill="none" stroke="#ffffff" points="243,-129 196,-129 196,-110 243,-110 243,-129"/>
<text text-anchor="middle" x="219.5" y="-115.8" font-family="Sans-Serif" font-size="14.00" fill="#000000">Concat</text>
</a>
</g>
</g>
<!-- Copies&#45;&gt;Concat -->
<g id="edge5" class="edge">
<title>Copies&#45;&gt;Concat</title>
<path fill="none" stroke="#000000" d="M160.8673,-164.9197C171.3263,-156.8177 186.5303,-145.0399 198.8349,-135.5082"/>
<polygon fill="#000000" stroke="#000000" points="201.0343,-138.2318 206.7964,-129.3408 196.7475,-132.6979 201.0343,-138.2318"/>
</g>
<!-- Copies&#45;&gt;Adapters -->
<g id="edge33" class="edge">
<title>Copies&#45;&gt;Adapters</title>
<path fill="none" stroke="#000000" d="M151.5605,-164.8718C158.0436,-144.5332 173.6988,-95.7168 187.5,-55 190.4157,-46.3981 193.733,-36.9171 196.5882,-28.8462"/>
<polygon fill="#000000" stroke="#000000" points="199.9509,-29.8358 200.0027,-19.2411 193.3552,-27.4911 199.9509,-29.8358"/>
</g>
<!-- Views&#45;&gt;Concat -->
<g id="edge6" class="edge">
<title>Views&#45;&gt;Concat</title>
<path fill="none" stroke="#000000" d="M341.7066,-166.5025C318.388,-157.5338 280.2446,-142.8633 252.7698,-132.2961"/>
<polygon fill="#000000" stroke="#000000" points="253.7674,-128.9299 243.1775,-128.6067 251.2545,-135.4633 253.7674,-128.9299"/>
</g>
<!-- Views&#45;&gt;Chains -->
<g id="edge9" class="edge">
<title>Views&#45;&gt;Chains</title>
<path fill="none" stroke="#000000" d="M363.0226,-164.9197C363.405,-157.9083 363.9376,-148.1442 364.411,-139.4652"/>
<polygon fill="#000000" stroke="#000000" points="367.9133,-139.5166 364.9632,-129.3408 360.9237,-139.1353 367.9133,-139.5166"/>
</g>
<!-- Contracts -->
<g id="node14" class="node">
<title>Contracts</title>
<g id="a_node14"><a xlink:href="../contracts.html" xlink:title="Contracts" target="_top">
<polygon fill="none" stroke="#ffffff" points="323.5,-129 261.5,-129 261.5,-110 323.5,-110 323.5,-129"/>
<text text-anchor="middle" x="292.5" y="-115.8" font-family="Sans-Serif" font-size="14.00" fill="#000000">Contracts</text>
</a>
</g>
</g>
<!-- Views&#45;&gt;Contracts -->
<g id="edge39" class="edge">
<title>Views&#45;&gt;Contracts</title>
<path fill="none" stroke="#000000" d="M350.3069,-164.9197C340.0944,-156.8956 325.2932,-145.2661 313.2247,-135.7837"/>
<polygon fill="#000000" stroke="#000000" points="315.0503,-132.767 305.0247,-129.3408 310.7255,-138.2712 315.0503,-132.767"/>
</g>
<!-- Formats -->
<g id="node9" class="node">
<title>Formats</title>
<g id="a_node9"><a xlink:href="../formats.html" xlink:title="Formats" target="_top">
<polygon fill="none" stroke="#ffffff" points="306,-349 251,-349 251,-330 306,-330 306,-349"/>
<text text-anchor="middle" x="278.5" y="-335.8" font-family="Sans-Serif" font-size="14.00" fill="#000000">Formats</text>
</a>
</g>
</g>
<!-- Formats&#45;&gt;Readers -->
<g id="edge7" class="edge">
<title>Formats&#45;&gt;Readers</title>
<path fill="none" stroke="#000000" d="M278.5,-329.9197C278.5,-322.9083 278.5,-313.1442 278.5,-304.4652"/>
<polygon fill="#000000" stroke="#000000" points="282.0001,-304.3408 278.5,-294.3408 275.0001,-304.3409 282.0001,-304.3408"/>
</g>
<!-- Chains&#45;&gt;ExampleData -->
<g id="edge11" class="edge">
<title>Chains&#45;&gt;ExampleData</title>
<path fill="none" stroke="#000000" d="M362.1905,-109.9197C359.7145,-102.7525 356.2449,-92.7089 353.1977,-83.8882"/>
<polygon fill="#000000" stroke="#000000" points="356.473,-82.6499 349.8996,-74.3408 349.8567,-84.9356 356.473,-82.6499"/>
</g>
<!-- Chains&#45;&gt;CompleteDaf -->
<g id="edge19" class="edge">
<title>Chains&#45;&gt;CompleteDaf</title>
<path fill="none" stroke="#000000" d="M386.7508,-109.9197C406.1376,-101.1798 435.0122,-88.1625 456.886,-78.3014"/>
<polygon fill="#000000" stroke="#000000" points="458.4054,-81.4557 466.0834,-74.155 455.5285,-75.0742 458.4054,-81.4557"/>
</g>
<!-- Chains&#45;&gt;Adapters -->
<g id="edge35" class="edge">
<title>Chains&#45;&gt;Adapters</title>
<path fill="none" stroke="#000000" d="M377.1853,-109.6208C391.503,-96.3248 412.261,-72.3415 398.5,-55 379.4968,-31.0522 294.5603,-18.5335 243.2585,-13.0433"/>
<polygon fill="#000000" stroke="#000000" points="243.4721,-9.5469 233.1669,-12.0072 242.7571,-16.5103 243.4721,-9.5469"/>
</g>
<!-- FilesFormat&#45;&gt;ExampleData -->
<g id="edge12" class="edge">
<title>FilesFormat&#45;&gt;ExampleData</title>
<path fill="none" stroke="#000000" d="M518.1451,-164.9306C485.2289,-145.6711 410.7946,-102.1192 371.6464,-79.2133"/>
<polygon fill="#000000" stroke="#000000" points="373.3496,-76.1548 362.951,-74.1256 369.8145,-82.1966 373.3496,-76.1548"/>
</g>
<!-- FilesFormat&#45;&gt;CompleteDaf -->
<g id="edge18" class="edge">
<title>FilesFormat&#45;&gt;CompleteDaf</title>
<path fill="none" stroke="#000000" d="M530.3291,-164.7382C522.5402,-146.5089 505.6617,-107.0062 495.5749,-83.3986"/>
<polygon fill="#000000" stroke="#000000" points="498.7422,-81.9034 491.5945,-74.0828 492.3051,-84.6538 498.7422,-81.9034"/>
</g>
<!-- Computations -->
<g id="node13" class="node">
<title>Computations</title>
<g id="a_node13"><a xlink:href="../computations.html" xlink:title="Computations" target="_top">
<polygon fill="none" stroke="#ffffff" points="285,-74 196,-74 196,-55 285,-55 285,-74"/>
<text text-anchor="middle" x="240.5" y="-60.8" font-family="Sans-Serif" font-size="14.00" fill="#000000">Computations</text>
</a>
</g>
</g>
<!-- Computations&#45;&gt;Adapters -->
<g id="edge32" class="edge">
<title>Computations&#45;&gt;Adapters</title>
<path fill="none" stroke="#000000" d="M234.0551,-54.9197C229.0239,-47.4409 221.8857,-36.8301 215.7739,-27.745"/>
<polygon fill="#000000" stroke="#000000" points="218.606,-25.6844 210.1202,-19.3408 212.798,-29.5917 218.606,-25.6844"/>
</g>
<!-- Contracts&#45;&gt;Computations -->
<g id="edge14" class="edge">
<title>Contracts&#45;&gt;Computations</title>
<path fill="none" stroke="#000000" d="M283.4423,-109.9197C276.0768,-102.1293 265.4983,-90.9405 256.6839,-81.6176"/>
<polygon fill="#000000" stroke="#000000" points="259.2175,-79.2028 249.8041,-74.3408 254.1309,-84.0119 259.2175,-79.2028"/>
</g>
<!-- Queries&#45;&gt;Views -->
<g id="edge15" class="edge">
<title>Queries&#45;&gt;Views</title>
<path fill="none" stroke="#000000" d="M354.2419,-219.9197C355.5167,-212.9083 357.292,-203.1442 358.87,-194.4652"/>
<polygon fill="#000000" stroke="#000000" points="362.3654,-194.8057 360.7108,-184.3408 355.4783,-193.5534 362.3654,-194.8057"/>
</g>
<!-- Queries&#45;&gt;Reconstruction -->
<g id="edge22" class="edge">
<title>Queries&#45;&gt;Reconstruction</title>
<path fill="none" stroke="#000000" d="M339.2618,-219.9197C327.8888,-211.6893 311.2744,-199.6657 297.9965,-190.0567"/>
<polygon fill="#000000" stroke="#000000" points="299.9946,-187.1823 289.8415,-184.155 295.8907,-192.8532 299.9946,-187.1823"/>
</g>
<!-- Keys -->
<g id="node16" class="node">
<title>Keys</title>
<g id="a_node16"><a xlink:href="../keys.html" xlink:title="Keys" target="_top">
<polygon fill="none" stroke="#ffffff" points="258.5,-404 224.5,-404 224.5,-385 258.5,-385 258.5,-404"/>
<text text-anchor="middle" x="241.5" y="-390.8" font-family="Sans-Serif" font-size="14.00" fill="#000000">Keys</text>
</a>
</g>
</g>
<!-- Keys&#45;&gt;Formats -->
<g id="edge37" class="edge">
<title>Keys&#45;&gt;Formats</title>
<path fill="none" stroke="#000000" d="M247.9449,-384.9197C252.9761,-377.4409 260.1143,-366.8301 266.2261,-357.745"/>
<polygon fill="#000000" stroke="#000000" points="269.202,-359.5917 271.8798,-349.3408 263.394,-355.6844 269.202,-359.5917"/>
</g>
<!-- Operations -->
<g id="node18" class="node">
<title>Operations</title>
<g id="a_node18"><a xlink:href="../operations.html" xlink:title="Operations" target="_top">
<polygon fill="none" stroke="#ffffff" points="396,-294 325,-294 325,-275 396,-275 396,-294"/>
<text text-anchor="middle" x="360.5" y="-280.8" font-family="Sans-Serif" font-size="14.00" fill="#000000">Operations</text>
</a>
</g>
</g>
<!-- Operations&#45;&gt;FilesFormat -->
<g id="edge31" class="edge">
<title>Operations&#45;&gt;FilesFormat</title>
<path fill="none" stroke="#000000" d="M394.1652,-274.9298C417.4052,-267.3721 448.349,-255.3643 472.5,-239 491.6673,-226.0126 509.5341,-206.2813 521.1163,-192.063"/>
<polygon fill="#000000" stroke="#000000" points="524.0105,-194.0459 527.4711,-184.0322 518.5212,-189.7022 524.0105,-194.0459"/>
</g>
<!-- Operations&#45;&gt;Queries -->
<g id="edge21" class="edge">
<title>Operations&#45;&gt;Queries</title>
<path fill="none" stroke="#000000" d="M359.1065,-274.9197C358.0867,-267.9083 356.6664,-258.1442 355.404,-249.4652"/>
<polygon fill="#000000" stroke="#000000" points="358.8344,-248.7329 353.9314,-239.3408 351.9073,-249.7405 358.8344,-248.7329"/>
</g>
<!-- Tokens -->
<g id="node21" class="node">
<title>Tokens</title>
<g id="a_node21"><a xlink:href="../tokens.html" xlink:title="Tokens" target="_top">
<polygon fill="none" stroke="#ffffff" points="396,-404 349,-404 349,-385 396,-385 396,-404"/>
<text text-anchor="middle" x="372.5" y="-390.8" font-family="Sans-Serif" font-size="14.00" fill="#000000">Tokens</text>
</a>
</g>
</g>
<!-- Tokens&#45;&gt;Formats -->
<g id="edge36" class="edge">
<title>Tokens&#45;&gt;Formats</title>
<path fill="none" stroke="#000000" d="M356.1264,-384.9197C341.6579,-376.4541 320.3309,-363.9755 303.6905,-354.2391"/>
<polygon fill="#000000" stroke="#000000" points="305.4,-351.1843 295.0013,-349.155 301.8649,-357.2261 305.4,-351.1843"/>
</g>
<!-- Tokens&#45;&gt;Operations -->
<g id="edge26" class="edge">
<title>Tokens&#45;&gt;Operations</title>
<path fill="none" stroke="#000000" d="M371.4351,-384.7382C369.4643,-366.6724 365.2141,-327.713 362.6314,-304.0376"/>
<polygon fill="#000000" stroke="#000000" points="366.1093,-303.6443 361.5454,-294.0828 359.1506,-304.4034 366.1093,-303.6443"/>
</g>
<!-- Registry -->
<g id="node22" class="node">
<title>Registry</title>
<g id="a_node22"><a xlink:href="../registry.html" xlink:title="Registry" target="_top">
<polygon fill="none" stroke="#ffffff" points="330.5,-404 276.5,-404 276.5,-385 330.5,-385 330.5,-404"/>
<text text-anchor="middle" x="303.5" y="-390.8" font-family="Sans-Serif" font-size="14.00" fill="#000000">Registry</text>
</a>
</g>
</g>
<!-- Registry&#45;&gt;Formats -->
<g id="edge38" class="edge">
<title>Registry&#45;&gt;Formats</title>
<path fill="none" stroke="#000000" d="M299.1453,-384.9197C295.8521,-377.6746 291.2228,-367.4903 287.1823,-358.601"/>
<polygon fill="#000000" stroke="#000000" points="290.2975,-356.9962 282.9731,-349.3408 283.9249,-359.8928 290.2975,-356.9962"/>
</g>
<!-- Registry&#45;&gt;Operations -->
<g id="edge27" class="edge">
<title>Registry&#45;&gt;Operations</title>
<path fill="none" stroke="#000000" d="M308.5584,-384.7382C318.0468,-366.4271 338.6579,-326.6514 350.8712,-303.082"/>
<polygon fill="#000000" stroke="#000000" points="354.0411,-304.5719 355.5344,-294.0828 347.8259,-301.3513 354.0411,-304.5719"/>
</g>
<!-- StorageTypes -->
<g id="node23" class="node">
<title>StorageTypes</title>
<g id="a_node23"><a xlink:href="../storage_types.html" xlink:title="StorageTypes" target="_top">
<polygon fill="none" stroke="#ffffff" points="347,-459 260,-459 260,-440 347,-440 347,-459"/>
<text text-anchor="middle" x="303.5" y="-445.8" font-family="Sans-Serif" font-size="14.00" fill="#000000">StorageTypes</text>
</a>
</g>
</g>
<!-- StorageTypes&#45;&gt;Registry -->
<g id="edge25" class="edge">
<title>StorageTypes&#45;&gt;Registry</title>
<path fill="none" stroke="#000000" d="M303.5,-439.9197C303.5,-432.9083 303.5,-423.1442 303.5,-414.4652"/>
<polygon fill="#000000" stroke="#000000" points="307.0001,-414.3408 303.5,-404.3408 300.0001,-414.3409 307.0001,-414.3408"/>
</g>
</g>
</svg>
