<?xml version="1.0" encoding="UTF-8" standalone="no"?>
<!DOCTYPE svg PUBLIC "-//W3C//DTD SVG 1.1//EN"
 "http://www.w3.org/Graphics/SVG/1.1/DTD/svg11.dtd">
<!-- Generated by graphviz version 14.1.4 (20260321.0153)
 -->
<!-- Pages: 1 -->
<svg width="825pt" height="470pt"
 viewBox="0.00 0.00 825.00 470.00" xmlns="http://www.w3.org/2000/svg" xmlns:xlink="http://www.w3.org/1999/xlink">
<g id="graph0" class="graph" transform="scale(1 1) rotate(0) translate(4 465.88)">
<polygon fill="white" stroke="none" points="-4,4 -4,-465.88 821.44,-465.88 821.44,4 -4,4"/>
<!-- Copies -->
<g id="node1" class="node">
<title>Copies</title>
<g id="a_node1"><a xlink:href="../copies.html" xlink:title="Copies" target="_top">
<polygon fill="none" stroke="white" points="46.32,-185.28 0,-185.28 0,-165.96 46.32,-165.96 46.32,-185.28"/>
<text xml:space="preserve" text-anchor="middle" x="23.16" y="-169.82" font-family="Sans-Serif" font-size="14.00">Copies</text>
</a>
</g>
</g>
<!-- Adapters -->
<g id="node5" class="node">
<title>Adapters</title>
<g id="a_node5"><a xlink:href="../adapters.html" xlink:title="Adapters" target="_top">
<polygon fill="none" stroke="white" points="222.32,-19.32 164,-19.32 164,0 222.32,0 222.32,-19.32"/>
<text xml:space="preserve" text-anchor="middle" x="193.16" y="-3.86" font-family="Sans-Serif" font-size="14.00">Adapters</text>
</a>
</g>
</g>
<!-- Copies&#45;&gt;Adapters -->
<g id="edge6" class="edge">
<title>Copies&#45;&gt;Adapters</title>
<path fill="none" stroke="black" d="M23.73,-165.77C25.6,-143.93 33.44,-86.95 65.16,-55.32 88.52,-32.02 124.68,-20.85 152.62,-15.51"/>
<polygon fill="black" stroke="black" points="152.88,-19.01 162.15,-13.87 151.7,-12.11 152.88,-19.01"/>
</g>
<!-- Concat -->
<g id="node31" class="node">
<title>Concat</title>
<g id="a_node31"><a xlink:href="../concat.html" xlink:title="Concat" target="_top">
<polygon fill="none" stroke="white" points="234.69,-129.96 187.62,-129.96 187.62,-110.64 234.69,-110.64 234.69,-129.96"/>
<text xml:space="preserve" text-anchor="middle" x="211.16" y="-114.5" font-family="Sans-Serif" font-size="14.00">Concat</text>
</a>
</g>
</g>
<!-- Copies&#45;&gt;Concat -->
<g id="edge53" class="edge">
<title>Copies&#45;&gt;Concat</title>
<path fill="none" stroke="black" d="M46.59,-167.97C79.15,-158.74 138.33,-141.96 176.14,-131.23"/>
<polygon fill="black" stroke="black" points="177.02,-134.62 185.68,-128.53 175.11,-127.89 177.02,-134.62"/>
</g>
<!-- Writers -->
<g id="node2" class="node">
<title>Writers</title>
<g id="a_node2"><a xlink:href="../writers.html" xlink:title="Writers" target="_top">
<polygon fill="none" stroke="white" points="238.69,-240.6 191.62,-240.6 191.62,-221.28 238.69,-221.28 238.69,-240.6"/>
<text xml:space="preserve" text-anchor="middle" x="215.16" y="-225.14" font-family="Sans-Serif" font-size="14.00">Writers</text>
</a>
</g>
</g>
<!-- Writers&#45;&gt;Copies -->
<g id="edge1" class="edge">
<title>Writers&#45;&gt;Copies</title>
<path fill="none" stroke="black" d="M191.23,-223.29C157.56,-213.94 96.02,-196.85 57.48,-186.15"/>
<polygon fill="black" stroke="black" points="58.82,-182.89 48.25,-183.59 56.94,-189.63 58.82,-182.89"/>
</g>
<!-- Chains -->
<g id="node6" class="node">
<title>Chains</title>
<g id="a_node6"><a xlink:href="../chains.html" xlink:title="Chains" target="_top">
<polygon fill="none" stroke="white" points="375.32,-129.96 329,-129.96 329,-110.64 375.32,-110.64 375.32,-129.96"/>
<text xml:space="preserve" text-anchor="middle" x="352.16" y="-114.5" font-family="Sans-Serif" font-size="14.00">Chains</text>
</a>
</g>
</g>
<!-- Writers&#45;&gt;Chains -->
<g id="edge44" class="edge">
<title>Writers&#45;&gt;Chains</title>
<path fill="none" stroke="black" d="M191.23,-226.64C147.87,-219.7 63.42,-201.26 93.16,-165.96 107.48,-148.96 249.98,-131.97 317.29,-124.82"/>
<polygon fill="black" stroke="black" points="317.47,-128.32 327.05,-123.8 316.74,-121.36 317.47,-128.32"/>
</g>
<!-- MemoryFormat -->
<g id="node7" class="node">
<title>MemoryFormat</title>
<g id="a_node7"><a xlink:href="../memory_format.html" xlink:title="MemoryFormat" target="_top">
<polygon fill="none" stroke="white" points="312.19,-185.28 214.12,-185.28 214.12,-165.96 312.19,-165.96 312.19,-185.28"/>
<text xml:space="preserve" text-anchor="middle" x="263.16" y="-169.82" font-family="Sans-Serif" font-size="14.00">MemoryFormat</text>
</a>
</g>
</g>
<!-- Writers&#45;&gt;MemoryFormat -->
<g id="edge29" class="edge">
<title>Writers&#45;&gt;MemoryFormat</title>
<path fill="none" stroke="black" d="M223.09,-221.14C229.72,-213.77 239.38,-203.04 247.55,-193.96"/>
<polygon fill="black" stroke="black" points="249.96,-196.51 254.05,-186.74 244.76,-191.83 249.96,-196.51"/>
</g>
<!-- H5dfFormat -->
<g id="node18" class="node">
<title>H5dfFormat</title>
<g id="a_node18"><a xlink:href="../h5df_format.html" xlink:title="H5dfFormat" target="_top">
<polygon fill="none" stroke="white" points="464.32,-185.28 388,-185.28 388,-165.96 464.32,-165.96 464.32,-185.28"/>
<text xml:space="preserve" text-anchor="middle" x="426.16" y="-169.82" font-family="Sans-Serif" font-size="14.00">H5dfFormat</text>
</a>
</g>
</g>
<!-- Writers&#45;&gt;H5dfFormat -->
<g id="edge38" class="edge">
<title>Writers&#45;&gt;H5dfFormat</title>
<path fill="none" stroke="black" d="M238.91,-223.46C241.69,-222.71 244.49,-221.98 247.16,-221.28 291.21,-209.82 341.52,-197.32 377.56,-188.47"/>
<polygon fill="black" stroke="black" points="378.39,-191.87 387.27,-186.09 376.72,-185.07 378.39,-191.87"/>
</g>
<!-- FilesFormat -->
<g id="node20" class="node">
<title>FilesFormat</title>
<g id="a_node20"><a xlink:href="../files_format.html" xlink:title="FilesFormat" target="_top">
<polygon fill="none" stroke="white" points="558.32,-185.28 482,-185.28 482,-165.96 558.32,-165.96 558.32,-185.28"/>
<text xml:space="preserve" text-anchor="middle" x="520.16" y="-169.82" font-family="Sans-Serif" font-size="14.00">FilesFormat</text>
</a>
</g>
</g>
<!-- Writers&#45;&gt;FilesFormat -->
<g id="edge48" class="edge">
<title>Writers&#45;&gt;FilesFormat</title>
<path fill="none" stroke="black" d="M238.86,-223.23C241.65,-222.53 244.46,-221.86 247.16,-221.28 343.12,-200.71 370.98,-202.35 470.53,-185.68"/>
<polygon fill="black" stroke="black" points="470.93,-189.16 480.21,-184.04 469.76,-182.26 470.93,-189.16"/>
</g>
<!-- ZipFormat -->
<g id="node27" class="node">
<title>ZipFormat</title>
<g id="a_node27"><a xlink:href="../zip_files.html" xlink:title="ZipFormat" target="_top">
<polygon fill="none" stroke="white" points="642.44,-185.28 575.88,-185.28 575.88,-165.96 642.44,-165.96 642.44,-185.28"/>
<text xml:space="preserve" text-anchor="middle" x="609.16" y="-169.82" font-family="Sans-Serif" font-size="14.00">ZipFormat</text>
</a>
</g>
</g>
<!-- Writers&#45;&gt;ZipFormat -->
<g id="edge31" class="edge">
<title>Writers&#45;&gt;ZipFormat</title>
<path fill="none" stroke="black" d="M239.18,-223.02C241.86,-222.37 244.56,-221.78 247.16,-221.28 384.18,-195.19 423.82,-207.11 564.53,-185.55"/>
<polygon fill="black" stroke="black" points="564.91,-189.04 574.24,-184.03 563.82,-182.12 564.91,-189.04"/>
</g>
<!-- Reconstruction -->
<g id="node32" class="node">
<title>Reconstruction</title>
<g id="a_node32"><a xlink:href="../reconstruction.html" xlink:title="Reconstruction" target="_top">
<polygon fill="none" stroke="white" points="196.32,-185.28 102,-185.28 102,-165.96 196.32,-165.96 196.32,-185.28"/>
<text xml:space="preserve" text-anchor="middle" x="149.16" y="-169.82" font-family="Sans-Serif" font-size="14.00">Reconstruction</text>
</a>
</g>
</g>
<!-- Writers&#45;&gt;Reconstruction -->
<g id="edge56" class="edge">
<title>Writers&#45;&gt;Reconstruction</title>
<path fill="none" stroke="black" d="M203.96,-220.89C194.42,-213.19 180.49,-201.93 169.05,-192.69"/>
<polygon fill="black" stroke="black" points="171.35,-190.04 161.37,-186.48 166.95,-195.49 171.35,-190.04"/>
</g>
<!-- PackedFormat -->
<g id="node3" class="node">
<title>PackedFormat</title>
<g id="a_node3"><a xlink:href="../packed_format.html" xlink:title="PackedFormat" target="_top">
<polygon fill="none" stroke="white" points="318.57,-295.92 225.75,-295.92 225.75,-276.6 318.57,-276.6 318.57,-295.92"/>
<text xml:space="preserve" text-anchor="middle" x="272.16" y="-280.46" font-family="Sans-Serif" font-size="14.00">PackedFormat</text>
</a>
</g>
</g>
<!-- PackedFormat&#45;&gt;Writers -->
<g id="edge41" class="edge">
<title>PackedFormat&#45;&gt;Writers</title>
<path fill="none" stroke="black" d="M262.49,-276.21C254.42,-268.66 242.69,-257.7 232.94,-248.57"/>
<polygon fill="black" stroke="black" points="235.49,-246.16 225.79,-241.89 230.7,-251.27 235.49,-246.16"/>
</g>
<!-- Formats -->
<g id="node4" class="node">
<title>Formats</title>
<g id="a_node4"><a xlink:href="../formats.html" xlink:title="Formats" target="_top">
<polygon fill="none" stroke="white" points="448.44,-351.24 393.87,-351.24 393.87,-331.92 448.44,-331.92 448.44,-351.24"/>
<text xml:space="preserve" text-anchor="middle" x="421.16" y="-335.78" font-family="Sans-Serif" font-size="14.00">Formats</text>
</a>
</g>
</g>
<!-- Formats&#45;&gt;PackedFormat -->
<g id="edge2" class="edge">
<title>Formats&#45;&gt;PackedFormat</title>
<path fill="none" stroke="black" d="M395.88,-331.53C371.8,-322.92 335.3,-309.86 308.18,-300.15"/>
<polygon fill="black" stroke="black" points="309.58,-296.93 298.98,-296.86 307.22,-303.52 309.58,-296.93"/>
</g>
<!-- Readers -->
<g id="node15" class="node">
<title>Readers</title>
<g id="a_node15"><a xlink:href="../readers.html" xlink:title="Readers" target="_top">
<polygon fill="none" stroke="white" points="448.82,-295.92 393.5,-295.92 393.5,-276.6 448.82,-276.6 448.82,-295.92"/>
<text xml:space="preserve" text-anchor="middle" x="421.16" y="-280.46" font-family="Sans-Serif" font-size="14.00">Readers</text>
</a>
</g>
</g>
<!-- Formats&#45;&gt;Readers -->
<g id="edge58" class="edge">
<title>Formats&#45;&gt;Readers</title>
<path fill="none" stroke="black" d="M421.16,-331.78C421.16,-325.18 421.16,-315.88 421.16,-307.49"/>
<polygon fill="black" stroke="black" points="424.66,-307.77 421.16,-297.77 417.66,-307.77 424.66,-307.77"/>
</g>
<!-- Chains&#45;&gt;Adapters -->
<g id="edge3" class="edge">
<title>Chains&#45;&gt;Adapters</title>
<path fill="none" stroke="black" d="M351.42,-110.56C349.8,-96.89 344.73,-70.46 329.16,-55.32 303.6,-30.46 263.98,-19.44 234.08,-14.55"/>
<polygon fill="black" stroke="black" points="234.64,-11.1 224.25,-13.13 233.64,-18.03 234.64,-11.1"/>
</g>
<!-- CompleteDaf -->
<g id="node16" class="node">
<title>CompleteDaf</title>
<g id="a_node16"><a xlink:href="../complete.html" xlink:title="CompleteDaf" target="_top">
<polygon fill="none" stroke="white" points="566.07,-74.64 482.25,-74.64 482.25,-55.32 566.07,-55.32 566.07,-74.64"/>
<text xml:space="preserve" text-anchor="middle" x="524.16" y="-59.18" font-family="Sans-Serif" font-size="14.00">CompleteDaf</text>
</a>
</g>
</g>
<!-- Chains&#45;&gt;CompleteDaf -->
<g id="edge15" class="edge">
<title>Chains&#45;&gt;CompleteDaf</title>
<path fill="none" stroke="black" d="M375.72,-112C403.57,-103.36 450.39,-88.85 484.01,-78.43"/>
<polygon fill="black" stroke="black" points="484.89,-81.82 493.41,-75.51 482.82,-75.13 484.89,-81.82"/>
</g>
<!-- ExampleData -->
<g id="node25" class="node">
<title>ExampleData</title>
<g id="a_node25"><a xlink:href="../example_data.html" xlink:title="ExampleData" target="_top">
<polygon fill="none" stroke="white" points="320.19,-74.64 234.12,-74.64 234.12,-55.32 320.19,-55.32 320.19,-74.64"/>
<text xml:space="preserve" text-anchor="middle" x="277.16" y="-59.18" font-family="Sans-Serif" font-size="14.00">ExampleData</text>
</a>
</g>
</g>
<!-- Chains&#45;&gt;ExampleData -->
<g id="edge25" class="edge">
<title>Chains&#45;&gt;ExampleData</title>
<path fill="none" stroke="black" d="M339.44,-110.25C328.45,-102.44 312.32,-90.97 299.23,-81.67"/>
<polygon fill="black" stroke="black" points="301.36,-78.89 291.18,-75.95 297.3,-84.59 301.36,-78.89"/>
</g>
<!-- MemoryFormat&#45;&gt;Adapters -->
<g id="edge4" class="edge">
<title>MemoryFormat&#45;&gt;Adapters</title>
<path fill="none" stroke="black" d="M213.83,-167.05C156.9,-157.82 69.81,-141.97 60.16,-129.96 24.85,-86.04 106.64,-44.38 157.1,-23.88"/>
<polygon fill="black" stroke="black" points="158.22,-27.21 166.24,-20.28 155.65,-20.69 158.22,-27.21"/>
</g>
<!-- MemoryFormat&#45;&gt;ExampleData -->
<g id="edge26" class="edge">
<title>MemoryFormat&#45;&gt;ExampleData</title>
<path fill="none" stroke="black" d="M264.31,-165.73C266.53,-148.46 271.49,-109.99 274.55,-86.2"/>
<polygon fill="black" stroke="black" points="278,-86.86 275.81,-76.49 271.06,-85.97 278,-86.86"/>
</g>
<!-- AnnDataFormat -->
<g id="node30" class="node">
<title>AnnDataFormat</title>
<g id="a_node30"><a xlink:href="../anndata_format.html" xlink:title="AnnDataFormat" target="_top">
<polygon fill="none" stroke="white" points="169.32,-129.96 69,-129.96 69,-110.64 169.32,-110.64 169.32,-129.96"/>
<text xml:space="preserve" text-anchor="middle" x="119.16" y="-114.5" font-family="Sans-Serif" font-size="14.00">AnnDataFormat</text>
</a>
</g>
</g>
<!-- MemoryFormat&#45;&gt;AnnDataFormat -->
<g id="edge45" class="edge">
<title>MemoryFormat&#45;&gt;AnnDataFormat</title>
<path fill="none" stroke="black" d="M238.73,-165.57C215.56,-157 180.5,-144.01 154.32,-134.32"/>
<polygon fill="black" stroke="black" points="155.72,-131.11 145.13,-130.91 153.29,-137.67 155.72,-131.11"/>
</g>
<!-- Computations -->
<g id="node8" class="node">
<title>Computations</title>
<g id="a_node8"><a xlink:href="../computations.html" xlink:title="Computations" target="_top">
<polygon fill="none" stroke="white" points="464.32,-74.64 376,-74.64 376,-55.32 464.32,-55.32 464.32,-74.64"/>
<text xml:space="preserve" text-anchor="middle" x="420.16" y="-59.18" font-family="Sans-Serif" font-size="14.00">Computations</text>
</a>
</g>
</g>
<!-- Computations&#45;&gt;Adapters -->
<g id="edge5" class="edge">
<title>Computations&#45;&gt;Adapters</title>
<path fill="none" stroke="black" d="M381.4,-54.87C340.31,-45.22 275.69,-30.05 233.87,-20.22"/>
<polygon fill="black" stroke="black" points="234.73,-16.83 224.2,-17.95 233.13,-23.64 234.73,-16.83"/>
</g>
<!-- Views -->
<g id="node9" class="node">
<title>Views</title>
<g id="a_node9"><a xlink:href="../views.html" xlink:title="Views" target="_top">
<polygon fill="none" stroke="white" points="370.32,-185.28 330,-185.28 330,-165.96 370.32,-165.96 370.32,-185.28"/>
<text xml:space="preserve" text-anchor="middle" x="350.16" y="-169.82" font-family="Sans-Serif" font-size="14.00">Views</text>
</a>
</g>
</g>
<!-- Views&#45;&gt;Chains -->
<g id="edge43" class="edge">
<title>Views&#45;&gt;Chains</title>
<path fill="none" stroke="black" d="M350.49,-165.82C350.74,-159.22 351.09,-149.92 351.4,-141.53"/>
<polygon fill="black" stroke="black" points="354.89,-141.93 351.77,-131.81 347.89,-141.67 354.89,-141.93"/>
</g>
<!-- Contracts -->
<g id="node21" class="node">
<title>Contracts</title>
<g id="a_node21"><a xlink:href="../contracts.html" xlink:title="Contracts" target="_top">
<polygon fill="none" stroke="white" points="455.19,-129.96 393.12,-129.96 393.12,-110.64 455.19,-110.64 455.19,-129.96"/>
<text xml:space="preserve" text-anchor="middle" x="424.16" y="-114.5" font-family="Sans-Serif" font-size="14.00">Contracts</text>
</a>
</g>
</g>
<!-- Views&#45;&gt;Contracts -->
<g id="edge18" class="edge">
<title>Views&#45;&gt;Contracts</title>
<path fill="none" stroke="black" d="M362.71,-165.57C373.62,-157.71 389.66,-146.16 402.62,-136.82"/>
<polygon fill="black" stroke="black" points="404.5,-139.78 410.56,-131.1 400.4,-134.1 404.5,-139.78"/>
</g>
<!-- Views&#45;&gt;Concat -->
<g id="edge52" class="edge">
<title>Views&#45;&gt;Concat</title>
<path fill="none" stroke="black" d="M329.65,-166.75C307.58,-158.29 272.1,-144.68 245.71,-134.55"/>
<polygon fill="black" stroke="black" points="247.02,-131.31 236.43,-130.99 244.52,-137.84 247.02,-131.31"/>
</g>
<!-- ReadOnly -->
<g id="node10" class="node">
<title>ReadOnly</title>
<g id="a_node10"><a xlink:href="../read_only.html" xlink:title="ReadOnly" target="_top">
<polygon fill="none" stroke="white" points="530.69,-240.6 465.62,-240.6 465.62,-221.28 530.69,-221.28 530.69,-240.6"/>
<text xml:space="preserve" text-anchor="middle" x="498.16" y="-225.14" font-family="Sans-Serif" font-size="14.00">ReadOnly</text>
</a>
</g>
</g>
<!-- ReadOnly&#45;&gt;Views -->
<g id="edge7" class="edge">
<title>ReadOnly&#45;&gt;Views</title>
<path fill="none" stroke="black" d="M473.05,-220.89C447.68,-211.76 408.44,-197.62 381.15,-187.78"/>
<polygon fill="black" stroke="black" points="382.63,-184.6 372.04,-184.5 380.26,-191.18 382.63,-184.6"/>
</g>
<!-- ReadOnly&#45;&gt;H5dfFormat -->
<g id="edge37" class="edge">
<title>ReadOnly&#45;&gt;H5dfFormat</title>
<path fill="none" stroke="black" d="M485.95,-220.89C475.33,-213.03 459.72,-201.48 447.12,-192.14"/>
<polygon fill="black" stroke="black" points="449.53,-189.57 439.41,-186.43 445.36,-195.2 449.53,-189.57"/>
</g>
<!-- ReadOnly&#45;&gt;FilesFormat -->
<g id="edge46" class="edge">
<title>ReadOnly&#45;&gt;FilesFormat</title>
<path fill="none" stroke="black" d="M501.79,-221.14C504.61,-214.31 508.62,-204.59 512.18,-195.97"/>
<polygon fill="black" stroke="black" points="515.29,-197.59 515.87,-187.02 508.82,-194.92 515.29,-197.59"/>
</g>
<!-- ReadOnly&#45;&gt;ZipFormat -->
<g id="edge33" class="edge">
<title>ReadOnly&#45;&gt;ZipFormat</title>
<path fill="none" stroke="black" d="M516.99,-220.89C534.21,-212.62 559.96,-200.25 579.87,-190.69"/>
<polygon fill="black" stroke="black" points="581.38,-193.85 588.87,-186.36 578.34,-187.54 581.38,-193.85"/>
</g>
<!-- Queries -->
<g id="node11" class="node">
<title>Queries</title>
<g id="a_node11"><a xlink:href="../queries.html" xlink:title="Queries" target="_top">
<polygon fill="none" stroke="white" points="376.32,-240.6 324,-240.6 324,-221.28 376.32,-221.28 376.32,-240.6"/>
<text xml:space="preserve" text-anchor="middle" x="350.16" y="-225.14" font-family="Sans-Serif" font-size="14.00">Queries</text>
</a>
</g>
</g>
<!-- Queries&#45;&gt;Views -->
<g id="edge8" class="edge">
<title>Queries&#45;&gt;Views</title>
<path fill="none" stroke="black" d="M350.16,-221.14C350.16,-214.54 350.16,-205.24 350.16,-196.85"/>
<polygon fill="black" stroke="black" points="353.66,-197.13 350.16,-187.13 346.66,-197.13 353.66,-197.13"/>
</g>
<!-- Queries&#45;&gt;Reconstruction -->
<g id="edge55" class="edge">
<title>Queries&#45;&gt;Reconstruction</title>
<path fill="none" stroke="black" d="M323.88,-222.97C291.08,-214.27 234.43,-199.24 194.55,-188.66"/>
<polygon fill="black" stroke="black" points="195.55,-185.3 184.98,-186.12 193.75,-192.07 195.55,-185.3"/>
</g>
<!-- Operations -->
<g id="node12" class="node">
<title>Operations</title>
<g id="a_node12"><a xlink:href="../operations.html" xlink:title="Operations" target="_top">
<polygon fill="none" stroke="white" points="593.69,-295.92 522.62,-295.92 522.62,-276.6 593.69,-276.6 593.69,-295.92"/>
<text xml:space="preserve" text-anchor="middle" x="558.16" y="-280.46" font-family="Sans-Serif" font-size="14.00">Operations</text>
</a>
</g>
</g>
<!-- Operations&#45;&gt;Queries -->
<g id="edge11" class="edge">
<title>Operations&#45;&gt;Queries</title>
<path fill="none" stroke="black" d="M522.88,-276.21C485.22,-266.56 425.79,-251.33 387.4,-241.49"/>
<polygon fill="black" stroke="black" points="388.71,-238.21 378.15,-239.12 386.97,-244.99 388.71,-238.21"/>
</g>
<!-- HttpFormat -->
<g id="node17" class="node">
<title>HttpFormat</title>
<g id="a_node17"><a xlink:href="../http_format.html" xlink:title="HttpFormat" target="_top">
<polygon fill="none" stroke="white" points="817.44,-240.6 744.88,-240.6 744.88,-221.28 817.44,-221.28 817.44,-240.6"/>
<text xml:space="preserve" text-anchor="middle" x="781.16" y="-225.14" font-family="Sans-Serif" font-size="14.00">HttpFormat</text>
</a>
</g>
</g>
<!-- Operations&#45;&gt;HttpFormat -->
<g id="edge50" class="edge">
<title>Operations&#45;&gt;HttpFormat</title>
<path fill="none" stroke="black" d="M593.99,-276.69C631.88,-267.63 691.85,-253.29 733.67,-243.3"/>
<polygon fill="black" stroke="black" points="734.3,-246.74 743.21,-241.01 732.67,-239.94 734.3,-246.74"/>
</g>
<!-- Operations&#45;&gt;FilesFormat -->
<g id="edge49" class="edge">
<title>Operations&#45;&gt;FilesFormat</title>
<path fill="none" stroke="black" d="M556.11,-276.44C553.13,-263.98 547.16,-240.59 540.16,-221.28 537.09,-212.8 533.12,-203.67 529.54,-195.9"/>
<polygon fill="black" stroke="black" points="532.8,-194.6 525.35,-187.06 526.47,-197.6 532.8,-194.6"/>
</g>
<!-- Operations&#45;&gt;ZipFormat -->
<g id="edge32" class="edge">
<title>Operations&#45;&gt;ZipFormat</title>
<path fill="none" stroke="black" d="M562.33,-276.37C570.55,-258.86 589,-219.57 600.13,-195.86"/>
<polygon fill="black" stroke="black" points="603.2,-197.54 604.29,-187 596.87,-194.57 603.2,-197.54"/>
</g>
<!-- Tokens -->
<g id="node13" class="node">
<title>Tokens</title>
<g id="a_node13"><a xlink:href="../tokens.html" xlink:title="Tokens" target="_top">
<polygon fill="none" stroke="white" points="580.69,-406.56 533.62,-406.56 533.62,-387.24 580.69,-387.24 580.69,-406.56"/>
<text xml:space="preserve" text-anchor="middle" x="557.16" y="-391.1" font-family="Sans-Serif" font-size="14.00">Tokens</text>
</a>
</g>
</g>
<!-- Tokens&#45;&gt;Formats -->
<g id="edge20" class="edge">
<title>Tokens&#45;&gt;Formats</title>
<path fill="none" stroke="black" d="M534.09,-386.85C512.4,-378.35 479.68,-365.52 455.03,-355.86"/>
<polygon fill="black" stroke="black" points="456.34,-352.61 445.75,-352.22 453.79,-359.13 456.34,-352.61"/>
</g>
<!-- Tokens&#45;&gt;Operations -->
<g id="edge9" class="edge">
<title>Tokens&#45;&gt;Operations</title>
<path fill="none" stroke="black" d="M557.24,-387.01C557.4,-369.74 557.75,-331.27 557.97,-307.48"/>
<polygon fill="black" stroke="black" points="561.47,-307.82 558.06,-297.79 554.47,-307.75 561.47,-307.82"/>
</g>
<!-- Registry -->
<g id="node14" class="node">
<title>Registry</title>
<g id="a_node14"><a xlink:href="../registry.html" xlink:title="Registry" target="_top">
<polygon fill="none" stroke="white" points="514.07,-406.56 460.25,-406.56 460.25,-387.24 514.07,-387.24 514.07,-406.56"/>
<text xml:space="preserve" text-anchor="middle" x="487.16" y="-391.1" font-family="Sans-Serif" font-size="14.00">Registry</text>
</a>
</g>
</g>
<!-- Registry&#45;&gt;Formats -->
<g id="edge22" class="edge">
<title>Registry&#45;&gt;Formats</title>
<path fill="none" stroke="black" d="M475.96,-386.85C466.42,-379.15 452.49,-367.89 441.05,-358.65"/>
<polygon fill="black" stroke="black" points="443.35,-356 433.37,-352.44 438.95,-361.45 443.35,-356"/>
</g>
<!-- Registry&#45;&gt;Operations -->
<g id="edge10" class="edge">
<title>Registry&#45;&gt;Operations</title>
<path fill="none" stroke="black" d="M492.97,-387.01C504.52,-369.34 530.56,-329.49 546.01,-305.85"/>
<polygon fill="black" stroke="black" points="548.9,-307.83 551.44,-297.54 543.04,-304 548.9,-307.83"/>
</g>
<!-- Readers&#45;&gt;Writers -->
<g id="edge42" class="edge">
<title>Readers&#45;&gt;Writers</title>
<path fill="none" stroke="black" d="M393.1,-278.18C360.77,-269.99 305.76,-255.99 249.75,-241.26"/>
<polygon fill="black" stroke="black" points="250.94,-237.95 240.38,-238.79 249.16,-244.72 250.94,-237.95"/>
</g>
<!-- Readers&#45;&gt;ReadOnly -->
<g id="edge57" class="edge">
<title>Readers&#45;&gt;ReadOnly</title>
<path fill="none" stroke="black" d="M434.22,-276.21C445.62,-268.33 462.39,-256.71 475.9,-247.36"/>
<polygon fill="black" stroke="black" points="477.56,-250.46 483.79,-241.89 473.58,-244.71 477.56,-250.46"/>
</g>
<!-- Readers&#45;&gt;Queries -->
<g id="edge12" class="edge">
<title>Readers&#45;&gt;Queries</title>
<path fill="none" stroke="black" d="M409.12,-276.21C398.75,-268.43 383.56,-257.02 371.19,-247.73"/>
<polygon fill="black" stroke="black" points="373.33,-244.97 363.24,-241.76 369.13,-250.56 373.33,-244.97"/>
</g>
<!-- Readers&#45;&gt;HttpFormat -->
<g id="edge51" class="edge">
<title>Readers&#45;&gt;HttpFormat</title>
<path fill="none" stroke="black" d="M449.04,-281.78C502.29,-275.02 622.4,-259.31 733.75,-240.93"/>
<polygon fill="black" stroke="black" points="734.05,-244.43 743.35,-239.34 732.91,-237.52 734.05,-244.43"/>
</g>
<!-- Reorder -->
<g id="node22" class="node">
<title>Reorder</title>
<g id="a_node22"><a xlink:href="../reorder.html" xlink:title="Reorder" target="_top">
<polygon fill="none" stroke="white" points="447.69,-240.6 394.62,-240.6 394.62,-221.28 447.69,-221.28 447.69,-240.6"/>
<text xml:space="preserve" text-anchor="middle" x="421.16" y="-225.14" font-family="Sans-Serif" font-size="14.00">Reorder</text>
</a>
</g>
</g>
<!-- Readers&#45;&gt;Reorder -->
<g id="edge19" class="edge">
<title>Readers&#45;&gt;Reorder</title>
<path fill="none" stroke="black" d="M421.16,-276.46C421.16,-269.86 421.16,-260.56 421.16,-252.17"/>
<polygon fill="black" stroke="black" points="424.66,-252.45 421.16,-242.45 417.66,-252.45 424.66,-252.45"/>
</g>
<!-- Groups -->
<g id="node29" class="node">
<title>Groups</title>
<g id="a_node29"><a xlink:href="../groups.html" xlink:title="Groups" target="_top">
<polygon fill="none" stroke="white" points="305.82,-240.6 256.5,-240.6 256.5,-221.28 305.82,-221.28 305.82,-240.6"/>
<text xml:space="preserve" text-anchor="middle" x="281.16" y="-225.14" font-family="Sans-Serif" font-size="14.00">Groups</text>
</a>
</g>
</g>
<!-- Readers&#45;&gt;Groups -->
<g id="edge40" class="edge">
<title>Readers&#45;&gt;Groups</title>
<path fill="none" stroke="black" d="M397.41,-276.21C374.99,-267.67 341.1,-254.77 315.69,-245.09"/>
<polygon fill="black" stroke="black" points="317.03,-241.86 306.44,-241.57 314.54,-248.4 317.03,-241.86"/>
</g>
<!-- HttpFormat&#45;&gt;CompleteDaf -->
<g id="edge13" class="edge">
<title>HttpFormat&#45;&gt;CompleteDaf</title>
<path fill="none" stroke="black" d="M771.59,-220.84C748.69,-199.4 688.26,-144.97 630.16,-110.64 608.59,-97.9 582.71,-86.92 561.92,-79.03"/>
<polygon fill="black" stroke="black" points="563.27,-75.8 552.67,-75.62 560.84,-82.37 563.27,-75.8"/>
</g>
<!-- H5dfFormat&#45;&gt;CompleteDaf -->
<g id="edge14" class="edge">
<title>H5dfFormat&#45;&gt;CompleteDaf</title>
<path fill="none" stroke="black" d="M434.18,-165.73C450.4,-147.74 487.37,-106.77 508.52,-83.31"/>
<polygon fill="black" stroke="black" points="510.92,-85.89 515.02,-76.12 505.72,-81.2 510.92,-85.89"/>
</g>
<!-- ZarrFormat -->
<g id="node19" class="node">
<title>ZarrFormat</title>
<g id="a_node19"><a xlink:href="../zarr_format.html" xlink:title="ZarrFormat" target="_top">
<polygon fill="none" stroke="white" points="621.44,-129.96 548.88,-129.96 548.88,-110.64 621.44,-110.64 621.44,-129.96"/>
<text xml:space="preserve" text-anchor="middle" x="585.16" y="-114.5" font-family="Sans-Serif" font-size="14.00">ZarrFormat</text>
</a>
</g>
</g>
<!-- ZarrFormat&#45;&gt;CompleteDaf -->
<g id="edge16" class="edge">
<title>ZarrFormat&#45;&gt;CompleteDaf</title>
<path fill="none" stroke="black" d="M574.81,-110.25C566.08,-102.63 553.37,-91.51 542.86,-82.33"/>
<polygon fill="black" stroke="black" points="545.33,-79.83 535.49,-75.89 540.72,-85.1 545.33,-79.83"/>
</g>
<!-- ZarrConvert -->
<g id="node24" class="node">
<title>ZarrConvert</title>
<g id="a_node24"><a xlink:href="../zarr_convert.html" xlink:title="ZarrConvert" target="_top">
<polygon fill="none" stroke="white" points="675.32,-74.64 599,-74.64 599,-55.32 675.32,-55.32 675.32,-74.64"/>
<text xml:space="preserve" text-anchor="middle" x="637.16" y="-59.18" font-family="Sans-Serif" font-size="14.00">ZarrConvert</text>
</a>
</g>
</g>
<!-- ZarrFormat&#45;&gt;ZarrConvert -->
<g id="edge23" class="edge">
<title>ZarrFormat&#45;&gt;ZarrConvert</title>
<path fill="none" stroke="black" d="M593.75,-110.5C601,-103.05 611.61,-92.18 620.53,-83.04"/>
<polygon fill="black" stroke="black" points="622.85,-85.66 627.33,-76.06 617.84,-80.78 622.85,-85.66"/>
</g>
<!-- FilesFormat&#45;&gt;CompleteDaf -->
<g id="edge17" class="edge">
<title>FilesFormat&#45;&gt;CompleteDaf</title>
<path fill="none" stroke="black" d="M520.49,-165.73C521.12,-148.46 522.54,-109.99 523.42,-86.2"/>
<polygon fill="black" stroke="black" points="526.9,-86.63 523.77,-76.51 519.91,-86.37 526.9,-86.63"/>
</g>
<!-- FilesFormat&#45;&gt;ZarrConvert -->
<g id="edge24" class="edge">
<title>FilesFormat&#45;&gt;ZarrConvert</title>
<path fill="none" stroke="black" d="M552.41,-165.54C581.24,-156.74 620.41,-142.87 630.16,-129.96 639.55,-117.54 640.79,-99.68 639.97,-85.99"/>
<polygon fill="black" stroke="black" points="643.49,-85.95 638.97,-76.37 636.52,-86.67 643.49,-85.95"/>
</g>
<!-- FilesFormat&#45;&gt;ExampleData -->
<g id="edge27" class="edge">
<title>FilesFormat&#45;&gt;ExampleData</title>
<path fill="none" stroke="black" d="M481.82,-166.82C425.65,-155.29 326.86,-134.54 320.16,-129.96 304.12,-119 292.44,-99.89 285.34,-85.4"/>
<polygon fill="black" stroke="black" points="288.57,-84.06 281.25,-76.4 282.2,-86.95 288.57,-84.06"/>
</g>
<!-- Contracts&#45;&gt;Computations -->
<g id="edge54" class="edge">
<title>Contracts&#45;&gt;Computations</title>
<path fill="none" stroke="black" d="M423.5,-110.5C423,-103.9 422.31,-94.6 421.68,-86.21"/>
<polygon fill="black" stroke="black" points="425.19,-86.2 420.95,-76.49 418.21,-86.72 425.19,-86.2"/>
</g>
<!-- Reorder&#45;&gt;MemoryFormat -->
<g id="edge30" class="edge">
<title>Reorder&#45;&gt;MemoryFormat</title>
<path fill="none" stroke="black" d="M394.36,-220.89C368.71,-212.24 329.77,-199.1 300.97,-189.38"/>
<polygon fill="black" stroke="black" points="302.12,-186.07 291.53,-186.19 299.88,-192.71 302.12,-186.07"/>
</g>
<!-- Reorder&#45;&gt;H5dfFormat -->
<g id="edge39" class="edge">
<title>Reorder&#45;&gt;H5dfFormat</title>
<path fill="none" stroke="black" d="M421.99,-221.14C422.6,-214.54 423.48,-205.24 424.26,-196.85"/>
<polygon fill="black" stroke="black" points="427.73,-197.41 425.18,-187.12 420.76,-196.75 427.73,-197.41"/>
</g>
<!-- Reorder&#45;&gt;FilesFormat -->
<g id="edge47" class="edge">
<title>Reorder&#45;&gt;FilesFormat</title>
<path fill="none" stroke="black" d="M437.95,-220.89C453.17,-212.7 475.86,-200.48 493.54,-190.96"/>
<polygon fill="black" stroke="black" points="494.81,-194.25 501.95,-186.43 491.49,-188.09 494.81,-194.25"/>
</g>
<!-- Reorder&#45;&gt;ZipFormat -->
<g id="edge35" class="edge">
<title>Reorder&#45;&gt;ZipFormat</title>
<path fill="none" stroke="black" d="M448.1,-222.3C478.92,-213.56 529.82,-199.12 566.15,-188.82"/>
<polygon fill="black" stroke="black" points="566.8,-192.27 575.46,-186.18 564.89,-185.54 566.8,-192.27"/>
</g>
<!-- Keys -->
<g id="node23" class="node">
<title>Keys</title>
<g id="a_node23"><a xlink:href="../keys.html" xlink:title="Keys" target="_top">
<polygon fill="none" stroke="white" points="438.32,-406.56 404,-406.56 404,-387.24 438.32,-387.24 438.32,-406.56"/>
<text xml:space="preserve" text-anchor="middle" x="421.16" y="-391.1" font-family="Sans-Serif" font-size="14.00">Keys</text>
</a>
</g>
</g>
<!-- Keys&#45;&gt;Formats -->
<g id="edge21" class="edge">
<title>Keys&#45;&gt;Formats</title>
<path fill="none" stroke="black" d="M421.16,-387.1C421.16,-380.5 421.16,-371.2 421.16,-362.81"/>
<polygon fill="black" stroke="black" points="424.66,-363.09 421.16,-353.09 417.66,-363.09 424.66,-363.09"/>
</g>
<!-- MmapZipStores -->
<g id="node26" class="node">
<title>MmapZipStores</title>
<g id="a_node26"><a xlink:href="../mmap_zip_store.html" xlink:title="MmapZipStores" target="_top">
<polygon fill="none" stroke="white" points="726.69,-240.6 625.62,-240.6 625.62,-221.28 726.69,-221.28 726.69,-240.6"/>
<text xml:space="preserve" text-anchor="middle" x="676.16" y="-225.14" font-family="Sans-Serif" font-size="14.00">MmapZipStores</text>
</a>
</g>
</g>
<!-- MmapZipStores&#45;&gt;ZipFormat -->
<g id="edge34" class="edge">
<title>MmapZipStores&#45;&gt;ZipFormat</title>
<path fill="none" stroke="black" d="M664.79,-220.89C655.11,-213.19 640.96,-201.93 629.35,-192.69"/>
<polygon fill="black" stroke="black" points="631.55,-189.96 621.54,-186.47 627.19,-195.44 631.55,-189.96"/>
</g>
<!-- ZipFormat&#45;&gt;ZarrFormat -->
<g id="edge28" class="edge">
<title>ZipFormat&#45;&gt;ZarrFormat</title>
<path fill="none" stroke="black" d="M605.2,-165.82C602.12,-158.99 597.75,-149.27 593.87,-140.65"/>
<polygon fill="black" stroke="black" points="597.13,-139.36 589.83,-131.68 590.74,-142.23 597.13,-139.36"/>
</g>
<!-- StorageTypes -->
<g id="node28" class="node">
<title>StorageTypes</title>
<g id="a_node28"><a xlink:href="../storage_types.html" xlink:title="StorageTypes" target="_top">
<polygon fill="none" stroke="white" points="531.32,-461.88 443,-461.88 443,-442.56 531.32,-442.56 531.32,-461.88"/>
<text xml:space="preserve" text-anchor="middle" x="487.16" y="-446.42" font-family="Sans-Serif" font-size="14.00">StorageTypes</text>
</a>
</g>
</g>
<!-- StorageTypes&#45;&gt;Registry -->
<g id="edge36" class="edge">
<title>StorageTypes&#45;&gt;Registry</title>
<path fill="none" stroke="black" d="M487.16,-442.42C487.16,-435.82 487.16,-426.52 487.16,-418.13"/>
<polygon fill="black" stroke="black" points="490.66,-418.41 487.16,-408.41 483.66,-418.41 490.66,-418.41"/>
</g>
</g>
</svg>
