<?xml version="1.0" encoding="UTF-8" standalone="no"?>
<!DOCTYPE svg PUBLIC "-//W3C//DTD SVG 1.1//EN"
 "http://www.w3.org/Graphics/SVG/1.1/DTD/svg11.dtd">
<!-- Generated by graphviz version 14.1.1 (20251213.1925)
 -->
<!-- Pages: 1 -->
<svg width="603pt" height="470pt"
 viewBox="0.00 0.00 603.00 470.00" xmlns="http://www.w3.org/2000/svg" xmlns:xlink="http://www.w3.org/1999/xlink">
<g id="graph0" class="graph" transform="scale(1 1) rotate(0) translate(4 465.88)">
<polygon fill="white" stroke="none" points="-4,4 -4,-465.88 598.97,-465.88 598.97,4 -4,4"/>
<!-- Copies -->
<g id="node1" class="node">
<title>Copies</title>
<g id="a_node1"><a xlink:href="../copies.html" xlink:title="Copies" target="_top">
<polygon fill="none" stroke="white" points="172.97,-185.28 126.65,-185.28 126.65,-165.96 172.97,-165.96 172.97,-185.28"/>
<text xml:space="preserve" text-anchor="middle" x="149.81" y="-169.82" font-family="Sans-Serif" font-size="14.00">Copies</text>
</a>
</g>
</g>
<!-- Adapters -->
<g id="node3" class="node">
<title>Adapters</title>
<g id="a_node3"><a xlink:href="../adapters.html" xlink:title="Adapters" target="_top">
<polygon fill="none" stroke="white" points="273.97,-19.32 215.65,-19.32 215.65,0 273.97,0 273.97,-19.32"/>
<text xml:space="preserve" text-anchor="middle" x="244.81" y="-3.86" font-family="Sans-Serif" font-size="14.00">Adapters</text>
</a>
</g>
</g>
<!-- Copies&#45;&gt;Adapters -->
<g id="edge4" class="edge">
<title>Copies&#45;&gt;Adapters</title>
<path fill="none" stroke="black" d="M149.7,-165.49C149.89,-152.66 151.47,-128.83 159.81,-110.64 175.3,-76.85 205.57,-45.52 225.49,-27.24"/>
<polygon fill="black" stroke="black" points="227.81,-29.85 232.95,-20.58 223.15,-24.63 227.81,-29.85"/>
</g>
<!-- Concat -->
<g id="node24" class="node">
<title>Concat</title>
<g id="a_node24"><a xlink:href="../concat.html" xlink:title="Concat" target="_top">
<polygon fill="none" stroke="white" points="320.34,-129.96 273.27,-129.96 273.27,-110.64 320.34,-110.64 320.34,-129.96"/>
<text xml:space="preserve" text-anchor="middle" x="296.81" y="-114.5" font-family="Sans-Serif" font-size="14.00">Concat</text>
</a>
</g>
</g>
<!-- Copies&#45;&gt;Concat -->
<g id="edge35" class="edge">
<title>Copies&#45;&gt;Concat</title>
<path fill="none" stroke="black" d="M173.42,-166.05C197.53,-157.31 235.2,-143.64 262.58,-133.71"/>
<polygon fill="black" stroke="black" points="263.62,-137.06 271.82,-130.36 261.23,-130.48 263.62,-137.06"/>
</g>
<!-- Writers -->
<g id="node2" class="node">
<title>Writers</title>
<g id="a_node2"><a xlink:href="../writers.html" xlink:title="Writers" target="_top">
<polygon fill="none" stroke="white" points="316.34,-240.6 269.27,-240.6 269.27,-221.28 316.34,-221.28 316.34,-240.6"/>
<text xml:space="preserve" text-anchor="middle" x="292.81" y="-225.14" font-family="Sans-Serif" font-size="14.00">Writers</text>
</a>
</g>
</g>
<!-- Writers&#45;&gt;Copies -->
<g id="edge1" class="edge">
<title>Writers&#45;&gt;Copies</title>
<path fill="none" stroke="black" d="M268.87,-221.02C245.63,-212.35 210.13,-199.11 183.94,-189.35"/>
<polygon fill="black" stroke="black" points="185.35,-186.14 174.76,-185.93 182.91,-192.7 185.35,-186.14"/>
</g>
<!-- Chains -->
<g id="node4" class="node">
<title>Chains</title>
<g id="a_node4"><a xlink:href="../chains.html" xlink:title="Chains" target="_top">
<polygon fill="none" stroke="white" points="236.97,-185.28 190.65,-185.28 190.65,-165.96 236.97,-165.96 236.97,-185.28"/>
<text xml:space="preserve" text-anchor="middle" x="213.81" y="-169.82" font-family="Sans-Serif" font-size="14.00">Chains</text>
</a>
</g>
</g>
<!-- Writers&#45;&gt;Chains -->
<g id="edge30" class="edge">
<title>Writers&#45;&gt;Chains</title>
<path fill="none" stroke="black" d="M279.41,-220.89C267.72,-213.01 250.51,-201.39 236.65,-192.04"/>
<polygon fill="black" stroke="black" points="238.77,-189.25 228.53,-186.56 234.86,-195.05 238.77,-189.25"/>
</g>
<!-- MemoryFormat -->
<g id="node5" class="node">
<title>MemoryFormat</title>
<g id="a_node5"><a xlink:href="../memory_format.html" xlink:title="MemoryFormat" target="_top">
<polygon fill="none" stroke="white" points="108.84,-185.28 10.77,-185.28 10.77,-165.96 108.84,-165.96 108.84,-185.28"/>
<text xml:space="preserve" text-anchor="middle" x="59.81" y="-169.82" font-family="Sans-Serif" font-size="14.00">MemoryFormat</text>
</a>
</g>
</g>
<!-- Writers&#45;&gt;MemoryFormat -->
<g id="edge23" class="edge">
<title>Writers&#45;&gt;MemoryFormat</title>
<path fill="none" stroke="black" d="M269.07,-223.39C266.29,-222.66 263.49,-221.94 260.81,-221.28 211.58,-209.16 155.2,-196.76 114.71,-188.11"/>
<polygon fill="black" stroke="black" points="115.45,-184.69 104.94,-186.03 114,-191.54 115.45,-184.69"/>
</g>
<!-- FilesFormat -->
<g id="node15" class="node">
<title>FilesFormat</title>
<g id="a_node15"><a xlink:href="../files_format.html" xlink:title="FilesFormat" target="_top">
<polygon fill="none" stroke="white" points="424.97,-185.28 348.65,-185.28 348.65,-165.96 424.97,-165.96 424.97,-185.28"/>
<text xml:space="preserve" text-anchor="middle" x="386.81" y="-169.82" font-family="Sans-Serif" font-size="14.00">FilesFormat</text>
</a>
</g>
</g>
<!-- Writers&#45;&gt;FilesFormat -->
<g id="edge33" class="edge">
<title>Writers&#45;&gt;FilesFormat</title>
<path fill="none" stroke="black" d="M308.75,-220.89C323.07,-212.78 344.34,-200.71 361.06,-191.22"/>
<polygon fill="black" stroke="black" points="362.49,-194.43 369.47,-186.46 359.04,-188.35 362.49,-194.43"/>
</g>
<!-- H5dfFormat -->
<g id="node16" class="node">
<title>H5dfFormat</title>
<g id="a_node16"><a xlink:href="../h5df_format.html" xlink:title="H5dfFormat" target="_top">
<polygon fill="none" stroke="white" points="330.97,-185.28 254.65,-185.28 254.65,-165.96 330.97,-165.96 330.97,-185.28"/>
<text xml:space="preserve" text-anchor="middle" x="292.81" y="-169.82" font-family="Sans-Serif" font-size="14.00">H5dfFormat</text>
</a>
</g>
</g>
<!-- Writers&#45;&gt;H5dfFormat -->
<g id="edge26" class="edge">
<title>Writers&#45;&gt;H5dfFormat</title>
<path fill="none" stroke="black" d="M292.81,-221.14C292.81,-214.54 292.81,-205.24 292.81,-196.85"/>
<polygon fill="black" stroke="black" points="296.31,-197.13 292.81,-187.13 289.31,-197.13 296.31,-197.13"/>
</g>
<!-- Reconstruction -->
<g id="node25" class="node">
<title>Reconstruction</title>
<g id="a_node25"><a xlink:href="../reconstruction.html" xlink:title="Reconstruction" target="_top">
<polygon fill="none" stroke="white" points="536.97,-185.28 442.65,-185.28 442.65,-165.96 536.97,-165.96 536.97,-185.28"/>
<text xml:space="preserve" text-anchor="middle" x="489.81" y="-169.82" font-family="Sans-Serif" font-size="14.00">Reconstruction</text>
</a>
</g>
</g>
<!-- Writers&#45;&gt;Reconstruction -->
<g id="edge38" class="edge">
<title>Writers&#45;&gt;Reconstruction</title>
<path fill="none" stroke="black" d="M316.57,-223.51C348.31,-214.92 405.15,-199.53 445.05,-188.73"/>
<polygon fill="black" stroke="black" points="445.87,-192.14 454.61,-186.15 444.04,-185.38 445.87,-192.14"/>
</g>
<!-- Chains&#45;&gt;Adapters -->
<g id="edge2" class="edge">
<title>Chains&#45;&gt;Adapters</title>
<path fill="none" stroke="black" d="M237.22,-167.18C269.5,-156.69 324.33,-137.94 329.81,-129.96 355.88,-91.99 302.51,-48.03 269.06,-25.56"/>
<polygon fill="black" stroke="black" points="271.39,-22.9 261.1,-20.39 267.58,-28.77 271.39,-22.9"/>
</g>
<!-- CompleteDaf -->
<g id="node14" class="node">
<title>CompleteDaf</title>
<g id="a_node14"><a xlink:href="../complete.html" xlink:title="CompleteDaf" target="_top">
<polygon fill="none" stroke="white" points="460.72,-129.96 376.9,-129.96 376.9,-110.64 460.72,-110.64 460.72,-129.96"/>
<text xml:space="preserve" text-anchor="middle" x="418.81" y="-114.5" font-family="Sans-Serif" font-size="14.00">CompleteDaf</text>
</a>
</g>
</g>
<!-- Chains&#45;&gt;CompleteDaf -->
<g id="edge13" class="edge">
<title>Chains&#45;&gt;CompleteDaf</title>
<path fill="none" stroke="black" d="M237.22,-168.25C240.11,-167.47 243.02,-166.7 245.81,-165.96 288.56,-154.66 337.35,-142.09 372.19,-133.18"/>
<polygon fill="black" stroke="black" points="372.7,-136.66 381.52,-130.79 370.97,-129.88 372.7,-136.66"/>
</g>
<!-- ExampleData -->
<g id="node20" class="node">
<title>ExampleData</title>
<g id="a_node20"><a xlink:href="../example_data.html" xlink:title="ExampleData" target="_top">
<polygon fill="none" stroke="white" points="254.84,-129.96 168.77,-129.96 168.77,-110.64 254.84,-110.64 254.84,-129.96"/>
<text xml:space="preserve" text-anchor="middle" x="211.81" y="-114.5" font-family="Sans-Serif" font-size="14.00">ExampleData</text>
</a>
</g>
</g>
<!-- Chains&#45;&gt;ExampleData -->
<g id="edge20" class="edge">
<title>Chains&#45;&gt;ExampleData</title>
<path fill="none" stroke="black" d="M213.48,-165.82C213.23,-159.22 212.88,-149.92 212.57,-141.53"/>
<polygon fill="black" stroke="black" points="216.07,-141.67 212.2,-131.81 209.08,-141.93 216.07,-141.67"/>
</g>
<!-- MemoryFormat&#45;&gt;Adapters -->
<g id="edge3" class="edge">
<title>MemoryFormat&#45;&gt;Adapters</title>
<path fill="none" stroke="black" d="M41.49,-165.5C20.18,-153.63 -10.38,-131.88 3.81,-110.64 48.66,-43.47 147.96,-21.36 204.09,-14.14"/>
<polygon fill="black" stroke="black" points="204.35,-17.63 213.88,-12.98 203.53,-10.68 204.35,-17.63"/>
</g>
<!-- MemoryFormat&#45;&gt;ExampleData -->
<g id="edge21" class="edge">
<title>MemoryFormat&#45;&gt;ExampleData</title>
<path fill="none" stroke="black" d="M85.59,-165.57C110.16,-156.96 147.39,-143.9 175.06,-134.19"/>
<polygon fill="black" stroke="black" points="176.19,-137.5 184.47,-130.89 173.87,-130.9 176.19,-137.5"/>
</g>
<!-- AnnDataFormat -->
<g id="node23" class="node">
<title>AnnDataFormat</title>
<g id="a_node23"><a xlink:href="../anndata_format.html" xlink:title="AnnDataFormat" target="_top">
<polygon fill="none" stroke="white" points="112.97,-129.96 12.65,-129.96 12.65,-110.64 112.97,-110.64 112.97,-129.96"/>
<text xml:space="preserve" text-anchor="middle" x="62.81" y="-114.5" font-family="Sans-Serif" font-size="14.00">AnnDataFormat</text>
</a>
</g>
</g>
<!-- MemoryFormat&#45;&gt;AnnDataFormat -->
<g id="edge31" class="edge">
<title>MemoryFormat&#45;&gt;AnnDataFormat</title>
<path fill="none" stroke="black" d="M60.3,-165.82C60.67,-159.22 61.2,-149.92 61.67,-141.53"/>
<polygon fill="black" stroke="black" points="65.15,-141.99 62.22,-131.81 58.16,-141.59 65.15,-141.99"/>
</g>
<!-- Computations -->
<g id="node6" class="node">
<title>Computations</title>
<g id="a_node6"><a xlink:href="../computations.html" xlink:title="Computations" target="_top">
<polygon fill="none" stroke="white" points="540.97,-74.64 452.65,-74.64 452.65,-55.32 540.97,-55.32 540.97,-74.64"/>
<text xml:space="preserve" text-anchor="middle" x="496.81" y="-59.18" font-family="Sans-Serif" font-size="14.00">Computations</text>
</a>
</g>
</g>
<!-- Computations&#45;&gt;Adapters -->
<g id="edge5" class="edge">
<title>Computations&#45;&gt;Adapters</title>
<path fill="none" stroke="black" d="M453.77,-54.87C406.6,-44.89 331.5,-29 285.34,-19.24"/>
<polygon fill="black" stroke="black" points="286.26,-15.85 275.75,-17.21 284.81,-22.7 286.26,-15.85"/>
</g>
<!-- Views -->
<g id="node7" class="node">
<title>Views</title>
<g id="a_node7"><a xlink:href="../views.html" xlink:title="Views" target="_top">
<polygon fill="none" stroke="white" points="594.97,-185.28 554.65,-185.28 554.65,-165.96 594.97,-165.96 594.97,-185.28"/>
<text xml:space="preserve" text-anchor="middle" x="574.81" y="-169.82" font-family="Sans-Serif" font-size="14.00">Views</text>
</a>
</g>
</g>
<!-- Views&#45;&gt;CompleteDaf -->
<g id="edge15" class="edge">
<title>Views&#45;&gt;CompleteDaf</title>
<path fill="none" stroke="black" d="M554.41,-167.65C529.55,-159.15 487.05,-144.62 456.24,-134.09"/>
<polygon fill="black" stroke="black" points="457.5,-130.83 446.91,-130.9 455.24,-137.45 457.5,-130.83"/>
</g>
<!-- Contracts -->
<g id="node17" class="node">
<title>Contracts</title>
<g id="a_node17"><a xlink:href="../contracts.html" xlink:title="Contracts" target="_top">
<polygon fill="none" stroke="white" points="573.84,-129.96 511.77,-129.96 511.77,-110.64 573.84,-110.64 573.84,-129.96"/>
<text xml:space="preserve" text-anchor="middle" x="542.81" y="-114.5" font-family="Sans-Serif" font-size="14.00">Contracts</text>
</a>
</g>
</g>
<!-- Views&#45;&gt;Contracts -->
<g id="edge16" class="edge">
<title>Views&#45;&gt;Contracts</title>
<path fill="none" stroke="black" d="M569.52,-165.82C565.33,-158.83 559.33,-148.83 554.07,-140.07"/>
<polygon fill="black" stroke="black" points="557.13,-138.37 548.98,-131.59 551.13,-141.97 557.13,-138.37"/>
</g>
<!-- Views&#45;&gt;Concat -->
<g id="edge36" class="edge">
<title>Views&#45;&gt;Concat</title>
<path fill="none" stroke="black" d="M554.29,-168.18C551.45,-167.38 548.57,-166.62 545.81,-165.96 470.22,-147.96 380.19,-133.51 331.78,-126.3"/>
<polygon fill="black" stroke="black" points="332.58,-122.88 322.18,-124.89 331.56,-129.81 332.58,-122.88"/>
</g>
<!-- ReadOnly -->
<g id="node8" class="node">
<title>ReadOnly</title>
<g id="a_node8"><a xlink:href="../read_only.html" xlink:title="ReadOnly" target="_top">
<polygon fill="none" stroke="white" points="399.34,-240.6 334.27,-240.6 334.27,-221.28 399.34,-221.28 399.34,-240.6"/>
<text xml:space="preserve" text-anchor="middle" x="366.81" y="-225.14" font-family="Sans-Serif" font-size="14.00">ReadOnly</text>
</a>
</g>
</g>
<!-- ReadOnly&#45;&gt;Chains -->
<g id="edge29" class="edge">
<title>ReadOnly&#45;&gt;Chains</title>
<path fill="none" stroke="black" d="M340.85,-220.89C315.26,-211.98 276.01,-198.3 247.91,-188.51"/>
<polygon fill="black" stroke="black" points="249.4,-185.32 238.8,-185.33 247.09,-191.93 249.4,-185.32"/>
</g>
<!-- ReadOnly&#45;&gt;Views -->
<g id="edge6" class="edge">
<title>ReadOnly&#45;&gt;Views</title>
<path fill="none" stroke="black" d="M399.59,-222.24C433.39,-214.19 487.88,-200.93 543.49,-185.83"/>
<polygon fill="black" stroke="black" points="544.06,-189.3 552.78,-183.29 542.22,-182.55 544.06,-189.3"/>
</g>
<!-- ReadOnly&#45;&gt;FilesFormat -->
<g id="edge32" class="edge">
<title>ReadOnly&#45;&gt;FilesFormat</title>
<path fill="none" stroke="black" d="M370.11,-221.14C372.64,-214.38 376.23,-204.81 379.44,-196.26"/>
<polygon fill="black" stroke="black" points="382.67,-197.63 382.9,-187.03 376.11,-195.17 382.67,-197.63"/>
</g>
<!-- ReadOnly&#45;&gt;H5dfFormat -->
<g id="edge25" class="edge">
<title>ReadOnly&#45;&gt;H5dfFormat</title>
<path fill="none" stroke="black" d="M354.25,-220.89C343.34,-213.03 327.3,-201.48 314.35,-192.14"/>
<polygon fill="black" stroke="black" points="316.56,-189.42 306.4,-186.42 312.47,-195.1 316.56,-189.42"/>
</g>
<!-- Queries -->
<g id="node9" class="node">
<title>Queries</title>
<g id="a_node9"><a xlink:href="../queries.html" xlink:title="Queries" target="_top">
<polygon fill="none" stroke="white" points="513.97,-240.6 461.65,-240.6 461.65,-221.28 513.97,-221.28 513.97,-240.6"/>
<text xml:space="preserve" text-anchor="middle" x="487.81" y="-225.14" font-family="Sans-Serif" font-size="14.00">Queries</text>
</a>
</g>
</g>
<!-- Queries&#45;&gt;Views -->
<g id="edge7" class="edge">
<title>Queries&#45;&gt;Views</title>
<path fill="none" stroke="black" d="M502.56,-220.89C515.69,-212.85 535.13,-200.94 550.54,-191.49"/>
<polygon fill="black" stroke="black" points="551.99,-194.71 558.69,-186.5 548.33,-188.74 551.99,-194.71"/>
</g>
<!-- Queries&#45;&gt;Reconstruction -->
<g id="edge39" class="edge">
<title>Queries&#45;&gt;Reconstruction</title>
<path fill="none" stroke="black" d="M488.14,-221.14C488.38,-214.54 488.73,-205.24 489.05,-196.85"/>
<polygon fill="black" stroke="black" points="492.53,-197.25 489.41,-187.13 485.54,-196.99 492.53,-197.25"/>
</g>
<!-- Operations -->
<g id="node10" class="node">
<title>Operations</title>
<g id="a_node10"><a xlink:href="../operations.html" xlink:title="Operations" target="_top">
<polygon fill="none" stroke="white" points="478.34,-295.92 407.27,-295.92 407.27,-276.6 478.34,-276.6 478.34,-295.92"/>
<text xml:space="preserve" text-anchor="middle" x="442.81" y="-280.46" font-family="Sans-Serif" font-size="14.00">Operations</text>
</a>
</g>
</g>
<!-- Operations&#45;&gt;Queries -->
<g id="edge11" class="edge">
<title>Operations&#45;&gt;Queries</title>
<path fill="none" stroke="black" d="M450.24,-276.46C456.39,-269.17 465.32,-258.58 472.93,-249.56"/>
<polygon fill="black" stroke="black" points="475.46,-251.99 479.24,-242.09 470.11,-247.48 475.46,-251.99"/>
</g>
<!-- Operations&#45;&gt;FilesFormat -->
<g id="edge34" class="edge">
<title>Operations&#45;&gt;FilesFormat</title>
<path fill="none" stroke="black" d="M438.22,-276.37C429.2,-258.86 408.94,-219.57 396.72,-195.86"/>
<polygon fill="black" stroke="black" points="399.84,-194.26 392.15,-186.98 393.62,-197.47 399.84,-194.26"/>
</g>
<!-- Tokens -->
<g id="node11" class="node">
<title>Tokens</title>
<g id="a_node11"><a xlink:href="../tokens.html" xlink:title="Tokens" target="_top">
<polygon fill="none" stroke="white" points="472.34,-406.56 425.27,-406.56 425.27,-387.24 472.34,-387.24 472.34,-406.56"/>
<text xml:space="preserve" text-anchor="middle" x="448.81" y="-391.1" font-family="Sans-Serif" font-size="14.00">Tokens</text>
</a>
</g>
</g>
<!-- Tokens&#45;&gt;Operations -->
<g id="edge8" class="edge">
<title>Tokens&#45;&gt;Operations</title>
<path fill="none" stroke="black" d="M448.32,-387.01C447.36,-369.74 445.24,-331.27 443.92,-307.48"/>
<polygon fill="black" stroke="black" points="447.43,-307.58 443.39,-297.78 440.44,-307.96 447.43,-307.58"/>
</g>
<!-- Formats -->
<g id="node18" class="node">
<title>Formats</title>
<g id="a_node18"><a xlink:href="../formats.html" xlink:title="Formats" target="_top">
<polygon fill="none" stroke="white" points="383.09,-351.24 328.52,-351.24 328.52,-331.92 383.09,-331.92 383.09,-351.24"/>
<text xml:space="preserve" text-anchor="middle" x="355.81" y="-335.78" font-family="Sans-Serif" font-size="14.00">Formats</text>
</a>
</g>
</g>
<!-- Tokens&#45;&gt;Formats -->
<g id="edge18" class="edge">
<title>Tokens&#45;&gt;Formats</title>
<path fill="none" stroke="black" d="M433.03,-386.85C418.87,-378.74 397.82,-366.67 381.28,-357.18"/>
<polygon fill="black" stroke="black" points="383.39,-354.36 372.97,-352.42 379.91,-360.43 383.39,-354.36"/>
</g>
<!-- Registry -->
<g id="node12" class="node">
<title>Registry</title>
<g id="a_node12"><a xlink:href="../registry.html" xlink:title="Registry" target="_top">
<polygon fill="none" stroke="white" points="407.72,-406.56 353.9,-406.56 353.9,-387.24 407.72,-387.24 407.72,-406.56"/>
<text xml:space="preserve" text-anchor="middle" x="380.81" y="-391.1" font-family="Sans-Serif" font-size="14.00">Registry</text>
</a>
</g>
</g>
<!-- Registry&#45;&gt;Operations -->
<g id="edge9" class="edge">
<title>Registry&#45;&gt;Operations</title>
<path fill="none" stroke="black" d="M385.88,-387.01C395.92,-369.42 418.5,-329.85 432.01,-306.17"/>
<polygon fill="black" stroke="black" points="435,-308.01 436.91,-297.59 428.92,-304.54 435,-308.01"/>
</g>
<!-- Registry&#45;&gt;Formats -->
<g id="edge19" class="edge">
<title>Registry&#45;&gt;Formats</title>
<path fill="none" stroke="black" d="M376.68,-387.1C373.48,-380.27 368.92,-370.55 364.88,-361.93"/>
<polygon fill="black" stroke="black" points="368.08,-360.51 360.67,-352.95 361.74,-363.49 368.08,-360.51"/>
</g>
<!-- Readers -->
<g id="node13" class="node">
<title>Readers</title>
<g id="a_node13"><a xlink:href="../readers.html" xlink:title="Readers" target="_top">
<polygon fill="none" stroke="white" points="383.47,-295.92 328.15,-295.92 328.15,-276.6 383.47,-276.6 383.47,-295.92"/>
<text xml:space="preserve" text-anchor="middle" x="355.81" y="-280.46" font-family="Sans-Serif" font-size="14.00">Readers</text>
</a>
</g>
</g>
<!-- Readers&#45;&gt;Writers -->
<g id="edge28" class="edge">
<title>Readers&#45;&gt;Writers</title>
<path fill="none" stroke="black" d="M345.12,-276.21C336.1,-268.59 322.97,-257.47 312.12,-248.29"/>
<polygon fill="black" stroke="black" points="314.39,-245.62 304.49,-241.83 309.86,-250.96 314.39,-245.62"/>
</g>
<!-- Readers&#45;&gt;ReadOnly -->
<g id="edge40" class="edge">
<title>Readers&#45;&gt;ReadOnly</title>
<path fill="none" stroke="black" d="M357.62,-276.46C358.98,-269.86 360.9,-260.56 362.63,-252.17"/>
<polygon fill="black" stroke="black" points="366.05,-252.92 364.64,-242.42 359.2,-251.5 366.05,-252.92"/>
</g>
<!-- Readers&#45;&gt;Queries -->
<g id="edge10" class="edge">
<title>Readers&#45;&gt;Queries</title>
<path fill="none" stroke="black" d="M378.2,-276.21C399.25,-267.71 431.01,-254.88 454.93,-245.22"/>
<polygon fill="black" stroke="black" points="455.94,-248.59 463.9,-241.6 453.32,-242.1 455.94,-248.59"/>
</g>
<!-- Groups -->
<g id="node22" class="node">
<title>Groups</title>
<g id="a_node22"><a xlink:href="../groups.html" xlink:title="Groups" target="_top">
<polygon fill="none" stroke="white" points="251.47,-240.6 202.15,-240.6 202.15,-221.28 251.47,-221.28 251.47,-240.6"/>
<text xml:space="preserve" text-anchor="middle" x="226.81" y="-225.14" font-family="Sans-Serif" font-size="14.00">Groups</text>
</a>
</g>
</g>
<!-- Readers&#45;&gt;Groups -->
<g id="edge27" class="edge">
<title>Readers&#45;&gt;Groups</title>
<path fill="none" stroke="black" d="M333.92,-276.21C313.45,-267.75 282.59,-255 259.25,-245.35"/>
<polygon fill="black" stroke="black" points="260.77,-242.19 250.2,-241.61 258.1,-248.66 260.77,-242.19"/>
</g>
<!-- FilesFormat&#45;&gt;CompleteDaf -->
<g id="edge12" class="edge">
<title>FilesFormat&#45;&gt;CompleteDaf</title>
<path fill="none" stroke="black" d="M392.09,-165.82C396.28,-158.83 402.29,-148.83 407.54,-140.07"/>
<polygon fill="black" stroke="black" points="410.48,-141.97 412.63,-131.59 404.48,-138.37 410.48,-141.97"/>
</g>
<!-- FilesFormat&#45;&gt;ExampleData -->
<g id="edge22" class="edge">
<title>FilesFormat&#45;&gt;ExampleData</title>
<path fill="none" stroke="black" d="M357.12,-165.57C328.33,-156.8 284.44,-143.43 252.42,-133.68"/>
<polygon fill="black" stroke="black" points="253.67,-130.4 243.09,-130.83 251.63,-137.09 253.67,-130.4"/>
</g>
<!-- H5dfFormat&#45;&gt;CompleteDaf -->
<g id="edge14" class="edge">
<title>H5dfFormat&#45;&gt;CompleteDaf</title>
<path fill="none" stroke="black" d="M314.18,-165.57C334.09,-157.15 364.05,-144.47 386.81,-134.84"/>
<polygon fill="black" stroke="black" points="388.09,-138.1 395.93,-130.98 385.36,-131.65 388.09,-138.1"/>
</g>
<!-- Contracts&#45;&gt;Computations -->
<g id="edge37" class="edge">
<title>Contracts&#45;&gt;Computations</title>
<path fill="none" stroke="black" d="M535.21,-110.5C528.92,-103.21 519.79,-92.62 512.01,-83.6"/>
<polygon fill="black" stroke="black" points="514.74,-81.41 505.56,-76.12 509.44,-85.98 514.74,-81.41"/>
</g>
<!-- Formats&#45;&gt;Readers -->
<g id="edge41" class="edge">
<title>Formats&#45;&gt;Readers</title>
<path fill="none" stroke="black" d="M355.81,-331.78C355.81,-325.18 355.81,-315.88 355.81,-307.49"/>
<polygon fill="black" stroke="black" points="359.31,-307.77 355.81,-297.77 352.31,-307.77 359.31,-307.77"/>
</g>
<!-- Keys -->
<g id="node19" class="node">
<title>Keys</title>
<g id="a_node19"><a xlink:href="../keys.html" xlink:title="Keys" target="_top">
<polygon fill="none" stroke="white" points="335.97,-406.56 301.65,-406.56 301.65,-387.24 335.97,-387.24 335.97,-406.56"/>
<text xml:space="preserve" text-anchor="middle" x="318.81" y="-391.1" font-family="Sans-Serif" font-size="14.00">Keys</text>
</a>
</g>
</g>
<!-- Keys&#45;&gt;Formats -->
<g id="edge17" class="edge">
<title>Keys&#45;&gt;Formats</title>
<path fill="none" stroke="black" d="M324.92,-387.1C329.87,-379.96 337.01,-369.67 343.18,-360.78"/>
<polygon fill="black" stroke="black" points="345.88,-363.03 348.7,-352.82 340.12,-359.04 345.88,-363.03"/>
</g>
<!-- StorageTypes -->
<g id="node21" class="node">
<title>StorageTypes</title>
<g id="a_node21"><a xlink:href="../storage_types.html" xlink:title="StorageTypes" target="_top">
<polygon fill="none" stroke="white" points="424.97,-461.88 336.65,-461.88 336.65,-442.56 424.97,-442.56 424.97,-461.88"/>
<text xml:space="preserve" text-anchor="middle" x="380.81" y="-446.42" font-family="Sans-Serif" font-size="14.00">StorageTypes</text>
</a>
</g>
</g>
<!-- StorageTypes&#45;&gt;Registry -->
<g id="edge24" class="edge">
<title>StorageTypes&#45;&gt;Registry</title>
<path fill="none" stroke="black" d="M380.81,-442.42C380.81,-435.82 380.81,-426.52 380.81,-418.13"/>
<polygon fill="black" stroke="black" points="384.31,-418.41 380.81,-408.41 377.31,-418.41 384.31,-418.41"/>
</g>
</g>
</svg>
