<?xml version="1.0" encoding="UTF-8" standalone="no"?>
<!DOCTYPE svg PUBLIC "-//W3C//DTD SVG 1.1//EN"
 "http://www.w3.org/Graphics/SVG/1.1/DTD/svg11.dtd">
<!-- Generated by graphviz version 14.1.4 (20260321.0153)
 -->
<!-- Pages: 1 -->
<svg width="580pt" height="470pt"
 viewBox="0.00 0.00 580.00 470.00" xmlns="http://www.w3.org/2000/svg" xmlns:xlink="http://www.w3.org/1999/xlink">
<g id="graph0" class="graph" transform="scale(1 1) rotate(0) translate(4 465.88)">
<polygon fill="white" stroke="none" points="-4,4 -4,-465.88 576.32,-465.88 576.32,4 -4,4"/>
<!-- Copies -->
<g id="node1" class="node">
<title>Copies</title>
<g id="a_node1"><a xlink:href="../copies.html" xlink:title="Copies" target="_top">
<polygon fill="none" stroke="white" points="158.32,-185.28 112,-185.28 112,-165.96 158.32,-165.96 158.32,-185.28"/>
<text xml:space="preserve" text-anchor="middle" x="135.16" y="-169.82" font-family="Sans-Serif" font-size="14.00">Copies</text>
</a>
</g>
</g>
<!-- Adapters -->
<g id="node3" class="node">
<title>Adapters</title>
<g id="a_node3"><a xlink:href="../adapters.html" xlink:title="Adapters" target="_top">
<polygon fill="none" stroke="white" points="246.32,-19.32 188,-19.32 188,0 246.32,0 246.32,-19.32"/>
<text xml:space="preserve" text-anchor="middle" x="217.16" y="-3.86" font-family="Sans-Serif" font-size="14.00">Adapters</text>
</a>
</g>
</g>
<!-- Copies&#45;&gt;Adapters -->
<g id="edge2" class="edge">
<title>Copies&#45;&gt;Adapters</title>
<path fill="none" stroke="black" d="M120.93,-165.58C109.95,-157.69 95.58,-145.13 89.16,-129.96 85.82,-122.05 86.56,-118.83 89.16,-110.64 98.25,-81.96 105.36,-74.95 128.16,-55.32 143.56,-42.05 163.6,-31.55 180.75,-24.07"/>
<polygon fill="black" stroke="black" points="181.71,-27.47 189.6,-20.39 179.02,-21 181.71,-27.47"/>
</g>
<!-- Concat -->
<g id="node25" class="node">
<title>Concat</title>
<g id="a_node25"><a xlink:href="../concat.html" xlink:title="Concat" target="_top">
<polygon fill="none" stroke="white" points="145.69,-129.96 98.62,-129.96 98.62,-110.64 145.69,-110.64 145.69,-129.96"/>
<text xml:space="preserve" text-anchor="middle" x="122.16" y="-114.5" font-family="Sans-Serif" font-size="14.00">Concat</text>
</a>
</g>
</g>
<!-- Copies&#45;&gt;Concat -->
<g id="edge39" class="edge">
<title>Copies&#45;&gt;Concat</title>
<path fill="none" stroke="black" d="M133.01,-165.82C131.39,-159.14 129.08,-149.7 127.02,-141.23"/>
<polygon fill="black" stroke="black" points="130.48,-140.65 124.71,-131.77 123.68,-142.31 130.48,-140.65"/>
</g>
<!-- Writers -->
<g id="node2" class="node">
<title>Writers</title>
<g id="a_node2"><a xlink:href="../writers.html" xlink:title="Writers" target="_top">
<polygon fill="none" stroke="white" points="268.69,-240.6 221.62,-240.6 221.62,-221.28 268.69,-221.28 268.69,-240.6"/>
<text xml:space="preserve" text-anchor="middle" x="245.16" y="-225.14" font-family="Sans-Serif" font-size="14.00">Writers</text>
</a>
</g>
</g>
<!-- Writers&#45;&gt;Copies -->
<g id="edge1" class="edge">
<title>Writers&#45;&gt;Copies</title>
<path fill="none" stroke="black" d="M226.5,-220.89C209.43,-212.62 183.92,-200.25 164.19,-190.69"/>
<polygon fill="black" stroke="black" points="165.8,-187.58 155.27,-186.37 162.75,-193.88 165.8,-187.58"/>
</g>
<!-- Chains -->
<g id="node5" class="node">
<title>Chains</title>
<g id="a_node5"><a xlink:href="../chains.html" xlink:title="Chains" target="_top">
<polygon fill="none" stroke="white" points="290.32,-129.96 244,-129.96 244,-110.64 290.32,-110.64 290.32,-129.96"/>
<text xml:space="preserve" text-anchor="middle" x="267.16" y="-114.5" font-family="Sans-Serif" font-size="14.00">Chains</text>
</a>
</g>
</g>
<!-- Writers&#45;&gt;Chains -->
<g id="edge32" class="edge">
<title>Writers&#45;&gt;Chains</title>
<path fill="none" stroke="black" d="M246.96,-221.05C250.46,-203.78 258.25,-165.31 263.07,-141.52"/>
<polygon fill="black" stroke="black" points="266.48,-142.29 265.03,-131.8 259.62,-140.9 266.48,-142.29"/>
</g>
<!-- MemoryFormat -->
<g id="node6" class="node">
<title>MemoryFormat</title>
<g id="a_node6"><a xlink:href="../memory_format.html" xlink:title="MemoryFormat" target="_top">
<polygon fill="none" stroke="white" points="559.19,-185.28 461.12,-185.28 461.12,-165.96 559.19,-165.96 559.19,-185.28"/>
<text xml:space="preserve" text-anchor="middle" x="510.16" y="-169.82" font-family="Sans-Serif" font-size="14.00">MemoryFormat</text>
</a>
</g>
</g>
<!-- Writers&#45;&gt;MemoryFormat -->
<g id="edge23" class="edge">
<title>Writers&#45;&gt;MemoryFormat</title>
<path fill="none" stroke="black" d="M268.88,-223.31C271.66,-222.59 274.47,-221.9 277.16,-221.28 335.37,-207.84 402.41,-195.3 449.59,-186.95"/>
<polygon fill="black" stroke="black" points="450.11,-190.41 459.35,-185.23 448.9,-183.51 450.11,-190.41"/>
</g>
<!-- H5dfFormat -->
<g id="node15" class="node">
<title>H5dfFormat</title>
<g id="a_node15"><a xlink:href="../h5df_format.html" xlink:title="H5dfFormat" target="_top">
<polygon fill="none" stroke="white" points="443.32,-185.28 367,-185.28 367,-165.96 443.32,-165.96 443.32,-185.28"/>
<text xml:space="preserve" text-anchor="middle" x="405.16" y="-169.82" font-family="Sans-Serif" font-size="14.00">H5dfFormat</text>
</a>
</g>
</g>
<!-- Writers&#45;&gt;H5dfFormat -->
<g id="edge26" class="edge">
<title>Writers&#45;&gt;H5dfFormat</title>
<path fill="none" stroke="black" d="M269.11,-221.96C295.05,-213.32 336.77,-199.41 367.18,-189.28"/>
<polygon fill="black" stroke="black" points="368,-192.69 376.39,-186.21 365.79,-186.05 368,-192.69"/>
</g>
<!-- FilesFormat -->
<g id="node16" class="node">
<title>FilesFormat</title>
<g id="a_node16"><a xlink:href="../files_format.html" xlink:title="FilesFormat" target="_top">
<polygon fill="none" stroke="white" points="349.32,-185.28 273,-185.28 273,-165.96 349.32,-165.96 349.32,-185.28"/>
<text xml:space="preserve" text-anchor="middle" x="311.16" y="-169.82" font-family="Sans-Serif" font-size="14.00">FilesFormat</text>
</a>
</g>
</g>
<!-- Writers&#45;&gt;FilesFormat -->
<g id="edge34" class="edge">
<title>Writers&#45;&gt;FilesFormat</title>
<path fill="none" stroke="black" d="M256.36,-220.89C265.9,-213.19 279.83,-201.93 291.27,-192.69"/>
<polygon fill="black" stroke="black" points="293.37,-195.49 298.95,-186.48 288.97,-190.04 293.37,-195.49"/>
</g>
<!-- Reconstruction -->
<g id="node26" class="node">
<title>Reconstruction</title>
<g id="a_node26"><a xlink:href="../reconstruction.html" xlink:title="Reconstruction" target="_top">
<polygon fill="none" stroke="white" points="94.32,-185.28 0,-185.28 0,-165.96 94.32,-165.96 94.32,-185.28"/>
<text xml:space="preserve" text-anchor="middle" x="47.16" y="-169.82" font-family="Sans-Serif" font-size="14.00">Reconstruction</text>
</a>
</g>
</g>
<!-- Writers&#45;&gt;Reconstruction -->
<g id="edge41" class="edge">
<title>Writers&#45;&gt;Reconstruction</title>
<path fill="none" stroke="black" d="M221.28,-223.51C189.38,-214.92 132.24,-199.53 92.15,-188.73"/>
<polygon fill="black" stroke="black" points="93.09,-185.37 82.53,-186.14 91.27,-192.12 93.09,-185.37"/>
</g>
<!-- Computations -->
<g id="node4" class="node">
<title>Computations</title>
<g id="a_node4"><a xlink:href="../computations.html" xlink:title="Computations" target="_top">
<polygon fill="none" stroke="white" points="225.32,-74.64 137,-74.64 137,-55.32 225.32,-55.32 225.32,-74.64"/>
<text xml:space="preserve" text-anchor="middle" x="181.16" y="-59.18" font-family="Sans-Serif" font-size="14.00">Computations</text>
</a>
</g>
</g>
<!-- Computations&#45;&gt;Adapters -->
<g id="edge3" class="edge">
<title>Computations&#45;&gt;Adapters</title>
<path fill="none" stroke="black" d="M187.1,-55.18C191.87,-48.12 198.72,-37.97 204.68,-29.14"/>
<polygon fill="black" stroke="black" points="207.54,-31.16 210.24,-20.91 201.74,-27.24 207.54,-31.16"/>
</g>
<!-- Chains&#45;&gt;Adapters -->
<g id="edge4" class="edge">
<title>Chains&#45;&gt;Adapters</title>
<path fill="none" stroke="black" d="M263.07,-110.41C255.01,-92.9 236.93,-53.61 226.01,-29.9"/>
<polygon fill="black" stroke="black" points="229.3,-28.67 221.94,-21.05 222.94,-31.6 229.3,-28.67"/>
</g>
<!-- CompleteDaf -->
<g id="node14" class="node">
<title>CompleteDaf</title>
<g id="a_node14"><a xlink:href="../complete.html" xlink:title="CompleteDaf" target="_top">
<polygon fill="none" stroke="white" points="365.07,-74.64 281.25,-74.64 281.25,-55.32 365.07,-55.32 365.07,-74.64"/>
<text xml:space="preserve" text-anchor="middle" x="323.16" y="-59.18" font-family="Sans-Serif" font-size="14.00">CompleteDaf</text>
</a>
</g>
</g>
<!-- Chains&#45;&gt;CompleteDaf -->
<g id="edge12" class="edge">
<title>Chains&#45;&gt;CompleteDaf</title>
<path fill="none" stroke="black" d="M276.66,-110.25C284.59,-102.7 296.11,-91.74 305.7,-82.61"/>
<polygon fill="black" stroke="black" points="307.88,-85.37 312.7,-75.94 303.05,-80.3 307.88,-85.37"/>
</g>
<!-- ExampleData -->
<g id="node21" class="node">
<title>ExampleData</title>
<g id="a_node21"><a xlink:href="../example_data.html" xlink:title="ExampleData" target="_top">
<polygon fill="none" stroke="white" points="469.19,-74.64 383.12,-74.64 383.12,-55.32 469.19,-55.32 469.19,-74.64"/>
<text xml:space="preserve" text-anchor="middle" x="426.16" y="-59.18" font-family="Sans-Serif" font-size="14.00">ExampleData</text>
</a>
</g>
</g>
<!-- Chains&#45;&gt;ExampleData -->
<g id="edge21" class="edge">
<title>Chains&#45;&gt;ExampleData</title>
<path fill="none" stroke="black" d="M290.62,-111.43C316.32,-102.82 357.91,-88.87 388.25,-78.69"/>
<polygon fill="black" stroke="black" points="389.06,-82.11 397.43,-75.61 386.84,-75.48 389.06,-82.11"/>
</g>
<!-- MemoryFormat&#45;&gt;Adapters -->
<g id="edge5" class="edge">
<title>MemoryFormat&#45;&gt;Adapters</title>
<path fill="none" stroke="black" d="M529.54,-165.59C551.25,-154.14 581.82,-133.16 569.16,-110.64 545.96,-69.38 522.49,-71.9 478.16,-55.32 403.5,-27.4 310.25,-16.81 257.83,-12.89"/>
<polygon fill="black" stroke="black" points="258.4,-9.42 248.18,-12.21 257.91,-16.4 258.4,-9.42"/>
</g>
<!-- MemoryFormat&#45;&gt;ExampleData -->
<g id="edge20" class="edge">
<title>MemoryFormat&#45;&gt;ExampleData</title>
<path fill="none" stroke="black" d="M493.64,-165.58C480.56,-157.68 462.63,-145.12 451.16,-129.96 441.24,-116.85 434.76,-99.32 430.89,-85.92"/>
<polygon fill="black" stroke="black" points="434.34,-85.28 428.42,-76.49 427.56,-87.05 434.34,-85.28"/>
</g>
<!-- AnnDataFormat -->
<g id="node24" class="node">
<title>AnnDataFormat</title>
<g id="a_node24"><a xlink:href="../anndata_format.html" xlink:title="AnnDataFormat" target="_top">
<polygon fill="none" stroke="white" points="560.32,-129.96 460,-129.96 460,-110.64 560.32,-110.64 560.32,-129.96"/>
<text xml:space="preserve" text-anchor="middle" x="510.16" y="-114.5" font-family="Sans-Serif" font-size="14.00">AnnDataFormat</text>
</a>
</g>
</g>
<!-- MemoryFormat&#45;&gt;AnnDataFormat -->
<g id="edge33" class="edge">
<title>MemoryFormat&#45;&gt;AnnDataFormat</title>
<path fill="none" stroke="black" d="M510.16,-165.82C510.16,-159.22 510.16,-149.92 510.16,-141.53"/>
<polygon fill="black" stroke="black" points="513.66,-141.81 510.16,-131.81 506.66,-141.81 513.66,-141.81"/>
</g>
<!-- Views -->
<g id="node7" class="node">
<title>Views</title>
<g id="a_node7"><a xlink:href="../views.html" xlink:title="Views" target="_top">
<polygon fill="none" stroke="white" points="216.32,-185.28 176,-185.28 176,-165.96 216.32,-165.96 216.32,-185.28"/>
<text xml:space="preserve" text-anchor="middle" x="196.16" y="-169.82" font-family="Sans-Serif" font-size="14.00">Views</text>
</a>
</g>
</g>
<!-- Views&#45;&gt;Chains -->
<g id="edge31" class="edge">
<title>Views&#45;&gt;Chains</title>
<path fill="none" stroke="black" d="M208.2,-165.57C218.57,-157.79 233.76,-146.38 246.13,-137.09"/>
<polygon fill="black" stroke="black" points="248.19,-139.92 254.08,-131.12 243.99,-134.33 248.19,-139.92"/>
</g>
<!-- Contracts -->
<g id="node17" class="node">
<title>Contracts</title>
<g id="a_node17"><a xlink:href="../contracts.html" xlink:title="Contracts" target="_top">
<polygon fill="none" stroke="white" points="226.19,-129.96 164.12,-129.96 164.12,-110.64 226.19,-110.64 226.19,-129.96"/>
<text xml:space="preserve" text-anchor="middle" x="195.16" y="-114.5" font-family="Sans-Serif" font-size="14.00">Contracts</text>
</a>
</g>
</g>
<!-- Views&#45;&gt;Contracts -->
<g id="edge15" class="edge">
<title>Views&#45;&gt;Contracts</title>
<path fill="none" stroke="black" d="M195.99,-165.82C195.87,-159.22 195.7,-149.92 195.54,-141.53"/>
<polygon fill="black" stroke="black" points="199.04,-141.74 195.36,-131.81 192.05,-141.87 199.04,-141.74"/>
</g>
<!-- Views&#45;&gt;Concat -->
<g id="edge38" class="edge">
<title>Views&#45;&gt;Concat</title>
<path fill="none" stroke="black" d="M183.61,-165.57C172.7,-157.71 156.66,-146.16 143.7,-136.82"/>
<polygon fill="black" stroke="black" points="145.92,-134.1 135.76,-131.1 141.82,-139.78 145.92,-134.1"/>
</g>
<!-- ReadOnly -->
<g id="node8" class="node">
<title>ReadOnly</title>
<g id="a_node8"><a xlink:href="../read_only.html" xlink:title="ReadOnly" target="_top">
<polygon fill="none" stroke="white" points="351.69,-240.6 286.62,-240.6 286.62,-221.28 351.69,-221.28 351.69,-240.6"/>
<text xml:space="preserve" text-anchor="middle" x="319.16" y="-225.14" font-family="Sans-Serif" font-size="14.00">ReadOnly</text>
</a>
</g>
</g>
<!-- ReadOnly&#45;&gt;Views -->
<g id="edge6" class="edge">
<title>ReadOnly&#45;&gt;Views</title>
<path fill="none" stroke="black" d="M298.29,-220.89C278.74,-212.42 249.26,-199.64 226.99,-189.99"/>
<polygon fill="black" stroke="black" points="228.67,-186.9 218.11,-186.13 225.89,-193.32 228.67,-186.9"/>
</g>
<!-- ReadOnly&#45;&gt;H5dfFormat -->
<g id="edge27" class="edge">
<title>ReadOnly&#45;&gt;H5dfFormat</title>
<path fill="none" stroke="black" d="M333.75,-220.89C346.6,-212.93 365.57,-201.16 380.73,-191.76"/>
<polygon fill="black" stroke="black" points="382.56,-194.75 389.21,-186.51 378.87,-188.8 382.56,-194.75"/>
</g>
<!-- ReadOnly&#45;&gt;FilesFormat -->
<g id="edge35" class="edge">
<title>ReadOnly&#45;&gt;FilesFormat</title>
<path fill="none" stroke="black" d="M317.84,-221.14C316.85,-214.54 315.45,-205.24 314.19,-196.85"/>
<polygon fill="black" stroke="black" points="317.68,-196.48 312.73,-187.11 310.76,-197.52 317.68,-196.48"/>
</g>
<!-- Queries -->
<g id="node9" class="node">
<title>Queries</title>
<g id="a_node9"><a xlink:href="../queries.html" xlink:title="Queries" target="_top">
<polygon fill="none" stroke="white" points="165.32,-240.6 113,-240.6 113,-221.28 165.32,-221.28 165.32,-240.6"/>
<text xml:space="preserve" text-anchor="middle" x="139.16" y="-225.14" font-family="Sans-Serif" font-size="14.00">Queries</text>
</a>
</g>
</g>
<!-- Queries&#45;&gt;Views -->
<g id="edge7" class="edge">
<title>Queries&#45;&gt;Views</title>
<path fill="none" stroke="black" d="M148.83,-220.89C156.9,-213.34 168.63,-202.38 178.38,-193.25"/>
<polygon fill="black" stroke="black" points="180.62,-195.95 185.53,-186.57 175.83,-190.84 180.62,-195.95"/>
</g>
<!-- Queries&#45;&gt;Reconstruction -->
<g id="edge42" class="edge">
<title>Queries&#45;&gt;Reconstruction</title>
<path fill="none" stroke="black" d="M123.55,-220.89C109.54,-212.78 88.73,-200.71 72.36,-191.22"/>
<polygon fill="black" stroke="black" points="74.56,-188.45 64.15,-186.47 71.05,-194.51 74.56,-188.45"/>
</g>
<!-- Operations -->
<g id="node10" class="node">
<title>Operations</title>
<g id="a_node10"><a xlink:href="../operations.html" xlink:title="Operations" target="_top">
<polygon fill="none" stroke="white" points="228.69,-295.92 157.62,-295.92 157.62,-276.6 228.69,-276.6 228.69,-295.92"/>
<text xml:space="preserve" text-anchor="middle" x="193.16" y="-280.46" font-family="Sans-Serif" font-size="14.00">Operations</text>
</a>
</g>
</g>
<!-- Operations&#45;&gt;Queries -->
<g id="edge10" class="edge">
<title>Operations&#45;&gt;Queries</title>
<path fill="none" stroke="black" d="M184.24,-276.46C176.71,-269.01 165.69,-258.14 156.43,-249"/>
<polygon fill="black" stroke="black" points="158.92,-246.54 149.35,-242 154,-251.52 158.92,-246.54"/>
</g>
<!-- Operations&#45;&gt;FilesFormat -->
<g id="edge36" class="edge">
<title>Operations&#45;&gt;FilesFormat</title>
<path fill="none" stroke="black" d="M193.53,-276.29C194.54,-262.8 198.29,-237.16 212.16,-221.28 225.16,-206.39 244.12,-196.21 261.97,-189.37"/>
<polygon fill="black" stroke="black" points="262.89,-192.76 271.16,-186.13 260.57,-186.15 262.89,-192.76"/>
</g>
<!-- Registry -->
<g id="node11" class="node">
<title>Registry</title>
<g id="a_node11"><a xlink:href="../registry.html" xlink:title="Registry" target="_top">
<polygon fill="none" stroke="white" points="288.07,-406.56 234.25,-406.56 234.25,-387.24 288.07,-387.24 288.07,-406.56"/>
<text xml:space="preserve" text-anchor="middle" x="261.16" y="-391.1" font-family="Sans-Serif" font-size="14.00">Registry</text>
</a>
</g>
</g>
<!-- Registry&#45;&gt;Operations -->
<g id="edge8" class="edge">
<title>Registry&#45;&gt;Operations</title>
<path fill="none" stroke="black" d="M255.6,-387.01C244.54,-369.34 219.59,-329.49 204.8,-305.85"/>
<polygon fill="black" stroke="black" points="207.88,-304.18 199.6,-297.56 201.94,-307.89 207.88,-304.18"/>
</g>
<!-- Formats -->
<g id="node19" class="node">
<title>Formats</title>
<g id="a_node19"><a xlink:href="../formats.html" xlink:title="Formats" target="_top">
<polygon fill="none" stroke="white" points="337.44,-351.24 282.87,-351.24 282.87,-331.92 337.44,-331.92 337.44,-351.24"/>
<text xml:space="preserve" text-anchor="middle" x="310.16" y="-335.78" font-family="Sans-Serif" font-size="14.00">Formats</text>
</a>
</g>
</g>
<!-- Registry&#45;&gt;Formats -->
<g id="edge17" class="edge">
<title>Registry&#45;&gt;Formats</title>
<path fill="none" stroke="black" d="M269.25,-387.1C276.02,-379.73 285.88,-369 294.22,-359.92"/>
<polygon fill="black" stroke="black" points="296.68,-362.42 300.87,-352.69 291.53,-357.69 296.68,-362.42"/>
</g>
<!-- Tokens -->
<g id="node12" class="node">
<title>Tokens</title>
<g id="a_node12"><a xlink:href="../tokens.html" xlink:title="Tokens" target="_top">
<polygon fill="none" stroke="white" points="216.69,-406.56 169.62,-406.56 169.62,-387.24 216.69,-387.24 216.69,-406.56"/>
<text xml:space="preserve" text-anchor="middle" x="193.16" y="-391.1" font-family="Sans-Serif" font-size="14.00">Tokens</text>
</a>
</g>
</g>
<!-- Tokens&#45;&gt;Operations -->
<g id="edge9" class="edge">
<title>Tokens&#45;&gt;Operations</title>
<path fill="none" stroke="black" d="M193.16,-387.01C193.16,-369.74 193.16,-331.27 193.16,-307.48"/>
<polygon fill="black" stroke="black" points="196.66,-307.79 193.16,-297.79 189.66,-307.79 196.66,-307.79"/>
</g>
<!-- Tokens&#45;&gt;Formats -->
<g id="edge19" class="edge">
<title>Tokens&#45;&gt;Formats</title>
<path fill="none" stroke="black" d="M213.01,-386.85C231.33,-378.51 258.81,-365.98 279.87,-356.38"/>
<polygon fill="black" stroke="black" points="281.19,-359.63 288.84,-352.3 278.29,-353.26 281.19,-359.63"/>
</g>
<!-- Readers -->
<g id="node13" class="node">
<title>Readers</title>
<g id="a_node13"><a xlink:href="../readers.html" xlink:title="Readers" target="_top">
<polygon fill="none" stroke="white" points="341.82,-295.92 286.5,-295.92 286.5,-276.6 341.82,-276.6 341.82,-295.92"/>
<text xml:space="preserve" text-anchor="middle" x="314.16" y="-280.46" font-family="Sans-Serif" font-size="14.00">Readers</text>
</a>
</g>
</g>
<!-- Readers&#45;&gt;Writers -->
<g id="edge30" class="edge">
<title>Readers&#45;&gt;Writers</title>
<path fill="none" stroke="black" d="M302.46,-276.21C292.38,-268.43 277.62,-257.02 265.6,-247.73"/>
<polygon fill="black" stroke="black" points="267.94,-245.12 257.89,-241.78 263.66,-250.66 267.94,-245.12"/>
</g>
<!-- Readers&#45;&gt;ReadOnly -->
<g id="edge43" class="edge">
<title>Readers&#45;&gt;ReadOnly</title>
<path fill="none" stroke="black" d="M314.99,-276.46C315.6,-269.86 316.48,-260.56 317.26,-252.17"/>
<polygon fill="black" stroke="black" points="320.73,-252.73 318.18,-242.44 313.76,-252.07 320.73,-252.73"/>
</g>
<!-- Readers&#45;&gt;Queries -->
<g id="edge11" class="edge">
<title>Readers&#45;&gt;Queries</title>
<path fill="none" stroke="black" d="M286.04,-276.69C256.4,-267.66 209.54,-253.38 176.74,-243.39"/>
<polygon fill="black" stroke="black" points="177.81,-240.06 167.22,-240.49 175.77,-246.75 177.81,-240.06"/>
</g>
<!-- Reorder -->
<g id="node18" class="node">
<title>Reorder</title>
<g id="a_node18"><a xlink:href="../reorder.html" xlink:title="Reorder" target="_top">
<polygon fill="none" stroke="white" points="489.69,-240.6 436.62,-240.6 436.62,-221.28 489.69,-221.28 489.69,-240.6"/>
<text xml:space="preserve" text-anchor="middle" x="463.16" y="-225.14" font-family="Sans-Serif" font-size="14.00">Reorder</text>
</a>
</g>
</g>
<!-- Readers&#45;&gt;Reorder -->
<g id="edge16" class="edge">
<title>Readers&#45;&gt;Reorder</title>
<path fill="none" stroke="black" d="M339.44,-276.21C363.52,-267.6 400.02,-254.54 427.14,-244.83"/>
<polygon fill="black" stroke="black" points="428.1,-248.2 436.34,-241.54 425.74,-241.61 428.1,-248.2"/>
</g>
<!-- Groups -->
<g id="node23" class="node">
<title>Groups</title>
<g id="a_node23"><a xlink:href="../groups.html" xlink:title="Groups" target="_top">
<polygon fill="none" stroke="white" points="418.82,-240.6 369.5,-240.6 369.5,-221.28 418.82,-221.28 418.82,-240.6"/>
<text xml:space="preserve" text-anchor="middle" x="394.16" y="-225.14" font-family="Sans-Serif" font-size="14.00">Groups</text>
</a>
</g>
</g>
<!-- Readers&#45;&gt;Groups -->
<g id="edge29" class="edge">
<title>Readers&#45;&gt;Groups</title>
<path fill="none" stroke="black" d="M327.73,-276.21C339.57,-268.33 357,-256.71 371.03,-247.36"/>
<polygon fill="black" stroke="black" points="372.88,-250.33 379.26,-241.87 369,-244.5 372.88,-250.33"/>
</g>
<!-- H5dfFormat&#45;&gt;CompleteDaf -->
<g id="edge13" class="edge">
<title>H5dfFormat&#45;&gt;CompleteDaf</title>
<path fill="none" stroke="black" d="M398.45,-165.73C385,-147.9 354.49,-107.49 336.72,-83.94"/>
<polygon fill="black" stroke="black" points="339.69,-82.07 330.87,-76.2 334.11,-86.29 339.69,-82.07"/>
</g>
<!-- FilesFormat&#45;&gt;CompleteDaf -->
<g id="edge14" class="edge">
<title>FilesFormat&#45;&gt;CompleteDaf</title>
<path fill="none" stroke="black" d="M312.14,-165.73C314.05,-148.46 318.3,-109.99 320.93,-86.2"/>
<polygon fill="black" stroke="black" points="324.38,-86.82 322,-76.5 317.42,-86.05 324.38,-86.82"/>
</g>
<!-- FilesFormat&#45;&gt;ExampleData -->
<g id="edge22" class="edge">
<title>FilesFormat&#45;&gt;ExampleData</title>
<path fill="none" stroke="black" d="M320.57,-165.73C339.78,-147.59 383.75,-106.04 408.47,-82.69"/>
<polygon fill="black" stroke="black" points="410.65,-85.44 415.52,-76.03 405.85,-80.36 410.65,-85.44"/>
</g>
<!-- Contracts&#45;&gt;Computations -->
<g id="edge40" class="edge">
<title>Contracts&#45;&gt;Computations</title>
<path fill="none" stroke="black" d="M192.85,-110.5C191.1,-103.82 188.62,-94.38 186.39,-85.91"/>
<polygon fill="black" stroke="black" points="189.83,-85.22 183.91,-76.44 183.06,-87 189.83,-85.22"/>
</g>
<!-- Reorder&#45;&gt;MemoryFormat -->
<g id="edge24" class="edge">
<title>Reorder&#45;&gt;MemoryFormat</title>
<path fill="none" stroke="black" d="M470.92,-221.14C477.35,-213.85 486.67,-203.26 494.62,-194.24"/>
<polygon fill="black" stroke="black" points="497.24,-196.57 501.23,-186.75 491.99,-191.94 497.24,-196.57"/>
</g>
<!-- Reorder&#45;&gt;H5dfFormat -->
<g id="edge28" class="edge">
<title>Reorder&#45;&gt;H5dfFormat</title>
<path fill="none" stroke="black" d="M453.32,-220.89C445.11,-213.34 433.18,-202.38 423.25,-193.25"/>
<polygon fill="black" stroke="black" points="425.7,-190.75 415.97,-186.56 420.96,-195.9 425.7,-190.75"/>
</g>
<!-- Reorder&#45;&gt;FilesFormat -->
<g id="edge37" class="edge">
<title>Reorder&#45;&gt;FilesFormat</title>
<path fill="none" stroke="black" d="M437.38,-220.89C412.81,-212.28 375.57,-199.22 347.9,-189.51"/>
<polygon fill="black" stroke="black" points="349.09,-186.22 338.5,-186.21 346.78,-192.82 349.09,-186.22"/>
</g>
<!-- Formats&#45;&gt;Readers -->
<g id="edge44" class="edge">
<title>Formats&#45;&gt;Readers</title>
<path fill="none" stroke="black" d="M310.82,-331.78C311.32,-325.18 312.01,-315.88 312.64,-307.49"/>
<polygon fill="black" stroke="black" points="316.11,-308 313.37,-297.77 309.13,-307.48 316.11,-308"/>
</g>
<!-- Keys -->
<g id="node20" class="node">
<title>Keys</title>
<g id="a_node20"><a xlink:href="../keys.html" xlink:title="Keys" target="_top">
<polygon fill="none" stroke="white" points="340.32,-406.56 306,-406.56 306,-387.24 340.32,-387.24 340.32,-406.56"/>
<text xml:space="preserve" text-anchor="middle" x="323.16" y="-391.1" font-family="Sans-Serif" font-size="14.00">Keys</text>
</a>
</g>
</g>
<!-- Keys&#45;&gt;Formats -->
<g id="edge18" class="edge">
<title>Keys&#45;&gt;Formats</title>
<path fill="none" stroke="black" d="M321.01,-387.1C319.39,-380.42 317.08,-370.98 315.02,-362.51"/>
<polygon fill="black" stroke="black" points="318.48,-361.93 312.71,-353.05 311.68,-363.59 318.48,-361.93"/>
</g>
<!-- StorageTypes -->
<g id="node22" class="node">
<title>StorageTypes</title>
<g id="a_node22"><a xlink:href="../storage_types.html" xlink:title="StorageTypes" target="_top">
<polygon fill="none" stroke="white" points="305.32,-461.88 217,-461.88 217,-442.56 305.32,-442.56 305.32,-461.88"/>
<text xml:space="preserve" text-anchor="middle" x="261.16" y="-446.42" font-family="Sans-Serif" font-size="14.00">StorageTypes</text>
</a>
</g>
</g>
<!-- StorageTypes&#45;&gt;Registry -->
<g id="edge25" class="edge">
<title>StorageTypes&#45;&gt;Registry</title>
<path fill="none" stroke="black" d="M261.16,-442.42C261.16,-435.82 261.16,-426.52 261.16,-418.13"/>
<polygon fill="black" stroke="black" points="264.66,-418.41 261.16,-408.41 257.66,-418.41 264.66,-418.41"/>
</g>
</g>
</svg>
