<?xml version="1.0" encoding="UTF-8" standalone="no"?>
<!DOCTYPE svg PUBLIC "-//W3C//DTD SVG 1.1//EN"
 "http://www.w3.org/Graphics/SVG/1.1/DTD/svg11.dtd">
<!-- Generated by graphviz version 14.1.1 (20251213.1925)
 -->
<!-- Pages: 1 -->
<svg width="980pt" height="362pt"
 viewBox="0.00 0.00 980.00 362.00" xmlns="http://www.w3.org/2000/svg" xmlns:xlink="http://www.w3.org/1999/xlink">
<g id="graph0" class="graph" transform="scale(1 1) rotate(0) translate(4 358)">
<polygon fill="white" stroke="none" points="-4,4 -4,-358 975.64,-358 975.64,4 -4,4"/>
<g id="clust1" class="cluster">
<title>cluster_all</title>
<polygon fill="none" stroke="black" points="8,-8 8,-346 963.64,-346 963.64,-8 8,-8"/>
<text xml:space="preserve" text-anchor="middle" x="65.88" y="-315.4" font-family="Sans-Serif" font-size="28.00">NAMES</text>
</g>
<!-- EMPTY -->
<g id="node1" class="node">
<title>EMPTY</title>
<ellipse fill="black" stroke="black" cx="17.8" cy="-159" rx="1.8" ry="1.8"/>
</g>
<!-- N1 -->
<g id="node3" class="node">
<title>N1</title>
<polygon fill="none" stroke="black" stroke-dasharray="1,5" points="616.1,-73.75 55.6,-73.75 55.6,-16.25 616.1,-16.25 616.1,-73.75"/>
<text xml:space="preserve" text-anchor="start" x="207.97" y="-56.45" font-family="Courier,monospace" font-size="14.00">@ rows_axis @ columns_axis :: ?</text>
<text xml:space="preserve" text-anchor="start" x="331.72" y="-39.95" font-family="Courier,monospace" font-size="14.00"> </text>
<text xml:space="preserve" text-anchor="start" x="63.6" y="-23.45" font-family="Courier,monospace" font-size="14.00">Axis(rows_axis) |&gt; Axis(columns_axis) |&gt; LookupMatrix() |&gt; Names()</text>
</g>
<!-- EMPTY&#45;&gt;N1 -->
<g id="edge9" class="edge">
<title>EMPTY&#45;&gt;N1:w</title>
<path fill="none" stroke="black" d="M18.95,-157.39C20.12,-145.53 28,-71.71 45.74,-50.62"/>
<polygon fill="black" stroke="black" points="47.33,-53.74 54.29,-45.75 43.86,-47.66 47.33,-53.74"/>
</g>
<!-- N2 -->
<g id="node5" class="node">
<title>N2</title>
<polygon fill="none" stroke="black" stroke-dasharray="1,5" points="504.72,-149.75 166.97,-149.75 166.97,-92.25 504.72,-92.25 504.72,-149.75"/>
<text xml:space="preserve" text-anchor="start" x="294.6" y="-132.45" font-family="Courier,monospace" font-size="14.00">@ axis : ?</text>
<text xml:space="preserve" text-anchor="start" x="331.72" y="-115.95" font-family="Courier,monospace" font-size="14.00"> </text>
<text xml:space="preserve" text-anchor="start" x="174.97" y="-99.45" font-family="Courier,monospace" font-size="14.00">Axis(axis) |&gt; LookupVector() |&gt; Names()</text>
</g>
<!-- EMPTY&#45;&gt;N2 -->
<g id="edge10" class="edge">
<title>EMPTY&#45;&gt;N2:w</title>
<path fill="none" stroke="black" d="M19.95,-158.46C29.33,-154.12 94.53,-124.87 154.47,-121.35"/>
<polygon fill="black" stroke="black" points="154.57,-124.85 164.46,-121.05 154.36,-117.85 154.57,-124.85"/>
</g>
<!-- N3 -->
<g id="node7" class="node">
<title>N3</title>
<polygon fill="none" stroke="black" stroke-dasharray="1,5" points="413.97,-225.75 257.72,-225.75 257.72,-168.25 413.97,-168.25 413.97,-225.75"/>
<text xml:space="preserve" text-anchor="start" x="323.47" y="-208.45" font-family="Courier,monospace" font-size="14.00">@ ?</text>
<text xml:space="preserve" text-anchor="start" x="331.72" y="-191.95" font-family="Courier,monospace" font-size="14.00"> </text>
<text xml:space="preserve" text-anchor="start" x="265.72" y="-175.45" font-family="Courier,monospace" font-size="14.00">Axis() |&gt; Names()</text>
</g>
<!-- EMPTY&#45;&gt;N3 -->
<g id="edge11" class="edge">
<title>EMPTY&#45;&gt;N3:w</title>
<path fill="none" stroke="black" d="M19.65,-159.24C30.59,-162.36 145.64,-194.48 245.28,-196.86"/>
<polygon fill="black" stroke="black" points="245.17,-200.36 255.21,-196.98 245.25,-193.36 245.17,-200.36"/>
</g>
<!-- N4 -->
<g id="node9" class="node">
<title>N4</title>
<polygon fill="none" stroke="black" stroke-dasharray="1,5" points="446.97,-301.75 224.72,-301.75 224.72,-244.25 446.97,-244.25 446.97,-301.75"/>
<text xml:space="preserve" text-anchor="start" x="323.47" y="-284.45" font-family="Courier,monospace" font-size="14.00">. ?</text>
<text xml:space="preserve" text-anchor="start" x="331.72" y="-267.95" font-family="Courier,monospace" font-size="14.00"> </text>
<text xml:space="preserve" text-anchor="start" x="232.72" y="-251.45" font-family="Courier,monospace" font-size="14.00">LookupScalar() |&gt; Names()</text>
</g>
<!-- EMPTY&#45;&gt;N4 -->
<g id="edge12" class="edge">
<title>EMPTY&#45;&gt;N4:w</title>
<path fill="none" stroke="black" d="M19.08,-160.78C20.68,-170.17 29.42,-214.22 55.6,-235 112.55,-280.22 143.84,-273.83 212.39,-273.07"/>
<polygon fill="black" stroke="black" points="212.23,-276.57 222.21,-273.01 212.19,-269.57 212.23,-276.57"/>
</g>
<!-- NamesState -->
<g id="node2" class="node">
<title>NamesState</title>
<polygon fill="none" stroke="black" points="951.64,-150.54 951.64,-165.46 914.13,-176 861.1,-176 823.6,-165.46 823.6,-150.54 861.1,-140 914.13,-140 951.64,-150.54"/>
<polygon fill="none" stroke="black" points="955.64,-147.51 955.64,-168.49 914.69,-180 860.55,-180 819.6,-168.49 819.6,-147.51 860.55,-136 914.69,-136 955.64,-147.51"/>
<text xml:space="preserve" text-anchor="middle" x="887.62" y="-152.2" font-family="Sans-Serif" font-size="14.00">NamesState</text>
</g>
<!-- N1_ -->
<g id="node4" class="node">
<title>N1_</title>
<polygon fill="none" stroke="black" points="771.6,-70 652.1,-70 652.1,-46 771.6,-46 783.6,-58 771.6,-70"/>
<text xml:space="preserve" text-anchor="middle" x="717.85" y="-52.2" font-family="Sans-Serif" font-size="14.00">names of matrices </text>
</g>
<!-- N1&#45;&gt;N1_ -->
<g id="edge1" class="edge">
<title>N1:e&#45;&gt;N1_:w</title>
<path fill="none" stroke="black" d="M616.1,-45C628.46,-45 632.88,-51.86 640.9,-55.62"/>
<polygon fill="black" stroke="black" points="640.11,-59.03 650.62,-57.68 641.57,-52.18 640.11,-59.03"/>
</g>
<!-- N1_&#45;&gt;NamesState -->
<g id="edge2" class="edge">
<title>N1_:e&#45;&gt;NamesState</title>
<path fill="none" stroke="black" d="M783.6,-58C823.29,-58 853.46,-96.69 870.6,-125.93"/>
<polygon fill="black" stroke="black" points="867.44,-127.46 875.37,-134.49 873.55,-124.05 867.44,-127.46"/>
</g>
<!-- N2_ -->
<g id="node6" class="node">
<title>N2_</title>
<polygon fill="none" stroke="black" points="767.47,-138 656.22,-138 656.22,-114 767.47,-114 779.47,-126 767.47,-138"/>
<text xml:space="preserve" text-anchor="middle" x="717.85" y="-120.2" font-family="Sans-Serif" font-size="14.00">names of vectors </text>
</g>
<!-- N2&#45;&gt;N2_ -->
<g id="edge3" class="edge">
<title>N2:e&#45;&gt;N2_:w</title>
<path fill="none" stroke="black" d="M505.72,-121C568.2,-121 586.49,-125.43 643.79,-125.95"/>
<polygon fill="black" stroke="black" points="643.44,-129.45 653.45,-125.99 643.47,-122.45 643.44,-129.45"/>
</g>
<!-- N2_&#45;&gt;NamesState -->
<g id="edge4" class="edge">
<title>N2_:e&#45;&gt;NamesState</title>
<path fill="none" stroke="black" d="M780.73,-126C798.93,-126 818.16,-130.38 835.17,-135.91"/>
<polygon fill="black" stroke="black" points="833.96,-139.19 844.56,-139.17 836.26,-132.58 833.96,-139.19"/>
</g>
<!-- N3_ -->
<g id="node8" class="node">
<title>N3_</title>
<polygon fill="none" stroke="black" points="759.97,-203 663.72,-203 663.72,-179 759.97,-179 771.97,-191 759.97,-203"/>
<text xml:space="preserve" text-anchor="middle" x="717.85" y="-185.2" font-family="Sans-Serif" font-size="14.00">names of axes </text>
</g>
<!-- N3&#45;&gt;N3_ -->
<g id="edge5" class="edge">
<title>N3:e&#45;&gt;N3_:w</title>
<path fill="none" stroke="black" d="M414.97,-197C521.15,-197 550.42,-191.41 651.19,-191.02"/>
<polygon fill="black" stroke="black" points="650.99,-194.52 660.98,-191 650.98,-187.52 650.99,-194.52"/>
</g>
<!-- N3_&#45;&gt;NamesState -->
<g id="edge6" class="edge">
<title>N3_:e&#45;&gt;NamesState</title>
<path fill="none" stroke="black" d="M773.2,-191C793.69,-191 815.45,-185.98 834.38,-179.85"/>
<polygon fill="black" stroke="black" points="835.42,-183.19 843.74,-176.63 833.15,-176.57 835.42,-183.19"/>
</g>
<!-- N4_ -->
<g id="node10" class="node">
<title>N4_</title>
<polygon fill="none" stroke="black" points="767.1,-273 656.6,-273 656.6,-249 767.1,-249 779.1,-261 767.1,-273"/>
<text xml:space="preserve" text-anchor="middle" x="717.85" y="-255.2" font-family="Sans-Serif" font-size="14.00">names of scalars </text>
</g>
<!-- N4&#45;&gt;N4_ -->
<g id="edge7" class="edge">
<title>N4:e&#45;&gt;N4_:w</title>
<path fill="none" stroke="black" d="M447.97,-273C536.42,-273 560.99,-261.99 644.07,-261.06"/>
<polygon fill="black" stroke="black" points="643.85,-264.56 653.83,-261.01 643.81,-257.56 643.85,-264.56"/>
</g>
<!-- N4_&#45;&gt;NamesState -->
<g id="edge8" class="edge">
<title>N4_:e&#45;&gt;NamesState</title>
<path fill="none" stroke="black" d="M780.36,-261C821.68,-261 853.02,-220.35 870.61,-190.13"/>
<polygon fill="black" stroke="black" points="873.51,-192.11 875.31,-181.67 867.39,-188.71 873.51,-192.11"/>
</g>
</g>
</svg>
