<?xml version="1.0" encoding="UTF-8" standalone="no"?>
<!DOCTYPE svg PUBLIC "-//W3C//DTD SVG 1.1//EN"
 "http://www.w3.org/Graphics/SVG/1.1/DTD/svg11.dtd">
<!-- Generated by graphviz version 14.1.1 (20251213.1925)
 -->
<!-- Pages: 1 -->
<svg width="1381pt" height="675pt"
 viewBox="0.00 0.00 1381.00 675.00" xmlns="http://www.w3.org/2000/svg" xmlns:xlink="http://www.w3.org/1999/xlink">
<g id="graph0" class="graph" transform="scale(1 1) rotate(0) translate(4 671)">
<polygon fill="white" stroke="none" points="-4,4 -4,-671 1377.15,-671 1377.15,4 -4,4"/>
<g id="clust1" class="cluster">
<title>cluster_all</title>
<polygon fill="none" stroke="black" points="8,-8 8,-659 1365.15,-659 1365.15,-8 8,-8"/>
<text xml:space="preserve" text-anchor="middle" x="72.25" y="-628.4" font-family="Sans-Serif" font-size="28.00">SCALAR</text>
</g>
<!-- EMPTY -->
<g id="node1" class="node">
<title>EMPTY</title>
<ellipse fill="black" stroke="black" cx="59.25" cy="-252" rx="1.8" ry="1.8"/>
</g>
<!-- S5 -->
<g id="node11" class="node">
<title>S5</title>
<polygon fill="none" stroke="black" stroke-dasharray="1,5" points="472.12,-313.75 200.38,-313.75 200.38,-190.25 472.12,-190.25 472.12,-313.75"/>
<text xml:space="preserve" text-anchor="start" x="266.12" y="-296.45" font-family="Courier,monospace" font-size="14.00">: vector_property</text>
<text xml:space="preserve" text-anchor="start" x="270.25" y="-279.95" font-family="Courier,monospace" font-size="14.00" fill="gray">|| default_value</text>
<text xml:space="preserve" text-anchor="start" x="278.5" y="-263.45" font-family="Courier,monospace" font-size="14.00">@ axis = value</text>
<text xml:space="preserve" text-anchor="start" x="332.12" y="-246.95" font-family="Courier,monospace" font-size="14.00"> </text>
<text xml:space="preserve" text-anchor="start" x="216.62" y="-230.45" font-family="Courier,monospace" font-size="14.00">LookupVector(vector_property)</text>
<text xml:space="preserve" text-anchor="start" x="224.88" y="-213.95" font-family="Courier,monospace" font-size="14.00" fill="gray">|&gt; IfMissing(default_value)</text>
<text xml:space="preserve" text-anchor="start" x="208.38" y="-197.45" font-family="Courier,monospace" font-size="14.00">|&gt; Axis(axis) |&gt; IsEqual(value)</text>
</g>
<!-- EMPTY&#45;&gt;S5 -->
<g id="edge17" class="edge">
<title>EMPTY&#45;&gt;S5:w</title>
<path fill="none" stroke="black" d="M61.36,-252C70.42,-252 133.01,-252 188.11,-252"/>
<polygon fill="black" stroke="black" points="187.86,-255.5 197.86,-252 187.86,-248.5 187.86,-255.5"/>
</g>
<!-- S6 -->
<g id="node13" class="node">
<title>S6</title>
<polygon fill="none" stroke="black" stroke-dasharray="1,5" points="463.88,-422.25 208.62,-422.25 208.62,-331.75 463.88,-331.75 463.88,-422.25"/>
<text xml:space="preserve" text-anchor="start" x="266.12" y="-404.95" font-family="Courier,monospace" font-size="14.00">. scalar_property</text>
<text xml:space="preserve" text-anchor="start" x="270.25" y="-388.45" font-family="Courier,monospace" font-size="14.00" fill="gray">|| default_value</text>
<text xml:space="preserve" text-anchor="start" x="332.12" y="-371.95" font-family="Courier,monospace" font-size="14.00"> </text>
<text xml:space="preserve" text-anchor="start" x="216.62" y="-355.45" font-family="Courier,monospace" font-size="14.00">LookupScalar(scalar_property)</text>
<text xml:space="preserve" text-anchor="start" x="224.88" y="-338.95" font-family="Courier,monospace" font-size="14.00" fill="gray">|&gt; IfMissing(default_value)</text>
</g>
<!-- EMPTY&#45;&gt;S6 -->
<g id="edge18" class="edge">
<title>EMPTY&#45;&gt;S6:w</title>
<path fill="none" stroke="black" d="M60.96,-253.4C67.7,-266.49 121.68,-366.91 196.45,-376.3"/>
<polygon fill="black" stroke="black" points="195.91,-379.77 206.11,-376.9 196.35,-372.78 195.91,-379.77"/>
</g>
<!-- S4 -->
<g id="node15" class="node">
<title>S4</title>
<polygon fill="none" stroke="black" stroke-dasharray="1,5" points="534,-172.25 138.5,-172.25 138.5,-15.75 534,-15.75 534,-172.25"/>
<text xml:space="preserve" text-anchor="start" x="262" y="-154.95" font-family="Courier,monospace" font-size="14.00">:: matrix_property</text>
<text xml:space="preserve" text-anchor="start" x="270.25" y="-138.45" font-family="Courier,monospace" font-size="14.00" fill="gray">|| default_value</text>
<text xml:space="preserve" text-anchor="start" x="245.5" y="-121.95" font-family="Courier,monospace" font-size="14.00">@ row_axis = row_value</text>
<text xml:space="preserve" text-anchor="start" x="224.88" y="-105.45" font-family="Courier,monospace" font-size="14.00">@ column_axis =column_value</text>
<text xml:space="preserve" text-anchor="start" x="332.12" y="-88.95" font-family="Courier,monospace" font-size="14.00"> </text>
<text xml:space="preserve" text-anchor="start" x="216.62" y="-72.45" font-family="Courier,monospace" font-size="14.00">LookupMatrix(matrix_property)</text>
<text xml:space="preserve" text-anchor="start" x="224.88" y="-55.95" font-family="Courier,monospace" font-size="14.00" fill="gray">|&gt; IfMissing(default_value)</text>
<text xml:space="preserve" text-anchor="start" x="171.25" y="-39.45" font-family="Courier,monospace" font-size="14.00">|&gt; Axis(rows_axis) |&gt; IsEqual(row_value)</text>
<text xml:space="preserve" text-anchor="start" x="146.5" y="-22.95" font-family="Courier,monospace" font-size="14.00">|&gt; Axis(columns_axis) |&gt; IsEqual(column_value)</text>
</g>
<!-- EMPTY&#45;&gt;S4 -->
<g id="edge16" class="edge">
<title>EMPTY&#45;&gt;S4:w</title>
<path fill="none" stroke="black" d="M60.27,-250C60.56,-232.71 64.83,-108.71 127.1,-95.19"/>
<polygon fill="black" stroke="black" points="127.41,-98.68 136.99,-94.16 126.68,-91.72 127.41,-98.68"/>
</g>
<!-- VectorState -->
<g id="node2" class="node">
<title>VectorState</title>
<polygon fill="none" stroke="black" points="102.5,-497 16,-497 16,-461 102.5,-461 102.5,-497"/>
<text xml:space="preserve" text-anchor="middle" x="59.25" y="-473.2" font-family="Sans-Serif" font-size="14.00">VectorState</text>
</g>
<!-- S3 -->
<g id="node9" class="node">
<title>S3</title>
<polygon fill="none" stroke="black" stroke-dasharray="1,5" points="463.88,-518 208.62,-518 208.62,-440 463.88,-440 463.88,-518"/>
<text xml:space="preserve" text-anchor="start" x="220.75" y="-501.7" font-family="Courier,monospace" font-size="14.00">&gt;&gt; Reduction </text>
<text xml:space="preserve" text-anchor="start" x="328" y="-501.7" font-family="Courier,monospace" font-size="14.00" fill="gray">param value ...</text>
<text xml:space="preserve" text-anchor="start" x="270.25" y="-487.7" font-family="Courier,monospace" font-size="14.00" fill="gray">|| default_value</text>
<text xml:space="preserve" text-anchor="start" x="332.12" y="-473.7" font-family="Courier,monospace" font-size="14.00"> </text>
<text xml:space="preserve" text-anchor="start" x="216.62" y="-459.7" font-family="Courier,monospace" font-size="14.00">Reduction(</text>
<text xml:space="preserve" text-anchor="start" x="299.12" y="-459.7" font-family="Courier,monospace" font-size="14.00" fill="gray">param = value, ...</text>
<text xml:space="preserve" text-anchor="start" x="447.62" y="-459.7" font-family="Courier,monospace" font-size="14.00">)</text>
<text xml:space="preserve" text-anchor="start" x="224.88" y="-445.7" font-family="Courier,monospace" font-size="14.00" fill="gray">|&gt; IfMissing(default_value)</text>
</g>
<!-- VectorState&#45;&gt;S3 -->
<g id="edge15" class="edge">
<title>VectorState&#45;&gt;S3:w</title>
<path fill="none" stroke="black" d="M102.81,-479C129.14,-479 163.98,-479 196.31,-479"/>
<polygon fill="black" stroke="black" points="196.11,-482.5 206.11,-479 196.11,-475.5 196.11,-482.5"/>
</g>
<!-- MatrixState -->
<g id="node3" class="node">
<title>MatrixState</title>
<polygon fill="none" stroke="black" points="101.75,-593 16.75,-593 16.75,-557 101.75,-557 101.75,-593"/>
<text xml:space="preserve" text-anchor="middle" x="59.25" y="-569.2" font-family="Sans-Serif" font-size="14.00">MatrixState</text>
</g>
<!-- S2 -->
<g id="node7" class="node">
<title>S2</title>
<polygon fill="none" stroke="black" stroke-dasharray="1,5" points="463.88,-614 208.62,-614 208.62,-536 463.88,-536 463.88,-614"/>
<text xml:space="preserve" text-anchor="start" x="237.25" y="-597.7" font-family="Courier,monospace" font-size="14.00">&gt;&gt; Reduction </text>
<text xml:space="preserve" text-anchor="start" x="344.5" y="-597.7" font-family="Courier,monospace" font-size="14.00" fill="gray">param value</text>
<text xml:space="preserve" text-anchor="start" x="270.25" y="-583.7" font-family="Courier,monospace" font-size="14.00" fill="gray">|| default_value</text>
<text xml:space="preserve" text-anchor="start" x="332.12" y="-569.7" font-family="Courier,monospace" font-size="14.00"> </text>
<text xml:space="preserve" text-anchor="start" x="216.62" y="-555.7" font-family="Courier,monospace" font-size="14.00">Reduction(</text>
<text xml:space="preserve" text-anchor="start" x="299.12" y="-555.7" font-family="Courier,monospace" font-size="14.00" fill="gray">param = value, ...</text>
<text xml:space="preserve" text-anchor="start" x="447.62" y="-555.7" font-family="Courier,monospace" font-size="14.00">)</text>
<text xml:space="preserve" text-anchor="start" x="224.88" y="-541.7" font-family="Courier,monospace" font-size="14.00" fill="gray">|&gt; IfMissing(default_value)</text>
</g>
<!-- MatrixState&#45;&gt;S2 -->
<g id="edge14" class="edge">
<title>MatrixState&#45;&gt;S2:w</title>
<path fill="none" stroke="black" d="M102.18,-575C128.56,-575 163.66,-575 196.23,-575"/>
<polygon fill="black" stroke="black" points="196.11,-578.5 206.11,-575 196.11,-571.5 196.11,-578.5"/>
</g>
<!-- ScalarState -->
<g id="node4" class="node">
<title>ScalarState</title>
<polygon fill="none" stroke="black" points="887.65,-369.54 887.65,-384.46 852.31,-395 802.34,-395 767,-384.46 767,-369.54 802.34,-359 852.31,-359 887.65,-369.54"/>
<polygon fill="none" stroke="black" points="891.65,-366.56 891.65,-387.44 852.9,-399 801.75,-399 763,-387.44 763,-366.56 801.75,-355 852.9,-355 891.65,-366.56"/>
<text xml:space="preserve" text-anchor="middle" x="827.32" y="-371.2" font-family="Sans-Serif" font-size="14.00">ScalarState</text>
</g>
<!-- S1 -->
<g id="node5" class="node">
<title>S1</title>
<polygon fill="none" stroke="black" stroke-dasharray="1,5" points="1166.4,-424 927.65,-424 927.65,-374 1166.4,-374 1166.4,-424"/>
<text xml:space="preserve" text-anchor="start" x="943.9" y="-407.7" font-family="Courier,monospace" font-size="14.00">% Eltwise </text>
<text xml:space="preserve" text-anchor="start" x="1026.4" y="-407.7" font-family="Courier,monospace" font-size="14.00" fill="gray">param value ...</text>
<text xml:space="preserve" text-anchor="start" x="1042.9" y="-393.7" font-family="Courier,monospace" font-size="14.00"> </text>
<text xml:space="preserve" text-anchor="start" x="935.65" y="-379.7" font-family="Courier,monospace" font-size="14.00">Eltwise(</text>
<text xml:space="preserve" text-anchor="start" x="1001.65" y="-379.7" font-family="Courier,monospace" font-size="14.00" fill="gray">param = value, ...</text>
<text xml:space="preserve" text-anchor="start" x="1150.15" y="-379.7" font-family="Courier,monospace" font-size="14.00">)</text>
</g>
<!-- ScalarState&#45;&gt;S1 -->
<g id="edge1" class="edge">
<title>ScalarState&#45;&gt;S1:w</title>
<path fill="none" stroke="black" d="M877.11,-392.22C889.44,-395.15 902.95,-397.6 916.15,-398.56"/>
<polygon fill="black" stroke="black" points="916.01,-402.06 926.14,-398.94 916.28,-395.07 916.01,-402.06"/>
</g>
<!-- S1_ -->
<g id="node6" class="node">
<title>S1_</title>
<polygon fill="none" stroke="black" points="1345.15,-398 1202.4,-398 1202.4,-374 1345.15,-374 1357.15,-386 1345.15,-398"/>
<text xml:space="preserve" text-anchor="middle" x="1279.77" y="-380.2" font-family="Sans-Serif" font-size="14.00">element&#45;wise of scalar </text>
</g>
<!-- S1&#45;&gt;S1_ -->
<g id="edge2" class="edge">
<title>S1:e&#45;&gt;S1_:w</title>
<path fill="none" stroke="black" d="M1166.4,-399C1178.76,-399 1183.18,-392.14 1191.2,-388.38"/>
<polygon fill="black" stroke="black" points="1191.87,-391.82 1200.92,-386.32 1190.41,-384.97 1191.87,-391.82"/>
</g>
<!-- S1_&#45;&gt;ScalarState -->
<g id="edge3" class="edge">
<title>S1_:se&#45;&gt;ScalarState</title>
<path fill="none" stroke="black" d="M1299.21,-367.57C1416.93,-249.84 1049.51,-325.35 894.2,-361.19"/>
<polygon fill="black" stroke="black" points="893.82,-357.68 884.87,-363.35 895.4,-364.5 893.82,-357.68"/>
</g>
<!-- S2_ -->
<g id="node8" class="node">
<title>S2_</title>
<polygon fill="none" stroke="black" points="715,-554 570,-554 570,-530 715,-530 727,-542 715,-554"/>
<text xml:space="preserve" text-anchor="middle" x="648.5" y="-536.2" font-family="Sans-Serif" font-size="14.00">reduce matrix to scalar </text>
</g>
<!-- S2&#45;&gt;S2_ -->
<g id="edge4" class="edge">
<title>S2:e&#45;&gt;S2_:w</title>
<path fill="none" stroke="black" d="M464.88,-575C509.83,-575 519.57,-547.19 558.75,-542.63"/>
<polygon fill="black" stroke="black" points="558.7,-546.14 568.49,-542.08 558.31,-539.15 558.7,-546.14"/>
</g>
<!-- S2_&#45;&gt;ScalarState -->
<g id="edge5" class="edge">
<title>S2_:e&#45;&gt;ScalarState</title>
<path fill="none" stroke="black" d="M727,-542C787.85,-542 812.38,-458.61 821.48,-410.39"/>
<polygon fill="black" stroke="black" points="824.89,-411.2 823.16,-400.74 818,-409.99 824.89,-411.2"/>
</g>
<!-- S3_ -->
<g id="node10" class="node">
<title>S3_</title>
<polygon fill="none" stroke="black" points="714.62,-467 570.38,-467 570.38,-443 714.62,-443 726.62,-455 714.62,-467"/>
<text xml:space="preserve" text-anchor="middle" x="648.5" y="-449.2" font-family="Sans-Serif" font-size="14.00">reduce vector to scalar </text>
</g>
<!-- S3&#45;&gt;S3_ -->
<g id="edge6" class="edge">
<title>S3:e&#45;&gt;S3_:w</title>
<path fill="none" stroke="black" d="M464.88,-479C508.87,-479 520.29,-458.78 558.94,-455.46"/>
<polygon fill="black" stroke="black" points="558.64,-458.97 568.49,-455.06 558.35,-451.98 558.64,-458.97"/>
</g>
<!-- S3_&#45;&gt;ScalarState -->
<g id="edge7" class="edge">
<title>S3_:e&#45;&gt;ScalarState</title>
<path fill="none" stroke="black" d="M727,-455C758.85,-455 786.53,-429.89 804.52,-408.16"/>
<polygon fill="black" stroke="black" points="807.25,-410.35 810.69,-400.33 801.75,-406.02 807.25,-410.35"/>
</g>
<!-- S5_ -->
<g id="node12" class="node">
<title>S5_</title>
<polygon fill="none" stroke="black" points="703.38,-299 581.62,-299 581.62,-275 703.38,-275 715.38,-287 703.38,-299"/>
<text xml:space="preserve" text-anchor="middle" x="648.5" y="-281.2" font-family="Sans-Serif" font-size="14.00">lookup vector entry </text>
</g>
<!-- S5&#45;&gt;S5_ -->
<g id="edge8" class="edge">
<title>S5:e&#45;&gt;S5_:w</title>
<path fill="none" stroke="black" d="M473.12,-252C519.24,-252 528.82,-281.62 569.09,-286.36"/>
<polygon fill="black" stroke="black" points="568.65,-289.84 578.83,-286.91 569.05,-282.85 568.65,-289.84"/>
</g>
<!-- S5_&#45;&gt;ScalarState -->
<g id="edge9" class="edge">
<title>S5_:e&#45;&gt;ScalarState</title>
<path fill="none" stroke="black" d="M716.66,-287C754.61,-287 786.6,-319.6 806.06,-345.56"/>
<polygon fill="black" stroke="black" points="803.1,-347.44 811.77,-353.52 808.79,-343.36 803.1,-347.44"/>
</g>
<!-- S6_ -->
<g id="node14" class="node">
<title>S6_</title>
<polygon fill="none" stroke="black" points="686.12,-389 598.88,-389 598.88,-365 686.12,-365 698.12,-377 686.12,-389"/>
<text xml:space="preserve" text-anchor="middle" x="648.5" y="-371.2" font-family="Sans-Serif" font-size="14.00">lookup scalar </text>
</g>
<!-- S6&#45;&gt;S6_ -->
<g id="edge10" class="edge">
<title>S6:e&#45;&gt;S6_:w</title>
<path fill="none" stroke="black" d="M464.88,-377C519.75,-377 536.29,-377 585.92,-377"/>
<polygon fill="black" stroke="black" points="585.9,-380.5 595.9,-377 585.9,-373.5 585.9,-380.5"/>
</g>
<!-- S6_&#45;&gt;ScalarState -->
<g id="edge11" class="edge">
<title>S6_:e&#45;&gt;ScalarState</title>
<path fill="none" stroke="black" d="M699.59,-377C716.38,-377 734.41,-377 751.46,-377"/>
<polygon fill="black" stroke="black" points="750.99,-380.5 760.99,-377 750.99,-373.5 750.99,-380.5"/>
</g>
<!-- S4_ -->
<g id="node16" class="node">
<title>S4_</title>
<polygon fill="none" stroke="black" points="703.75,-158 581.25,-158 581.25,-134 703.75,-134 715.75,-146 703.75,-158"/>
<text xml:space="preserve" text-anchor="middle" x="648.5" y="-140.2" font-family="Sans-Serif" font-size="14.00">lookup matrix entry </text>
</g>
<!-- S4&#45;&gt;S4_ -->
<g id="edge12" class="edge">
<title>S4:e&#45;&gt;S4_:w</title>
<path fill="none" stroke="black" d="M534,-94C560.27,-94 552.76,-131.71 569,-142.9"/>
<polygon fill="black" stroke="black" points="567.94,-146.24 578.51,-145.59 569.84,-139.5 567.94,-146.24"/>
</g>
<!-- S4_&#45;&gt;ScalarState -->
<g id="edge13" class="edge">
<title>S4_:e&#45;&gt;ScalarState</title>
<path fill="none" stroke="black" d="M717.03,-146C803.31,-146 821.58,-279.3 825.37,-343.38"/>
<polygon fill="black" stroke="black" points="821.87,-343.52 825.86,-353.34 828.87,-343.18 821.87,-343.52"/>
</g>
</g>
</svg>
