<?xml version="1.0" encoding="UTF-8" standalone="no"?>
<!DOCTYPE svg PUBLIC "-//W3C//DTD SVG 1.1//EN"
 "http://www.w3.org/Graphics/SVG/1.1/DTD/svg11.dtd">
<!-- Generated by graphviz version 14.1.1 (20251213.1925)
 -->
<!-- Pages: 1 -->
<svg width="1077pt" height="483pt"
 viewBox="0.00 0.00 1077.00 483.00" xmlns="http://www.w3.org/2000/svg" xmlns:xlink="http://www.w3.org/1999/xlink">
<g id="graph0" class="graph" transform="scale(1 1) rotate(0) translate(4 479)">
<polygon fill="white" stroke="none" points="-4,4 -4,-479 1073.25,-479 1073.25,4 -4,4"/>
<g id="clust1" class="cluster">
<title>cluster_all</title>
<polygon fill="none" stroke="black" points="189.5,-8 189.5,-467 884.25,-467 884.25,-8 189.5,-8"/>
<text xml:space="preserve" text-anchor="middle" x="340.75" y="-436.4" font-family="Sans-Serif" font-size="28.00">VECTOR OPERATION</text>
</g>
<!-- Vector_base_values -->
<g id="node1" class="node">
<title>Vector_base_values</title>
<polygon fill="none" stroke="black" points="161.5,-307 0,-307 0,-271 161.5,-271 161.5,-307"/>
<text xml:space="preserve" text-anchor="start" x="8" y="-290.7" font-family="Sans-Serif" font-size="14.00"> VectorState</text>
<text xml:space="preserve" text-anchor="start" x="82.25" y="-290.7" font-family="Sans-Serif" font-style="italic" baseline-shift="sub" font-size="14.00">base values</text>
<text xml:space="preserve" text-anchor="start" x="146" y="-290.7" font-family="Sans-Serif" font-size="14.00">  </text>
<text xml:space="preserve" text-anchor="start" x="78.88" y="-276.7" font-family="Sans-Serif" font-size="14.00"> </text>
</g>
<!-- VO1 -->
<g id="node3" class="node">
<title>VO1</title>
<polygon fill="none" stroke="black" stroke-dasharray="1,5" points="470,-314 231.25,-314 231.25,-264 470,-264 470,-314"/>
<text xml:space="preserve" text-anchor="start" x="247.5" y="-297.7" font-family="Courier,monospace" font-size="14.00">% Eltwise </text>
<text xml:space="preserve" text-anchor="start" x="330" y="-297.7" font-family="Courier,monospace" font-size="14.00" fill="gray">param value ...</text>
<text xml:space="preserve" text-anchor="start" x="346.5" y="-283.7" font-family="Courier,monospace" font-size="14.00"> </text>
<text xml:space="preserve" text-anchor="start" x="239.25" y="-269.7" font-family="Courier,monospace" font-size="14.00">Eltwise(</text>
<text xml:space="preserve" text-anchor="start" x="305.25" y="-269.7" font-family="Courier,monospace" font-size="14.00" fill="gray">param = value, ...</text>
<text xml:space="preserve" text-anchor="start" x="453.75" y="-269.7" font-family="Courier,monospace" font-size="14.00">)</text>
</g>
<!-- Vector_base_values&#45;&gt;VO1 -->
<g id="edge10" class="edge">
<title>Vector_base_values&#45;&gt;VO1:w</title>
<path fill="none" stroke="black" d="M161.9,-289C180.32,-289 200.06,-289 218.94,-289"/>
<polygon fill="black" stroke="black" points="218.74,-292.5 228.74,-289 218.74,-285.5 218.74,-292.5"/>
</g>
<!-- VO2 -->
<g id="node5" class="node">
<title>VO2</title>
<polygon fill="none" stroke="black" stroke-dasharray="1,5" points="503.75,-246 197.5,-246 197.5,-70 503.75,-70 503.75,-246"/>
<text xml:space="preserve" text-anchor="start" x="205.5" y="-229.7" font-family="Courier,monospace" font-size="14.00">&lt;</text>
<text xml:space="preserve" text-anchor="start" x="213.75" y="-229.7" font-family="Courier,monospace" font-style="italic" baseline-shift="sub" font-size="14.00">or </text>
<text xml:space="preserve" text-anchor="start" x="234" y="-229.7" font-family="Courier,monospace" font-size="14.00">&lt;=</text>
<text xml:space="preserve" text-anchor="start" x="250.5" y="-229.7" font-family="Courier,monospace" font-style="italic" baseline-shift="sub" font-size="14.00">or </text>
<text xml:space="preserve" text-anchor="start" x="270.75" y="-229.7" font-family="Courier,monospace" font-size="14.00">=</text>
<text xml:space="preserve" text-anchor="start" x="279" y="-229.7" font-family="Courier,monospace" font-style="italic" baseline-shift="sub" font-size="14.00">or </text>
<text xml:space="preserve" text-anchor="start" x="299.25" y="-229.7" font-family="Courier,monospace" font-size="14.00">!=</text>
<text xml:space="preserve" text-anchor="start" x="315.75" y="-229.7" font-family="Courier,monospace" font-style="italic" baseline-shift="sub" font-size="14.00">or </text>
<text xml:space="preserve" text-anchor="start" x="336" y="-229.7" font-family="Courier,monospace" font-size="14.00">&gt;=</text>
<text xml:space="preserve" text-anchor="start" x="352.5" y="-229.7" font-family="Courier,monospace" font-style="italic" baseline-shift="sub" font-size="14.00">or </text>
<text xml:space="preserve" text-anchor="start" x="372.75" y="-229.7" font-family="Courier,monospace" font-size="14.00">&gt;</text>
<text xml:space="preserve" text-anchor="start" x="381" y="-229.7" font-family="Courier,monospace" font-style="italic" baseline-shift="sub" font-size="14.00">or </text>
<text xml:space="preserve" text-anchor="start" x="401.25" y="-229.7" font-family="Courier,monospace" font-size="14.00">~</text>
<text xml:space="preserve" text-anchor="start" x="409.5" y="-229.7" font-family="Courier,monospace" font-style="italic" baseline-shift="sub" font-size="14.00">or </text>
<text xml:space="preserve" text-anchor="start" x="429.75" y="-229.7" font-family="Courier,monospace" font-size="14.00">!~ value</text>
<text xml:space="preserve" text-anchor="start" x="346.5" y="-215.7" font-family="Courier,monospace" font-size="14.00"> </text>
<text xml:space="preserve" text-anchor="start" x="346.5" y="-201.7" font-family="Courier,monospace" font-size="14.00"> </text>
<text xml:space="preserve" text-anchor="start" x="267" y="-187.7" font-family="Courier,monospace" font-size="14.00">IsLess</text>
<text xml:space="preserve" text-anchor="start" x="316.5" y="-187.7" font-family="Courier,monospace" font-style="italic" baseline-shift="sub" font-size="14.00">or</text>
<text xml:space="preserve" text-anchor="start" x="330" y="-187.7" font-family="Courier,monospace" font-size="14.00">IsLessEqual</text>
<text xml:space="preserve" text-anchor="start" x="420.75" y="-187.7" font-family="Courier,monospace" font-style="italic" baseline-shift="sub" font-size="14.00">or</text>
<text xml:space="preserve" text-anchor="start" x="346.5" y="-173.7" font-family="Courier,monospace" font-size="14.00"> </text>
<text xml:space="preserve" text-anchor="start" x="267" y="-159.7" font-family="Courier,monospace" font-size="14.00">IsEqual</text>
<text xml:space="preserve" text-anchor="start" x="324.75" y="-159.7" font-family="Courier,monospace" font-style="italic" baseline-shift="sub" font-size="14.00">or</text>
<text xml:space="preserve" text-anchor="start" x="338.25" y="-159.7" font-family="Courier,monospace" font-size="14.00">IsNotEqual</text>
<text xml:space="preserve" text-anchor="start" x="420.75" y="-159.7" font-family="Courier,monospace" font-style="italic" baseline-shift="sub" font-size="14.00">or</text>
<text xml:space="preserve" text-anchor="start" x="346.5" y="-145.7" font-family="Courier,monospace" font-size="14.00"> </text>
<text xml:space="preserve" text-anchor="start" x="242.25" y="-131.7" font-family="Courier,monospace" font-size="14.00">IsGreaterEqual</text>
<text xml:space="preserve" text-anchor="start" x="357.75" y="-131.7" font-family="Courier,monospace" font-style="italic" baseline-shift="sub" font-size="14.00">or</text>
<text xml:space="preserve" text-anchor="start" x="371.25" y="-131.7" font-family="Courier,monospace" font-size="14.00">IsGreater</text>
<text xml:space="preserve" text-anchor="start" x="445.5" y="-131.7" font-family="Courier,monospace" font-style="italic" baseline-shift="sub" font-size="14.00">or</text>
<text xml:space="preserve" text-anchor="start" x="346.5" y="-117.7" font-family="Courier,monospace" font-size="14.00"> </text>
<text xml:space="preserve" text-anchor="start" x="273.75" y="-103.7" font-family="Courier,monospace" font-size="14.00">IsMatch</text>
<text xml:space="preserve" text-anchor="start" x="331.5" y="-103.7" font-family="Courier,monospace" font-style="italic" baseline-shift="sub" font-size="14.00">or</text>
<text xml:space="preserve" text-anchor="start" x="345" y="-103.7" font-family="Courier,monospace" font-size="14.00">IsNotMatch</text>
<text xml:space="preserve" text-anchor="start" x="346.5" y="-89.7" font-family="Courier,monospace" font-size="14.00"> </text>
<text xml:space="preserve" text-anchor="start" x="321.75" y="-75.7" font-family="Courier,monospace" font-size="14.00">(value)</text>
</g>
<!-- Vector_base_values&#45;&gt;VO2 -->
<g id="edge11" class="edge">
<title>Vector_base_values&#45;&gt;VO2:w</title>
<path fill="none" stroke="black" d="M88.04,-270.51C100.74,-236.8 132.74,-167.97 185.03,-158.98"/>
<polygon fill="black" stroke="black" points="185.32,-162.46 194.99,-158.13 184.73,-155.49 185.32,-162.46"/>
</g>
<!-- VO3_ -->
<g id="node7" class="node">
<title>VO3_</title>
<g id="a_node7"><a xlink:href="#../DataAxesFormats.Queries.VECTOR_GROUP" xlink:title="VECTOR GROUP  ">
<polygon fill="none" stroke="black" points="417.88,-52 283.38,-52 283.38,-48 279.38,-48 279.38,-44 283.38,-44 283.38,-24 279.38,-24 279.38,-20 283.38,-20 283.38,-16 417.88,-16 417.88,-52"/>
<polyline fill="none" stroke="black" points="283.38,-48 287.38,-48 287.38,-44 283.38,-44"/>
<polyline fill="none" stroke="black" points="283.38,-24 287.38,-24 287.38,-20 283.38,-20"/>
<text xml:space="preserve" text-anchor="middle" x="350.62" y="-28.2" font-family="Sans-Serif" font-size="14.00">VECTOR GROUP  </text>
</a>
</g>
</g>
<!-- Vector_base_values&#45;&gt;VO3_ -->
<g id="edge12" class="edge">
<title>Vector_base_values&#45;&gt;VO3_:w</title>
<path fill="none" stroke="black" d="M85.13,-270.51C94.03,-227.18 122.23,-118.41 189.5,-61 219.05,-35.78 235.88,-34.1 270.68,-34"/>
<polygon fill="black" stroke="black" points="270.58,-37.5 280.58,-34 270.58,-30.5 270.58,-37.5"/>
</g>
<!-- VO4 -->
<g id="node8" class="node">
<title>VO4</title>
<g id="a_node8"><a xlink:href="#../DataAxesFormats.Queries.VECTOR_AS_AXIS" xlink:title="VECTOR AS AXIS">
<polygon fill="none" stroke="black" points="414.88,-422 286.38,-422 286.38,-418 282.38,-418 282.38,-414 286.38,-414 286.38,-394 282.38,-394 282.38,-390 286.38,-390 286.38,-386 414.88,-386 414.88,-422"/>
<polyline fill="none" stroke="black" points="286.38,-418 290.38,-418 290.38,-414 286.38,-414"/>
<polyline fill="none" stroke="black" points="286.38,-394 290.38,-394 290.38,-390 286.38,-390"/>
<text xml:space="preserve" text-anchor="middle" x="350.62" y="-398.2" font-family="Sans-Serif" font-size="14.00">VECTOR AS AXIS</text>
</a>
</g>
</g>
<!-- Vector_base_values&#45;&gt;VO4 -->
<g id="edge13" class="edge">
<title>Vector_base_values&#45;&gt;VO4:w</title>
<path fill="none" stroke="black" d="M99.52,-307.48C119.61,-327.36 154.15,-358.6 189.5,-377 225.14,-395.56 238.53,-402.7 273.93,-403.83"/>
<polygon fill="black" stroke="black" points="273.54,-407.33 283.59,-403.98 273.64,-400.33 273.54,-407.33"/>
</g>
<!-- VO5_ -->
<g id="node9" class="node">
<title>VO5_</title>
<polygon fill="none" stroke="black" points="446.38,-362 242.88,-362 242.88,-338 446.38,-338 458.38,-350 446.38,-362"/>
<text xml:space="preserve" text-anchor="start" x="250.88" y="-351.7" font-family="Sans-Serif" font-size="14.00">vector property is an axis</text>
<text xml:space="preserve" text-anchor="start" x="400.88" y="-351.7" font-family="Sans-Serif" font-style="italic" baseline-shift="sub" font-size="14.00">implicit</text>
<text xml:space="preserve" text-anchor="start" x="435.38" y="-351.7" font-family="Sans-Serif" font-size="14.00">    </text>
<text xml:space="preserve" text-anchor="start" x="348.75" y="-337.7" font-family="Sans-Serif" font-size="14.00"> </text>
</g>
<!-- Vector_base_values&#45;&gt;VO5_ -->
<g id="edge14" class="edge">
<title>Vector_base_values&#45;&gt;VO5_:w</title>
<path fill="none" stroke="black" d="M110.79,-307.47C139.43,-324.02 185.3,-346.2 230.07,-349.56"/>
<polygon fill="black" stroke="black" points="229.78,-353.06 239.91,-349.94 230.05,-346.06 229.78,-353.06"/>
</g>
<!-- Vector_final_values -->
<g id="node2" class="node">
<title>Vector_final_values</title>
<polygon fill="none" stroke="black" points="1069.25,-216 912.25,-216 912.25,-180 1069.25,-180 1069.25,-216"/>
<text xml:space="preserve" text-anchor="start" x="920.25" y="-199.7" font-family="Sans-Serif" font-size="14.00"> VectorState</text>
<text xml:space="preserve" text-anchor="start" x="994.5" y="-199.7" font-family="Sans-Serif" font-style="italic" baseline-shift="sub" font-size="14.00">final values</text>
<text xml:space="preserve" text-anchor="start" x="1053.75" y="-199.7" font-family="Sans-Serif" font-size="14.00">  </text>
<text xml:space="preserve" text-anchor="start" x="988.88" y="-185.7" font-family="Sans-Serif" font-size="14.00"> </text>
</g>
<!-- VO1_ -->
<g id="node4" class="node">
<title>VO1_</title>
<polygon fill="none" stroke="black" points="687,-263 539.75,-263 539.75,-239 687,-239 699,-251 687,-263"/>
<text xml:space="preserve" text-anchor="middle" x="619.38" y="-245.2" font-family="Sans-Serif" font-size="14.00">element&#45;wise of vector  </text>
</g>
<!-- VO1&#45;&gt;VO1_ -->
<g id="edge1" class="edge">
<title>VO1:e&#45;&gt;VO1_:w</title>
<path fill="none" stroke="black" d="M471,-289C501.68,-289 504.57,-259.65 528.52,-252.54"/>
<polygon fill="black" stroke="black" points="528.82,-256.03 538.25,-251.21 527.87,-249.09 528.82,-256.03"/>
</g>
<!-- VO1_&#45;&gt;Vector_final_values -->
<g id="edge6" class="edge">
<title>VO1_:e&#45;&gt;Vector_final_values</title>
<path fill="none" stroke="black" d="M699,-251C773.35,-251 856.69,-234.02 915.02,-219.28"/>
<polygon fill="black" stroke="black" points="915.7,-222.72 924.51,-216.84 913.95,-215.94 915.7,-222.72"/>
</g>
<!-- VO2_ -->
<g id="node6" class="node">
<title>VO2_</title>
<polygon fill="none" stroke="black" points="666,-177 560.75,-177 560.75,-153 666,-153 678,-165 666,-177"/>
<text xml:space="preserve" text-anchor="middle" x="619.38" y="-159.2" font-family="Sans-Serif" font-size="14.00">compare vector  </text>
</g>
<!-- VO2&#45;&gt;VO2_ -->
<g id="edge2" class="edge">
<title>VO2:e&#45;&gt;VO2_:w</title>
<path fill="none" stroke="black" d="M503.75,-158C524.43,-158 531.97,-162.8 548.13,-164.45"/>
<polygon fill="black" stroke="black" points="547.83,-167.94 557.99,-164.93 548.17,-160.95 547.83,-167.94"/>
</g>
<!-- VO2_&#45;&gt;Vector_final_values -->
<g id="edge7" class="edge">
<title>VO2_:e&#45;&gt;Vector_final_values</title>
<path fill="none" stroke="black" d="M679.25,-165C754.14,-165 838.63,-174.61 900.54,-183.46"/>
<polygon fill="black" stroke="black" points="899.94,-186.91 910.33,-184.88 900.94,-179.98 899.94,-186.91"/>
</g>
<!-- VO3_&#45;&gt;Vector_final_values -->
<g id="edge8" class="edge">
<title>VO3_:e&#45;&gt;Vector_final_values</title>
<path fill="none" stroke="black" d="M419.16,-34C620.34,-34 846.43,-129.33 942.5,-174.63"/>
<polygon fill="black" stroke="black" points="940.85,-177.72 951.39,-178.86 943.86,-171.4 940.85,-177.72"/>
</g>
<!-- Vector_axis -->
<g id="node11" class="node">
<title>Vector_axis</title>
<polygon fill="none" stroke="black" points="678.75,-368 560,-368 560,-332 678.75,-332 678.75,-368"/>
<text xml:space="preserve" text-anchor="start" x="568" y="-351.7" font-family="Sans-Serif" font-size="14.00"> VectorState</text>
<text xml:space="preserve" text-anchor="start" x="642.25" y="-351.7" font-family="Sans-Serif" font-style="italic" baseline-shift="sub" font-size="14.00">axis</text>
<text xml:space="preserve" text-anchor="start" x="663.25" y="-351.7" font-family="Sans-Serif" font-size="14.00">  </text>
<text xml:space="preserve" text-anchor="start" x="617.5" y="-337.7" font-family="Sans-Serif" font-size="14.00"> </text>
</g>
<!-- VO4&#45;&gt;Vector_axis -->
<g id="edge4" class="edge">
<title>VO4:e&#45;&gt;Vector_axis</title>
<path fill="none" stroke="black" d="M416.15,-404C467.91,-404 524.68,-387.28 564.85,-372.45"/>
<polygon fill="black" stroke="black" points="565.94,-375.78 574.06,-368.97 563.46,-369.23 565.94,-375.78"/>
</g>
<!-- VO5_&#45;&gt;Vector_axis -->
<g id="edge3" class="edge">
<title>VO5_:e&#45;&gt;Vector_axis</title>
<path fill="none" stroke="black" d="M459.83,-350C488.86,-350 520.88,-350 548.5,-350"/>
<polygon fill="black" stroke="black" points="548.13,-353.5 558.13,-350 548.13,-346.5 548.13,-353.5"/>
</g>
<!-- VO6_ -->
<g id="node10" class="node">
<title>VO6_</title>
<g id="a_node10"><a xlink:href="#../DataAxesFormats.Queries.VECTOR_LOOKUP" xlink:title="VECTOR LOOKUP  ">
<polygon fill="none" stroke="black" points="876.25,-348 735,-348 735,-344 731,-344 731,-340 735,-340 735,-320 731,-320 731,-316 735,-316 735,-312 876.25,-312 876.25,-348"/>
<polyline fill="none" stroke="black" points="735,-344 739,-344 739,-340 735,-340"/>
<polyline fill="none" stroke="black" points="735,-320 739,-320 739,-316 735,-316"/>
<text xml:space="preserve" text-anchor="middle" x="805.62" y="-324.2" font-family="Sans-Serif" font-size="14.00">VECTOR LOOKUP  </text>
</a>
</g>
</g>
<!-- VO6_&#45;&gt;Vector_final_values -->
<g id="edge9" class="edge">
<title>VO6_:e&#45;&gt;Vector_final_values</title>
<path fill="none" stroke="black" d="M877.55,-330C931.2,-330 964.56,-265.9 979.86,-227.04"/>
<polygon fill="black" stroke="black" points="983.1,-228.36 983.33,-217.77 976.55,-225.91 983.1,-228.36"/>
</g>
<!-- Vector_axis&#45;&gt;VO6_ -->
<g id="edge5" class="edge">
<title>Vector_axis&#45;&gt;VO6_:w</title>
<path fill="none" stroke="black" d="M679.23,-335.73C693.42,-333.16 708.8,-331.05 723.71,-330.29"/>
<polygon fill="black" stroke="black" points="723.58,-333.8 733.49,-330.04 723.4,-326.8 723.58,-333.8"/>
</g>
</g>
</svg>
