<?xml version="1.0" encoding="UTF-8" standalone="no"?>
<!DOCTYPE svg PUBLIC "-//W3C//DTD SVG 1.1//EN"
 "http://www.w3.org/Graphics/SVG/1.1/DTD/svg11.dtd">
<!-- Generated by graphviz version 14.1.1 (20251213.1925)
 -->
<!-- Pages: 1 -->
<svg width="1744pt" height="639pt"
 viewBox="0.00 0.00 1744.00 639.00" xmlns="http://www.w3.org/2000/svg" xmlns:xlink="http://www.w3.org/1999/xlink">
<g id="graph0" class="graph" transform="scale(1 1) rotate(0) translate(4 635)">
<polygon fill="white" stroke="none" points="-4,4 -4,-635 1739.5,-635 1739.5,4 -4,4"/>
<g id="clust1" class="cluster">
<title>cluster_all</title>
<polygon fill="none" stroke="black" points="251,-8 251,-623 1484.5,-623 1484.5,-8 251,-8"/>
<text xml:space="preserve" text-anchor="middle" x="445.75" y="-592.4" font-family="Sans-Serif" font-size="28.00">VECTOR MASK OPERATION</text>
</g>
<!-- Vector_base_mask_values -->
<g id="node1" class="node">
<title>Vector_base_mask_values</title>
<polygon fill="none" stroke="black" points="223,-357 0,-357 0,-265 223,-265 223,-357"/>
<text xml:space="preserve" text-anchor="start" x="51.12" y="-340.7" font-family="Sans-Serif" font-size="14.00">VectorState</text>
<text xml:space="preserve" text-anchor="start" x="121.62" y="-340.7" font-family="Sans-Serif" font-style="italic" baseline-shift="sub" font-size="14.00">base axis</text>
<text xml:space="preserve" text-anchor="start" x="109.62" y="-326.7" font-family="Sans-Serif" font-size="14.00"> </text>
<text xml:space="preserve" text-anchor="start" x="8" y="-312.7" font-family="Sans-Serif" font-size="14.00">BeginMask </text>
<text xml:space="preserve" text-anchor="start" x="79.25" y="-312.7" font-family="Sans-Serif" font-style="italic" baseline-shift="sub" font-size="14.00">or </text>
<text xml:space="preserve" text-anchor="start" x="92.75" y="-312.7" font-family="Sans-Serif" font-size="14.00"> BeginNegatedMask</text>
<text xml:space="preserve" text-anchor="start" x="109.62" y="-298.7" font-family="Sans-Serif" font-size="14.00"> </text>
<text xml:space="preserve" text-anchor="start" x="28.62" y="-284.7" font-family="Sans-Serif" font-size="14.00">VectorState</text>
<text xml:space="preserve" text-anchor="start" x="99.12" y="-284.7" font-family="Sans-Serif" font-style="italic" baseline-shift="sub" font-size="14.00">base mask values</text>
<text xml:space="preserve" text-anchor="start" x="109.62" y="-270.7" font-family="Sans-Serif" font-size="14.00"> </text>
</g>
<!-- VMO1 -->
<g id="node4" class="node">
<title>VMO1</title>
<polygon fill="none" stroke="black" stroke-dasharray="1,5" points="600.5,-150 313,-150 313,-16 600.5,-16 600.5,-150"/>
<text xml:space="preserve" text-anchor="start" x="349.88" y="-133.7" font-family="Courier,monospace" font-size="14.00">&amp;</text>
<text xml:space="preserve" text-anchor="start" x="358.12" y="-133.7" font-family="Courier,monospace" font-style="italic" baseline-shift="sub" font-size="14.00">or </text>
<text xml:space="preserve" text-anchor="start" x="378.38" y="-133.7" font-family="Courier,monospace" font-size="14.00">|</text>
<text xml:space="preserve" text-anchor="start" x="386.62" y="-133.7" font-family="Courier,monospace" font-style="italic" baseline-shift="sub" font-size="14.00">or </text>
<text xml:space="preserve" text-anchor="start" x="406.88" y="-133.7" font-family="Courier,monospace" font-size="14.00">^ </text>
<text xml:space="preserve" text-anchor="start" x="423.38" y="-133.7" font-family="Courier,monospace" font-size="14.00" fill="gray">!</text>
<text xml:space="preserve" text-anchor="start" x="431.62" y="-133.7" font-family="Courier,monospace" font-size="14.00"> matrix_property</text>
<text xml:space="preserve" text-anchor="start" x="452.62" y="-119.7" font-family="Courier,monospace" font-size="14.00"> </text>
<text xml:space="preserve" text-anchor="start" x="390.75" y="-105.7" font-family="Courier,monospace" font-size="14.00" fill="gray">|| default_value</text>
<text xml:space="preserve" text-anchor="start" x="407.25" y="-91.7" font-family="Courier,monospace" font-size="14.00">@&#45; row_value</text>
<text xml:space="preserve" text-anchor="start" x="452.62" y="-77.7" font-family="Courier,monospace" font-size="14.00"> </text>
<text xml:space="preserve" text-anchor="start" x="321" y="-63.7" font-family="Courier,monospace" font-size="14.00">And</text>
<text xml:space="preserve" text-anchor="start" x="345.75" y="-63.7" font-family="Courier,monospace" font-style="italic" baseline-shift="sub" font-size="14.00">or </text>
<text xml:space="preserve" text-anchor="start" x="366" y="-63.7" font-family="Courier,monospace" font-size="14.00">Or</text>
<text xml:space="preserve" text-anchor="start" x="382.5" y="-63.7" font-family="Courier,monospace" font-style="italic" baseline-shift="sub" font-size="14.00">or </text>
<text xml:space="preserve" text-anchor="start" x="402.75" y="-63.7" font-family="Courier,monospace" font-size="14.00">Xor</text>
<text xml:space="preserve" text-anchor="start" x="427.5" y="-63.7" font-family="Courier,monospace" font-size="14.00" fill="gray">Not</text>
<text xml:space="preserve" text-anchor="start" x="452.25" y="-63.7" font-family="Courier,monospace" font-size="14.00">(matrix_property)</text>
<text xml:space="preserve" text-anchor="start" x="452.62" y="-49.7" font-family="Courier,monospace" font-size="14.00"> </text>
<text xml:space="preserve" text-anchor="start" x="345.38" y="-35.7" font-family="Courier,monospace" font-size="14.00" fill="gray">|&gt; IfMissing(default_value)</text>
<text xml:space="preserve" text-anchor="start" x="357.75" y="-21.7" font-family="Courier,monospace" font-size="14.00">|&gt; RowIsEqual(row_value)</text>
</g>
<!-- Vector_base_mask_values&#45;&gt;VMO1 -->
<g id="edge13" class="edge">
<title>Vector_base_mask_values&#45;&gt;VMO1:w</title>
<path fill="none" stroke="black" d="M128.99,-264.59C154.91,-200.59 211.62,-92.13 300.69,-83.54"/>
<polygon fill="black" stroke="black" points="300.67,-87.05 310.49,-83.07 300.33,-80.06 300.67,-87.05"/>
</g>
<!-- VMO2 -->
<g id="node6" class="node">
<title>VMO2</title>
<polygon fill="none" stroke="black" stroke-dasharray="1,5" points="600.5,-302 313,-302 313,-168 600.5,-168 600.5,-302"/>
<text xml:space="preserve" text-anchor="start" x="349.88" y="-285.7" font-family="Courier,monospace" font-size="14.00">&amp;</text>
<text xml:space="preserve" text-anchor="start" x="358.12" y="-285.7" font-family="Courier,monospace" font-style="italic" baseline-shift="sub" font-size="14.00">or </text>
<text xml:space="preserve" text-anchor="start" x="378.38" y="-285.7" font-family="Courier,monospace" font-size="14.00">|</text>
<text xml:space="preserve" text-anchor="start" x="386.62" y="-285.7" font-family="Courier,monospace" font-style="italic" baseline-shift="sub" font-size="14.00">or </text>
<text xml:space="preserve" text-anchor="start" x="406.88" y="-285.7" font-family="Courier,monospace" font-size="14.00">^ </text>
<text xml:space="preserve" text-anchor="start" x="423.38" y="-285.7" font-family="Courier,monospace" font-size="14.00" fill="gray">!</text>
<text xml:space="preserve" text-anchor="start" x="431.62" y="-285.7" font-family="Courier,monospace" font-size="14.00"> matrix_property</text>
<text xml:space="preserve" text-anchor="start" x="452.62" y="-271.7" font-family="Courier,monospace" font-size="14.00"> </text>
<text xml:space="preserve" text-anchor="start" x="390.75" y="-257.7" font-family="Courier,monospace" font-size="14.00" fill="gray">|| default_value</text>
<text xml:space="preserve" text-anchor="start" x="394.88" y="-243.7" font-family="Courier,monospace" font-size="14.00">@| column_value</text>
<text xml:space="preserve" text-anchor="start" x="452.62" y="-229.7" font-family="Courier,monospace" font-size="14.00"> </text>
<text xml:space="preserve" text-anchor="start" x="321" y="-215.7" font-family="Courier,monospace" font-size="14.00">And</text>
<text xml:space="preserve" text-anchor="start" x="345.75" y="-215.7" font-family="Courier,monospace" font-style="italic" baseline-shift="sub" font-size="14.00">or </text>
<text xml:space="preserve" text-anchor="start" x="366" y="-215.7" font-family="Courier,monospace" font-size="14.00">Or</text>
<text xml:space="preserve" text-anchor="start" x="382.5" y="-215.7" font-family="Courier,monospace" font-style="italic" baseline-shift="sub" font-size="14.00">or </text>
<text xml:space="preserve" text-anchor="start" x="402.75" y="-215.7" font-family="Courier,monospace" font-size="14.00">Xor</text>
<text xml:space="preserve" text-anchor="start" x="427.5" y="-215.7" font-family="Courier,monospace" font-size="14.00" fill="gray">Not</text>
<text xml:space="preserve" text-anchor="start" x="452.25" y="-215.7" font-family="Courier,monospace" font-size="14.00">(matrix_property)</text>
<text xml:space="preserve" text-anchor="start" x="452.62" y="-201.7" font-family="Courier,monospace" font-size="14.00"> </text>
<text xml:space="preserve" text-anchor="start" x="345.38" y="-187.7" font-family="Courier,monospace" font-size="14.00" fill="gray">|&gt; IfMissing(default_value)</text>
<text xml:space="preserve" text-anchor="start" x="333" y="-173.7" font-family="Courier,monospace" font-size="14.00">|&gt; ColumnIsEqual(column_value)</text>
</g>
<!-- Vector_base_mask_values&#45;&gt;VMO2 -->
<g id="edge14" class="edge">
<title>Vector_base_mask_values&#45;&gt;VMO2:w</title>
<path fill="none" stroke="black" d="M194.33,-264.6C226.15,-250.26 263.76,-237.6 300.6,-235.35"/>
<polygon fill="black" stroke="black" points="300.6,-238.86 310.49,-235.05 300.38,-231.86 300.6,-238.86"/>
</g>
<!-- VMO3 -->
<g id="node8" class="node">
<title>VMO3</title>
<polygon fill="none" stroke="black" stroke-dasharray="1,5" points="654.5,-454 259,-454 259,-320 654.5,-320 654.5,-454"/>
<text xml:space="preserve" text-anchor="start" x="349.88" y="-437.7" font-family="Courier,monospace" font-size="14.00">&amp;</text>
<text xml:space="preserve" text-anchor="start" x="358.12" y="-437.7" font-family="Courier,monospace" font-style="italic" baseline-shift="sub" font-size="14.00">or </text>
<text xml:space="preserve" text-anchor="start" x="378.38" y="-437.7" font-family="Courier,monospace" font-size="14.00">|</text>
<text xml:space="preserve" text-anchor="start" x="386.62" y="-437.7" font-family="Courier,monospace" font-style="italic" baseline-shift="sub" font-size="14.00">or </text>
<text xml:space="preserve" text-anchor="start" x="406.88" y="-437.7" font-family="Courier,monospace" font-size="14.00">^ </text>
<text xml:space="preserve" text-anchor="start" x="423.38" y="-437.7" font-family="Courier,monospace" font-size="14.00" fill="gray">!</text>
<text xml:space="preserve" text-anchor="start" x="431.62" y="-437.7" font-family="Courier,monospace" font-size="14.00"> matrix_property</text>
<text xml:space="preserve" text-anchor="start" x="452.62" y="-423.7" font-family="Courier,monospace" font-size="14.00"> </text>
<text xml:space="preserve" text-anchor="start" x="390.75" y="-409.7" font-family="Courier,monospace" font-size="14.00" fill="gray">|| default_value</text>
<text xml:space="preserve" text-anchor="start" x="337.12" y="-395.7" font-family="Courier,monospace" font-size="14.00">@ columns_axis = column_value</text>
<text xml:space="preserve" text-anchor="start" x="452.62" y="-381.7" font-family="Courier,monospace" font-size="14.00"> </text>
<text xml:space="preserve" text-anchor="start" x="321" y="-367.7" font-family="Courier,monospace" font-size="14.00">And</text>
<text xml:space="preserve" text-anchor="start" x="345.75" y="-367.7" font-family="Courier,monospace" font-style="italic" baseline-shift="sub" font-size="14.00">or </text>
<text xml:space="preserve" text-anchor="start" x="366" y="-367.7" font-family="Courier,monospace" font-size="14.00">Or</text>
<text xml:space="preserve" text-anchor="start" x="382.5" y="-367.7" font-family="Courier,monospace" font-style="italic" baseline-shift="sub" font-size="14.00">or </text>
<text xml:space="preserve" text-anchor="start" x="402.75" y="-367.7" font-family="Courier,monospace" font-size="14.00">Xor</text>
<text xml:space="preserve" text-anchor="start" x="427.5" y="-367.7" font-family="Courier,monospace" font-size="14.00" fill="gray">Not</text>
<text xml:space="preserve" text-anchor="start" x="452.25" y="-367.7" font-family="Courier,monospace" font-size="14.00">(matrix_property)</text>
<text xml:space="preserve" text-anchor="start" x="452.62" y="-353.7" font-family="Courier,monospace" font-size="14.00"> </text>
<text xml:space="preserve" text-anchor="start" x="345.38" y="-339.7" font-family="Courier,monospace" font-size="14.00" fill="gray">|&gt; IfMissing(default_value)</text>
<text xml:space="preserve" text-anchor="start" x="267" y="-325.7" font-family="Courier,monospace" font-size="14.00">|&gt; Axis(columns_axis) |&gt; IsEqual(column_value)</text>
</g>
<!-- Vector_base_mask_values&#45;&gt;VMO3 -->
<g id="edge15" class="edge">
<title>Vector_base_mask_values&#45;&gt;VMO3:w</title>
<path fill="none" stroke="black" d="M170.6,-357.4C192.88,-371.31 219.51,-383.63 246.73,-386.41"/>
<polygon fill="black" stroke="black" points="246.32,-389.9 256.49,-386.92 246.68,-382.91 246.32,-389.9"/>
</g>
<!-- VMO4 -->
<g id="node10" class="node">
<title>VMO4</title>
<polygon fill="none" stroke="black" stroke-dasharray="1,5" points="600.5,-578 313,-578 313,-472 600.5,-472 600.5,-578"/>
<text xml:space="preserve" text-anchor="start" x="349.88" y="-561.7" font-family="Courier,monospace" font-size="14.00">&amp;</text>
<text xml:space="preserve" text-anchor="start" x="358.12" y="-561.7" font-family="Courier,monospace" font-style="italic" baseline-shift="sub" font-size="14.00">or </text>
<text xml:space="preserve" text-anchor="start" x="378.38" y="-561.7" font-family="Courier,monospace" font-size="14.00">|</text>
<text xml:space="preserve" text-anchor="start" x="386.62" y="-561.7" font-family="Courier,monospace" font-style="italic" baseline-shift="sub" font-size="14.00">or </text>
<text xml:space="preserve" text-anchor="start" x="406.88" y="-561.7" font-family="Courier,monospace" font-size="14.00">^ </text>
<text xml:space="preserve" text-anchor="start" x="423.38" y="-561.7" font-family="Courier,monospace" font-size="14.00" fill="gray">!</text>
<text xml:space="preserve" text-anchor="start" x="431.62" y="-561.7" font-family="Courier,monospace" font-size="14.00"> vector_property</text>
<text xml:space="preserve" text-anchor="start" x="452.62" y="-547.7" font-family="Courier,monospace" font-size="14.00"> </text>
<text xml:space="preserve" text-anchor="start" x="390.75" y="-533.7" font-family="Courier,monospace" font-size="14.00" fill="gray">|| default_value</text>
<text xml:space="preserve" text-anchor="start" x="452.62" y="-519.7" font-family="Courier,monospace" font-size="14.00"> </text>
<text xml:space="preserve" text-anchor="start" x="321" y="-505.7" font-family="Courier,monospace" font-size="14.00">And</text>
<text xml:space="preserve" text-anchor="start" x="345.75" y="-505.7" font-family="Courier,monospace" font-style="italic" baseline-shift="sub" font-size="14.00">or </text>
<text xml:space="preserve" text-anchor="start" x="366" y="-505.7" font-family="Courier,monospace" font-size="14.00">Or</text>
<text xml:space="preserve" text-anchor="start" x="382.5" y="-505.7" font-family="Courier,monospace" font-style="italic" baseline-shift="sub" font-size="14.00">or </text>
<text xml:space="preserve" text-anchor="start" x="402.75" y="-505.7" font-family="Courier,monospace" font-size="14.00">Xor</text>
<text xml:space="preserve" text-anchor="start" x="427.5" y="-505.7" font-family="Courier,monospace" font-size="14.00" fill="gray">Not</text>
<text xml:space="preserve" text-anchor="start" x="452.25" y="-505.7" font-family="Courier,monospace" font-size="14.00">(vector_property)</text>
<text xml:space="preserve" text-anchor="start" x="452.62" y="-491.7" font-family="Courier,monospace" font-size="14.00"> </text>
<text xml:space="preserve" text-anchor="start" x="345.38" y="-477.7" font-family="Courier,monospace" font-size="14.00" fill="gray">|&gt; IfMissing(default_value)</text>
</g>
<!-- Vector_base_mask_values&#45;&gt;VMO4 -->
<g id="edge16" class="edge">
<title>Vector_base_mask_values&#45;&gt;VMO4:w</title>
<path fill="none" stroke="black" d="M131.11,-357.43C158.57,-417.73 215.99,-516.29 300.7,-524.46"/>
<polygon fill="black" stroke="black" points="300.33,-527.94 310.49,-524.93 300.67,-520.95 300.33,-527.94"/>
</g>
<!-- Vector_final_mask_values -->
<g id="node2" class="node">
<title>Vector_final_mask_values</title>
<polygon fill="none" stroke="black" points="1735.5,-356 1512.5,-356 1512.5,-264 1735.5,-264 1735.5,-356"/>
<text xml:space="preserve" text-anchor="start" x="1563.62" y="-339.7" font-family="Sans-Serif" font-size="14.00">VectorState</text>
<text xml:space="preserve" text-anchor="start" x="1634.12" y="-339.7" font-family="Sans-Serif" font-style="italic" baseline-shift="sub" font-size="14.00">base axis</text>
<text xml:space="preserve" text-anchor="start" x="1622.12" y="-325.7" font-family="Sans-Serif" font-size="14.00"> </text>
<text xml:space="preserve" text-anchor="start" x="1520.5" y="-311.7" font-family="Sans-Serif" font-size="14.00">BeginMask </text>
<text xml:space="preserve" text-anchor="start" x="1591.75" y="-311.7" font-family="Sans-Serif" font-style="italic" baseline-shift="sub" font-size="14.00">or </text>
<text xml:space="preserve" text-anchor="start" x="1605.25" y="-311.7" font-family="Sans-Serif" font-size="14.00"> BeginNegatedMask</text>
<text xml:space="preserve" text-anchor="start" x="1622.12" y="-297.7" font-family="Sans-Serif" font-size="14.00"> </text>
<text xml:space="preserve" text-anchor="start" x="1543.38" y="-283.7" font-family="Sans-Serif" font-size="14.00">VectorState</text>
<text xml:space="preserve" text-anchor="start" x="1613.88" y="-283.7" font-family="Sans-Serif" font-style="italic" baseline-shift="sub" font-size="14.00">final mask values</text>
<text xml:space="preserve" text-anchor="start" x="1622.12" y="-269.7" font-family="Sans-Serif" font-size="14.00"> </text>
</g>
<!-- Vector_mask_operands -->
<g id="node3" class="node">
<title>Vector_mask_operands</title>
<polygon fill="none" stroke="black" points="1218.25,-384 995.25,-384 995.25,-236 1218.25,-236 1218.25,-384"/>
<text xml:space="preserve" text-anchor="start" x="1046.38" y="-367.7" font-family="Sans-Serif" font-size="14.00">VectorState</text>
<text xml:space="preserve" text-anchor="start" x="1116.88" y="-367.7" font-family="Sans-Serif" font-style="italic" baseline-shift="sub" font-size="14.00">base axis</text>
<text xml:space="preserve" text-anchor="start" x="1104.88" y="-353.7" font-family="Sans-Serif" font-size="14.00"> </text>
<text xml:space="preserve" text-anchor="start" x="1003.25" y="-339.7" font-family="Sans-Serif" font-size="14.00">BeginMask </text>
<text xml:space="preserve" text-anchor="start" x="1074.5" y="-339.7" font-family="Sans-Serif" font-style="italic" baseline-shift="sub" font-size="14.00">or </text>
<text xml:space="preserve" text-anchor="start" x="1088" y="-339.7" font-family="Sans-Serif" font-size="14.00"> BeginNegatedMask</text>
<text xml:space="preserve" text-anchor="start" x="1104.88" y="-325.7" font-family="Sans-Serif" font-size="14.00"> </text>
<text xml:space="preserve" text-anchor="start" x="1023.88" y="-311.7" font-family="Sans-Serif" font-size="14.00">VectorState</text>
<text xml:space="preserve" text-anchor="start" x="1094.38" y="-311.7" font-family="Sans-Serif" font-style="italic" baseline-shift="sub" font-size="14.00">base mask values</text>
<text xml:space="preserve" text-anchor="start" x="1104.88" y="-297.7" font-family="Sans-Serif" font-size="14.00"> </text>
<text xml:space="preserve" text-anchor="start" x="1052.38" y="-283.7" font-family="Sans-Serif" font-size="14.00">And</text>
<text xml:space="preserve" text-anchor="start" x="1076.38" y="-283.7" font-family="Sans-Serif" font-style="italic" baseline-shift="sub" font-size="14.00">or </text>
<text xml:space="preserve" text-anchor="start" x="1089.88" y="-283.7" font-family="Sans-Serif" font-size="14.00">Or</text>
<text xml:space="preserve" text-anchor="start" x="1105.62" y="-283.7" font-family="Sans-Serif" font-style="italic" baseline-shift="sub" font-size="14.00">or </text>
<text xml:space="preserve" text-anchor="start" x="1119.12" y="-283.7" font-family="Sans-Serif" font-size="14.00">Xor</text>
<text xml:space="preserve" text-anchor="start" x="1140.12" y="-283.7" font-family="Sans-Serif" font-size="14.00" fill="gray">Not</text>
<text xml:space="preserve" text-anchor="start" x="1104.88" y="-269.7" font-family="Sans-Serif" font-size="14.00"> </text>
<text xml:space="preserve" text-anchor="start" x="1023.5" y="-255.7" font-family="Sans-Serif" font-size="14.00">VectorState</text>
<text xml:space="preserve" text-anchor="start" x="1094" y="-255.7" font-family="Sans-Serif" font-style="italic" baseline-shift="sub" font-size="14.00">other mask values</text>
<text xml:space="preserve" text-anchor="start" x="1104.88" y="-241.7" font-family="Sans-Serif" font-size="14.00"> </text>
</g>
<!-- VMO5 -->
<g id="node12" class="node">
<title>VMO5</title>
<g id="a_node12"><a xlink:href="#../DataAxesFormats.Queries.VECTOR_OPERATION" xlink:title="VECTOR OPERATION">
<polygon fill="none" stroke="black" points="1185.25,-159 1028.25,-159 1028.25,-155 1024.25,-155 1024.25,-151 1028.25,-151 1028.25,-131 1024.25,-131 1024.25,-127 1028.25,-127 1028.25,-123 1185.25,-123 1185.25,-159"/>
<polyline fill="none" stroke="black" points="1028.25,-155 1032.25,-155 1032.25,-151 1028.25,-151"/>
<polyline fill="none" stroke="black" points="1028.25,-131 1032.25,-131 1032.25,-127 1028.25,-127"/>
<text xml:space="preserve" text-anchor="middle" x="1106.75" y="-135.2" font-family="Sans-Serif" font-size="14.00">VECTOR OPERATION</text>
</a>
</g>
</g>
<!-- Vector_mask_operands&#45;&gt;VMO5 -->
<g id="edge10" class="edge">
<title>Vector_mask_operands&#45;&gt;VMO5</title>
<path fill="none" stroke="black" d="M1164.78,-235.62C1168.57,-212.92 1159.61,-190.22 1137.9,-167.51"/>
<polygon fill="black" stroke="black" points="1140.37,-165.03 1130.77,-160.54 1135.47,-170.04 1140.37,-165.03"/>
</g>
<!-- VMO6_ -->
<g id="node13" class="node">
<title>VMO6_</title>
<polygon fill="none" stroke="black" points="1464.5,-322 1254.25,-322 1254.25,-298 1464.5,-298 1476.5,-310 1464.5,-322"/>
<text xml:space="preserve" text-anchor="start" x="1262.25" y="-311.7" font-family="Sans-Serif" font-size="14.00"> compute mask operation </text>
<text xml:space="preserve" text-anchor="start" x="1419" y="-311.7" font-family="Sans-Serif" font-style="italic" baseline-shift="sub" font-size="14.00">implicit</text>
<text xml:space="preserve" text-anchor="start" x="1453.5" y="-311.7" font-family="Sans-Serif" font-size="14.00">    </text>
<text xml:space="preserve" text-anchor="start" x="1361.62" y="-297.7" font-family="Sans-Serif" font-size="14.00">  </text>
</g>
<!-- Vector_mask_operands&#45;&gt;VMO6_ -->
<g id="edge12" class="edge">
<title>Vector_mask_operands&#45;&gt;VMO6_:w</title>
<path fill="none" stroke="black" d="M1218.54,-310C1226.73,-310 1234.94,-310 1242.99,-310"/>
<polygon fill="black" stroke="black" points="1242.74,-313.5 1252.74,-310 1242.74,-306.5 1242.74,-313.5"/>
</g>
<!-- VMO1_ -->
<g id="node5" class="node">
<title>VMO1_</title>
<polygon fill="none" stroke="black" points="936,-153 701.75,-153 701.75,-129 936,-129 948,-141 936,-153"/>
<text xml:space="preserve" text-anchor="middle" x="824.88" y="-135.2" font-family="Sans-Serif" font-size="14.00">lookup square matrix row other mask  </text>
</g>
<!-- VMO1&#45;&gt;VMO1_ -->
<g id="edge1" class="edge">
<title>VMO1:e&#45;&gt;VMO1_:w</title>
<path fill="none" stroke="black" d="M601.5,-83C648.43,-83 649.67,-132.08 689.28,-139.94"/>
<polygon fill="black" stroke="black" points="688.76,-143.41 699.04,-140.86 689.41,-136.44 688.76,-143.41"/>
</g>
<!-- VMO1_&#45;&gt;Vector_mask_operands -->
<g id="edge2" class="edge">
<title>VMO1_:e&#45;&gt;Vector_mask_operands:sw</title>
<path fill="none" stroke="black" d="M949.2,-141C992.45,-141 967.87,-192.98 989.32,-227.28"/>
<polygon fill="black" stroke="black" points="986.35,-229.17 995.31,-234.82 991.82,-224.81 986.35,-229.17"/>
</g>
<!-- VMO1_&#45;&gt;VMO5 -->
<!-- VMO2_ -->
<g id="node7" class="node">
<title>VMO2_</title>
<polygon fill="none" stroke="black" points="947.25,-271 690.5,-271 690.5,-247 947.25,-247 959.25,-259 947.25,-271"/>
<text xml:space="preserve" text-anchor="middle" x="824.88" y="-253.2" font-family="Sans-Serif" font-size="14.00">lookup square matrix column other mask  </text>
</g>
<!-- VMO2&#45;&gt;VMO2_ -->
<g id="edge3" class="edge">
<title>VMO2:e&#45;&gt;VMO2_:w</title>
<path fill="none" stroke="black" d="M601.5,-235C638.47,-235 647.83,-254.54 679.4,-258.36"/>
<polygon fill="black" stroke="black" points="678.8,-261.83 688.99,-258.91 679.21,-254.84 678.8,-261.83"/>
</g>
<!-- VMO2_&#45;&gt;Vector_mask_operands -->
<g id="edge4" class="edge">
<title>VMO2_:e&#45;&gt;Vector_mask_operands</title>
<path fill="none" stroke="black" d="M959.25,-259C967.4,-259 975.66,-259.71 983.91,-260.97"/>
<polygon fill="black" stroke="black" points="983.17,-264.39 993.64,-262.73 984.42,-257.5 983.17,-264.39"/>
</g>
<!-- VMO3_ -->
<g id="node9" class="node">
<title>VMO3_</title>
<polygon fill="none" stroke="black" points="924.75,-374 713,-374 713,-350 924.75,-350 936.75,-362 924.75,-374"/>
<text xml:space="preserve" text-anchor="middle" x="824.88" y="-356.2" font-family="Sans-Serif" font-size="14.00">lookup matrix column other mask  </text>
</g>
<!-- VMO3&#45;&gt;VMO3_ -->
<g id="edge5" class="edge">
<title>VMO3:e&#45;&gt;VMO3_:w</title>
<path fill="none" stroke="black" d="M654.5,-387C677.85,-387 682.7,-369.2 700.26,-363.64"/>
<polygon fill="black" stroke="black" points="700.64,-367.12 710.03,-362.22 699.63,-360.2 700.64,-367.12"/>
</g>
<!-- VMO3_&#45;&gt;Vector_mask_operands -->
<g id="edge6" class="edge">
<title>VMO3_:e&#45;&gt;Vector_mask_operands</title>
<path fill="none" stroke="black" d="M938.22,-362C953.29,-362 968.8,-360.06 984,-356.92"/>
<polygon fill="black" stroke="black" points="984.55,-360.39 993.54,-354.77 983.01,-353.56 984.55,-360.39"/>
</g>
<!-- VMO4_ -->
<g id="node11" class="node">
<title>VMO4_</title>
<polygon fill="none" stroke="black" points="900.38,-494 737.38,-494 737.38,-470 900.38,-470 912.38,-482 900.38,-494"/>
<text xml:space="preserve" text-anchor="middle" x="824.88" y="-476.2" font-family="Sans-Serif" font-size="14.00">lookup vector other mask  </text>
</g>
<!-- VMO4&#45;&gt;VMO4_ -->
<g id="edge7" class="edge">
<title>VMO4:e&#45;&gt;VMO4_:w</title>
<path fill="none" stroke="black" d="M601.5,-525C660.22,-525 671.86,-487.36 724.51,-482.51"/>
<polygon fill="black" stroke="black" points="724.66,-486.01 734.49,-482.07 724.35,-479.02 724.66,-486.01"/>
</g>
<!-- VMO4_&#45;&gt;Vector_mask_operands -->
<g id="edge8" class="edge">
<title>VMO4_:e&#45;&gt;Vector_mask_operands</title>
<path fill="none" stroke="black" d="M913.74,-482C972.15,-482 1020.91,-437.3 1054.67,-393.47"/>
<polygon fill="black" stroke="black" points="1057.34,-395.75 1060.53,-385.65 1051.73,-391.56 1057.34,-395.75"/>
</g>
<!-- VMO5&#45;&gt;Vector_mask_operands -->
<g id="edge11" class="edge">
<title>VMO5&#45;&gt;Vector_mask_operands</title>
<path fill="none" stroke="black" d="M1083.81,-159.48C1060.28,-181.1 1048.31,-202.71 1047.89,-224.32"/>
<polygon fill="black" stroke="black" points="1044.38,-224.4 1048.61,-234.11 1051.36,-223.88 1044.38,-224.4"/>
</g>
<!-- VMO6_&#45;&gt;Vector_final_mask_values -->
<g id="edge17" class="edge">
<title>VMO6_:e&#45;&gt;Vector_final_mask_values</title>
<path fill="none" stroke="black" d="M1477.97,-310C1485.41,-310 1493.07,-310 1500.79,-310"/>
<polygon fill="black" stroke="black" points="1500.63,-313.5 1510.63,-310 1500.63,-306.5 1500.63,-313.5"/>
</g>
</g>
</svg>
