<?xml version="1.0" encoding="UTF-8" standalone="no"?>
<!DOCTYPE svg PUBLIC "-//W3C//DTD SVG 1.1//EN"
 "http://www.w3.org/Graphics/SVG/1.1/DTD/svg11.dtd">
<!-- Generated by graphviz version 2.40.1 (0)
 -->
<!-- Title: %3 Pages: 1 -->
<svg width="1971pt" height="556pt"
 viewBox="0.00 0.00 1971.00 556.00" xmlns="http://www.w3.org/2000/svg" xmlns:xlink="http://www.w3.org/1999/xlink">
<g id="graph0" class="graph" transform="scale(1 1) rotate(0) translate(4 552)">
<title>%3</title>
<polygon fill="#ffffff" stroke="transparent" points="-4,4 -4,-552 1967,-552 1967,4 -4,4"/>
<g id="clust1" class="cluster">
<title>cluster_all</title>
<polygon fill="none" stroke="#000000" points="190,-8 190,-540 1777,-540 1777,-8 190,-8"/>
<text text-anchor="middle" x="310" y="-513.6" font-family="Sans-Serif" font-size="28.00" fill="#000000">VECTOR GROUP</text>
</g>
<!-- Vector_base_values -->
<g id="node1" class="node">
<title>Vector_base_values</title>
<polygon fill="none" stroke="#000000" points="162,-280 0,-280 0,-244 162,-244 162,-280"/>
<text text-anchor="start" x="8" y="-265.8" font-family="Sans-Serif" font-size="14.00" fill="#000000">VectorState</text>
<text text-anchor="start" x="78" y="-265.8" font-family="Sans-Serif" font-style="italic" baseline-shift="sub" font-size="14.00" fill="#000000">base values</text>
<text text-anchor="start" x="142" y="-265.8" font-family="Sans-Serif" font-size="14.00" fill="#000000">   </text>
<text text-anchor="start" x="79" y="-251.8" font-family="Sans-Serif" font-size="14.00" fill="#000000"> </text>
</g>
<!-- VG1 -->
<g id="node4" class="node">
<title>VG1</title>
<polygon fill="none" stroke="#000000" stroke-dasharray="1,5" points="515.5,-492.5 276.5,-492.5 276.5,-379.5 515.5,-379.5 515.5,-492.5"/>
<text text-anchor="start" x="325.5" y="-477.3" font-family="Courier,monospace" font-size="14.00" fill="#000000">/ matrix_property</text>
<text text-anchor="start" x="329.5" y="-462.3" font-family="Courier,monospace" font-size="14.00" fill="#c0c0c0">|| default_value</text>
<text text-anchor="start" x="346" y="-447.3" font-family="Courier,monospace" font-size="14.00" fill="#000000">@&#45; row_value</text>
<text text-anchor="start" x="391.5" y="-432.3" font-family="Courier,monospace" font-size="14.00" fill="#000000"> </text>
<text text-anchor="start" x="296.5" y="-417.3" font-family="Courier,monospace" font-size="14.00" fill="#000000">GroupBy(matrix_property)</text>
<text text-anchor="start" x="284.5" y="-402.3" font-family="Courier,monospace" font-size="14.00" fill="#c0c0c0">|&gt; IfMissing(default_value)</text>
<text text-anchor="start" x="296.5" y="-387.3" font-family="Courier,monospace" font-size="14.00" fill="#000000">|&gt; RowIsEqual(row_value)</text>
</g>
<!-- Vector_base_values&#45;&gt;VG1 -->
<g id="edge16" class="edge">
<title>Vector_base_values&#45;&gt;VG1:w</title>
<path fill="none" stroke="#000000" d="M90.2346,-280.2922C113.3427,-323.3082 178.1559,-427.8506 265.7697,-435.5503"/>
<polygon fill="#000000" stroke="#000000" points="265.8559,-439.0574 276,-436 266.1634,-432.0642 265.8559,-439.0574"/>
</g>
<!-- VG2 -->
<g id="node6" class="node">
<title>VG2</title>
<polygon fill="none" stroke="#000000" stroke-dasharray="1,5" points="528,-260.5 264,-260.5 264,-147.5 528,-147.5 528,-260.5"/>
<text text-anchor="start" x="325.5" y="-245.3" font-family="Courier,monospace" font-size="14.00" fill="#000000">/ matrix_property</text>
<text text-anchor="start" x="329.5" y="-230.3" font-family="Courier,monospace" font-size="14.00" fill="#c0c0c0">|| default_value</text>
<text text-anchor="start" x="334" y="-215.3" font-family="Courier,monospace" font-size="14.00" fill="#000000">@| column_value</text>
<text text-anchor="start" x="391.5" y="-200.3" font-family="Courier,monospace" font-size="14.00" fill="#000000"> </text>
<text text-anchor="start" x="296.5" y="-185.3" font-family="Courier,monospace" font-size="14.00" fill="#000000">GroupBy(matrix_property)</text>
<text text-anchor="start" x="284.5" y="-170.3" font-family="Courier,monospace" font-size="14.00" fill="#c0c0c0">|&gt; IfMissing(default_value)</text>
<text text-anchor="start" x="272" y="-155.3" font-family="Courier,monospace" font-size="14.00" fill="#000000">|&gt; ColumnIsEqual(column_value)</text>
</g>
<!-- Vector_base_values&#45;&gt;VG2 -->
<g id="edge17" class="edge">
<title>Vector_base_values&#45;&gt;VG2:w</title>
<path fill="none" stroke="#000000" d="M115.7311,-243.9664C149.5405,-228.0045 203.1108,-206.8444 253.8884,-204.2618"/>
<polygon fill="#000000" stroke="#000000" points="254.094,-207.7577 264,-204 253.9127,-200.7601 254.094,-207.7577"/>
</g>
<!-- VG3 -->
<g id="node8" class="node">
<title>VG3</title>
<polygon fill="none" stroke="#000000" stroke-dasharray="1,5" points="594,-129.5 198,-129.5 198,-16.5 594,-16.5 594,-129.5"/>
<text text-anchor="start" x="325.5" y="-114.3" font-family="Courier,monospace" font-size="14.00" fill="#000000">/ matrix_property</text>
<text text-anchor="start" x="329.5" y="-99.3" font-family="Courier,monospace" font-size="14.00" fill="#c0c0c0">|| default_value</text>
<text text-anchor="start" x="276" y="-84.3" font-family="Courier,monospace" font-size="14.00" fill="#000000">@ columns_axis = column_value</text>
<text text-anchor="start" x="391.5" y="-69.3" font-family="Courier,monospace" font-size="14.00" fill="#000000"> </text>
<text text-anchor="start" x="296.5" y="-54.3" font-family="Courier,monospace" font-size="14.00" fill="#000000">GroupBy(matrix_property)</text>
<text text-anchor="start" x="284.5" y="-39.3" font-family="Courier,monospace" font-size="14.00" fill="#c0c0c0">|&gt; IfMissing(default_value)</text>
<text text-anchor="start" x="206" y="-24.3" font-family="Courier,monospace" font-size="14.00" fill="#000000">|&gt; Axis(columns_axis) |&gt; IsEqual(column_value)</text>
</g>
<!-- Vector_base_values&#45;&gt;VG3 -->
<g id="edge18" class="edge">
<title>Vector_base_values&#45;&gt;VG3:w</title>
<path fill="none" stroke="#000000" d="M83.4386,-243.8779C90.6008,-198.6054 115.8162,-83.4787 187.9918,-73.6686"/>
<polygon fill="#000000" stroke="#000000" points="188.2556,-77.1589 198,-73 187.7889,-70.1745 188.2556,-77.1589"/>
</g>
<!-- VG4 -->
<g id="node10" class="node">
<title>VG4</title>
<polygon fill="none" stroke="#000000" stroke-dasharray="1,5" points="515.5,-361.5 276.5,-361.5 276.5,-278.5 515.5,-278.5 515.5,-361.5"/>
<text text-anchor="start" x="325.5" y="-346.3" font-family="Courier,monospace" font-size="14.00" fill="#000000">/ vector_property</text>
<text text-anchor="start" x="329.5" y="-331.3" font-family="Courier,monospace" font-size="14.00" fill="#c0c0c0">|| default_value</text>
<text text-anchor="start" x="391.5" y="-316.3" font-family="Courier,monospace" font-size="14.00" fill="#000000"> </text>
<text text-anchor="start" x="296.5" y="-301.3" font-family="Courier,monospace" font-size="14.00" fill="#000000">GroupBy(vector_property)</text>
<text text-anchor="start" x="284.5" y="-286.3" font-family="Courier,monospace" font-size="14.00" fill="#c0c0c0">|&gt; IfMissing(default_value)</text>
</g>
<!-- Vector_base_values&#45;&gt;VG4 -->
<g id="edge19" class="edge">
<title>Vector_base_values&#45;&gt;VG4:w</title>
<path fill="none" stroke="#000000" d="M118.1375,-280.0336C154.4108,-296.062 211.8968,-317.332 265.9524,-319.7695"/>
<polygon fill="#000000" stroke="#000000" points="265.9223,-323.2697 276,-320 266.0829,-316.2715 265.9223,-323.2697"/>
</g>
<!-- Vector_final_values -->
<g id="node2" class="node">
<title>Vector_final_values</title>
<polygon fill="none" stroke="#000000" points="1963,-278 1805,-278 1805,-242 1963,-242 1963,-278"/>
<text text-anchor="start" x="1813" y="-263.8" font-family="Sans-Serif" font-size="14.00" fill="#000000">VectorState</text>
<text text-anchor="start" x="1883" y="-263.8" font-family="Sans-Serif" font-style="italic" baseline-shift="sub" font-size="14.00" fill="#000000">final values</text>
<text text-anchor="start" x="1943" y="-263.8" font-family="Sans-Serif" font-size="14.00" fill="#000000">   </text>
<text text-anchor="start" x="1882" y="-249.8" font-family="Sans-Serif" font-size="14.00" fill="#000000"> </text>
</g>
<!-- Vector_group_values -->
<g id="node3" class="node">
<title>Vector_group_values</title>
<polygon fill="none" stroke="#000000" points="1117,-307 950,-307 950,-215 1117,-215 1117,-307"/>
<text text-anchor="start" x="960.5" y="-292.8" font-family="Sans-Serif" font-size="14.00" fill="#000000">VectorState</text>
<text text-anchor="start" x="1030.5" y="-292.8" font-family="Sans-Serif" font-style="italic" baseline-shift="sub" font-size="14.00" fill="#000000">base values</text>
<text text-anchor="start" x="1094.5" y="-292.8" font-family="Sans-Serif" font-size="14.00" fill="#000000">   </text>
<text text-anchor="start" x="1031.5" y="-278.8" font-family="Sans-Serif" font-size="14.00" fill="#000000"> </text>
<text text-anchor="start" x="1006" y="-264.8" font-family="Sans-Serif" font-size="14.00" fill="#000000">GroupBy</text>
<text text-anchor="start" x="1031.5" y="-250.8" font-family="Sans-Serif" font-size="14.00" fill="#000000"> </text>
<text text-anchor="start" x="958" y="-236.8" font-family="Sans-Serif" font-size="14.00" fill="#000000">VectorState</text>
<text text-anchor="start" x="1028" y="-236.8" font-family="Sans-Serif" font-style="italic" baseline-shift="sub" font-size="14.00" fill="#000000">group values</text>
<text text-anchor="start" x="1097" y="-236.8" font-family="Sans-Serif" font-size="14.00" fill="#000000">   </text>
<text text-anchor="start" x="1031.5" y="-222.8" font-family="Sans-Serif" font-size="14.00" fill="#000000"> </text>
</g>
<!-- VG5 -->
<g id="node12" class="node">
<title>VG5</title>
<g id="a_node12"><a xlink:href="#../DataAxesFormats.Queries.VECTOR_OPERATION" xlink:title="VECTOR OPERATION">
<polygon fill="none" stroke="#000000" points="1110.5,-422 956.5,-422 956.5,-418 952.5,-418 952.5,-414 956.5,-414 956.5,-394 952.5,-394 952.5,-390 956.5,-390 956.5,-386 1110.5,-386 1110.5,-422"/>
<polyline fill="none" stroke="#000000" points="956.5,-418 960.5,-418 960.5,-414 956.5,-414 "/>
<polyline fill="none" stroke="#000000" points="956.5,-394 960.5,-394 960.5,-390 956.5,-390 "/>
<text text-anchor="middle" x="1033.5" y="-400.3" font-family="Sans-Serif" font-size="14.00" fill="#000000">VECTOR OPERATION</text>
</a>
</g>
</g>
<!-- Vector_group_values&#45;&gt;VG5 -->
<g id="edge10" class="edge">
<title>Vector_group_values&#45;&gt;VG5</title>
<path fill="none" stroke="#000000" d="M1088.2118,-307.084C1103.2155,-331.1789 1096.8835,-355.2738 1069.2157,-379.3688"/>
<polygon fill="#000000" stroke="#000000" points="1066.8292,-376.7985 1061.2872,-385.8282 1071.2507,-382.2254 1066.8292,-376.7985"/>
</g>
<!-- VG6 -->
<g id="node13" class="node">
<title>VG6</title>
<polygon fill="none" stroke="#000000" stroke-dasharray="1,5" points="1574,-299 1317,-299 1317,-221 1574,-221 1574,-299"/>
<text text-anchor="start" x="1346" y="-284.8" font-family="Courier,monospace" font-size="14.00" fill="#000000">&gt;&gt; Reduction </text>
<text text-anchor="start" x="1454" y="-284.8" font-family="Courier,monospace" font-size="14.00" fill="#c0c0c0">param value</text>
<text text-anchor="start" x="1379" y="-270.8" font-family="Courier,monospace" font-size="14.00" fill="#c0c0c0">|| default_value</text>
<text text-anchor="start" x="1441" y="-256.8" font-family="Courier,monospace" font-size="14.00" fill="#000000"> </text>
<text text-anchor="start" x="1325" y="-242.8" font-family="Courier,monospace" font-size="14.00" fill="#000000">Reduction(</text>
<text text-anchor="start" x="1408" y="-242.8" font-family="Courier,monospace" font-size="14.00" fill="#c0c0c0">param = value, ...</text>
<text text-anchor="start" x="1557" y="-242.8" font-family="Courier,monospace" font-size="14.00" fill="#000000">)</text>
<text text-anchor="start" x="1334" y="-228.8" font-family="Courier,monospace" font-size="14.00" fill="#c0c0c0">|&gt; IfMissing(default_value)</text>
</g>
<!-- Vector_group_values&#45;&gt;VG6 -->
<g id="edge13" class="edge">
<title>Vector_group_values&#45;&gt;VG6</title>
<path fill="none" stroke="#000000" d="M1117.0285,-253.9052C1129.09,-253.1147 1141.3573,-252.4378 1153,-252 1203.1184,-250.1154 1258.0834,-250.8742 1306.7026,-252.5179"/>
<polygon fill="#000000" stroke="#000000" points="1306.8596,-256.0255 1316.9771,-252.8814 1307.1072,-249.0299 1306.8596,-256.0255"/>
</g>
<!-- VG7 -->
<g id="node15" class="node">
<title>VG7</title>
<g id="a_node15"><a xlink:href="#../DataAxesFormats.Queries.VECTOR_AS_AXIS" xlink:title="VECTOR AS AXIS">
<polygon fill="none" stroke="#000000" points="1281,-297 1153,-297 1153,-293 1149,-293 1149,-289 1153,-289 1153,-269 1149,-269 1149,-265 1153,-265 1153,-261 1281,-261 1281,-297"/>
<polyline fill="none" stroke="#000000" points="1153,-293 1157,-293 1157,-289 1153,-289 "/>
<polyline fill="none" stroke="#000000" points="1153,-269 1157,-269 1157,-265 1153,-265 "/>
<text text-anchor="middle" x="1217" y="-275.3" font-family="Sans-Serif" font-size="14.00" fill="#000000">VECTOR AS AXIS</text>
</a>
</g>
</g>
<!-- Vector_group_values&#45;&gt;VG7 -->
<g id="edge14" class="edge">
<title>Vector_group_values&#45;&gt;VG7:w</title>
<path fill="none" stroke="#000000" d="M1117.1576,-276.8288C1125.6791,-277.7709 1134.3146,-278.4709 1142.7791,-278.7968"/>
<polygon fill="#000000" stroke="#000000" points="1142.9324,-282.3004 1153,-279 1143.0716,-275.3018 1142.9324,-282.3004"/>
</g>
<!-- VG1_ -->
<g id="node5" class="node">
<title>VG1_</title>
<polygon fill="none" stroke="#000000" points="890.5,-416 641.5,-416 641.5,-392 890.5,-392 902.5,-404 890.5,-416"/>
<text text-anchor="middle" x="772" y="-400.3" font-family="Sans-Serif" font-size="14.00" fill="#000000">lookup square matrix row vector groups  </text>
</g>
<!-- VG1&#45;&gt;VG1_ -->
<g id="edge1" class="edge">
<title>VG1:e&#45;&gt;VG1_:w</title>
<path fill="none" stroke="#000000" d="M516,-436C569.7629,-436 582.1809,-407.875 630.7757,-404.3594"/>
<polygon fill="#000000" stroke="#000000" points="631.1292,-407.8492 641,-404 630.8832,-400.8535 631.1292,-407.8492"/>
</g>
<!-- VG1_&#45;&gt;Vector_group_values -->
<g id="edge2" class="edge">
<title>VG1_:e&#45;&gt;Vector_group_values:sw</title>
<path fill="none" stroke="#000000" d="M903,-404C985.4501,-404 897.4044,-176.7353 941.9323,-208.3926"/>
<polygon fill="#000000" stroke="#000000" points="939.6652,-211.0596 949.5,-215 944.269,-205.7865 939.6652,-211.0596"/>
</g>
<!-- VG1_&#45;&gt;VG5 -->
<!-- VG2_ -->
<g id="node7" class="node">
<title>VG2_</title>
<polygon fill="none" stroke="#000000" points="902,-231 630,-231 630,-207 902,-207 914,-219 902,-231"/>
<text text-anchor="middle" x="772" y="-215.3" font-family="Sans-Serif" font-size="14.00" fill="#000000">lookup square matrix column vector groups  </text>
</g>
<!-- VG2&#45;&gt;VG2_ -->
<g id="edge3" class="edge">
<title>VG2:e&#45;&gt;VG2_:w</title>
<path fill="none" stroke="#000000" d="M528,-204C570.2411,-204 582.3442,-216.7478 619.8762,-218.7396"/>
<polygon fill="#000000" stroke="#000000" points="619.9133,-222.2417 630,-219 620.0933,-215.244 619.9133,-222.2417"/>
</g>
<!-- VG2_&#45;&gt;Vector_group_values -->
<g id="edge4" class="edge">
<title>VG2_:e&#45;&gt;Vector_group_values</title>
<path fill="none" stroke="#000000" d="M914,-219C922.6279,-219 931.418,-219.9865 940.118,-221.6572"/>
<polygon fill="#000000" stroke="#000000" points="939.369,-225.076 949.8889,-223.8179 940.8805,-218.2411 939.369,-225.076"/>
</g>
<!-- VG3_ -->
<g id="node9" class="node">
<title>VG3_</title>
<polygon fill="none" stroke="#000000" points="879.5,-131 652.5,-131 652.5,-107 879.5,-107 891.5,-119 879.5,-131"/>
<text text-anchor="middle" x="772" y="-115.3" font-family="Sans-Serif" font-size="14.00" fill="#000000">lookup matrix column vector groups  </text>
</g>
<!-- VG3&#45;&gt;VG3_ -->
<g id="edge5" class="edge">
<title>VG3:e&#45;&gt;VG3_:w</title>
<path fill="none" stroke="#000000" d="M594,-73C623.0453,-73 620.3687,-108.8505 641.9792,-117.2529"/>
<polygon fill="#000000" stroke="#000000" points="641.5474,-120.7304 652,-119 642.7498,-113.8344 641.5474,-120.7304"/>
</g>
<!-- VG3_&#45;&gt;Vector_group_values -->
<g id="edge6" class="edge">
<title>VG3_:e&#45;&gt;Vector_group_values</title>
<path fill="none" stroke="#000000" d="M892,-119C943.3918,-119 982.5758,-166.2459 1006.5364,-206.2332"/>
<polygon fill="#000000" stroke="#000000" points="1003.5174,-208.0041 1011.5637,-214.8967 1009.5719,-204.4907 1003.5174,-208.0041"/>
</g>
<!-- VG4_ -->
<g id="node11" class="node">
<title>VG4_</title>
<polygon fill="none" stroke="#000000" points="855,-316 677,-316 677,-292 855,-292 867,-304 855,-316"/>
<text text-anchor="middle" x="772" y="-300.3" font-family="Sans-Serif" font-size="14.00" fill="#000000">lookup vector vector groups  </text>
</g>
<!-- VG4&#45;&gt;VG4_ -->
<g id="edge7" class="edge">
<title>VG4:e&#45;&gt;VG4_:w</title>
<path fill="none" stroke="#000000" d="M516,-320C584.3969,-320 603.2834,-305.5244 666.8453,-304.1107"/>
<polygon fill="#000000" stroke="#000000" points="667.0388,-307.6089 677,-304 666.9624,-300.6093 667.0388,-307.6089"/>
</g>
<!-- VG4_&#45;&gt;Vector_group_values -->
<g id="edge8" class="edge">
<title>VG4_:e&#45;&gt;Vector_group_values</title>
<path fill="none" stroke="#000000" d="M867,-304C891.033,-304 916.4152,-299.7481 939.9216,-293.9184"/>
<polygon fill="#000000" stroke="#000000" points="941.0742,-297.2352 949.8715,-291.3312 939.3125,-290.4605 941.0742,-297.2352"/>
</g>
<!-- VG5&#45;&gt;Vector_group_values -->
<g id="edge11" class="edge">
<title>VG5&#45;&gt;Vector_group_values</title>
<path fill="none" stroke="#000000" d="M1005.7128,-385.8282C975.3035,-362.5536 964.802,-339.2789 974.2083,-316.0042"/>
<polygon fill="#000000" stroke="#000000" points="977.3343,-317.5786 978.7882,-307.084 971.1071,-314.3814 977.3343,-317.5786"/>
</g>
<!-- VG6_ -->
<g id="node14" class="node">
<title>VG6_</title>
<polygon fill="none" stroke="#000000" points="1757,-272 1610,-272 1610,-248 1757,-248 1769,-260 1757,-272"/>
<text text-anchor="middle" x="1689.5" y="-256.3" font-family="Sans-Serif" font-size="14.00" fill="#000000">reduce grouped vector  </text>
</g>
<!-- VG6&#45;&gt;VG6_ -->
<g id="edge12" class="edge">
<title>VG6:e&#45;&gt;VG6_:w</title>
<path fill="none" stroke="#000000" d="M1574,-260C1586,-260 1591.25,-260 1599.875,-260"/>
<polygon fill="#000000" stroke="#000000" points="1600,-263.5001 1610,-260 1600,-256.5001 1600,-263.5001"/>
</g>
<!-- VG6_&#45;&gt;Vector_final_values -->
<g id="edge20" class="edge">
<title>VG6_:e&#45;&gt;Vector_final_values</title>
<path fill="none" stroke="#000000" d="M1769.5,-260C1777.7154,-260 1786.2624,-260 1794.8197,-260"/>
<polygon fill="#000000" stroke="#000000" points="1794.8509,-263.5001 1804.8509,-260 1794.8509,-256.5001 1794.8509,-263.5001"/>
</g>
<!-- VG7&#45;&gt;VG6 -->
<g id="edge15" class="edge">
<title>VG7:e&#45;&gt;VG6</title>
<path fill="none" stroke="#000000" d="M1281,-279C1289.3686,-279 1297.961,-278.7543 1306.618,-278.3189"/>
<polygon fill="#000000" stroke="#000000" points="1307.0221,-281.8013 1316.8008,-277.7239 1306.6137,-274.8133 1307.0221,-281.8013"/>
</g>
</g>
</svg>
