<?xml version="1.0" encoding="UTF-8" standalone="no"?>
<!DOCTYPE svg PUBLIC "-//W3C//DTD SVG 1.1//EN"
 "http://www.w3.org/Graphics/SVG/1.1/DTD/svg11.dtd">
<!-- Generated by graphviz version 14.1.1 (20251213.1925)
 -->
<!-- Pages: 1 -->
<svg width="1965pt" height="593pt"
 viewBox="0.00 0.00 1965.00 593.00" xmlns="http://www.w3.org/2000/svg" xmlns:xlink="http://www.w3.org/1999/xlink">
<g id="graph0" class="graph" transform="scale(1 1) rotate(0) translate(4 589)">
<polygon fill="white" stroke="none" points="-4,4 -4,-589 1961.25,-589 1961.25,4 -4,4"/>
<g id="clust1" class="cluster">
<title>cluster_all</title>
<polygon fill="none" stroke="black" points="189.5,-8 189.5,-577 1772.25,-577 1772.25,-8 189.5,-8"/>
<text xml:space="preserve" text-anchor="middle" x="310.75" y="-546.4" font-family="Sans-Serif" font-size="28.00">VECTOR GROUP</text>
</g>
<!-- Vector_base_values -->
<g id="node1" class="node">
<title>Vector_base_values</title>
<polygon fill="none" stroke="black" points="161.5,-309 0,-309 0,-273 161.5,-273 161.5,-309"/>
<text xml:space="preserve" text-anchor="start" x="8" y="-292.7" font-family="Sans-Serif" font-size="14.00">VectorState</text>
<text xml:space="preserve" text-anchor="start" x="78.5" y="-292.7" font-family="Sans-Serif" font-style="italic" baseline-shift="sub" font-size="14.00">base values</text>
<text xml:space="preserve" text-anchor="start" x="142.25" y="-292.7" font-family="Sans-Serif" font-size="14.00">   </text>
<text xml:space="preserve" text-anchor="start" x="78.88" y="-278.7" font-family="Sans-Serif" font-size="14.00"> </text>
</g>
<!-- VG1 -->
<g id="node4" class="node">
<title>VG1</title>
<polygon fill="none" stroke="black" stroke-dasharray="1,5" points="514.62,-139.75 275.88,-139.75 275.88,-16.25 514.62,-16.25 514.62,-139.75"/>
<text xml:space="preserve" text-anchor="start" x="325.12" y="-122.45" font-family="Courier,monospace" font-size="14.00">/ matrix_property</text>
<text xml:space="preserve" text-anchor="start" x="329.25" y="-105.95" font-family="Courier,monospace" font-size="14.00" fill="gray">|| default_value</text>
<text xml:space="preserve" text-anchor="start" x="345.75" y="-89.45" font-family="Courier,monospace" font-size="14.00">@&#45; row_value</text>
<text xml:space="preserve" text-anchor="start" x="391.12" y="-72.95" font-family="Courier,monospace" font-size="14.00"> </text>
<text xml:space="preserve" text-anchor="start" x="296.25" y="-56.45" font-family="Courier,monospace" font-size="14.00">GroupBy(matrix_property)</text>
<text xml:space="preserve" text-anchor="start" x="283.88" y="-39.95" font-family="Courier,monospace" font-size="14.00" fill="gray">|&gt; IfMissing(default_value)</text>
<text xml:space="preserve" text-anchor="start" x="296.25" y="-23.45" font-family="Courier,monospace" font-size="14.00">|&gt; RowIsEqual(row_value)</text>
</g>
<!-- Vector_base_values&#45;&gt;VG1 -->
<g id="edge16" class="edge">
<title>Vector_base_values&#45;&gt;VG1:w</title>
<path fill="none" stroke="black" d="M88.06,-272.84C106.54,-223.24 165.45,-88.51 263.38,-78.58"/>
<polygon fill="black" stroke="black" points="263.55,-82.08 273.36,-78.08 263.2,-75.08 263.55,-82.08"/>
</g>
<!-- VG2 -->
<g id="node6" class="node">
<title>VG2</title>
<polygon fill="none" stroke="black" stroke-dasharray="1,5" points="527,-281.75 263.5,-281.75 263.5,-158.25 527,-158.25 527,-281.75"/>
<text xml:space="preserve" text-anchor="start" x="325.12" y="-264.45" font-family="Courier,monospace" font-size="14.00">/ matrix_property</text>
<text xml:space="preserve" text-anchor="start" x="329.25" y="-247.95" font-family="Courier,monospace" font-size="14.00" fill="gray">|| default_value</text>
<text xml:space="preserve" text-anchor="start" x="333.38" y="-231.45" font-family="Courier,monospace" font-size="14.00">@| column_value</text>
<text xml:space="preserve" text-anchor="start" x="391.12" y="-214.95" font-family="Courier,monospace" font-size="14.00"> </text>
<text xml:space="preserve" text-anchor="start" x="296.25" y="-198.45" font-family="Courier,monospace" font-size="14.00">GroupBy(matrix_property)</text>
<text xml:space="preserve" text-anchor="start" x="283.88" y="-181.95" font-family="Courier,monospace" font-size="14.00" fill="gray">|&gt; IfMissing(default_value)</text>
<text xml:space="preserve" text-anchor="start" x="271.5" y="-165.45" font-family="Courier,monospace" font-size="14.00">|&gt; ColumnIsEqual(column_value)</text>
</g>
<!-- Vector_base_values&#45;&gt;VG2 -->
<g id="edge17" class="edge">
<title>Vector_base_values&#45;&gt;VG2:w</title>
<path fill="none" stroke="black" d="M109.53,-272.53C141.64,-252.89 197.02,-224.14 251.01,-220.4"/>
<polygon fill="black" stroke="black" points="251.12,-223.9 260.99,-220.05 250.87,-216.91 251.12,-223.9"/>
</g>
<!-- VG3 -->
<g id="node8" class="node">
<title>VG3</title>
<polygon fill="none" stroke="black" stroke-dasharray="1,5" points="593,-423.75 197.5,-423.75 197.5,-300.25 593,-300.25 593,-423.75"/>
<text xml:space="preserve" text-anchor="start" x="325.12" y="-406.45" font-family="Courier,monospace" font-size="14.00">/ matrix_property</text>
<text xml:space="preserve" text-anchor="start" x="329.25" y="-389.95" font-family="Courier,monospace" font-size="14.00" fill="gray">|| default_value</text>
<text xml:space="preserve" text-anchor="start" x="275.62" y="-373.45" font-family="Courier,monospace" font-size="14.00">@ columns_axis = column_value</text>
<text xml:space="preserve" text-anchor="start" x="391.12" y="-356.95" font-family="Courier,monospace" font-size="14.00"> </text>
<text xml:space="preserve" text-anchor="start" x="296.25" y="-340.45" font-family="Courier,monospace" font-size="14.00">GroupBy(matrix_property)</text>
<text xml:space="preserve" text-anchor="start" x="283.88" y="-323.95" font-family="Courier,monospace" font-size="14.00" fill="gray">|&gt; IfMissing(default_value)</text>
<text xml:space="preserve" text-anchor="start" x="205.5" y="-307.45" font-family="Courier,monospace" font-size="14.00">|&gt; Axis(columns_axis) |&gt; IsEqual(column_value)</text>
</g>
<!-- Vector_base_values&#45;&gt;VG3 -->
<g id="edge18" class="edge">
<title>Vector_base_values&#45;&gt;VG3:w</title>
<path fill="none" stroke="black" d="M98.05,-309.28C116.76,-328.35 149.51,-356.15 185.31,-361.2"/>
<polygon fill="black" stroke="black" points="184.77,-364.67 194.99,-361.89 185.27,-357.69 184.77,-364.67"/>
</g>
<!-- VG4 -->
<g id="node10" class="node">
<title>VG4</title>
<polygon fill="none" stroke="black" stroke-dasharray="1,5" points="514.62,-532.25 275.88,-532.25 275.88,-441.75 514.62,-441.75 514.62,-532.25"/>
<text xml:space="preserve" text-anchor="start" x="325.12" y="-514.95" font-family="Courier,monospace" font-size="14.00">/ vector_property</text>
<text xml:space="preserve" text-anchor="start" x="329.25" y="-498.45" font-family="Courier,monospace" font-size="14.00" fill="gray">|| default_value</text>
<text xml:space="preserve" text-anchor="start" x="391.12" y="-481.95" font-family="Courier,monospace" font-size="14.00"> </text>
<text xml:space="preserve" text-anchor="start" x="296.25" y="-465.45" font-family="Courier,monospace" font-size="14.00">GroupBy(vector_property)</text>
<text xml:space="preserve" text-anchor="start" x="283.88" y="-448.95" font-family="Courier,monospace" font-size="14.00" fill="gray">|&gt; IfMissing(default_value)</text>
</g>
<!-- Vector_base_values&#45;&gt;VG4 -->
<g id="edge19" class="edge">
<title>Vector_base_values&#45;&gt;VG4:w</title>
<path fill="none" stroke="black" d="M89.25,-309.44C109.61,-356.32 170.71,-477.06 263.41,-486.42"/>
<polygon fill="black" stroke="black" points="263.2,-489.92 273.36,-486.92 263.55,-482.93 263.2,-489.92"/>
</g>
<!-- Vector_final_values -->
<g id="node2" class="node">
<title>Vector_final_values</title>
<polygon fill="none" stroke="black" points="1957.25,-308 1800.25,-308 1800.25,-272 1957.25,-272 1957.25,-308"/>
<text xml:space="preserve" text-anchor="start" x="1808.25" y="-291.7" font-family="Sans-Serif" font-size="14.00">VectorState</text>
<text xml:space="preserve" text-anchor="start" x="1878.75" y="-291.7" font-family="Sans-Serif" font-style="italic" baseline-shift="sub" font-size="14.00">final values</text>
<text xml:space="preserve" text-anchor="start" x="1938" y="-291.7" font-family="Sans-Serif" font-size="14.00">   </text>
<text xml:space="preserve" text-anchor="start" x="1876.88" y="-277.7" font-family="Sans-Serif" font-size="14.00"> </text>
</g>
<!-- Vector_group_values -->
<g id="node3" class="node">
<title>Vector_group_values</title>
<polygon fill="none" stroke="black" points="1114,-337 948,-337 948,-245 1114,-245 1114,-337"/>
<text xml:space="preserve" text-anchor="start" x="958.25" y="-320.7" font-family="Sans-Serif" font-size="14.00">VectorState</text>
<text xml:space="preserve" text-anchor="start" x="1028.75" y="-320.7" font-family="Sans-Serif" font-style="italic" baseline-shift="sub" font-size="14.00">base values</text>
<text xml:space="preserve" text-anchor="start" x="1092.5" y="-320.7" font-family="Sans-Serif" font-size="14.00">   </text>
<text xml:space="preserve" text-anchor="start" x="1029.12" y="-306.7" font-family="Sans-Serif" font-size="14.00"> </text>
<text xml:space="preserve" text-anchor="start" x="1004" y="-292.7" font-family="Sans-Serif" font-size="14.00">GroupBy</text>
<text xml:space="preserve" text-anchor="start" x="1029.12" y="-278.7" font-family="Sans-Serif" font-size="14.00"> </text>
<text xml:space="preserve" text-anchor="start" x="956" y="-264.7" font-family="Sans-Serif" font-size="14.00">VectorState</text>
<text xml:space="preserve" text-anchor="start" x="1026.5" y="-264.7" font-family="Sans-Serif" font-style="italic" baseline-shift="sub" font-size="14.00">group values</text>
<text xml:space="preserve" text-anchor="start" x="1094.75" y="-264.7" font-family="Sans-Serif" font-size="14.00">   </text>
<text xml:space="preserve" text-anchor="start" x="1029.12" y="-250.7" font-family="Sans-Serif" font-size="14.00"> </text>
</g>
<!-- VG5 -->
<g id="node12" class="node">
<title>VG5</title>
<g id="a_node12"><a xlink:href="#../DataAxesFormats.Queries.VECTOR_OPERATION" xlink:title="VECTOR OPERATION">
<polygon fill="none" stroke="black" points="1109.5,-151 952.5,-151 952.5,-147 948.5,-147 948.5,-143 952.5,-143 952.5,-123 948.5,-123 948.5,-119 952.5,-119 952.5,-115 1109.5,-115 1109.5,-151"/>
<polyline fill="none" stroke="black" points="952.5,-147 956.5,-147 956.5,-143 952.5,-143"/>
<polyline fill="none" stroke="black" points="952.5,-123 956.5,-123 956.5,-119 952.5,-119"/>
<text xml:space="preserve" text-anchor="middle" x="1031" y="-127.2" font-family="Sans-Serif" font-size="14.00">VECTOR OPERATION</text>
</a>
</g>
</g>
<!-- Vector_group_values&#45;&gt;VG5 -->
<g id="edge10" class="edge">
<title>Vector_group_values&#45;&gt;VG5</title>
<path fill="none" stroke="black" d="M1079.86,-244.58C1097.42,-216.01 1091.89,-187.44 1063.24,-158.87"/>
<polygon fill="black" stroke="black" points="1065.82,-156.49 1056.12,-152.24 1061.06,-161.61 1065.82,-156.49"/>
</g>
<!-- VG6 -->
<g id="node13" class="node">
<title>VG6</title>
<polygon fill="none" stroke="black" stroke-dasharray="1,5" points="1569.75,-329 1314.5,-329 1314.5,-251 1569.75,-251 1569.75,-329"/>
<text xml:space="preserve" text-anchor="start" x="1343.12" y="-312.7" font-family="Courier,monospace" font-size="14.00">&gt;&gt; Reduction </text>
<text xml:space="preserve" text-anchor="start" x="1450.38" y="-312.7" font-family="Courier,monospace" font-size="14.00" fill="gray">param value</text>
<text xml:space="preserve" text-anchor="start" x="1376.12" y="-298.7" font-family="Courier,monospace" font-size="14.00" fill="gray">|| default_value</text>
<text xml:space="preserve" text-anchor="start" x="1438" y="-284.7" font-family="Courier,monospace" font-size="14.00"> </text>
<text xml:space="preserve" text-anchor="start" x="1322.5" y="-270.7" font-family="Courier,monospace" font-size="14.00">Reduction(</text>
<text xml:space="preserve" text-anchor="start" x="1405" y="-270.7" font-family="Courier,monospace" font-size="14.00" fill="gray">param = value, ...</text>
<text xml:space="preserve" text-anchor="start" x="1553.5" y="-270.7" font-family="Courier,monospace" font-size="14.00">)</text>
<text xml:space="preserve" text-anchor="start" x="1330.75" y="-256.7" font-family="Courier,monospace" font-size="14.00" fill="gray">|&gt; IfMissing(default_value)</text>
</g>
<!-- Vector_group_values&#45;&gt;VG6 -->
<g id="edge13" class="edge">
<title>Vector_group_values&#45;&gt;VG6</title>
<path fill="none" stroke="black" d="M1114.48,-283.91C1126.39,-283.11 1138.5,-282.44 1150,-282 1199.82,-280.1 1254.44,-280.85 1302.79,-282.49"/>
<polygon fill="black" stroke="black" points="1302.65,-285.99 1312.77,-282.85 1302.9,-279 1302.65,-285.99"/>
</g>
<!-- VG7 -->
<g id="node15" class="node">
<title>VG7</title>
<g id="a_node15"><a xlink:href="#../DataAxesFormats.Queries.VECTOR_AS_AXIS" xlink:title="VECTOR AS AXIS">
<polygon fill="none" stroke="black" points="1278.5,-327 1150,-327 1150,-323 1146,-323 1146,-319 1150,-319 1150,-299 1146,-299 1146,-295 1150,-295 1150,-291 1278.5,-291 1278.5,-327"/>
<polyline fill="none" stroke="black" points="1150,-323 1154,-323 1154,-319 1150,-319"/>
<polyline fill="none" stroke="black" points="1150,-299 1154,-299 1154,-295 1150,-295"/>
<text xml:space="preserve" text-anchor="middle" x="1214.25" y="-303.2" font-family="Sans-Serif" font-size="14.00">VECTOR AS AXIS</text>
</a>
</g>
</g>
<!-- Vector_group_values&#45;&gt;VG7 -->
<g id="edge14" class="edge">
<title>Vector_group_values&#45;&gt;VG7:w</title>
<path fill="none" stroke="black" d="M1114.28,-306.79C1122.4,-307.71 1130.62,-308.4 1138.7,-308.75"/>
<polygon fill="black" stroke="black" points="1138.41,-312.24 1148.49,-308.97 1138.57,-305.24 1138.41,-312.24"/>
</g>
<!-- VG1_ -->
<g id="node5" class="node">
<title>VG1_</title>
<polygon fill="none" stroke="black" points="888.75,-145 640.25,-145 640.25,-121 888.75,-121 900.75,-133 888.75,-145"/>
<text xml:space="preserve" text-anchor="middle" x="770.5" y="-127.2" font-family="Sans-Serif" font-size="14.00">lookup square matrix row vector groups  </text>
</g>
<!-- VG1&#45;&gt;VG1_ -->
<g id="edge1" class="edge">
<title>VG1:e&#45;&gt;VG1_:w</title>
<path fill="none" stroke="black" d="M515.62,-78C571.69,-78 578.3,-125.94 627.79,-132.3"/>
<polygon fill="black" stroke="black" points="627.33,-135.78 637.53,-132.91 627.76,-128.8 627.33,-135.78"/>
</g>
<!-- VG1_&#45;&gt;Vector_group_values -->
<g id="edge2" class="edge">
<title>VG1_:e&#45;&gt;Vector_group_values:sw</title>
<path fill="none" stroke="black" d="M901.96,-133C952.05,-133 916.83,-196.54 941.96,-236.21"/>
<polygon fill="black" stroke="black" points="939.07,-238.2 948.05,-243.82 944.54,-233.82 939.07,-238.2"/>
</g>
<!-- VG1_&#45;&gt;VG5 -->
<!-- VG2_ -->
<g id="node7" class="node">
<title>VG2_</title>
<polygon fill="none" stroke="black" points="900,-254 629,-254 629,-230 900,-230 912,-242 900,-254"/>
<text xml:space="preserve" text-anchor="middle" x="770.5" y="-236.2" font-family="Sans-Serif" font-size="14.00">lookup square matrix column vector groups  </text>
</g>
<!-- VG2&#45;&gt;VG2_ -->
<g id="edge3" class="edge">
<title>VG2:e&#45;&gt;VG2_:w</title>
<path fill="none" stroke="black" d="M528,-220C569.99,-220 581.22,-238.38 617.92,-241.54"/>
<polygon fill="black" stroke="black" points="617.35,-245.02 627.49,-241.94 617.64,-238.03 617.35,-245.02"/>
</g>
<!-- VG2_&#45;&gt;Vector_group_values -->
<g id="edge4" class="edge">
<title>VG2_:e&#45;&gt;Vector_group_values</title>
<path fill="none" stroke="black" d="M912,-242C920.16,-242 928.41,-243.01 936.56,-244.74"/>
<polygon fill="black" stroke="black" points="935.56,-248.1 946.12,-247.16 937.28,-241.32 935.56,-248.1"/>
</g>
<!-- VG3_ -->
<g id="node9" class="node">
<title>VG3_</title>
<polygon fill="none" stroke="black" points="877.5,-352 651.5,-352 651.5,-328 877.5,-328 889.5,-340 877.5,-352"/>
<text xml:space="preserve" text-anchor="middle" x="770.5" y="-334.2" font-family="Sans-Serif" font-size="14.00">lookup matrix column vector groups  </text>
</g>
<!-- VG3&#45;&gt;VG3_ -->
<g id="edge5" class="edge">
<title>VG3:e&#45;&gt;VG3_:w</title>
<path fill="none" stroke="black" d="M593,-362C616.02,-362 621.57,-346.34 639.13,-341.44"/>
<polygon fill="black" stroke="black" points="639.34,-344.95 648.81,-340.19 638.44,-338 639.34,-344.95"/>
</g>
<!-- VG3_&#45;&gt;Vector_group_values -->
<g id="edge6" class="edge">
<title>VG3_:e&#45;&gt;Vector_group_values</title>
<path fill="none" stroke="black" d="M890.69,-340C905.96,-340 921.66,-337.35 936.77,-333.28"/>
<polygon fill="black" stroke="black" points="937.59,-336.69 946.2,-330.51 935.62,-329.97 937.59,-336.69"/>
</g>
<!-- VG4_ -->
<g id="node11" class="node">
<title>VG4_</title>
<polygon fill="none" stroke="black" points="853.12,-463 675.88,-463 675.88,-439 853.12,-439 865.12,-451 853.12,-463"/>
<text xml:space="preserve" text-anchor="middle" x="770.5" y="-445.2" font-family="Sans-Serif" font-size="14.00">lookup vector vector groups  </text>
</g>
<!-- VG4&#45;&gt;VG4_ -->
<g id="edge7" class="edge">
<title>VG4:e&#45;&gt;VG4_:w</title>
<path fill="none" stroke="black" d="M515.62,-487C584.06,-487 600.37,-454.83 663.1,-451.31"/>
<polygon fill="black" stroke="black" points="663.06,-454.81 672.96,-451.04 662.87,-447.82 663.06,-454.81"/>
</g>
<!-- VG4_&#45;&gt;Vector_group_values -->
<g id="edge8" class="edge">
<title>VG4_:e&#45;&gt;Vector_group_values</title>
<path fill="none" stroke="black" d="M866.52,-451C927.57,-451 974.25,-393.31 1001.8,-347.21"/>
<polygon fill="black" stroke="black" points="1004.81,-349 1006.8,-338.59 998.75,-345.49 1004.81,-349"/>
</g>
<!-- VG5&#45;&gt;Vector_group_values -->
<g id="edge11" class="edge">
<title>VG5&#45;&gt;Vector_group_values</title>
<path fill="none" stroke="black" d="M1006.99,-151.21C975.19,-178.93 965.15,-206.65 976.85,-234.37"/>
<polygon fill="black" stroke="black" points="973.73,-235.97 981.44,-243.24 979.95,-232.75 973.73,-235.97"/>
</g>
<!-- VG6_ -->
<g id="node14" class="node">
<title>VG6_</title>
<polygon fill="none" stroke="black" points="1752.25,-302 1605.75,-302 1605.75,-278 1752.25,-278 1764.25,-290 1752.25,-302"/>
<text xml:space="preserve" text-anchor="middle" x="1685" y="-284.2" font-family="Sans-Serif" font-size="14.00">reduce grouped vector  </text>
</g>
<!-- VG6&#45;&gt;VG6_ -->
<g id="edge12" class="edge">
<title>VG6:e&#45;&gt;VG6_:w</title>
<path fill="none" stroke="black" d="M1569.75,-290C1581.12,-290 1586.43,-290 1594.3,-290"/>
<polygon fill="black" stroke="black" points="1594.24,-293.5 1604.24,-290 1594.24,-286.5 1594.24,-293.5"/>
</g>
<!-- VG6_&#45;&gt;Vector_final_values -->
<g id="edge20" class="edge">
<title>VG6_:e&#45;&gt;Vector_final_values</title>
<path fill="none" stroke="black" d="M1765.58,-290C1773.04,-290 1780.78,-290 1788.54,-290"/>
<polygon fill="black" stroke="black" points="1788.4,-293.5 1798.4,-290 1788.4,-286.5 1788.4,-293.5"/>
</g>
<!-- VG7&#45;&gt;VG6 -->
<g id="edge15" class="edge">
<title>VG7:e&#45;&gt;VG6</title>
<path fill="none" stroke="black" d="M1278.5,-309C1286.51,-309 1294.73,-308.77 1303.02,-308.36"/>
<polygon fill="black" stroke="black" points="1303.05,-311.86 1312.83,-307.78 1302.64,-304.88 1303.05,-311.86"/>
</g>
</g>
</svg>
