<?xml version="1.0" encoding="UTF-8" standalone="no"?>
<!DOCTYPE svg PUBLIC "-//W3C//DTD SVG 1.1//EN"
 "http://www.w3.org/Graphics/SVG/1.1/DTD/svg11.dtd">
<!-- Generated by graphviz version 2.40.1 (0)
 -->
<!-- Title: %3 Pages: 1 -->
<svg width="940pt" height="253pt"
 viewBox="0.00 0.00 940.00 253.00" xmlns="http://www.w3.org/2000/svg" xmlns:xlink="http://www.w3.org/1999/xlink">
<g id="graph0" class="graph" transform="scale(1 1) rotate(0) translate(4 249)">
<title>%3</title>
<polygon fill="#ffffff" stroke="transparent" points="-4,4 -4,-249 936,-249 936,4 -4,4"/>
<g id="clust1" class="cluster">
<title>cluster_all</title>
<polygon fill="none" stroke="#000000" points="164,-8 164,-237 767,-237 767,-8 164,-8"/>
<text text-anchor="middle" x="328.5" y="-210.6" font-family="Sans-Serif" font-size="28.00" fill="#000000">VECTOR FROM MATRIX</text>
</g>
<!-- Matrix_values -->
<g id="node1" class="node">
<title>Matrix_values</title>
<polygon fill="none" stroke="#000000" points="136,-121 0,-121 0,-85 136,-85 136,-121"/>
<text text-anchor="start" x="8" y="-106.8" font-family="Sans-Serif" font-size="14.00" fill="#000000"> MatrixState</text>
<text text-anchor="start" x="81" y="-106.8" font-family="Sans-Serif" font-style="italic" baseline-shift="sub" font-size="14.00" fill="#000000">values</text>
<text text-anchor="start" x="116" y="-106.8" font-family="Sans-Serif" font-size="14.00" fill="#000000">   </text>
<text text-anchor="start" x="66" y="-92.8" font-family="Sans-Serif" font-size="14.00" fill="#000000"> </text>
</g>
<!-- VFM1 -->
<g id="node3" class="node">
<title>VFM1</title>
<polygon fill="none" stroke="#000000" stroke-dasharray="1,5" points="540.5,-190 184.5,-190 184.5,-112 540.5,-112 540.5,-190"/>
<text text-anchor="start" x="246.5" y="-175.8" font-family="Courier,monospace" font-size="14.00" fill="#000000">&gt;&#45; Reduction </text>
<text text-anchor="start" x="354.5" y="-175.8" font-family="Courier,monospace" font-size="14.00" fill="#c0c0c0">param value ...</text>
<text text-anchor="start" x="296" y="-161.8" font-family="Courier,monospace" font-size="14.00" fill="#c0c0c0">|| default_value</text>
<text text-anchor="start" x="358" y="-147.8" font-family="Courier,monospace" font-size="14.00" fill="#000000"> </text>
<text text-anchor="start" x="192.5" y="-133.8" font-family="Courier,monospace" font-size="14.00" fill="#000000">ReduceToRow(Reduction(</text>
<text text-anchor="start" x="374.5" y="-133.8" font-family="Courier,monospace" font-size="14.00" fill="#c0c0c0">param, value, ...</text>
<text text-anchor="start" x="515.5" y="-133.8" font-family="Courier,monospace" font-size="14.00" fill="#000000">))</text>
<text text-anchor="start" x="251" y="-119.8" font-family="Courier,monospace" font-size="14.00" fill="#c0c0c0">|&gt; IfMissing(default_value)</text>
</g>
<!-- Matrix_values&#45;&gt;VFM1 -->
<g id="edge4" class="edge">
<title>Matrix_values&#45;&gt;VFM1:w</title>
<path fill="none" stroke="#000000" d="M94.9613,-121.1467C115.3804,-133.3059 144.8348,-147.5997 174.1512,-150.4796"/>
<polygon fill="#000000" stroke="#000000" points="174.3368,-153.9932 184.5,-151 174.6884,-147.0021 174.3368,-153.9932"/>
</g>
<!-- VFM2 -->
<g id="node5" class="node">
<title>VFM2</title>
<polygon fill="none" stroke="#000000" stroke-dasharray="1,5" points="553,-94 172,-94 172,-16 553,-16 553,-94"/>
<text text-anchor="start" x="246.5" y="-79.8" font-family="Courier,monospace" font-size="14.00" fill="#000000">&gt;| Reduction </text>
<text text-anchor="start" x="354.5" y="-79.8" font-family="Courier,monospace" font-size="14.00" fill="#c0c0c0">param value ...</text>
<text text-anchor="start" x="296" y="-65.8" font-family="Courier,monospace" font-size="14.00" fill="#c0c0c0">|| default_value</text>
<text text-anchor="start" x="358" y="-51.8" font-family="Courier,monospace" font-size="14.00" fill="#000000"> </text>
<text text-anchor="start" x="180" y="-37.8" font-family="Courier,monospace" font-size="14.00" fill="#000000">ReduceToColumn(Reduction(</text>
<text text-anchor="start" x="387" y="-37.8" font-family="Courier,monospace" font-size="14.00" fill="#c0c0c0">param, value, ...</text>
<text text-anchor="start" x="528" y="-37.8" font-family="Courier,monospace" font-size="14.00" fill="#000000">))</text>
<text text-anchor="start" x="251" y="-23.8" font-family="Courier,monospace" font-size="14.00" fill="#c0c0c0">|&gt; IfMissing(default_value)</text>
</g>
<!-- Matrix_values&#45;&gt;VFM2 -->
<g id="edge3" class="edge">
<title>Matrix_values&#45;&gt;VFM2:w</title>
<path fill="none" stroke="#000000" d="M91.6616,-84.8533C109.49,-72.8003 135.2706,-58.6498 161.4588,-55.5985"/>
<polygon fill="#000000" stroke="#000000" points="161.726,-59.0889 171.5,-55 161.3094,-52.1013 161.726,-59.0889"/>
</g>
<!-- Vector_values -->
<g id="node2" class="node">
<title>Vector_values</title>
<polygon fill="none" stroke="#000000" points="932,-120 795,-120 795,-84 932,-84 932,-120"/>
<text text-anchor="start" x="803" y="-105.8" font-family="Sans-Serif" font-size="14.00" fill="#000000"> VectorState</text>
<text text-anchor="start" x="877" y="-105.8" font-family="Sans-Serif" font-style="italic" baseline-shift="sub" font-size="14.00" fill="#000000">values</text>
<text text-anchor="start" x="912" y="-105.8" font-family="Sans-Serif" font-size="14.00" fill="#000000">   </text>
<text text-anchor="start" x="861.5" y="-91.8" font-family="Sans-Serif" font-size="14.00" fill="#000000"> </text>
</g>
<!-- VFM1_ -->
<g id="node4" class="node">
<title>VFM1_</title>
<polygon fill="none" stroke="#000000" points="735.5,-152 600.5,-152 600.5,-128 735.5,-128 747.5,-140 735.5,-152"/>
<text text-anchor="middle" x="674" y="-136.3" font-family="Sans-Serif" font-size="14.00" fill="#000000">reduce matrix to row  </text>
</g>
<!-- VFM1&#45;&gt;VFM1_ -->
<g id="edge1" class="edge">
<title>VFM1:e&#45;&gt;VFM1_:w</title>
<path fill="none" stroke="#000000" d="M540.5,-151C563.6108,-151 571.0813,-142.8762 589.7933,-140.5914"/>
<polygon fill="#000000" stroke="#000000" points="590.2192,-144.0727 600,-140 589.8143,-137.0844 590.2192,-144.0727"/>
</g>
<!-- VFM1_&#45;&gt;Vector_values -->
<g id="edge6" class="edge">
<title>VFM1_:e&#45;&gt;Vector_values</title>
<path fill="none" stroke="#000000" d="M748,-140C772.1637,-140 797.8109,-132.4024 818.7837,-124.0016"/>
<polygon fill="#000000" stroke="#000000" points="820.1992,-127.2034 828.0688,-120.1097 817.4932,-120.7475 820.1992,-127.2034"/>
</g>
<!-- VFM2_ -->
<g id="node6" class="node">
<title>VFM2_</title>
<polygon fill="none" stroke="#000000" points="747,-77 589,-77 589,-53 747,-53 759,-65 747,-77"/>
<text text-anchor="middle" x="674" y="-61.3" font-family="Sans-Serif" font-size="14.00" fill="#000000">reduce matrix to column  </text>
</g>
<!-- VFM2&#45;&gt;VFM2_ -->
<g id="edge2" class="edge">
<title>VFM2:e&#45;&gt;VFM2_:w</title>
<path fill="none" stroke="#000000" d="M553,-55C565.5841,-55 570.2331,-60.7428 578.9736,-63.5245"/>
<polygon fill="#000000" stroke="#000000" points="578.5969,-67.0066 589,-65 579.6162,-60.0812 578.5969,-67.0066"/>
</g>
<!-- VFM2_&#45;&gt;Vector_values -->
<g id="edge5" class="edge">
<title>VFM2_:e&#45;&gt;Vector_values</title>
<path fill="none" stroke="#000000" d="M759,-65C780.3059,-65 802.7264,-71.919 821.3134,-79.7729"/>
<polygon fill="#000000" stroke="#000000" points="820.0985,-83.0632 830.6575,-83.9336 822.9459,-76.6685 820.0985,-83.0632"/>
</g>
</g>
</svg>
