<?xml version="1.0" encoding="UTF-8" standalone="no"?>
<!DOCTYPE svg PUBLIC "-//W3C//DTD SVG 1.1//EN"
 "http://www.w3.org/Graphics/SVG/1.1/DTD/svg11.dtd">
<!-- Generated by graphviz version 2.40.1 (0)
 -->
<!-- Title: %3 Pages: 1 -->
<svg width="2085pt" height="641pt"
 viewBox="0.00 0.00 2085.00 641.00" xmlns="http://www.w3.org/2000/svg" xmlns:xlink="http://www.w3.org/1999/xlink">
<g id="graph0" class="graph" transform="scale(1 1) rotate(0) translate(4 637)">
<title>%3</title>
<polygon fill="#ffffff" stroke="transparent" points="-4,4 -4,-637 2081,-637 2081,4 -4,4"/>
<g id="clust1" class="cluster">
<title>cluster_all</title>
<polygon fill="none" stroke="#000000" points="190,-8 190,-625 1891,-625 1891,-8 190,-8"/>
<text text-anchor="middle" x="304" y="-598.6" font-family="Sans-Serif" font-size="28.00" fill="#000000">MATRIX GROUP</text>
</g>
<!-- Matrix_base_values -->
<g id="node1" class="node">
<title>Matrix_base_values</title>
<polygon fill="none" stroke="#000000" points="162,-177 0,-177 0,-141 162,-141 162,-177"/>
<text text-anchor="start" x="8" y="-162.8" font-family="Sans-Serif" font-size="14.00" fill="#000000">MatrixState</text>
<text text-anchor="start" x="78" y="-162.8" font-family="Sans-Serif" font-style="italic" baseline-shift="sub" font-size="14.00" fill="#000000">base values</text>
<text text-anchor="start" x="142" y="-162.8" font-family="Sans-Serif" font-size="14.00" fill="#000000">   </text>
<text text-anchor="start" x="79" y="-148.8" font-family="Sans-Serif" font-size="14.00" fill="#000000"> </text>
</g>
<!-- MG2 -->
<g id="node6" class="node">
<title>MG2</title>
<polygon fill="none" stroke="#000000" stroke-dasharray="1,5" points="589.5,-302 202.5,-302 202.5,-168 589.5,-168 589.5,-302"/>
<text text-anchor="start" x="301.5" y="-287.8" font-family="Courier,monospace" font-size="14.00" fill="#000000">|/</text>
<text text-anchor="start" x="318.5" y="-287.8" font-family="Courier,monospace" font-style="italic" baseline-shift="sub" font-size="14.00" fill="#000000">or </text>
<text text-anchor="start" x="341.5" y="-287.8" font-family="Courier,monospace" font-size="14.00" fill="#000000">&#45;/ matrix_property</text>
<text text-anchor="start" x="391.5" y="-273.8" font-family="Courier,monospace" font-size="14.00" fill="#000000"> </text>
<text text-anchor="start" x="329.5" y="-259.8" font-family="Courier,monospace" font-size="14.00" fill="#c0c0c0">|| default_value</text>
<text text-anchor="start" x="334" y="-245.8" font-family="Courier,monospace" font-size="14.00" fill="#000000">@| column_value</text>
<text text-anchor="start" x="391.5" y="-231.8" font-family="Courier,monospace" font-size="14.00" fill="#000000"> </text>
<text text-anchor="start" x="210.5" y="-217.8" font-family="Courier,monospace" font-size="14.00" fill="#000000">GroupColumnsBy</text>
<text text-anchor="start" x="326.5" y="-217.8" font-family="Courier,monospace" font-style="italic" baseline-shift="sub" font-size="14.00" fill="#000000">or </text>
<text text-anchor="start" x="349.5" y="-217.8" font-family="Courier,monospace" font-size="14.00" fill="#000000">GroupRowsBy(matrix_property)</text>
<text text-anchor="start" x="391.5" y="-203.8" font-family="Courier,monospace" font-size="14.00" fill="#000000"> </text>
<text text-anchor="start" x="284.5" y="-189.8" font-family="Courier,monospace" font-size="14.00" fill="#c0c0c0">|&gt; IfMissing(default_value)</text>
<text text-anchor="start" x="272" y="-175.8" font-family="Courier,monospace" font-size="14.00" fill="#000000">|&gt; ColumnIsEqual(column_value)</text>
</g>
<!-- Matrix_base_values&#45;&gt;MG2 -->
<g id="edge16" class="edge">
<title>Matrix_base_values&#45;&gt;MG2:w</title>
<path fill="none" stroke="#000000" d="M96.637,-177.0109C116.3171,-197.7294 152.3611,-229.5304 191.8846,-234.3729"/>
<polygon fill="#000000" stroke="#000000" points="191.8026,-237.8744 202,-235 192.2358,-230.8878 191.8026,-237.8744"/>
</g>
<!-- MG3 -->
<g id="node8" class="node">
<title>MG3</title>
<polygon fill="none" stroke="#000000" stroke-dasharray="1,5" points="594,-150 198,-150 198,-16 594,-16 594,-150"/>
<text text-anchor="start" x="301.5" y="-135.8" font-family="Courier,monospace" font-size="14.00" fill="#000000">|/</text>
<text text-anchor="start" x="318.5" y="-135.8" font-family="Courier,monospace" font-style="italic" baseline-shift="sub" font-size="14.00" fill="#000000">or </text>
<text text-anchor="start" x="341.5" y="-135.8" font-family="Courier,monospace" font-size="14.00" fill="#000000">&#45;/ matrix_property</text>
<text text-anchor="start" x="391.5" y="-121.8" font-family="Courier,monospace" font-size="14.00" fill="#000000"> </text>
<text text-anchor="start" x="329.5" y="-107.8" font-family="Courier,monospace" font-size="14.00" fill="#c0c0c0">|| default_value</text>
<text text-anchor="start" x="276" y="-93.8" font-family="Courier,monospace" font-size="14.00" fill="#000000">@ columns_axis = column_value</text>
<text text-anchor="start" x="391.5" y="-79.8" font-family="Courier,monospace" font-size="14.00" fill="#000000"> </text>
<text text-anchor="start" x="211" y="-65.8" font-family="Courier,monospace" font-size="14.00" fill="#000000">GroupColumnsBy(matrix_property)</text>
<text text-anchor="start" x="467" y="-65.8" font-family="Courier,monospace" font-style="italic" baseline-shift="sub" font-size="14.00" fill="#000000">or </text>
<text text-anchor="start" x="490" y="-65.8" font-family="Courier,monospace" font-size="14.00" fill="#000000">GroupRowsBy</text>
<text text-anchor="start" x="391.5" y="-51.8" font-family="Courier,monospace" font-size="14.00" fill="#000000"> </text>
<text text-anchor="start" x="284.5" y="-37.8" font-family="Courier,monospace" font-size="14.00" fill="#c0c0c0">|&gt; IfMissing(default_value)</text>
<text text-anchor="start" x="206" y="-23.8" font-family="Courier,monospace" font-size="14.00" fill="#000000">|&gt; Axis(columns_axis) |&gt; IsEqual(column_value)</text>
</g>
<!-- Matrix_base_values&#45;&gt;MG3 -->
<g id="edge17" class="edge">
<title>Matrix_base_values&#45;&gt;MG3:w</title>
<path fill="none" stroke="#000000" d="M95.9966,-140.9891C114.8201,-120.3584 149.3208,-88.7389 187.6432,-83.6901"/>
<polygon fill="#000000" stroke="#000000" points="188.2549,-87.1572 198,-83 187.7894,-80.1727 188.2549,-87.1572"/>
</g>
<!-- Matrix_final_values -->
<g id="node2" class="node">
<title>Matrix_final_values</title>
<polygon fill="none" stroke="#000000" points="2077,-281 1919,-281 1919,-245 2077,-245 2077,-281"/>
<text text-anchor="start" x="1927" y="-266.8" font-family="Sans-Serif" font-size="14.00" fill="#000000">MatrixState</text>
<text text-anchor="start" x="1997" y="-266.8" font-family="Sans-Serif" font-style="italic" baseline-shift="sub" font-size="14.00" fill="#000000">final values</text>
<text text-anchor="start" x="2057" y="-266.8" font-family="Sans-Serif" font-size="14.00" fill="#000000">   </text>
<text text-anchor="start" x="1996" y="-252.8" font-family="Sans-Serif" font-size="14.00" fill="#000000"> </text>
</g>
<!-- Matrix_group_values -->
<g id="node3" class="node">
<title>Matrix_group_values</title>
<polygon fill="none" stroke="#000000" points="1276,-357 1049,-357 1049,-251 1276,-251 1276,-357"/>
<text text-anchor="start" x="1087" y="-342.8" font-family="Sans-Serif" font-size="14.00" fill="#000000">VectorState</text>
<text text-anchor="start" x="1157" y="-342.8" font-family="Sans-Serif" font-style="italic" baseline-shift="sub" font-size="14.00" fill="#000000">group values</text>
<text text-anchor="start" x="1226" y="-342.8" font-family="Sans-Serif" font-size="14.00" fill="#000000">   </text>
<text text-anchor="start" x="1160.5" y="-328.8" font-family="Sans-Serif" font-size="14.00" fill="#000000"> </text>
<text text-anchor="start" x="1057" y="-314.8" font-family="Sans-Serif" font-size="14.00" fill="#000000">GroupColumnsBy</text>
<text text-anchor="start" x="1166" y="-314.8" font-family="Sans-Serif" font-style="italic" baseline-shift="sub" font-size="14.00" fill="#000000">or </text>
<text text-anchor="start" x="1180" y="-314.8" font-family="Sans-Serif" font-size="14.00" fill="#000000">GroupRowsBy</text>
<text text-anchor="start" x="1160.5" y="-300.8" font-family="Sans-Serif" font-size="14.00" fill="#000000"> </text>
<text text-anchor="start" x="1160.5" y="-286.8" font-family="Sans-Serif" font-size="14.00" fill="#000000"> </text>
<text text-anchor="start" x="1089.5" y="-272.8" font-family="Sans-Serif" font-size="14.00" fill="#000000">MatrixState</text>
<text text-anchor="start" x="1159.5" y="-272.8" font-family="Sans-Serif" font-style="italic" baseline-shift="sub" font-size="14.00" fill="#000000">base values</text>
<text text-anchor="start" x="1223.5" y="-272.8" font-family="Sans-Serif" font-size="14.00" fill="#000000">   </text>
<text text-anchor="start" x="1160.5" y="-258.8" font-family="Sans-Serif" font-size="14.00" fill="#000000"> </text>
</g>
<!-- MG5 -->
<g id="node12" class="node">
<title>MG5</title>
<g id="a_node12"><a xlink:href="#../DataAxesFormats.Queries.VECTOR_OPERATION" xlink:title="VECTOR OPERATION">
<polygon fill="none" stroke="#000000" points="1239.5,-487 1085.5,-487 1085.5,-483 1081.5,-483 1081.5,-479 1085.5,-479 1085.5,-459 1081.5,-459 1081.5,-455 1085.5,-455 1085.5,-451 1239.5,-451 1239.5,-487"/>
<polyline fill="none" stroke="#000000" points="1085.5,-483 1089.5,-483 1089.5,-479 1085.5,-479 "/>
<polyline fill="none" stroke="#000000" points="1085.5,-459 1089.5,-459 1089.5,-455 1085.5,-455 "/>
<text text-anchor="middle" x="1162.5" y="-465.3" font-family="Sans-Serif" font-size="14.00" fill="#000000">VECTOR OPERATION</text>
</a>
</g>
</g>
<!-- Matrix_group_values&#45;&gt;MG5 -->
<g id="edge10" class="edge">
<title>Matrix_group_values&#45;&gt;MG5</title>
<path fill="none" stroke="#000000" d="M1236.8688,-357.1738C1258.4373,-386.5765 1247.5687,-415.9791 1204.2628,-445.3818"/>
<polygon fill="#000000" stroke="#000000" points="1202.2842,-442.4933 1195.7996,-450.8719 1206.0939,-448.3659 1202.2842,-442.4933"/>
</g>
<!-- MG6 -->
<g id="node13" class="node">
<title>MG6</title>
<polygon fill="none" stroke="#000000" stroke-dasharray="1,5" points="1585,-309 1312,-309 1312,-217 1585,-217 1585,-309"/>
<text text-anchor="start" x="1329" y="-294.8" font-family="Courier,monospace" font-size="14.00" fill="#000000">&gt;|</text>
<text text-anchor="start" x="1346" y="-294.8" font-family="Courier,monospace" font-style="italic" baseline-shift="sub" font-size="14.00" fill="#000000">or </text>
<text text-anchor="start" x="1369" y="-294.8" font-family="Courier,monospace" font-size="14.00" fill="#000000">&gt;&#45; Reduction </text>
<text text-anchor="start" x="1477" y="-294.8" font-family="Courier,monospace" font-size="14.00" fill="#c0c0c0">param value</text>
<text text-anchor="start" x="1382" y="-280.8" font-family="Courier,monospace" font-size="14.00" fill="#c0c0c0">|| default_value</text>
<text text-anchor="start" x="1444" y="-266.8" font-family="Courier,monospace" font-size="14.00" fill="#000000"> </text>
<text text-anchor="start" x="1329" y="-252.8" font-family="Courier,monospace" font-size="14.00" fill="#000000">ReduceToColumn</text>
<text text-anchor="start" x="1445" y="-252.8" font-family="Courier,monospace" font-style="italic" baseline-shift="sub" font-size="14.00" fill="#000000">or </text>
<text text-anchor="start" x="1468" y="-252.8" font-family="Courier,monospace" font-size="14.00" fill="#000000">ReduceToRows</text>
<text text-anchor="start" x="1320" y="-238.8" font-family="Courier,monospace" font-size="14.00" fill="#000000">(Reduction(</text>
<text text-anchor="start" x="1411" y="-238.8" font-family="Courier,monospace" font-size="14.00" fill="#c0c0c0">param = value, ...</text>
<text text-anchor="start" x="1560" y="-238.8" font-family="Courier,monospace" font-size="14.00" fill="#000000">))</text>
<text text-anchor="start" x="1337" y="-224.8" font-family="Courier,monospace" font-size="14.00" fill="#c0c0c0">|&gt; IfMissing(default_value)</text>
</g>
<!-- Matrix_group_values&#45;&gt;MG6 -->
<g id="edge13" class="edge">
<title>Matrix_group_values&#45;&gt;MG6:w</title>
<path fill="none" stroke="#000000" d="M1276.3173,-266.1491C1284.799,-264.7519 1293.3387,-263.7497 1301.7738,-263.287"/>
<polygon fill="#000000" stroke="#000000" points="1302.1022,-266.7793 1312,-263 1301.9057,-259.782 1302.1022,-266.7793"/>
</g>
<!-- MG7 -->
<g id="node15" class="node">
<title>MG7</title>
<g id="a_node15"><a xlink:href="#../DataAxesFormats.Queries.VECTOR_AS_AXIS" xlink:title="VECTOR AS AXIS">
<polygon fill="none" stroke="#000000" points="1512.5,-363 1384.5,-363 1384.5,-359 1380.5,-359 1380.5,-355 1384.5,-355 1384.5,-335 1380.5,-335 1380.5,-331 1384.5,-331 1384.5,-327 1512.5,-327 1512.5,-363"/>
<polyline fill="none" stroke="#000000" points="1384.5,-359 1388.5,-359 1388.5,-355 1384.5,-355 "/>
<polyline fill="none" stroke="#000000" points="1384.5,-335 1388.5,-335 1388.5,-331 1384.5,-331 "/>
<text text-anchor="middle" x="1448.5" y="-341.3" font-family="Sans-Serif" font-size="14.00" fill="#000000">VECTOR AS AXIS</text>
</a>
</g>
</g>
<!-- Matrix_group_values&#45;&gt;MG7 -->
<g id="edge14" class="edge">
<title>Matrix_group_values&#45;&gt;MG7:w</title>
<path fill="none" stroke="#000000" d="M1276.1247,-333.1961C1307.4436,-339.2242 1341.7928,-344.0208 1374.4311,-344.8672"/>
<polygon fill="#000000" stroke="#000000" points="1374.4547,-348.3677 1384.5,-345 1374.5471,-341.3683 1374.4547,-348.3677"/>
</g>
<!-- MG1 -->
<g id="node4" class="node">
<title>MG1</title>
<polygon fill="none" stroke="#000000" stroke-dasharray="1,5" points="589.5,-578 202.5,-578 202.5,-444 589.5,-444 589.5,-578"/>
<text text-anchor="start" x="301.5" y="-563.8" font-family="Courier,monospace" font-size="14.00" fill="#000000">|/</text>
<text text-anchor="start" x="318.5" y="-563.8" font-family="Courier,monospace" font-style="italic" baseline-shift="sub" font-size="14.00" fill="#000000">or </text>
<text text-anchor="start" x="341.5" y="-563.8" font-family="Courier,monospace" font-size="14.00" fill="#000000">&#45;/ matrix_property</text>
<text text-anchor="start" x="391.5" y="-549.8" font-family="Courier,monospace" font-size="14.00" fill="#000000"> </text>
<text text-anchor="start" x="329.5" y="-535.8" font-family="Courier,monospace" font-size="14.00" fill="#c0c0c0">|| default_value</text>
<text text-anchor="start" x="346" y="-521.8" font-family="Courier,monospace" font-size="14.00" fill="#000000">@&#45; row_value</text>
<text text-anchor="start" x="391.5" y="-507.8" font-family="Courier,monospace" font-size="14.00" fill="#000000"> </text>
<text text-anchor="start" x="210.5" y="-493.8" font-family="Courier,monospace" font-size="14.00" fill="#000000">GroupColumnsBy</text>
<text text-anchor="start" x="326.5" y="-493.8" font-family="Courier,monospace" font-style="italic" baseline-shift="sub" font-size="14.00" fill="#000000">or </text>
<text text-anchor="start" x="349.5" y="-493.8" font-family="Courier,monospace" font-size="14.00" fill="#000000">GroupRowsBy(matrix_property)</text>
<text text-anchor="start" x="391.5" y="-479.8" font-family="Courier,monospace" font-size="14.00" fill="#000000"> </text>
<text text-anchor="start" x="284.5" y="-465.8" font-family="Courier,monospace" font-size="14.00" fill="#c0c0c0">|&gt; IfMissing(default_value)</text>
<text text-anchor="start" x="296.5" y="-451.8" font-family="Courier,monospace" font-size="14.00" fill="#000000">|&gt; RowIsEqual(row_value)</text>
</g>
<!-- MG1_ -->
<g id="node5" class="node">
<title>MG1_</title>
<polygon fill="none" stroke="#000000" points="989.5,-481 641.5,-481 641.5,-457 989.5,-457 1001.5,-469 989.5,-481"/>
<text text-anchor="start" x="649.5" y="-472.8" font-family="Sans-Serif" font-size="14.00" fill="#000000">lookup square matrix row matrix columns</text>
<text text-anchor="start" x="897.5" y="-472.8" font-family="Sans-Serif" font-style="italic" baseline-shift="sub" font-size="14.00" fill="#000000">or </text>
<text text-anchor="start" x="911.5" y="-472.8" font-family="Sans-Serif" font-size="14.00" fill="#000000">rows groups  </text>
<text text-anchor="start" x="819.5" y="-458.8" font-family="Sans-Serif" font-size="14.00" fill="#000000"> </text>
</g>
<!-- MG1&#45;&gt;MG1_ -->
<g id="edge1" class="edge">
<title>MG1:e&#45;&gt;MG1_:w</title>
<path fill="none" stroke="#000000" d="M590,-511C615.6128,-511 613.321,-479.4154 631.5217,-471.0257"/>
<polygon fill="#000000" stroke="#000000" points="632.3963,-474.4197 641.5,-469 631.0035,-467.5596 632.3963,-474.4197"/>
</g>
<!-- MG1_&#45;&gt;Matrix_group_values -->
<g id="edge2" class="edge">
<title>MG1_:e&#45;&gt;Matrix_group_values:sw</title>
<path fill="none" stroke="#000000" d="M1001.5,-469C1096.5498,-469 988.067,-204.0624 1040.8182,-244.1393"/>
<polygon fill="#000000" stroke="#000000" points="1038.7101,-246.9492 1048.5,-251 1043.3729,-241.7283 1038.7101,-246.9492"/>
</g>
<!-- MG1_&#45;&gt;MG5 -->
<!-- MG2_ -->
<g id="node7" class="node">
<title>MG2_</title>
<polygon fill="none" stroke="#000000" points="1001,-268 630,-268 630,-244 1001,-244 1013,-256 1001,-268"/>
<text text-anchor="start" x="638" y="-259.8" font-family="Sans-Serif" font-size="14.00" fill="#000000">lookup square matrix column matrix columns</text>
<text text-anchor="start" x="909" y="-259.8" font-family="Sans-Serif" font-style="italic" baseline-shift="sub" font-size="14.00" fill="#000000">or </text>
<text text-anchor="start" x="923" y="-259.8" font-family="Sans-Serif" font-size="14.00" fill="#000000">rows groups  </text>
<text text-anchor="start" x="819.5" y="-245.8" font-family="Sans-Serif" font-size="14.00" fill="#000000"> </text>
</g>
<!-- MG2&#45;&gt;MG2_ -->
<g id="edge3" class="edge">
<title>MG2:e&#45;&gt;MG2_:w</title>
<path fill="none" stroke="#000000" d="M590,-235C606.0003,-235 609.1503,-248.3352 619.9301,-253.7526"/>
<polygon fill="#000000" stroke="#000000" points="619.4777,-257.2377 630,-256 621.0025,-250.4058 619.4777,-257.2377"/>
</g>
<!-- MG2_&#45;&gt;Matrix_group_values -->
<g id="edge4" class="edge">
<title>MG2_:e&#45;&gt;Matrix_group_values</title>
<path fill="none" stroke="#000000" d="M1013,-256C1021.6156,-256 1030.3826,-256.7316 1039.1322,-258.0142"/>
<polygon fill="#000000" stroke="#000000" points="1038.5499,-261.4654 1048.9944,-259.6868 1039.7204,-254.5639 1038.5499,-261.4654"/>
</g>
<!-- MG3_ -->
<g id="node9" class="node">
<title>MG3_</title>
<polygon fill="none" stroke="#000000" points="978.5,-154 652.5,-154 652.5,-130 978.5,-130 990.5,-142 978.5,-154"/>
<text text-anchor="start" x="660.5" y="-145.8" font-family="Sans-Serif" font-size="14.00" fill="#000000">lookup matrix column matrix columns</text>
<text text-anchor="start" x="886.5" y="-145.8" font-family="Sans-Serif" font-style="italic" baseline-shift="sub" font-size="14.00" fill="#000000">or </text>
<text text-anchor="start" x="900.5" y="-145.8" font-family="Sans-Serif" font-size="14.00" fill="#000000">rows groups  </text>
<text text-anchor="start" x="819.5" y="-131.8" font-family="Sans-Serif" font-size="14.00" fill="#000000"> </text>
</g>
<!-- MG3&#45;&gt;MG3_ -->
<g id="edge5" class="edge">
<title>MG3:e&#45;&gt;MG3_:w</title>
<path fill="none" stroke="#000000" d="M594,-83C627.0324,-83 618.2302,-130.211 642.4381,-140.1696"/>
<polygon fill="#000000" stroke="#000000" points="642.035,-143.6536 652.5,-142 643.2879,-136.7666 642.035,-143.6536"/>
</g>
<!-- MG3_&#45;&gt;Matrix_group_values -->
<g id="edge6" class="edge">
<title>MG3_:e&#45;&gt;Matrix_group_values</title>
<path fill="none" stroke="#000000" d="M990.5,-142C1051.3886,-142 1099.4931,-196.4627 1129.1683,-242.2312"/>
<polygon fill="#000000" stroke="#000000" points="1126.3775,-244.3669 1134.6748,-250.9551 1132.2969,-240.6306 1126.3775,-244.3669"/>
</g>
<!-- MG4 -->
<g id="node10" class="node">
<title>MG4</title>
<polygon fill="none" stroke="#000000" stroke-dasharray="1,5" points="589.5,-426 202.5,-426 202.5,-320 589.5,-320 589.5,-426"/>
<text text-anchor="start" x="301.5" y="-411.8" font-family="Courier,monospace" font-size="14.00" fill="#000000">|/</text>
<text text-anchor="start" x="318.5" y="-411.8" font-family="Courier,monospace" font-style="italic" baseline-shift="sub" font-size="14.00" fill="#000000">or </text>
<text text-anchor="start" x="341.5" y="-411.8" font-family="Courier,monospace" font-size="14.00" fill="#000000">&#45;/ vector_property</text>
<text text-anchor="start" x="391.5" y="-397.8" font-family="Courier,monospace" font-size="14.00" fill="#000000"> </text>
<text text-anchor="start" x="329.5" y="-383.8" font-family="Courier,monospace" font-size="14.00" fill="#c0c0c0">|| default_value</text>
<text text-anchor="start" x="391.5" y="-369.8" font-family="Courier,monospace" font-size="14.00" fill="#000000"> </text>
<text text-anchor="start" x="210.5" y="-355.8" font-family="Courier,monospace" font-size="14.00" fill="#000000">GroupColumnsBy</text>
<text text-anchor="start" x="326.5" y="-355.8" font-family="Courier,monospace" font-style="italic" baseline-shift="sub" font-size="14.00" fill="#000000">or </text>
<text text-anchor="start" x="349.5" y="-355.8" font-family="Courier,monospace" font-size="14.00" fill="#000000">GroupRowsBy(vector_property)</text>
<text text-anchor="start" x="391.5" y="-341.8" font-family="Courier,monospace" font-size="14.00" fill="#000000"> </text>
<text text-anchor="start" x="284.5" y="-327.8" font-family="Courier,monospace" font-size="14.00" fill="#c0c0c0">|&gt; IfMissing(default_value)</text>
</g>
<!-- MG4_ -->
<g id="node11" class="node">
<title>MG4_</title>
<polygon fill="none" stroke="#000000" points="954,-364 677,-364 677,-340 954,-340 966,-352 954,-364"/>
<text text-anchor="start" x="685" y="-355.8" font-family="Sans-Serif" font-size="14.00" fill="#000000">lookup vector matrix columns</text>
<text text-anchor="start" x="862" y="-355.8" font-family="Sans-Serif" font-style="italic" baseline-shift="sub" font-size="14.00" fill="#000000">or </text>
<text text-anchor="start" x="876" y="-355.8" font-family="Sans-Serif" font-size="14.00" fill="#000000">rows groups  </text>
<text text-anchor="start" x="819.5" y="-341.8" font-family="Sans-Serif" font-size="14.00" fill="#000000"> </text>
</g>
<!-- MG4&#45;&gt;MG4_ -->
<g id="edge7" class="edge">
<title>MG4:e&#45;&gt;MG4_:w</title>
<path fill="none" stroke="#000000" d="M590,-373C625.8523,-373 635.2727,-355.7529 666.169,-352.5191"/>
<polygon fill="#000000" stroke="#000000" points="666.6883,-355.9975 676.5,-352 666.3369,-349.0063 666.6883,-355.9975"/>
</g>
<!-- MG4_&#45;&gt;Matrix_group_values -->
<g id="edge8" class="edge">
<title>MG4_:e&#45;&gt;Matrix_group_values</title>
<path fill="none" stroke="#000000" d="M966.5,-352C990.2861,-352 1015.2418,-348.6237 1039.0737,-343.662"/>
<polygon fill="#000000" stroke="#000000" points="1039.8316,-347.079 1048.8543,-341.5255 1038.3377,-340.2403 1039.8316,-347.079"/>
</g>
<!-- MG5&#45;&gt;Matrix_group_values -->
<g id="edge11" class="edge">
<title>MG5&#45;&gt;Matrix_group_values</title>
<path fill="none" stroke="#000000" d="M1129.2004,-450.8719C1083.6247,-422.5673 1068.1087,-394.2627 1082.6526,-365.958"/>
<polygon fill="#000000" stroke="#000000" points="1085.8089,-367.511 1088.1312,-357.1738 1079.8694,-363.8066 1085.8089,-367.511"/>
</g>
<!-- MG6_ -->
<g id="node14" class="node">
<title>MG6_</title>
<polygon fill="none" stroke="#000000" points="1871,-275 1621,-275 1621,-251 1871,-251 1883,-263 1871,-275"/>
<text text-anchor="start" x="1629" y="-266.8" font-family="Sans-Serif" font-size="14.00" fill="#000000"> reduce grouped matrix columns</text>
<text text-anchor="start" x="1824" y="-266.8" font-family="Sans-Serif" font-style="italic" baseline-shift="sub" font-size="14.00" fill="#000000">or </text>
<text text-anchor="start" x="1838" y="-266.8" font-family="Sans-Serif" font-size="14.00" fill="#000000">rows  </text>
<text text-anchor="start" x="1748" y="-252.8" font-family="Sans-Serif" font-size="14.00" fill="#000000">  </text>
</g>
<!-- MG6&#45;&gt;MG6_ -->
<g id="edge12" class="edge">
<title>MG6:e&#45;&gt;MG6_:w</title>
<path fill="none" stroke="#000000" d="M1585,-263C1597,-263 1602.25,-263 1610.875,-263"/>
<polygon fill="#000000" stroke="#000000" points="1611,-266.5001 1621,-263 1611,-259.5001 1611,-266.5001"/>
</g>
<!-- MG6_&#45;&gt;Matrix_final_values -->
<g id="edge18" class="edge">
<title>MG6_:e&#45;&gt;Matrix_final_values</title>
<path fill="none" stroke="#000000" d="M1883,-263C1891.323,-263 1899.9849,-263 1908.6545,-263"/>
<polygon fill="#000000" stroke="#000000" points="1908.8157,-266.5001 1918.8157,-263 1908.8156,-259.5001 1908.8157,-266.5001"/>
</g>
<!-- MG7&#45;&gt;MG6 -->
<g id="edge15" class="edge">
<title>MG7:s&#45;&gt;MG6:n</title>
<path fill="none" stroke="#000000" d="M1448.5,-319.4161C1448.5,-321.4902 1448.5,-323.75 1448.5,-327"/>
<polygon fill="#000000" stroke="#000000" points="1452.0001,-319 1448.5,-309 1445.0001,-319 1452.0001,-319"/>
</g>
</g>
</svg>
