<?xml version="1.0" encoding="UTF-8" standalone="no"?>
<!DOCTYPE svg PUBLIC "-//W3C//DTD SVG 1.1//EN"
 "http://www.w3.org/Graphics/SVG/1.1/DTD/svg11.dtd">
<!-- Generated by graphviz version 14.1.1 (20251213.1925)
 -->
<!-- Pages: 1 -->
<svg width="1639pt" height="593pt"
 viewBox="0.00 0.00 1639.00 593.00" xmlns="http://www.w3.org/2000/svg" xmlns:xlink="http://www.w3.org/1999/xlink">
<g id="graph0" class="graph" transform="scale(1 1) rotate(0) translate(4 589)">
<polygon fill="white" stroke="none" points="-4,4 -4,-589 1635.14,-589 1635.14,4 -4,4"/>
<g id="clust1" class="cluster">
<title>cluster_all</title>
<polygon fill="none" stroke="black" points="8,-8 8,-577 1623.14,-577 1623.14,-8 8,-8"/>
<text xml:space="preserve" text-anchor="middle" x="121.38" y="-546.4" font-family="Sans-Serif" font-size="28.00">MATRIX COUNT</text>
</g>
<!-- Matrix_values -->
<g id="node1" class="node">
<title>Matrix_values</title>
<polygon fill="none" stroke="black" points="1611.14,-252.59 1611.14,-275.41 1552.52,-291.55 1469.62,-291.55 1411,-275.41 1411,-252.59 1469.62,-236.45 1552.52,-236.45 1611.14,-252.59"/>
<polygon fill="none" stroke="black" points="1615.14,-249.54 1615.14,-278.46 1553.06,-295.55 1469.08,-295.55 1407,-278.46 1407,-249.54 1469.08,-232.45 1553.06,-232.45 1615.14,-249.54"/>
<text xml:space="preserve" text-anchor="start" x="1453.7" y="-265.7" font-family="Sans-Serif" font-size="14.00"> MatrixState</text>
<text xml:space="preserve" text-anchor="start" x="1526.45" y="-265.7" font-family="Sans-Serif" font-style="italic" baseline-shift="sub" font-size="14.00">values</text>
<text xml:space="preserve" text-anchor="start" x="1560.95" y="-265.7" font-family="Sans-Serif" font-size="14.00">  </text>
<text xml:space="preserve" text-anchor="start" x="1509.2" y="-251.7" font-family="Sans-Serif" font-size="14.00"> </text>
</g>
<!-- Vector_data -->
<g id="node2" class="node">
<title>Vector_data</title>
<polygon fill="none" stroke="black" points="185,-309 16,-309 16,-273 185,-273 185,-309"/>
<text xml:space="preserve" text-anchor="start" x="24" y="-292.7" font-family="Sans-Serif" font-size="14.00"> VectorState</text>
<text xml:space="preserve" text-anchor="start" x="98.25" y="-292.7" font-family="Sans-Serif" font-style="italic" baseline-shift="sub" font-size="14.00">values</text>
<text xml:space="preserve" text-anchor="start" x="132.75" y="-292.7" font-family="Sans-Serif" font-style="italic" font-size="14.00">or </text>
<text xml:space="preserve" text-anchor="start" x="148.5" y="-292.7" font-family="Sans-Serif" font-style="italic" baseline-shift="sub" font-size="14.00">axis</text>
<text xml:space="preserve" text-anchor="start" x="169.5" y="-292.7" font-family="Sans-Serif" font-size="14.00">  </text>
<text xml:space="preserve" text-anchor="start" x="98.62" y="-278.7" font-family="Sans-Serif" font-size="14.00"> </text>
</g>
<!-- MC1 -->
<g id="node4" class="node">
<title>MC1</title>
<polygon fill="none" stroke="black" stroke-dasharray="1,5" points="538.12,-139.75 299.38,-139.75 299.38,-16.25 538.12,-16.25 538.12,-139.75"/>
<text xml:space="preserve" text-anchor="start" x="348.62" y="-122.45" font-family="Courier,monospace" font-size="14.00">* matrix_property</text>
<text xml:space="preserve" text-anchor="start" x="352.75" y="-105.95" font-family="Courier,monospace" font-size="14.00" fill="gray">|| default_value</text>
<text xml:space="preserve" text-anchor="start" x="369.25" y="-89.45" font-family="Courier,monospace" font-size="14.00">@&#45; row_value</text>
<text xml:space="preserve" text-anchor="start" x="414.62" y="-72.95" font-family="Courier,monospace" font-size="14.00"> </text>
<text xml:space="preserve" text-anchor="start" x="319.75" y="-56.45" font-family="Courier,monospace" font-size="14.00">CountBy(matrix_property)</text>
<text xml:space="preserve" text-anchor="start" x="307.38" y="-39.95" font-family="Courier,monospace" font-size="14.00" fill="gray">|&gt; IfMissing(default_value)</text>
<text xml:space="preserve" text-anchor="start" x="319.75" y="-23.45" font-family="Courier,monospace" font-size="14.00">|&gt; RowIsEqual(row_value)</text>
</g>
<!-- Vector_data&#45;&gt;MC1 -->
<g id="edge15" class="edge">
<title>Vector_data&#45;&gt;MC1:w</title>
<path fill="none" stroke="black" d="M108.04,-272.84C127.18,-223.19 188.01,-88.24 287.07,-78.55"/>
<polygon fill="black" stroke="black" points="287.05,-82.06 296.86,-78.07 286.7,-75.06 287.05,-82.06"/>
</g>
<!-- MC2 -->
<g id="node6" class="node">
<title>MC2</title>
<polygon fill="none" stroke="black" stroke-dasharray="1,5" points="550.5,-281.75 287,-281.75 287,-158.25 550.5,-158.25 550.5,-281.75"/>
<text xml:space="preserve" text-anchor="start" x="348.62" y="-264.45" font-family="Courier,monospace" font-size="14.00">* matrix_property</text>
<text xml:space="preserve" text-anchor="start" x="352.75" y="-247.95" font-family="Courier,monospace" font-size="14.00" fill="gray">|| default_value</text>
<text xml:space="preserve" text-anchor="start" x="356.88" y="-231.45" font-family="Courier,monospace" font-size="14.00">@| column_value</text>
<text xml:space="preserve" text-anchor="start" x="414.62" y="-214.95" font-family="Courier,monospace" font-size="14.00"> </text>
<text xml:space="preserve" text-anchor="start" x="319.75" y="-198.45" font-family="Courier,monospace" font-size="14.00">CountBy(matrix_property)</text>
<text xml:space="preserve" text-anchor="start" x="307.38" y="-181.95" font-family="Courier,monospace" font-size="14.00" fill="gray">|&gt; IfMissing(default_value)</text>
<text xml:space="preserve" text-anchor="start" x="295" y="-165.45" font-family="Courier,monospace" font-size="14.00">|&gt; ColumnIsEqual(column_value)</text>
</g>
<!-- Vector_data&#45;&gt;MC2 -->
<g id="edge16" class="edge">
<title>Vector_data&#45;&gt;MC2:w</title>
<path fill="none" stroke="black" d="M129.91,-272.53C162.81,-252.85 219.55,-224.02 274.64,-220.38"/>
<polygon fill="black" stroke="black" points="274.61,-223.88 284.49,-220.05 274.38,-216.89 274.61,-223.88"/>
</g>
<!-- MC3 -->
<g id="node8" class="node">
<title>MC3</title>
<polygon fill="none" stroke="black" stroke-dasharray="1,5" points="616.5,-423.75 221,-423.75 221,-300.25 616.5,-300.25 616.5,-423.75"/>
<text xml:space="preserve" text-anchor="start" x="348.62" y="-406.45" font-family="Courier,monospace" font-size="14.00">* matrix_property</text>
<text xml:space="preserve" text-anchor="start" x="352.75" y="-389.95" font-family="Courier,monospace" font-size="14.00" fill="gray">|| default_value</text>
<text xml:space="preserve" text-anchor="start" x="299.12" y="-373.45" font-family="Courier,monospace" font-size="14.00">@ columns_axis = column_value</text>
<text xml:space="preserve" text-anchor="start" x="414.62" y="-356.95" font-family="Courier,monospace" font-size="14.00"> </text>
<text xml:space="preserve" text-anchor="start" x="319.75" y="-340.45" font-family="Courier,monospace" font-size="14.00">CountBy(matrix_property)</text>
<text xml:space="preserve" text-anchor="start" x="307.38" y="-323.95" font-family="Courier,monospace" font-size="14.00" fill="gray">|&gt; IfMissing(default_value)</text>
<text xml:space="preserve" text-anchor="start" x="229" y="-307.45" font-family="Courier,monospace" font-size="14.00">|&gt; Axis(columns_axis) |&gt; IsEqual(column_value)</text>
</g>
<!-- Vector_data&#45;&gt;MC3 -->
<g id="edge17" class="edge">
<title>Vector_data&#45;&gt;MC3:w</title>
<path fill="none" stroke="black" d="M118.63,-309.28C138.33,-328.43 172.79,-356.39 209.93,-361.26"/>
<polygon fill="black" stroke="black" points="209.28,-364.73 219.49,-361.9 209.74,-357.74 209.28,-364.73"/>
</g>
<!-- MC4 -->
<g id="node10" class="node">
<title>MC4</title>
<polygon fill="none" stroke="black" stroke-dasharray="1,5" points="538.12,-532.25 299.38,-532.25 299.38,-441.75 538.12,-441.75 538.12,-532.25"/>
<text xml:space="preserve" text-anchor="start" x="348.62" y="-514.95" font-family="Courier,monospace" font-size="14.00">* vector_property</text>
<text xml:space="preserve" text-anchor="start" x="352.75" y="-498.45" font-family="Courier,monospace" font-size="14.00" fill="gray">|| default_value</text>
<text xml:space="preserve" text-anchor="start" x="414.62" y="-481.95" font-family="Courier,monospace" font-size="14.00"> </text>
<text xml:space="preserve" text-anchor="start" x="319.75" y="-465.45" font-family="Courier,monospace" font-size="14.00">CountBy(vector_property)</text>
<text xml:space="preserve" text-anchor="start" x="307.38" y="-448.95" font-family="Courier,monospace" font-size="14.00" fill="gray">|&gt; IfMissing(default_value)</text>
</g>
<!-- Vector_data&#45;&gt;MC4 -->
<g id="edge18" class="edge">
<title>Vector_data&#45;&gt;MC4:w</title>
<path fill="none" stroke="black" d="M109.25,-309.44C130.28,-356.37 193.25,-477.31 287.08,-486.45"/>
<polygon fill="black" stroke="black" points="286.71,-489.94 296.86,-486.93 287.04,-482.95 286.71,-489.94"/>
</g>
<!-- Vector_other_values -->
<g id="node3" class="node">
<title>Vector_other_values</title>
<polygon fill="none" stroke="black" points="1131.5,-337 963.25,-337 963.25,-245 1131.5,-245 1131.5,-337"/>
<text xml:space="preserve" text-anchor="start" x="971.25" y="-320.7" font-family="Sans-Serif" font-size="14.00">VectorState</text>
<text xml:space="preserve" text-anchor="start" x="1041.75" y="-320.7" font-family="Sans-Serif" font-style="italic" baseline-shift="sub" font-size="14.00">values </text>
<text xml:space="preserve" text-anchor="start" x="1079.25" y="-320.7" font-family="Sans-Serif" font-style="italic" font-size="14.00">or </text>
<text xml:space="preserve" text-anchor="start" x="1095" y="-320.7" font-family="Sans-Serif" font-style="italic" baseline-shift="sub" font-size="14.00">axis</text>
<text xml:space="preserve" text-anchor="start" x="1116" y="-320.7" font-family="Sans-Serif" font-size="14.00">  </text>
<text xml:space="preserve" text-anchor="start" x="1045.5" y="-306.7" font-family="Sans-Serif" font-size="14.00"> </text>
<text xml:space="preserve" text-anchor="start" x="1021.5" y="-292.7" font-family="Sans-Serif" font-size="14.00">CountBy</text>
<text xml:space="preserve" text-anchor="start" x="1045.5" y="-278.7" font-family="Sans-Serif" font-size="14.00"> </text>
<text xml:space="preserve" text-anchor="start" x="974.25" y="-264.7" font-family="Sans-Serif" font-size="14.00">VectorState</text>
<text xml:space="preserve" text-anchor="start" x="1044.75" y="-264.7" font-family="Sans-Serif" font-style="italic" baseline-shift="sub" font-size="14.00">other values</text>
<text xml:space="preserve" text-anchor="start" x="1109.25" y="-264.7" font-family="Sans-Serif" font-size="14.00">   </text>
<text xml:space="preserve" text-anchor="start" x="1045.5" y="-250.7" font-family="Sans-Serif" font-size="14.00"> </text>
</g>
<!-- MC5 -->
<g id="node12" class="node">
<title>MC5</title>
<g id="a_node12"><a xlink:href="#../DataAxesFormats.Queries.VECTOR_OPERATION" xlink:title="VECTOR OPERATION">
<polygon fill="none" stroke="black" points="1125.88,-151 968.88,-151 968.88,-147 964.88,-147 964.88,-143 968.88,-143 968.88,-123 964.88,-123 964.88,-119 968.88,-119 968.88,-115 1125.88,-115 1125.88,-151"/>
<polyline fill="none" stroke="black" points="968.88,-147 972.88,-147 972.88,-143 968.88,-143"/>
<polyline fill="none" stroke="black" points="968.88,-123 972.88,-123 972.88,-119 968.88,-119"/>
<text xml:space="preserve" text-anchor="middle" x="1047.38" y="-127.2" font-family="Sans-Serif" font-size="14.00">VECTOR OPERATION</text>
</a>
</g>
</g>
<!-- Vector_other_values&#45;&gt;MC5 -->
<g id="edge9" class="edge">
<title>Vector_other_values&#45;&gt;MC5</title>
<path fill="none" stroke="black" d="M1096.23,-244.58C1113.8,-216.01 1108.26,-187.44 1079.62,-158.87"/>
<polygon fill="black" stroke="black" points="1082.2,-156.49 1072.49,-152.24 1077.43,-161.61 1082.2,-156.49"/>
</g>
<!-- MC6_ -->
<g id="node13" class="node">
<title>MC6_</title>
<polygon fill="none" stroke="black" points="1359,-276 1167.5,-276 1167.5,-252 1359,-252 1371,-264 1359,-276"/>
<text xml:space="preserve" text-anchor="start" x="1175.5" y="-265.7" font-family="Sans-Serif" font-size="14.00"> compute count matrix </text>
<text xml:space="preserve" text-anchor="start" x="1313.5" y="-265.7" font-family="Sans-Serif" font-style="italic" baseline-shift="sub" font-size="14.00">implicit</text>
<text xml:space="preserve" text-anchor="start" x="1348" y="-265.7" font-family="Sans-Serif" font-size="14.00">    </text>
<text xml:space="preserve" text-anchor="start" x="1265.5" y="-251.7" font-family="Sans-Serif" font-size="14.00">  </text>
</g>
<!-- Vector_other_values&#45;&gt;MC6_ -->
<g id="edge12" class="edge">
<title>Vector_other_values&#45;&gt;MC6_:w</title>
<path fill="none" stroke="black" d="M1131.8,-267.2C1139.88,-265.87 1148.08,-264.87 1156.17,-264.37"/>
<polygon fill="black" stroke="black" points="1156.11,-267.87 1165.99,-264.05 1155.88,-260.87 1156.11,-267.87"/>
</g>
<!-- MC7 -->
<g id="node14" class="node">
<title>MC7</title>
<g id="a_node14"><a xlink:href="#../DataAxesFormats.Queries.VECTOR_AS_AXIS" xlink:title="VECTOR AS AXIS">
<polygon fill="none" stroke="black" points="1333.5,-336 1205,-336 1205,-332 1201,-332 1201,-328 1205,-328 1205,-308 1201,-308 1201,-304 1205,-304 1205,-300 1333.5,-300 1333.5,-336"/>
<polyline fill="none" stroke="black" points="1205,-332 1209,-332 1209,-328 1205,-328"/>
<polyline fill="none" stroke="black" points="1205,-308 1209,-308 1209,-304 1205,-304"/>
<text xml:space="preserve" text-anchor="middle" x="1269.25" y="-312.2" font-family="Sans-Serif" font-size="14.00">VECTOR AS AXIS</text>
</a>
</g>
</g>
<!-- Vector_other_values&#45;&gt;MC7 -->
<g id="edge13" class="edge">
<title>Vector_other_values&#45;&gt;MC7:w</title>
<path fill="none" stroke="black" d="M1131.77,-310.91C1151.22,-314.3 1172.15,-317 1192.3,-317.77"/>
<polygon fill="black" stroke="black" points="1192.15,-321.27 1202.22,-317.97 1192.29,-314.27 1192.15,-321.27"/>
</g>
<!-- MC1_ -->
<g id="node5" class="node">
<title>MC1_</title>
<polygon fill="none" stroke="black" points="904,-145 663.75,-145 663.75,-121 904,-121 916,-133 904,-145"/>
<text xml:space="preserve" text-anchor="middle" x="789.88" y="-127.2" font-family="Sans-Serif" font-size="14.00">lookup square matrix row other values  </text>
</g>
<!-- MC1&#45;&gt;MC1_ -->
<g id="edge1" class="edge">
<title>MC1:e&#45;&gt;MC1_:w</title>
<path fill="none" stroke="black" d="M539.12,-78C595.19,-78 601.8,-125.94 651.3,-132.3"/>
<polygon fill="black" stroke="black" points="650.84,-135.78 661.03,-132.91 651.27,-128.8 650.84,-135.78"/>
</g>
<!-- MC1_&#45;&gt;Vector_other_values -->
<g id="edge2" class="edge">
<title>MC1_:e&#45;&gt;Vector_other_values:sw</title>
<path fill="none" stroke="black" d="M917.21,-133C967.29,-133 932.08,-196.54 957.21,-236.21"/>
<polygon fill="black" stroke="black" points="954.32,-238.2 963.3,-243.82 959.79,-233.82 954.32,-238.2"/>
</g>
<!-- MC1_&#45;&gt;MC5 -->
<!-- MC2_ -->
<g id="node7" class="node">
<title>MC2_</title>
<polygon fill="none" stroke="black" points="915.25,-254 652.5,-254 652.5,-230 915.25,-230 927.25,-242 915.25,-254"/>
<text xml:space="preserve" text-anchor="middle" x="789.88" y="-236.2" font-family="Sans-Serif" font-size="14.00">lookup square matrix column other values  </text>
</g>
<!-- MC2&#45;&gt;MC2_ -->
<g id="edge3" class="edge">
<title>MC2:e&#45;&gt;MC2_:w</title>
<path fill="none" stroke="black" d="M551.5,-220C593.49,-220 604.72,-238.38 641.42,-241.54"/>
<polygon fill="black" stroke="black" points="640.85,-245.02 650.99,-241.94 641.14,-238.03 640.85,-245.02"/>
</g>
<!-- MC2_&#45;&gt;Vector_other_values -->
<g id="edge4" class="edge">
<title>MC2_:e&#45;&gt;Vector_other_values</title>
<path fill="none" stroke="black" d="M927.25,-242C935.4,-242 943.64,-242.99 951.78,-244.7"/>
<polygon fill="black" stroke="black" points="950.79,-248.06 961.34,-247.07 952.48,-241.26 950.79,-248.06"/>
</g>
<!-- MC3_ -->
<g id="node9" class="node">
<title>MC3_</title>
<polygon fill="none" stroke="black" points="892.75,-352 675,-352 675,-328 892.75,-328 904.75,-340 892.75,-352"/>
<text xml:space="preserve" text-anchor="middle" x="789.88" y="-334.2" font-family="Sans-Serif" font-size="14.00">lookup matrix column other values  </text>
</g>
<!-- MC3&#45;&gt;MC3_ -->
<g id="edge5" class="edge">
<title>MC3:e&#45;&gt;MC3_:w</title>
<path fill="none" stroke="black" d="M616.5,-362C639.42,-362 644.92,-346.34 662.39,-341.44"/>
<polygon fill="black" stroke="black" points="662.55,-344.95 672.02,-340.19 661.65,-338.01 662.55,-344.95"/>
</g>
<!-- MC3_&#45;&gt;Vector_other_values -->
<g id="edge6" class="edge">
<title>MC3_:e&#45;&gt;Vector_other_values</title>
<path fill="none" stroke="black" d="M906.23,-340C921.37,-340 936.94,-337.42 951.95,-333.44"/>
<polygon fill="black" stroke="black" points="952.68,-336.88 961.31,-330.74 950.73,-330.15 952.68,-336.88"/>
</g>
<!-- MC4_ -->
<g id="node11" class="node">
<title>MC4_</title>
<polygon fill="none" stroke="black" points="868.38,-463 699.38,-463 699.38,-439 868.38,-439 880.38,-451 868.38,-463"/>
<text xml:space="preserve" text-anchor="middle" x="789.88" y="-445.2" font-family="Sans-Serif" font-size="14.00">lookup vector other values  </text>
</g>
<!-- MC4&#45;&gt;MC4_ -->
<g id="edge7" class="edge">
<title>MC4:e&#45;&gt;MC4_:w</title>
<path fill="none" stroke="black" d="M539.12,-487C607.56,-487 623.88,-454.83 686.62,-451.31"/>
<polygon fill="black" stroke="black" points="686.58,-454.81 696.48,-451.04 686.39,-447.82 686.58,-454.81"/>
</g>
<!-- MC4_&#45;&gt;Vector_other_values -->
<g id="edge8" class="edge">
<title>MC4_:e&#45;&gt;Vector_other_values</title>
<path fill="none" stroke="black" d="M881.76,-451C943.02,-451 990.07,-393.31 1017.88,-347.21"/>
<polygon fill="black" stroke="black" points="1020.9,-348.98 1022.92,-338.59 1014.85,-345.45 1020.9,-348.98"/>
</g>
<!-- MC5&#45;&gt;Vector_other_values -->
<g id="edge10" class="edge">
<title>MC5&#45;&gt;Vector_other_values</title>
<path fill="none" stroke="black" d="M1023.36,-151.21C991.57,-178.93 981.52,-206.65 993.22,-234.37"/>
<polygon fill="black" stroke="black" points="990.11,-235.97 997.82,-243.24 996.32,-232.75 990.11,-235.97"/>
</g>
<!-- MC6_&#45;&gt;Matrix_values -->
<g id="edge19" class="edge">
<title>MC6_:e&#45;&gt;Matrix_values:w</title>
<path fill="none" stroke="black" d="M1371,-264C1382.38,-264 1387.68,-264 1395.55,-264"/>
<polygon fill="black" stroke="black" points="1395.49,-267.5 1405.49,-264 1395.49,-260.5 1395.49,-267.5"/>
</g>
<!-- MC7&#45;&gt;MC6_ -->
<g id="edge14" class="edge">
<title>MC7:s&#45;&gt;MC6_:n</title>
<path fill="none" stroke="black" d="M1269.25,-293.39C1269.25,-295.21 1269.25,-297.25 1269.25,-300"/>
<polygon fill="black" stroke="black" points="1272.75,-293.51 1269.25,-283.51 1265.75,-293.51 1272.75,-293.51"/>
</g>
</g>
</svg>
