<?xml version="1.0" encoding="UTF-8" standalone="no"?>
<!DOCTYPE svg PUBLIC "-//W3C//DTD SVG 1.1//EN"
 "http://www.w3.org/Graphics/SVG/1.1/DTD/svg11.dtd">
<!-- Generated by graphviz version 2.40.1 (0)
 -->
<!-- Title: %3 Pages: 1 -->
<svg width="1012pt" height="291pt"
 viewBox="0.00 0.00 1012.00 291.00" xmlns="http://www.w3.org/2000/svg" xmlns:xlink="http://www.w3.org/1999/xlink">
<g id="graph0" class="graph" transform="scale(1 1) rotate(0) translate(4 287)">
<title>%3</title>
<polygon fill="#ffffff" stroke="transparent" points="-4,4 -4,-287 1008,-287 1008,4 -4,4"/>
<g id="clust1" class="cluster">
<title>cluster_all</title>
<polygon fill="none" stroke="#000000" points="189,-8 189,-275 819,-275 819,-8 189,-8"/>
<text text-anchor="middle" x="332.5" y="-248.6" font-family="Sans-Serif" font-size="28.00" fill="#000000">MATRIX OPERATION</text>
</g>
<!-- Matrix_base_values -->
<g id="node1" class="node">
<title>Matrix_base_values</title>
<polygon fill="none" stroke="#000000" points="161,-143 0,-143 0,-107 161,-107 161,-143"/>
<text text-anchor="start" x="8" y="-128.8" font-family="Sans-Serif" font-size="14.00" fill="#000000"> MatrixState</text>
<text text-anchor="start" x="81" y="-128.8" font-family="Sans-Serif" font-style="italic" baseline-shift="sub" font-size="14.00" fill="#000000">base values</text>
<text text-anchor="start" x="145" y="-128.8" font-family="Sans-Serif" font-size="14.00" fill="#000000">  </text>
<text text-anchor="start" x="78.5" y="-114.8" font-family="Sans-Serif" font-size="14.00" fill="#000000"> </text>
</g>
<!-- VO1 -->
<g id="node3" class="node">
<title>VO1</title>
<polygon fill="none" stroke="#000000" stroke-dasharray="1,5" points="438,-120 197,-120 197,-70 438,-70 438,-120"/>
<text text-anchor="start" x="214" y="-105.8" font-family="Courier,monospace" font-size="14.00" fill="#000000">% Eltwise </text>
<text text-anchor="start" x="297" y="-105.8" font-family="Courier,monospace" font-size="14.00" fill="#c0c0c0">param value ...</text>
<text text-anchor="start" x="313" y="-91.8" font-family="Courier,monospace" font-size="14.00" fill="#000000"> </text>
<text text-anchor="start" x="205" y="-77.8" font-family="Courier,monospace" font-size="14.00" fill="#000000">Eltwise(</text>
<text text-anchor="start" x="272" y="-77.8" font-family="Courier,monospace" font-size="14.00" fill="#c0c0c0">param = value, ...</text>
<text text-anchor="start" x="421" y="-77.8" font-family="Courier,monospace" font-size="14.00" fill="#000000">)</text>
</g>
<!-- Matrix_base_values&#45;&gt;VO1 -->
<g id="edge8" class="edge">
<title>Matrix_base_values&#45;&gt;VO1:w</title>
<path fill="none" stroke="#000000" d="M128.0451,-106.943C145.7656,-101.5077 166.443,-96.6317 186.4402,-95.3357"/>
<polygon fill="#000000" stroke="#000000" points="186.6223,-98.8317 196.5,-95 186.3888,-91.8356 186.6223,-98.8317"/>
</g>
<!-- VO3_ -->
<g id="node5" class="node">
<title>VO3_</title>
<g id="a_node5"><a xlink:href="#../DataAxesFormats.Queries.MATRIX_GROUP" xlink:title="MATRIX GROUP  ">
<polygon fill="none" stroke="#000000" points="382,-52 253,-52 253,-48 249,-48 249,-44 253,-44 253,-24 249,-24 249,-20 253,-20 253,-16 382,-16 382,-52"/>
<polyline fill="none" stroke="#000000" points="253,-48 257,-48 257,-44 253,-44 "/>
<polyline fill="none" stroke="#000000" points="253,-24 257,-24 257,-20 253,-20 "/>
<text text-anchor="middle" x="317.5" y="-30.3" font-family="Sans-Serif" font-size="14.00" fill="#000000">MATRIX GROUP  </text>
</a>
</g>
</g>
<!-- Matrix_base_values&#45;&gt;VO3_ -->
<g id="edge9" class="edge">
<title>Matrix_base_values&#45;&gt;VO3_:w</title>
<path fill="none" stroke="#000000" d="M99.8943,-106.5848C128.3723,-81.4485 184.4361,-38.9726 242.422,-34.402"/>
<polygon fill="#000000" stroke="#000000" points="242.6475,-37.8959 252.5,-34 242.3684,-30.9014 242.6475,-37.8959"/>
</g>
<!-- VO4 -->
<g id="node6" class="node">
<title>VO4</title>
<g id="a_node6"><a xlink:href="#../DataAxesFormats.Queries.VECTOR_AS_AXIS" xlink:title="VECTOR AS AXIS">
<polygon fill="none" stroke="#000000" points="381.5,-228 253.5,-228 253.5,-224 249.5,-224 249.5,-220 253.5,-220 253.5,-200 249.5,-200 249.5,-196 253.5,-196 253.5,-192 381.5,-192 381.5,-228"/>
<polyline fill="none" stroke="#000000" points="253.5,-224 257.5,-224 257.5,-220 253.5,-220 "/>
<polyline fill="none" stroke="#000000" points="253.5,-200 257.5,-200 257.5,-196 253.5,-196 "/>
<text text-anchor="middle" x="317.5" y="-206.3" font-family="Sans-Serif" font-size="14.00" fill="#000000">VECTOR AS AXIS</text>
</a>
</g>
</g>
<!-- Matrix_base_values&#45;&gt;VO4 -->
<g id="edge10" class="edge">
<title>Matrix_base_values&#45;&gt;VO4:w</title>
<path fill="none" stroke="#000000" d="M101.2623,-143.0263C130.4539,-166.5641 186.4444,-205.2944 243.2624,-209.6063"/>
<polygon fill="#000000" stroke="#000000" points="243.3729,-213.113 253.5,-210 243.6419,-206.1182 243.3729,-213.113"/>
</g>
<!-- VO5_ -->
<g id="node7" class="node">
<title>VO5_</title>
<polygon fill="none" stroke="#000000" points="415,-168 208,-168 208,-144 415,-144 427,-156 415,-168"/>
<text text-anchor="start" x="216" y="-159.8" font-family="Sans-Serif" font-size="14.00" fill="#000000">matrix property is an axis</text>
<text text-anchor="start" x="368" y="-159.8" font-family="Sans-Serif" font-style="italic" baseline-shift="sub" font-size="14.00" fill="#000000">implicit</text>
<text text-anchor="start" x="403" y="-159.8" font-family="Sans-Serif" font-size="14.00" fill="#000000">    </text>
<text text-anchor="start" x="315.5" y="-145.8" font-family="Sans-Serif" font-size="14.00" fill="#000000"> </text>
</g>
<!-- Matrix_base_values&#45;&gt;VO5_ -->
<g id="edge11" class="edge">
<title>Matrix_base_values&#45;&gt;VO5_:w</title>
<path fill="none" stroke="#000000" d="M130.4944,-143.0328C150.6322,-148.9735 174.4855,-154.404 197.4026,-155.7053"/>
<polygon fill="#000000" stroke="#000000" points="197.4021,-159.2067 207.5,-156 197.6064,-152.2096 197.4021,-159.2067"/>
</g>
<!-- Matrix_final_values -->
<g id="node2" class="node">
<title>Matrix_final_values</title>
<polygon fill="none" stroke="#000000" points="1004,-113 847,-113 847,-77 1004,-77 1004,-113"/>
<text text-anchor="start" x="855" y="-98.8" font-family="Sans-Serif" font-size="14.00" fill="#000000"> MatrixState</text>
<text text-anchor="start" x="928" y="-98.8" font-family="Sans-Serif" font-style="italic" baseline-shift="sub" font-size="14.00" fill="#000000">final values</text>
<text text-anchor="start" x="988" y="-98.8" font-family="Sans-Serif" font-size="14.00" fill="#000000">  </text>
<text text-anchor="start" x="923.5" y="-84.8" font-family="Sans-Serif" font-size="14.00" fill="#000000"> </text>
</g>
<!-- VO1_ -->
<g id="node4" class="node">
<title>VO1_</title>
<polygon fill="none" stroke="#000000" points="623,-107 474,-107 474,-83 623,-83 635,-95 623,-107"/>
<text text-anchor="middle" x="554.5" y="-91.3" font-family="Sans-Serif" font-size="14.00" fill="#000000">element&#45;wise of matrix  </text>
</g>
<!-- VO1&#45;&gt;VO1_ -->
<g id="edge1" class="edge">
<title>VO1:e&#45;&gt;VO1_:w</title>
<path fill="none" stroke="#000000" d="M438,-95C450,-95 455.25,-95 463.875,-95"/>
<polygon fill="#000000" stroke="#000000" points="464,-98.5001 474,-95 464,-91.5001 464,-98.5001"/>
</g>
<!-- VO1_&#45;&gt;Matrix_final_values -->
<g id="edge5" class="edge">
<title>VO1_:e&#45;&gt;Matrix_final_values</title>
<path fill="none" stroke="#000000" d="M635,-95C702.6789,-95 779.2269,-95 836.7493,-95"/>
<polygon fill="#000000" stroke="#000000" points="836.8987,-98.5001 846.8987,-95 836.8986,-91.5001 836.8987,-98.5001"/>
</g>
<!-- VO3_&#45;&gt;Matrix_final_values -->
<g id="edge6" class="edge">
<title>VO3_:e&#45;&gt;Matrix_final_values</title>
<path fill="none" stroke="#000000" d="M382.5,-34C543.3238,-34 729.2754,-60.7516 836.5445,-78.8233"/>
<polygon fill="#000000" stroke="#000000" points="836.2315,-82.3201 846.6763,-80.5439 837.4035,-75.4189 836.2315,-82.3201"/>
</g>
<!-- Matrix_axis -->
<g id="node9" class="node">
<title>Matrix_axis</title>
<polygon fill="none" stroke="#000000" points="614,-174 495,-174 495,-138 614,-138 614,-174"/>
<text text-anchor="start" x="503" y="-159.8" font-family="Sans-Serif" font-size="14.00" fill="#000000"> MatrixState</text>
<text text-anchor="start" x="576" y="-159.8" font-family="Sans-Serif" font-style="italic" baseline-shift="sub" font-size="14.00" fill="#000000">axis</text>
<text text-anchor="start" x="598" y="-159.8" font-family="Sans-Serif" font-size="14.00" fill="#000000">  </text>
<text text-anchor="start" x="552.5" y="-145.8" font-family="Sans-Serif" font-size="14.00" fill="#000000"> </text>
</g>
<!-- VO4&#45;&gt;Matrix_axis -->
<g id="edge3" class="edge">
<title>VO4:e&#45;&gt;Matrix_axis</title>
<path fill="none" stroke="#000000" d="M381.5,-210C426.5093,-210 475.2359,-193.1386 509.4714,-178.2598"/>
<polygon fill="#000000" stroke="#000000" points="511.0208,-181.4011 518.7281,-174.1314 508.1696,-175.0081 511.0208,-181.4011"/>
</g>
<!-- VO5_&#45;&gt;Matrix_axis -->
<g id="edge2" class="edge">
<title>VO5_:e&#45;&gt;Matrix_axis</title>
<path fill="none" stroke="#000000" d="M427.5,-156C446.0105,-156 466.0386,-156 484.5982,-156"/>
<polygon fill="#000000" stroke="#000000" points="484.7391,-159.5001 494.739,-156 484.739,-152.5001 484.7391,-159.5001"/>
</g>
<!-- VO6_ -->
<g id="node8" class="node">
<title>VO6_</title>
<g id="a_node8"><a xlink:href="#../DataAxesFormats.Queries.VECTOR_LOOKUP" xlink:title="VECTOR LOOKUP  ">
<polygon fill="none" stroke="#000000" points="811,-166 671,-166 671,-162 667,-162 667,-158 671,-158 671,-138 667,-138 667,-134 671,-134 671,-130 811,-130 811,-166"/>
<polyline fill="none" stroke="#000000" points="671,-162 675,-162 675,-158 671,-158 "/>
<polyline fill="none" stroke="#000000" points="671,-138 675,-138 675,-134 671,-134 "/>
<text text-anchor="middle" x="741" y="-144.3" font-family="Sans-Serif" font-size="14.00" fill="#000000">VECTOR LOOKUP  </text>
</a>
</g>
</g>
<!-- VO6_&#45;&gt;Matrix_final_values -->
<g id="edge7" class="edge">
<title>VO6_:e&#45;&gt;Matrix_final_values</title>
<path fill="none" stroke="#000000" d="M811,-148C840.841,-148 871.3467,-132.9913 893.3593,-118.9476"/>
<polygon fill="#000000" stroke="#000000" points="895.558,-121.6889 901.9502,-113.2396 891.6841,-115.8585 895.558,-121.6889"/>
</g>
<!-- Matrix_axis&#45;&gt;VO6_ -->
<g id="edge4" class="edge">
<title>Matrix_axis&#45;&gt;VO6_:w</title>
<path fill="none" stroke="#000000" d="M614.0118,-150.3354C628.9952,-149.258 645.262,-148.3767 660.8637,-148.0948"/>
<polygon fill="#000000" stroke="#000000" points="661.0332,-151.5934 671,-148 660.9677,-144.5937 661.0332,-151.5934"/>
</g>
</g>
</svg>
