<?xml version="1.0" encoding="UTF-8" standalone="no"?>
<!DOCTYPE svg PUBLIC "-//W3C//DTD SVG 1.1//EN"
 "http://www.w3.org/Graphics/SVG/1.1/DTD/svg11.dtd">
<!-- Generated by graphviz version 14.1.1 (20251213.1925)
 -->
<!-- Pages: 1 -->
<svg width="1008pt" height="289pt"
 viewBox="0.00 0.00 1008.00 289.00" xmlns="http://www.w3.org/2000/svg" xmlns:xlink="http://www.w3.org/1999/xlink">
<g id="graph0" class="graph" transform="scale(1 1) rotate(0) translate(4 285)">
<polygon fill="white" stroke="none" points="-4,4 -4,-285 1003.5,-285 1003.5,4 -4,4"/>
<g id="clust1" class="cluster">
<title>cluster_all</title>
<polygon fill="none" stroke="black" points="188,-8 188,-273 816,-273 816,-8 188,-8"/>
<text xml:space="preserve" text-anchor="middle" x="332.88" y="-242.4" font-family="Sans-Serif" font-size="28.00">MATRIX OPERATION</text>
</g>
<!-- Matrix_base_values -->
<g id="node1" class="node">
<title>Matrix_base_values</title>
<polygon fill="none" stroke="black" points="160,-143 0,-143 0,-107 160,-107 160,-143"/>
<text xml:space="preserve" text-anchor="start" x="8" y="-126.7" font-family="Sans-Serif" font-size="14.00"> MatrixState</text>
<text xml:space="preserve" text-anchor="start" x="80.75" y="-126.7" font-family="Sans-Serif" font-style="italic" baseline-shift="sub" font-size="14.00">base values</text>
<text xml:space="preserve" text-anchor="start" x="144.5" y="-126.7" font-family="Sans-Serif" font-size="14.00">  </text>
<text xml:space="preserve" text-anchor="start" x="78.12" y="-112.7" font-family="Sans-Serif" font-size="14.00"> </text>
</g>
<!-- VO1 -->
<g id="node3" class="node">
<title>VO1</title>
<polygon fill="none" stroke="black" stroke-dasharray="1,5" points="434.75,-120 196,-120 196,-70 434.75,-70 434.75,-120"/>
<text xml:space="preserve" text-anchor="start" x="212.25" y="-103.7" font-family="Courier,monospace" font-size="14.00">% Eltwise </text>
<text xml:space="preserve" text-anchor="start" x="294.75" y="-103.7" font-family="Courier,monospace" font-size="14.00" fill="gray">param value ...</text>
<text xml:space="preserve" text-anchor="start" x="311.25" y="-89.7" font-family="Courier,monospace" font-size="14.00"> </text>
<text xml:space="preserve" text-anchor="start" x="204" y="-75.7" font-family="Courier,monospace" font-size="14.00">Eltwise(</text>
<text xml:space="preserve" text-anchor="start" x="270" y="-75.7" font-family="Courier,monospace" font-size="14.00" fill="gray">param = value, ...</text>
<text xml:space="preserve" text-anchor="start" x="418.5" y="-75.7" font-family="Courier,monospace" font-size="14.00">)</text>
</g>
<!-- Matrix_base_values&#45;&gt;VO1 -->
<g id="edge8" class="edge">
<title>Matrix_base_values&#45;&gt;VO1:w</title>
<path fill="none" stroke="black" d="M129.09,-106.51C145.78,-101.38 165.02,-96.82 183.75,-95.43"/>
<polygon fill="black" stroke="black" points="183.63,-98.94 193.49,-95.06 183.36,-91.94 183.63,-98.94"/>
</g>
<!-- VO3_ -->
<g id="node5" class="node">
<title>VO3_</title>
<g id="a_node5"><a xlink:href="#../DataAxesFormats.Queries.MATRIX_GROUP" xlink:title="MATRIX GROUP  ">
<polygon fill="none" stroke="black" points="380.38,-52 250.38,-52 250.38,-48 246.38,-48 246.38,-44 250.38,-44 250.38,-24 246.38,-24 246.38,-20 250.38,-20 250.38,-16 380.38,-16 380.38,-52"/>
<polyline fill="none" stroke="black" points="250.38,-48 254.38,-48 254.38,-44 250.38,-44"/>
<polyline fill="none" stroke="black" points="250.38,-24 254.38,-24 254.38,-20 250.38,-20"/>
<text xml:space="preserve" text-anchor="middle" x="315.38" y="-28.2" font-family="Sans-Serif" font-size="14.00">MATRIX GROUP  </text>
</a>
</g>
</g>
<!-- Matrix_base_values&#45;&gt;VO3_ -->
<g id="edge9" class="edge">
<title>Matrix_base_values&#45;&gt;VO3_:w</title>
<path fill="none" stroke="black" d="M99.88,-106.58C127.39,-81.66 181.39,-39.67 237.79,-34.52"/>
<polygon fill="black" stroke="black" points="237.76,-38.03 247.59,-34.07 237.44,-31.04 237.76,-38.03"/>
</g>
<!-- VO4 -->
<g id="node6" class="node">
<title>VO4</title>
<g id="a_node6"><a xlink:href="#../DataAxesFormats.Queries.VECTOR_AS_AXIS" xlink:title="VECTOR AS AXIS">
<polygon fill="none" stroke="black" points="379.62,-174 251.12,-174 251.12,-170 247.12,-170 247.12,-166 251.12,-166 251.12,-146 247.12,-146 247.12,-142 251.12,-142 251.12,-138 379.62,-138 379.62,-174"/>
<polyline fill="none" stroke="black" points="251.12,-170 255.12,-170 255.12,-166 251.12,-166"/>
<polyline fill="none" stroke="black" points="251.12,-146 255.12,-146 255.12,-142 251.12,-142"/>
<text xml:space="preserve" text-anchor="middle" x="315.38" y="-150.2" font-family="Sans-Serif" font-size="14.00">VECTOR AS AXIS</text>
</a>
</g>
</g>
<!-- Matrix_base_values&#45;&gt;VO4 -->
<g id="edge10" class="edge">
<title>Matrix_base_values&#45;&gt;VO4:w</title>
<path fill="none" stroke="black" d="M149.9,-143.48C176.86,-149.37 208.47,-154.66 238.46,-155.78"/>
<polygon fill="black" stroke="black" points="238.28,-159.28 248.34,-155.97 238.41,-152.28 238.28,-159.28"/>
</g>
<!-- VO5_ -->
<g id="node7" class="node">
<title>VO5_</title>
<polygon fill="none" stroke="black" points="411.5,-222 207.25,-222 207.25,-198 411.5,-198 423.5,-210 411.5,-222"/>
<text xml:space="preserve" text-anchor="start" x="215.25" y="-211.7" font-family="Sans-Serif" font-size="14.00">matrix property is an axis</text>
<text xml:space="preserve" text-anchor="start" x="366" y="-211.7" font-family="Sans-Serif" font-style="italic" baseline-shift="sub" font-size="14.00">implicit</text>
<text xml:space="preserve" text-anchor="start" x="400.5" y="-211.7" font-family="Sans-Serif" font-size="14.00">    </text>
<text xml:space="preserve" text-anchor="start" x="313.5" y="-197.7" font-family="Sans-Serif" font-size="14.00"> </text>
</g>
<!-- Matrix_base_values&#45;&gt;VO5_ -->
<g id="edge11" class="edge">
<title>Matrix_base_values&#45;&gt;VO5_:w</title>
<path fill="none" stroke="black" d="M95.34,-143.44C114.81,-166.39 152.07,-203.29 194.35,-209.19"/>
<polygon fill="black" stroke="black" points="194.06,-212.68 204.29,-209.89 194.56,-205.7 194.06,-212.68"/>
</g>
<!-- Matrix_final_values -->
<g id="node2" class="node">
<title>Matrix_final_values</title>
<polygon fill="none" stroke="black" points="999.5,-113 844,-113 844,-77 999.5,-77 999.5,-113"/>
<text xml:space="preserve" text-anchor="start" x="852" y="-96.7" font-family="Sans-Serif" font-size="14.00"> MatrixState</text>
<text xml:space="preserve" text-anchor="start" x="924.75" y="-96.7" font-family="Sans-Serif" font-style="italic" baseline-shift="sub" font-size="14.00">final values</text>
<text xml:space="preserve" text-anchor="start" x="984" y="-96.7" font-family="Sans-Serif" font-size="14.00">  </text>
<text xml:space="preserve" text-anchor="start" x="919.88" y="-82.7" font-family="Sans-Serif" font-size="14.00"> </text>
</g>
<!-- VO1_ -->
<g id="node4" class="node">
<title>VO1_</title>
<polygon fill="none" stroke="black" points="618.75,-107 470.75,-107 470.75,-83 618.75,-83 630.75,-95 618.75,-107"/>
<text xml:space="preserve" text-anchor="middle" x="550.75" y="-89.2" font-family="Sans-Serif" font-size="14.00">element&#45;wise of matrix  </text>
</g>
<!-- VO1&#45;&gt;VO1_ -->
<g id="edge1" class="edge">
<title>VO1:e&#45;&gt;VO1_:w</title>
<path fill="none" stroke="black" d="M434.75,-95C446.12,-95 451.43,-95 459.3,-95"/>
<polygon fill="black" stroke="black" points="459.24,-98.5 469.24,-95 459.24,-91.5 459.24,-98.5"/>
</g>
<!-- VO1_&#45;&gt;Matrix_final_values -->
<g id="edge5" class="edge">
<title>VO1_:e&#45;&gt;Matrix_final_values</title>
<path fill="none" stroke="black" d="M630.75,-95C698.36,-95 774.85,-95 832.29,-95"/>
<polygon fill="black" stroke="black" points="832,-98.5 842,-95 832,-91.5 832,-98.5"/>
</g>
<!-- VO3_&#45;&gt;Matrix_final_values -->
<g id="edge6" class="edge">
<title>VO3_:e&#45;&gt;Matrix_final_values</title>
<path fill="none" stroke="black" d="M381.65,-34C541.37,-34 726.03,-60.76 832.51,-78.84"/>
<polygon fill="black" stroke="black" points="831.9,-82.28 842.35,-80.52 833.08,-75.38 831.9,-82.28"/>
</g>
<!-- Matrix_axis -->
<g id="node9" class="node">
<title>Matrix_axis</title>
<polygon fill="none" stroke="black" points="609.38,-174 492.12,-174 492.12,-138 609.38,-138 609.38,-174"/>
<text xml:space="preserve" text-anchor="start" x="500.12" y="-157.7" font-family="Sans-Serif" font-size="14.00"> MatrixState</text>
<text xml:space="preserve" text-anchor="start" x="572.88" y="-157.7" font-family="Sans-Serif" font-style="italic" baseline-shift="sub" font-size="14.00">axis</text>
<text xml:space="preserve" text-anchor="start" x="593.88" y="-157.7" font-family="Sans-Serif" font-size="14.00">  </text>
<text xml:space="preserve" text-anchor="start" x="548.88" y="-143.7" font-family="Sans-Serif" font-size="14.00"> </text>
</g>
<!-- VO4&#45;&gt;Matrix_axis -->
<g id="edge3" class="edge">
<title>VO4:e&#45;&gt;Matrix_axis</title>
<path fill="none" stroke="black" d="M380.9,-156C413.65,-156 449.97,-156 480.52,-156"/>
<polygon fill="black" stroke="black" points="480.41,-159.5 490.41,-156 480.41,-152.5 480.41,-159.5"/>
</g>
<!-- VO5_&#45;&gt;Matrix_axis -->
<g id="edge2" class="edge">
<title>VO5_:e&#45;&gt;Matrix_axis</title>
<path fill="none" stroke="black" d="M424.95,-210C457.18,-210 490.52,-194.65 514.62,-180.31"/>
<polygon fill="black" stroke="black" points="516.42,-183.32 523.07,-175.08 512.73,-177.37 516.42,-183.32"/>
</g>
<!-- VO6_ -->
<g id="node8" class="node">
<title>VO6_</title>
<g id="a_node8"><a xlink:href="#../DataAxesFormats.Queries.VECTOR_LOOKUP" xlink:title="VECTOR LOOKUP  ">
<polygon fill="none" stroke="black" points="808,-166 666.75,-166 666.75,-162 662.75,-162 662.75,-158 666.75,-158 666.75,-138 662.75,-138 662.75,-134 666.75,-134 666.75,-130 808,-130 808,-166"/>
<polyline fill="none" stroke="black" points="666.75,-162 670.75,-162 670.75,-158 666.75,-158"/>
<polyline fill="none" stroke="black" points="666.75,-138 670.75,-138 670.75,-134 666.75,-134"/>
<text xml:space="preserve" text-anchor="middle" x="737.38" y="-142.2" font-family="Sans-Serif" font-size="14.00">VECTOR LOOKUP  </text>
</a>
</g>
</g>
<!-- VO6_&#45;&gt;Matrix_final_values -->
<g id="edge7" class="edge">
<title>VO6_:e&#45;&gt;Matrix_final_values</title>
<path fill="none" stroke="black" d="M809.3,-148C837.97,-148 867.12,-133.52 888.41,-119.7"/>
<polygon fill="black" stroke="black" points="890.35,-122.61 896.65,-114.09 886.41,-116.82 890.35,-122.61"/>
</g>
<!-- Matrix_axis&#45;&gt;VO6_ -->
<g id="edge4" class="edge">
<title>Matrix_axis&#45;&gt;VO6_:w</title>
<path fill="none" stroke="black" d="M609.61,-150.4C624.3,-149.32 640.3,-148.42 655.68,-148.12"/>
<polygon fill="black" stroke="black" points="655.27,-151.62 665.24,-148.02 655.2,-144.62 655.27,-151.62"/>
</g>
</g>
</svg>
