<?xml version="1.0" encoding="UTF-8" standalone="no"?>
<!DOCTYPE svg PUBLIC "-//W3C//DTD SVG 1.1//EN"
 "http://www.w3.org/Graphics/SVG/1.1/DTD/svg11.dtd">
<!-- Generated by graphviz version 14.1.1 (20251213.1925)
 -->
<!-- Pages: 1 -->
<svg width="831pt" height="362pt"
 viewBox="0.00 0.00 831.00 362.00" xmlns="http://www.w3.org/2000/svg" xmlns:xlink="http://www.w3.org/1999/xlink">
<g id="graph0" class="graph" transform="scale(1 1) rotate(0) translate(4 358)">
<polygon fill="white" stroke="none" points="-4,4 -4,-358 827.14,-358 827.14,4 -4,4"/>
<g id="clust1" class="cluster">
<title>cluster_all</title>
<polygon fill="none" stroke="black" points="8,-8 8,-346 815.14,-346 815.14,-8 8,-8"/>
<text xml:space="preserve" text-anchor="middle" x="65.88" y="-315.4" font-family="Sans-Serif" font-size="28.00">NAMES</text>
</g>
<!-- EMPTY -->
<g id="node1" class="node">
<title>EMPTY</title>
<ellipse fill="black" stroke="black" cx="17.8" cy="-159" rx="1.8" ry="1.8"/>
</g>
<!-- N1 -->
<g id="node3" class="node">
<title>N1</title>
<polygon fill="none" stroke="black" stroke-dasharray="1,5" points="467.6,-73.75 55.6,-73.75 55.6,-16.25 467.6,-16.25 467.6,-73.75"/>
<text xml:space="preserve" text-anchor="start" x="146.1" y="-56.45" font-family="Courier,monospace" font-size="14.00">@ rows_axis @ columns_axis ?</text>
<text xml:space="preserve" text-anchor="start" x="257.47" y="-39.95" font-family="Courier,monospace" font-size="14.00"> </text>
<text xml:space="preserve" text-anchor="start" x="63.6" y="-23.45" font-family="Courier,monospace" font-size="14.00">Axis(rows_axis) |&gt; Axis(columns_axis) |&gt; Names()</text>
</g>
<!-- EMPTY&#45;&gt;N1 -->
<g id="edge9" class="edge">
<title>EMPTY&#45;&gt;N1:w</title>
<path fill="none" stroke="black" d="M18.95,-157.39C20.12,-145.53 28,-71.71 45.74,-50.62"/>
<polygon fill="black" stroke="black" points="47.33,-53.74 54.29,-45.75 43.86,-47.66 47.33,-53.74"/>
</g>
<!-- N2 -->
<g id="node5" class="node">
<title>N2</title>
<polygon fill="none" stroke="black" stroke-dasharray="1,5" points="356.22,-149.75 166.97,-149.75 166.97,-92.25 356.22,-92.25 356.22,-149.75"/>
<text xml:space="preserve" text-anchor="start" x="228.6" y="-132.45" font-family="Courier,monospace" font-size="14.00">@ axis ?</text>
<text xml:space="preserve" text-anchor="start" x="257.47" y="-115.95" font-family="Courier,monospace" font-size="14.00"> </text>
<text xml:space="preserve" text-anchor="start" x="174.97" y="-99.45" font-family="Courier,monospace" font-size="14.00">Axis(axis) |&gt; Names()</text>
</g>
<!-- EMPTY&#45;&gt;N2 -->
<g id="edge10" class="edge">
<title>EMPTY&#45;&gt;N2:w</title>
<path fill="none" stroke="black" d="M19.95,-158.46C29.33,-154.12 94.53,-124.87 154.47,-121.35"/>
<polygon fill="black" stroke="black" points="154.57,-124.85 164.46,-121.05 154.36,-117.85 154.57,-124.85"/>
</g>
<!-- N3 -->
<g id="node7" class="node">
<title>N3</title>
<polygon fill="none" stroke="black" stroke-dasharray="1,5" points="339.72,-225.75 183.47,-225.75 183.47,-168.25 339.72,-168.25 339.72,-225.75"/>
<text xml:space="preserve" text-anchor="start" x="249.22" y="-208.45" font-family="Courier,monospace" font-size="14.00">@ ?</text>
<text xml:space="preserve" text-anchor="start" x="257.47" y="-191.95" font-family="Courier,monospace" font-size="14.00"> </text>
<text xml:space="preserve" text-anchor="start" x="191.47" y="-175.45" font-family="Courier,monospace" font-size="14.00">Axis() |&gt; Names()</text>
</g>
<!-- EMPTY&#45;&gt;N3 -->
<g id="edge11" class="edge">
<title>EMPTY&#45;&gt;N3:w</title>
<path fill="none" stroke="black" d="M19.82,-159.43C29.34,-163.38 103.95,-193.56 171.31,-196.73"/>
<polygon fill="black" stroke="black" points="170.88,-200.22 180.96,-196.96 171.05,-193.22 170.88,-200.22"/>
</g>
<!-- N4 -->
<g id="node9" class="node">
<title>N4</title>
<polygon fill="none" stroke="black" stroke-dasharray="1,5" points="298.47,-301.75 224.72,-301.75 224.72,-244.25 298.47,-244.25 298.47,-301.75"/>
<text xml:space="preserve" text-anchor="start" x="257.47" y="-284.45" font-family="Courier,monospace" font-size="14.00">?</text>
<text xml:space="preserve" text-anchor="start" x="257.47" y="-267.95" font-family="Courier,monospace" font-size="14.00"> </text>
<text xml:space="preserve" text-anchor="start" x="232.72" y="-251.45" font-family="Courier,monospace" font-size="14.00">Names()</text>
</g>
<!-- EMPTY&#45;&gt;N4 -->
<g id="edge12" class="edge">
<title>EMPTY&#45;&gt;N4:w</title>
<path fill="none" stroke="black" d="M19.08,-160.78C20.68,-170.17 29.42,-214.22 55.6,-235 112.55,-280.22 143.84,-273.83 212.39,-273.07"/>
<polygon fill="black" stroke="black" points="212.23,-276.57 222.21,-273.01 212.19,-269.57 212.23,-276.57"/>
</g>
<!-- NamesState -->
<g id="node2" class="node">
<title>NamesState</title>
<polygon fill="none" stroke="black" points="803.14,-150.54 803.14,-165.46 765.63,-176 712.6,-176 675.1,-165.46 675.1,-150.54 712.6,-140 765.63,-140 803.14,-150.54"/>
<polygon fill="none" stroke="black" points="807.14,-147.51 807.14,-168.49 766.19,-180 712.05,-180 671.1,-168.49 671.1,-147.51 712.05,-136 766.19,-136 807.14,-147.51"/>
<text xml:space="preserve" text-anchor="middle" x="739.12" y="-152.2" font-family="Sans-Serif" font-size="14.00">NamesState</text>
</g>
<!-- N1_ -->
<g id="node4" class="node">
<title>N1_</title>
<polygon fill="none" stroke="black" points="623.1,-70 503.6,-70 503.6,-46 623.1,-46 635.1,-58 623.1,-70"/>
<text xml:space="preserve" text-anchor="middle" x="569.35" y="-52.2" font-family="Sans-Serif" font-size="14.00">names of matrices </text>
</g>
<!-- N1&#45;&gt;N1_ -->
<g id="edge1" class="edge">
<title>N1:e&#45;&gt;N1_:w</title>
<path fill="none" stroke="black" d="M467.6,-45C479.96,-45 484.38,-51.86 492.4,-55.62"/>
<polygon fill="black" stroke="black" points="491.61,-59.03 502.12,-57.68 493.07,-52.18 491.61,-59.03"/>
</g>
<!-- N1_&#45;&gt;NamesState -->
<g id="edge2" class="edge">
<title>N1_:e&#45;&gt;NamesState</title>
<path fill="none" stroke="black" d="M635.1,-58C674.79,-58 704.96,-96.69 722.1,-125.93"/>
<polygon fill="black" stroke="black" points="718.94,-127.46 726.87,-134.49 725.05,-124.05 718.94,-127.46"/>
</g>
<!-- N2_ -->
<g id="node6" class="node">
<title>N2_</title>
<polygon fill="none" stroke="black" points="618.97,-138 507.72,-138 507.72,-114 618.97,-114 630.97,-126 618.97,-138"/>
<text xml:space="preserve" text-anchor="middle" x="569.35" y="-120.2" font-family="Sans-Serif" font-size="14.00">names of vectors </text>
</g>
<!-- N2&#45;&gt;N2_ -->
<g id="edge3" class="edge">
<title>N2:e&#45;&gt;N2_:w</title>
<path fill="none" stroke="black" d="M357.22,-121C419.7,-121 437.99,-125.43 495.29,-125.95"/>
<polygon fill="black" stroke="black" points="494.94,-129.45 504.95,-125.99 494.97,-122.45 494.94,-129.45"/>
</g>
<!-- N2_&#45;&gt;NamesState -->
<g id="edge4" class="edge">
<title>N2_:e&#45;&gt;NamesState</title>
<path fill="none" stroke="black" d="M632.23,-126C650.43,-126 669.66,-130.38 686.67,-135.91"/>
<polygon fill="black" stroke="black" points="685.46,-139.19 696.06,-139.17 687.76,-132.58 685.46,-139.19"/>
</g>
<!-- N3_ -->
<g id="node8" class="node">
<title>N3_</title>
<polygon fill="none" stroke="black" points="611.47,-203 515.22,-203 515.22,-179 611.47,-179 623.47,-191 611.47,-203"/>
<text xml:space="preserve" text-anchor="middle" x="569.35" y="-185.2" font-family="Sans-Serif" font-size="14.00">names of axes </text>
</g>
<!-- N3&#45;&gt;N3_ -->
<g id="edge5" class="edge">
<title>N3:e&#45;&gt;N3_:w</title>
<path fill="none" stroke="black" d="M340.72,-197C413.87,-197 434.85,-191.59 502.69,-191.04"/>
<polygon fill="black" stroke="black" points="502.5,-194.55 512.48,-191.01 502.47,-187.55 502.5,-194.55"/>
</g>
<!-- N3_&#45;&gt;NamesState -->
<g id="edge6" class="edge">
<title>N3_:e&#45;&gt;NamesState</title>
<path fill="none" stroke="black" d="M624.7,-191C645.19,-191 666.95,-185.98 685.88,-179.85"/>
<polygon fill="black" stroke="black" points="686.92,-183.19 695.24,-176.63 684.65,-176.57 686.92,-183.19"/>
</g>
<!-- N4_ -->
<g id="node10" class="node">
<title>N4_</title>
<polygon fill="none" stroke="black" points="618.6,-273 508.1,-273 508.1,-249 618.6,-249 630.6,-261 618.6,-273"/>
<text xml:space="preserve" text-anchor="middle" x="569.35" y="-255.2" font-family="Sans-Serif" font-size="14.00">names of scalars </text>
</g>
<!-- N4&#45;&gt;N4_ -->
<g id="edge7" class="edge">
<title>N4:e&#45;&gt;N4_:w</title>
<path fill="none" stroke="black" d="M299.47,-273C387.92,-273 412.49,-261.99 495.57,-261.06"/>
<polygon fill="black" stroke="black" points="495.35,-264.56 505.33,-261.01 495.31,-257.56 495.35,-264.56"/>
</g>
<!-- N4_&#45;&gt;NamesState -->
<g id="edge8" class="edge">
<title>N4_:e&#45;&gt;NamesState</title>
<path fill="none" stroke="black" d="M631.86,-261C673.18,-261 704.52,-220.35 722.11,-190.13"/>
<polygon fill="black" stroke="black" points="725.01,-192.11 726.81,-181.67 718.89,-188.71 725.01,-192.11"/>
</g>
</g>
</svg>
