<?xml version="1.0" encoding="UTF-8" standalone="no"?>
<!DOCTYPE svg PUBLIC "-//W3C//DTD SVG 1.1//EN"
 "http://www.w3.org/Graphics/SVG/1.1/DTD/svg11.dtd">
<!-- Generated by graphviz version 2.40.1 (0)
 -->
<!-- Title: %3 Pages: 1 -->
<svg width="1385pt" height="647pt"
 viewBox="0.00 0.00 1385.00 647.00" xmlns="http://www.w3.org/2000/svg" xmlns:xlink="http://www.w3.org/1999/xlink">
<g id="graph0" class="graph" transform="scale(1 1) rotate(0) translate(4 643)">
<title>%3</title>
<polygon fill="#ffffff" stroke="transparent" points="-4,4 -4,-643 1381.0007,-643 1381.0007,4 -4,4"/>
<g id="clust1" class="cluster">
<title>cluster_all</title>
<polygon fill="none" stroke="#000000" points="8,-8 8,-631 1369.0007,-631 1369.0007,-8 8,-8"/>
<text text-anchor="middle" x="72.5" y="-604.6" font-family="Sans-Serif" font-size="28.00" fill="#000000">SCALAR</text>
</g>
<!-- EMPTY -->
<g id="node1" class="node">
<title>EMPTY</title>
<ellipse fill="#000000" stroke="#000000" cx="59" cy="-426" rx="1.8" ry="1.8"/>
</g>
<!-- S5 -->
<g id="node11" class="node">
<title>S5</title>
<polygon fill="none" stroke="#000000" stroke-dasharray="1,5" points="472,-482.5 200,-482.5 200,-369.5 472,-369.5 472,-482.5"/>
<text text-anchor="start" x="265.5" y="-467.3" font-family="Courier,monospace" font-size="14.00" fill="#000000">: vector_property</text>
<text text-anchor="start" x="269.5" y="-452.3" font-family="Courier,monospace" font-size="14.00" fill="#c0c0c0">|| default_value</text>
<text text-anchor="start" x="278" y="-437.3" font-family="Courier,monospace" font-size="14.00" fill="#000000">@ axis = value</text>
<text text-anchor="start" x="331.5" y="-422.3" font-family="Courier,monospace" font-size="14.00" fill="#000000"> </text>
<text text-anchor="start" x="216" y="-407.3" font-family="Courier,monospace" font-size="14.00" fill="#000000">LookupVector(vector_property)</text>
<text text-anchor="start" x="224.5" y="-392.3" font-family="Courier,monospace" font-size="14.00" fill="#c0c0c0">|&gt; IfMissing(default_value)</text>
<text text-anchor="start" x="208" y="-377.3" font-family="Courier,monospace" font-size="14.00" fill="#000000">|&gt; Axis(axis) |&gt; IsEqual(value)</text>
</g>
<!-- EMPTY&#45;&gt;S5 -->
<g id="edge17" class="edge">
<title>EMPTY&#45;&gt;S5:w</title>
<path fill="none" stroke="#000000" d="M60.988,-426C72.8138,-426 135.2413,-426 189.8986,-426"/>
<polygon fill="#000000" stroke="#000000" points="190,-429.5001 200,-426 190,-422.5001 190,-429.5001"/>
</g>
<!-- S6 -->
<g id="node13" class="node">
<title>S6</title>
<polygon fill="none" stroke="#000000" stroke-dasharray="1,5" points="464,-583.5 208,-583.5 208,-500.5 464,-500.5 464,-583.5"/>
<text text-anchor="start" x="265.5" y="-568.3" font-family="Courier,monospace" font-size="14.00" fill="#000000">. scalar_property</text>
<text text-anchor="start" x="269.5" y="-553.3" font-family="Courier,monospace" font-size="14.00" fill="#c0c0c0">|| default_value</text>
<text text-anchor="start" x="331.5" y="-538.3" font-family="Courier,monospace" font-size="14.00" fill="#000000"> </text>
<text text-anchor="start" x="216" y="-523.3" font-family="Courier,monospace" font-size="14.00" fill="#000000">LookupScalar(scalar_property)</text>
<text text-anchor="start" x="224.5" y="-508.3" font-family="Courier,monospace" font-size="14.00" fill="#c0c0c0">|&gt; IfMissing(default_value)</text>
</g>
<!-- EMPTY&#45;&gt;S6 -->
<g id="edge18" class="edge">
<title>EMPTY&#45;&gt;S6:w</title>
<path fill="none" stroke="#000000" d="M59.9491,-427.6398C67.8718,-441.1057 124.5379,-533.166 197.5871,-541.4099"/>
<polygon fill="#000000" stroke="#000000" points="197.818,-544.9285 208,-542 198.2141,-537.9397 197.818,-544.9285"/>
</g>
<!-- S4 -->
<g id="node15" class="node">
<title>S4</title>
<polygon fill="none" stroke="#000000" stroke-dasharray="1,5" points="534,-351.5 138,-351.5 138,-208.5 534,-208.5 534,-351.5"/>
<text text-anchor="start" x="261.5" y="-336.3" font-family="Courier,monospace" font-size="14.00" fill="#000000">:: matrix_property</text>
<text text-anchor="start" x="269.5" y="-321.3" font-family="Courier,monospace" font-size="14.00" fill="#c0c0c0">|| default_value</text>
<text text-anchor="start" x="245" y="-306.3" font-family="Courier,monospace" font-size="14.00" fill="#000000">@ row_axis = row_value</text>
<text text-anchor="start" x="224.5" y="-291.3" font-family="Courier,monospace" font-size="14.00" fill="#000000">@ column_axis =column_value</text>
<text text-anchor="start" x="331.5" y="-276.3" font-family="Courier,monospace" font-size="14.00" fill="#000000"> </text>
<text text-anchor="start" x="216" y="-261.3" font-family="Courier,monospace" font-size="14.00" fill="#000000">LookupMatrix(matrix_property)</text>
<text text-anchor="start" x="224.5" y="-246.3" font-family="Courier,monospace" font-size="14.00" fill="#c0c0c0">|&gt; IfMissing(default_value)</text>
<text text-anchor="start" x="170.5" y="-231.3" font-family="Courier,monospace" font-size="14.00" fill="#000000">|&gt; Axis(rows_axis) |&gt; IsEqual(row_value)</text>
<text text-anchor="start" x="146" y="-216.3" font-family="Courier,monospace" font-size="14.00" fill="#000000">|&gt; Axis(columns_axis) |&gt; IsEqual(column_value)</text>
</g>
<!-- EMPTY&#45;&gt;S4 -->
<g id="edge16" class="edge">
<title>EMPTY&#45;&gt;S4:w</title>
<path fill="none" stroke="#000000" d="M59.0995,-423.9361C60.0237,-407.0917 68.4819,-292.5366 128.0023,-280.9455"/>
<polygon fill="#000000" stroke="#000000" points="128.374,-284.4261 138,-280 127.7149,-277.4572 128.374,-284.4261"/>
</g>
<!-- VectorState -->
<g id="node2" class="node">
<title>VectorState</title>
<polygon fill="none" stroke="#000000" points="102,-169 16,-169 16,-133 102,-133 102,-169"/>
<text text-anchor="middle" x="59" y="-147.3" font-family="Sans-Serif" font-size="14.00" fill="#000000">VectorState</text>
</g>
<!-- S3 -->
<g id="node9" class="node">
<title>S3</title>
<polygon fill="none" stroke="#000000" stroke-dasharray="1,5" points="464.5,-190 207.5,-190 207.5,-112 464.5,-112 464.5,-190"/>
<text text-anchor="start" x="220" y="-175.8" font-family="Courier,monospace" font-size="14.00" fill="#000000">&gt;&gt; Reduction </text>
<text text-anchor="start" x="328" y="-175.8" font-family="Courier,monospace" font-size="14.00" fill="#c0c0c0">param value ...</text>
<text text-anchor="start" x="269.5" y="-161.8" font-family="Courier,monospace" font-size="14.00" fill="#c0c0c0">|| default_value</text>
<text text-anchor="start" x="331.5" y="-147.8" font-family="Courier,monospace" font-size="14.00" fill="#000000"> </text>
<text text-anchor="start" x="215.5" y="-133.8" font-family="Courier,monospace" font-size="14.00" fill="#000000">Reduction(</text>
<text text-anchor="start" x="298.5" y="-133.8" font-family="Courier,monospace" font-size="14.00" fill="#c0c0c0">param = value, ...</text>
<text text-anchor="start" x="447.5" y="-133.8" font-family="Courier,monospace" font-size="14.00" fill="#000000">)</text>
<text text-anchor="start" x="224.5" y="-119.8" font-family="Courier,monospace" font-size="14.00" fill="#c0c0c0">|&gt; IfMissing(default_value)</text>
</g>
<!-- VectorState&#45;&gt;S3 -->
<g id="edge15" class="edge">
<title>VectorState&#45;&gt;S3:w</title>
<path fill="none" stroke="#000000" d="M102.0667,-151C128.8279,-151 164.249,-151 196.951,-151"/>
<polygon fill="#000000" stroke="#000000" points="197,-154.5001 207,-151 197,-147.5001 197,-154.5001"/>
</g>
<!-- MatrixState -->
<g id="node3" class="node">
<title>MatrixState</title>
<polygon fill="none" stroke="#000000" points="102,-73 16,-73 16,-37 102,-37 102,-73"/>
<text text-anchor="middle" x="59" y="-51.3" font-family="Sans-Serif" font-size="14.00" fill="#000000">MatrixState</text>
</g>
<!-- S2 -->
<g id="node7" class="node">
<title>S2</title>
<polygon fill="none" stroke="#000000" stroke-dasharray="1,5" points="464.5,-94 207.5,-94 207.5,-16 464.5,-16 464.5,-94"/>
<text text-anchor="start" x="236.5" y="-79.8" font-family="Courier,monospace" font-size="14.00" fill="#000000">&gt;&gt; Reduction </text>
<text text-anchor="start" x="344.5" y="-79.8" font-family="Courier,monospace" font-size="14.00" fill="#c0c0c0">param value</text>
<text text-anchor="start" x="269.5" y="-65.8" font-family="Courier,monospace" font-size="14.00" fill="#c0c0c0">|| default_value</text>
<text text-anchor="start" x="331.5" y="-51.8" font-family="Courier,monospace" font-size="14.00" fill="#000000"> </text>
<text text-anchor="start" x="215.5" y="-37.8" font-family="Courier,monospace" font-size="14.00" fill="#000000">Reduction(</text>
<text text-anchor="start" x="298.5" y="-37.8" font-family="Courier,monospace" font-size="14.00" fill="#c0c0c0">param = value, ...</text>
<text text-anchor="start" x="447.5" y="-37.8" font-family="Courier,monospace" font-size="14.00" fill="#000000">)</text>
<text text-anchor="start" x="224.5" y="-23.8" font-family="Courier,monospace" font-size="14.00" fill="#c0c0c0">|&gt; IfMissing(default_value)</text>
</g>
<!-- MatrixState&#45;&gt;S2 -->
<g id="edge14" class="edge">
<title>MatrixState&#45;&gt;S2:w</title>
<path fill="none" stroke="#000000" d="M102.0667,-55C128.8279,-55 164.249,-55 196.951,-55"/>
<polygon fill="#000000" stroke="#000000" points="197,-58.5001 207,-55 197,-51.5001 197,-58.5001"/>
</g>
<!-- ScalarState -->
<g id="node4" class="node">
<title>ScalarState</title>
<polygon fill="none" stroke="#000000" points="889.001,-272.5442 889.001,-287.4558 853.5606,-298 803.4401,-298 767.9997,-287.4558 767.9997,-272.5442 803.4401,-262 853.5606,-262 889.001,-272.5442"/>
<polygon fill="none" stroke="#000000" points="893.0011,-269.5609 893.0011,-290.4391 854.143,-302 802.8577,-302 763.9996,-290.4391 763.9996,-269.5609 802.8577,-258 854.143,-258 893.0011,-269.5609"/>
<text text-anchor="middle" x="828.5004" y="-276.3" font-family="Sans-Serif" font-size="14.00" fill="#000000">ScalarState</text>
</g>
<!-- S1 -->
<g id="node5" class="node">
<title>S1</title>
<polygon fill="none" stroke="#000000" stroke-dasharray="1,5" points="1170.0007,-327 929.0007,-327 929.0007,-277 1170.0007,-277 1170.0007,-327"/>
<text text-anchor="start" x="946.0007" y="-312.8" font-family="Courier,monospace" font-size="14.00" fill="#000000">% Eltwise </text>
<text text-anchor="start" x="1029.0007" y="-312.8" font-family="Courier,monospace" font-size="14.00" fill="#c0c0c0">param value ...</text>
<text text-anchor="start" x="1045.0007" y="-298.8" font-family="Courier,monospace" font-size="14.00" fill="#000000"> </text>
<text text-anchor="start" x="937.0007" y="-284.8" font-family="Courier,monospace" font-size="14.00" fill="#000000">Eltwise(</text>
<text text-anchor="start" x="1004.0007" y="-284.8" font-family="Courier,monospace" font-size="14.00" fill="#c0c0c0">param = value, ...</text>
<text text-anchor="start" x="1153.0007" y="-284.8" font-family="Courier,monospace" font-size="14.00" fill="#000000">)</text>
</g>
<!-- ScalarState&#45;&gt;S1 -->
<g id="edge1" class="edge">
<title>ScalarState&#45;&gt;S1:w</title>
<path fill="none" stroke="#000000" d="M877.3633,-295.0994C890.4499,-298.1886 904.8666,-300.7744 918.8867,-301.6666"/>
<polygon fill="#000000" stroke="#000000" points="918.8908,-305.1686 929.0007,-302 919.1215,-298.1724 918.8908,-305.1686"/>
</g>
<!-- S1_ -->
<g id="node6" class="node">
<title>S1_</title>
<polygon fill="none" stroke="#000000" points="1349.0007,-301 1206.0007,-301 1206.0007,-277 1349.0007,-277 1361.0007,-289 1349.0007,-301"/>
<text text-anchor="middle" x="1283.5007" y="-285.3" font-family="Sans-Serif" font-size="14.00" fill="#000000">element&#45;wise of scalar </text>
</g>
<!-- S1&#45;&gt;S1_ -->
<g id="edge2" class="edge">
<title>S1:e&#45;&gt;S1_:w</title>
<path fill="none" stroke="#000000" d="M1170.0007,-302C1183.025,-302 1187.2367,-294.3796 1196.1301,-290.8076"/>
<polygon fill="#000000" stroke="#000000" points="1196.7948,-294.2442 1206.0007,-289 1195.5338,-287.3587 1196.7948,-294.2442"/>
</g>
<!-- S1_&#45;&gt;ScalarState -->
<g id="edge3" class="edge">
<title>S1_:se&#45;&gt;ScalarState</title>
<path fill="none" stroke="#000000" d="M1301.5007,-271C1420.0603,-152.4404 1048.7527,-228.6905 893.4584,-264.447"/>
<polygon fill="#000000" stroke="#000000" points="892.5021,-261.0757 883.5493,-266.7412 894.0811,-267.8953 892.5021,-261.0757"/>
</g>
<!-- S2_ -->
<g id="node8" class="node">
<title>S2_</title>
<polygon fill="none" stroke="#000000" points="716,-106 570,-106 570,-82 716,-82 728,-94 716,-106"/>
<text text-anchor="middle" x="649" y="-90.3" font-family="Sans-Serif" font-size="14.00" fill="#000000">reduce matrix to scalar </text>
</g>
<!-- S2&#45;&gt;S2_ -->
<g id="edge4" class="edge">
<title>S2:e&#45;&gt;S2_:w</title>
<path fill="none" stroke="#000000" d="M465,-55C511.1842,-55 519.2009,-88.567 559.8688,-93.4184"/>
<polygon fill="#000000" stroke="#000000" points="559.8158,-96.9211 570,-94 560.2171,-89.9326 559.8158,-96.9211"/>
</g>
<!-- S2_&#45;&gt;ScalarState -->
<g id="edge5" class="edge">
<title>S2_:e&#45;&gt;ScalarState</title>
<path fill="none" stroke="#000000" d="M728,-94C797.1641,-94 818.9601,-194.7785 825.6473,-247.9725"/>
<polygon fill="#000000" stroke="#000000" points="822.1731,-248.3984 826.7929,-257.9329 829.1273,-247.5985 822.1731,-248.3984"/>
</g>
<!-- S3_ -->
<g id="node10" class="node">
<title>S3_</title>
<polygon fill="none" stroke="#000000" points="715.5,-200 570.5,-200 570.5,-176 715.5,-176 727.5,-188 715.5,-200"/>
<text text-anchor="middle" x="649" y="-184.3" font-family="Sans-Serif" font-size="14.00" fill="#000000">reduce vector to scalar </text>
</g>
<!-- S3&#45;&gt;S3_ -->
<g id="edge6" class="edge">
<title>S3:e&#45;&gt;S3_:w</title>
<path fill="none" stroke="#000000" d="M465,-151C510.9036,-151 519.4207,-182.8456 559.9208,-187.4482"/>
<polygon fill="#000000" stroke="#000000" points="559.8236,-190.9481 570,-188 560.2063,-183.9585 559.8236,-190.9481"/>
</g>
<!-- S3_&#45;&gt;ScalarState -->
<g id="edge7" class="edge">
<title>S3_:e&#45;&gt;ScalarState</title>
<path fill="none" stroke="#000000" d="M728,-188C764.9789,-188 794.2717,-222.307 811.4761,-249.0213"/>
<polygon fill="#000000" stroke="#000000" points="808.6157,-251.0512 816.8408,-257.7294 814.5755,-247.3795 808.6157,-251.0512"/>
</g>
<!-- S5_ -->
<g id="node12" class="node">
<title>S5_</title>
<polygon fill="none" stroke="#000000" points="704,-392 582,-392 582,-368 704,-368 716,-380 704,-392"/>
<text text-anchor="middle" x="649" y="-376.3" font-family="Sans-Serif" font-size="14.00" fill="#000000">lookup vector entry </text>
</g>
<!-- S5&#45;&gt;S5_ -->
<g id="edge8" class="edge">
<title>S5:e&#45;&gt;S5_:w</title>
<path fill="none" stroke="#000000" d="M472,-426C521.369,-426 528.2304,-386.0741 571.7879,-380.6155"/>
<polygon fill="#000000" stroke="#000000" points="572.2287,-384.0954 582,-380 571.8075,-377.108 572.2287,-384.0954"/>
</g>
<!-- S5_&#45;&gt;ScalarState -->
<g id="edge9" class="edge">
<title>S5_:e&#45;&gt;ScalarState</title>
<path fill="none" stroke="#000000" d="M716,-380C758.1541,-380 791.8528,-340.294 811.0142,-310.9216"/>
<polygon fill="#000000" stroke="#000000" points="814.1401,-312.5248 816.4874,-302.1932 808.2096,-308.806 814.1401,-312.5248"/>
</g>
<!-- S6_ -->
<g id="node14" class="node">
<title>S6_</title>
<polygon fill="none" stroke="#000000" points="687,-500 599,-500 599,-476 687,-476 699,-488 687,-500"/>
<text text-anchor="middle" x="649" y="-484.3" font-family="Sans-Serif" font-size="14.00" fill="#000000">lookup scalar </text>
</g>
<!-- S6&#45;&gt;S6_ -->
<g id="edge10" class="edge">
<title>S6:e&#45;&gt;S6_:w</title>
<path fill="none" stroke="#000000" d="M464,-542C525.088,-542 533.5724,-493.7448 588.9069,-488.4668"/>
<polygon fill="#000000" stroke="#000000" points="589.1724,-491.9584 599,-488 588.8489,-484.9659 589.1724,-491.9584"/>
</g>
<!-- S6_&#45;&gt;ScalarState -->
<g id="edge11" class="edge">
<title>S6_:e&#45;&gt;ScalarState</title>
<path fill="none" stroke="#000000" d="M699,-488C780.693,-488 812.6961,-370.9429 823.5876,-312.4572"/>
<polygon fill="#000000" stroke="#000000" points="827.0959,-312.7151 825.3828,-302.2596 820.202,-311.5013 827.0959,-312.7151"/>
</g>
<!-- S4_ -->
<g id="node16" class="node">
<title>S4_</title>
<polygon fill="none" stroke="#000000" points="704.5,-292 581.5,-292 581.5,-268 704.5,-268 716.5,-280 704.5,-292"/>
<text text-anchor="middle" x="649" y="-276.3" font-family="Sans-Serif" font-size="14.00" fill="#000000">lookup matrix entry </text>
</g>
<!-- S4&#45;&gt;S4_ -->
<g id="edge12" class="edge">
<title>S4:e&#45;&gt;S4_:w</title>
<path fill="none" stroke="#000000" d="M534,-280C550.9722,-280 557.602,-280 570.6958,-280"/>
<polygon fill="#000000" stroke="#000000" points="571,-283.5001 581,-280 571,-276.5001 571,-283.5001"/>
</g>
<!-- S4_&#45;&gt;ScalarState -->
<g id="edge13" class="edge">
<title>S4_:e&#45;&gt;ScalarState</title>
<path fill="none" stroke="#000000" d="M717,-280C728.8717,-280 741.4544,-280 753.7262,-280"/>
<polygon fill="#000000" stroke="#000000" points="753.9389,-283.5001 763.9389,-280 753.9388,-276.5001 753.9389,-283.5001"/>
</g>
</g>
</svg>
