<?xml version="1.0" encoding="UTF-8" standalone="no"?>
<!DOCTYPE svg PUBLIC "-//W3C//DTD SVG 1.1//EN"
 "http://www.w3.org/Graphics/SVG/1.1/DTD/svg11.dtd">
<!-- Generated by graphviz version 14.1.1 (20251213.1925)
 -->
<!-- Pages: 1 -->
<svg width="1051pt" height="277pt"
 viewBox="0.00 0.00 1051.00 277.00" xmlns="http://www.w3.org/2000/svg" xmlns:xlink="http://www.w3.org/1999/xlink">
<g id="graph0" class="graph" transform="scale(1 1) rotate(0) translate(4 273)">
<polygon fill="white" stroke="none" points="-4,4 -4,-273 1047.25,-273 1047.25,4 -4,4"/>
<g id="clust1" class="cluster">
<title>cluster_all</title>
<polygon fill="none" stroke="black" points="176,-8 176,-261 871.75,-261 871.75,-8 176,-8"/>
<text xml:space="preserve" text-anchor="middle" x="285.62" y="-230.4" font-family="Sans-Serif" font-size="28.00">VECTOR MASK</text>
</g>
<!-- Vector_base_axis -->
<g id="node1" class="node">
<title>Vector_base_axis</title>
<polygon fill="none" stroke="black" points="148,-134 0,-134 0,-98 148,-98 148,-134"/>
<text xml:space="preserve" text-anchor="start" x="8" y="-117.7" font-family="Sans-Serif" font-size="14.00"> VectorState</text>
<text xml:space="preserve" text-anchor="start" x="82.25" y="-117.7" font-family="Sans-Serif" font-style="italic" baseline-shift="sub" font-size="14.00">base axis</text>
<text xml:space="preserve" text-anchor="start" x="132.5" y="-117.7" font-family="Sans-Serif" font-size="14.00">  </text>
<text xml:space="preserve" text-anchor="start" x="72.12" y="-103.7" font-family="Sans-Serif" font-size="14.00"> </text>
</g>
<!-- V4 -->
<g id="node5" class="node">
<title>V4</title>
<g id="a_node5"><a xlink:href="#../DataAxesFormats.Queries.VECTOR_MASK_LOOKUP" xlink:title="VECTOR MASK LOOKUP">
<polygon fill="none" stroke="black" points="360.5,-134 184,-134 184,-130 180,-130 180,-126 184,-126 184,-106 180,-106 180,-102 184,-102 184,-98 360.5,-98 360.5,-134"/>
<polyline fill="none" stroke="black" points="184,-130 188,-130 188,-126 184,-126"/>
<polyline fill="none" stroke="black" points="184,-106 188,-106 188,-102 184,-102"/>
<text xml:space="preserve" text-anchor="middle" x="272.25" y="-110.2" font-family="Sans-Serif" font-size="14.00">VECTOR MASK LOOKUP</text>
</a>
</g>
</g>
<!-- Vector_base_axis&#45;&gt;V4 -->
<g id="edge10" class="edge">
<title>Vector_base_axis&#45;&gt;V4:w</title>
<path fill="none" stroke="black" d="M148.24,-116C155.88,-116 163.64,-116 171.24,-116"/>
<polygon fill="black" stroke="black" points="171.12,-119.5 181.12,-116 171.12,-112.5 171.12,-119.5"/>
</g>
<!-- Vector_final_axis -->
<g id="node2" class="node">
<title>Vector_final_axis</title>
<polygon fill="none" stroke="black" points="1043.25,-134 899.75,-134 899.75,-98 1043.25,-98 1043.25,-134"/>
<text xml:space="preserve" text-anchor="start" x="907.75" y="-117.7" font-family="Sans-Serif" font-size="14.00"> VectorState</text>
<text xml:space="preserve" text-anchor="start" x="982" y="-117.7" font-family="Sans-Serif" font-style="italic" baseline-shift="sub" font-size="14.00">final axis</text>
<text xml:space="preserve" text-anchor="start" x="1027.75" y="-117.7" font-family="Sans-Serif" font-size="14.00">  </text>
<text xml:space="preserve" text-anchor="start" x="969.62" y="-103.7" font-family="Sans-Serif" font-size="14.00"> </text>
</g>
<!-- V6 -->
<g id="node3" class="node">
<title>V6</title>
<g id="a_node3"><a xlink:href="#../DataAxesFormats.Queries.VECTOR_MASK_OPERATION" xlink:title="VECTOR MASK OPERATION">
<polygon fill="none" stroke="black" points="606.38,-52 406.62,-52 406.62,-48 402.62,-48 402.62,-44 406.62,-44 406.62,-24 402.62,-24 402.62,-20 406.62,-20 406.62,-16 606.38,-16 606.38,-52"/>
<polyline fill="none" stroke="black" points="406.62,-48 410.62,-48 410.62,-44 406.62,-44"/>
<polyline fill="none" stroke="black" points="406.62,-24 410.62,-24 410.62,-20 406.62,-20"/>
<text xml:space="preserve" text-anchor="middle" x="506.5" y="-28.2" font-family="Sans-Serif" font-size="14.00">VECTOR MASK OPERATION</text>
</a>
</g>
</g>
<!-- Vector_mask_values -->
<g id="node4" class="node">
<title>Vector_mask_values</title>
<polygon fill="none" stroke="black" points="616.5,-162 396.5,-162 396.5,-70 616.5,-70 616.5,-162"/>
<text xml:space="preserve" text-anchor="start" x="446.12" y="-145.7" font-family="Sans-Serif" font-size="14.00">VectorState</text>
<text xml:space="preserve" text-anchor="start" x="516.62" y="-145.7" font-family="Sans-Serif" font-style="italic" baseline-shift="sub" font-size="14.00">base axis</text>
<text xml:space="preserve" text-anchor="start" x="504.62" y="-131.7" font-family="Sans-Serif" font-size="14.00"> </text>
<text xml:space="preserve" text-anchor="start" x="404.5" y="-117.7" font-family="Sans-Serif" font-size="14.00">BeginMask </text>
<text xml:space="preserve" text-anchor="start" x="475.75" y="-117.7" font-family="Sans-Serif" font-style="italic" baseline-shift="sub" font-size="14.00">or</text>
<text xml:space="preserve" text-anchor="start" x="486.25" y="-117.7" font-family="Sans-Serif" font-size="14.00"> BeginNegatedMask</text>
<text xml:space="preserve" text-anchor="start" x="504.62" y="-103.7" font-family="Sans-Serif" font-size="14.00"> </text>
<text xml:space="preserve" text-anchor="start" x="438.25" y="-89.7" font-family="Sans-Serif" font-size="14.00">VectorState</text>
<text xml:space="preserve" text-anchor="start" x="508.75" y="-89.7" font-family="Sans-Serif" font-style="italic" baseline-shift="sub" font-size="14.00">mask values</text>
<text xml:space="preserve" text-anchor="start" x="504.62" y="-75.7" font-family="Sans-Serif" font-size="14.00"> </text>
</g>
<!-- V6&#45;&gt;Vector_mask_values -->
<g id="edge2" class="edge">
<title>V6&#45;&gt;Vector_mask_values</title>
<path fill="none" stroke="black" d="M454.32,-52.42C448.49,-55.32 443.78,-58.21 440.19,-61.11"/>
<polygon fill="black" stroke="black" points="437.59,-58.77 433.78,-68.65 442.92,-63.3 437.59,-58.77"/>
</g>
<!-- Vector_mask_values&#45;&gt;V6 -->
<g id="edge1" class="edge">
<title>Vector_mask_values&#45;&gt;V6</title>
<path fill="none" stroke="black" d="M580.2,-69.8C578.36,-65.82 574.39,-61.84 568.3,-57.85"/>
<polygon fill="black" stroke="black" points="570.43,-55.03 560,-53.16 566.99,-61.13 570.43,-55.03"/>
</g>
<!-- VG12 -->
<g id="node6" class="node">
<title>VG12</title>
<polygon fill="none" stroke="black" stroke-dasharray="1,5" points="742.75,-144.75 652.5,-144.75 652.5,-87.25 742.75,-87.25 742.75,-144.75"/>
<text xml:space="preserve" text-anchor="start" x="693.5" y="-127.45" font-family="Courier,monospace" font-size="14.00">]</text>
<text xml:space="preserve" text-anchor="start" x="693.5" y="-110.95" font-family="Courier,monospace" font-size="14.00"> </text>
<text xml:space="preserve" text-anchor="start" x="660.5" y="-94.45" font-family="Courier,monospace" font-size="14.00">EndMask()</text>
</g>
<!-- Vector_mask_values&#45;&gt;VG12 -->
<g id="edge5" class="edge">
<title>Vector_mask_values&#45;&gt;VG12</title>
<path fill="none" stroke="black" d="M616.97,-116C625.21,-116 633.3,-116 640.98,-116"/>
<polygon fill="black" stroke="black" points="640.76,-119.5 650.76,-116 640.76,-112.5 640.76,-119.5"/>
</g>
<!-- V5 -->
<g id="node8" class="node">
<title>V5</title>
<g id="a_node8"><a xlink:href="#../DataAxesFormats.Queries.VECTOR_OPERATION" xlink:title="VECTOR OPERATION">
<polygon fill="none" stroke="black" points="585,-216 428,-216 428,-212 424,-212 424,-208 428,-208 428,-188 424,-188 424,-184 428,-184 428,-180 585,-180 585,-216"/>
<polyline fill="none" stroke="black" points="428,-212 432,-212 432,-208 428,-208"/>
<polyline fill="none" stroke="black" points="428,-188 432,-188 432,-184 428,-184"/>
<text xml:space="preserve" text-anchor="middle" x="506.5" y="-192.2" font-family="Sans-Serif" font-size="14.00">VECTOR OPERATION</text>
</a>
</g>
</g>
<!-- Vector_mask_values&#45;&gt;V5 -->
<g id="edge7" class="edge">
<title>Vector_mask_values&#45;&gt;V5</title>
<path fill="none" stroke="black" d="M587.54,-162.45C585.4,-166.45 580.9,-170.45 574.04,-174.46"/>
<polygon fill="black" stroke="black" points="572.76,-171.18 565.44,-178.84 575.94,-177.42 572.76,-171.18"/>
</g>
<!-- V4&#45;&gt;V6 -->
<!-- V4&#45;&gt;Vector_mask_values -->
<g id="edge4" class="edge">
<title>V4:e&#45;&gt;Vector_mask_values</title>
<path fill="none" stroke="black" d="M360.5,-116C368.46,-116 376.67,-116 384.94,-116"/>
<polygon fill="black" stroke="black" points="384.73,-119.5 394.73,-116 384.73,-112.5 384.73,-119.5"/>
</g>
<!-- V4&#45;&gt;V5 -->
<!-- VG12_ -->
<g id="node7" class="node">
<title>VG12_</title>
<polygon fill="none" stroke="black" points="851.75,-128 778.75,-128 778.75,-104 851.75,-104 863.75,-116 851.75,-128"/>
<text xml:space="preserve" text-anchor="middle" x="821.25" y="-110.2" font-family="Sans-Serif" font-size="14.00">apply mask</text>
</g>
<!-- VG12&#45;&gt;VG12_ -->
<g id="edge6" class="edge">
<title>VG12:e&#45;&gt;VG12_:w</title>
<path fill="none" stroke="black" d="M742.75,-116C754.12,-116 759.43,-116 767.3,-116"/>
<polygon fill="black" stroke="black" points="767.24,-119.5 777.24,-116 767.24,-112.5 767.24,-119.5"/>
</g>
<!-- VG12_&#45;&gt;Vector_final_axis -->
<g id="edge11" class="edge">
<title>VG12_:e&#45;&gt;Vector_final_axis</title>
<path fill="none" stroke="black" d="M865.15,-116C872.58,-116 880.31,-116 888.06,-116"/>
<polygon fill="black" stroke="black" points="887.87,-119.5 897.87,-116 887.87,-112.5 887.87,-119.5"/>
</g>
<!-- V5&#45;&gt;Vector_mask_values -->
<g id="edge8" class="edge">
<title>V5&#45;&gt;Vector_mask_values</title>
<path fill="none" stroke="black" d="M448.91,-179.53C442.42,-176.59 437.19,-173.66 433.24,-170.72"/>
<polygon fill="black" stroke="black" points="435.89,-168.43 426.49,-163.55 430.79,-173.23 435.89,-168.43"/>
</g>
</g>
</svg>
