<?xml version="1.0" encoding="UTF-8" standalone="no"?>
<!DOCTYPE svg PUBLIC "-//W3C//DTD SVG 1.1//EN"
 "http://www.w3.org/Graphics/SVG/1.1/DTD/svg11.dtd">
<!-- Generated by graphviz version 14.1.1 (20251213.1925)
 -->
<!-- Pages: 1 -->
<svg width="1002pt" height="724pt"
 viewBox="0.00 0.00 1002.00 724.00" xmlns="http://www.w3.org/2000/svg" xmlns:xlink="http://www.w3.org/1999/xlink">
<g id="graph0" class="graph" transform="scale(1 1) rotate(0) translate(4 720)">
<polygon fill="white" stroke="none" points="-4,4 -4,-720 998,-720 998,4 -4,4"/>
<g id="clust1" class="cluster">
<title>cluster_all</title>
<polygon fill="none" stroke="black" points="146.75,-8 146.75,-708 833.75,-708 833.75,-8 146.75,-8"/>
<text xml:space="preserve" text-anchor="middle" x="275.12" y="-677.4" font-family="Sans-Serif" font-size="28.00">VECTOR LOOKUP</text>
</g>
<!-- Vector_axis -->
<g id="node1" class="node">
<title>Vector_axis</title>
<polygon fill="none" stroke="black" points="118.75,-374 0,-374 0,-338 118.75,-338 118.75,-374"/>
<text xml:space="preserve" text-anchor="start" x="8" y="-357.7" font-family="Sans-Serif" font-size="14.00"> VectorState</text>
<text xml:space="preserve" text-anchor="start" x="82.25" y="-357.7" font-family="Sans-Serif" font-style="italic" baseline-shift="sub" font-size="14.00">axis</text>
<text xml:space="preserve" text-anchor="start" x="103.25" y="-357.7" font-family="Sans-Serif" font-size="14.00">  </text>
<text xml:space="preserve" text-anchor="start" x="57.5" y="-343.7" font-family="Sans-Serif" font-size="14.00"> </text>
</g>
<!-- VL1 -->
<g id="node3" class="node">
<title>VL1</title>
<polygon fill="none" stroke="black" stroke-dasharray="1,5" points="471.88,-172.25 216.62,-172.25 216.62,-15.75 471.88,-15.75 471.88,-172.25"/>
<text xml:space="preserve" text-anchor="start" x="286.5" y="-154.95" font-family="Courier,monospace" font-size="14.00" fill="gray">?? final_value</text>
<text xml:space="preserve" text-anchor="start" x="270" y="-138.45" font-family="Courier,monospace" font-size="14.00">:: matrix_property</text>
<text xml:space="preserve" text-anchor="start" x="278.25" y="-121.95" font-family="Courier,monospace" font-size="14.00" fill="gray">|| default_value</text>
<text xml:space="preserve" text-anchor="start" x="298.88" y="-105.45" font-family="Courier,monospace" font-size="14.00">@&#45; row_name</text>
<text xml:space="preserve" text-anchor="start" x="340.12" y="-88.95" font-family="Courier,monospace" font-size="14.00"> </text>
<text xml:space="preserve" text-anchor="start" x="249.38" y="-72.45" font-family="Courier,monospace" font-size="14.00" fill="gray">IfEmpty(final_value) |&gt;</text>
<text xml:space="preserve" text-anchor="start" x="224.62" y="-55.95" font-family="Courier,monospace" font-size="14.00">LookupMatrix(vector_property)</text>
<text xml:space="preserve" text-anchor="start" x="232.88" y="-39.45" font-family="Courier,monospace" font-size="14.00" fill="gray">|&gt; IfMissing(default_value)</text>
<text xml:space="preserve" text-anchor="start" x="249.38" y="-22.95" font-family="Courier,monospace" font-size="14.00">|&gt; RowIsEqual(row_name)</text>
</g>
<!-- Vector_axis&#45;&gt;VL1 -->
<g id="edge5" class="edge">
<title>Vector_axis&#45;&gt;VL1:w</title>
<path fill="none" stroke="black" d="M62.35,-337.58C69.6,-279.98 100.03,-106.43 204.28,-94.63"/>
<polygon fill="black" stroke="black" points="204.32,-98.14 214.11,-94.08 203.93,-91.15 204.32,-98.14"/>
</g>
<!-- VL2 -->
<g id="node5" class="node">
<title>VL2</title>
<polygon fill="none" stroke="black" stroke-dasharray="1,5" points="471.88,-347.25 216.62,-347.25 216.62,-190.75 471.88,-190.75 471.88,-347.25"/>
<text xml:space="preserve" text-anchor="start" x="286.5" y="-329.95" font-family="Courier,monospace" font-size="14.00" fill="gray">?? final_value</text>
<text xml:space="preserve" text-anchor="start" x="270" y="-313.45" font-family="Courier,monospace" font-size="14.00">:: matrix_property</text>
<text xml:space="preserve" text-anchor="start" x="278.25" y="-296.95" font-family="Courier,monospace" font-size="14.00" fill="gray">|| default_value</text>
<text xml:space="preserve" text-anchor="start" x="286.5" y="-280.45" font-family="Courier,monospace" font-size="14.00">@| column_name</text>
<text xml:space="preserve" text-anchor="start" x="340.12" y="-263.95" font-family="Courier,monospace" font-size="14.00"> </text>
<text xml:space="preserve" text-anchor="start" x="249.38" y="-247.45" font-family="Courier,monospace" font-size="14.00" fill="gray">IfEmpty(final_value) |&gt;</text>
<text xml:space="preserve" text-anchor="start" x="224.62" y="-230.95" font-family="Courier,monospace" font-size="14.00">LookupMatrix(vector_property)</text>
<text xml:space="preserve" text-anchor="start" x="232.88" y="-214.45" font-family="Courier,monospace" font-size="14.00" fill="gray">|&gt; IfMissing(default_value)</text>
<text xml:space="preserve" text-anchor="start" x="224.62" y="-197.95" font-family="Courier,monospace" font-size="14.00">|&gt; ColumnIsEqual(column_name)</text>
</g>
<!-- Vector_axis&#45;&gt;VL2 -->
<g id="edge6" class="edge">
<title>Vector_axis&#45;&gt;VL2:w</title>
<path fill="none" stroke="black" d="M78.59,-337.55C103.99,-313.76 152.73,-274.8 204.25,-269.58"/>
<polygon fill="black" stroke="black" points="204.31,-273.09 214.11,-269.08 203.95,-266.09 204.31,-273.09"/>
</g>
<!-- VL3 -->
<g id="node7" class="node">
<title>VL3</title>
<polygon fill="none" stroke="black" stroke-dasharray="1,5" points="533.75,-522.25 154.75,-522.25 154.75,-365.75 533.75,-365.75 533.75,-522.25"/>
<text xml:space="preserve" text-anchor="start" x="286.5" y="-504.95" font-family="Courier,monospace" font-size="14.00" fill="gray">?? final_value</text>
<text xml:space="preserve" text-anchor="start" x="270" y="-488.45" font-family="Courier,monospace" font-size="14.00">:: matrix_property</text>
<text xml:space="preserve" text-anchor="start" x="278.25" y="-471.95" font-family="Courier,monospace" font-size="14.00" fill="gray">|| default_value</text>
<text xml:space="preserve" text-anchor="start" x="232.88" y="-455.45" font-family="Courier,monospace" font-size="14.00">@ column_axis = column_name</text>
<text xml:space="preserve" text-anchor="start" x="340.12" y="-438.95" font-family="Courier,monospace" font-size="14.00"> </text>
<text xml:space="preserve" text-anchor="start" x="249.38" y="-422.45" font-family="Courier,monospace" font-size="14.00" fill="gray">IfEmpty(final_value) |&gt;</text>
<text xml:space="preserve" text-anchor="start" x="224.62" y="-405.95" font-family="Courier,monospace" font-size="14.00">LookupMatrix(vector_property)</text>
<text xml:space="preserve" text-anchor="start" x="232.88" y="-389.45" font-family="Courier,monospace" font-size="14.00" fill="gray">|&gt; IfMissing(default_value)</text>
<text xml:space="preserve" text-anchor="start" x="162.75" y="-372.95" font-family="Courier,monospace" font-size="14.00">|&gt; Axis(column_axis) |&gt; IsEqual(column_name)</text>
</g>
<!-- Vector_axis&#45;&gt;VL3 -->
<g id="edge7" class="edge">
<title>Vector_axis&#45;&gt;VL3:w</title>
<path fill="none" stroke="black" d="M69.34,-374.23C82.13,-397.59 107.95,-435.91 142.69,-442.89"/>
<polygon fill="black" stroke="black" points="141.94,-446.33 152.24,-443.85 142.64,-439.37 141.94,-446.33"/>
</g>
<!-- VL4 -->
<g id="node9" class="node">
<title>VL4</title>
<polygon fill="none" stroke="black" stroke-dasharray="1,5" points="471.88,-663.75 216.62,-663.75 216.62,-540.25 471.88,-540.25 471.88,-663.75"/>
<text xml:space="preserve" text-anchor="start" x="286.5" y="-646.45" font-family="Courier,monospace" font-size="14.00" fill="gray">?? final_value</text>
<text xml:space="preserve" text-anchor="start" x="274.12" y="-629.95" font-family="Courier,monospace" font-size="14.00">: vector_property</text>
<text xml:space="preserve" text-anchor="start" x="278.25" y="-613.45" font-family="Courier,monospace" font-size="14.00" fill="gray">|| default_value</text>
<text xml:space="preserve" text-anchor="start" x="340.12" y="-596.95" font-family="Courier,monospace" font-size="14.00"> </text>
<text xml:space="preserve" text-anchor="start" x="249.38" y="-580.45" font-family="Courier,monospace" font-size="14.00" fill="gray">IfEmpty(final_value) |&gt;</text>
<text xml:space="preserve" text-anchor="start" x="224.62" y="-563.95" font-family="Courier,monospace" font-size="14.00">LookupVector(vector_property)</text>
<text xml:space="preserve" text-anchor="start" x="232.88" y="-547.45" font-family="Courier,monospace" font-size="14.00" fill="gray">|&gt; IfMissing(default_value)</text>
</g>
<!-- Vector_axis&#45;&gt;VL4 -->
<g id="edge8" class="edge">
<title>Vector_axis&#45;&gt;VL4:w</title>
<path fill="none" stroke="black" d="M62.94,-374.49C71.68,-429.63 105.49,-589.84 204.24,-601.35"/>
<polygon fill="black" stroke="black" points="203.93,-604.83 214.11,-601.91 204.33,-597.85 203.93,-604.83"/>
</g>
<!-- Vector_values -->
<g id="node2" class="node">
<title>Vector_values</title>
<polygon fill="none" stroke="black" points="994,-374 861.75,-374 861.75,-338 994,-338 994,-374"/>
<text xml:space="preserve" text-anchor="start" x="869.75" y="-357.7" font-family="Sans-Serif" font-size="14.00"> VectorState</text>
<text xml:space="preserve" text-anchor="start" x="944" y="-357.7" font-family="Sans-Serif" font-style="italic" baseline-shift="sub" font-size="14.00">values</text>
<text xml:space="preserve" text-anchor="start" x="978.5" y="-357.7" font-family="Sans-Serif" font-size="14.00">  </text>
<text xml:space="preserve" text-anchor="start" x="926" y="-343.7" font-family="Sans-Serif" font-size="14.00"> </text>
</g>
<!-- VL1_ -->
<g id="node4" class="node">
<title>VL1_</title>
<polygon fill="none" stroke="black" points="802.5,-181 581,-181 581,-157 802.5,-157 814.5,-169 802.5,-181"/>
<text xml:space="preserve" text-anchor="middle" x="697.75" y="-163.2" font-family="Sans-Serif" font-size="14.00">lookup square matrix row by vector  </text>
</g>
<!-- VL1&#45;&gt;VL1_ -->
<g id="edge1" class="edge">
<title>VL1:e&#45;&gt;VL1_:w</title>
<path fill="none" stroke="black" d="M472.88,-94C526.74,-94 522.54,-158.82 568.24,-167.94"/>
<polygon fill="black" stroke="black" points="567.72,-171.41 578,-168.86 568.37,-164.44 567.72,-171.41"/>
</g>
<!-- VL1_&#45;&gt;Vector_values -->
<g id="edge9" class="edge">
<title>VL1_:e&#45;&gt;Vector_values</title>
<path fill="none" stroke="black" d="M815.99,-169C888.3,-169 914.48,-273.72 923.08,-326.43"/>
<polygon fill="black" stroke="black" points="919.61,-326.87 924.56,-336.23 926.53,-325.82 919.61,-326.87"/>
</g>
<!-- VL2_ -->
<g id="node6" class="node">
<title>VL2_</title>
<polygon fill="none" stroke="black" points="813.75,-311 569.75,-311 569.75,-287 813.75,-287 825.75,-299 813.75,-311"/>
<text xml:space="preserve" text-anchor="middle" x="697.75" y="-293.2" font-family="Sans-Serif" font-size="14.00">lookup square matrix column by vector  </text>
</g>
<!-- VL2&#45;&gt;VL2_ -->
<g id="edge2" class="edge">
<title>VL2:e&#45;&gt;VL2_:w</title>
<path fill="none" stroke="black" d="M472.88,-269C513.9,-269 523.16,-293.85 558.47,-298.32"/>
<polygon fill="black" stroke="black" points="558.05,-301.8 568.24,-298.91 558.47,-294.81 558.05,-301.8"/>
</g>
<!-- VL2_&#45;&gt;Vector_values -->
<g id="edge10" class="edge">
<title>VL2_:e&#45;&gt;Vector_values</title>
<path fill="none" stroke="black" d="M826.96,-299C854.25,-299 880.87,-315.24 899.76,-330.38"/>
<polygon fill="black" stroke="black" points="897.33,-332.91 907.23,-336.68 901.84,-327.55 897.33,-332.91"/>
</g>
<!-- VL3_ -->
<g id="node8" class="node">
<title>VL3_</title>
<polygon fill="none" stroke="black" points="791.25,-425 592.25,-425 592.25,-401 791.25,-401 803.25,-413 791.25,-425"/>
<text xml:space="preserve" text-anchor="middle" x="697.75" y="-407.2" font-family="Sans-Serif" font-size="14.00">lookup matrix column by vector  </text>
</g>
<!-- VL3&#45;&gt;VL3_ -->
<g id="edge3" class="edge">
<title>VL3:e&#45;&gt;VL3_:w</title>
<path fill="none" stroke="black" d="M533.75,-444C558.21,-444 561.46,-421.73 579.46,-414.94"/>
<polygon fill="black" stroke="black" points="580.05,-418.39 589.31,-413.26 578.87,-411.49 580.05,-418.39"/>
</g>
<!-- VL3_&#45;&gt;Vector_values -->
<g id="edge11" class="edge">
<title>VL3_:e&#45;&gt;Vector_values</title>
<path fill="none" stroke="black" d="M804.69,-413C837.26,-413 870.51,-396.17 894.09,-380.79"/>
<polygon fill="black" stroke="black" points="896.02,-383.72 902.32,-375.2 892.08,-377.93 896.02,-383.72"/>
</g>
<!-- VL4_ -->
<g id="node10" class="node">
<title>VL4_</title>
<polygon fill="none" stroke="black" points="766.88,-561 616.62,-561 616.62,-537 766.88,-537 778.88,-549 766.88,-561"/>
<text xml:space="preserve" text-anchor="middle" x="697.75" y="-543.2" font-family="Sans-Serif" font-size="14.00">lookup vector by vector  </text>
</g>
<!-- VL4&#45;&gt;VL4_ -->
<g id="edge4" class="edge">
<title>VL4:e&#45;&gt;VL4_:w</title>
<path fill="none" stroke="black" d="M472.88,-602C536.45,-602 546.68,-555.03 604.01,-549.52"/>
<polygon fill="black" stroke="black" points="603.95,-553.03 613.77,-549.07 603.62,-546.04 603.95,-553.03"/>
</g>
<!-- VL4_&#45;&gt;Vector_values -->
<g id="edge12" class="edge">
<title>VL4_:e&#45;&gt;Vector_values</title>
<path fill="none" stroke="black" d="M780.22,-549C861.57,-549 903.69,-438.94 919.43,-385.05"/>
<polygon fill="black" stroke="black" points="922.75,-386.19 922.07,-375.61 916.01,-384.3 922.75,-386.19"/>
</g>
</g>
</svg>
