<?xml version="1.0" encoding="UTF-8" standalone="no"?>
<!DOCTYPE svg PUBLIC "-//W3C//DTD SVG 1.1//EN"
 "http://www.w3.org/Graphics/SVG/1.1/DTD/svg11.dtd">
<!-- Generated by graphviz version 2.40.1 (0)
 -->
<!-- Title: %3 Pages: 1 -->
<svg width="1015pt" height="529pt"
 viewBox="0.00 0.00 1015.00 529.00" xmlns="http://www.w3.org/2000/svg" xmlns:xlink="http://www.w3.org/1999/xlink">
<g id="graph0" class="graph" transform="scale(1 1) rotate(0) translate(4 525)">
<title>%3</title>
<polygon fill="#ffffff" stroke="transparent" points="-4,4 -4,-525 1011,-525 1011,4 -4,4"/>
<g id="clust1" class="cluster">
<title>cluster_all</title>
<polygon fill="none" stroke="#000000" points="177,-8 177,-513 754,-513 754,-8 177,-8"/>
<text text-anchor="middle" x="346.5" y="-486.6" font-family="Sans-Serif" font-size="28.00" fill="#000000">VECTOR MASK LOOKUP</text>
</g>
<!-- Vector_base_axis -->
<g id="node1" class="node">
<title>Vector_base_axis</title>
<polygon fill="none" stroke="#000000" points="149,-245 0,-245 0,-209 149,-209 149,-245"/>
<text text-anchor="start" x="8" y="-230.8" font-family="Sans-Serif" font-size="14.00" fill="#000000"> VectorState</text>
<text text-anchor="start" x="82" y="-230.8" font-family="Sans-Serif" font-style="italic" baseline-shift="sub" font-size="14.00" fill="#000000">base axis</text>
<text text-anchor="start" x="133" y="-230.8" font-family="Sans-Serif" font-size="14.00" fill="#000000">  </text>
<text text-anchor="start" x="72.5" y="-216.8" font-family="Sans-Serif" font-size="14.00" fill="#000000"> </text>
</g>
<!-- VO1 -->
<g id="node3" class="node">
<title>VO1</title>
<polygon fill="none" stroke="#000000" stroke-dasharray="1,5" points="475,-466 185,-466 185,-360 475,-360 475,-466"/>
<text text-anchor="start" x="250.5" y="-451.8" font-family="Courier,monospace" font-size="14.00" fill="#000000">[ </text>
<text text-anchor="start" x="267.5" y="-451.8" font-family="Courier,monospace" font-size="14.00" fill="#c0c0c0">!</text>
<text text-anchor="start" x="276.5" y="-451.8" font-family="Courier,monospace" font-size="14.00" fill="#000000"> matrix_property</text>
<text text-anchor="start" x="263.5" y="-437.8" font-family="Courier,monospace" font-size="14.00" fill="#c0c0c0">|| default_value</text>
<text text-anchor="start" x="284.5" y="-423.8" font-family="Courier,monospace" font-size="14.00" fill="#000000">@&#45; row_name</text>
<text text-anchor="start" x="325.5" y="-409.8" font-family="Courier,monospace" font-size="14.00" fill="#000000"> </text>
<text text-anchor="start" x="193" y="-395.8" font-family="Courier,monospace" font-size="14.00" fill="#000000">Begin</text>
<text text-anchor="start" x="235" y="-395.8" font-family="Courier,monospace" font-size="14.00" fill="#c0c0c0">Negated</text>
<text text-anchor="start" x="293" y="-395.8" font-family="Courier,monospace" font-size="14.00" fill="#000000">Mask(matrix_property)</text>
<text text-anchor="start" x="218.5" y="-381.8" font-family="Courier,monospace" font-size="14.00" fill="#c0c0c0">|&gt; IfMissing(default_value)</text>
<text text-anchor="start" x="235" y="-367.8" font-family="Courier,monospace" font-size="14.00" fill="#000000">|&gt; RowIsEqual(row_name)</text>
</g>
<!-- Vector_base_axis&#45;&gt;VO1 -->
<g id="edge5" class="edge">
<title>Vector_base_axis&#45;&gt;VO1:w</title>
<path fill="none" stroke="#000000" d="M76.5968,-245.1731C82.8139,-289.8731 105.2878,-402.2765 174.8663,-412.285"/>
<polygon fill="#000000" stroke="#000000" points="174.7784,-415.7874 185,-413 175.2712,-408.8048 174.7784,-415.7874"/>
</g>
<!-- VO2 -->
<g id="node5" class="node">
<title>VO2</title>
<polygon fill="none" stroke="#000000" stroke-dasharray="1,5" points="475,-342 185,-342 185,-236 475,-236 475,-342"/>
<text text-anchor="start" x="250.5" y="-327.8" font-family="Courier,monospace" font-size="14.00" fill="#000000">[ </text>
<text text-anchor="start" x="267.5" y="-327.8" font-family="Courier,monospace" font-size="14.00" fill="#c0c0c0">!</text>
<text text-anchor="start" x="276.5" y="-327.8" font-family="Courier,monospace" font-size="14.00" fill="#000000"> matrix_property</text>
<text text-anchor="start" x="263.5" y="-313.8" font-family="Courier,monospace" font-size="14.00" fill="#c0c0c0">|| default_value</text>
<text text-anchor="start" x="272" y="-299.8" font-family="Courier,monospace" font-size="14.00" fill="#000000">@| column_name</text>
<text text-anchor="start" x="325.5" y="-285.8" font-family="Courier,monospace" font-size="14.00" fill="#000000"> </text>
<text text-anchor="start" x="193" y="-271.8" font-family="Courier,monospace" font-size="14.00" fill="#000000">Begin</text>
<text text-anchor="start" x="235" y="-271.8" font-family="Courier,monospace" font-size="14.00" fill="#c0c0c0">Negated</text>
<text text-anchor="start" x="293" y="-271.8" font-family="Courier,monospace" font-size="14.00" fill="#000000">Mask(matrix_property)</text>
<text text-anchor="start" x="218.5" y="-257.8" font-family="Courier,monospace" font-size="14.00" fill="#c0c0c0">|&gt; IfMissing(default_value)</text>
<text text-anchor="start" x="197.5" y="-243.8" font-family="Courier,monospace" font-size="14.00" fill="#000000">|&gt; ColumnIsEqual(rowcolumn_name)</text>
</g>
<!-- Vector_base_axis&#45;&gt;VO2 -->
<g id="edge6" class="edge">
<title>Vector_base_axis&#45;&gt;VO2:w</title>
<path fill="none" stroke="#000000" d="M93.0784,-245.2667C111.786,-261.8406 142.4516,-284.292 174.888,-288.356"/>
<polygon fill="#000000" stroke="#000000" points="174.7977,-291.8572 185,-289 175.2427,-284.8714 174.7977,-291.8572"/>
</g>
<!-- VO3 -->
<g id="node7" class="node">
<title>VO3</title>
<polygon fill="none" stroke="#000000" stroke-dasharray="1,5" points="475,-218 185,-218 185,-112 475,-112 475,-218"/>
<text text-anchor="start" x="250.5" y="-203.8" font-family="Courier,monospace" font-size="14.00" fill="#000000">[ </text>
<text text-anchor="start" x="267.5" y="-203.8" font-family="Courier,monospace" font-size="14.00" fill="#c0c0c0">!</text>
<text text-anchor="start" x="276.5" y="-203.8" font-family="Courier,monospace" font-size="14.00" fill="#000000"> matrix_property</text>
<text text-anchor="start" x="263.5" y="-189.8" font-family="Courier,monospace" font-size="14.00" fill="#c0c0c0">|| default_value</text>
<text text-anchor="start" x="218.5" y="-175.8" font-family="Courier,monospace" font-size="14.00" fill="#000000">@ column_axis = column_name</text>
<text text-anchor="start" x="325.5" y="-161.8" font-family="Courier,monospace" font-size="14.00" fill="#000000"> </text>
<text text-anchor="start" x="193" y="-147.8" font-family="Courier,monospace" font-size="14.00" fill="#000000">Begin</text>
<text text-anchor="start" x="235" y="-147.8" font-family="Courier,monospace" font-size="14.00" fill="#c0c0c0">Negated</text>
<text text-anchor="start" x="293" y="-147.8" font-family="Courier,monospace" font-size="14.00" fill="#000000">Mask(matrix_property)</text>
<text text-anchor="start" x="218.5" y="-133.8" font-family="Courier,monospace" font-size="14.00" fill="#c0c0c0">|&gt; IfMissing(default_value)</text>
<text text-anchor="start" x="235" y="-119.8" font-family="Courier,monospace" font-size="14.00" fill="#000000">|&gt; IsEqual(column_name)</text>
</g>
<!-- Vector_base_axis&#45;&gt;VO3 -->
<g id="edge7" class="edge">
<title>Vector_base_axis&#45;&gt;VO3:w</title>
<path fill="none" stroke="#000000" d="M93.0784,-208.7333C111.786,-192.1594 142.4516,-169.708 174.888,-165.644"/>
<polygon fill="#000000" stroke="#000000" points="175.2427,-169.1286 185,-165 174.7977,-162.1428 175.2427,-169.1286"/>
</g>
<!-- VO4 -->
<g id="node9" class="node">
<title>VO4</title>
<polygon fill="none" stroke="#000000" stroke-dasharray="1,5" points="475,-94 185,-94 185,-16 475,-16 475,-94"/>
<text text-anchor="start" x="250.5" y="-79.8" font-family="Courier,monospace" font-size="14.00" fill="#000000">[ </text>
<text text-anchor="start" x="267.5" y="-79.8" font-family="Courier,monospace" font-size="14.00" fill="#c0c0c0">!</text>
<text text-anchor="start" x="276.5" y="-79.8" font-family="Courier,monospace" font-size="14.00" fill="#000000"> vector_property</text>
<text text-anchor="start" x="263.5" y="-65.8" font-family="Courier,monospace" font-size="14.00" fill="#c0c0c0">|| default_value</text>
<text text-anchor="start" x="325.5" y="-51.8" font-family="Courier,monospace" font-size="14.00" fill="#000000"> </text>
<text text-anchor="start" x="193" y="-37.8" font-family="Courier,monospace" font-size="14.00" fill="#000000">Begin</text>
<text text-anchor="start" x="235" y="-37.8" font-family="Courier,monospace" font-size="14.00" fill="#c0c0c0">Negated</text>
<text text-anchor="start" x="293" y="-37.8" font-family="Courier,monospace" font-size="14.00" fill="#000000">Mask(vector_property)</text>
<text text-anchor="start" x="218.5" y="-23.8" font-family="Courier,monospace" font-size="14.00" fill="#c0c0c0">|&gt; IfMissing(default_value)</text>
</g>
<!-- Vector_base_axis&#45;&gt;VO4 -->
<g id="edge8" class="edge">
<title>Vector_base_axis&#45;&gt;VO4:w</title>
<path fill="none" stroke="#000000" d="M77.3044,-208.9181C84.8945,-166.914 109.8138,-65.5621 174.6899,-55.7646"/>
<polygon fill="#000000" stroke="#000000" points="175.2863,-59.2301 185,-55 174.7685,-52.2493 175.2863,-59.2301"/>
</g>
<!-- Vector_mask_values -->
<g id="node2" class="node">
<title>Vector_mask_values</title>
<polygon fill="none" stroke="#000000" points="1007,-272 782,-272 782,-180 1007,-180 1007,-272"/>
<text text-anchor="start" x="834" y="-257.8" font-family="Sans-Serif" font-size="14.00" fill="#000000">VectorState</text>
<text text-anchor="start" x="904" y="-257.8" font-family="Sans-Serif" font-style="italic" baseline-shift="sub" font-size="14.00" fill="#000000">base axis</text>
<text text-anchor="start" x="892.5" y="-243.8" font-family="Sans-Serif" font-size="14.00" fill="#000000"> </text>
<text text-anchor="start" x="790" y="-229.8" font-family="Sans-Serif" font-size="14.00" fill="#000000">BeginMask </text>
<text text-anchor="start" x="862" y="-229.8" font-family="Sans-Serif" font-style="italic" baseline-shift="sub" font-size="14.00" fill="#000000">or </text>
<text text-anchor="start" x="876" y="-229.8" font-family="Sans-Serif" font-size="14.00" fill="#000000"> BeginNegatedMask</text>
<text text-anchor="start" x="892.5" y="-215.8" font-family="Sans-Serif" font-size="14.00" fill="#000000"> </text>
<text text-anchor="start" x="826" y="-201.8" font-family="Sans-Serif" font-size="14.00" fill="#000000">VectorState</text>
<text text-anchor="start" x="896" y="-201.8" font-family="Sans-Serif" font-style="italic" baseline-shift="sub" font-size="14.00" fill="#000000">mask values</text>
<text text-anchor="start" x="892.5" y="-187.8" font-family="Sans-Serif" font-size="14.00" fill="#000000"> </text>
</g>
<!-- VO1_ -->
<g id="node4" class="node">
<title>VO1_</title>
<polygon fill="none" stroke="#000000" points="722.5,-389 522.5,-389 522.5,-365 722.5,-365 734.5,-377 722.5,-389"/>
<text text-anchor="middle" x="628.5" y="-373.3" font-family="Sans-Serif" font-size="14.00" fill="#000000">lookup square matrix row mask  </text>
</g>
<!-- VO1&#45;&gt;VO1_ -->
<g id="edge1" class="edge">
<title>VO1:e&#45;&gt;VO1_:w</title>
<path fill="none" stroke="#000000" d="M475,-413C497.5572,-413 496.9328,-386.8943 512.608,-379.1442"/>
<polygon fill="#000000" stroke="#000000" points="513.4684,-382.539 522.5,-377 511.9855,-375.6979 513.4684,-382.539"/>
</g>
<!-- VO1_&#45;&gt;Vector_mask_values -->
<g id="edge9" class="edge">
<title>VO1_:e&#45;&gt;Vector_mask_values</title>
<path fill="none" stroke="#000000" d="M734.5,-377C792.3876,-377 837.8124,-324.0753 865.2417,-280.8915"/>
<polygon fill="#000000" stroke="#000000" points="868.3784,-282.4733 870.6528,-272.1255 862.4218,-278.7964 868.3784,-282.4733"/>
</g>
<!-- VO2_ -->
<g id="node6" class="node">
<title>VO2_</title>
<polygon fill="none" stroke="#000000" points="734,-283 511,-283 511,-259 734,-259 746,-271 734,-283"/>
<text text-anchor="middle" x="628.5" y="-267.3" font-family="Sans-Serif" font-size="14.00" fill="#000000">lookup square matrix column mask  </text>
</g>
<!-- VO2&#45;&gt;VO2_ -->
<g id="edge2" class="edge">
<title>VO2:e&#45;&gt;VO2_:w</title>
<path fill="none" stroke="#000000" d="M475,-289C488.8357,-289 492.1037,-278.2323 501.1509,-273.3532"/>
<polygon fill="#000000" stroke="#000000" points="502.0871,-276.7281 511,-271 500.4604,-269.9197 502.0871,-276.7281"/>
</g>
<!-- VO2_&#45;&gt;Vector_mask_values -->
<g id="edge10" class="edge">
<title>VO2_:e&#45;&gt;Vector_mask_values</title>
<path fill="none" stroke="#000000" d="M746.5,-271C754.8002,-271 763.2533,-270.3441 771.7016,-269.1907"/>
<polygon fill="#000000" stroke="#000000" points="772.28,-272.6428 781.6073,-267.6177 771.1821,-265.7294 772.28,-272.6428"/>
</g>
<!-- VO3_ -->
<g id="node8" class="node">
<title>VO3_</title>
<polygon fill="none" stroke="#000000" points="711.5,-194 533.5,-194 533.5,-170 711.5,-170 723.5,-182 711.5,-194"/>
<text text-anchor="middle" x="628.5" y="-178.3" font-family="Sans-Serif" font-size="14.00" fill="#000000">lookup matrix column mask  </text>
</g>
<!-- VO3&#45;&gt;VO3_ -->
<g id="edge3" class="edge">
<title>VO3:e&#45;&gt;VO3_:w</title>
<path fill="none" stroke="#000000" d="M475,-165C498.2681,-165 504.7519,-177.5549 523.2994,-181.086"/>
<polygon fill="#000000" stroke="#000000" points="523.2275,-184.5935 533.5,-182 523.8523,-177.6214 523.2275,-184.5935"/>
</g>
<!-- VO3_&#45;&gt;Vector_mask_values -->
<g id="edge11" class="edge">
<title>VO3_:e&#45;&gt;Vector_mask_values</title>
<path fill="none" stroke="#000000" d="M723.5,-182C739.3661,-182 755.8065,-183.7986 771.9404,-186.6684"/>
<polygon fill="#000000" stroke="#000000" points="771.458,-190.1396 781.9385,-188.5872 772.7775,-183.2651 771.458,-190.1396"/>
</g>
<!-- VO4_ -->
<g id="node10" class="node">
<title>VO4_</title>
<polygon fill="none" stroke="#000000" points="687,-95 558,-95 558,-71 687,-71 699,-83 687,-95"/>
<text text-anchor="middle" x="628.5" y="-79.3" font-family="Sans-Serif" font-size="14.00" fill="#000000">lookup vector mask  </text>
</g>
<!-- VO4&#45;&gt;VO4_ -->
<g id="edge4" class="edge">
<title>VO4:e&#45;&gt;VO4_:w</title>
<path fill="none" stroke="#000000" d="M475,-55C510.0908,-55 517.5348,-77.9961 547.4419,-82.3079"/>
<polygon fill="#000000" stroke="#000000" points="547.2833,-85.8051 557.5,-83 547.7639,-78.8217 547.2833,-85.8051"/>
</g>
<!-- VO4_&#45;&gt;Vector_mask_values -->
<g id="edge12" class="edge">
<title>VO4_:e&#45;&gt;Vector_mask_values</title>
<path fill="none" stroke="#000000" d="M699.5,-83C762.2092,-83 818.1277,-131.6856 853.8301,-172.2418"/>
<polygon fill="#000000" stroke="#000000" points="851.3019,-174.6698 860.4776,-179.9668 856.6079,-170.1039 851.3019,-174.6698"/>
</g>
</g>
</svg>
