<?xml version="1.0" encoding="UTF-8" standalone="no"?>
<!DOCTYPE svg PUBLIC "-//W3C//DTD SVG 1.1//EN"
 "http://www.w3.org/Graphics/SVG/1.1/DTD/svg11.dtd">
<!-- Generated by graphviz version 14.1.1 (20251213.1925)
 -->
<!-- Pages: 1 -->
<svg width="1010pt" height="527pt"
 viewBox="0.00 0.00 1010.00 527.00" xmlns="http://www.w3.org/2000/svg" xmlns:xlink="http://www.w3.org/1999/xlink">
<g id="graph0" class="graph" transform="scale(1 1) rotate(0) translate(4 523)">
<polygon fill="white" stroke="none" points="-4,4 -4,-523 1005.5,-523 1005.5,4 -4,4"/>
<g id="clust1" class="cluster">
<title>cluster_all</title>
<polygon fill="none" stroke="black" points="176,-8 176,-511 750.5,-511 750.5,-8 176,-8"/>
<text xml:space="preserve" text-anchor="middle" x="347.88" y="-480.4" font-family="Sans-Serif" font-size="28.00">VECTOR MASK LOOKUP</text>
</g>
<!-- Vector_base_axis -->
<g id="node1" class="node">
<title>Vector_base_axis</title>
<polygon fill="none" stroke="black" points="148,-273 0,-273 0,-237 148,-237 148,-273"/>
<text xml:space="preserve" text-anchor="start" x="8" y="-256.7" font-family="Sans-Serif" font-size="14.00"> VectorState</text>
<text xml:space="preserve" text-anchor="start" x="82.25" y="-256.7" font-family="Sans-Serif" font-style="italic" baseline-shift="sub" font-size="14.00">base axis</text>
<text xml:space="preserve" text-anchor="start" x="132.5" y="-256.7" font-family="Sans-Serif" font-size="14.00">  </text>
<text xml:space="preserve" text-anchor="start" x="72.12" y="-242.7" font-family="Sans-Serif" font-size="14.00"> </text>
</g>
<!-- VO1 -->
<g id="node3" class="node">
<title>VO1</title>
<polygon fill="none" stroke="black" stroke-dasharray="1,5" points="472.25,-122 184,-122 184,-16 472.25,-16 472.25,-122"/>
<text xml:space="preserve" text-anchor="start" x="249.75" y="-105.7" font-family="Courier,monospace" font-size="14.00">[ </text>
<text xml:space="preserve" text-anchor="start" x="266.25" y="-105.7" font-family="Courier,monospace" font-size="14.00" fill="gray">!</text>
<text xml:space="preserve" text-anchor="start" x="274.5" y="-105.7" font-family="Courier,monospace" font-size="14.00"> matrix_property</text>
<text xml:space="preserve" text-anchor="start" x="262.12" y="-91.7" font-family="Courier,monospace" font-size="14.00" fill="gray">|| default_value</text>
<text xml:space="preserve" text-anchor="start" x="282.75" y="-77.7" font-family="Courier,monospace" font-size="14.00">@&#45; row_name</text>
<text xml:space="preserve" text-anchor="start" x="324" y="-63.7" font-family="Courier,monospace" font-size="14.00"> </text>
<text xml:space="preserve" text-anchor="start" x="192" y="-49.7" font-family="Courier,monospace" font-size="14.00">Begin</text>
<text xml:space="preserve" text-anchor="start" x="233.25" y="-49.7" font-family="Courier,monospace" font-size="14.00" fill="gray">Negated</text>
<text xml:space="preserve" text-anchor="start" x="291" y="-49.7" font-family="Courier,monospace" font-size="14.00">Mask(matrix_property)</text>
<text xml:space="preserve" text-anchor="start" x="216.75" y="-35.7" font-family="Courier,monospace" font-size="14.00" fill="gray">|&gt; IfMissing(default_value)</text>
<text xml:space="preserve" text-anchor="start" x="233.25" y="-21.7" font-family="Courier,monospace" font-size="14.00">|&gt; RowIsEqual(row_name)</text>
</g>
<!-- Vector_base_axis&#45;&gt;VO1 -->
<g id="edge5" class="edge">
<title>Vector_base_axis&#45;&gt;VO1:w</title>
<path fill="none" stroke="black" d="M76.9,-236.83C82.6,-192.4 103.6,-81.1 171.67,-69.91"/>
<polygon fill="black" stroke="black" points="171.8,-73.41 181.49,-69.12 171.24,-66.43 171.8,-73.41"/>
</g>
<!-- VO2 -->
<g id="node5" class="node">
<title>VO2</title>
<polygon fill="none" stroke="black" stroke-dasharray="1,5" points="472.25,-246 184,-246 184,-140 472.25,-140 472.25,-246"/>
<text xml:space="preserve" text-anchor="start" x="249.75" y="-229.7" font-family="Courier,monospace" font-size="14.00">[ </text>
<text xml:space="preserve" text-anchor="start" x="266.25" y="-229.7" font-family="Courier,monospace" font-size="14.00" fill="gray">!</text>
<text xml:space="preserve" text-anchor="start" x="274.5" y="-229.7" font-family="Courier,monospace" font-size="14.00"> matrix_property</text>
<text xml:space="preserve" text-anchor="start" x="262.12" y="-215.7" font-family="Courier,monospace" font-size="14.00" fill="gray">|| default_value</text>
<text xml:space="preserve" text-anchor="start" x="270.38" y="-201.7" font-family="Courier,monospace" font-size="14.00">@| column_name</text>
<text xml:space="preserve" text-anchor="start" x="324" y="-187.7" font-family="Courier,monospace" font-size="14.00"> </text>
<text xml:space="preserve" text-anchor="start" x="192" y="-173.7" font-family="Courier,monospace" font-size="14.00">Begin</text>
<text xml:space="preserve" text-anchor="start" x="233.25" y="-173.7" font-family="Courier,monospace" font-size="14.00" fill="gray">Negated</text>
<text xml:space="preserve" text-anchor="start" x="291" y="-173.7" font-family="Courier,monospace" font-size="14.00">Mask(matrix_property)</text>
<text xml:space="preserve" text-anchor="start" x="216.75" y="-159.7" font-family="Courier,monospace" font-size="14.00" fill="gray">|&gt; IfMissing(default_value)</text>
<text xml:space="preserve" text-anchor="start" x="196.12" y="-145.7" font-family="Courier,monospace" font-size="14.00">|&gt; ColumnIsEqual(rowcolumn_name)</text>
</g>
<!-- Vector_base_axis&#45;&gt;VO2 -->
<g id="edge6" class="edge">
<title>Vector_base_axis&#45;&gt;VO2:w</title>
<path fill="none" stroke="black" d="M93.08,-236.73C111.07,-220.37 140.46,-198.29 171.83,-193.81"/>
<polygon fill="black" stroke="black" points="171.77,-197.32 181.49,-193.11 171.26,-190.34 171.77,-197.32"/>
</g>
<!-- VO3 -->
<g id="node7" class="node">
<title>VO3</title>
<polygon fill="none" stroke="black" stroke-dasharray="1,5" points="472.25,-370 184,-370 184,-264 472.25,-264 472.25,-370"/>
<text xml:space="preserve" text-anchor="start" x="249.75" y="-353.7" font-family="Courier,monospace" font-size="14.00">[ </text>
<text xml:space="preserve" text-anchor="start" x="266.25" y="-353.7" font-family="Courier,monospace" font-size="14.00" fill="gray">!</text>
<text xml:space="preserve" text-anchor="start" x="274.5" y="-353.7" font-family="Courier,monospace" font-size="14.00"> matrix_property</text>
<text xml:space="preserve" text-anchor="start" x="262.12" y="-339.7" font-family="Courier,monospace" font-size="14.00" fill="gray">|| default_value</text>
<text xml:space="preserve" text-anchor="start" x="216.75" y="-325.7" font-family="Courier,monospace" font-size="14.00">@ column_axis = column_name</text>
<text xml:space="preserve" text-anchor="start" x="324" y="-311.7" font-family="Courier,monospace" font-size="14.00"> </text>
<text xml:space="preserve" text-anchor="start" x="192" y="-297.7" font-family="Courier,monospace" font-size="14.00">Begin</text>
<text xml:space="preserve" text-anchor="start" x="233.25" y="-297.7" font-family="Courier,monospace" font-size="14.00" fill="gray">Negated</text>
<text xml:space="preserve" text-anchor="start" x="291" y="-297.7" font-family="Courier,monospace" font-size="14.00">Mask(matrix_property)</text>
<text xml:space="preserve" text-anchor="start" x="216.75" y="-283.7" font-family="Courier,monospace" font-size="14.00" fill="gray">|&gt; IfMissing(default_value)</text>
<text xml:space="preserve" text-anchor="start" x="233.25" y="-269.7" font-family="Courier,monospace" font-size="14.00">|&gt; IsEqual(column_name)</text>
</g>
<!-- Vector_base_axis&#45;&gt;VO3 -->
<g id="edge7" class="edge">
<title>Vector_base_axis&#45;&gt;VO3:w</title>
<path fill="none" stroke="black" d="M93.08,-273.27C111.07,-289.63 140.46,-311.71 171.83,-316.19"/>
<polygon fill="black" stroke="black" points="171.26,-319.66 181.49,-316.89 171.77,-312.68 171.26,-319.66"/>
</g>
<!-- VO4 -->
<g id="node9" class="node">
<title>VO4</title>
<polygon fill="none" stroke="black" stroke-dasharray="1,5" points="472.25,-466 184,-466 184,-388 472.25,-388 472.25,-466"/>
<text xml:space="preserve" text-anchor="start" x="249.75" y="-449.7" font-family="Courier,monospace" font-size="14.00">[ </text>
<text xml:space="preserve" text-anchor="start" x="266.25" y="-449.7" font-family="Courier,monospace" font-size="14.00" fill="gray">!</text>
<text xml:space="preserve" text-anchor="start" x="274.5" y="-449.7" font-family="Courier,monospace" font-size="14.00"> vector_property</text>
<text xml:space="preserve" text-anchor="start" x="262.12" y="-435.7" font-family="Courier,monospace" font-size="14.00" fill="gray">|| default_value</text>
<text xml:space="preserve" text-anchor="start" x="324" y="-421.7" font-family="Courier,monospace" font-size="14.00"> </text>
<text xml:space="preserve" text-anchor="start" x="192" y="-407.7" font-family="Courier,monospace" font-size="14.00">Begin</text>
<text xml:space="preserve" text-anchor="start" x="233.25" y="-407.7" font-family="Courier,monospace" font-size="14.00" fill="gray">Negated</text>
<text xml:space="preserve" text-anchor="start" x="291" y="-407.7" font-family="Courier,monospace" font-size="14.00">Mask(vector_property)</text>
<text xml:space="preserve" text-anchor="start" x="216.75" y="-393.7" font-family="Courier,monospace" font-size="14.00" fill="gray">|&gt; IfMissing(default_value)</text>
</g>
<!-- Vector_base_axis&#45;&gt;VO4 -->
<g id="edge8" class="edge">
<title>Vector_base_axis&#45;&gt;VO4:w</title>
<path fill="none" stroke="black" d="M77.65,-273.41C84.78,-315.35 108.3,-415.25 171.61,-426.05"/>
<polygon fill="black" stroke="black" points="171.24,-429.53 181.49,-426.87 171.82,-422.55 171.24,-429.53"/>
</g>
<!-- Vector_mask_values -->
<g id="node2" class="node">
<title>Vector_mask_values</title>
<polygon fill="none" stroke="black" points="1001.5,-300 778.5,-300 778.5,-208 1001.5,-208 1001.5,-300"/>
<text xml:space="preserve" text-anchor="start" x="829.62" y="-283.7" font-family="Sans-Serif" font-size="14.00">VectorState</text>
<text xml:space="preserve" text-anchor="start" x="900.12" y="-283.7" font-family="Sans-Serif" font-style="italic" baseline-shift="sub" font-size="14.00">base axis</text>
<text xml:space="preserve" text-anchor="start" x="888.12" y="-269.7" font-family="Sans-Serif" font-size="14.00"> </text>
<text xml:space="preserve" text-anchor="start" x="786.5" y="-255.7" font-family="Sans-Serif" font-size="14.00">BeginMask </text>
<text xml:space="preserve" text-anchor="start" x="857.75" y="-255.7" font-family="Sans-Serif" font-style="italic" baseline-shift="sub" font-size="14.00">or </text>
<text xml:space="preserve" text-anchor="start" x="871.25" y="-255.7" font-family="Sans-Serif" font-size="14.00"> BeginNegatedMask</text>
<text xml:space="preserve" text-anchor="start" x="888.12" y="-241.7" font-family="Sans-Serif" font-size="14.00"> </text>
<text xml:space="preserve" text-anchor="start" x="821.75" y="-227.7" font-family="Sans-Serif" font-size="14.00">VectorState</text>
<text xml:space="preserve" text-anchor="start" x="892.25" y="-227.7" font-family="Sans-Serif" font-style="italic" baseline-shift="sub" font-size="14.00">mask values</text>
<text xml:space="preserve" text-anchor="start" x="888.12" y="-213.7" font-family="Sans-Serif" font-size="14.00"> </text>
</g>
<!-- VO1_ -->
<g id="node4" class="node">
<title>VO1_</title>
<polygon fill="none" stroke="black" points="719.25,-124 519.5,-124 519.5,-100 719.25,-100 731.25,-112 719.25,-124"/>
<text xml:space="preserve" text-anchor="middle" x="625.38" y="-106.2" font-family="Sans-Serif" font-size="14.00">lookup square matrix row mask  </text>
</g>
<!-- VO1&#45;&gt;VO1_ -->
<g id="edge1" class="edge">
<title>VO1:e&#45;&gt;VO1_:w</title>
<path fill="none" stroke="black" d="M472.25,-69C495.59,-69 492.4,-99.05 507.04,-108.91"/>
<polygon fill="black" stroke="black" points="506.02,-112.26 516.6,-111.59 507.92,-105.52 506.02,-112.26"/>
</g>
<!-- VO1_&#45;&gt;Vector_mask_values -->
<g id="edge9" class="edge">
<title>VO1_:e&#45;&gt;Vector_mask_values</title>
<path fill="none" stroke="black" d="M732.7,-112C786.32,-112 829.7,-158.36 857.03,-198.1"/>
<polygon fill="black" stroke="black" points="853.99,-199.86 862.45,-206.24 859.82,-195.98 853.99,-199.86"/>
</g>
<!-- VO2_ -->
<g id="node6" class="node">
<title>VO2_</title>
<polygon fill="none" stroke="black" points="730.5,-222 508.25,-222 508.25,-198 730.5,-198 742.5,-210 730.5,-222"/>
<text xml:space="preserve" text-anchor="middle" x="625.38" y="-204.2" font-family="Sans-Serif" font-size="14.00">lookup square matrix column mask  </text>
</g>
<!-- VO2&#45;&gt;VO2_ -->
<g id="edge2" class="edge">
<title>VO2:e&#45;&gt;VO2_:w</title>
<path fill="none" stroke="black" d="M472.25,-193C485.24,-193 489.03,-202.17 497.13,-207.04"/>
<polygon fill="black" stroke="black" points="496.22,-210.42 506.79,-209.61 498.02,-203.66 496.22,-210.42"/>
</g>
<!-- VO2_&#45;&gt;Vector_mask_values -->
<g id="edge10" class="edge">
<title>VO2_:e&#45;&gt;Vector_mask_values</title>
<path fill="none" stroke="black" d="M743.99,-210C751.59,-210 759.33,-210.56 767.06,-211.55"/>
<polygon fill="black" stroke="black" points="766.47,-215.01 776.89,-213.08 767.54,-208.09 766.47,-215.01"/>
</g>
<!-- VO3_ -->
<g id="node8" class="node">
<title>VO3_</title>
<polygon fill="none" stroke="black" points="708,-311 530.75,-311 530.75,-287 708,-287 720,-299 708,-311"/>
<text xml:space="preserve" text-anchor="middle" x="625.38" y="-293.2" font-family="Sans-Serif" font-size="14.00">lookup matrix column mask  </text>
</g>
<!-- VO3&#45;&gt;VO3_ -->
<g id="edge3" class="edge">
<title>VO3:e&#45;&gt;VO3_:w</title>
<path fill="none" stroke="black" d="M472.25,-317C494.7,-317 500.97,-304.19 518.37,-300.18"/>
<polygon fill="black" stroke="black" points="518.28,-303.71 527.85,-299.16 517.53,-296.75 518.28,-303.71"/>
</g>
<!-- VO3_&#45;&gt;Vector_mask_values -->
<g id="edge11" class="edge">
<title>VO3_:e&#45;&gt;Vector_mask_values</title>
<path fill="none" stroke="black" d="M721.4,-299C736.43,-299 751.97,-297.29 767.24,-294.54"/>
<polygon fill="black" stroke="black" points="767.69,-298.02 776.82,-292.65 766.34,-291.15 767.69,-298.02"/>
</g>
<!-- VO4_ -->
<g id="node10" class="node">
<title>VO4_</title>
<polygon fill="none" stroke="black" points="683.62,-410 555.12,-410 555.12,-386 683.62,-386 695.62,-398 683.62,-410"/>
<text xml:space="preserve" text-anchor="middle" x="625.38" y="-392.2" font-family="Sans-Serif" font-size="14.00">lookup vector mask  </text>
</g>
<!-- VO4&#45;&gt;VO4_ -->
<g id="edge4" class="edge">
<title>VO4:e&#45;&gt;VO4_:w</title>
<path fill="none" stroke="black" d="M472.25,-427C506.67,-427 514,-403.79 542.7,-398.9"/>
<polygon fill="black" stroke="black" points="542.64,-402.42 552.32,-398.12 542.07,-395.44 542.64,-402.42"/>
</g>
<!-- VO4_&#45;&gt;Vector_mask_values -->
<g id="edge12" class="edge">
<title>VO4_:e&#45;&gt;Vector_mask_values</title>
<path fill="none" stroke="black" d="M696.92,-398C758.66,-398 813.26,-349.79 848.31,-309.15"/>
<polygon fill="black" stroke="black" points="850.98,-311.42 854.74,-301.51 845.62,-306.92 850.98,-311.42"/>
</g>
</g>
</svg>
