<?xml version="1.0" encoding="UTF-8" standalone="no"?>
<!DOCTYPE svg PUBLIC "-//W3C//DTD SVG 1.1//EN"
 "http://www.w3.org/Graphics/SVG/1.1/DTD/svg11.dtd">
<!-- Generated by graphviz version 14.1.1 (20251213.1925)
 -->
<!-- Pages: 1 -->
<svg width="935pt" height="251pt"
 viewBox="0.00 0.00 935.00 251.00" xmlns="http://www.w3.org/2000/svg" xmlns:xlink="http://www.w3.org/1999/xlink">
<g id="graph0" class="graph" transform="scale(1 1) rotate(0) translate(4 247)">
<polygon fill="white" stroke="none" points="-4,4 -4,-247 930.5,-247 930.5,4 -4,4"/>
<g id="clust1" class="cluster">
<title>cluster_all</title>
<polygon fill="none" stroke="black" points="162.5,-8 162.5,-235 762.5,-235 762.5,-8 162.5,-8"/>
<text xml:space="preserve" text-anchor="middle" x="329.12" y="-204.4" font-family="Sans-Serif" font-size="28.00">VECTOR FROM MATRIX</text>
</g>
<!-- Matrix_values -->
<g id="node1" class="node">
<title>Matrix_values</title>
<polygon fill="none" stroke="black" points="134.5,-121 0,-121 0,-85 134.5,-85 134.5,-121"/>
<text xml:space="preserve" text-anchor="start" x="8" y="-104.7" font-family="Sans-Serif" font-size="14.00"> MatrixState</text>
<text xml:space="preserve" text-anchor="start" x="80.75" y="-104.7" font-family="Sans-Serif" font-style="italic" baseline-shift="sub" font-size="14.00">values</text>
<text xml:space="preserve" text-anchor="start" x="115.25" y="-104.7" font-family="Sans-Serif" font-size="14.00">   </text>
<text xml:space="preserve" text-anchor="start" x="65.38" y="-90.7" font-family="Sans-Serif" font-size="14.00"> </text>
</g>
<!-- VFM1 -->
<g id="node3" class="node">
<title>VFM1</title>
<polygon fill="none" stroke="black" stroke-dasharray="1,5" points="537.12,-94 182.88,-94 182.88,-16 537.12,-16 537.12,-94"/>
<text xml:space="preserve" text-anchor="start" x="244.5" y="-77.7" font-family="Courier,monospace" font-size="14.00">&gt;&#45; Reduction </text>
<text xml:space="preserve" text-anchor="start" x="351.75" y="-77.7" font-family="Courier,monospace" font-size="14.00" fill="gray">param value ...</text>
<text xml:space="preserve" text-anchor="start" x="294" y="-63.7" font-family="Courier,monospace" font-size="14.00" fill="gray">|| default_value</text>
<text xml:space="preserve" text-anchor="start" x="355.88" y="-49.7" font-family="Courier,monospace" font-size="14.00"> </text>
<text xml:space="preserve" text-anchor="start" x="190.88" y="-35.7" font-family="Courier,monospace" font-size="14.00">ReduceToRow(Reduction(</text>
<text xml:space="preserve" text-anchor="start" x="372.38" y="-35.7" font-family="Courier,monospace" font-size="14.00" fill="gray">param, value, ...</text>
<text xml:space="preserve" text-anchor="start" x="512.62" y="-35.7" font-family="Courier,monospace" font-size="14.00">))</text>
<text xml:space="preserve" text-anchor="start" x="248.62" y="-21.7" font-family="Courier,monospace" font-size="14.00" fill="gray">|&gt; IfMissing(default_value)</text>
</g>
<!-- Matrix_values&#45;&gt;VFM1 -->
<g id="edge4" class="edge">
<title>Matrix_values&#45;&gt;VFM1:w</title>
<path fill="none" stroke="black" d="M94.93,-84.58C114.55,-72.63 142.59,-58.73 170.7,-55.63"/>
<polygon fill="black" stroke="black" points="170.58,-59.14 180.36,-55.09 170.18,-52.15 170.58,-59.14"/>
</g>
<!-- VFM2 -->
<g id="node5" class="node">
<title>VFM2</title>
<polygon fill="none" stroke="black" stroke-dasharray="1,5" points="549.5,-190 170.5,-190 170.5,-112 549.5,-112 549.5,-190"/>
<text xml:space="preserve" text-anchor="start" x="244.5" y="-173.7" font-family="Courier,monospace" font-size="14.00">&gt;| Reduction </text>
<text xml:space="preserve" text-anchor="start" x="351.75" y="-173.7" font-family="Courier,monospace" font-size="14.00" fill="gray">param value ...</text>
<text xml:space="preserve" text-anchor="start" x="294" y="-159.7" font-family="Courier,monospace" font-size="14.00" fill="gray">|| default_value</text>
<text xml:space="preserve" text-anchor="start" x="355.88" y="-145.7" font-family="Courier,monospace" font-size="14.00"> </text>
<text xml:space="preserve" text-anchor="start" x="178.5" y="-131.7" font-family="Courier,monospace" font-size="14.00">ReduceToColumn(Reduction(</text>
<text xml:space="preserve" text-anchor="start" x="384.75" y="-131.7" font-family="Courier,monospace" font-size="14.00" fill="gray">param, value, ...</text>
<text xml:space="preserve" text-anchor="start" x="525" y="-131.7" font-family="Courier,monospace" font-size="14.00">))</text>
<text xml:space="preserve" text-anchor="start" x="248.62" y="-117.7" font-family="Courier,monospace" font-size="14.00" fill="gray">|&gt; IfMissing(default_value)</text>
</g>
<!-- Matrix_values&#45;&gt;VFM2 -->
<g id="edge3" class="edge">
<title>Matrix_values&#45;&gt;VFM2:w</title>
<path fill="none" stroke="black" d="M91.73,-121.42C108.76,-133.16 133.09,-146.78 158.02,-150.19"/>
<polygon fill="black" stroke="black" points="157.77,-153.69 167.99,-150.89 158.26,-146.7 157.77,-153.69"/>
</g>
<!-- Vector_values -->
<g id="node2" class="node">
<title>Vector_values</title>
<polygon fill="none" stroke="black" points="926.5,-120 790.5,-120 790.5,-84 926.5,-84 926.5,-120"/>
<text xml:space="preserve" text-anchor="start" x="798.5" y="-103.7" font-family="Sans-Serif" font-size="14.00"> VectorState</text>
<text xml:space="preserve" text-anchor="start" x="872.75" y="-103.7" font-family="Sans-Serif" font-style="italic" baseline-shift="sub" font-size="14.00">values</text>
<text xml:space="preserve" text-anchor="start" x="907.25" y="-103.7" font-family="Sans-Serif" font-size="14.00">   </text>
<text xml:space="preserve" text-anchor="start" x="856.62" y="-89.7" font-family="Sans-Serif" font-size="14.00"> </text>
</g>
<!-- VFM1_ -->
<g id="node4" class="node">
<title>VFM1_</title>
<polygon fill="none" stroke="black" points="731.25,-77 596.75,-77 596.75,-53 731.25,-53 743.25,-65 731.25,-77"/>
<text xml:space="preserve" text-anchor="middle" x="670" y="-59.2" font-family="Sans-Serif" font-size="14.00">reduce matrix to row  </text>
</g>
<!-- VFM1&#45;&gt;VFM1_ -->
<g id="edge1" class="edge">
<title>VFM1:e&#45;&gt;VFM1_:w</title>
<path fill="none" stroke="black" d="M538.12,-55C559.74,-55 567.2,-61.99 584.17,-64.28"/>
<polygon fill="black" stroke="black" points="583.73,-67.76 593.93,-64.9 584.17,-60.77 583.73,-67.76"/>
</g>
<!-- VFM1_&#45;&gt;Vector_values -->
<g id="edge6" class="edge">
<title>VFM1_:e&#45;&gt;Vector_values</title>
<path fill="none" stroke="black" d="M744.56,-65C766.84,-65 790.43,-71.59 810.25,-79.2"/>
<polygon fill="black" stroke="black" points="808.85,-82.41 819.43,-82.93 811.49,-75.93 808.85,-82.41"/>
</g>
<!-- VFM2_ -->
<g id="node6" class="node">
<title>VFM2_</title>
<polygon fill="none" stroke="black" points="742.5,-152 585.5,-152 585.5,-128 742.5,-128 754.5,-140 742.5,-152"/>
<text xml:space="preserve" text-anchor="middle" x="670" y="-134.2" font-family="Sans-Serif" font-size="14.00">reduce matrix to column  </text>
</g>
<!-- VFM2&#45;&gt;VFM2_ -->
<g id="edge2" class="edge">
<title>VFM2:e&#45;&gt;VFM2_:w</title>
<path fill="none" stroke="black" d="M549.5,-151C561.66,-151 566.32,-145.19 574.38,-142.02"/>
<polygon fill="black" stroke="black" points="574.8,-145.5 584.01,-140.27 573.55,-138.61 574.8,-145.5"/>
</g>
<!-- VFM2_&#45;&gt;Vector_values -->
<g id="edge5" class="edge">
<title>VFM2_:e&#45;&gt;Vector_values</title>
<path fill="none" stroke="black" d="M755.86,-140C776.39,-140 797.86,-133.11 815.76,-125.2"/>
<polygon fill="black" stroke="black" points="817.18,-128.4 824.75,-120.98 814.21,-122.06 817.18,-128.4"/>
</g>
</g>
</svg>
