<?xml version="1.0" encoding="UTF-8" standalone="no"?>
<!DOCTYPE svg PUBLIC "-//W3C//DTD SVG 1.1//EN"
 "http://www.w3.org/Graphics/SVG/1.1/DTD/svg11.dtd">
<!-- Generated by graphviz version 14.1.1 (20251213.1925)
 -->
<!-- Pages: 1 -->
<svg width="1117pt" height="187pt"
 viewBox="0.00 0.00 1117.00 187.00" xmlns="http://www.w3.org/2000/svg" xmlns:xlink="http://www.w3.org/1999/xlink">
<g id="graph0" class="graph" transform="scale(1 1) rotate(0) translate(4 183)">
<polygon fill="white" stroke="none" points="-4,4 -4,-183 1112.6,-183 1112.6,4 -4,4"/>
<g id="clust1" class="cluster">
<title>cluster_all</title>
<g id="a_clust1"><a xlink:href="assets/vector.svg" xlink:title="VECTOR">
<polygon fill="none" stroke="black" points="8,-8 8,-171 1100.6,-171 1100.6,-8 8,-8"/>
<text xml:space="preserve" text-anchor="middle" x="74.12" y="-140.4" font-family="Sans-Serif" font-size="28.00">VECTOR</text>
</a>
</g>
</g>
<!-- EMPTY -->
<g id="node1" class="node">
<title>EMPTY</title>
<ellipse fill="black" stroke="black" cx="81.38" cy="-56" rx="1.8" ry="1.8"/>
</g>
<!-- V1 -->
<g id="node5" class="node">
<title>V1</title>
<polygon fill="none" stroke="black" stroke-dasharray="1,5" points="281.25,-84.75 182.75,-84.75 182.75,-27.25 281.25,-27.25 281.25,-84.75"/>
<text xml:space="preserve" text-anchor="start" x="207.25" y="-67.45" font-family="Courier,monospace" font-size="14.00">@ axis</text>
<text xml:space="preserve" text-anchor="start" x="227.88" y="-50.95" font-family="Courier,monospace" font-size="14.00"> </text>
<text xml:space="preserve" text-anchor="start" x="190.75" y="-34.45" font-family="Courier,monospace" font-size="14.00">Axis(axis)</text>
</g>
<!-- EMPTY&#45;&gt;V1 -->
<g id="edge14" class="edge">
<title>EMPTY&#45;&gt;V1</title>
<path fill="none" stroke="black" d="M83.66,-56C91.5,-56 133.82,-56 171.1,-56"/>
<polygon fill="black" stroke="black" points="170.95,-59.5 180.95,-56 170.95,-52.5 170.95,-59.5"/>
</g>
<!-- Matrix_values -->
<g id="node2" class="node">
<title>Matrix_values</title>
<polygon fill="none" stroke="black" points="146.75,-117 16,-117 16,-81 146.75,-81 146.75,-117"/>
<text xml:space="preserve" text-anchor="start" x="24" y="-100.7" font-family="Sans-Serif" font-size="14.00"> MatrixState</text>
<text xml:space="preserve" text-anchor="start" x="96.75" y="-100.7" font-family="Sans-Serif" font-style="italic" baseline-shift="sub" font-size="14.00">values</text>
<text xml:space="preserve" text-anchor="start" x="131.25" y="-100.7" font-family="Sans-Serif" font-size="14.00">  </text>
<text xml:space="preserve" text-anchor="start" x="79.5" y="-86.7" font-family="Sans-Serif" font-size="14.00"> </text>
</g>
<!-- Matrix_values&#45;&gt;V1 -->
<!-- V6 -->
<g id="node11" class="node">
<title>V6</title>
<g id="a_node11"><a xlink:href="#DataAxesFormats.Queries.VECTOR_FROM_MATRIX" xlink:title="VECTOR FROM MATRIX">
<polygon fill="none" stroke="black" points="490,-126 317.25,-126 317.25,-122 313.25,-122 313.25,-118 317.25,-118 317.25,-98 313.25,-98 313.25,-94 317.25,-94 317.25,-90 490,-90 490,-126"/>
<polyline fill="none" stroke="black" points="317.25,-122 321.25,-122 321.25,-118 317.25,-118"/>
<polyline fill="none" stroke="black" points="317.25,-98 321.25,-98 321.25,-94 317.25,-94"/>
<text xml:space="preserve" text-anchor="middle" x="403.62" y="-102.2" font-family="Sans-Serif" font-size="14.00">VECTOR FROM MATRIX</text>
</a>
</g>
</g>
<!-- Matrix_values&#45;&gt;V6 -->
<g id="edge16" class="edge">
<title>Matrix_values&#45;&gt;V6</title>
<path fill="none" stroke="black" d="M147.18,-100.82C192.64,-102.1 254.2,-103.83 305.5,-105.27"/>
<polygon fill="black" stroke="black" points="305.34,-108.77 315.44,-105.55 305.54,-101.77 305.34,-108.77"/>
</g>
<!-- Vector_axis -->
<g id="node3" class="node">
<title>Vector_axis</title>
<polygon fill="none" stroke="black" points="644.75,-106 526,-106 526,-70 644.75,-70 644.75,-106"/>
<text xml:space="preserve" text-anchor="start" x="534" y="-89.7" font-family="Sans-Serif" font-size="14.00"> VectorState</text>
<text xml:space="preserve" text-anchor="start" x="608.25" y="-89.7" font-family="Sans-Serif" font-style="italic" baseline-shift="sub" font-size="14.00">axis</text>
<text xml:space="preserve" text-anchor="start" x="629.25" y="-89.7" font-family="Sans-Serif" font-size="14.00">  </text>
<text xml:space="preserve" text-anchor="start" x="583.5" y="-75.7" font-family="Sans-Serif" font-size="14.00"> </text>
</g>
<!-- V2 -->
<g id="node7" class="node">
<title>V2</title>
<g id="a_node7"><a xlink:href="#../DataAxesFormats.Queries.VECTOR_MASK" xlink:title="VECTOR MASK">
<polygon fill="none" stroke="black" points="642.88,-52 527.88,-52 527.88,-48 523.88,-48 523.88,-44 527.88,-44 527.88,-24 523.88,-24 523.88,-20 527.88,-20 527.88,-16 642.88,-16 642.88,-52"/>
<polyline fill="none" stroke="black" points="527.88,-48 531.88,-48 531.88,-44 527.88,-44"/>
<polyline fill="none" stroke="black" points="527.88,-24 531.88,-24 531.88,-20 527.88,-20"/>
<text xml:space="preserve" text-anchor="middle" x="585.38" y="-28.2" font-family="Sans-Serif" font-size="14.00">VECTOR MASK</text>
</a>
</g>
</g>
<!-- Vector_axis&#45;&gt;V2 -->
<g id="edge3" class="edge">
<title>Vector_axis&#45;&gt;V2</title>
<path fill="none" stroke="black" d="M624.22,-69.51C626.49,-67.25 627.86,-64.99 628.32,-62.73"/>
<polygon fill="black" stroke="black" points="631.56,-61.39 624.45,-53.54 625.11,-64.11 631.56,-61.39"/>
</g>
<!-- V3 -->
<g id="node8" class="node">
<title>V3</title>
<polygon fill="none" stroke="black" points="845.25,-100 680.75,-100 680.75,-76 845.25,-76 857.25,-88 845.25,-100"/>
<text xml:space="preserve" text-anchor="start" x="688.75" y="-89.7" font-family="Sans-Serif" font-size="14.00">values are names </text>
<text xml:space="preserve" text-anchor="start" x="799.75" y="-89.7" font-family="Sans-Serif" font-style="italic" baseline-shift="sub" font-size="14.00">implicit</text>
<text xml:space="preserve" text-anchor="start" x="834.25" y="-89.7" font-family="Sans-Serif" font-size="14.00">    </text>
<text xml:space="preserve" text-anchor="start" x="767.12" y="-75.7" font-family="Sans-Serif" font-size="14.00"> </text>
</g>
<!-- Vector_axis&#45;&gt;V3 -->
<g id="edge6" class="edge">
<title>Vector_axis&#45;&gt;V3:w</title>
<path fill="none" stroke="black" d="M645.02,-88C653.06,-88 661.34,-88 669.45,-88"/>
<polygon fill="black" stroke="black" points="669.24,-91.5 679.24,-88 669.24,-84.5 669.24,-91.5"/>
</g>
<!-- V4 -->
<g id="node9" class="node">
<title>V4</title>
<g id="a_node9"><a xlink:href="#DataAxesFormats.Queries.VECTOR_LOOKUP" xlink:title="VECTOR LOOKUP">
<polygon fill="none" stroke="black" points="835.88,-52 702.12,-52 702.12,-48 698.12,-48 698.12,-44 702.12,-44 702.12,-24 698.12,-24 698.12,-20 702.12,-20 702.12,-16 835.88,-16 835.88,-52"/>
<polyline fill="none" stroke="black" points="702.12,-48 706.12,-48 706.12,-44 702.12,-44"/>
<polyline fill="none" stroke="black" points="702.12,-24 706.12,-24 706.12,-20 702.12,-20"/>
<text xml:space="preserve" text-anchor="middle" x="769" y="-28.2" font-family="Sans-Serif" font-size="14.00">VECTOR LOOKUP</text>
</a>
</g>
</g>
<!-- Vector_axis&#45;&gt;V4 -->
<g id="edge8" class="edge">
<title>Vector_axis:se&#45;&gt;V4:w</title>
<path fill="none" stroke="black" d="M644.75,-70C662.67,-52.08 669.3,-38.47 689.39,-34.92"/>
<polygon fill="black" stroke="black" points="689.65,-38.41 699.34,-34.12 689.09,-31.43 689.65,-38.41"/>
</g>
<!-- Vector_values -->
<g id="node4" class="node">
<title>Vector_values</title>
<polygon fill="none" stroke="black" points="1088.6,-84.54 1088.6,-99.46 1032.55,-110 953.3,-110 897.25,-99.46 897.25,-84.54 953.3,-74 1032.55,-74 1088.6,-84.54"/>
<polygon fill="none" stroke="black" points="1092.6,-81.23 1092.6,-102.77 1032.93,-114 952.92,-114 893.25,-102.77 893.25,-81.23 952.92,-70 1032.93,-70 1092.6,-81.23"/>
<text xml:space="preserve" text-anchor="start" x="932.92" y="-87.2" font-family="Sans-Serif" font-size="14.00"> VectorState</text>
<text xml:space="preserve" text-anchor="start" x="1007.17" y="-87.2" font-family="Sans-Serif" font-style="italic" baseline-shift="sub" font-size="14.00">values</text>
<text xml:space="preserve" text-anchor="start" x="1041.67" y="-87.2" font-family="Sans-Serif" font-size="14.00">   </text>
</g>
<!-- V5 -->
<g id="node10" class="node">
<title>V5</title>
<g id="a_node10"><a xlink:href="#DataAxesFormats.Queries.VECTOR_OPERATION" xlink:title="VECTOR OPERATION">
<polygon fill="none" stroke="black" points="1071.42,-52 914.42,-52 914.42,-48 910.42,-48 910.42,-44 914.42,-44 914.42,-24 910.42,-24 910.42,-20 914.42,-20 914.42,-16 1071.42,-16 1071.42,-52"/>
<polyline fill="none" stroke="black" points="914.42,-48 918.42,-48 918.42,-44 914.42,-44"/>
<polyline fill="none" stroke="black" points="914.42,-24 918.42,-24 918.42,-20 914.42,-20"/>
<text xml:space="preserve" text-anchor="middle" x="992.92" y="-28.2" font-family="Sans-Serif" font-size="14.00">VECTOR OPERATION</text>
</a>
</g>
</g>
<!-- Vector_values&#45;&gt;V5 -->
<g id="edge10" class="edge">
<title>Vector_values&#45;&gt;V5</title>
<path fill="none" stroke="black" d="M1045.91,-72.18C1050.81,-68.36 1052.66,-64.54 1051.43,-60.71"/>
<polygon fill="black" stroke="black" points="1054.18,-58.54 1044.88,-53.47 1049,-63.24 1054.18,-58.54"/>
</g>
<!-- V1_ -->
<g id="node6" class="node">
<title>V1_</title>
<polygon fill="none" stroke="black" points="435.25,-66 360,-66 360,-42 435.25,-42 447.25,-54 435.25,-66"/>
<text xml:space="preserve" text-anchor="middle" x="403.62" y="-48.2" font-family="Sans-Serif" font-size="14.00">lookup axis </text>
</g>
<!-- V1&#45;&gt;V1_ -->
<g id="edge1" class="edge">
<title>V1:e&#45;&gt;V1_:w</title>
<path fill="none" stroke="black" d="M281.25,-56C311.47,-56 321.75,-54.46 347.14,-54.08"/>
<polygon fill="black" stroke="black" points="347.1,-57.58 357.08,-54.01 347.05,-50.58 347.1,-57.58"/>
</g>
<!-- V1_&#45;&gt;Vector_axis -->
<g id="edge2" class="edge">
<title>V1_:e&#45;&gt;Vector_axis:w</title>
<path fill="none" stroke="black" d="M448.66,-54C482.1,-54 487.54,-80.97 514.85,-86.87"/>
<polygon fill="black" stroke="black" points="514.19,-90.32 524.49,-87.85 514.9,-83.36 514.19,-90.32"/>
</g>
<!-- V1_&#45;&gt;V2 -->
<!-- V2&#45;&gt;Vector_axis -->
<g id="edge4" class="edge">
<title>V2&#45;&gt;Vector_axis</title>
<path fill="none" stroke="black" d="M546.89,-52.14C544.52,-54.4 543.06,-56.66 542.5,-58.93"/>
<polygon fill="black" stroke="black" points="539.17,-60 546,-68.1 545.71,-57.5 539.17,-60"/>
</g>
<!-- V3&#45;&gt;Vector_values -->
<g id="edge7" class="edge">
<title>V3:e&#45;&gt;Vector_values</title>
<path fill="none" stroke="black" d="M857.25,-88C865.21,-88 873.43,-88.07 881.71,-88.19"/>
<polygon fill="black" stroke="black" points="881.44,-91.69 891.5,-88.36 881.56,-84.69 881.44,-91.69"/>
</g>
<!-- V4&#45;&gt;Vector_values -->
<g id="edge9" class="edge">
<title>V4:e&#45;&gt;Vector_values</title>
<path fill="none" stroke="black" d="M837.16,-34C864.82,-34 867.52,-50.83 893.25,-61 901.41,-64.23 910.05,-67.35 918.69,-70.29"/>
<polygon fill="black" stroke="black" points="917.57,-73.61 928.16,-73.44 919.78,-66.97 917.57,-73.61"/>
</g>
<!-- V4&#45;&gt;V5 -->
<!-- V5&#45;&gt;Vector_values -->
<g id="edge11" class="edge">
<title>V5&#45;&gt;Vector_values</title>
<path fill="none" stroke="black" d="M941.99,-52.35C937.06,-55.66 934.43,-58.96 934.09,-62.26"/>
<polygon fill="black" stroke="black" points="931.07,-64.04 939.17,-70.87 937.1,-60.48 931.07,-64.04"/>
</g>
<!-- V6&#45;&gt;Vector_values -->
<g id="edge13" class="edge">
<title>V6&#45;&gt;Vector_values</title>
<path fill="none" stroke="black" d="M490.31,-114.41C581.47,-120.04 729.8,-125.8 857.25,-115 872.46,-113.71 888.54,-111.61 904.09,-109.2"/>
<polygon fill="black" stroke="black" points="904.49,-112.68 913.8,-107.63 903.37,-105.77 904.49,-112.68"/>
</g>
</g>
</svg>
