<?xml version="1.0" encoding="UTF-8" standalone="no"?>
<!DOCTYPE svg PUBLIC "-//W3C//DTD SVG 1.1//EN"
 "http://www.w3.org/Graphics/SVG/1.1/DTD/svg11.dtd">
<!-- Generated by graphviz version 2.40.1 (0)
 -->
<!-- Title: %3 Pages: 1 -->
<svg width="1752pt" height="641pt"
 viewBox="0.00 0.00 1752.00 641.00" xmlns="http://www.w3.org/2000/svg" xmlns:xlink="http://www.w3.org/1999/xlink">
<g id="graph0" class="graph" transform="scale(1 1) rotate(0) translate(4 637)">
<title>%3</title>
<polygon fill="#ffffff" stroke="transparent" points="-4,4 -4,-637 1748,-637 1748,4 -4,4"/>
<g id="clust1" class="cluster">
<title>cluster_all</title>
<polygon fill="none" stroke="#000000" points="253,-8 253,-625 1491,-625 1491,-8 253,-8"/>
<text text-anchor="middle" x="445.5" y="-598.6" font-family="Sans-Serif" font-size="28.00" fill="#000000">VECTOR MASK OPERATION</text>
</g>
<!-- Vector_base_mask_values -->
<g id="node1" class="node">
<title>Vector_base_mask_values</title>
<polygon fill="none" stroke="#000000" points="225,-350 0,-350 0,-258 225,-258 225,-350"/>
<text text-anchor="start" x="52" y="-335.8" font-family="Sans-Serif" font-size="14.00" fill="#000000">VectorState</text>
<text text-anchor="start" x="122" y="-335.8" font-family="Sans-Serif" font-style="italic" baseline-shift="sub" font-size="14.00" fill="#000000">base axis</text>
<text text-anchor="start" x="110.5" y="-321.8" font-family="Sans-Serif" font-size="14.00" fill="#000000"> </text>
<text text-anchor="start" x="8" y="-307.8" font-family="Sans-Serif" font-size="14.00" fill="#000000">BeginMask </text>
<text text-anchor="start" x="80" y="-307.8" font-family="Sans-Serif" font-style="italic" baseline-shift="sub" font-size="14.00" fill="#000000">or </text>
<text text-anchor="start" x="94" y="-307.8" font-family="Sans-Serif" font-size="14.00" fill="#000000"> BeginNegatedMask</text>
<text text-anchor="start" x="110.5" y="-293.8" font-family="Sans-Serif" font-size="14.00" fill="#000000"> </text>
<text text-anchor="start" x="29.5" y="-279.8" font-family="Sans-Serif" font-size="14.00" fill="#000000">VectorState</text>
<text text-anchor="start" x="99.5" y="-279.8" font-family="Sans-Serif" font-style="italic" baseline-shift="sub" font-size="14.00" fill="#000000">base mask values</text>
<text text-anchor="start" x="110.5" y="-265.8" font-family="Sans-Serif" font-size="14.00" fill="#000000"> </text>
</g>
<!-- VMO1 -->
<g id="node4" class="node">
<title>VMO1</title>
<polygon fill="none" stroke="#000000" stroke-dasharray="1,5" points="606.5,-578 311.5,-578 311.5,-444 606.5,-444 606.5,-578"/>
<text text-anchor="start" x="347.5" y="-563.8" font-family="Courier,monospace" font-size="14.00" fill="#000000">&amp;</text>
<text text-anchor="start" x="356.5" y="-563.8" font-family="Courier,monospace" font-style="italic" baseline-shift="sub" font-size="14.00" fill="#000000">or </text>
<text text-anchor="start" x="379.5" y="-563.8" font-family="Courier,monospace" font-size="14.00" fill="#000000">|</text>
<text text-anchor="start" x="388.5" y="-563.8" font-family="Courier,monospace" font-style="italic" baseline-shift="sub" font-size="14.00" fill="#000000">or </text>
<text text-anchor="start" x="411.5" y="-563.8" font-family="Courier,monospace" font-size="14.00" fill="#000000">^ </text>
<text text-anchor="start" x="428.5" y="-563.8" font-family="Courier,monospace" font-size="14.00" fill="#c0c0c0">!</text>
<text text-anchor="start" x="437.5" y="-563.8" font-family="Courier,monospace" font-size="14.00" fill="#000000"> matrix_property</text>
<text text-anchor="start" x="454.5" y="-549.8" font-family="Courier,monospace" font-size="14.00" fill="#000000"> </text>
<text text-anchor="start" x="392.5" y="-535.8" font-family="Courier,monospace" font-size="14.00" fill="#c0c0c0">|| default_value</text>
<text text-anchor="start" x="409" y="-521.8" font-family="Courier,monospace" font-size="14.00" fill="#000000">@&#45; row_value</text>
<text text-anchor="start" x="454.5" y="-507.8" font-family="Courier,monospace" font-size="14.00" fill="#000000"> </text>
<text text-anchor="start" x="319.5" y="-493.8" font-family="Courier,monospace" font-size="14.00" fill="#000000">And</text>
<text text-anchor="start" x="344.5" y="-493.8" font-family="Courier,monospace" font-style="italic" baseline-shift="sub" font-size="14.00" fill="#000000">or </text>
<text text-anchor="start" x="367.5" y="-493.8" font-family="Courier,monospace" font-size="14.00" fill="#000000">Or</text>
<text text-anchor="start" x="384.5" y="-493.8" font-family="Courier,monospace" font-style="italic" baseline-shift="sub" font-size="14.00" fill="#000000">or </text>
<text text-anchor="start" x="407.5" y="-493.8" font-family="Courier,monospace" font-size="14.00" fill="#000000">Xor</text>
<text text-anchor="start" x="432.5" y="-493.8" font-family="Courier,monospace" font-size="14.00" fill="#c0c0c0">Not</text>
<text text-anchor="start" x="457.5" y="-493.8" font-family="Courier,monospace" font-size="14.00" fill="#000000">(matrix_property)</text>
<text text-anchor="start" x="454.5" y="-479.8" font-family="Courier,monospace" font-size="14.00" fill="#000000"> </text>
<text text-anchor="start" x="347.5" y="-465.8" font-family="Courier,monospace" font-size="14.00" fill="#c0c0c0">|&gt; IfMissing(default_value)</text>
<text text-anchor="start" x="359.5" y="-451.8" font-family="Courier,monospace" font-size="14.00" fill="#000000">|&gt; RowIsEqual(row_value)</text>
</g>
<!-- Vector_base_mask_values&#45;&gt;VMO1 -->
<g id="edge13" class="edge">
<title>Vector_base_mask_values&#45;&gt;VMO1:w</title>
<path fill="none" stroke="#000000" d="M131.9935,-350.1972C160.086,-408.8813 217.8742,-503.4547 301.0065,-510.5734"/>
<polygon fill="#000000" stroke="#000000" points="300.8598,-514.0702 311,-511 301.1584,-507.0766 300.8598,-514.0702"/>
</g>
<!-- VMO2 -->
<g id="node6" class="node">
<title>VMO2</title>
<polygon fill="none" stroke="#000000" stroke-dasharray="1,5" points="606.5,-302 311.5,-302 311.5,-168 606.5,-168 606.5,-302"/>
<text text-anchor="start" x="347.5" y="-287.8" font-family="Courier,monospace" font-size="14.00" fill="#000000">&amp;</text>
<text text-anchor="start" x="356.5" y="-287.8" font-family="Courier,monospace" font-style="italic" baseline-shift="sub" font-size="14.00" fill="#000000">or </text>
<text text-anchor="start" x="379.5" y="-287.8" font-family="Courier,monospace" font-size="14.00" fill="#000000">|</text>
<text text-anchor="start" x="388.5" y="-287.8" font-family="Courier,monospace" font-style="italic" baseline-shift="sub" font-size="14.00" fill="#000000">or </text>
<text text-anchor="start" x="411.5" y="-287.8" font-family="Courier,monospace" font-size="14.00" fill="#000000">^ </text>
<text text-anchor="start" x="428.5" y="-287.8" font-family="Courier,monospace" font-size="14.00" fill="#c0c0c0">!</text>
<text text-anchor="start" x="437.5" y="-287.8" font-family="Courier,monospace" font-size="14.00" fill="#000000"> matrix_property</text>
<text text-anchor="start" x="454.5" y="-273.8" font-family="Courier,monospace" font-size="14.00" fill="#000000"> </text>
<text text-anchor="start" x="392.5" y="-259.8" font-family="Courier,monospace" font-size="14.00" fill="#c0c0c0">|| default_value</text>
<text text-anchor="start" x="397" y="-245.8" font-family="Courier,monospace" font-size="14.00" fill="#000000">@| column_value</text>
<text text-anchor="start" x="454.5" y="-231.8" font-family="Courier,monospace" font-size="14.00" fill="#000000"> </text>
<text text-anchor="start" x="319.5" y="-217.8" font-family="Courier,monospace" font-size="14.00" fill="#000000">And</text>
<text text-anchor="start" x="344.5" y="-217.8" font-family="Courier,monospace" font-style="italic" baseline-shift="sub" font-size="14.00" fill="#000000">or </text>
<text text-anchor="start" x="367.5" y="-217.8" font-family="Courier,monospace" font-size="14.00" fill="#000000">Or</text>
<text text-anchor="start" x="384.5" y="-217.8" font-family="Courier,monospace" font-style="italic" baseline-shift="sub" font-size="14.00" fill="#000000">or </text>
<text text-anchor="start" x="407.5" y="-217.8" font-family="Courier,monospace" font-size="14.00" fill="#000000">Xor</text>
<text text-anchor="start" x="432.5" y="-217.8" font-family="Courier,monospace" font-size="14.00" fill="#c0c0c0">Not</text>
<text text-anchor="start" x="457.5" y="-217.8" font-family="Courier,monospace" font-size="14.00" fill="#000000">(matrix_property)</text>
<text text-anchor="start" x="454.5" y="-203.8" font-family="Courier,monospace" font-size="14.00" fill="#000000"> </text>
<text text-anchor="start" x="347.5" y="-189.8" font-family="Courier,monospace" font-size="14.00" fill="#c0c0c0">|&gt; IfMissing(default_value)</text>
<text text-anchor="start" x="335" y="-175.8" font-family="Courier,monospace" font-size="14.00" fill="#000000">|&gt; ColumnIsEqual(column_value)</text>
</g>
<!-- Vector_base_mask_values&#45;&gt;VMO2 -->
<g id="edge14" class="edge">
<title>Vector_base_mask_values&#45;&gt;VMO2:w</title>
<path fill="none" stroke="#000000" d="M204.1471,-257.976C233.9301,-246.5056 267.8239,-236.9554 300.8008,-235.2655"/>
<polygon fill="#000000" stroke="#000000" points="301.0945,-238.7591 311,-235 300.9123,-231.7615 301.0945,-238.7591"/>
</g>
<!-- VMO3 -->
<g id="node8" class="node">
<title>VMO3</title>
<polygon fill="none" stroke="#000000" stroke-dasharray="1,5" points="657,-150 261,-150 261,-16 657,-16 657,-150"/>
<text text-anchor="start" x="347.5" y="-135.8" font-family="Courier,monospace" font-size="14.00" fill="#000000">&amp;</text>
<text text-anchor="start" x="356.5" y="-135.8" font-family="Courier,monospace" font-style="italic" baseline-shift="sub" font-size="14.00" fill="#000000">or </text>
<text text-anchor="start" x="379.5" y="-135.8" font-family="Courier,monospace" font-size="14.00" fill="#000000">|</text>
<text text-anchor="start" x="388.5" y="-135.8" font-family="Courier,monospace" font-style="italic" baseline-shift="sub" font-size="14.00" fill="#000000">or </text>
<text text-anchor="start" x="411.5" y="-135.8" font-family="Courier,monospace" font-size="14.00" fill="#000000">^ </text>
<text text-anchor="start" x="428.5" y="-135.8" font-family="Courier,monospace" font-size="14.00" fill="#c0c0c0">!</text>
<text text-anchor="start" x="437.5" y="-135.8" font-family="Courier,monospace" font-size="14.00" fill="#000000"> matrix_property</text>
<text text-anchor="start" x="454.5" y="-121.8" font-family="Courier,monospace" font-size="14.00" fill="#000000"> </text>
<text text-anchor="start" x="392.5" y="-107.8" font-family="Courier,monospace" font-size="14.00" fill="#c0c0c0">|| default_value</text>
<text text-anchor="start" x="339" y="-93.8" font-family="Courier,monospace" font-size="14.00" fill="#000000">@ columns_axis = column_value</text>
<text text-anchor="start" x="454.5" y="-79.8" font-family="Courier,monospace" font-size="14.00" fill="#000000"> </text>
<text text-anchor="start" x="319.5" y="-65.8" font-family="Courier,monospace" font-size="14.00" fill="#000000">And</text>
<text text-anchor="start" x="344.5" y="-65.8" font-family="Courier,monospace" font-style="italic" baseline-shift="sub" font-size="14.00" fill="#000000">or </text>
<text text-anchor="start" x="367.5" y="-65.8" font-family="Courier,monospace" font-size="14.00" fill="#000000">Or</text>
<text text-anchor="start" x="384.5" y="-65.8" font-family="Courier,monospace" font-style="italic" baseline-shift="sub" font-size="14.00" fill="#000000">or </text>
<text text-anchor="start" x="407.5" y="-65.8" font-family="Courier,monospace" font-size="14.00" fill="#000000">Xor</text>
<text text-anchor="start" x="432.5" y="-65.8" font-family="Courier,monospace" font-size="14.00" fill="#c0c0c0">Not</text>
<text text-anchor="start" x="457.5" y="-65.8" font-family="Courier,monospace" font-size="14.00" fill="#000000">(matrix_property)</text>
<text text-anchor="start" x="454.5" y="-51.8" font-family="Courier,monospace" font-size="14.00" fill="#000000"> </text>
<text text-anchor="start" x="347.5" y="-37.8" font-family="Courier,monospace" font-size="14.00" fill="#c0c0c0">|&gt; IfMissing(default_value)</text>
<text text-anchor="start" x="269" y="-23.8" font-family="Courier,monospace" font-size="14.00" fill="#000000">|&gt; Axis(columns_axis) |&gt; IsEqual(column_value)</text>
</g>
<!-- Vector_base_mask_values&#45;&gt;VMO3 -->
<g id="edge15" class="edge">
<title>Vector_base_mask_values&#45;&gt;VMO3:w</title>
<path fill="none" stroke="#000000" d="M121.792,-257.9402C137.1925,-195.828 174.2392,-91.9611 250.9396,-83.5453"/>
<polygon fill="#000000" stroke="#000000" points="251.2041,-87.0362 261,-83 250.8252,-80.0464 251.2041,-87.0362"/>
</g>
<!-- VMO4 -->
<g id="node10" class="node">
<title>VMO4</title>
<polygon fill="none" stroke="#000000" stroke-dasharray="1,5" points="606.5,-426 311.5,-426 311.5,-320 606.5,-320 606.5,-426"/>
<text text-anchor="start" x="347.5" y="-411.8" font-family="Courier,monospace" font-size="14.00" fill="#000000">&amp;</text>
<text text-anchor="start" x="356.5" y="-411.8" font-family="Courier,monospace" font-style="italic" baseline-shift="sub" font-size="14.00" fill="#000000">or </text>
<text text-anchor="start" x="379.5" y="-411.8" font-family="Courier,monospace" font-size="14.00" fill="#000000">|</text>
<text text-anchor="start" x="388.5" y="-411.8" font-family="Courier,monospace" font-style="italic" baseline-shift="sub" font-size="14.00" fill="#000000">or </text>
<text text-anchor="start" x="411.5" y="-411.8" font-family="Courier,monospace" font-size="14.00" fill="#000000">^ </text>
<text text-anchor="start" x="428.5" y="-411.8" font-family="Courier,monospace" font-size="14.00" fill="#c0c0c0">!</text>
<text text-anchor="start" x="437.5" y="-411.8" font-family="Courier,monospace" font-size="14.00" fill="#000000"> vector_property</text>
<text text-anchor="start" x="454.5" y="-397.8" font-family="Courier,monospace" font-size="14.00" fill="#000000"> </text>
<text text-anchor="start" x="392.5" y="-383.8" font-family="Courier,monospace" font-size="14.00" fill="#c0c0c0">|| default_value</text>
<text text-anchor="start" x="454.5" y="-369.8" font-family="Courier,monospace" font-size="14.00" fill="#000000"> </text>
<text text-anchor="start" x="319.5" y="-355.8" font-family="Courier,monospace" font-size="14.00" fill="#000000">And</text>
<text text-anchor="start" x="344.5" y="-355.8" font-family="Courier,monospace" font-style="italic" baseline-shift="sub" font-size="14.00" fill="#000000">or </text>
<text text-anchor="start" x="367.5" y="-355.8" font-family="Courier,monospace" font-size="14.00" fill="#000000">Or</text>
<text text-anchor="start" x="384.5" y="-355.8" font-family="Courier,monospace" font-style="italic" baseline-shift="sub" font-size="14.00" fill="#000000">or </text>
<text text-anchor="start" x="407.5" y="-355.8" font-family="Courier,monospace" font-size="14.00" fill="#000000">Xor</text>
<text text-anchor="start" x="432.5" y="-355.8" font-family="Courier,monospace" font-size="14.00" fill="#c0c0c0">Not</text>
<text text-anchor="start" x="457.5" y="-355.8" font-family="Courier,monospace" font-size="14.00" fill="#000000">(vector_property)</text>
<text text-anchor="start" x="454.5" y="-341.8" font-family="Courier,monospace" font-size="14.00" fill="#000000"> </text>
<text text-anchor="start" x="347.5" y="-327.8" font-family="Courier,monospace" font-size="14.00" fill="#c0c0c0">|&gt; IfMissing(default_value)</text>
</g>
<!-- Vector_base_mask_values&#45;&gt;VMO4 -->
<g id="edge16" class="edge">
<title>Vector_base_mask_values&#45;&gt;VMO4:w</title>
<path fill="none" stroke="#000000" d="M204.1471,-350.024C233.9301,-361.4944 267.8239,-371.0446 300.8008,-372.7345"/>
<polygon fill="#000000" stroke="#000000" points="300.9123,-376.2385 311,-373 301.0945,-369.2409 300.9123,-376.2385"/>
</g>
<!-- Vector_final_mask_values -->
<g id="node2" class="node">
<title>Vector_final_mask_values</title>
<polygon fill="none" stroke="#000000" points="1744,-337 1519,-337 1519,-245 1744,-245 1744,-337"/>
<text text-anchor="start" x="1571" y="-322.8" font-family="Sans-Serif" font-size="14.00" fill="#000000">VectorState</text>
<text text-anchor="start" x="1641" y="-322.8" font-family="Sans-Serif" font-style="italic" baseline-shift="sub" font-size="14.00" fill="#000000">base axis</text>
<text text-anchor="start" x="1629.5" y="-308.8" font-family="Sans-Serif" font-size="14.00" fill="#000000"> </text>
<text text-anchor="start" x="1527" y="-294.8" font-family="Sans-Serif" font-size="14.00" fill="#000000">BeginMask </text>
<text text-anchor="start" x="1599" y="-294.8" font-family="Sans-Serif" font-style="italic" baseline-shift="sub" font-size="14.00" fill="#000000">or </text>
<text text-anchor="start" x="1613" y="-294.8" font-family="Sans-Serif" font-size="14.00" fill="#000000"> BeginNegatedMask</text>
<text text-anchor="start" x="1629.5" y="-280.8" font-family="Sans-Serif" font-size="14.00" fill="#000000"> </text>
<text text-anchor="start" x="1551" y="-266.8" font-family="Sans-Serif" font-size="14.00" fill="#000000">VectorState</text>
<text text-anchor="start" x="1621" y="-266.8" font-family="Sans-Serif" font-style="italic" baseline-shift="sub" font-size="14.00" fill="#000000">final mask values</text>
<text text-anchor="start" x="1629.5" y="-252.8" font-family="Sans-Serif" font-size="14.00" fill="#000000"> </text>
</g>
<!-- Vector_mask_operands -->
<g id="node3" class="node">
<title>Vector_mask_operands</title>
<polygon fill="none" stroke="#000000" points="1223,-365 998,-365 998,-217 1223,-217 1223,-365"/>
<text text-anchor="start" x="1050" y="-350.8" font-family="Sans-Serif" font-size="14.00" fill="#000000">VectorState</text>
<text text-anchor="start" x="1120" y="-350.8" font-family="Sans-Serif" font-style="italic" baseline-shift="sub" font-size="14.00" fill="#000000">base axis</text>
<text text-anchor="start" x="1108.5" y="-336.8" font-family="Sans-Serif" font-size="14.00" fill="#000000"> </text>
<text text-anchor="start" x="1006" y="-322.8" font-family="Sans-Serif" font-size="14.00" fill="#000000">BeginMask </text>
<text text-anchor="start" x="1078" y="-322.8" font-family="Sans-Serif" font-style="italic" baseline-shift="sub" font-size="14.00" fill="#000000">or </text>
<text text-anchor="start" x="1092" y="-322.8" font-family="Sans-Serif" font-size="14.00" fill="#000000"> BeginNegatedMask</text>
<text text-anchor="start" x="1108.5" y="-308.8" font-family="Sans-Serif" font-size="14.00" fill="#000000"> </text>
<text text-anchor="start" x="1027.5" y="-294.8" font-family="Sans-Serif" font-size="14.00" fill="#000000">VectorState</text>
<text text-anchor="start" x="1097.5" y="-294.8" font-family="Sans-Serif" font-style="italic" baseline-shift="sub" font-size="14.00" fill="#000000">base mask values</text>
<text text-anchor="start" x="1108.5" y="-280.8" font-family="Sans-Serif" font-size="14.00" fill="#000000"> </text>
<text text-anchor="start" x="1054.5" y="-266.8" font-family="Sans-Serif" font-size="14.00" fill="#000000">And</text>
<text text-anchor="start" x="1079.5" y="-266.8" font-family="Sans-Serif" font-style="italic" baseline-shift="sub" font-size="14.00" fill="#000000">or </text>
<text text-anchor="start" x="1093.5" y="-266.8" font-family="Sans-Serif" font-size="14.00" fill="#000000">Or</text>
<text text-anchor="start" x="1109.5" y="-266.8" font-family="Sans-Serif" font-style="italic" baseline-shift="sub" font-size="14.00" fill="#000000">or </text>
<text text-anchor="start" x="1123.5" y="-266.8" font-family="Sans-Serif" font-size="14.00" fill="#000000">Xor</text>
<text text-anchor="start" x="1144.5" y="-266.8" font-family="Sans-Serif" font-size="14.00" fill="#c0c0c0">Not</text>
<text text-anchor="start" x="1108.5" y="-252.8" font-family="Sans-Serif" font-size="14.00" fill="#000000"> </text>
<text text-anchor="start" x="1027" y="-238.8" font-family="Sans-Serif" font-size="14.00" fill="#000000">VectorState</text>
<text text-anchor="start" x="1097" y="-238.8" font-family="Sans-Serif" font-style="italic" baseline-shift="sub" font-size="14.00" fill="#000000">other mask values</text>
<text text-anchor="start" x="1108.5" y="-224.8" font-family="Sans-Serif" font-size="14.00" fill="#000000"> </text>
</g>
<!-- VMO5 -->
<g id="node12" class="node">
<title>VMO5</title>
<g id="a_node12"><a xlink:href="#../DataAxesFormats.Queries.VECTOR_OPERATION" xlink:title="VECTOR OPERATION">
<polygon fill="none" stroke="#000000" points="1187.5,-450 1033.5,-450 1033.5,-446 1029.5,-446 1029.5,-442 1033.5,-442 1033.5,-422 1029.5,-422 1029.5,-418 1033.5,-418 1033.5,-414 1187.5,-414 1187.5,-450"/>
<polyline fill="none" stroke="#000000" points="1033.5,-446 1037.5,-446 1037.5,-442 1033.5,-442 "/>
<polyline fill="none" stroke="#000000" points="1033.5,-422 1037.5,-422 1037.5,-418 1033.5,-418 "/>
<text text-anchor="middle" x="1110.5" y="-428.3" font-family="Sans-Serif" font-size="14.00" fill="#000000">VECTOR OPERATION</text>
</a>
</g>
</g>
<!-- Vector_mask_operands&#45;&gt;VMO5 -->
<g id="edge10" class="edge">
<title>Vector_mask_operands&#45;&gt;VMO5</title>
<path fill="none" stroke="#000000" d="M1194.6574,-365.0801C1192.8857,-379.6558 1180.2942,-394.2316 1156.8829,-408.8074"/>
<polygon fill="#000000" stroke="#000000" points="1154.9825,-405.8649 1148.1508,-413.963 1158.5414,-411.8926 1154.9825,-405.8649"/>
</g>
<!-- VMO6_ -->
<g id="node13" class="node">
<title>VMO6_</title>
<polygon fill="none" stroke="#000000" points="1471,-303 1259,-303 1259,-279 1471,-279 1483,-291 1471,-303"/>
<text text-anchor="start" x="1267" y="-294.8" font-family="Sans-Serif" font-size="14.00" fill="#000000"> compute mask operation </text>
<text text-anchor="start" x="1424" y="-294.8" font-family="Sans-Serif" font-style="italic" baseline-shift="sub" font-size="14.00" fill="#000000">implicit</text>
<text text-anchor="start" x="1459" y="-294.8" font-family="Sans-Serif" font-size="14.00" fill="#000000">    </text>
<text text-anchor="start" x="1367" y="-280.8" font-family="Sans-Serif" font-size="14.00" fill="#000000">  </text>
</g>
<!-- Vector_mask_operands&#45;&gt;VMO6_ -->
<g id="edge12" class="edge">
<title>Vector_mask_operands&#45;&gt;VMO6_:w</title>
<path fill="none" stroke="#000000" d="M1223.2035,-291C1231.7941,-291 1240.3989,-291 1248.8245,-291"/>
<polygon fill="#000000" stroke="#000000" points="1249,-294.5001 1259,-291 1249,-287.5001 1249,-294.5001"/>
</g>
<!-- VMO1_ -->
<g id="node5" class="node">
<title>VMO1_</title>
<polygon fill="none" stroke="#000000" points="939,-444 704,-444 704,-420 939,-420 951,-432 939,-444"/>
<text text-anchor="middle" x="827.5" y="-428.3" font-family="Sans-Serif" font-size="14.00" fill="#000000">lookup square matrix row other mask  </text>
</g>
<!-- VMO1&#45;&gt;VMO1_ -->
<g id="edge1" class="edge">
<title>VMO1:e&#45;&gt;VMO1_:w</title>
<path fill="none" stroke="#000000" d="M607,-511C658.7471,-511 649.671,-442.1438 693.3401,-432.9989"/>
<polygon fill="#000000" stroke="#000000" points="693.8905,-436.4617 703.5,-432 693.2055,-429.4953 693.8905,-436.4617"/>
</g>
<!-- VMO1_&#45;&gt;Vector_mask_operands -->
<g id="edge2" class="edge">
<title>VMO1_:e&#45;&gt;Vector_mask_operands:sw</title>
<path fill="none" stroke="#000000" d="M951.5,-432C1045.2102,-432 937.9458,-170.7297 989.9281,-210.2364"/>
<polygon fill="#000000" stroke="#000000" points="987.7104,-212.9484 997.5,-217 992.3737,-207.7279 987.7104,-212.9484"/>
</g>
<!-- VMO1_&#45;&gt;VMO5 -->
<!-- VMO2_ -->
<g id="node7" class="node">
<title>VMO2_</title>
<polygon fill="none" stroke="#000000" points="950,-262 693,-262 693,-238 950,-238 962,-250 950,-262"/>
<text text-anchor="middle" x="827.5" y="-246.3" font-family="Sans-Serif" font-size="14.00" fill="#000000">lookup square matrix column other mask  </text>
</g>
<!-- VMO2&#45;&gt;VMO2_ -->
<g id="edge3" class="edge">
<title>VMO2:e&#45;&gt;VMO2_:w</title>
<path fill="none" stroke="#000000" d="M607,-235C642.1618,-235 652.3583,-247.3193 682.8391,-249.6292"/>
<polygon fill="#000000" stroke="#000000" points="682.879,-253.1329 693,-250 683.1343,-246.1376 682.879,-253.1329"/>
</g>
<!-- VMO2_&#45;&gt;Vector_mask_operands -->
<g id="edge4" class="edge">
<title>VMO2_:e&#45;&gt;Vector_mask_operands</title>
<path fill="none" stroke="#000000" d="M962,-250C970.4584,-250 979.0932,-250.6257 987.7317,-251.7225"/>
<polygon fill="#000000" stroke="#000000" points="987.4603,-255.2203 997.8641,-253.2172 988.4819,-248.2952 987.4603,-255.2203"/>
</g>
<!-- VMO3_ -->
<g id="node9" class="node">
<title>VMO3_</title>
<polygon fill="none" stroke="#000000" points="927.5,-151 715.5,-151 715.5,-127 927.5,-127 939.5,-139 927.5,-151"/>
<text text-anchor="middle" x="827.5" y="-135.3" font-family="Sans-Serif" font-size="14.00" fill="#000000">lookup matrix column other mask  </text>
</g>
<!-- VMO3&#45;&gt;VMO3_ -->
<g id="edge5" class="edge">
<title>VMO3:e&#45;&gt;VMO3_:w</title>
<path fill="none" stroke="#000000" d="M657,-83C689.1964,-83 681.8016,-127.8104 705.6468,-137.2626"/>
<polygon fill="#000000" stroke="#000000" points="705.0441,-140.7103 715.5,-139 706.2597,-133.8166 705.0441,-140.7103"/>
</g>
<!-- VMO3_&#45;&gt;Vector_mask_operands -->
<g id="edge6" class="edge">
<title>VMO3_:e&#45;&gt;Vector_mask_operands</title>
<path fill="none" stroke="#000000" d="M939.5,-139C987.506,-139 1028.2974,-172.8785 1057.9865,-208.647"/>
<polygon fill="#000000" stroke="#000000" points="1055.5351,-211.1835 1064.5305,-216.7811 1060.9891,-206.7956 1055.5351,-211.1835"/>
</g>
<!-- VMO4_ -->
<g id="node11" class="node">
<title>VMO4_</title>
<polygon fill="none" stroke="#000000" points="903.5,-369 739.5,-369 739.5,-345 903.5,-345 915.5,-357 903.5,-369"/>
<text text-anchor="middle" x="827.5" y="-353.3" font-family="Sans-Serif" font-size="14.00" fill="#000000">lookup vector other mask  </text>
</g>
<!-- VMO4&#45;&gt;VMO4_ -->
<g id="edge7" class="edge">
<title>VMO4:e&#45;&gt;VMO4_:w</title>
<path fill="none" stroke="#000000" d="M607,-373C662.7252,-373 678.3375,-358.8788 729.2054,-357.1689"/>
<polygon fill="#000000" stroke="#000000" points="729.5588,-360.6636 739.5,-357 729.4439,-353.6646 729.5588,-360.6636"/>
</g>
<!-- VMO4_&#45;&gt;Vector_mask_operands -->
<g id="edge8" class="edge">
<title>VMO4_:e&#45;&gt;Vector_mask_operands</title>
<path fill="none" stroke="#000000" d="M915.5,-357C939.6093,-357 964.5523,-352.4175 988.2156,-345.6674"/>
<polygon fill="#000000" stroke="#000000" points="989.3434,-348.9833 997.9181,-342.7602 987.3342,-342.2778 989.3434,-348.9833"/>
</g>
<!-- VMO5&#45;&gt;Vector_mask_operands -->
<g id="edge11" class="edge">
<title>VMO5&#45;&gt;Vector_mask_operands</title>
<path fill="none" stroke="#000000" d="M1072.8492,-413.963C1049.7208,-400.9785 1035.1788,-387.9939 1029.2232,-375.0094"/>
<polygon fill="#000000" stroke="#000000" points="1032.4903,-373.7089 1026.3426,-365.0801 1025.7675,-375.6593 1032.4903,-373.7089"/>
</g>
<!-- VMO6_&#45;&gt;Vector_final_mask_values -->
<g id="edge17" class="edge">
<title>VMO6_:e&#45;&gt;Vector_final_mask_values</title>
<path fill="none" stroke="#000000" d="M1483,-291C1491.3386,-291 1499.9406,-291 1508.6064,-291"/>
<polygon fill="#000000" stroke="#000000" points="1508.7965,-294.5001 1518.7965,-291 1508.7964,-287.5001 1508.7965,-294.5001"/>
</g>
</g>
</svg>
