<?xml version="1.0" encoding="UTF-8" standalone="no"?>
<!DOCTYPE svg PUBLIC "-//W3C//DTD SVG 1.1//EN"
 "http://www.w3.org/Graphics/SVG/1.1/DTD/svg11.dtd">
<!-- Generated by graphviz version 2.40.1 (0)
 -->
<!-- Title: %3 Pages: 1 -->
<svg width="686pt" height="204pt"
 viewBox="0.00 0.00 686.00 204.00" xmlns="http://www.w3.org/2000/svg" xmlns:xlink="http://www.w3.org/1999/xlink">
<g id="graph0" class="graph" transform="scale(1 1) rotate(0) translate(4 200)">
<title>%3</title>
<polygon fill="#ffffff" stroke="transparent" points="-4,4 -4,-200 682,-200 682,4 -4,4"/>
<g id="clust1" class="cluster">
<title>cluster_all</title>
<polygon fill="none" stroke="#000000" points="161,-8 161,-188 530,-188 530,-8 161,-8"/>
<text text-anchor="middle" x="284" y="-161.6" font-family="Sans-Serif" font-size="28.00" fill="#000000">VECTOR AS AXIS</text>
</g>
<!-- Vector_values -->
<g id="node1" class="node">
<title>Vector_values</title>
<polygon fill="none" stroke="#000000" points="133,-96 0,-96 0,-60 133,-60 133,-96"/>
<text text-anchor="start" x="8" y="-81.8" font-family="Sans-Serif" font-size="14.00" fill="#000000"> VectorState</text>
<text text-anchor="start" x="82" y="-81.8" font-family="Sans-Serif" font-style="italic" baseline-shift="sub" font-size="14.00" fill="#000000">values</text>
<text text-anchor="start" x="117" y="-81.8" font-family="Sans-Serif" font-size="14.00" fill="#000000">  </text>
<text text-anchor="start" x="64.5" y="-67.8" font-family="Sans-Serif" font-size="14.00" fill="#000000"> </text>
</g>
<!-- VAA1 -->
<g id="node3" class="node">
<title>VAA1</title>
<polygon fill="none" stroke="#000000" stroke-dasharray="1,5" points="268,-140.5 169,-140.5 169,-87.5 268,-87.5 268,-140.5"/>
<text text-anchor="start" x="193.5" y="-125.3" font-family="Courier,monospace" font-size="14.00" fill="#000000">@ axis</text>
<text text-anchor="start" x="214" y="-110.3" font-family="Courier,monospace" font-size="14.00" fill="#000000"> </text>
<text text-anchor="start" x="177" y="-95.3" font-family="Courier,monospace" font-size="14.00" fill="#000000">Axis(axis)</text>
</g>
<!-- Vector_values&#45;&gt;VAA1 -->
<g id="edge3" class="edge">
<title>Vector_values&#45;&gt;VAA1:w</title>
<path fill="none" stroke="#000000" d="M99.9302,-96.2109C116.6288,-103.8844 137.654,-111.5068 158.3735,-113.4988"/>
<polygon fill="#000000" stroke="#000000" points="158.3392,-117.0013 168.5,-114 158.6853,-110.0099 158.3392,-117.0013"/>
</g>
<!-- VAA2 -->
<g id="node5" class="node">
<title>VAA2</title>
<polygon fill="none" stroke="#000000" stroke-dasharray="1,5" points="251.5,-69.5 185.5,-69.5 185.5,-16.5 251.5,-16.5 251.5,-69.5"/>
<text text-anchor="start" x="214" y="-54.3" font-family="Courier,monospace" font-size="14.00" fill="#000000">@</text>
<text text-anchor="start" x="214" y="-39.3" font-family="Courier,monospace" font-size="14.00" fill="#000000"> </text>
<text text-anchor="start" x="193.5" y="-24.3" font-family="Courier,monospace" font-size="14.00" fill="#000000">Axis()</text>
</g>
<!-- Vector_values&#45;&gt;VAA2 -->
<g id="edge4" class="edge">
<title>Vector_values&#45;&gt;VAA2:w</title>
<path fill="none" stroke="#000000" d="M106.6738,-59.9874C126.5126,-52.4835 151.2929,-45.1055 175.2834,-43.3782"/>
<polygon fill="#000000" stroke="#000000" points="175.6363,-46.8676 185.5,-43 175.3773,-39.8724 175.6363,-46.8676"/>
</g>
<!-- Vector_axis -->
<g id="node2" class="node">
<title>Vector_axis</title>
<polygon fill="none" stroke="#000000" points="678,-96 558,-96 558,-60 678,-60 678,-96"/>
<text text-anchor="start" x="566" y="-81.8" font-family="Sans-Serif" font-size="14.00" fill="#000000"> VectorState</text>
<text text-anchor="start" x="640" y="-81.8" font-family="Sans-Serif" font-style="italic" baseline-shift="sub" font-size="14.00" fill="#000000">axis</text>
<text text-anchor="start" x="662" y="-81.8" font-family="Sans-Serif" font-size="14.00" fill="#000000">  </text>
<text text-anchor="start" x="616" y="-67.8" font-family="Sans-Serif" font-size="14.00" fill="#000000"> </text>
</g>
<!-- VAA1_ -->
<g id="node4" class="node">
<title>VAA1_</title>
<polygon fill="none" stroke="#000000" points="510,-121 304,-121 304,-97 510,-97 522,-109 510,-121"/>
<text text-anchor="middle" x="413" y="-105.3" font-family="Sans-Serif" font-size="14.00" fill="#000000">vector values are entries of axis   </text>
</g>
<!-- VAA1&#45;&gt;VAA1_ -->
<g id="edge1" class="edge">
<title>VAA1:e&#45;&gt;VAA1_:w</title>
<path fill="none" stroke="#000000" d="M268,-114C280.1152,-114 285.2212,-111.1875 293.8318,-109.7813"/>
<polygon fill="#000000" stroke="#000000" points="294.2975,-113.2559 304,-109 293.7612,-106.2764 294.2975,-113.2559"/>
</g>
<!-- VAA1_&#45;&gt;Vector_axis -->
<g id="edge5" class="edge">
<title>VAA1_:e&#45;&gt;Vector_axis</title>
<path fill="none" stroke="#000000" d="M522,-109C538.3784,-109 555.6012,-104.8633 570.866,-99.6122"/>
<polygon fill="#000000" stroke="#000000" points="572.4113,-102.773 580.5858,-96.0328 569.9923,-96.2042 572.4113,-102.773"/>
</g>
<!-- VAA2_ -->
<g id="node6" class="node">
<title>VAA2_</title>
<polygon fill="none" stroke="#000000" points="490.5,-59 323.5,-59 323.5,-35 490.5,-35 502.5,-47 490.5,-59"/>
<text text-anchor="middle" x="413" y="-43.3" font-family="Sans-Serif" font-size="14.00" fill="#000000">vector property is an axis   </text>
</g>
<!-- VAA2&#45;&gt;VAA2_ -->
<g id="edge2" class="edge">
<title>VAA2:e&#45;&gt;VAA2_:w</title>
<path fill="none" stroke="#000000" d="M251.5,-43C279.5977,-43 289.0045,-46.1174 312.7215,-46.8481"/>
<polygon fill="#000000" stroke="#000000" points="312.9493,-50.3517 323,-47 313.0529,-43.3525 312.9493,-50.3517"/>
</g>
<!-- VAA2_&#45;&gt;Vector_axis -->
<g id="edge6" class="edge">
<title>VAA2_:e&#45;&gt;Vector_axis</title>
<path fill="none" stroke="#000000" d="M503,-47C523.0738,-47 544.4603,-51.4578 563.2773,-56.9926"/>
<polygon fill="#000000" stroke="#000000" points="562.2745,-60.346 572.8626,-59.9672 564.3493,-53.6605 562.2745,-60.346"/>
</g>
</g>
</svg>
