<?xml version="1.0" encoding="UTF-8" standalone="no"?>
<!DOCTYPE svg PUBLIC "-//W3C//DTD SVG 1.1//EN"
 "http://www.w3.org/Graphics/SVG/1.1/DTD/svg11.dtd">
<!-- Generated by graphviz version 2.40.1 (0)
 -->
<!-- Title: %3 Pages: 1 -->
<svg width="734pt" height="332pt"
 viewBox="0.00 0.00 734.00 332.00" xmlns="http://www.w3.org/2000/svg" xmlns:xlink="http://www.w3.org/1999/xlink">
<g id="graph0" class="graph" transform="scale(1 1) rotate(0) translate(4 328)">
<title>%3</title>
<polygon fill="#ffffff" stroke="transparent" points="-4,4 -4,-328 730,-328 730,4 -4,4"/>
<g id="clust1" class="cluster">
<title>cluster_all</title>
<polygon fill="none" stroke="#000000" points="0,-8 0,-316 718,-316 718,-8 0,-8"/>
<text text-anchor="middle" x="66" y="-289.6" font-family="Sans-Serif" font-size="28.00" fill="#000000">LEGEND</text>
</g>
<g id="clust2" class="cluster">
<title>cluster_operation</title>
</g>
<g id="clust3" class="cluster">
<title>cluster_state</title>
<polygon fill="none" stroke="#000000" stroke-dasharray="5,2" points="8,-60 8,-191 646.1566,-191 646.1566,-60 8,-60"/>
<text text-anchor="start" x="16" y="-171.2" font-family="Sans-Serif" font-size="21.00" fill="#000000"> </text>
<text text-anchor="start" x="23" y="-171.2" font-family="Sans-Serif" font-style="italic" font-size="21.00" fill="#000000">States</text>
<text text-anchor="start" x="84" y="-171.2" font-family="Sans-Serif" font-size="21.00" fill="#000000"> </text>
</g>
<g id="clust4" class="cluster">
<title>cluster_empty</title>
</g>
<!-- PHRASES -->
<g id="node1" class="node">
<title>PHRASES</title>
<g id="a_node1"><a xlink:title="Query phrases are shown in the string format followed by the concatenated operation object format. Grayed items are optional.">
<polygon fill="none" stroke="#000000" stroke-dasharray="1,5" points="440,-260.5 151,-260.5 151,-207.5 440,-207.5 440,-260.5"/>
<text text-anchor="start" x="212.5" y="-245.3" font-family="Courier,monospace" font-size="14.00" fill="#000000"> query phrase string</text>
<text text-anchor="start" x="291" y="-230.3" font-family="Courier,monospace" font-size="14.00" fill="#000000"> </text>
<text text-anchor="start" x="159" y="-215.3" font-family="Courier,monospace" font-size="14.00" fill="#000000">Query() |&gt; Phrase() |&gt; Objects() </text>
</a>
</g>
</g>
<!-- OPS -->
<g id="node3" class="node">
<title>OPS</title>
<g id="a_node3"><a xlink:title="Operations performed by the query engine are shown as an arrow&#45;box.">
<polygon fill="none" stroke="#000000" points="690,-246 476,-246 476,-222 690,-222 702,-234 690,-246"/>
<text text-anchor="middle" x="589" y="-230.3" font-family="Sans-Serif" font-size="14.00" fill="#000000">name of query operation function   </text>
</a>
</g>
</g>
<!-- PHRASES&#45;&gt;OPS -->
<g id="edge2" class="edge">
<title>PHRASES&#45;&gt;OPS</title>
<g id="a_edge2"><a xlink:title="Edges connect query phrases to the operations performed by the phrase.">
<path fill="none" stroke="#000000" d="M440.1004,-234C448.6386,-234 457.1865,-234 465.6285,-234"/>
<polygon fill="#000000" stroke="#000000" points="465.8656,-237.5001 475.8655,-234 465.8655,-230.5001 465.8656,-237.5001"/>
</a>
</g>
</g>
<!-- INVIS1 -->
<!-- INVIS1&#45;&gt;PHRASES -->
<!-- FINAL -->
<g id="node4" class="node">
<title>FINAL</title>
<g id="a_node4"><a xlink:title="Final states with query results are shown in a double octagon">
<polygon fill="none" stroke="#000000" points="634.301,-98.9224 634.301,-123.0776 607.7643,-140.1579 570.2357,-140.1579 543.699,-123.0776 543.699,-98.9224 570.2357,-81.8421 607.7643,-81.8421 634.301,-98.9224"/>
<polygon fill="none" stroke="#000000" points="638.3138,-96.7353 638.3138,-125.2647 608.9447,-144.1681 569.0553,-144.1681 539.6862,-125.2647 539.6862,-96.7353 569.0553,-77.8319 608.9447,-77.8319 638.3138,-96.7353"/>
<text text-anchor="start" x="568" y="-114.8" font-family="Sans-Serif" font-size="14.00" fill="#000000"> Query</text>
<text text-anchor="start" x="567.5" y="-99.8" font-family="Sans-Serif" font-size="14.00" fill="#000000">Result </text>
</a>
</g>
</g>
<!-- OPS&#45;&gt;FINAL -->
<g id="edge12" class="edge">
<title>OPS&#45;&gt;FINAL</title>
<g id="a_edge12"><a xlink:title="Edges connect query operations to the resulting query state (such as the final state).">
<path fill="none" stroke="#000000" d="M589,-215.7497C589,-195.24 589,-174.7304 589,-154.2207"/>
<polygon fill="#000000" stroke="#000000" points="592.5001,-154.1523 589,-144.1523 585.5001,-154.1524 592.5001,-154.1523"/>
</a>
</g>
</g>
<!-- STACK -->
<g id="node5" class="node">
<title>STACK</title>
<g id="a_node5"><a xlink:title="The query state stack is shown in a box, each line is a separate state element.">
<polygon fill="none" stroke="#000000" points="324.5,-137.5 266.5,-137.5 266.5,-84.5 324.5,-84.5 324.5,-137.5"/>
<text text-anchor="start" x="274.5" y="-122.3" font-family="Sans-Serif" font-size="14.00" fill="#000000"> Query</text>
<text text-anchor="start" x="279.5" y="-107.3" font-family="Sans-Serif" font-size="14.00" fill="#000000">State</text>
<text text-anchor="start" x="276.5" y="-92.3" font-family="Sans-Serif" font-size="14.00" fill="#000000">Stack </text>
</a>
</g>
</g>
<!-- OPS&#45;&gt;STACK -->
<g id="edge9" class="edge">
<title>OPS:nw&#45;&gt;STACK</title>
<g id="a_edge9"><a xlink:title="Edges connect query operations to the resulting query state.">
<path fill="none" stroke="#000000" d="M571,-252C561.7433,-261.2567 406.8747,-174.6798 333.4926,-132.8349"/>
<polygon fill="#000000" stroke="#000000" points="334.9612,-129.6431 324.5419,-127.7223 331.4892,-135.7214 334.9612,-129.6431"/>
</a>
</g>
</g>
<!-- STACK&#45;&gt;PHRASES -->
<g id="edge8" class="edge">
<title>STACK&#45;&gt;PHRASES</title>
<g id="a_edge8"><a xlink:title="Edges connect specific states to query phrases that can be applied at this state.">
<path fill="none" stroke="#000000" d="M295.5,-137.9063C295.5,-157.7083 295.5,-177.5103 295.5,-197.3124"/>
<polygon fill="#000000" stroke="#000000" points="292.0001,-197.349 295.5,-207.349 299.0001,-197.349 292.0001,-197.349"/>
</a>
</g>
</g>
<!-- STACK&#45;&gt;FINAL -->
<!-- COMPONENT -->
<g id="node8" class="node">
<title>COMPONENT</title>
<g id="a_node8"><a xlink:title="References are clickable links to the description of the query component.">
<polygon fill="none" stroke="#000000" points="433,-52 158,-52 158,-48 154,-48 154,-44 158,-44 158,-24 154,-24 154,-20 158,-20 158,-16 433,-16 433,-52"/>
<polyline fill="none" stroke="#000000" points="158,-48 162,-48 162,-44 158,-44 "/>
<polyline fill="none" stroke="#000000" points="158,-24 162,-24 162,-20 158,-20 "/>
<text text-anchor="middle" x="295.5" y="-30.3" font-family="Sans-Serif" font-size="14.00" fill="#000000">REFERENCE TO QUERY COMPONENT  </text>
</a>
</g>
</g>
<!-- STACK&#45;&gt;COMPONENT -->
<g id="edge10" class="edge">
<title>STACK&#45;&gt;COMPONENT:se</title>
<g id="a_edge10"><a xlink:title="Edges connect specific states to query components that can be applied at this state.">
<path fill="none" stroke="#000000" d="M323.2792,-18.946C351.8193,-27.5439 433,-52 433,-52 408.9844,-88.4379 357.273,-102.4603 324.5591,-107.795"/>
<polygon fill="#000000" stroke="#000000" points="324.0846,-15.5333 313.5,-16 322.0654,-22.2358 324.0846,-15.5333"/>
</a>
</g>
</g>
<!-- EMPTY -->
<g id="node6" class="node">
<title>EMPTY</title>
<ellipse fill="#000000" stroke="#000000" cx="61" cy="-111" rx="1.8" ry="1.8"/>
</g>
<!-- EMPTY&#45;&gt;PHRASES -->
<g id="edge6" class="edge">
<title>EMPTY&#45;&gt;PHRASES</title>
<g id="a_edge6"><a xlink:title="Edges connect specific states (such as the empty state) to query phrases that can be applied at this state.">
<path fill="none" stroke="#000000" d="M62.0819,-112.4413C68.9574,-121.4951 107.6583,-170.9115 151,-195 156.5148,-198.065 162.2835,-200.8995 168.2082,-203.5196"/>
<polygon fill="#000000" stroke="#000000" points="167.0568,-206.8318 177.6328,-207.4627 169.7585,-200.3742 167.0568,-206.8318"/>
</a>
</g>
</g>
<!-- EMPTY&#45;&gt;STACK -->
<!-- EMPTY&#45;&gt;COMPONENT -->
<g id="edge7" class="edge">
<title>EMPTY&#45;&gt;COMPONENT</title>
<g id="a_edge7"><a xlink:title="Edges connect specific states (such as the empty state) to query components that can be applied at this state.">
<path fill="none" stroke="#000000" d="M62.8869,-110.9698C69.425,-110.7898 91.5536,-109.546 107,-101 128.9897,-88.8339 126.8923,-72.5084 150.3142,-57.2127"/>
<polygon fill="#000000" stroke="#000000" points="152.3622,-60.0736 159.3073,-52.0725 148.8885,-53.9963 152.3622,-60.0736"/>
</a>
</g>
</g>
<!-- E0 -->
<g id="node7" class="node">
<title>E0</title>
<g id="a_node7"><a xlink:title="The empty query stack state is shown as a point.">
<text text-anchor="start" x="38" y="-81.3" font-family="Sans-Serif" font-size="14.00" fill="#000000"> </text>
<text text-anchor="start" x="42" y="-81.3" font-family="Sans-Serif" font-style="italic" font-size="14.00" fill="#000000">empty</text>
<text text-anchor="start" x="80" y="-81.3" font-family="Sans-Serif" font-size="14.00" fill="#000000"> </text>
</a>
</g>
</g>
<!-- COMPONENT&#45;&gt;FINAL -->
<g id="edge13" class="edge">
<title>COMPONENT&#45;&gt;FINAL</title>
<g id="a_edge13"><a xlink:title="Edges connect query components to the resulting query state (such as the final state).">
<path fill="none" stroke="#000000" d="M423.4319,-52.0467C429.0502,-53.2893 434.5941,-54.6061 440,-56 472.722,-64.4373 508.261,-77.4007 536.421,-88.6232"/>
<polygon fill="#000000" stroke="#000000" points="535.4738,-92.0151 546.0571,-92.5099 538.0923,-85.5233 535.4738,-92.0151"/>
</a>
</g>
</g>
<!-- COMPONENT&#45;&gt;STACK -->
<g id="edge11" class="edge">
<title>COMPONENT:sw&#45;&gt;STACK</title>
<g id="a_edge11"><a xlink:title="Edges connect query components to the resulting query state.">
<path fill="none" stroke="#000000" d="M256.3567,-105.9707C223.8912,-99.5078 179.6703,-84.8795 158,-52 158,-52 277.5,-16 277.5,-16"/>
<polygon fill="#000000" stroke="#000000" points="255.9775,-109.4589 266.4409,-107.795 257.2236,-102.5707 255.9775,-109.4589"/>
</a>
</g>
</g>
<!-- INVIS2 -->
<!-- INVIS2&#45;&gt;COMPONENT -->
</g>
</svg>
