<?xml version="1.0" encoding="UTF-8" standalone="no"?>
<!DOCTYPE svg PUBLIC "-//W3C//DTD SVG 1.1//EN"
 "http://www.w3.org/Graphics/SVG/1.1/DTD/svg11.dtd">
<!-- Generated by graphviz version 2.40.1 (0)
 -->
<!-- Title: %3 Pages: 1 -->
<svg width="1004pt" height="669pt"
 viewBox="0.00 0.00 1004.00 669.00" xmlns="http://www.w3.org/2000/svg" xmlns:xlink="http://www.w3.org/1999/xlink">
<g id="graph0" class="graph" transform="scale(1 1) rotate(0) translate(4 665)">
<title>%3</title>
<polygon fill="#ffffff" stroke="transparent" points="-4,4 -4,-665 1000,-665 1000,4 -4,4"/>
<g id="clust1" class="cluster">
<title>cluster_all</title>
<polygon fill="none" stroke="#000000" points="147,-8 147,-653 836,-653 836,-8 147,-8"/>
<text text-anchor="middle" x="267.5" y="-626.6" font-family="Sans-Serif" font-size="28.00" fill="#000000">MATRIX LOOKUP</text>
</g>
<!-- Matrix_axis -->
<g id="node1" class="node">
<title>Matrix_axis</title>
<polygon fill="none" stroke="#000000" points="119,-310 0,-310 0,-274 119,-274 119,-310"/>
<text text-anchor="start" x="8" y="-295.8" font-family="Sans-Serif" font-size="14.00" fill="#000000"> MatrixState</text>
<text text-anchor="start" x="81" y="-295.8" font-family="Sans-Serif" font-style="italic" baseline-shift="sub" font-size="14.00" fill="#000000">axis</text>
<text text-anchor="start" x="103" y="-295.8" font-family="Sans-Serif" font-size="14.00" fill="#000000">  </text>
<text text-anchor="start" x="57.5" y="-281.8" font-family="Sans-Serif" font-size="14.00" fill="#000000"> </text>
</g>
<!-- ML1 -->
<g id="node3" class="node">
<title>ML1</title>
<polygon fill="none" stroke="#000000" stroke-dasharray="1,5" points="473,-605.5 217,-605.5 217,-462.5 473,-462.5 473,-605.5"/>
<text text-anchor="start" x="287" y="-590.3" font-family="Courier,monospace" font-size="14.00" fill="#c0c0c0">?? final_value</text>
<text text-anchor="start" x="270.5" y="-575.3" font-family="Courier,monospace" font-size="14.00" fill="#000000">:: matrix_property</text>
<text text-anchor="start" x="278.5" y="-560.3" font-family="Courier,monospace" font-size="14.00" fill="#c0c0c0">|| default_value</text>
<text text-anchor="start" x="299.5" y="-545.3" font-family="Courier,monospace" font-size="14.00" fill="#000000">@&#45; row_name</text>
<text text-anchor="start" x="340.5" y="-530.3" font-family="Courier,monospace" font-size="14.00" fill="#000000"> </text>
<text text-anchor="start" x="250" y="-515.3" font-family="Courier,monospace" font-size="14.00" fill="#c0c0c0">IfEmpty(final_value) |&gt;</text>
<text text-anchor="start" x="225" y="-500.3" font-family="Courier,monospace" font-size="14.00" fill="#000000">LookupMatrix(matrix_property)</text>
<text text-anchor="start" x="233.5" y="-485.3" font-family="Courier,monospace" font-size="14.00" fill="#c0c0c0">|&gt; IfMissing(default_value)</text>
<text text-anchor="start" x="250" y="-470.3" font-family="Courier,monospace" font-size="14.00" fill="#000000">|&gt; RowIsEqual(row_name)</text>
</g>
<!-- Matrix_axis&#45;&gt;ML1 -->
<g id="edge5" class="edge">
<title>Matrix_axis&#45;&gt;ML1:w</title>
<path fill="none" stroke="#000000" d="M62.3008,-310.1893C71.7817,-364.6555 107.7986,-523.3177 206.8897,-533.4874"/>
<polygon fill="#000000" stroke="#000000" points="206.8356,-536.989 217,-534 207.1901,-529.998 206.8356,-536.989"/>
</g>
<!-- ML2 -->
<g id="node5" class="node">
<title>ML2</title>
<polygon fill="none" stroke="#000000" stroke-dasharray="1,5" points="473,-444.5 217,-444.5 217,-301.5 473,-301.5 473,-444.5"/>
<text text-anchor="start" x="287" y="-429.3" font-family="Courier,monospace" font-size="14.00" fill="#c0c0c0">?? final_value</text>
<text text-anchor="start" x="270.5" y="-414.3" font-family="Courier,monospace" font-size="14.00" fill="#000000">:: matrix_property</text>
<text text-anchor="start" x="278.5" y="-399.3" font-family="Courier,monospace" font-size="14.00" fill="#c0c0c0">|| default_value</text>
<text text-anchor="start" x="287" y="-384.3" font-family="Courier,monospace" font-size="14.00" fill="#000000">@| column_name</text>
<text text-anchor="start" x="340.5" y="-369.3" font-family="Courier,monospace" font-size="14.00" fill="#000000"> </text>
<text text-anchor="start" x="250" y="-354.3" font-family="Courier,monospace" font-size="14.00" fill="#c0c0c0">IfEmpty(final_value) |&gt;</text>
<text text-anchor="start" x="225" y="-339.3" font-family="Courier,monospace" font-size="14.00" fill="#000000">LookupMatrix(matrix_property)</text>
<text text-anchor="start" x="233.5" y="-324.3" font-family="Courier,monospace" font-size="14.00" fill="#c0c0c0">|&gt; IfMissing(default_value)</text>
<text text-anchor="start" x="225" y="-309.3" font-family="Courier,monospace" font-size="14.00" fill="#000000">|&gt; ColumnIsEqual(column_name)</text>
</g>
<!-- Matrix_axis&#45;&gt;ML2 -->
<g id="edge6" class="edge">
<title>Matrix_axis&#45;&gt;ML2:w</title>
<path fill="none" stroke="#000000" d="M79.6908,-310.3802C106.3419,-332.7849 155.8707,-368.2177 206.8015,-372.5593"/>
<polygon fill="#000000" stroke="#000000" points="206.8582,-376.0649 217,-373 207.1605,-369.0715 206.8582,-376.0649"/>
</g>
<!-- ML3 -->
<g id="node7" class="node">
<title>ML3</title>
<polygon fill="none" stroke="#000000" stroke-dasharray="1,5" points="535,-283.5 155,-283.5 155,-140.5 535,-140.5 535,-283.5"/>
<text text-anchor="start" x="287" y="-268.3" font-family="Courier,monospace" font-size="14.00" fill="#c0c0c0">?? final_value</text>
<text text-anchor="start" x="270.5" y="-253.3" font-family="Courier,monospace" font-size="14.00" fill="#000000">:: matrix_property</text>
<text text-anchor="start" x="278.5" y="-238.3" font-family="Courier,monospace" font-size="14.00" fill="#c0c0c0">|| default_value</text>
<text text-anchor="start" x="233.5" y="-223.3" font-family="Courier,monospace" font-size="14.00" fill="#000000">@ column_axis = column_name</text>
<text text-anchor="start" x="340.5" y="-208.3" font-family="Courier,monospace" font-size="14.00" fill="#000000"> </text>
<text text-anchor="start" x="250" y="-193.3" font-family="Courier,monospace" font-size="14.00" fill="#c0c0c0">IfEmpty(final_value) |&gt;</text>
<text text-anchor="start" x="225" y="-178.3" font-family="Courier,monospace" font-size="14.00" fill="#000000">LookupMatrix(matrix_property)</text>
<text text-anchor="start" x="233.5" y="-163.3" font-family="Courier,monospace" font-size="14.00" fill="#c0c0c0">|&gt; IfMissing(default_value)</text>
<text text-anchor="start" x="163" y="-148.3" font-family="Courier,monospace" font-size="14.00" fill="#000000">|&gt; Axis(column_axis) |&gt; IsEqual(column_name)</text>
</g>
<!-- Matrix_axis&#45;&gt;ML3 -->
<g id="edge7" class="edge">
<title>Matrix_axis&#45;&gt;ML3:w</title>
<path fill="none" stroke="#000000" d="M70.2335,-273.8468C84.3281,-252.364 111.2728,-218.7537 144.864,-212.8877"/>
<polygon fill="#000000" stroke="#000000" points="145.3435,-216.3592 155,-212 144.7327,-209.3859 145.3435,-216.3592"/>
</g>
<!-- ML4 -->
<g id="node9" class="node">
<title>ML4</title>
<polygon fill="none" stroke="#000000" stroke-dasharray="1,5" points="473,-122 217,-122 217,-16 473,-16 473,-122"/>
<text text-anchor="start" x="282.5" y="-107.8" font-family="Courier,monospace" font-size="14.00" fill="#000000"> </text>
<text text-anchor="start" x="291.5" y="-107.8" font-family="Courier,monospace" font-size="14.00" fill="#c0c0c0">?? final_value</text>
<text text-anchor="start" x="274.5" y="-93.8" font-family="Courier,monospace" font-size="14.00" fill="#000000">: vector_property</text>
<text text-anchor="start" x="278.5" y="-79.8" font-family="Courier,monospace" font-size="14.00" fill="#c0c0c0">|| default_value</text>
<text text-anchor="start" x="340.5" y="-65.8" font-family="Courier,monospace" font-size="14.00" fill="#000000"> </text>
<text text-anchor="start" x="250" y="-51.8" font-family="Courier,monospace" font-size="14.00" fill="#c0c0c0">IfEmpty(final_value) |&gt;</text>
<text text-anchor="start" x="225" y="-37.8" font-family="Courier,monospace" font-size="14.00" fill="#000000">LookupVector(vector_property)</text>
<text text-anchor="start" x="233.5" y="-23.8" font-family="Courier,monospace" font-size="14.00" fill="#c0c0c0">|&gt; IfMissing(default_value)</text>
</g>
<!-- Matrix_axis&#45;&gt;ML4 -->
<g id="edge8" class="edge">
<title>Matrix_axis&#45;&gt;ML4:w</title>
<path fill="none" stroke="#000000" d="M63.1183,-273.751C74.4441,-222.3124 114.1451,-79.2411 206.9468,-69.521"/>
<polygon fill="#000000" stroke="#000000" points="207.1946,-73.0129 217,-69 206.8322,-66.0223 207.1946,-73.0129"/>
</g>
<!-- Matrix_values -->
<g id="node2" class="node">
<title>Matrix_values</title>
<polygon fill="none" stroke="#000000" points="996,-310 864,-310 864,-274 996,-274 996,-310"/>
<text text-anchor="start" x="872" y="-295.8" font-family="Sans-Serif" font-size="14.00" fill="#000000"> MatrixState</text>
<text text-anchor="start" x="945" y="-295.8" font-family="Sans-Serif" font-style="italic" baseline-shift="sub" font-size="14.00" fill="#000000">values</text>
<text text-anchor="start" x="980" y="-295.8" font-family="Sans-Serif" font-size="14.00" fill="#000000">  </text>
<text text-anchor="start" x="928" y="-281.8" font-family="Sans-Serif" font-size="14.00" fill="#000000"> </text>
</g>
<!-- ML1_ -->
<g id="node4" class="node">
<title>ML1_</title>
<polygon fill="none" stroke="#000000" points="805,-492 582,-492 582,-468 805,-468 817,-480 805,-492"/>
<text text-anchor="middle" x="699.5" y="-476.3" font-family="Sans-Serif" font-size="14.00" fill="#000000">lookup square matrix row by matrix  </text>
</g>
<!-- ML1&#45;&gt;ML1_ -->
<g id="edge1" class="edge">
<title>ML1:e&#45;&gt;ML1_:w</title>
<path fill="none" stroke="#000000" d="M473,-534C523.2875,-534 527.299,-486.9337 571.4405,-480.6828"/>
<polygon fill="#000000" stroke="#000000" points="571.76,-484.1692 581.5,-480 571.2859,-477.1853 571.76,-484.1692"/>
</g>
<!-- ML1_&#45;&gt;Matrix_values -->
<g id="edge9" class="edge">
<title>ML1_:e&#45;&gt;Matrix_values</title>
<path fill="none" stroke="#000000" d="M817.5,-480C891.1606,-480 917.7551,-372.4155 926.3395,-320.017"/>
<polygon fill="#000000" stroke="#000000" points="929.8153,-320.4403 927.8668,-310.0262 922.8957,-319.3825 929.8153,-320.4403"/>
</g>
<!-- ML2_ -->
<g id="node6" class="node">
<title>ML2_</title>
<polygon fill="none" stroke="#000000" points="816,-358 571,-358 571,-334 816,-334 828,-346 816,-358"/>
<text text-anchor="middle" x="699.5" y="-342.3" font-family="Sans-Serif" font-size="14.00" fill="#000000">lookup square matrix column by matrix  </text>
</g>
<!-- ML2&#45;&gt;ML2_ -->
<g id="edge2" class="edge">
<title>ML2:e&#45;&gt;ML2_:w</title>
<path fill="none" stroke="#000000" d="M473,-373C514.4723,-373 524.3151,-350.248 560.5982,-346.5153"/>
<polygon fill="#000000" stroke="#000000" points="561.1854,-349.9905 571,-346 560.8391,-342.9991 561.1854,-349.9905"/>
</g>
<!-- ML2_&#45;&gt;Matrix_values -->
<g id="edge10" class="edge">
<title>ML2_:e&#45;&gt;Matrix_values</title>
<path fill="none" stroke="#000000" d="M828.5,-346C855.624,-346 882.5519,-330.7843 901.849,-316.5065"/>
<polygon fill="#000000" stroke="#000000" points="904.1251,-319.1708 909.8905,-310.2819 899.8404,-313.6353 904.1251,-319.1708"/>
</g>
<!-- ML3_ -->
<g id="node8" class="node">
<title>ML3_</title>
<polygon fill="none" stroke="#000000" points="793.5,-251 593.5,-251 593.5,-227 793.5,-227 805.5,-239 793.5,-251"/>
<text text-anchor="middle" x="699.5" y="-235.3" font-family="Sans-Serif" font-size="14.00" fill="#000000">lookup matrix column by matrix  </text>
</g>
<!-- ML3&#45;&gt;ML3_ -->
<g id="edge3" class="edge">
<title>ML3:e&#45;&gt;ML3_:w</title>
<path fill="none" stroke="#000000" d="M535,-212C559.8325,-212 564.0545,-232.3044 583.4124,-237.6977"/>
<polygon fill="#000000" stroke="#000000" points="583.1342,-241.1908 593.5,-239 584.0304,-234.2484 583.1342,-241.1908"/>
</g>
<!-- ML3_&#45;&gt;Matrix_values -->
<g id="edge11" class="edge">
<title>ML3_:e&#45;&gt;Matrix_values</title>
<path fill="none" stroke="#000000" d="M805.5,-239C837.7872,-239 871.2916,-254.2768 895.3998,-268.4267"/>
<polygon fill="#000000" stroke="#000000" points="893.796,-271.5479 904.1573,-273.7604 897.4372,-265.5695 893.796,-271.5479"/>
</g>
<!-- ML4_ -->
<g id="node10" class="node">
<title>ML4_</title>
<polygon fill="none" stroke="#000000" points="769.5,-125 617.5,-125 617.5,-101 769.5,-101 781.5,-113 769.5,-125"/>
<text text-anchor="middle" x="699.5" y="-109.3" font-family="Sans-Serif" font-size="14.00" fill="#000000">lookup vector by matrix  </text>
</g>
<!-- ML4&#45;&gt;ML4_ -->
<g id="edge4" class="edge">
<title>ML4:e&#45;&gt;ML4_:w</title>
<path fill="none" stroke="#000000" d="M473,-69C536.5933,-69 549.129,-108.4817 607.3373,-112.6458"/>
<polygon fill="#000000" stroke="#000000" points="607.3841,-116.1495 617.5,-113 607.628,-109.1537 607.3841,-116.1495"/>
</g>
<!-- ML4_&#45;&gt;Matrix_values -->
<g id="edge12" class="edge">
<title>ML4_:e&#45;&gt;Matrix_values</title>
<path fill="none" stroke="#000000" d="M781.5,-113C859.1294,-113 903.9133,-213.955 921.4028,-264.2315"/>
<polygon fill="#000000" stroke="#000000" points="918.1313,-265.4843 924.6307,-273.8515 924.7677,-263.2575 918.1313,-265.4843"/>
</g>
</g>
</svg>
