<?xml version="1.0" encoding="UTF-8" standalone="no"?>
<!DOCTYPE svg PUBLIC "-//W3C//DTD SVG 1.1//EN"
 "http://www.w3.org/Graphics/SVG/1.1/DTD/svg11.dtd">
<!-- Generated by graphviz version 2.40.1 (0)
 -->
<!-- Title: %3 Pages: 1 -->
<svg width="747pt" height="467pt"
 viewBox="0.00 0.00 747.00 467.00" xmlns="http://www.w3.org/2000/svg" xmlns:xlink="http://www.w3.org/1999/xlink">
<g id="graph0" class="graph" transform="scale(1 1) rotate(0) translate(4 463)">
<title>%3</title>
<polygon fill="#ffffff" stroke="transparent" points="-4,4 -4,-463 743,-463 743,4 -4,4"/>
<!-- H5dfFormat -->
<g id="node1" class="node">
<title>H5dfFormat</title>
<g id="a_node1"><a xlink:href="../h5df_format.html" xlink:title="H5dfFormat" target="_top">
<polygon fill="none" stroke="#ffffff" points="336,-184 259,-184 259,-165 336,-165 336,-184"/>
<text text-anchor="middle" x="297.5" y="-170.8" font-family="Sans-Serif" font-size="14.00" fill="#000000">H5dfFormat</text>
</a>
</g>
</g>
<!-- CompleteDaf -->
<g id="node22" class="node">
<title>CompleteDaf</title>
<g id="a_node22"><a xlink:href="../complete.html" xlink:title="CompleteDaf" target="_top">
<polygon fill="none" stroke="#ffffff" points="208.5,-19 124.5,-19 124.5,0 208.5,0 208.5,-19"/>
<text text-anchor="middle" x="166.5" y="-5.8" font-family="Sans-Serif" font-size="14.00" fill="#000000">CompleteDaf</text>
</a>
</g>
</g>
<!-- H5dfFormat&#45;&gt;CompleteDaf -->
<g id="edge26" class="edge">
<title>H5dfFormat&#45;&gt;CompleteDaf</title>
<path fill="none" stroke="#000000" d="M286.7476,-164.8632C277.0748,-155.968 262.7043,-142.1797 251.5,-129 222.6757,-95.0939 193.5855,-51.7772 178.0309,-27.7085"/>
<polygon fill="#000000" stroke="#000000" points="180.9263,-25.7398 172.5844,-19.2082 175.0324,-29.5163 180.9263,-25.7398"/>
</g>
<!-- Writers -->
<g id="node2" class="node">
<title>Writers</title>
<g id="a_node2"><a xlink:href="../writers.html" xlink:title="Writers" target="_top">
<polygon fill="none" stroke="#ffffff" points="471,-239 424,-239 424,-220 471,-220 471,-239"/>
<text text-anchor="middle" x="447.5" y="-225.8" font-family="Sans-Serif" font-size="14.00" fill="#000000">Writers</text>
</a>
</g>
</g>
<!-- Writers&#45;&gt;H5dfFormat -->
<g id="edge1" class="edge">
<title>Writers&#45;&gt;H5dfFormat</title>
<path fill="none" stroke="#000000" d="M423.7321,-220.7851C399.2723,-211.8165 360.8867,-197.7418 332.8621,-187.4661"/>
<polygon fill="#000000" stroke="#000000" points="334.015,-184.161 323.4214,-184.0045 331.6052,-190.7332 334.015,-184.161"/>
</g>
<!-- MemoryFormat -->
<g id="node11" class="node">
<title>MemoryFormat</title>
<g id="a_node11"><a xlink:href="../memory_format.html" xlink:title="MemoryFormat" target="_top">
<polygon fill="none" stroke="#ffffff" points="452.5,-184 354.5,-184 354.5,-165 452.5,-165 452.5,-184"/>
<text text-anchor="middle" x="403.5" y="-170.8" font-family="Sans-Serif" font-size="14.00" fill="#000000">MemoryFormat</text>
</a>
</g>
</g>
<!-- Writers&#45;&gt;MemoryFormat -->
<g id="edge9" class="edge">
<title>Writers&#45;&gt;MemoryFormat</title>
<path fill="none" stroke="#000000" d="M439.8358,-219.9197C433.7281,-212.2851 425.0093,-201.3867 417.6433,-192.1792"/>
<polygon fill="#000000" stroke="#000000" points="420.3527,-189.9631 411.3727,-184.3408 414.8866,-194.336 420.3527,-189.9631"/>
</g>
<!-- Copies -->
<g id="node14" class="node">
<title>Copies</title>
<g id="a_node14"><a xlink:href="../copies.html" xlink:title="Copies" target="_top">
<polygon fill="none" stroke="#ffffff" points="626,-184 579,-184 579,-165 626,-165 626,-184"/>
<text text-anchor="middle" x="602.5" y="-170.8" font-family="Sans-Serif" font-size="14.00" fill="#000000">Copies</text>
</a>
</g>
</g>
<!-- Writers&#45;&gt;Copies -->
<g id="edge54" class="edge">
<title>Writers&#45;&gt;Copies</title>
<path fill="none" stroke="#000000" d="M471.0412,-221.1467C497.2914,-211.8321 539.9379,-196.6994 569.5076,-186.207"/>
<polygon fill="#000000" stroke="#000000" points="570.7379,-189.4843 578.9917,-182.8416 568.397,-182.8873 570.7379,-189.4843"/>
</g>
<!-- Chains -->
<g id="node15" class="node">
<title>Chains</title>
<g id="a_node15"><a xlink:href="../chains.html" xlink:title="Chains" target="_top">
<polygon fill="none" stroke="#ffffff" points="504,-129 457,-129 457,-110 504,-110 504,-129"/>
<text text-anchor="middle" x="480.5" y="-115.8" font-family="Sans-Serif" font-size="14.00" fill="#000000">Chains</text>
</a>
</g>
</g>
<!-- Writers&#45;&gt;Chains -->
<g id="edge14" class="edge">
<title>Writers&#45;&gt;Chains</title>
<path fill="none" stroke="#000000" d="M450.538,-219.7471C453.397,-210.5408 457.7825,-196.3455 461.5,-184 466.0755,-168.8051 471.1492,-151.5605 474.9018,-138.7274"/>
<polygon fill="#000000" stroke="#000000" points="478.2618,-139.7072 477.7033,-129.1271 471.542,-137.7462 478.2618,-139.7072"/>
</g>
<!-- FilesFormat -->
<g id="node17" class="node">
<title>FilesFormat</title>
<g id="a_node17"><a xlink:href="../files_format.html" xlink:title="FilesFormat" target="_top">
<polygon fill="none" stroke="#ffffff" points="241,-184 164,-184 164,-165 241,-165 241,-184"/>
<text text-anchor="middle" x="202.5" y="-170.8" font-family="Sans-Serif" font-size="14.00" fill="#000000">FilesFormat</text>
</a>
</g>
</g>
<!-- Writers&#45;&gt;FilesFormat -->
<g id="edge40" class="edge">
<title>Writers&#45;&gt;FilesFormat</title>
<path fill="none" stroke="#000000" d="M423.7916,-222.2371C421.0053,-221.4502 418.1956,-220.6869 415.5,-220 384.9488,-212.2146 303.8238,-195.2663 250.973,-184.3955"/>
<polygon fill="#000000" stroke="#000000" points="251.6276,-180.9569 241.1279,-182.3734 250.2193,-187.8138 251.6276,-180.9569"/>
</g>
<!-- Reconstruction -->
<g id="node26" class="node">
<title>Reconstruction</title>
<g id="a_node26"><a xlink:href="../reconstruction.html" xlink:title="Reconstruction" target="_top">
<polygon fill="none" stroke="#ffffff" points="739,-184 644,-184 644,-165 739,-165 739,-184"/>
<text text-anchor="middle" x="691.5" y="-170.8" font-family="Sans-Serif" font-size="14.00" fill="#000000">Reconstruction</text>
</a>
</g>
</g>
<!-- Writers&#45;&gt;Reconstruction -->
<g id="edge32" class="edge">
<title>Writers&#45;&gt;Reconstruction</title>
<path fill="none" stroke="#000000" d="M471.34,-224.1262C510.0128,-215.409 587.3159,-197.9841 639.2407,-186.2798"/>
<polygon fill="#000000" stroke="#000000" points="640.2827,-189.6328 649.2683,-184.0194 638.7434,-182.8041 640.2827,-189.6328"/>
</g>
<!-- Reorder -->
<g id="node3" class="node">
<title>Reorder</title>
<g id="a_node3"><a xlink:href="../reorder.html" xlink:title="Reorder" target="_top">
<polygon fill="none" stroke="#ffffff" points="323,-239 270,-239 270,-220 323,-220 323,-239"/>
<text text-anchor="middle" x="296.5" y="-225.8" font-family="Sans-Serif" font-size="14.00" fill="#000000">Reorder</text>
</a>
</g>
</g>
<!-- Reorder&#45;&gt;H5dfFormat -->
<g id="edge2" class="edge">
<title>Reorder&#45;&gt;H5dfFormat</title>
<path fill="none" stroke="#000000" d="M296.6742,-219.9197C296.8017,-212.9083 296.9792,-203.1442 297.137,-194.4652"/>
<polygon fill="#000000" stroke="#000000" points="300.6386,-194.4028 297.3211,-184.3408 293.6398,-194.2755 300.6386,-194.4028"/>
</g>
<!-- Reorder&#45;&gt;MemoryFormat -->
<g id="edge10" class="edge">
<title>Reorder&#45;&gt;MemoryFormat</title>
<path fill="none" stroke="#000000" d="M315.138,-219.9197C331.8362,-211.3365 356.5598,-198.6281 375.6118,-188.8351"/>
<polygon fill="#000000" stroke="#000000" points="377.4228,-191.8395 384.7166,-184.155 374.2227,-185.6138 377.4228,-191.8395"/>
</g>
<!-- Reorder&#45;&gt;FilesFormat -->
<g id="edge41" class="edge">
<title>Reorder&#45;&gt;FilesFormat</title>
<path fill="none" stroke="#000000" d="M280.1264,-219.9197C265.6579,-211.4541 244.3309,-198.9755 227.6905,-189.2391"/>
<polygon fill="#000000" stroke="#000000" points="229.4,-186.1843 219.0013,-184.155 225.8649,-192.2261 229.4,-186.1843"/>
</g>
<!-- LazySparse -->
<g id="node4" class="node">
<title>LazySparse</title>
<g id="a_node4"><a xlink:href="../lazy_sparse.html" xlink:title="LazySparse" target="_top">
<polygon fill="none" stroke="#ffffff" points="251.5,-239 175.5,-239 175.5,-220 251.5,-220 251.5,-239"/>
<text text-anchor="middle" x="213.5" y="-225.8" font-family="Sans-Serif" font-size="14.00" fill="#000000">LazySparse</text>
</a>
</g>
</g>
<!-- LazySparse&#45;&gt;H5dfFormat -->
<g id="edge3" class="edge">
<title>LazySparse&#45;&gt;H5dfFormat</title>
<path fill="none" stroke="#000000" d="M228.1317,-219.9197C240.8216,-211.6109 259.4154,-199.4363 274.159,-189.7828"/>
<polygon fill="#000000" stroke="#000000" points="276.3052,-192.5611 282.7541,-184.155 272.4707,-186.7048 276.3052,-192.5611"/>
</g>
<!-- LazySparse&#45;&gt;FilesFormat -->
<g id="edge42" class="edge">
<title>LazySparse&#45;&gt;FilesFormat</title>
<path fill="none" stroke="#000000" d="M211.5839,-219.9197C210.1661,-212.8304 208.1854,-202.9269 206.4353,-194.1763"/>
<polygon fill="#000000" stroke="#000000" points="209.8614,-193.4602 204.4682,-184.3408 202.9974,-194.8331 209.8614,-193.4602"/>
</g>
<!-- ReadOnly -->
<g id="node5" class="node">
<title>ReadOnly</title>
<g id="a_node5"><a xlink:href="../read_only.html" xlink:title="ReadOnly" target="_top">
<polygon fill="none" stroke="#ffffff" points="406,-239 341,-239 341,-220 406,-220 406,-239"/>
<text text-anchor="middle" x="373.5" y="-225.8" font-family="Sans-Serif" font-size="14.00" fill="#000000">ReadOnly</text>
</a>
</g>
</g>
<!-- ReadOnly&#45;&gt;H5dfFormat -->
<g id="edge4" class="edge">
<title>ReadOnly&#45;&gt;H5dfFormat</title>
<path fill="none" stroke="#000000" d="M360.2618,-219.9197C348.8888,-211.6893 332.2744,-199.6657 318.9965,-190.0567"/>
<polygon fill="#000000" stroke="#000000" points="320.9946,-187.1823 310.8415,-184.155 316.8907,-192.8532 320.9946,-187.1823"/>
</g>
<!-- Views -->
<g id="node13" class="node">
<title>Views</title>
<g id="a_node13"><a xlink:href="../views.html" xlink:title="Views" target="_top">
<polygon fill="none" stroke="#ffffff" points="561,-184 520,-184 520,-165 561,-165 561,-184"/>
<text text-anchor="middle" x="540.5" y="-170.8" font-family="Sans-Serif" font-size="14.00" fill="#000000">Views</text>
</a>
</g>
</g>
<!-- ReadOnly&#45;&gt;Views -->
<g id="edge23" class="edge">
<title>ReadOnly&#45;&gt;Views</title>
<path fill="none" stroke="#000000" d="M402.5892,-219.9197C432.6466,-210.0206 479.3649,-194.6343 509.9492,-184.5616"/>
<polygon fill="#000000" stroke="#000000" points="511.2521,-187.8175 519.6554,-181.365 509.0624,-181.1688 511.2521,-187.8175"/>
</g>
<!-- ReadOnly&#45;&gt;FilesFormat -->
<g id="edge43" class="edge">
<title>ReadOnly&#45;&gt;FilesFormat</title>
<path fill="none" stroke="#000000" d="M343.7141,-219.9197C315.4795,-210.8384 272.8877,-197.1393 241.8642,-187.161"/>
<polygon fill="#000000" stroke="#000000" points="242.8224,-183.7927 232.231,-184.0626 240.679,-190.4565 242.8224,-183.7927"/>
</g>
<!-- PackedFormat -->
<g id="node6" class="node">
<title>PackedFormat</title>
<g id="a_node6"><a xlink:href="../packed_format.html" xlink:title="PackedFormat" target="_top">
<polygon fill="none" stroke="#ffffff" points="493.5,-294 401.5,-294 401.5,-275 493.5,-275 493.5,-294"/>
<text text-anchor="middle" x="447.5" y="-280.8" font-family="Sans-Serif" font-size="14.00" fill="#000000">PackedFormat</text>
</a>
</g>
</g>
<!-- PackedFormat&#45;&gt;Writers -->
<g id="edge20" class="edge">
<title>PackedFormat&#45;&gt;Writers</title>
<path fill="none" stroke="#000000" d="M447.5,-274.9197C447.5,-267.9083 447.5,-258.1442 447.5,-249.4652"/>
<polygon fill="#000000" stroke="#000000" points="451.0001,-249.3408 447.5,-239.3408 444.0001,-249.3409 451.0001,-249.3408"/>
</g>
<!-- Operations -->
<g id="node7" class="node">
<title>Operations</title>
<g id="a_node7"><a xlink:href="../operations.html" xlink:title="Operations" target="_top">
<polygon fill="none" stroke="#ffffff" points="587,-349 516,-349 516,-330 587,-330 587,-349"/>
<text text-anchor="middle" x="551.5" y="-335.8" font-family="Sans-Serif" font-size="14.00" fill="#000000">Operations</text>
</a>
</g>
</g>
<!-- Operations&#45;&gt;PackedFormat -->
<g id="edge5" class="edge">
<title>Operations&#45;&gt;PackedFormat</title>
<path fill="none" stroke="#000000" d="M533.3846,-329.9197C517.1545,-321.3365 493.1241,-308.6281 474.6063,-298.8351"/>
<polygon fill="#000000" stroke="#000000" points="476.233,-295.7361 465.7568,-294.155 472.9605,-301.924 476.233,-295.7361"/>
</g>
<!-- Queries -->
<g id="node20" class="node">
<title>Queries</title>
<g id="a_node20"><a xlink:href="../queries.html" xlink:title="Queries" target="_top">
<polygon fill="none" stroke="#ffffff" points="573,-239 520,-239 520,-220 573,-220 573,-239"/>
<text text-anchor="middle" x="546.5" y="-225.8" font-family="Sans-Serif" font-size="14.00" fill="#000000">Queries</text>
</a>
</g>
</g>
<!-- Operations&#45;&gt;Queries -->
<g id="edge29" class="edge">
<title>Operations&#45;&gt;Queries</title>
<path fill="none" stroke="#000000" d="M551.0563,-329.7382C550.2388,-311.7541 548.4802,-273.0652 547.4027,-249.3599"/>
<polygon fill="#000000" stroke="#000000" points="550.8861,-248.9136 546.9356,-239.0828 543.8934,-249.2315 550.8861,-248.9136"/>
</g>
<!-- Formats -->
<g id="node8" class="node">
<title>Formats</title>
<g id="a_node8"><a xlink:href="../formats.html" xlink:title="Formats" target="_top">
<polygon fill="none" stroke="#ffffff" points="379,-349 324,-349 324,-330 379,-330 379,-349"/>
<text text-anchor="middle" x="351.5" y="-335.8" font-family="Sans-Serif" font-size="14.00" fill="#000000">Formats</text>
</a>
</g>
</g>
<!-- Formats&#45;&gt;PackedFormat -->
<g id="edge6" class="edge">
<title>Formats&#45;&gt;PackedFormat</title>
<path fill="none" stroke="#000000" d="M368.2219,-329.9197C382.9983,-321.4541 404.779,-308.9755 421.7735,-299.2391"/>
<polygon fill="#000000" stroke="#000000" points="423.7106,-302.1631 430.6476,-294.155 420.2308,-296.0893 423.7106,-302.1631"/>
</g>
<!-- Readers -->
<g id="node10" class="node">
<title>Readers</title>
<g id="a_node10"><a xlink:href="../readers.html" xlink:title="Readers" target="_top">
<polygon fill="none" stroke="#ffffff" points="381.5,-294 325.5,-294 325.5,-275 381.5,-275 381.5,-294"/>
<text text-anchor="middle" x="353.5" y="-280.8" font-family="Sans-Serif" font-size="14.00" fill="#000000">Readers</text>
</a>
</g>
</g>
<!-- Formats&#45;&gt;Readers -->
<g id="edge13" class="edge">
<title>Formats&#45;&gt;Readers</title>
<path fill="none" stroke="#000000" d="M351.8484,-329.9197C352.1033,-322.9083 352.4584,-313.1442 352.774,-304.4652"/>
<polygon fill="#000000" stroke="#000000" points="356.2763,-304.4614 353.1422,-294.3408 349.281,-304.207 356.2763,-304.4614"/>
</g>
<!-- MmapZipStores -->
<g id="node9" class="node">
<title>MmapZipStores</title>
<g id="a_node9"><a xlink:href="../mmap_zip_store.html" xlink:title="MmapZipStores" target="_top">
<polygon fill="none" stroke="#ffffff" points="498,-349 397,-349 397,-330 498,-330 498,-349"/>
<text text-anchor="middle" x="447.5" y="-335.8" font-family="Sans-Serif" font-size="14.00" fill="#000000">MmapZipStores</text>
</a>
</g>
</g>
<!-- MmapZipStores&#45;&gt;PackedFormat -->
<g id="edge7" class="edge">
<title>MmapZipStores&#45;&gt;PackedFormat</title>
<path fill="none" stroke="#000000" d="M447.5,-329.9197C447.5,-322.9083 447.5,-313.1442 447.5,-304.4652"/>
<polygon fill="#000000" stroke="#000000" points="451.0001,-304.3408 447.5,-294.3408 444.0001,-304.3409 451.0001,-304.3408"/>
</g>
<!-- Readers&#45;&gt;Writers -->
<g id="edge21" class="edge">
<title>Readers&#45;&gt;Writers</title>
<path fill="none" stroke="#000000" d="M369.8736,-274.9197C384.3421,-266.4541 405.6691,-253.9755 422.3095,-244.2391"/>
<polygon fill="#000000" stroke="#000000" points="424.1351,-247.2261 430.9987,-239.155 420.6,-241.1843 424.1351,-247.2261"/>
</g>
<!-- Readers&#45;&gt;Reorder -->
<g id="edge19" class="edge">
<title>Readers&#45;&gt;Reorder</title>
<path fill="none" stroke="#000000" d="M343.5714,-274.9197C335.4169,-267.0514 323.6697,-255.7164 313.9508,-246.3385"/>
<polygon fill="#000000" stroke="#000000" points="316.3252,-243.7659 306.6987,-239.3408 311.4646,-248.8032 316.3252,-243.7659"/>
</g>
<!-- Readers&#45;&gt;ReadOnly -->
<g id="edge8" class="edge">
<title>Readers&#45;&gt;ReadOnly</title>
<path fill="none" stroke="#000000" d="M356.9837,-274.9197C359.59,-267.7525 363.2422,-257.7089 366.4497,-248.8882"/>
<polygon fill="#000000" stroke="#000000" points="369.7933,-249.9349 369.9215,-239.3408 363.2147,-247.5426 369.7933,-249.9349"/>
</g>
<!-- Readers&#45;&gt;Queries -->
<g id="edge30" class="edge">
<title>Readers&#45;&gt;Queries</title>
<path fill="none" stroke="#000000" d="M381.5639,-276.5025C415.4886,-266.8349 472.6619,-250.542 509.9885,-239.9048"/>
<polygon fill="#000000" stroke="#000000" points="511.2966,-243.1715 519.9545,-237.0648 509.3781,-236.4395 511.2966,-243.1715"/>
</g>
<!-- Groups -->
<g id="node27" class="node">
<title>Groups</title>
<g id="a_node27"><a xlink:href="../groups.html" xlink:title="Groups" target="_top">
<polygon fill="none" stroke="#ffffff" points="157.5,-239 107.5,-239 107.5,-220 157.5,-220 157.5,-239"/>
<text text-anchor="middle" x="132.5" y="-225.8" font-family="Sans-Serif" font-size="14.00" fill="#000000">Groups</text>
</a>
</g>
</g>
<!-- Readers&#45;&gt;Groups -->
<g id="edge34" class="edge">
<title>Readers&#45;&gt;Groups</title>
<path fill="none" stroke="#000000" d="M325.2296,-277.9354C290.4068,-269.781 229.2109,-255.23 167.6112,-239.23"/>
<polygon fill="#000000" stroke="#000000" points="168.285,-235.7887 157.7253,-236.6504 166.5176,-242.5619 168.285,-235.7887"/>
</g>
<!-- ExampleData -->
<g id="node16" class="node">
<title>ExampleData</title>
<g id="a_node16"><a xlink:href="../example_data.html" xlink:title="ExampleData" target="_top">
<polygon fill="none" stroke="#ffffff" points="362.5,-74 276.5,-74 276.5,-55 362.5,-55 362.5,-74"/>
<text text-anchor="middle" x="319.5" y="-60.8" font-family="Sans-Serif" font-size="14.00" fill="#000000">ExampleData</text>
</a>
</g>
</g>
<!-- MemoryFormat&#45;&gt;ExampleData -->
<g id="edge17" class="edge">
<title>MemoryFormat&#45;&gt;ExampleData</title>
<path fill="none" stroke="#000000" d="M400.0108,-164.6469C395.0148,-151.3805 384.9237,-127.4307 371.5,-110 362.9227,-98.8624 351.3017,-88.3872 341.2209,-80.3017"/>
<polygon fill="#000000" stroke="#000000" points="343.2673,-77.4598 333.2159,-74.11 338.9845,-82.9967 343.2673,-77.4598"/>
</g>
<!-- AnnDataFormat -->
<g id="node32" class="node">
<title>AnnDataFormat</title>
<g id="a_node32"><a xlink:href="../anndata_format.html" xlink:title="AnnDataFormat" target="_top">
<polygon fill="none" stroke="#ffffff" points="362,-129 261,-129 261,-110 362,-110 362,-129"/>
<text text-anchor="middle" x="311.5" y="-115.8" font-family="Sans-Serif" font-size="14.00" fill="#000000">AnnDataFormat</text>
</a>
</g>
</g>
<!-- MemoryFormat&#45;&gt;AnnDataFormat -->
<g id="edge39" class="edge">
<title>MemoryFormat&#45;&gt;AnnDataFormat</title>
<path fill="none" stroke="#000000" d="M387.4748,-164.9197C373.4453,-156.5325 352.8269,-144.2063 336.6081,-134.5103"/>
<polygon fill="#000000" stroke="#000000" points="338.0293,-131.2822 327.6502,-129.155 334.4374,-137.2904 338.0293,-131.2822"/>
</g>
<!-- Adapters -->
<g id="node33" class="node">
<title>Adapters</title>
<g id="a_node33"><a xlink:href="../adapters.html" xlink:title="Adapters" target="_top">
<polygon fill="none" stroke="#ffffff" points="546,-19 487,-19 487,0 546,0 546,-19"/>
<text text-anchor="middle" x="516.5" y="-5.8" font-family="Sans-Serif" font-size="14.00" fill="#000000">Adapters</text>
</a>
</g>
</g>
<!-- MemoryFormat&#45;&gt;Adapters -->
<g id="edge47" class="edge">
<title>MemoryFormat&#45;&gt;Adapters</title>
<path fill="none" stroke="#000000" d="M410.2303,-164.6726C428.7233,-137.6695 480.5124,-62.0483 504.2876,-27.3322"/>
<polygon fill="#000000" stroke="#000000" points="507.1838,-29.2975 509.9466,-19.0692 501.4084,-25.3422 507.1838,-29.2975"/>
</g>
<!-- Concat -->
<g id="node12" class="node">
<title>Concat</title>
<g id="a_node12"><a xlink:href="../concat.html" xlink:title="Concat" target="_top">
<polygon fill="none" stroke="#ffffff" points="650,-129 603,-129 603,-110 650,-110 650,-129"/>
<text text-anchor="middle" x="626.5" y="-115.8" font-family="Sans-Serif" font-size="14.00" fill="#000000">Concat</text>
</a>
</g>
</g>
<!-- Views&#45;&gt;Concat -->
<g id="edge11" class="edge">
<title>Views&#45;&gt;Concat</title>
<path fill="none" stroke="#000000" d="M555.4801,-164.9197C568.4721,-156.6109 587.5086,-144.4363 602.6032,-134.7828"/>
<polygon fill="#000000" stroke="#000000" points="604.8643,-137.4914 611.4031,-129.155 601.0928,-131.5942 604.8643,-137.4914"/>
</g>
<!-- Views&#45;&gt;Chains -->
<g id="edge15" class="edge">
<title>Views&#45;&gt;Chains</title>
<path fill="none" stroke="#000000" d="M530.0488,-164.9197C521.4651,-157.0514 509.0997,-145.7164 498.8693,-136.3385"/>
<polygon fill="#000000" stroke="#000000" points="500.9721,-133.5181 491.2355,-129.3408 496.242,-138.6782 500.9721,-133.5181"/>
</g>
<!-- Contracts -->
<g id="node19" class="node">
<title>Contracts</title>
<g id="a_node19"><a xlink:href="../contracts.html" xlink:title="Contracts" target="_top">
<polygon fill="none" stroke="#ffffff" points="584.5,-129 522.5,-129 522.5,-110 584.5,-110 584.5,-129"/>
<text text-anchor="middle" x="553.5" y="-115.8" font-family="Sans-Serif" font-size="14.00" fill="#000000">Contracts</text>
</a>
</g>
</g>
<!-- Views&#45;&gt;Contracts -->
<g id="edge53" class="edge">
<title>Views&#45;&gt;Contracts</title>
<path fill="none" stroke="#000000" d="M542.7644,-164.9197C544.4401,-157.8304 546.7809,-147.9269 548.8492,-139.1763"/>
<polygon fill="#000000" stroke="#000000" points="552.2798,-139.8778 551.174,-129.3408 545.4675,-138.2676 552.2798,-139.8778"/>
</g>
<!-- Copies&#45;&gt;Concat -->
<g id="edge12" class="edge">
<title>Copies&#45;&gt;Concat</title>
<path fill="none" stroke="#000000" d="M606.6805,-164.9197C609.842,-157.6746 614.2861,-147.4903 618.165,-138.601"/>
<polygon fill="#000000" stroke="#000000" points="621.4142,-139.9061 622.2058,-129.3408 614.9984,-137.1064 621.4142,-139.9061"/>
</g>
<!-- Copies&#45;&gt;Adapters -->
<g id="edge46" class="edge">
<title>Copies&#45;&gt;Adapters</title>
<path fill="none" stroke="#000000" d="M621.7231,-164.9411C641.6587,-153.5712 668.7263,-133.1882 659.5,-110 641.8115,-65.5441 591.6642,-37.7253 555.7524,-22.914"/>
<polygon fill="#000000" stroke="#000000" points="556.6264,-19.4962 546.0398,-19.0784 554.0552,-26.0069 556.6264,-19.4962"/>
</g>
<!-- Chains&#45;&gt;ExampleData -->
<g id="edge18" class="edge">
<title>Chains&#45;&gt;ExampleData</title>
<path fill="none" stroke="#000000" d="M456.7439,-111.3846C430.4607,-102.4058 387.7575,-87.8178 356.9598,-77.2968"/>
<polygon fill="#000000" stroke="#000000" points="358.0093,-73.9568 347.4148,-74.0361 355.7464,-80.581 358.0093,-73.9568"/>
</g>
<!-- Chains&#45;&gt;CompleteDaf -->
<g id="edge28" class="edge">
<title>Chains&#45;&gt;CompleteDaf</title>
<path fill="none" stroke="#000000" d="M467.4458,-109.9022C447.676,-95.8142 408.5135,-69.628 371.5,-55 321.5413,-35.2559 261.177,-23.1665 218.9372,-16.4612"/>
<polygon fill="#000000" stroke="#000000" points="219.2909,-12.9745 208.8745,-14.9111 218.2251,-19.8929 219.2909,-12.9745"/>
</g>
<!-- Chains&#45;&gt;Adapters -->
<g id="edge48" class="edge">
<title>Chains&#45;&gt;Adapters</title>
<path fill="none" stroke="#000000" d="M483.3698,-109.8478C487.1569,-97.2049 494.0944,-74.3678 500.5,-55 503.352,-46.3768 506.6596,-36.8925 509.5247,-28.825"/>
<polygon fill="#000000" stroke="#000000" points="512.8854,-29.8216 512.9608,-19.2271 506.295,-27.4622 512.8854,-29.8216"/>
</g>
<!-- FilesFormat&#45;&gt;ExampleData -->
<g id="edge16" class="edge">
<title>FilesFormat&#45;&gt;ExampleData</title>
<path fill="none" stroke="#000000" d="M208.2996,-164.9649C216.7059,-151.6409 233.2771,-127.1614 251.5,-110 264.0188,-98.2104 279.9045,-87.396 293.173,-79.271"/>
<polygon fill="#000000" stroke="#000000" points="295.0639,-82.2187 301.8672,-74.0968 291.4839,-76.2034 295.0639,-82.2187"/>
</g>
<!-- HttpFormat -->
<g id="node24" class="node">
<title>HttpFormat</title>
<g id="a_node24"><a xlink:href="../http_format.html" xlink:title="HttpFormat" target="_top">
<polygon fill="none" stroke="#ffffff" points="166,-74 93,-74 93,-55 166,-55 166,-74"/>
<text text-anchor="middle" x="129.5" y="-60.8" font-family="Sans-Serif" font-size="14.00" fill="#000000">HttpFormat</text>
</a>
</g>
</g>
<!-- FilesFormat&#45;&gt;HttpFormat -->
<g id="edge44" class="edge">
<title>FilesFormat&#45;&gt;HttpFormat</title>
<path fill="none" stroke="#000000" d="M196.0217,-164.7382C183.7613,-146.2636 157.0007,-105.9395 141.4153,-82.4546"/>
<polygon fill="#000000" stroke="#000000" points="144.3053,-80.4796 135.8595,-74.0828 138.4728,-84.3503 144.3053,-80.4796"/>
</g>
<!-- ZipFormat -->
<g id="node28" class="node">
<title>ZipFormat</title>
<g id="a_node28"><a xlink:href="../zip_files.html" xlink:title="ZipFormat" target="_top">
<polygon fill="none" stroke="#ffffff" points="100,-129 33,-129 33,-110 100,-110 100,-129"/>
<text text-anchor="middle" x="66.5" y="-115.8" font-family="Sans-Serif" font-size="14.00" fill="#000000">ZipFormat</text>
</a>
</g>
</g>
<!-- FilesFormat&#45;&gt;ZipFormat -->
<g id="edge35" class="edge">
<title>FilesFormat&#45;&gt;ZipFormat</title>
<path fill="none" stroke="#000000" d="M178.8106,-164.9197C156.9083,-156.0622 124.143,-142.8115 99.6473,-132.9052"/>
<polygon fill="#000000" stroke="#000000" points="100.9571,-129.6595 90.3742,-129.155 98.3326,-136.1489 100.9571,-129.6595"/>
</g>
<!-- Computations -->
<g id="node18" class="node">
<title>Computations</title>
<g id="a_node18"><a xlink:href="../computations.html" xlink:title="Computations" target="_top">
<polygon fill="none" stroke="#ffffff" points="598,-74 509,-74 509,-55 598,-55 598,-74"/>
<text text-anchor="middle" x="553.5" y="-60.8" font-family="Sans-Serif" font-size="14.00" fill="#000000">Computations</text>
</a>
</g>
</g>
<!-- Computations&#45;&gt;Adapters -->
<g id="edge45" class="edge">
<title>Computations&#45;&gt;Adapters</title>
<path fill="none" stroke="#000000" d="M547.0551,-54.9197C542.0239,-47.4409 534.8857,-36.8301 528.7739,-27.745"/>
<polygon fill="#000000" stroke="#000000" points="531.606,-25.6844 523.1202,-19.3408 525.798,-29.5917 531.606,-25.6844"/>
</g>
<!-- Contracts&#45;&gt;Computations -->
<g id="edge22" class="edge">
<title>Contracts&#45;&gt;Computations</title>
<path fill="none" stroke="#000000" d="M553.5,-109.9197C553.5,-102.9083 553.5,-93.1442 553.5,-84.4652"/>
<polygon fill="#000000" stroke="#000000" points="557.0001,-84.3408 553.5,-74.3408 550.0001,-84.3409 557.0001,-84.3408"/>
</g>
<!-- Queries&#45;&gt;Views -->
<g id="edge24" class="edge">
<title>Queries&#45;&gt;Views</title>
<path fill="none" stroke="#000000" d="M545.4549,-219.9197C544.69,-212.9083 543.6248,-203.1442 542.678,-194.4652"/>
<polygon fill="#000000" stroke="#000000" points="546.1375,-193.9023 541.5735,-184.3408 539.1787,-194.6614 546.1375,-193.9023"/>
</g>
<!-- Queries&#45;&gt;Reconstruction -->
<g id="edge33" class="edge">
<title>Queries&#45;&gt;Reconstruction</title>
<path fill="none" stroke="#000000" d="M571.7571,-219.9197C595.2121,-211.023 630.3517,-197.6942 656.5053,-187.7739"/>
<polygon fill="#000000" stroke="#000000" points="657.9372,-190.9741 666.0458,-184.155 655.4546,-184.4291 657.9372,-190.9741"/>
</g>
<!-- Keys -->
<g id="node21" class="node">
<title>Keys</title>
<g id="a_node21"><a xlink:href="../keys.html" xlink:title="Keys" target="_top">
<polygon fill="none" stroke="#ffffff" points="368.5,-404 334.5,-404 334.5,-385 368.5,-385 368.5,-404"/>
<text text-anchor="middle" x="351.5" y="-390.8" font-family="Sans-Serif" font-size="14.00" fill="#000000">Keys</text>
</a>
</g>
</g>
<!-- Keys&#45;&gt;Formats -->
<g id="edge52" class="edge">
<title>Keys&#45;&gt;Formats</title>
<path fill="none" stroke="#000000" d="M351.5,-384.9197C351.5,-377.9083 351.5,-368.1442 351.5,-359.4652"/>
<polygon fill="#000000" stroke="#000000" points="355.0001,-359.3408 351.5,-349.3408 348.0001,-359.3409 355.0001,-359.3408"/>
</g>
<!-- ZarrFormat -->
<g id="node23" class="node">
<title>ZarrFormat</title>
<g id="a_node23"><a xlink:href="../zarr_format.html" xlink:title="ZarrFormat" target="_top">
<polygon fill="none" stroke="#ffffff" points="75,-74 2,-74 2,-55 75,-55 75,-74"/>
<text text-anchor="middle" x="38.5" y="-60.8" font-family="Sans-Serif" font-size="14.00" fill="#000000">ZarrFormat</text>
</a>
</g>
</g>
<!-- ZarrFormat&#45;&gt;CompleteDaf -->
<g id="edge25" class="edge">
<title>ZarrFormat&#45;&gt;CompleteDaf</title>
<path fill="none" stroke="#000000" d="M60.7959,-54.9197C81.2274,-46.1406 111.7027,-33.0457 134.6887,-23.1689"/>
<polygon fill="#000000" stroke="#000000" points="136.2242,-26.3186 144.0301,-19.155 133.4606,-19.8872 136.2242,-26.3186"/>
</g>
<!-- ZarrConvert -->
<g id="node25" class="node">
<title>ZarrConvert</title>
<g id="a_node25"><a xlink:href="../zarr_convert.html" xlink:title="ZarrConvert" target="_top">
<polygon fill="none" stroke="#ffffff" points="77,-19 0,-19 0,0 77,0 77,-19"/>
<text text-anchor="middle" x="38.5" y="-5.8" font-family="Sans-Serif" font-size="14.00" fill="#000000">ZarrConvert</text>
</a>
</g>
</g>
<!-- ZarrFormat&#45;&gt;ZarrConvert -->
<g id="edge31" class="edge">
<title>ZarrFormat&#45;&gt;ZarrConvert</title>
<path fill="none" stroke="#000000" d="M38.5,-54.9197C38.5,-47.9083 38.5,-38.1442 38.5,-29.4652"/>
<polygon fill="#000000" stroke="#000000" points="42.0001,-29.3408 38.5,-19.3408 35.0001,-29.3409 42.0001,-29.3408"/>
</g>
<!-- HttpFormat&#45;&gt;CompleteDaf -->
<g id="edge27" class="edge">
<title>HttpFormat&#45;&gt;CompleteDaf</title>
<path fill="none" stroke="#000000" d="M135.9449,-54.9197C140.9761,-47.4409 148.1143,-36.8301 154.2261,-27.745"/>
<polygon fill="#000000" stroke="#000000" points="157.202,-29.5917 159.8798,-19.3408 151.394,-25.6844 157.202,-29.5917"/>
</g>
<!-- ZipFormat&#45;&gt;ZarrFormat -->
<g id="edge49" class="edge">
<title>ZipFormat&#45;&gt;ZarrFormat</title>
<path fill="none" stroke="#000000" d="M61.6228,-109.9197C57.8947,-102.5967 52.6379,-92.2709 48.0784,-83.3147"/>
<polygon fill="#000000" stroke="#000000" points="51.1658,-81.6646 43.5099,-74.3408 44.9277,-84.8404 51.1658,-81.6646"/>
</g>
<!-- Tokens -->
<g id="node29" class="node">
<title>Tokens</title>
<g id="a_node29"><a xlink:href="../tokens.html" xlink:title="Tokens" target="_top">
<polygon fill="none" stroke="#ffffff" points="470,-404 423,-404 423,-385 470,-385 470,-404"/>
<text text-anchor="middle" x="446.5" y="-390.8" font-family="Sans-Serif" font-size="14.00" fill="#000000">Tokens</text>
</a>
</g>
</g>
<!-- Tokens&#45;&gt;Operations -->
<g id="edge37" class="edge">
<title>Tokens&#45;&gt;Operations</title>
<path fill="none" stroke="#000000" d="M464.7896,-384.9197C481.1757,-376.3365 505.4372,-363.6281 524.1331,-353.8351"/>
<polygon fill="#000000" stroke="#000000" points="525.8334,-356.8956 533.0677,-349.155 522.5853,-350.6947 525.8334,-356.8956"/>
</g>
<!-- Tokens&#45;&gt;Formats -->
<g id="edge50" class="edge">
<title>Tokens&#45;&gt;Formats</title>
<path fill="none" stroke="#000000" d="M429.9523,-384.9197C415.3298,-376.4541 393.7759,-363.9755 376.9585,-354.2391"/>
<polygon fill="#000000" stroke="#000000" points="378.5848,-351.1364 368.1769,-349.155 375.0775,-357.1944 378.5848,-351.1364"/>
</g>
<!-- Registry -->
<g id="node30" class="node">
<title>Registry</title>
<g id="a_node30"><a xlink:href="../registry.html" xlink:title="Registry" target="_top">
<polygon fill="none" stroke="#ffffff" points="560.5,-404 506.5,-404 506.5,-385 560.5,-385 560.5,-404"/>
<text text-anchor="middle" x="533.5" y="-390.8" font-family="Sans-Serif" font-size="14.00" fill="#000000">Registry</text>
</a>
</g>
</g>
<!-- Registry&#45;&gt;Operations -->
<g id="edge38" class="edge">
<title>Registry&#45;&gt;Operations</title>
<path fill="none" stroke="#000000" d="M536.6354,-384.9197C538.981,-377.7525 542.268,-367.7089 545.1548,-358.8882"/>
<polygon fill="#000000" stroke="#000000" points="548.4953,-359.9335 548.2794,-349.3408 541.8425,-357.7561 548.4953,-359.9335"/>
</g>
<!-- Registry&#45;&gt;Formats -->
<g id="edge51" class="edge">
<title>Registry&#45;&gt;Formats</title>
<path fill="none" stroke="#000000" d="M506.2528,-386.2659C475.1149,-376.8562 423.9639,-361.3984 389.0592,-350.8503"/>
<polygon fill="#000000" stroke="#000000" points="389.8173,-347.4231 379.2324,-347.8807 387.7923,-354.1239 389.8173,-347.4231"/>
</g>
<!-- StorageTypes -->
<g id="node31" class="node">
<title>StorageTypes</title>
<g id="a_node31"><a xlink:href="../storage_types.html" xlink:title="StorageTypes" target="_top">
<polygon fill="none" stroke="#ffffff" points="577,-459 490,-459 490,-440 577,-440 577,-459"/>
<text text-anchor="middle" x="533.5" y="-445.8" font-family="Sans-Serif" font-size="14.00" fill="#000000">StorageTypes</text>
</a>
</g>
</g>
<!-- StorageTypes&#45;&gt;Registry -->
<g id="edge36" class="edge">
<title>StorageTypes&#45;&gt;Registry</title>
<path fill="none" stroke="#000000" d="M533.5,-439.9197C533.5,-432.9083 533.5,-423.1442 533.5,-414.4652"/>
<polygon fill="#000000" stroke="#000000" points="537.0001,-414.3408 533.5,-404.3408 530.0001,-414.3409 537.0001,-414.3408"/>
</g>
</g>
</svg>
