<?xml version="1.0" encoding="UTF-8" standalone="no"?>
<!DOCTYPE svg PUBLIC "-//W3C//DTD SVG 1.1//EN"
 "http://www.w3.org/Graphics/SVG/1.1/DTD/svg11.dtd">
<!-- Generated by graphviz version 2.40.1 (0)
 -->
<!-- Title: %3 Pages: 1 -->
<svg width="774pt" height="467pt"
 viewBox="0.00 0.00 774.00 467.00" xmlns="http://www.w3.org/2000/svg" xmlns:xlink="http://www.w3.org/1999/xlink">
<g id="graph0" class="graph" transform="scale(1 1) rotate(0) translate(4 463)">
<title>%3</title>
<polygon fill="#ffffff" stroke="transparent" points="-4,4 -4,-463 770,-463 770,4 -4,4"/>
<!-- H5dfFormat -->
<g id="node1" class="node">
<title>H5dfFormat</title>
<g id="a_node1"><a xlink:href="../h5df_format.html" xlink:title="H5dfFormat" target="_top">
<polygon fill="none" stroke="#ffffff" points="241,-184 164,-184 164,-165 241,-165 241,-184"/>
<text text-anchor="middle" x="202.5" y="-170.8" font-family="Sans-Serif" font-size="14.00" fill="#000000">H5dfFormat</text>
</a>
</g>
</g>
<!-- CompleteDaf -->
<g id="node22" class="node">
<title>CompleteDaf</title>
<g id="a_node22"><a xlink:href="../complete.html" xlink:title="CompleteDaf" target="_top">
<polygon fill="none" stroke="#ffffff" points="202.5,-19 118.5,-19 118.5,0 202.5,0 202.5,-19"/>
<text text-anchor="middle" x="160.5" y="-5.8" font-family="Sans-Serif" font-size="14.00" fill="#000000">CompleteDaf</text>
</a>
</g>
</g>
<!-- H5dfFormat&#45;&gt;CompleteDaf -->
<g id="edge28" class="edge">
<title>H5dfFormat&#45;&gt;CompleteDaf</title>
<path fill="none" stroke="#000000" d="M169.8035,-164.8452C152.4714,-157.8756 132.7029,-146.5406 122.5,-129 103.1849,-95.7939 128.5514,-51.5886 146.1796,-27.324"/>
<polygon fill="#000000" stroke="#000000" points="149.19,-29.1468 152.4476,-19.0652 143.614,-24.9149 149.19,-29.1468"/>
</g>
<!-- Writers -->
<g id="node2" class="node">
<title>Writers</title>
<g id="a_node2"><a xlink:href="../writers.html" xlink:title="Writers" target="_top">
<polygon fill="none" stroke="#ffffff" points="516,-239 469,-239 469,-220 516,-220 516,-239"/>
<text text-anchor="middle" x="492.5" y="-225.8" font-family="Sans-Serif" font-size="14.00" fill="#000000">Writers</text>
</a>
</g>
</g>
<!-- Writers&#45;&gt;H5dfFormat -->
<g id="edge1" class="edge">
<title>Writers&#45;&gt;H5dfFormat</title>
<path fill="none" stroke="#000000" d="M468.7886,-222.3345C465.6779,-221.4945 462.522,-220.6918 459.5,-220 370.2577,-199.571 344.2945,-201.2416 251.0602,-184.2387"/>
<polygon fill="#000000" stroke="#000000" points="251.6804,-180.7941 241.211,-182.4192 250.4087,-187.6777 251.6804,-180.7941"/>
</g>
<!-- MemoryFormat -->
<g id="node11" class="node">
<title>MemoryFormat</title>
<g id="a_node11"><a xlink:href="../memory_format.html" xlink:title="MemoryFormat" target="_top">
<polygon fill="none" stroke="#ffffff" points="472.5,-184 374.5,-184 374.5,-165 472.5,-165 472.5,-184"/>
<text text-anchor="middle" x="423.5" y="-170.8" font-family="Sans-Serif" font-size="14.00" fill="#000000">MemoryFormat</text>
</a>
</g>
</g>
<!-- Writers&#45;&gt;MemoryFormat -->
<g id="edge9" class="edge">
<title>Writers&#45;&gt;MemoryFormat</title>
<path fill="none" stroke="#000000" d="M480.4811,-219.9197C470.4144,-211.8956 455.8247,-200.2661 443.9287,-190.7837"/>
<polygon fill="#000000" stroke="#000000" points="445.8471,-187.8371 435.8458,-184.3408 441.4839,-193.3109 445.8471,-187.8371"/>
</g>
<!-- Copies -->
<g id="node14" class="node">
<title>Copies</title>
<g id="a_node14"><a xlink:href="../copies.html" xlink:title="Copies" target="_top">
<polygon fill="none" stroke="#ffffff" points="653,-184 606,-184 606,-165 653,-165 653,-184"/>
<text text-anchor="middle" x="629.5" y="-170.8" font-family="Sans-Serif" font-size="14.00" fill="#000000">Copies</text>
</a>
</g>
</g>
<!-- Writers&#45;&gt;Copies -->
<g id="edge54" class="edge">
<title>Writers&#45;&gt;Copies</title>
<path fill="none" stroke="#000000" d="M516.0511,-220.0452C538.204,-211.1517 571.5861,-197.7501 596.4106,-187.7841"/>
<polygon fill="#000000" stroke="#000000" points="597.8216,-190.9892 605.7977,-184.0155 595.2136,-184.4931 597.8216,-190.9892"/>
</g>
<!-- Chains -->
<g id="node15" class="node">
<title>Chains</title>
<g id="a_node15"><a xlink:href="../chains.html" xlink:title="Chains" target="_top">
<polygon fill="none" stroke="#ffffff" points="537,-129 490,-129 490,-110 537,-110 537,-129"/>
<text text-anchor="middle" x="513.5" y="-115.8" font-family="Sans-Serif" font-size="14.00" fill="#000000">Chains</text>
</a>
</g>
</g>
<!-- Writers&#45;&gt;Chains -->
<g id="edge15" class="edge">
<title>Writers&#45;&gt;Chains</title>
<path fill="none" stroke="#000000" d="M494.3636,-219.7382C497.8125,-201.6724 505.2502,-162.713 509.7701,-139.0376"/>
<polygon fill="#000000" stroke="#000000" points="513.2332,-139.5618 511.6706,-129.0828 506.3573,-138.2491 513.2332,-139.5618"/>
</g>
<!-- FilesFormat -->
<g id="node17" class="node">
<title>FilesFormat</title>
<g id="a_node17"><a xlink:href="../files_format.html" xlink:title="FilesFormat" target="_top">
<polygon fill="none" stroke="#ffffff" points="336,-184 259,-184 259,-165 336,-165 336,-184"/>
<text text-anchor="middle" x="297.5" y="-170.8" font-family="Sans-Serif" font-size="14.00" fill="#000000">FilesFormat</text>
</a>
</g>
</g>
<!-- Writers&#45;&gt;FilesFormat -->
<g id="edge40" class="edge">
<title>Writers&#45;&gt;FilesFormat</title>
<path fill="none" stroke="#000000" d="M468.7122,-222.6321C465.614,-221.7434 462.4819,-220.848 459.5,-220 419.5201,-208.631 373.9392,-195.8446 341.333,-186.7282"/>
<polygon fill="#000000" stroke="#000000" points="342.224,-183.3431 331.6509,-184.0224 340.3399,-190.0848 342.224,-183.3431"/>
</g>
<!-- Reconstruction -->
<g id="node26" class="node">
<title>Reconstruction</title>
<g id="a_node26"><a xlink:href="../reconstruction.html" xlink:title="Reconstruction" target="_top">
<polygon fill="none" stroke="#ffffff" points="766,-184 671,-184 671,-165 766,-165 766,-184"/>
<text text-anchor="middle" x="718.5" y="-170.8" font-family="Sans-Serif" font-size="14.00" fill="#000000">Reconstruction</text>
</a>
</g>
</g>
<!-- Writers&#45;&gt;Reconstruction -->
<g id="edge32" class="edge">
<title>Writers&#45;&gt;Reconstruction</title>
<path fill="none" stroke="#000000" d="M516.2588,-223.718C552.4436,-214.9119 622.1477,-197.9486 669.4932,-186.4264"/>
<polygon fill="#000000" stroke="#000000" points="670.3479,-189.8207 679.2367,-184.0552 668.6926,-183.0192 670.3479,-189.8207"/>
</g>
<!-- LazySparse -->
<g id="node3" class="node">
<title>LazySparse</title>
<g id="a_node3"><a xlink:href="../lazy_sparse.html" xlink:title="LazySparse" target="_top">
<polygon fill="none" stroke="#ffffff" points="228.5,-239 152.5,-239 152.5,-220 228.5,-220 228.5,-239"/>
<text text-anchor="middle" x="190.5" y="-225.8" font-family="Sans-Serif" font-size="14.00" fill="#000000">LazySparse</text>
</a>
</g>
</g>
<!-- LazySparse&#45;&gt;H5dfFormat -->
<g id="edge2" class="edge">
<title>LazySparse&#45;&gt;H5dfFormat</title>
<path fill="none" stroke="#000000" d="M192.5902,-219.9197C194.137,-212.8304 196.2978,-202.9269 198.207,-194.1763"/>
<polygon fill="#000000" stroke="#000000" points="201.6407,-194.8571 200.3529,-184.3408 194.8016,-193.3649 201.6407,-194.8571"/>
</g>
<!-- LazySparse&#45;&gt;FilesFormat -->
<g id="edge41" class="edge">
<title>LazySparse&#45;&gt;FilesFormat</title>
<path fill="none" stroke="#000000" d="M209.138,-219.9197C225.8362,-211.3365 250.5598,-198.6281 269.6118,-188.8351"/>
<polygon fill="#000000" stroke="#000000" points="271.4228,-191.8395 278.7166,-184.155 268.2227,-185.6138 271.4228,-191.8395"/>
</g>
<!-- Reorder -->
<g id="node4" class="node">
<title>Reorder</title>
<g id="a_node4"><a xlink:href="../reorder.html" xlink:title="Reorder" target="_top">
<polygon fill="none" stroke="#ffffff" points="368,-239 315,-239 315,-220 368,-220 368,-239"/>
<text text-anchor="middle" x="341.5" y="-225.8" font-family="Sans-Serif" font-size="14.00" fill="#000000">Reorder</text>
</a>
</g>
</g>
<!-- Reorder&#45;&gt;H5dfFormat -->
<g id="edge3" class="edge">
<title>Reorder&#45;&gt;H5dfFormat</title>
<path fill="none" stroke="#000000" d="M317.288,-219.9197C294.9026,-211.0622 261.4146,-197.8115 236.3785,-187.9052"/>
<polygon fill="#000000" stroke="#000000" points="237.4872,-184.5799 226.9009,-184.155 234.9117,-191.0889 237.4872,-184.5799"/>
</g>
<!-- Reorder&#45;&gt;MemoryFormat -->
<g id="edge10" class="edge">
<title>Reorder&#45;&gt;MemoryFormat</title>
<path fill="none" stroke="#000000" d="M355.7833,-219.9197C368.1711,-211.6109 386.3222,-199.4363 400.7147,-189.7828"/>
<polygon fill="#000000" stroke="#000000" points="402.75,-192.6321 409.1052,-184.155 398.8507,-186.8187 402.75,-192.6321"/>
</g>
<!-- Reorder&#45;&gt;FilesFormat -->
<g id="edge42" class="edge">
<title>Reorder&#45;&gt;FilesFormat</title>
<path fill="none" stroke="#000000" d="M333.8358,-219.9197C327.7281,-212.2851 319.0093,-201.3867 311.6433,-192.1792"/>
<polygon fill="#000000" stroke="#000000" points="314.3527,-189.9631 305.3727,-184.3408 308.8866,-194.336 314.3527,-189.9631"/>
</g>
<!-- ReadOnly -->
<g id="node5" class="node">
<title>ReadOnly</title>
<g id="a_node5"><a xlink:href="../read_only.html" xlink:title="ReadOnly" target="_top">
<polygon fill="none" stroke="#ffffff" points="451,-239 386,-239 386,-220 451,-220 451,-239"/>
<text text-anchor="middle" x="418.5" y="-225.8" font-family="Sans-Serif" font-size="14.00" fill="#000000">ReadOnly</text>
</a>
</g>
</g>
<!-- ReadOnly&#45;&gt;H5dfFormat -->
<g id="edge4" class="edge">
<title>ReadOnly&#45;&gt;H5dfFormat</title>
<path fill="none" stroke="#000000" d="M385.6942,-221.1467C349.4968,-211.9297 290.927,-197.0161 249.7786,-186.5385"/>
<polygon fill="#000000" stroke="#000000" points="250.5323,-183.1188 239.9778,-184.043 248.805,-189.9024 250.5323,-183.1188"/>
</g>
<!-- Views -->
<g id="node13" class="node">
<title>Views</title>
<g id="a_node13"><a xlink:href="../views.html" xlink:title="Views" target="_top">
<polygon fill="none" stroke="#ffffff" points="588,-184 547,-184 547,-165 588,-165 588,-184"/>
<text text-anchor="middle" x="567.5" y="-170.8" font-family="Sans-Serif" font-size="14.00" fill="#000000">Views</text>
</a>
</g>
</g>
<!-- ReadOnly&#45;&gt;Views -->
<g id="edge24" class="edge">
<title>ReadOnly&#45;&gt;Views</title>
<path fill="none" stroke="#000000" d="M444.4538,-219.9197C470.2958,-210.3808 509.9406,-195.7467 537.2077,-185.6817"/>
<polygon fill="#000000" stroke="#000000" points="538.4757,-188.9446 546.6449,-182.1982 536.0516,-182.3777 538.4757,-188.9446"/>
</g>
<!-- ReadOnly&#45;&gt;FilesFormat -->
<g id="edge43" class="edge">
<title>ReadOnly&#45;&gt;FilesFormat</title>
<path fill="none" stroke="#000000" d="M397.4234,-219.9197C378.1955,-211.1798 349.5576,-198.1625 327.8631,-188.3014"/>
<polygon fill="#000000" stroke="#000000" points="329.2931,-185.1068 318.7411,-184.155 326.3964,-191.4794 329.2931,-185.1068"/>
</g>
<!-- PackedFormat -->
<g id="node6" class="node">
<title>PackedFormat</title>
<g id="a_node6"><a xlink:href="../packed_format.html" xlink:title="PackedFormat" target="_top">
<polygon fill="none" stroke="#ffffff" points="538.5,-294 446.5,-294 446.5,-275 538.5,-275 538.5,-294"/>
<text text-anchor="middle" x="492.5" y="-280.8" font-family="Sans-Serif" font-size="14.00" fill="#000000">PackedFormat</text>
</a>
</g>
</g>
<!-- PackedFormat&#45;&gt;Writers -->
<g id="edge20" class="edge">
<title>PackedFormat&#45;&gt;Writers</title>
<path fill="none" stroke="#000000" d="M492.5,-274.9197C492.5,-267.9083 492.5,-258.1442 492.5,-249.4652"/>
<polygon fill="#000000" stroke="#000000" points="496.0001,-249.3408 492.5,-239.3408 489.0001,-249.3409 496.0001,-249.3408"/>
</g>
<!-- Formats -->
<g id="node7" class="node">
<title>Formats</title>
<g id="a_node7"><a xlink:href="../formats.html" xlink:title="Formats" target="_top">
<polygon fill="none" stroke="#ffffff" points="424,-349 369,-349 369,-330 424,-330 424,-349"/>
<text text-anchor="middle" x="396.5" y="-335.8" font-family="Sans-Serif" font-size="14.00" fill="#000000">Formats</text>
</a>
</g>
</g>
<!-- Formats&#45;&gt;PackedFormat -->
<g id="edge5" class="edge">
<title>Formats&#45;&gt;PackedFormat</title>
<path fill="none" stroke="#000000" d="M413.2219,-329.9197C427.9983,-321.4541 449.779,-308.9755 466.7735,-299.2391"/>
<polygon fill="#000000" stroke="#000000" points="468.7106,-302.1631 475.6476,-294.155 465.2308,-296.0893 468.7106,-302.1631"/>
</g>
<!-- Readers -->
<g id="node10" class="node">
<title>Readers</title>
<g id="a_node10"><a xlink:href="../readers.html" xlink:title="Readers" target="_top">
<polygon fill="none" stroke="#ffffff" points="426.5,-294 370.5,-294 370.5,-275 426.5,-275 426.5,-294"/>
<text text-anchor="middle" x="398.5" y="-280.8" font-family="Sans-Serif" font-size="14.00" fill="#000000">Readers</text>
</a>
</g>
</g>
<!-- Formats&#45;&gt;Readers -->
<g id="edge13" class="edge">
<title>Formats&#45;&gt;Readers</title>
<path fill="none" stroke="#000000" d="M396.8484,-329.9197C397.1033,-322.9083 397.4584,-313.1442 397.774,-304.4652"/>
<polygon fill="#000000" stroke="#000000" points="401.2763,-304.4614 398.1422,-294.3408 394.281,-304.207 401.2763,-304.4614"/>
</g>
<!-- MmapZipStores -->
<g id="node8" class="node">
<title>MmapZipStores</title>
<g id="a_node8"><a xlink:href="../mmap_zip_store.html" xlink:title="MmapZipStores" target="_top">
<polygon fill="none" stroke="#ffffff" points="543,-349 442,-349 442,-330 543,-330 543,-349"/>
<text text-anchor="middle" x="492.5" y="-335.8" font-family="Sans-Serif" font-size="14.00" fill="#000000">MmapZipStores</text>
</a>
</g>
</g>
<!-- MmapZipStores&#45;&gt;PackedFormat -->
<g id="edge6" class="edge">
<title>MmapZipStores&#45;&gt;PackedFormat</title>
<path fill="none" stroke="#000000" d="M492.5,-329.9197C492.5,-322.9083 492.5,-313.1442 492.5,-304.4652"/>
<polygon fill="#000000" stroke="#000000" points="496.0001,-304.3408 492.5,-294.3408 489.0001,-304.3409 496.0001,-304.3408"/>
</g>
<!-- Operations -->
<g id="node9" class="node">
<title>Operations</title>
<g id="a_node9"><a xlink:href="../operations.html" xlink:title="Operations" target="_top">
<polygon fill="none" stroke="#ffffff" points="632,-349 561,-349 561,-330 632,-330 632,-349"/>
<text text-anchor="middle" x="596.5" y="-335.8" font-family="Sans-Serif" font-size="14.00" fill="#000000">Operations</text>
</a>
</g>
</g>
<!-- Operations&#45;&gt;PackedFormat -->
<g id="edge7" class="edge">
<title>Operations&#45;&gt;PackedFormat</title>
<path fill="none" stroke="#000000" d="M578.3846,-329.9197C562.1545,-321.3365 538.1241,-308.6281 519.6063,-298.8351"/>
<polygon fill="#000000" stroke="#000000" points="521.233,-295.7361 510.7568,-294.155 517.9605,-301.924 521.233,-295.7361"/>
</g>
<!-- Queries -->
<g id="node20" class="node">
<title>Queries</title>
<g id="a_node20"><a xlink:href="../queries.html" xlink:title="Queries" target="_top">
<polygon fill="none" stroke="#ffffff" points="601,-239 548,-239 548,-220 601,-220 601,-239"/>
<text text-anchor="middle" x="574.5" y="-225.8" font-family="Sans-Serif" font-size="14.00" fill="#000000">Queries</text>
</a>
</g>
</g>
<!-- Operations&#45;&gt;Queries -->
<g id="edge30" class="edge">
<title>Operations&#45;&gt;Queries</title>
<path fill="none" stroke="#000000" d="M594.5476,-329.7382C590.9345,-311.6724 583.1426,-272.713 578.4075,-249.0376"/>
<polygon fill="#000000" stroke="#000000" points="581.8098,-248.2022 576.4166,-239.0828 574.9458,-249.5751 581.8098,-248.2022"/>
</g>
<!-- Readers&#45;&gt;Writers -->
<g id="edge21" class="edge">
<title>Readers&#45;&gt;Writers</title>
<path fill="none" stroke="#000000" d="M414.8736,-274.9197C429.3421,-266.4541 450.6691,-253.9755 467.3095,-244.2391"/>
<polygon fill="#000000" stroke="#000000" points="469.1351,-247.2261 475.9987,-239.155 465.6,-241.1843 469.1351,-247.2261"/>
</g>
<!-- Readers&#45;&gt;Reorder -->
<g id="edge19" class="edge">
<title>Readers&#45;&gt;Reorder</title>
<path fill="none" stroke="#000000" d="M388.5714,-274.9197C380.4169,-267.0514 368.6697,-255.7164 358.9508,-246.3385"/>
<polygon fill="#000000" stroke="#000000" points="361.3252,-243.7659 351.6987,-239.3408 356.4646,-248.8032 361.3252,-243.7659"/>
</g>
<!-- Readers&#45;&gt;ReadOnly -->
<g id="edge8" class="edge">
<title>Readers&#45;&gt;ReadOnly</title>
<path fill="none" stroke="#000000" d="M401.9837,-274.9197C404.59,-267.7525 408.2422,-257.7089 411.4497,-248.8882"/>
<polygon fill="#000000" stroke="#000000" points="414.7933,-249.9349 414.9215,-239.3408 408.2147,-247.5426 414.7933,-249.9349"/>
</g>
<!-- Readers&#45;&gt;Queries -->
<g id="edge29" class="edge">
<title>Readers&#45;&gt;Queries</title>
<path fill="none" stroke="#000000" d="M426.7774,-275.6633C456.9822,-266.2243 504.9605,-251.2311 537.9979,-240.9069"/>
<polygon fill="#000000" stroke="#000000" points="539.2342,-244.1876 547.735,-237.8641 537.1462,-237.5062 539.2342,-244.1876"/>
</g>
<!-- Groups -->
<g id="node27" class="node">
<title>Groups</title>
<g id="a_node27"><a xlink:href="../groups.html" xlink:title="Groups" target="_top">
<polygon fill="none" stroke="#ffffff" points="296.5,-239 246.5,-239 246.5,-220 296.5,-220 296.5,-239"/>
<text text-anchor="middle" x="271.5" y="-225.8" font-family="Sans-Serif" font-size="14.00" fill="#000000">Groups</text>
</a>
</g>
</g>
<!-- Readers&#45;&gt;Groups -->
<g id="edge34" class="edge">
<title>Readers&#45;&gt;Groups</title>
<path fill="none" stroke="#000000" d="M376.3783,-274.9197C356.1064,-266.1406 325.8692,-253.0457 303.0628,-243.1689"/>
<polygon fill="#000000" stroke="#000000" points="304.3617,-239.9174 293.7943,-239.155 301.5798,-246.3409 304.3617,-239.9174"/>
</g>
<!-- ExampleData -->
<g id="node16" class="node">
<title>ExampleData</title>
<g id="a_node16"><a xlink:href="../example_data.html" xlink:title="ExampleData" target="_top">
<polygon fill="none" stroke="#ffffff" points="395.5,-74 309.5,-74 309.5,-55 395.5,-55 395.5,-74"/>
<text text-anchor="middle" x="352.5" y="-60.8" font-family="Sans-Serif" font-size="14.00" fill="#000000">ExampleData</text>
</a>
</g>
</g>
<!-- MemoryFormat&#45;&gt;ExampleData -->
<g id="edge17" class="edge">
<title>MemoryFormat&#45;&gt;ExampleData</title>
<path fill="none" stroke="#000000" d="M422.1311,-164.6248C419.9287,-151.3332 414.6609,-127.3551 403.5,-110 396.079,-98.4605 384.9577,-88.063 374.9925,-80.1299"/>
<polygon fill="#000000" stroke="#000000" points="377.0847,-77.3239 367.0003,-74.0748 372.8575,-82.9034 377.0847,-77.3239"/>
</g>
<!-- AnnDataFormat -->
<g id="node32" class="node">
<title>AnnDataFormat</title>
<g id="a_node32"><a xlink:href="../anndata_format.html" xlink:title="AnnDataFormat" target="_top">
<polygon fill="none" stroke="#ffffff" points="395,-129 294,-129 294,-110 395,-110 395,-129"/>
<text text-anchor="middle" x="344.5" y="-115.8" font-family="Sans-Serif" font-size="14.00" fill="#000000">AnnDataFormat</text>
</a>
</g>
</g>
<!-- MemoryFormat&#45;&gt;AnnDataFormat -->
<g id="edge39" class="edge">
<title>MemoryFormat&#45;&gt;AnnDataFormat</title>
<path fill="none" stroke="#000000" d="M409.7393,-164.9197C397.9173,-156.6893 380.6471,-144.6657 366.8451,-135.0567"/>
<polygon fill="#000000" stroke="#000000" points="368.5749,-131.9963 358.3681,-129.155 364.5753,-137.7412 368.5749,-131.9963"/>
</g>
<!-- Adapters -->
<g id="node33" class="node">
<title>Adapters</title>
<g id="a_node33"><a xlink:href="../adapters.html" xlink:title="Adapters" target="_top">
<polygon fill="none" stroke="#ffffff" points="579,-19 520,-19 520,0 579,0 579,-19"/>
<text text-anchor="middle" x="549.5" y="-5.8" font-family="Sans-Serif" font-size="14.00" fill="#000000">Adapters</text>
</a>
</g>
</g>
<!-- MemoryFormat&#45;&gt;Adapters -->
<g id="edge46" class="edge">
<title>MemoryFormat&#45;&gt;Adapters</title>
<path fill="none" stroke="#000000" d="M431.0045,-164.6726C451.6251,-137.6695 509.3722,-62.0483 535.8827,-27.3322"/>
<polygon fill="#000000" stroke="#000000" points="538.9051,-29.1411 542.1926,-19.0692 533.3418,-24.8927 538.9051,-29.1411"/>
</g>
<!-- Concat -->
<g id="node12" class="node">
<title>Concat</title>
<g id="a_node12"><a xlink:href="../concat.html" xlink:title="Concat" target="_top">
<polygon fill="none" stroke="#ffffff" points="683,-129 636,-129 636,-110 683,-110 683,-129"/>
<text text-anchor="middle" x="659.5" y="-115.8" font-family="Sans-Serif" font-size="14.00" fill="#000000">Concat</text>
</a>
</g>
</g>
<!-- Views&#45;&gt;Concat -->
<g id="edge11" class="edge">
<title>Views&#45;&gt;Concat</title>
<path fill="none" stroke="#000000" d="M583.5252,-164.9197C597.5547,-156.5325 618.1731,-144.2063 634.3919,-134.5103"/>
<polygon fill="#000000" stroke="#000000" points="636.5626,-137.2904 643.3498,-129.155 632.9707,-131.2822 636.5626,-137.2904"/>
</g>
<!-- Views&#45;&gt;Chains -->
<g id="edge14" class="edge">
<title>Views&#45;&gt;Chains</title>
<path fill="none" stroke="#000000" d="M558.0939,-164.9197C550.4451,-157.1293 539.4597,-145.9405 530.3064,-136.6176"/>
<polygon fill="#000000" stroke="#000000" points="532.6653,-134.0244 523.1619,-129.3408 527.6704,-138.9286 532.6653,-134.0244"/>
</g>
<!-- Contracts -->
<g id="node19" class="node">
<title>Contracts</title>
<g id="a_node19"><a xlink:href="../contracts.html" xlink:title="Contracts" target="_top">
<polygon fill="none" stroke="#ffffff" points="617.5,-129 555.5,-129 555.5,-110 617.5,-110 617.5,-129"/>
<text text-anchor="middle" x="586.5" y="-115.8" font-family="Sans-Serif" font-size="14.00" fill="#000000">Contracts</text>
</a>
</g>
</g>
<!-- Views&#45;&gt;Contracts -->
<g id="edge53" class="edge">
<title>Views&#45;&gt;Contracts</title>
<path fill="none" stroke="#000000" d="M570.8095,-164.9197C573.2855,-157.7525 576.7551,-147.7089 579.8023,-138.8882"/>
<polygon fill="#000000" stroke="#000000" points="583.1433,-139.9356 583.1004,-129.3408 576.527,-137.6499 583.1433,-139.9356"/>
</g>
<!-- Copies&#45;&gt;Concat -->
<g id="edge12" class="edge">
<title>Copies&#45;&gt;Concat</title>
<path fill="none" stroke="#000000" d="M634.7256,-164.9197C638.72,-157.5967 644.3522,-147.2709 649.2374,-138.3147"/>
<polygon fill="#000000" stroke="#000000" points="652.4163,-139.7958 654.1323,-129.3408 646.2711,-136.4438 652.4163,-139.7958"/>
</g>
<!-- Copies&#45;&gt;Adapters -->
<g id="edge47" class="edge">
<title>Copies&#45;&gt;Adapters</title>
<path fill="none" stroke="#000000" d="M651.3418,-164.9409C673.1169,-153.8556 702.0485,-133.9979 692.5,-110 674.8115,-65.5441 624.6642,-37.7253 588.7524,-22.914"/>
<polygon fill="#000000" stroke="#000000" points="589.6264,-19.4962 579.0398,-19.0784 587.0552,-26.0069 589.6264,-19.4962"/>
</g>
<!-- Chains&#45;&gt;ExampleData -->
<g id="edge18" class="edge">
<title>Chains&#45;&gt;ExampleData</title>
<path fill="none" stroke="#000000" d="M489.7439,-111.3846C463.4607,-102.4058 420.7575,-87.8178 389.9598,-77.2968"/>
<polygon fill="#000000" stroke="#000000" points="391.0093,-73.9568 380.4148,-74.0361 388.7464,-80.581 391.0093,-73.9568"/>
</g>
<!-- Chains&#45;&gt;CompleteDaf -->
<g id="edge25" class="edge">
<title>Chains&#45;&gt;CompleteDaf</title>
<path fill="none" stroke="#000000" d="M500.8331,-109.9752C481.2504,-95.7364 441.9631,-69.0731 404.5,-55 340.9097,-31.1122 263.1136,-19.3907 212.7194,-13.9099"/>
<polygon fill="#000000" stroke="#000000" points="213.0172,-10.4221 202.7077,-12.8641 212.2899,-17.3842 213.0172,-10.4221"/>
</g>
<!-- Chains&#45;&gt;Adapters -->
<g id="edge45" class="edge">
<title>Chains&#45;&gt;Adapters</title>
<path fill="none" stroke="#000000" d="M516.1207,-109.8171C519.6043,-97.141 526.0716,-74.2681 532.5,-55 535.3948,-46.3234 538.8885,-36.8309 541.9538,-28.7717"/>
<polygon fill="#000000" stroke="#000000" points="545.3157,-29.7815 545.6504,-19.1919 538.785,-27.2614 545.3157,-29.7815"/>
</g>
<!-- FilesFormat&#45;&gt;ExampleData -->
<g id="edge16" class="edge">
<title>FilesFormat&#45;&gt;ExampleData</title>
<path fill="none" stroke="#000000" d="M291.71,-164.7357C284.7248,-151.5699 275.0285,-127.7338 284.5,-110 291.8402,-96.2567 305.374,-85.9374 318.4464,-78.6311"/>
<polygon fill="#000000" stroke="#000000" points="320.0541,-81.7401 327.341,-74.0491 316.8484,-75.5172 320.0541,-81.7401"/>
</g>
<!-- HttpFormat -->
<g id="node24" class="node">
<title>HttpFormat</title>
<g id="a_node24"><a xlink:href="../http_format.html" xlink:title="HttpFormat" target="_top">
<polygon fill="none" stroke="#ffffff" points="242,-74 169,-74 169,-55 242,-55 242,-74"/>
<text text-anchor="middle" x="205.5" y="-60.8" font-family="Sans-Serif" font-size="14.00" fill="#000000">HttpFormat</text>
</a>
</g>
</g>
<!-- FilesFormat&#45;&gt;HttpFormat -->
<g id="edge44" class="edge">
<title>FilesFormat&#45;&gt;HttpFormat</title>
<path fill="none" stroke="#000000" d="M289.3356,-164.7382C273.7474,-146.1002 239.5601,-105.224 219.9984,-81.835"/>
<polygon fill="#000000" stroke="#000000" points="222.6151,-79.5082 213.5147,-74.0828 217.2455,-83.9991 222.6151,-79.5082"/>
</g>
<!-- ZipFormat -->
<g id="node28" class="node">
<title>ZipFormat</title>
<g id="a_node28"><a xlink:href="../zip_files.html" xlink:title="ZipFormat" target="_top">
<polygon fill="none" stroke="#ffffff" points="199,-129 132,-129 132,-110 199,-110 199,-129"/>
<text text-anchor="middle" x="165.5" y="-115.8" font-family="Sans-Serif" font-size="14.00" fill="#000000">ZipFormat</text>
</a>
</g>
</g>
<!-- FilesFormat&#45;&gt;ZipFormat -->
<g id="edge35" class="edge">
<title>FilesFormat&#45;&gt;ZipFormat</title>
<path fill="none" stroke="#000000" d="M274.5074,-164.9197C253.3433,-156.1014 221.7289,-142.9287 197.9884,-133.0369"/>
<polygon fill="#000000" stroke="#000000" points="199.249,-129.7705 188.6721,-129.155 196.5567,-136.232 199.249,-129.7705"/>
</g>
<!-- Computations -->
<g id="node18" class="node">
<title>Computations</title>
<g id="a_node18"><a xlink:href="../computations.html" xlink:title="Computations" target="_top">
<polygon fill="none" stroke="#ffffff" points="631,-74 542,-74 542,-55 631,-55 631,-74"/>
<text text-anchor="middle" x="586.5" y="-60.8" font-family="Sans-Serif" font-size="14.00" fill="#000000">Computations</text>
</a>
</g>
</g>
<!-- Computations&#45;&gt;Adapters -->
<g id="edge48" class="edge">
<title>Computations&#45;&gt;Adapters</title>
<path fill="none" stroke="#000000" d="M580.0551,-54.9197C575.0239,-47.4409 567.8857,-36.8301 561.7739,-27.745"/>
<polygon fill="#000000" stroke="#000000" points="564.606,-25.6844 556.1202,-19.3408 558.798,-29.5917 564.606,-25.6844"/>
</g>
<!-- Contracts&#45;&gt;Computations -->
<g id="edge22" class="edge">
<title>Contracts&#45;&gt;Computations</title>
<path fill="none" stroke="#000000" d="M586.5,-109.9197C586.5,-102.9083 586.5,-93.1442 586.5,-84.4652"/>
<polygon fill="#000000" stroke="#000000" points="590.0001,-84.3408 586.5,-74.3408 583.0001,-84.3409 590.0001,-84.3408"/>
</g>
<!-- Queries&#45;&gt;Views -->
<g id="edge23" class="edge">
<title>Queries&#45;&gt;Views</title>
<path fill="none" stroke="#000000" d="M573.2807,-219.9197C572.3883,-212.9083 571.1456,-203.1442 570.041,-194.4652"/>
<polygon fill="#000000" stroke="#000000" points="573.4871,-193.8189 568.7525,-184.3408 566.5431,-194.7027 573.4871,-193.8189"/>
</g>
<!-- Queries&#45;&gt;Reconstruction -->
<g id="edge33" class="edge">
<title>Queries&#45;&gt;Reconstruction</title>
<path fill="none" stroke="#000000" d="M599.5829,-219.9197C622.8762,-211.023 657.7734,-197.6942 683.7466,-187.7739"/>
<polygon fill="#000000" stroke="#000000" points="685.1284,-190.9928 693.2214,-184.155 682.6308,-184.4535 685.1284,-190.9928"/>
</g>
<!-- Keys -->
<g id="node21" class="node">
<title>Keys</title>
<g id="a_node21"><a xlink:href="../keys.html" xlink:title="Keys" target="_top">
<polygon fill="none" stroke="#ffffff" points="413.5,-404 379.5,-404 379.5,-385 413.5,-385 413.5,-404"/>
<text text-anchor="middle" x="396.5" y="-390.8" font-family="Sans-Serif" font-size="14.00" fill="#000000">Keys</text>
</a>
</g>
</g>
<!-- Keys&#45;&gt;Formats -->
<g id="edge51" class="edge">
<title>Keys&#45;&gt;Formats</title>
<path fill="none" stroke="#000000" d="M396.5,-384.9197C396.5,-377.9083 396.5,-368.1442 396.5,-359.4652"/>
<polygon fill="#000000" stroke="#000000" points="400.0001,-359.3408 396.5,-349.3408 393.0001,-359.3409 400.0001,-359.3408"/>
</g>
<!-- ZarrFormat -->
<g id="node23" class="node">
<title>ZarrFormat</title>
<g id="a_node23"><a xlink:href="../zarr_format.html" xlink:title="ZarrFormat" target="_top">
<polygon fill="none" stroke="#ffffff" points="75,-74 2,-74 2,-55 75,-55 75,-74"/>
<text text-anchor="middle" x="38.5" y="-60.8" font-family="Sans-Serif" font-size="14.00" fill="#000000">ZarrFormat</text>
</a>
</g>
</g>
<!-- ZarrFormat&#45;&gt;CompleteDaf -->
<g id="edge26" class="edge">
<title>ZarrFormat&#45;&gt;CompleteDaf</title>
<path fill="none" stroke="#000000" d="M59.7508,-54.9197C79.1376,-46.1798 108.0122,-33.1625 129.886,-23.3014"/>
<polygon fill="#000000" stroke="#000000" points="131.4054,-26.4557 139.0834,-19.155 128.5285,-20.0742 131.4054,-26.4557"/>
</g>
<!-- ZarrConvert -->
<g id="node25" class="node">
<title>ZarrConvert</title>
<g id="a_node25"><a xlink:href="../zarr_convert.html" xlink:title="ZarrConvert" target="_top">
<polygon fill="none" stroke="#ffffff" points="77,-19 0,-19 0,0 77,0 77,-19"/>
<text text-anchor="middle" x="38.5" y="-5.8" font-family="Sans-Serif" font-size="14.00" fill="#000000">ZarrConvert</text>
</a>
</g>
</g>
<!-- ZarrFormat&#45;&gt;ZarrConvert -->
<g id="edge31" class="edge">
<title>ZarrFormat&#45;&gt;ZarrConvert</title>
<path fill="none" stroke="#000000" d="M38.5,-54.9197C38.5,-47.9083 38.5,-38.1442 38.5,-29.4652"/>
<polygon fill="#000000" stroke="#000000" points="42.0001,-29.3408 38.5,-19.3408 35.0001,-29.3409 42.0001,-29.3408"/>
</g>
<!-- HttpFormat&#45;&gt;CompleteDaf -->
<g id="edge27" class="edge">
<title>HttpFormat&#45;&gt;CompleteDaf</title>
<path fill="none" stroke="#000000" d="M197.6616,-54.9197C191.4151,-47.2851 182.4982,-36.3867 174.9648,-27.1792"/>
<polygon fill="#000000" stroke="#000000" points="177.5929,-24.8641 168.5516,-19.3408 172.1751,-29.2968 177.5929,-24.8641"/>
</g>
<!-- ZipFormat&#45;&gt;ZarrFormat -->
<g id="edge49" class="edge">
<title>ZipFormat&#45;&gt;ZarrFormat</title>
<path fill="none" stroke="#000000" d="M143.3783,-109.9197C123.1064,-101.1406 92.8692,-88.0457 70.0628,-78.1689"/>
<polygon fill="#000000" stroke="#000000" points="71.3617,-74.9174 60.7943,-74.155 68.5798,-81.3409 71.3617,-74.9174"/>
</g>
<!-- Tokens -->
<g id="node29" class="node">
<title>Tokens</title>
<g id="a_node29"><a xlink:href="../tokens.html" xlink:title="Tokens" target="_top">
<polygon fill="none" stroke="#ffffff" points="515,-404 468,-404 468,-385 515,-385 515,-404"/>
<text text-anchor="middle" x="491.5" y="-390.8" font-family="Sans-Serif" font-size="14.00" fill="#000000">Tokens</text>
</a>
</g>
</g>
<!-- Tokens&#45;&gt;Formats -->
<g id="edge50" class="edge">
<title>Tokens&#45;&gt;Formats</title>
<path fill="none" stroke="#000000" d="M474.9523,-384.9197C460.3298,-376.4541 438.7759,-363.9755 421.9585,-354.2391"/>
<polygon fill="#000000" stroke="#000000" points="423.5848,-351.1364 413.1769,-349.155 420.0775,-357.1944 423.5848,-351.1364"/>
</g>
<!-- Tokens&#45;&gt;Operations -->
<g id="edge37" class="edge">
<title>Tokens&#45;&gt;Operations</title>
<path fill="none" stroke="#000000" d="M509.7896,-384.9197C526.1757,-376.3365 550.4372,-363.6281 569.1331,-353.8351"/>
<polygon fill="#000000" stroke="#000000" points="570.8334,-356.8956 578.0677,-349.155 567.5853,-350.6947 570.8334,-356.8956"/>
</g>
<!-- Registry -->
<g id="node30" class="node">
<title>Registry</title>
<g id="a_node30"><a xlink:href="../registry.html" xlink:title="Registry" target="_top">
<polygon fill="none" stroke="#ffffff" points="605.5,-404 551.5,-404 551.5,-385 605.5,-385 605.5,-404"/>
<text text-anchor="middle" x="578.5" y="-390.8" font-family="Sans-Serif" font-size="14.00" fill="#000000">Registry</text>
</a>
</g>
</g>
<!-- Registry&#45;&gt;Formats -->
<g id="edge52" class="edge">
<title>Registry&#45;&gt;Formats</title>
<path fill="none" stroke="#000000" d="M551.2528,-386.2659C520.1149,-376.8562 468.9639,-361.3984 434.0592,-350.8503"/>
<polygon fill="#000000" stroke="#000000" points="434.8173,-347.4231 424.2324,-347.8807 432.7923,-354.1239 434.8173,-347.4231"/>
</g>
<!-- Registry&#45;&gt;Operations -->
<g id="edge38" class="edge">
<title>Registry&#45;&gt;Operations</title>
<path fill="none" stroke="#000000" d="M581.6354,-384.9197C583.981,-377.7525 587.268,-367.7089 590.1548,-358.8882"/>
<polygon fill="#000000" stroke="#000000" points="593.4953,-359.9335 593.2794,-349.3408 586.8425,-357.7561 593.4953,-359.9335"/>
</g>
<!-- StorageTypes -->
<g id="node31" class="node">
<title>StorageTypes</title>
<g id="a_node31"><a xlink:href="../storage_types.html" xlink:title="StorageTypes" target="_top">
<polygon fill="none" stroke="#ffffff" points="622,-459 535,-459 535,-440 622,-440 622,-459"/>
<text text-anchor="middle" x="578.5" y="-445.8" font-family="Sans-Serif" font-size="14.00" fill="#000000">StorageTypes</text>
</a>
</g>
</g>
<!-- StorageTypes&#45;&gt;Registry -->
<g id="edge36" class="edge">
<title>StorageTypes&#45;&gt;Registry</title>
<path fill="none" stroke="#000000" d="M578.5,-439.9197C578.5,-432.9083 578.5,-423.1442 578.5,-414.4652"/>
<polygon fill="#000000" stroke="#000000" points="582.0001,-414.3408 578.5,-404.3408 575.0001,-414.3409 582.0001,-414.3408"/>
</g>
</g>
</svg>
