<?xml version="1.0" encoding="UTF-8" standalone="no"?>
<!DOCTYPE svg PUBLIC "-//W3C//DTD SVG 1.1//EN"
 "http://www.w3.org/Graphics/SVG/1.1/DTD/svg11.dtd">
<!-- Generated by graphviz version 14.1.5 (20260411.2331)
 -->
<!-- Pages: 1 -->
<svg width="740pt" height="470pt"
 viewBox="0.00 0.00 740.00 470.00" xmlns="http://www.w3.org/2000/svg" xmlns:xlink="http://www.w3.org/1999/xlink">
<g id="graph0" class="graph" transform="scale(1 1) rotate(0) translate(4 465.88)">
<polygon fill="white" stroke="none" points="-4,4 -4,-465.88 736.32,-465.88 736.32,4 -4,4"/>
<!-- Copies -->
<g id="node1" class="node">
<title>Copies</title>
<g id="a_node1"><a xlink:href="../copies.html" xlink:title="Copies" target="_top">
<polygon fill="none" stroke="white" points="158.32,-185.28 112,-185.28 112,-165.96 158.32,-165.96 158.32,-185.28"/>
<text xml:space="preserve" text-anchor="middle" x="135.16" y="-169.82" font-family="Sans-Serif" font-size="14.00">Copies</text>
</a>
</g>
</g>
<!-- Adapters -->
<g id="node7" class="node">
<title>Adapters</title>
<g id="a_node7"><a xlink:href="../adapters.html" xlink:title="Adapters" target="_top">
<polygon fill="none" stroke="white" points="249.32,-19.32 191,-19.32 191,0 249.32,0 249.32,-19.32"/>
<text xml:space="preserve" text-anchor="middle" x="220.16" y="-3.86" font-family="Sans-Serif" font-size="14.00">Adapters</text>
</a>
</g>
</g>
<!-- Copies&#45;&gt;Adapters -->
<g id="edge8" class="edge">
<title>Copies&#45;&gt;Adapters</title>
<path fill="none" stroke="black" d="M115.97,-165.49C102.66,-158 85.97,-146.01 78.16,-129.96 74.4,-122.24 74.96,-118.61 78.16,-110.64 95.93,-66.4 145.94,-38.66 181.57,-23.92"/>
<polygon fill="black" stroke="black" points="182.69,-27.25 190.7,-20.32 180.12,-20.73 182.69,-27.25"/>
</g>
<!-- Concat -->
<g id="node32" class="node">
<title>Concat</title>
<g id="a_node32"><a xlink:href="../concat.html" xlink:title="Concat" target="_top">
<polygon fill="none" stroke="white" points="134.69,-129.96 87.62,-129.96 87.62,-110.64 134.69,-110.64 134.69,-129.96"/>
<text xml:space="preserve" text-anchor="middle" x="111.16" y="-114.5" font-family="Sans-Serif" font-size="14.00">Concat</text>
</a>
</g>
</g>
<!-- Copies&#45;&gt;Concat -->
<g id="edge49" class="edge">
<title>Copies&#45;&gt;Concat</title>
<path fill="none" stroke="black" d="M131.2,-165.82C128.12,-158.99 123.75,-149.27 119.87,-140.65"/>
<polygon fill="black" stroke="black" points="123.13,-139.36 115.83,-131.68 116.74,-142.23 123.13,-139.36"/>
</g>
<!-- Writers -->
<g id="node2" class="node">
<title>Writers</title>
<g id="a_node2"><a xlink:href="../writers.html" xlink:title="Writers" target="_top">
<polygon fill="none" stroke="white" points="279.69,-240.6 232.62,-240.6 232.62,-221.28 279.69,-221.28 279.69,-240.6"/>
<text xml:space="preserve" text-anchor="middle" x="256.16" y="-225.14" font-family="Sans-Serif" font-size="14.00">Writers</text>
</a>
</g>
</g>
<!-- Writers&#45;&gt;Copies -->
<g id="edge1" class="edge">
<title>Writers&#45;&gt;Copies</title>
<path fill="none" stroke="black" d="M235.63,-220.89C216.6,-212.51 188.01,-199.91 166.19,-190.29"/>
<polygon fill="black" stroke="black" points="167.73,-187.15 157.17,-186.32 164.91,-193.56 167.73,-187.15"/>
</g>
<!-- MemoryFormat -->
<g id="node9" class="node">
<title>MemoryFormat</title>
<g id="a_node9"><a xlink:href="../memory_format.html" xlink:title="MemoryFormat" target="_top">
<polygon fill="none" stroke="white" points="406.19,-185.28 308.12,-185.28 308.12,-165.96 406.19,-165.96 406.19,-185.28"/>
<text xml:space="preserve" text-anchor="middle" x="357.16" y="-169.82" font-family="Sans-Serif" font-size="14.00">MemoryFormat</text>
</a>
</g>
</g>
<!-- Writers&#45;&gt;MemoryFormat -->
<g id="edge30" class="edge">
<title>Writers&#45;&gt;MemoryFormat</title>
<path fill="none" stroke="black" d="M273.29,-220.89C288.82,-212.7 311.96,-200.48 330,-190.96"/>
<polygon fill="black" stroke="black" points="331.39,-194.18 338.6,-186.42 328.13,-187.99 331.39,-194.18"/>
</g>
<!-- Chains -->
<g id="node10" class="node">
<title>Chains</title>
<g id="a_node10"><a xlink:href="../chains.html" xlink:title="Chains" target="_top">
<polygon fill="none" stroke="white" points="279.32,-129.96 233,-129.96 233,-110.64 279.32,-110.64 279.32,-129.96"/>
<text xml:space="preserve" text-anchor="middle" x="256.16" y="-114.5" font-family="Sans-Serif" font-size="14.00">Chains</text>
</a>
</g>
</g>
<!-- Writers&#45;&gt;Chains -->
<g id="edge41" class="edge">
<title>Writers&#45;&gt;Chains</title>
<path fill="none" stroke="black" d="M256.16,-221.05C256.16,-203.78 256.16,-165.31 256.16,-141.52"/>
<polygon fill="black" stroke="black" points="259.66,-141.83 256.16,-131.83 252.66,-141.83 259.66,-141.83"/>
</g>
<!-- H5dfFormat -->
<g id="node20" class="node">
<title>H5dfFormat</title>
<g id="a_node20"><a xlink:href="../h5df_format.html" xlink:title="H5dfFormat" target="_top">
<polygon fill="none" stroke="white" points="500.32,-185.28 424,-185.28 424,-165.96 500.32,-165.96 500.32,-185.28"/>
<text xml:space="preserve" text-anchor="middle" x="462.16" y="-169.82" font-family="Sans-Serif" font-size="14.00">H5dfFormat</text>
</a>
</g>
</g>
<!-- Writers&#45;&gt;H5dfFormat -->
<g id="edge34" class="edge">
<title>Writers&#45;&gt;H5dfFormat</title>
<path fill="none" stroke="black" d="M279.92,-223.47C282.69,-222.73 285.49,-221.98 288.16,-221.28 331.16,-209.95 380.23,-197.38 415.27,-188.48"/>
<polygon fill="black" stroke="black" points="415.84,-191.95 424.67,-186.09 414.11,-185.16 415.84,-191.95"/>
</g>
<!-- FilesFormat -->
<g id="node26" class="node">
<title>FilesFormat</title>
<g id="a_node26"><a xlink:href="../files_format.html" xlink:title="FilesFormat" target="_top">
<polygon fill="none" stroke="white" points="594.32,-185.28 518,-185.28 518,-165.96 594.32,-165.96 594.32,-185.28"/>
<text xml:space="preserve" text-anchor="middle" x="556.16" y="-169.82" font-family="Sans-Serif" font-size="14.00">FilesFormat</text>
</a>
</g>
</g>
<!-- Writers&#45;&gt;FilesFormat -->
<g id="edge44" class="edge">
<title>Writers&#45;&gt;FilesFormat</title>
<path fill="none" stroke="black" d="M279.86,-223.24C282.65,-222.53 285.46,-221.86 288.16,-221.28 381.92,-201.01 409.16,-202.18 506.45,-185.7"/>
<polygon fill="black" stroke="black" points="506.94,-189.17 516.21,-184.03 505.76,-182.27 506.94,-189.17"/>
</g>
<!-- Reconstruction -->
<g id="node33" class="node">
<title>Reconstruction</title>
<g id="a_node33"><a xlink:href="../reconstruction.html" xlink:title="Reconstruction" target="_top">
<polygon fill="none" stroke="white" points="94.32,-185.28 0,-185.28 0,-165.96 94.32,-165.96 94.32,-185.28"/>
<text xml:space="preserve" text-anchor="middle" x="47.16" y="-169.82" font-family="Sans-Serif" font-size="14.00">Reconstruction</text>
</a>
</g>
</g>
<!-- Writers&#45;&gt;Reconstruction -->
<g id="edge52" class="edge">
<title>Writers&#45;&gt;Reconstruction</title>
<path fill="none" stroke="black" d="M232.19,-223.82C198.62,-215.26 136.94,-199.52 94.06,-188.59"/>
<polygon fill="black" stroke="black" points="95.08,-185.23 84.52,-186.15 93.35,-192.02 95.08,-185.23"/>
</g>
<!-- PackedFormat -->
<g id="node3" class="node">
<title>PackedFormat</title>
<g id="a_node3"><a xlink:href="../packed_format.html" xlink:title="PackedFormat" target="_top">
<polygon fill="none" stroke="white" points="302.57,-295.92 209.75,-295.92 209.75,-276.6 302.57,-276.6 302.57,-295.92"/>
<text xml:space="preserve" text-anchor="middle" x="256.16" y="-280.46" font-family="Sans-Serif" font-size="14.00">PackedFormat</text>
</a>
</g>
</g>
<!-- PackedFormat&#45;&gt;Writers -->
<g id="edge39" class="edge">
<title>PackedFormat&#45;&gt;Writers</title>
<path fill="none" stroke="black" d="M256.16,-276.46C256.16,-269.86 256.16,-260.56 256.16,-252.17"/>
<polygon fill="black" stroke="black" points="259.66,-252.45 256.16,-242.45 252.66,-252.45 259.66,-252.45"/>
</g>
<!-- Formats -->
<g id="node4" class="node">
<title>Formats</title>
<g id="a_node4"><a xlink:href="../formats.html" xlink:title="Formats" target="_top">
<polygon fill="none" stroke="white" points="379.44,-351.24 324.87,-351.24 324.87,-331.92 379.44,-331.92 379.44,-351.24"/>
<text xml:space="preserve" text-anchor="middle" x="352.16" y="-335.78" font-family="Sans-Serif" font-size="14.00">Formats</text>
</a>
</g>
</g>
<!-- Formats&#45;&gt;PackedFormat -->
<g id="edge2" class="edge">
<title>Formats&#45;&gt;PackedFormat</title>
<path fill="none" stroke="black" d="M335.87,-331.53C321.26,-323.42 299.53,-311.35 282.45,-301.86"/>
<polygon fill="black" stroke="black" points="284.29,-298.88 273.85,-297.08 280.89,-305 284.29,-298.88"/>
</g>
<!-- Readers -->
<g id="node16" class="node">
<title>Readers</title>
<g id="a_node16"><a xlink:href="../readers.html" xlink:title="Readers" target="_top">
<polygon fill="none" stroke="white" points="377.82,-295.92 322.5,-295.92 322.5,-276.6 377.82,-276.6 377.82,-295.92"/>
<text xml:space="preserve" text-anchor="middle" x="350.16" y="-280.46" font-family="Sans-Serif" font-size="14.00">Readers</text>
</a>
</g>
</g>
<!-- Formats&#45;&gt;Readers -->
<g id="edge54" class="edge">
<title>Formats&#45;&gt;Readers</title>
<path fill="none" stroke="black" d="M351.83,-331.78C351.58,-325.18 351.23,-315.88 350.92,-307.49"/>
<polygon fill="black" stroke="black" points="354.43,-307.63 350.55,-297.77 347.43,-307.89 354.43,-307.63"/>
</g>
<!-- Operations -->
<g id="node5" class="node">
<title>Operations</title>
<g id="a_node5"><a xlink:href="../operations.html" xlink:title="Operations" target="_top">
<polygon fill="none" stroke="white" points="187.69,-351.24 116.62,-351.24 116.62,-331.92 187.69,-331.92 187.69,-351.24"/>
<text xml:space="preserve" text-anchor="middle" x="152.16" y="-335.78" font-family="Sans-Serif" font-size="14.00">Operations</text>
</a>
</g>
</g>
<!-- Operations&#45;&gt;PackedFormat -->
<g id="edge3" class="edge">
<title>Operations&#45;&gt;PackedFormat</title>
<path fill="none" stroke="black" d="M169.8,-331.53C185.79,-323.34 209.62,-311.12 228.2,-301.6"/>
<polygon fill="black" stroke="black" points="229.78,-304.72 237.08,-297.04 226.59,-298.49 229.78,-304.72"/>
</g>
<!-- Queries -->
<g id="node12" class="node">
<title>Queries</title>
<g id="a_node12"><a xlink:href="../queries.html" xlink:title="Queries" target="_top">
<polygon fill="none" stroke="white" points="203.32,-240.6 151,-240.6 151,-221.28 203.32,-221.28 203.32,-240.6"/>
<text xml:space="preserve" text-anchor="middle" x="177.16" y="-225.14" font-family="Sans-Serif" font-size="14.00">Queries</text>
</a>
</g>
</g>
<!-- Operations&#45;&gt;Queries -->
<g id="edge14" class="edge">
<title>Operations&#45;&gt;Queries</title>
<path fill="none" stroke="black" d="M154.21,-331.69C158.18,-314.42 167.03,-275.95 172.51,-252.16"/>
<polygon fill="black" stroke="black" points="175.91,-252.96 174.75,-242.43 169.09,-251.39 175.91,-252.96"/>
</g>
<!-- MmapZipStores -->
<g id="node6" class="node">
<title>MmapZipStores</title>
<g id="a_node6"><a xlink:href="../mmap_zip_store.html" xlink:title="MmapZipStores" target="_top">
<polygon fill="none" stroke="white" points="306.69,-351.24 205.62,-351.24 205.62,-331.92 306.69,-331.92 306.69,-351.24"/>
<text xml:space="preserve" text-anchor="middle" x="256.16" y="-335.78" font-family="Sans-Serif" font-size="14.00">MmapZipStores</text>
</a>
</g>
</g>
<!-- MmapZipStores&#45;&gt;PackedFormat -->
<g id="edge4" class="edge">
<title>MmapZipStores&#45;&gt;PackedFormat</title>
<path fill="none" stroke="black" d="M256.16,-331.78C256.16,-325.18 256.16,-315.88 256.16,-307.49"/>
<polygon fill="black" stroke="black" points="259.66,-307.77 256.16,-297.77 252.66,-307.77 259.66,-307.77"/>
</g>
<!-- Computations -->
<g id="node8" class="node">
<title>Computations</title>
<g id="a_node8"><a xlink:href="../computations.html" xlink:title="Computations" target="_top">
<polygon fill="none" stroke="white" points="228.32,-74.64 140,-74.64 140,-55.32 228.32,-55.32 228.32,-74.64"/>
<text xml:space="preserve" text-anchor="middle" x="184.16" y="-59.18" font-family="Sans-Serif" font-size="14.00">Computations</text>
</a>
</g>
</g>
<!-- Computations&#45;&gt;Adapters -->
<g id="edge5" class="edge">
<title>Computations&#45;&gt;Adapters</title>
<path fill="none" stroke="black" d="M190.1,-55.18C194.87,-48.12 201.72,-37.97 207.68,-29.14"/>
<polygon fill="black" stroke="black" points="210.54,-31.16 213.24,-20.91 204.74,-27.24 210.54,-31.16"/>
</g>
<!-- MemoryFormat&#45;&gt;Adapters -->
<g id="edge6" class="edge">
<title>MemoryFormat&#45;&gt;Adapters</title>
<path fill="none" stroke="black" d="M349.79,-165.8C328.05,-139.78 263.85,-62.95 234.77,-28.14"/>
<polygon fill="black" stroke="black" points="237.63,-26.11 228.53,-20.68 232.26,-30.6 237.63,-26.11"/>
</g>
<!-- ExampleData -->
<g id="node25" class="node">
<title>ExampleData</title>
<g id="a_node25"><a xlink:href="../example_data.html" xlink:title="ExampleData" target="_top">
<polygon fill="none" stroke="white" points="506.19,-74.64 420.12,-74.64 420.12,-55.32 506.19,-55.32 506.19,-74.64"/>
<text xml:space="preserve" text-anchor="middle" x="463.16" y="-59.18" font-family="Sans-Serif" font-size="14.00">ExampleData</text>
</a>
</g>
</g>
<!-- MemoryFormat&#45;&gt;ExampleData -->
<g id="edge26" class="edge">
<title>MemoryFormat&#45;&gt;ExampleData</title>
<path fill="none" stroke="black" d="M388.55,-165.48C407.17,-158.54 429.85,-147.21 444.16,-129.96 454.47,-117.53 459.19,-99.68 461.34,-85.99"/>
<polygon fill="black" stroke="black" points="464.78,-86.71 462.51,-76.36 457.83,-85.87 464.78,-86.71"/>
</g>
<!-- AnnDataFormat -->
<g id="node31" class="node">
<title>AnnDataFormat</title>
<g id="a_node31"><a xlink:href="../anndata_format.html" xlink:title="AnnDataFormat" target="_top">
<polygon fill="none" stroke="white" points="435.32,-129.96 335,-129.96 335,-110.64 435.32,-110.64 435.32,-129.96"/>
<text xml:space="preserve" text-anchor="middle" x="385.16" y="-114.5" font-family="Sans-Serif" font-size="14.00">AnnDataFormat</text>
</a>
</g>
</g>
<!-- MemoryFormat&#45;&gt;AnnDataFormat -->
<g id="edge42" class="edge">
<title>MemoryFormat&#45;&gt;AnnDataFormat</title>
<path fill="none" stroke="black" d="M361.78,-165.82C365.41,-158.91 370.59,-149.05 375.15,-140.36"/>
<polygon fill="black" stroke="black" points="378.18,-142.12 379.73,-131.64 371.98,-138.86 378.18,-142.12"/>
</g>
<!-- Chains&#45;&gt;Adapters -->
<g id="edge7" class="edge">
<title>Chains&#45;&gt;Adapters</title>
<path fill="none" stroke="black" d="M253.78,-110.54C250.37,-98.16 243.77,-74.86 237.16,-55.32 234.34,-46.97 230.93,-37.86 227.91,-30.06"/>
<polygon fill="black" stroke="black" points="231.22,-28.92 224.3,-20.89 224.71,-31.48 231.22,-28.92"/>
</g>
<!-- CompleteDaf -->
<g id="node17" class="node">
<title>CompleteDaf</title>
<g id="a_node17"><a xlink:href="../complete.html" xlink:title="CompleteDaf" target="_top">
<polygon fill="none" stroke="white" points="609.07,-19.32 525.25,-19.32 525.25,0 609.07,0 609.07,-19.32"/>
<text xml:space="preserve" text-anchor="middle" x="567.16" y="-3.86" font-family="Sans-Serif" font-size="14.00">CompleteDaf</text>
</a>
</g>
</g>
<!-- Chains&#45;&gt;CompleteDaf -->
<g id="edge15" class="edge">
<title>Chains&#45;&gt;CompleteDaf</title>
<path fill="none" stroke="black" d="M275.95,-110.29C305.15,-97.18 361.67,-72.56 411.16,-55.32 447.18,-42.78 488.72,-31.01 519.88,-22.71"/>
<polygon fill="black" stroke="black" points="520.62,-26.13 529.4,-20.2 518.84,-19.36 520.62,-26.13"/>
</g>
<!-- Chains&#45;&gt;ExampleData -->
<g id="edge25" class="edge">
<title>Chains&#45;&gt;ExampleData</title>
<path fill="none" stroke="black" d="M279.5,-113.29C312.7,-104.74 374.24,-88.89 416.88,-77.9"/>
<polygon fill="black" stroke="black" points="417.55,-81.34 426.36,-75.46 415.8,-74.56 417.55,-81.34"/>
</g>
<!-- Views -->
<g id="node11" class="node">
<title>Views</title>
<g id="a_node11"><a xlink:href="../views.html" xlink:title="Views" target="_top">
<polygon fill="none" stroke="white" points="216.32,-185.28 176,-185.28 176,-165.96 216.32,-165.96 216.32,-185.28"/>
<text xml:space="preserve" text-anchor="middle" x="196.16" y="-169.82" font-family="Sans-Serif" font-size="14.00">Views</text>
</a>
</g>
</g>
<!-- Views&#45;&gt;Chains -->
<g id="edge40" class="edge">
<title>Views&#45;&gt;Chains</title>
<path fill="none" stroke="black" d="M206.34,-165.57C214.92,-157.95 227.43,-146.83 237.76,-137.65"/>
<polygon fill="black" stroke="black" points="239.85,-140.48 245,-131.22 235.2,-135.24 239.85,-140.48"/>
</g>
<!-- Contracts -->
<g id="node21" class="node">
<title>Contracts</title>
<g id="a_node21"><a xlink:href="../contracts.html" xlink:title="Contracts" target="_top">
<polygon fill="none" stroke="white" points="215.19,-129.96 153.12,-129.96 153.12,-110.64 215.19,-110.64 215.19,-129.96"/>
<text xml:space="preserve" text-anchor="middle" x="184.16" y="-114.5" font-family="Sans-Serif" font-size="14.00">Contracts</text>
</a>
</g>
</g>
<!-- Views&#45;&gt;Contracts -->
<g id="edge19" class="edge">
<title>Views&#45;&gt;Contracts</title>
<path fill="none" stroke="black" d="M194.18,-165.82C192.69,-159.22 190.6,-149.92 188.71,-141.53"/>
<polygon fill="black" stroke="black" points="192.13,-140.76 186.52,-131.77 185.3,-142.3 192.13,-140.76"/>
</g>
<!-- Views&#45;&gt;Concat -->
<g id="edge48" class="edge">
<title>Views&#45;&gt;Concat</title>
<path fill="none" stroke="black" d="M181.74,-165.57C169.04,-157.61 150.29,-145.84 135.3,-136.44"/>
<polygon fill="black" stroke="black" points="137.26,-133.54 126.93,-131.19 133.54,-139.47 137.26,-133.54"/>
</g>
<!-- Queries&#45;&gt;Views -->
<g id="edge9" class="edge">
<title>Queries&#45;&gt;Views</title>
<path fill="none" stroke="black" d="M180.3,-221.14C182.7,-214.38 186.12,-204.81 189.16,-196.26"/>
<polygon fill="black" stroke="black" points="192.39,-197.64 192.45,-187.04 185.79,-195.29 192.39,-197.64"/>
</g>
<!-- Queries&#45;&gt;Reconstruction -->
<g id="edge51" class="edge">
<title>Queries&#45;&gt;Reconstruction</title>
<path fill="none" stroke="black" d="M155.11,-220.89C134.47,-212.43 103.38,-199.68 79.86,-190.03"/>
<polygon fill="black" stroke="black" points="81.3,-186.84 70.72,-186.28 78.65,-193.32 81.3,-186.84"/>
</g>
<!-- ReadOnly -->
<g id="node13" class="node">
<title>ReadOnly</title>
<g id="a_node13"><a xlink:href="../read_only.html" xlink:title="ReadOnly" target="_top">
<polygon fill="none" stroke="white" points="429.69,-240.6 364.62,-240.6 364.62,-221.28 429.69,-221.28 429.69,-240.6"/>
<text xml:space="preserve" text-anchor="middle" x="397.16" y="-225.14" font-family="Sans-Serif" font-size="14.00">ReadOnly</text>
</a>
</g>
</g>
<!-- ReadOnly&#45;&gt;Views -->
<g id="edge10" class="edge">
<title>ReadOnly&#45;&gt;Views</title>
<path fill="none" stroke="black" d="M364.42,-221.25C326.51,-211.2 264.54,-194.76 227.32,-184.89"/>
<polygon fill="black" stroke="black" points="228.64,-181.62 218.08,-182.43 226.85,-188.38 228.64,-181.62"/>
</g>
<!-- ReadOnly&#45;&gt;H5dfFormat -->
<g id="edge36" class="edge">
<title>ReadOnly&#45;&gt;H5dfFormat</title>
<path fill="none" stroke="black" d="M408.19,-220.89C417.58,-213.19 431.31,-201.93 442.57,-192.69"/>
<polygon fill="black" stroke="black" points="444.61,-195.54 450.13,-186.49 440.17,-190.13 444.61,-195.54"/>
</g>
<!-- ReadOnly&#45;&gt;FilesFormat -->
<g id="edge46" class="edge">
<title>ReadOnly&#45;&gt;FilesFormat</title>
<path fill="none" stroke="black" d="M424.13,-220.89C450.06,-212.2 489.47,-198.98 518.49,-189.25"/>
<polygon fill="black" stroke="black" points="519.25,-192.69 527.62,-186.19 517.03,-186.05 519.25,-192.69"/>
</g>
<!-- Tokens -->
<g id="node14" class="node">
<title>Tokens</title>
<g id="a_node14"><a xlink:href="../tokens.html" xlink:title="Tokens" target="_top">
<polygon fill="none" stroke="white" points="193.69,-406.56 146.62,-406.56 146.62,-387.24 193.69,-387.24 193.69,-406.56"/>
<text xml:space="preserve" text-anchor="middle" x="170.16" y="-391.1" font-family="Sans-Serif" font-size="14.00">Tokens</text>
</a>
</g>
</g>
<!-- Tokens&#45;&gt;Formats -->
<g id="edge21" class="edge">
<title>Tokens&#45;&gt;Formats</title>
<path fill="none" stroke="black" d="M193.95,-388.93C224.43,-380 277.62,-364.42 313.84,-353.81"/>
<polygon fill="black" stroke="black" points="314.43,-357.28 323.04,-351.11 312.46,-350.56 314.43,-357.28"/>
</g>
<!-- Tokens&#45;&gt;Operations -->
<g id="edge11" class="edge">
<title>Tokens&#45;&gt;Operations</title>
<path fill="none" stroke="black" d="M167.19,-387.1C164.91,-380.34 161.67,-370.77 158.79,-362.22"/>
<polygon fill="black" stroke="black" points="162.2,-361.37 155.68,-353.01 155.56,-363.6 162.2,-361.37"/>
</g>
<!-- Registry -->
<g id="node15" class="node">
<title>Registry</title>
<g id="a_node15"><a xlink:href="../registry.html" xlink:title="Registry" target="_top">
<polygon fill="none" stroke="white" points="300.07,-406.56 246.25,-406.56 246.25,-387.24 300.07,-387.24 300.07,-406.56"/>
<text xml:space="preserve" text-anchor="middle" x="273.16" y="-391.1" font-family="Sans-Serif" font-size="14.00">Registry</text>
</a>
</g>
</g>
<!-- Registry&#45;&gt;Formats -->
<g id="edge23" class="edge">
<title>Registry&#45;&gt;Formats</title>
<path fill="none" stroke="black" d="M286.56,-386.85C298.25,-378.97 315.46,-367.35 329.32,-358"/>
<polygon fill="black" stroke="black" points="331.11,-361.01 337.44,-352.52 327.19,-355.21 331.11,-361.01"/>
</g>
<!-- Registry&#45;&gt;Operations -->
<g id="edge12" class="edge">
<title>Registry&#45;&gt;Operations</title>
<path fill="none" stroke="black" d="M252.63,-386.85C233.6,-378.47 205.01,-365.87 183.19,-356.25"/>
<polygon fill="black" stroke="black" points="184.73,-353.11 174.17,-352.28 181.91,-359.52 184.73,-353.11"/>
</g>
<!-- Readers&#45;&gt;Writers -->
<g id="edge38" class="edge">
<title>Readers&#45;&gt;Writers</title>
<path fill="none" stroke="black" d="M334.21,-276.21C319.9,-268.1 298.63,-256.03 281.91,-246.54"/>
<polygon fill="black" stroke="black" points="283.93,-243.67 273.5,-241.78 280.47,-249.75 283.93,-243.67"/>
</g>
<!-- Readers&#45;&gt;Queries -->
<g id="edge13" class="edge">
<title>Readers&#45;&gt;Queries</title>
<path fill="none" stroke="black" d="M322.36,-276.69C293.14,-267.69 247,-253.47 214.59,-243.48"/>
<polygon fill="black" stroke="black" points="215.78,-240.18 205.2,-240.58 213.72,-246.87 215.78,-240.18"/>
</g>
<!-- Readers&#45;&gt;ReadOnly -->
<g id="edge53" class="edge">
<title>Readers&#45;&gt;ReadOnly</title>
<path fill="none" stroke="black" d="M357.92,-276.46C364.35,-269.17 373.67,-258.58 381.62,-249.56"/>
<polygon fill="black" stroke="black" points="384.24,-251.89 388.23,-242.07 378.99,-247.26 384.24,-251.89"/>
</g>
<!-- Reorder -->
<g id="node22" class="node">
<title>Reorder</title>
<g id="a_node22"><a xlink:href="../reorder.html" xlink:title="Reorder" target="_top">
<polygon fill="none" stroke="white" points="500.69,-240.6 447.62,-240.6 447.62,-221.28 500.69,-221.28 500.69,-240.6"/>
<text xml:space="preserve" text-anchor="middle" x="474.16" y="-225.14" font-family="Sans-Serif" font-size="14.00">Reorder</text>
</a>
</g>
</g>
<!-- Readers&#45;&gt;Reorder -->
<g id="edge20" class="edge">
<title>Readers&#45;&gt;Reorder</title>
<path fill="none" stroke="black" d="M371.19,-276.21C390.79,-267.79 420.27,-255.11 442.67,-245.48"/>
<polygon fill="black" stroke="black" points="443.83,-248.79 451.63,-241.63 441.06,-242.36 443.83,-248.79"/>
</g>
<!-- Groups -->
<g id="node30" class="node">
<title>Groups</title>
<g id="a_node30"><a xlink:href="../groups.html" xlink:title="Groups" target="_top">
<polygon fill="none" stroke="white" points="346.82,-240.6 297.5,-240.6 297.5,-221.28 346.82,-221.28 346.82,-240.6"/>
<text xml:space="preserve" text-anchor="middle" x="322.16" y="-225.14" font-family="Sans-Serif" font-size="14.00">Groups</text>
</a>
</g>
</g>
<!-- Readers&#45;&gt;Groups -->
<g id="edge37" class="edge">
<title>Readers&#45;&gt;Groups</title>
<path fill="none" stroke="black" d="M345.54,-276.46C341.91,-269.55 336.73,-259.69 332.17,-251"/>
<polygon fill="black" stroke="black" points="335.34,-249.5 327.59,-242.28 329.14,-252.76 335.34,-249.5"/>
</g>
<!-- HttpFormat -->
<g id="node18" class="node">
<title>HttpFormat</title>
<g id="a_node18"><a xlink:href="../http_format.html" xlink:title="HttpFormat" target="_top">
<polygon fill="none" stroke="white" points="639.44,-74.64 566.88,-74.64 566.88,-55.32 639.44,-55.32 639.44,-74.64"/>
<text xml:space="preserve" text-anchor="middle" x="603.16" y="-59.18" font-family="Sans-Serif" font-size="14.00">HttpFormat</text>
</a>
</g>
</g>
<!-- HttpFormat&#45;&gt;CompleteDaf -->
<g id="edge16" class="edge">
<title>HttpFormat&#45;&gt;CompleteDaf</title>
<path fill="none" stroke="black" d="M597.22,-55.18C592.45,-48.12 585.6,-37.97 579.64,-29.14"/>
<polygon fill="black" stroke="black" points="582.58,-27.24 574.08,-20.91 576.78,-31.16 582.58,-27.24"/>
</g>
<!-- ZarrFormat -->
<g id="node19" class="node">
<title>ZarrFormat</title>
<g id="a_node19"><a xlink:href="../zarr_format.html" xlink:title="ZarrFormat" target="_top">
<polygon fill="none" stroke="white" points="730.44,-74.64 657.88,-74.64 657.88,-55.32 730.44,-55.32 730.44,-74.64"/>
<text xml:space="preserve" text-anchor="middle" x="694.16" y="-59.18" font-family="Sans-Serif" font-size="14.00">ZarrFormat</text>
</a>
</g>
</g>
<!-- ZarrFormat&#45;&gt;CompleteDaf -->
<g id="edge17" class="edge">
<title>ZarrFormat&#45;&gt;CompleteDaf</title>
<path fill="none" stroke="black" d="M672.62,-54.93C652.55,-46.51 622.36,-33.83 599.41,-24.2"/>
<polygon fill="black" stroke="black" points="600.78,-20.98 590.21,-20.34 598.07,-27.43 600.78,-20.98"/>
</g>
<!-- ZarrConvert -->
<g id="node24" class="node">
<title>ZarrConvert</title>
<g id="a_node24"><a xlink:href="../zarr_convert.html" xlink:title="ZarrConvert" target="_top">
<polygon fill="none" stroke="white" points="732.32,-19.32 656,-19.32 656,0 732.32,0 732.32,-19.32"/>
<text xml:space="preserve" text-anchor="middle" x="694.16" y="-3.86" font-family="Sans-Serif" font-size="14.00">ZarrConvert</text>
</a>
</g>
</g>
<!-- ZarrFormat&#45;&gt;ZarrConvert -->
<g id="edge24" class="edge">
<title>ZarrFormat&#45;&gt;ZarrConvert</title>
<path fill="none" stroke="black" d="M694.16,-55.18C694.16,-48.58 694.16,-39.28 694.16,-30.89"/>
<polygon fill="black" stroke="black" points="697.66,-31.17 694.16,-21.17 690.66,-31.17 697.66,-31.17"/>
</g>
<!-- H5dfFormat&#45;&gt;CompleteDaf -->
<g id="edge18" class="edge">
<title>H5dfFormat&#45;&gt;CompleteDaf</title>
<path fill="none" stroke="black" d="M467.81,-165.8C484.33,-140 532.84,-64.26 555.39,-29.04"/>
<polygon fill="black" stroke="black" points="558.23,-31.1 560.67,-20.79 552.33,-27.33 558.23,-31.1"/>
</g>
<!-- Contracts&#45;&gt;Computations -->
<g id="edge50" class="edge">
<title>Contracts&#45;&gt;Computations</title>
<path fill="none" stroke="black" d="M184.16,-110.5C184.16,-103.9 184.16,-94.6 184.16,-86.21"/>
<polygon fill="black" stroke="black" points="187.66,-86.49 184.16,-76.49 180.66,-86.49 187.66,-86.49"/>
</g>
<!-- Reorder&#45;&gt;MemoryFormat -->
<g id="edge29" class="edge">
<title>Reorder&#45;&gt;MemoryFormat</title>
<path fill="none" stroke="black" d="M454.31,-220.89C435.99,-212.55 408.51,-200.02 387.45,-190.42"/>
<polygon fill="black" stroke="black" points="389.03,-187.3 378.48,-186.34 386.13,-193.67 389.03,-187.3"/>
</g>
<!-- Reorder&#45;&gt;H5dfFormat -->
<g id="edge33" class="edge">
<title>Reorder&#45;&gt;H5dfFormat</title>
<path fill="none" stroke="black" d="M472.18,-221.14C470.69,-214.54 468.6,-205.24 466.71,-196.85"/>
<polygon fill="black" stroke="black" points="470.13,-196.08 464.52,-187.09 463.3,-197.62 470.13,-196.08"/>
</g>
<!-- Reorder&#45;&gt;FilesFormat -->
<g id="edge43" class="edge">
<title>Reorder&#45;&gt;FilesFormat</title>
<path fill="none" stroke="black" d="M488.07,-220.89C500.32,-212.93 518.41,-201.16 532.87,-191.76"/>
<polygon fill="black" stroke="black" points="534.44,-194.92 540.91,-186.53 530.62,-189.05 534.44,-194.92"/>
</g>
<!-- Keys -->
<g id="node23" class="node">
<title>Keys</title>
<g id="a_node23"><a xlink:href="../keys.html" xlink:title="Keys" target="_top">
<polygon fill="none" stroke="white" points="369.32,-406.56 335,-406.56 335,-387.24 369.32,-387.24 369.32,-406.56"/>
<text xml:space="preserve" text-anchor="middle" x="352.16" y="-391.1" font-family="Sans-Serif" font-size="14.00">Keys</text>
</a>
</g>
</g>
<!-- Keys&#45;&gt;Formats -->
<g id="edge22" class="edge">
<title>Keys&#45;&gt;Formats</title>
<path fill="none" stroke="black" d="M352.16,-387.1C352.16,-380.5 352.16,-371.2 352.16,-362.81"/>
<polygon fill="black" stroke="black" points="355.66,-363.09 352.16,-353.09 348.66,-363.09 355.66,-363.09"/>
</g>
<!-- FilesFormat&#45;&gt;HttpFormat -->
<g id="edge47" class="edge">
<title>FilesFormat&#45;&gt;HttpFormat</title>
<path fill="none" stroke="black" d="M560.01,-165.73C567.55,-148.3 584.43,-109.28 594.7,-85.54"/>
<polygon fill="black" stroke="black" points="597.9,-86.95 598.66,-76.38 591.48,-84.17 597.9,-86.95"/>
</g>
<!-- FilesFormat&#45;&gt;ExampleData -->
<g id="edge27" class="edge">
<title>FilesFormat&#45;&gt;ExampleData</title>
<path fill="none" stroke="black" d="M548.55,-165.73C533.22,-147.82 498.39,-107.13 478.26,-83.63"/>
<polygon fill="black" stroke="black" points="481.02,-81.46 471.86,-76.14 475.7,-86.02 481.02,-81.46"/>
</g>
<!-- ZipFormat -->
<g id="node27" class="node">
<title>ZipFormat</title>
<g id="a_node27"><a xlink:href="../zip_files.html" xlink:title="ZipFormat" target="_top">
<polygon fill="none" stroke="white" points="706.44,-129.96 639.88,-129.96 639.88,-110.64 706.44,-110.64 706.44,-129.96"/>
<text xml:space="preserve" text-anchor="middle" x="673.16" y="-114.5" font-family="Sans-Serif" font-size="14.00">ZipFormat</text>
</a>
</g>
</g>
<!-- FilesFormat&#45;&gt;ZipFormat -->
<g id="edge31" class="edge">
<title>FilesFormat&#45;&gt;ZipFormat</title>
<path fill="none" stroke="black" d="M576.01,-165.57C594.33,-157.23 621.81,-144.7 642.87,-135.1"/>
<polygon fill="black" stroke="black" points="644.19,-138.35 651.84,-131.02 641.29,-131.98 644.19,-138.35"/>
</g>
<!-- ZipFormat&#45;&gt;ZarrFormat -->
<g id="edge28" class="edge">
<title>ZipFormat&#45;&gt;ZarrFormat</title>
<path fill="none" stroke="black" d="M676.63,-110.5C679.29,-103.74 683.06,-94.17 686.42,-85.62"/>
<polygon fill="black" stroke="black" points="689.65,-86.97 690.06,-76.38 683.14,-84.41 689.65,-86.97"/>
</g>
<!-- StorageTypes -->
<g id="node28" class="node">
<title>StorageTypes</title>
<g id="a_node28"><a xlink:href="../storage_types.html" xlink:title="StorageTypes" target="_top">
<polygon fill="none" stroke="white" points="317.32,-461.88 229,-461.88 229,-442.56 317.32,-442.56 317.32,-461.88"/>
<text xml:space="preserve" text-anchor="middle" x="273.16" y="-446.42" font-family="Sans-Serif" font-size="14.00">StorageTypes</text>
</a>
</g>
</g>
<!-- StorageTypes&#45;&gt;Registry -->
<g id="edge32" class="edge">
<title>StorageTypes&#45;&gt;Registry</title>
<path fill="none" stroke="black" d="M273.16,-442.42C273.16,-435.82 273.16,-426.52 273.16,-418.13"/>
<polygon fill="black" stroke="black" points="276.66,-418.41 273.16,-408.41 269.66,-418.41 276.66,-418.41"/>
</g>
<!-- LazySparse -->
<g id="node29" class="node">
<title>LazySparse</title>
<g id="a_node29"><a xlink:href="../lazy_sparse.html" xlink:title="LazySparse" target="_top">
<polygon fill="none" stroke="white" points="593.94,-240.6 518.38,-240.6 518.38,-221.28 593.94,-221.28 593.94,-240.6"/>
<text xml:space="preserve" text-anchor="middle" x="556.16" y="-225.14" font-family="Sans-Serif" font-size="14.00">LazySparse</text>
</a>
</g>
</g>
<!-- LazySparse&#45;&gt;H5dfFormat -->
<g id="edge35" class="edge">
<title>LazySparse&#45;&gt;H5dfFormat</title>
<path fill="none" stroke="black" d="M540.21,-220.89C525.9,-212.78 504.63,-200.71 487.91,-191.22"/>
<polygon fill="black" stroke="black" points="489.93,-188.35 479.5,-186.46 486.47,-194.43 489.93,-188.35"/>
</g>
<!-- LazySparse&#45;&gt;FilesFormat -->
<g id="edge45" class="edge">
<title>LazySparse&#45;&gt;FilesFormat</title>
<path fill="none" stroke="black" d="M556.16,-221.14C556.16,-214.54 556.16,-205.24 556.16,-196.85"/>
<polygon fill="black" stroke="black" points="559.66,-197.13 556.16,-187.13 552.66,-197.13 559.66,-197.13"/>
</g>
</g>
</svg>
