<?xml version="1.0" encoding="UTF-8" standalone="no"?>
<!DOCTYPE svg PUBLIC "-//W3C//DTD SVG 1.1//EN"
 "http://www.w3.org/Graphics/SVG/1.1/DTD/svg11.dtd">
<!-- Generated by graphviz version 2.40.1 (0)
 -->
<!-- Title: %3 Pages: 1 -->
<svg width="982pt" height="346pt"
 viewBox="0.00 0.00 982.04 346.00" xmlns="http://www.w3.org/2000/svg" xmlns:xlink="http://www.w3.org/1999/xlink">
<g id="graph0" class="graph" transform="scale(1 1) rotate(0) translate(4 342)">
<title>%3</title>
<polygon fill="#ffffff" stroke="transparent" points="-4,4 -4,-342 978.0426,-342 978.0426,4 -4,4"/>
<g id="clust1" class="cluster">
<title>cluster_all</title>
<polygon fill="none" stroke="#000000" points="8,-8 8,-330 966.0426,-330 966.0426,-8 8,-8"/>
<text text-anchor="middle" x="66" y="-303.6" font-family="Sans-Serif" font-size="28.00" fill="#000000">NAMES</text>
</g>
<!-- EMPTY -->
<g id="node1" class="node">
<title>EMPTY</title>
<ellipse fill="#000000" stroke="#000000" cx="17.8" cy="-149" rx="1.8" ry="1.8"/>
</g>
<!-- N1 -->
<g id="node3" class="node">
<title>N1</title>
<polygon fill="none" stroke="#000000" stroke-dasharray="1,5" points="616.6,-69.5 55.6,-69.5 55.6,-16.5 616.6,-16.5 616.6,-69.5"/>
<text text-anchor="start" x="208.1" y="-54.3" font-family="Courier,monospace" font-size="14.00" fill="#000000">@ rows_axis @ columns_axis :: ?</text>
<text text-anchor="start" x="331.6" y="-39.3" font-family="Courier,monospace" font-size="14.00" fill="#000000"> </text>
<text text-anchor="start" x="63.6" y="-24.3" font-family="Courier,monospace" font-size="14.00" fill="#000000">Axis(rows_axis) |&gt; Axis(columns_axis) |&gt; LookupMatrix() |&gt; Names()</text>
</g>
<!-- EMPTY&#45;&gt;N1 -->
<g id="edge9" class="edge">
<title>EMPTY&#45;&gt;N1:w</title>
<path fill="none" stroke="#000000" d="M18.0339,-147.1602C19.6218,-135.0089 29.2828,-66.2117 46.7273,-47.6271"/>
<polygon fill="#000000" stroke="#000000" points="48.3517,-50.7274 55.6,-43 45.1149,-44.5207 48.3517,-50.7274"/>
</g>
<!-- N2 -->
<g id="node5" class="node">
<title>N2</title>
<polygon fill="none" stroke="#000000" stroke-dasharray="1,5" points="505.1,-140.5 167.1,-140.5 167.1,-87.5 505.1,-87.5 505.1,-140.5"/>
<text text-anchor="start" x="294.6" y="-125.3" font-family="Courier,monospace" font-size="14.00" fill="#000000">@ axis : ?</text>
<text text-anchor="start" x="331.6" y="-110.3" font-family="Courier,monospace" font-size="14.00" fill="#000000"> </text>
<text text-anchor="start" x="175.1" y="-95.3" font-family="Courier,monospace" font-size="14.00" fill="#000000">Axis(axis) |&gt; LookupVector() |&gt; Names()</text>
</g>
<!-- EMPTY&#45;&gt;N2 -->
<g id="edge10" class="edge">
<title>EMPTY&#45;&gt;N2:w</title>
<path fill="none" stroke="#000000" d="M19.5381,-148.269C30.9885,-143.5177 96.9841,-117.126 156.7937,-114.2536"/>
<polygon fill="#000000" stroke="#000000" points="157.1892,-117.7451 167.1,-114 157.0169,-110.7472 157.1892,-117.7451"/>
</g>
<!-- N3 -->
<g id="node7" class="node">
<title>N3</title>
<polygon fill="none" stroke="#000000" stroke-dasharray="1,5" points="414.6,-211.5 257.6,-211.5 257.6,-158.5 414.6,-158.5 414.6,-211.5"/>
<text text-anchor="start" x="323.6" y="-196.3" font-family="Courier,monospace" font-size="14.00" fill="#000000">@ ?</text>
<text text-anchor="start" x="331.6" y="-181.3" font-family="Courier,monospace" font-size="14.00" fill="#000000"> </text>
<text text-anchor="start" x="265.6" y="-166.3" font-family="Courier,monospace" font-size="14.00" fill="#000000">Axis() |&gt; Names()</text>
</g>
<!-- EMPTY&#45;&gt;N3 -->
<g id="edge11" class="edge">
<title>EMPTY&#45;&gt;N3:w</title>
<path fill="none" stroke="#000000" d="M19.6998,-149.5089C35.6593,-153.7392 149.1963,-182.9632 247.0755,-184.8992"/>
<polygon fill="#000000" stroke="#000000" points="247.0653,-188.3992 257.1,-185 247.1357,-181.3995 247.0653,-188.3992"/>
</g>
<!-- N4 -->
<g id="node9" class="node">
<title>N4</title>
<polygon fill="none" stroke="#000000" stroke-dasharray="1,5" points="447.6,-282.5 224.6,-282.5 224.6,-229.5 447.6,-229.5 447.6,-282.5"/>
<text text-anchor="start" x="323.6" y="-267.3" font-family="Courier,monospace" font-size="14.00" fill="#000000">. ?</text>
<text text-anchor="start" x="331.6" y="-252.3" font-family="Courier,monospace" font-size="14.00" fill="#000000"> </text>
<text text-anchor="start" x="232.6" y="-237.3" font-family="Courier,monospace" font-size="14.00" fill="#000000">LookupScalar() |&gt; Names()</text>
</g>
<!-- EMPTY&#45;&gt;N4 -->
<g id="edge12" class="edge">
<title>EMPTY&#45;&gt;N4:w</title>
<path fill="none" stroke="#000000" d="M18.2406,-151.2013C20.3468,-161.1151 30.3496,-201.9604 55.6,-221 113.9281,-264.9812 144.7719,-256.8775 214.061,-256.0607"/>
<polygon fill="#000000" stroke="#000000" points="214.1214,-259.5605 224.1,-256 214.079,-252.5606 214.1214,-259.5605"/>
</g>
<!-- NamesState -->
<g id="node2" class="node">
<title>NamesState</title>
<polygon fill="none" stroke="#000000" points="954.2517,-141.5442 954.2517,-156.4558 916.2164,-167 862.4263,-167 824.3909,-156.4558 824.3909,-141.5442 862.4263,-131 916.2164,-131 954.2517,-141.5442"/>
<polygon fill="none" stroke="#000000" points="958.2646,-138.5048 958.2646,-159.4952 916.764,-171 861.8786,-171 820.378,-159.4952 820.378,-138.5048 861.8786,-127 916.764,-127 958.2646,-138.5048"/>
<text text-anchor="middle" x="889.3213" y="-145.3" font-family="Sans-Serif" font-size="14.00" fill="#000000">NamesState</text>
</g>
<!-- N1_ -->
<g id="node4" class="node">
<title>N1_</title>
<polygon fill="none" stroke="#000000" points="772.6,-65 652.6,-65 652.6,-41 772.6,-41 784.6,-53 772.6,-65"/>
<text text-anchor="middle" x="718.6" y="-49.3" font-family="Sans-Serif" font-size="14.00" fill="#000000">names of matrices </text>
</g>
<!-- N1&#45;&gt;N1_ -->
<g id="edge1" class="edge">
<title>N1:e&#45;&gt;N1_:w</title>
<path fill="none" stroke="#000000" d="M616.6,-43C629.1841,-43 633.8331,-48.7428 642.5736,-51.5245"/>
<polygon fill="#000000" stroke="#000000" points="642.1969,-55.0066 652.6,-53 643.2162,-48.0812 642.1969,-55.0066"/>
</g>
<!-- N1_&#45;&gt;NamesState -->
<g id="edge2" class="edge">
<title>N1_:e&#45;&gt;NamesState</title>
<path fill="none" stroke="#000000" d="M784.6,-53C823.7697,-53 854.6425,-89.9454 872.4381,-117.9972"/>
<polygon fill="#000000" stroke="#000000" points="869.5645,-120.0081 877.7504,-126.7344 875.5457,-116.3714 869.5645,-120.0081"/>
</g>
<!-- N2_ -->
<g id="node6" class="node">
<title>N2_</title>
<polygon fill="none" stroke="#000000" points="768.6,-130 656.6,-130 656.6,-106 768.6,-106 780.6,-118 768.6,-130"/>
<text text-anchor="middle" x="718.6" y="-114.3" font-family="Sans-Serif" font-size="14.00" fill="#000000">names of vectors </text>
</g>
<!-- N2&#45;&gt;N2_ -->
<g id="edge3" class="edge">
<title>N2:e&#45;&gt;N2_:w</title>
<path fill="none" stroke="#000000" d="M505.1,-114C568.9048,-114 587.3321,-117.5892 646.351,-117.9678"/>
<polygon fill="#000000" stroke="#000000" points="646.589,-121.4685 656.6,-118 646.6111,-114.4685 646.589,-121.4685"/>
</g>
<!-- N2_&#45;&gt;NamesState -->
<g id="edge4" class="edge">
<title>N2_:e&#45;&gt;NamesState</title>
<path fill="none" stroke="#000000" d="M780.6,-118C799.562,-118 819.6959,-122.4149 837.4167,-127.9125"/>
<polygon fill="#000000" stroke="#000000" points="836.3977,-131.2617 846.9905,-131.0569 838.582,-124.6112 836.3977,-131.2617"/>
</g>
<!-- N3_ -->
<g id="node8" class="node">
<title>N3_</title>
<polygon fill="none" stroke="#000000" points="760.6,-192 664.6,-192 664.6,-168 760.6,-168 772.6,-180 760.6,-192"/>
<text text-anchor="middle" x="718.6" y="-176.3" font-family="Sans-Serif" font-size="14.00" fill="#000000">names of axes </text>
</g>
<!-- N3&#45;&gt;N3_ -->
<g id="edge5" class="edge">
<title>N3:e&#45;&gt;N3_:w</title>
<path fill="none" stroke="#000000" d="M415.1,-185C522.5452,-185 551.8777,-180.3076 654.4408,-180.0143"/>
<polygon fill="#000000" stroke="#000000" points="654.605,-183.5142 664.6,-180 654.595,-176.5142 654.605,-183.5142"/>
</g>
<!-- N3_&#45;&gt;NamesState -->
<g id="edge6" class="edge">
<title>N3_:e&#45;&gt;NamesState</title>
<path fill="none" stroke="#000000" d="M772.6,-180C793.5855,-180 816.0036,-175.2613 835.5262,-169.4893"/>
<polygon fill="#000000" stroke="#000000" points="836.6444,-172.8069 845.1524,-166.4931 834.564,-166.1232 836.6444,-172.8069"/>
</g>
<!-- N4_ -->
<g id="node10" class="node">
<title>N4_</title>
<polygon fill="none" stroke="#000000" points="768.1,-259 657.1,-259 657.1,-235 768.1,-235 780.1,-247 768.1,-259"/>
<text text-anchor="middle" x="718.6" y="-243.3" font-family="Sans-Serif" font-size="14.00" fill="#000000">names of scalars </text>
</g>
<!-- N4&#45;&gt;N4_ -->
<g id="edge7" class="edge">
<title>N4:e&#45;&gt;N4_:w</title>
<path fill="none" stroke="#000000" d="M448.1,-256C537.411,-256 562.0444,-247.6556 646.5551,-247.0363"/>
<polygon fill="#000000" stroke="#000000" points="646.6127,-250.5362 656.6,-247 646.5874,-243.5362 646.6127,-250.5362"/>
</g>
<!-- N4_&#45;&gt;NamesState -->
<g id="edge8" class="edge">
<title>N4_:e&#45;&gt;NamesState</title>
<path fill="none" stroke="#000000" d="M780.6,-247C821.3617,-247 853.7271,-208.5241 872.2147,-179.7893"/>
<polygon fill="#000000" stroke="#000000" points="875.2199,-181.5842 877.5007,-171.2377 869.2656,-177.9036 875.2199,-181.5842"/>
</g>
</g>
</svg>
