<?xml version="1.0" encoding="UTF-8" standalone="no"?>
<!DOCTYPE svg PUBLIC "-//W3C//DTD SVG 1.1//EN"
 "http://www.w3.org/Graphics/SVG/1.1/DTD/svg11.dtd">
<!-- Generated by graphviz version 2.40.1 (0)
 -->
<!-- Title: %3 Pages: 1 -->
<svg width="1006pt" height="676pt"
 viewBox="0.00 0.00 1006.00 676.00" xmlns="http://www.w3.org/2000/svg" xmlns:xlink="http://www.w3.org/1999/xlink">
<g id="graph0" class="graph" transform="scale(1 1) rotate(0) translate(4 672)">
<title>%3</title>
<polygon fill="#ffffff" stroke="transparent" points="-4,4 -4,-672 1002,-672 1002,4 -4,4"/>
<g id="clust1" class="cluster">
<title>cluster_all</title>
<polygon fill="none" stroke="#000000" points="148,-8 148,-660 837,-660 837,-8 148,-8"/>
<text text-anchor="middle" x="274.5" y="-633.6" font-family="Sans-Serif" font-size="28.00" fill="#000000">VECTOR LOOKUP</text>
</g>
<!-- Vector_axis -->
<g id="node1" class="node">
<title>Vector_axis</title>
<polygon fill="none" stroke="#000000" points="120,-317 0,-317 0,-281 120,-281 120,-317"/>
<text text-anchor="start" x="8" y="-302.8" font-family="Sans-Serif" font-size="14.00" fill="#000000"> VectorState</text>
<text text-anchor="start" x="82" y="-302.8" font-family="Sans-Serif" font-style="italic" baseline-shift="sub" font-size="14.00" fill="#000000">axis</text>
<text text-anchor="start" x="104" y="-302.8" font-family="Sans-Serif" font-size="14.00" fill="#000000">  </text>
<text text-anchor="start" x="58" y="-288.8" font-family="Sans-Serif" font-size="14.00" fill="#000000"> </text>
</g>
<!-- VL1 -->
<g id="node3" class="node">
<title>VL1</title>
<polygon fill="none" stroke="#000000" stroke-dasharray="1,5" points="474,-612.5 218,-612.5 218,-469.5 474,-469.5 474,-612.5"/>
<text text-anchor="start" x="288" y="-597.3" font-family="Courier,monospace" font-size="14.00" fill="#c0c0c0">?? final_value</text>
<text text-anchor="start" x="271.5" y="-582.3" font-family="Courier,monospace" font-size="14.00" fill="#000000">:: matrix_property</text>
<text text-anchor="start" x="279.5" y="-567.3" font-family="Courier,monospace" font-size="14.00" fill="#c0c0c0">|| default_value</text>
<text text-anchor="start" x="300.5" y="-552.3" font-family="Courier,monospace" font-size="14.00" fill="#000000">@&#45; row_name</text>
<text text-anchor="start" x="341.5" y="-537.3" font-family="Courier,monospace" font-size="14.00" fill="#000000"> </text>
<text text-anchor="start" x="251" y="-522.3" font-family="Courier,monospace" font-size="14.00" fill="#c0c0c0">IfEmpty(final_value) |&gt;</text>
<text text-anchor="start" x="226" y="-507.3" font-family="Courier,monospace" font-size="14.00" fill="#000000">LookupMatrix(vector_property)</text>
<text text-anchor="start" x="234.5" y="-492.3" font-family="Courier,monospace" font-size="14.00" fill="#c0c0c0">|&gt; IfMissing(default_value)</text>
<text text-anchor="start" x="251" y="-477.3" font-family="Courier,monospace" font-size="14.00" fill="#000000">|&gt; RowIsEqual(row_name)</text>
</g>
<!-- Vector_axis&#45;&gt;VL1 -->
<g id="edge5" class="edge">
<title>Vector_axis&#45;&gt;VL1:w</title>
<path fill="none" stroke="#000000" d="M62.8298,-317.1893C72.3987,-371.6555 108.6798,-530.3177 207.8794,-540.4874"/>
<polygon fill="#000000" stroke="#000000" points="207.8357,-543.9895 218,-541 208.1899,-536.9985 207.8357,-543.9895"/>
</g>
<!-- VL2 -->
<g id="node5" class="node">
<title>VL2</title>
<polygon fill="none" stroke="#000000" stroke-dasharray="1,5" points="474,-451.5 218,-451.5 218,-308.5 474,-308.5 474,-451.5"/>
<text text-anchor="start" x="288" y="-436.3" font-family="Courier,monospace" font-size="14.00" fill="#c0c0c0">?? final_value</text>
<text text-anchor="start" x="271.5" y="-421.3" font-family="Courier,monospace" font-size="14.00" fill="#000000">:: matrix_property</text>
<text text-anchor="start" x="279.5" y="-406.3" font-family="Courier,monospace" font-size="14.00" fill="#c0c0c0">|| default_value</text>
<text text-anchor="start" x="288" y="-391.3" font-family="Courier,monospace" font-size="14.00" fill="#000000">@| column_name</text>
<text text-anchor="start" x="341.5" y="-376.3" font-family="Courier,monospace" font-size="14.00" fill="#000000"> </text>
<text text-anchor="start" x="251" y="-361.3" font-family="Courier,monospace" font-size="14.00" fill="#c0c0c0">IfEmpty(final_value) |&gt;</text>
<text text-anchor="start" x="226" y="-346.3" font-family="Courier,monospace" font-size="14.00" fill="#000000">LookupMatrix(vector_property)</text>
<text text-anchor="start" x="234.5" y="-331.3" font-family="Courier,monospace" font-size="14.00" fill="#c0c0c0">|&gt; IfMissing(default_value)</text>
<text text-anchor="start" x="226" y="-316.3" font-family="Courier,monospace" font-size="14.00" fill="#000000">|&gt; ColumnIsEqual(column_name)</text>
</g>
<!-- Vector_axis&#45;&gt;VL2 -->
<g id="edge6" class="edge">
<title>Vector_axis&#45;&gt;VL2:w</title>
<path fill="none" stroke="#000000" d="M80.2652,-317.3802C107.0121,-339.7849 156.711,-375.2177 207.7753,-379.5593"/>
<polygon fill="#000000" stroke="#000000" points="207.8585,-383.066 218,-380 208.16,-376.0725 207.8585,-383.066"/>
</g>
<!-- VL3 -->
<g id="node7" class="node">
<title>VL3</title>
<polygon fill="none" stroke="#000000" stroke-dasharray="1,5" points="536,-290.5 156,-290.5 156,-147.5 536,-147.5 536,-290.5"/>
<text text-anchor="start" x="288" y="-275.3" font-family="Courier,monospace" font-size="14.00" fill="#c0c0c0">?? final_value</text>
<text text-anchor="start" x="271.5" y="-260.3" font-family="Courier,monospace" font-size="14.00" fill="#000000">:: matrix_property</text>
<text text-anchor="start" x="279.5" y="-245.3" font-family="Courier,monospace" font-size="14.00" fill="#c0c0c0">|| default_value</text>
<text text-anchor="start" x="234.5" y="-230.3" font-family="Courier,monospace" font-size="14.00" fill="#000000">@ column_axis = column_name</text>
<text text-anchor="start" x="341.5" y="-215.3" font-family="Courier,monospace" font-size="14.00" fill="#000000"> </text>
<text text-anchor="start" x="251" y="-200.3" font-family="Courier,monospace" font-size="14.00" fill="#c0c0c0">IfEmpty(final_value) |&gt;</text>
<text text-anchor="start" x="226" y="-185.3" font-family="Courier,monospace" font-size="14.00" fill="#000000">LookupMatrix(vector_property)</text>
<text text-anchor="start" x="234.5" y="-170.3" font-family="Courier,monospace" font-size="14.00" fill="#c0c0c0">|&gt; IfMissing(default_value)</text>
<text text-anchor="start" x="164" y="-155.3" font-family="Courier,monospace" font-size="14.00" fill="#000000">|&gt; Axis(column_axis) |&gt; IsEqual(column_name)</text>
</g>
<!-- Vector_axis&#45;&gt;VL3 -->
<g id="edge7" class="edge">
<title>Vector_axis&#45;&gt;VL3:w</title>
<path fill="none" stroke="#000000" d="M70.8133,-280.8468C85.0066,-259.364 112.1207,-225.7537 145.8305,-219.8877"/>
<polygon fill="#000000" stroke="#000000" points="146.3423,-223.3565 156,-219 145.7335,-216.383 146.3423,-223.3565"/>
</g>
<!-- VL4 -->
<g id="node9" class="node">
<title>VL4</title>
<polygon fill="none" stroke="#000000" stroke-dasharray="1,5" points="474,-129.5 218,-129.5 218,-16.5 474,-16.5 474,-129.5"/>
<text text-anchor="start" x="288" y="-114.3" font-family="Courier,monospace" font-size="14.00" fill="#c0c0c0">?? final_value</text>
<text text-anchor="start" x="275.5" y="-99.3" font-family="Courier,monospace" font-size="14.00" fill="#000000">: vector_property</text>
<text text-anchor="start" x="279.5" y="-84.3" font-family="Courier,monospace" font-size="14.00" fill="#c0c0c0">|| default_value</text>
<text text-anchor="start" x="341.5" y="-69.3" font-family="Courier,monospace" font-size="14.00" fill="#000000"> </text>
<text text-anchor="start" x="251" y="-54.3" font-family="Courier,monospace" font-size="14.00" fill="#c0c0c0">IfEmpty(final_value) |&gt;</text>
<text text-anchor="start" x="226" y="-39.3" font-family="Courier,monospace" font-size="14.00" fill="#000000">LookupVector(vector_property)</text>
<text text-anchor="start" x="234.5" y="-24.3" font-family="Courier,monospace" font-size="14.00" fill="#c0c0c0">|&gt; IfMissing(default_value)</text>
</g>
<!-- Vector_axis&#45;&gt;VL4 -->
<g id="edge8" class="edge">
<title>Vector_axis&#45;&gt;VL4:w</title>
<path fill="none" stroke="#000000" d="M63.4842,-280.8875C74.5622,-229.0916 113.9253,-83.4275 207.8248,-73.5305"/>
<polygon fill="#000000" stroke="#000000" points="208.1958,-77.016 218,-73 207.8313,-70.0255 208.1958,-77.016"/>
</g>
<!-- Vector_values -->
<g id="node2" class="node">
<title>Vector_values</title>
<polygon fill="none" stroke="#000000" points="998,-317 865,-317 865,-281 998,-281 998,-317"/>
<text text-anchor="start" x="873" y="-302.8" font-family="Sans-Serif" font-size="14.00" fill="#000000"> VectorState</text>
<text text-anchor="start" x="947" y="-302.8" font-family="Sans-Serif" font-style="italic" baseline-shift="sub" font-size="14.00" fill="#000000">values</text>
<text text-anchor="start" x="982" y="-302.8" font-family="Sans-Serif" font-size="14.00" fill="#000000">  </text>
<text text-anchor="start" x="929.5" y="-288.8" font-family="Sans-Serif" font-size="14.00" fill="#000000"> </text>
</g>
<!-- VL1_ -->
<g id="node4" class="node">
<title>VL1_</title>
<polygon fill="none" stroke="#000000" points="805.5,-499 583.5,-499 583.5,-475 805.5,-475 817.5,-487 805.5,-499"/>
<text text-anchor="middle" x="700.5" y="-483.3" font-family="Sans-Serif" font-size="14.00" fill="#000000">lookup square matrix row by vector  </text>
</g>
<!-- VL1&#45;&gt;VL1_ -->
<g id="edge1" class="edge">
<title>VL1:e&#45;&gt;VL1_:w</title>
<path fill="none" stroke="#000000" d="M474,-541C524.6594,-541 528.8728,-493.9337 573.3636,-487.6828"/>
<polygon fill="#000000" stroke="#000000" points="573.7579,-491.1642 583.5,-487 573.2874,-484.1801 573.7579,-491.1642"/>
</g>
<!-- VL1_&#45;&gt;Vector_values -->
<g id="edge9" class="edge">
<title>VL1_:e&#45;&gt;Vector_values</title>
<path fill="none" stroke="#000000" d="M817.5,-487C891.4208,-487 918.7402,-379.4155 927.6622,-327.017"/>
<polygon fill="#000000" stroke="#000000" points="931.1369,-327.4523 929.2535,-317.0262 924.2241,-326.3512 931.1369,-327.4523"/>
</g>
<!-- VL2_ -->
<g id="node6" class="node">
<title>VL2_</title>
<polygon fill="none" stroke="#000000" points="817,-365 572,-365 572,-341 817,-341 829,-353 817,-365"/>
<text text-anchor="middle" x="700.5" y="-349.3" font-family="Sans-Serif" font-size="14.00" fill="#000000">lookup square matrix column by vector  </text>
</g>
<!-- VL2&#45;&gt;VL2_ -->
<g id="edge2" class="edge">
<title>VL2:e&#45;&gt;VL2_:w</title>
<path fill="none" stroke="#000000" d="M474,-380C515.4723,-380 525.3151,-357.248 561.5982,-353.5153"/>
<polygon fill="#000000" stroke="#000000" points="562.1854,-356.9905 572,-353 561.8391,-349.9991 562.1854,-356.9905"/>
</g>
<!-- VL2_&#45;&gt;Vector_values -->
<g id="edge10" class="edge">
<title>VL2_:e&#45;&gt;Vector_values</title>
<path fill="none" stroke="#000000" d="M829.5,-353C856.7282,-353 883.7905,-337.7843 903.1909,-323.5065"/>
<polygon fill="#000000" stroke="#000000" points="905.4874,-326.1557 911.276,-317.2819 901.2171,-320.609 905.4874,-326.1557"/>
</g>
<!-- VL3_ -->
<g id="node8" class="node">
<title>VL3_</title>
<polygon fill="none" stroke="#000000" points="794.5,-258 594.5,-258 594.5,-234 794.5,-234 806.5,-246 794.5,-258"/>
<text text-anchor="middle" x="700.5" y="-242.3" font-family="Sans-Serif" font-size="14.00" fill="#000000">lookup matrix column by vector  </text>
</g>
<!-- VL3&#45;&gt;VL3_ -->
<g id="edge3" class="edge">
<title>VL3:e&#45;&gt;VL3_:w</title>
<path fill="none" stroke="#000000" d="M536,-219C560.8325,-219 565.0545,-239.3044 584.4124,-244.6977"/>
<polygon fill="#000000" stroke="#000000" points="584.1342,-248.1908 594.5,-246 585.0304,-241.2484 584.1342,-248.1908"/>
</g>
<!-- VL3_&#45;&gt;Vector_values -->
<g id="edge11" class="edge">
<title>VL3_:e&#45;&gt;Vector_values</title>
<path fill="none" stroke="#000000" d="M806.5,-246C838.897,-246 872.5375,-261.2768 896.7481,-275.4267"/>
<polygon fill="#000000" stroke="#000000" points="895.1776,-278.5676 905.543,-280.7604 898.8074,-272.5822 895.1776,-278.5676"/>
</g>
<!-- VL4_ -->
<g id="node10" class="node">
<title>VL4_</title>
<polygon fill="none" stroke="#000000" points="770,-131 619,-131 619,-107 770,-107 782,-119 770,-131"/>
<text text-anchor="middle" x="700.5" y="-115.3" font-family="Sans-Serif" font-size="14.00" fill="#000000">lookup vector by vector  </text>
</g>
<!-- VL4&#45;&gt;VL4_ -->
<g id="edge4" class="edge">
<title>VL4:e&#45;&gt;VL4_:w</title>
<path fill="none" stroke="#000000" d="M474,-73C537.8437,-73 549.9182,-114.2764 608.3019,-118.6297"/>
<polygon fill="#000000" stroke="#000000" points="608.3796,-122.1348 618.5,-119 608.6336,-115.1394 608.3796,-122.1348"/>
</g>
<!-- VL4_&#45;&gt;Vector_values -->
<g id="edge12" class="edge">
<title>VL4_:e&#45;&gt;Vector_values</title>
<path fill="none" stroke="#000000" d="M782.5,-119C860.4929,-119 905.3763,-220.519 922.8928,-271.0763"/>
<polygon fill="#000000" stroke="#000000" points="919.6364,-272.3749 926.1254,-280.7501 926.2756,-270.1563 919.6364,-272.3749"/>
</g>
</g>
</svg>
