<?xml version="1.0" encoding="UTF-8" standalone="no"?>
<!DOCTYPE svg PUBLIC "-//W3C//DTD SVG 1.1//EN"
 "http://www.w3.org/Graphics/SVG/1.1/DTD/svg11.dtd">
<!-- Generated by graphviz version 2.40.1 (0)
 -->
<!-- Title: %3 Pages: 1 -->
<svg width="1121pt" height="189pt"
 viewBox="0.00 0.00 1120.76 189.00" xmlns="http://www.w3.org/2000/svg" xmlns:xlink="http://www.w3.org/1999/xlink">
<g id="graph0" class="graph" transform="scale(1 1) rotate(0) translate(4 185)">
<title>%3</title>
<polygon fill="#ffffff" stroke="transparent" points="-4,4 -4,-185 1116.7569,-185 1116.7569,4 -4,4"/>
<g id="clust1" class="cluster">
<title>cluster_all</title>
<g id="a_clust1"><a xlink:href="assets/vector.svg" xlink:title="VECTOR">
<polygon fill="none" stroke="#000000" points="8,-8 8,-173 1104.7569,-173 1104.7569,-8 8,-8"/>
<text text-anchor="middle" x="73" y="-146.6" font-family="Sans-Serif" font-size="28.00" fill="#000000">VECTOR</text>
</a>
</g>
</g>
<!-- EMPTY -->
<g id="node1" class="node">
<title>EMPTY</title>
<ellipse fill="#000000" stroke="#000000" cx="82" cy="-56" rx="1.8" ry="1.8"/>
</g>
<!-- V1 -->
<g id="node5" class="node">
<title>V1</title>
<polygon fill="none" stroke="#000000" stroke-dasharray="1,5" points="283,-82.5 184,-82.5 184,-29.5 283,-29.5 283,-82.5"/>
<text text-anchor="start" x="208.5" y="-67.3" font-family="Courier,monospace" font-size="14.00" fill="#000000">@ axis</text>
<text text-anchor="start" x="229" y="-52.3" font-family="Courier,monospace" font-size="14.00" fill="#000000"> </text>
<text text-anchor="start" x="192" y="-37.3" font-family="Courier,monospace" font-size="14.00" fill="#000000">Axis(axis)</text>
</g>
<!-- EMPTY&#45;&gt;V1 -->
<g id="edge14" class="edge">
<title>EMPTY&#45;&gt;V1</title>
<path fill="none" stroke="#000000" d="M84.1417,-56C94.0368,-56 136.4267,-56 173.5307,-56"/>
<polygon fill="#000000" stroke="#000000" points="173.8244,-59.5001 183.8244,-56 173.8244,-52.5001 173.8244,-59.5001"/>
</g>
<!-- Matrix_values -->
<g id="node2" class="node">
<title>Matrix_values</title>
<polygon fill="none" stroke="#000000" points="148,-116 16,-116 16,-80 148,-80 148,-116"/>
<text text-anchor="start" x="24" y="-101.8" font-family="Sans-Serif" font-size="14.00" fill="#000000"> MatrixState</text>
<text text-anchor="start" x="97" y="-101.8" font-family="Sans-Serif" font-style="italic" baseline-shift="sub" font-size="14.00" fill="#000000">values</text>
<text text-anchor="start" x="132" y="-101.8" font-family="Sans-Serif" font-size="14.00" fill="#000000">  </text>
<text text-anchor="start" x="80" y="-87.8" font-family="Sans-Serif" font-size="14.00" fill="#000000"> </text>
</g>
<!-- Matrix_values&#45;&gt;V1 -->
<!-- V6 -->
<g id="node11" class="node">
<title>V6</title>
<g id="a_node11"><a xlink:href="#DataAxesFormats.Queries.VECTOR_FROM_MATRIX" xlink:title="VECTOR FROM MATRIX">
<polygon fill="none" stroke="#000000" points="489,-126 319,-126 319,-122 315,-122 315,-118 319,-118 319,-98 315,-98 315,-94 319,-94 319,-90 489,-90 489,-126"/>
<polyline fill="none" stroke="#000000" points="319,-122 323,-122 323,-118 319,-118 "/>
<polyline fill="none" stroke="#000000" points="319,-98 323,-98 323,-94 319,-94 "/>
<text text-anchor="middle" x="404" y="-104.3" font-family="Sans-Serif" font-size="14.00" fill="#000000">VECTOR FROM MATRIX</text>
</a>
</g>
</g>
<!-- Matrix_values&#45;&gt;V6 -->
<g id="edge16" class="edge">
<title>Matrix_values&#45;&gt;V6</title>
<path fill="none" stroke="#000000" d="M148.3282,-100.0599C194.5843,-101.4964 257.0106,-103.4351 308.598,-105.0372"/>
<polygon fill="#000000" stroke="#000000" points="308.6591,-108.5407 318.763,-105.3529 308.8765,-101.5441 308.6591,-108.5407"/>
</g>
<!-- Vector_axis -->
<g id="node3" class="node">
<title>Vector_axis</title>
<polygon fill="none" stroke="#000000" points="645,-106 525,-106 525,-70 645,-70 645,-106"/>
<text text-anchor="start" x="533" y="-91.8" font-family="Sans-Serif" font-size="14.00" fill="#000000"> VectorState</text>
<text text-anchor="start" x="607" y="-91.8" font-family="Sans-Serif" font-style="italic" baseline-shift="sub" font-size="14.00" fill="#000000">axis</text>
<text text-anchor="start" x="629" y="-91.8" font-family="Sans-Serif" font-size="14.00" fill="#000000">  </text>
<text text-anchor="start" x="583" y="-77.8" font-family="Sans-Serif" font-size="14.00" fill="#000000"> </text>
</g>
<!-- V2 -->
<g id="node7" class="node">
<title>V2</title>
<g id="a_node7"><a xlink:href="#../DataAxesFormats.Queries.VECTOR_MASK" xlink:title="VECTOR MASK">
<polygon fill="none" stroke="#000000" points="642,-52 528,-52 528,-48 524,-48 524,-44 528,-44 528,-24 524,-24 524,-20 528,-20 528,-16 642,-16 642,-52"/>
<polyline fill="none" stroke="#000000" points="528,-48 532,-48 532,-44 528,-44 "/>
<polyline fill="none" stroke="#000000" points="528,-24 532,-24 532,-20 528,-20 "/>
<text text-anchor="middle" x="585" y="-30.3" font-family="Sans-Serif" font-size="14.00" fill="#000000">VECTOR MASK</text>
</a>
</g>
</g>
<!-- Vector_axis&#45;&gt;V2 -->
<g id="edge3" class="edge">
<title>Vector_axis&#45;&gt;V2</title>
<path fill="none" stroke="#000000" d="M623.2189,-69.7902C626.1568,-66.9405 627.666,-64.0908 627.7466,-61.2412"/>
<polygon fill="#000000" stroke="#000000" points="630.7816,-59.4869 623.1473,-52.1406 624.5342,-62.6443 630.7816,-59.4869"/>
</g>
<!-- V3 -->
<g id="node8" class="node">
<title>V3</title>
<polygon fill="none" stroke="#000000" points="848,-100 681,-100 681,-76 848,-76 860,-88 848,-100"/>
<text text-anchor="start" x="689" y="-91.8" font-family="Sans-Serif" font-size="14.00" fill="#000000">values are names </text>
<text text-anchor="start" x="801" y="-91.8" font-family="Sans-Serif" font-style="italic" baseline-shift="sub" font-size="14.00" fill="#000000">implicit</text>
<text text-anchor="start" x="836" y="-91.8" font-family="Sans-Serif" font-size="14.00" fill="#000000">    </text>
<text text-anchor="start" x="768.5" y="-77.8" font-family="Sans-Serif" font-size="14.00" fill="#000000"> </text>
</g>
<!-- Vector_axis&#45;&gt;V3 -->
<g id="edge6" class="edge">
<title>Vector_axis&#45;&gt;V3:w</title>
<path fill="none" stroke="#000000" d="M645.1721,-88C653.6145,-88 662.3069,-88 670.7889,-88"/>
<polygon fill="#000000" stroke="#000000" points="671,-91.5001 681,-88 671,-84.5001 671,-91.5001"/>
</g>
<!-- V4 -->
<g id="node9" class="node">
<title>V4</title>
<g id="a_node9"><a xlink:href="#DataAxesFormats.Queries.VECTOR_LOOKUP" xlink:title="VECTOR LOOKUP">
<polygon fill="none" stroke="#000000" points="836.5,-52 704.5,-52 704.5,-48 700.5,-48 700.5,-44 704.5,-44 704.5,-24 700.5,-24 700.5,-20 704.5,-20 704.5,-16 836.5,-16 836.5,-52"/>
<polyline fill="none" stroke="#000000" points="704.5,-48 708.5,-48 708.5,-44 704.5,-44 "/>
<polyline fill="none" stroke="#000000" points="704.5,-24 708.5,-24 708.5,-20 704.5,-20 "/>
<text text-anchor="middle" x="770.5" y="-30.3" font-family="Sans-Serif" font-size="14.00" fill="#000000">VECTOR LOOKUP</text>
</a>
</g>
</g>
<!-- Vector_axis&#45;&gt;V4 -->
<g id="edge8" class="edge">
<title>Vector_axis:se&#45;&gt;V4:w</title>
<path fill="none" stroke="#000000" d="M645,-70C664.2088,-50.7912 671.7387,-37.5387 694.2652,-34.6108"/>
<polygon fill="#000000" stroke="#000000" points="694.7263,-38.0896 704.5,-34 694.3092,-31.1021 694.7263,-38.0896"/>
</g>
<!-- Vector_values -->
<g id="node4" class="node">
<title>Vector_values</title>
<polygon fill="none" stroke="#000000" points="1092.6404,-84.5442 1092.6404,-99.4558 1036.2515,-110 956.5055,-110 900.1165,-99.4558 900.1165,-84.5442 956.5055,-74 1036.2515,-74 1092.6404,-84.5442"/>
<polygon fill="none" stroke="#000000" points="1096.6356,-81.222 1096.6356,-102.778 1036.6213,-114 956.1356,-114 896.1214,-102.778 896.1214,-81.222 956.1356,-70 1036.6213,-70 1096.6356,-81.222"/>
<text text-anchor="start" x="935.8785" y="-89.3" font-family="Sans-Serif" font-size="14.00" fill="#000000"> VectorState</text>
<text text-anchor="start" x="1009.8785" y="-89.3" font-family="Sans-Serif" font-style="italic" baseline-shift="sub" font-size="14.00" fill="#000000">values</text>
<text text-anchor="start" x="1044.8785" y="-89.3" font-family="Sans-Serif" font-size="14.00" fill="#000000">   </text>
</g>
<!-- V5 -->
<g id="node10" class="node">
<title>V5</title>
<g id="a_node10"><a xlink:href="#DataAxesFormats.Queries.VECTOR_OPERATION" xlink:title="VECTOR OPERATION">
<polygon fill="none" stroke="#000000" points="1073.3785,-52 919.3785,-52 919.3785,-48 915.3785,-48 915.3785,-44 919.3785,-44 919.3785,-24 915.3785,-24 915.3785,-20 919.3785,-20 919.3785,-16 1073.3785,-16 1073.3785,-52"/>
<polyline fill="none" stroke="#000000" points="919.3785,-48 923.3785,-48 923.3785,-44 919.3785,-44 "/>
<polyline fill="none" stroke="#000000" points="919.3785,-24 923.3785,-24 923.3785,-20 919.3785,-20 "/>
<text text-anchor="middle" x="996.3785" y="-30.3" font-family="Sans-Serif" font-size="14.00" fill="#000000">VECTOR OPERATION</text>
</a>
</g>
</g>
<!-- Vector_values&#45;&gt;V5 -->
<g id="edge10" class="edge">
<title>Vector_values&#45;&gt;V5</title>
<path fill="none" stroke="#000000" d="M1048.4888,-72.0625C1053.7877,-67.805 1055.3526,-63.5475 1053.1833,-59.29"/>
<polygon fill="#000000" stroke="#000000" points="1055.5569,-56.7139 1046.0074,-52.125 1050.6109,-61.6675 1055.5569,-56.7139"/>
</g>
<!-- V1_ -->
<g id="node6" class="node">
<title>V1_</title>
<polygon fill="none" stroke="#000000" points="436,-66 360,-66 360,-42 436,-42 448,-54 436,-66"/>
<text text-anchor="middle" x="404" y="-50.3" font-family="Sans-Serif" font-size="14.00" fill="#000000">lookup axis </text>
</g>
<!-- V1&#45;&gt;V1_ -->
<g id="edge1" class="edge">
<title>V1:e&#45;&gt;V1_:w</title>
<path fill="none" stroke="#000000" d="M283,-56C313.6232,-56 323.6805,-54.3996 349.9656,-54.062"/>
<polygon fill="#000000" stroke="#000000" points="350.0219,-57.5619 360,-54 349.9785,-50.562 350.0219,-57.5619"/>
</g>
<!-- V1_&#45;&gt;Vector_axis -->
<g id="edge2" class="edge">
<title>V1_:e&#45;&gt;Vector_axis:w</title>
<path fill="none" stroke="#000000" d="M448,-54C481.7567,-54 486.8283,-81.6836 514.9824,-87.0906"/>
<polygon fill="#000000" stroke="#000000" points="514.7245,-90.5815 525,-88 515.3574,-83.6101 514.7245,-90.5815"/>
</g>
<!-- V1_&#45;&gt;V2 -->
<!-- V2&#45;&gt;Vector_axis -->
<g id="edge4" class="edge">
<title>V2&#45;&gt;Vector_axis</title>
<path fill="none" stroke="#000000" d="M546.8527,-52.1406C543.8917,-54.9903 542.3594,-57.84 542.2556,-60.6896"/>
<polygon fill="#000000" stroke="#000000" points="539.1945,-62.3945 546.7811,-69.7902 545.4624,-59.2777 539.1945,-62.3945"/>
</g>
<!-- V3&#45;&gt;Vector_values -->
<g id="edge7" class="edge">
<title>V3:e&#45;&gt;Vector_values</title>
<path fill="none" stroke="#000000" d="M860,-88C868.3423,-88 876.9703,-88.0757 885.6477,-88.2063"/>
<polygon fill="#000000" stroke="#000000" points="885.7833,-91.7091 895.8426,-88.3835 885.905,-84.7101 885.7833,-91.7091"/>
</g>
<!-- V4&#45;&gt;Vector_values -->
<g id="edge9" class="edge">
<title>V4:e&#45;&gt;Vector_values</title>
<path fill="none" stroke="#000000" d="M836.5,-34C865.5398,-34 868.8502,-50.6949 896,-61 905.1441,-64.4708 914.8618,-67.8477 924.5116,-71.0179"/>
<polygon fill="#000000" stroke="#000000" points="923.5233,-74.3766 934.115,-74.1149 925.6719,-67.7145 923.5233,-74.3766"/>
</g>
<!-- V4&#45;&gt;V5 -->
<!-- V5&#45;&gt;Vector_values -->
<g id="edge11" class="edge">
<title>V5&#45;&gt;Vector_values</title>
<path fill="none" stroke="#000000" d="M946.7496,-52.125C941.0112,-55.9671 938.3139,-59.8092 938.6576,-63.6514"/>
<polygon fill="#000000" stroke="#000000" points="935.8073,-65.6856 944.2681,-72.0625 941.6306,-61.8012 935.8073,-65.6856"/>
</g>
<!-- V6&#45;&gt;Vector_values -->
<g id="edge13" class="edge">
<title>V6&#45;&gt;Vector_values</title>
<path fill="none" stroke="#000000" d="M489.054,-114.312C580.7732,-119.9506 730.9987,-125.8017 860,-115 876.1491,-113.6478 893.2624,-111.4099 909.7088,-108.8474"/>
<polygon fill="#000000" stroke="#000000" points="910.5318,-112.26 919.8483,-107.2149 909.4191,-105.349 910.5318,-112.26"/>
</g>
</g>
</svg>
