<?xml version="1.0" encoding="UTF-8" standalone="no"?>
<!DOCTYPE svg PUBLIC "-//W3C//DTD SVG 1.1//EN"
 "http://www.w3.org/Graphics/SVG/1.1/DTD/svg11.dtd">
<!-- Generated by graphviz version 2.40.1 (0)
 -->
<!-- Title: %3 Pages: 1 -->
<svg width="1055pt" height="279pt"
 viewBox="0.00 0.00 1055.00 279.00" xmlns="http://www.w3.org/2000/svg" xmlns:xlink="http://www.w3.org/1999/xlink">
<g id="graph0" class="graph" transform="scale(1 1) rotate(0) translate(4 275)">
<title>%3</title>
<polygon fill="#ffffff" stroke="transparent" points="-4,4 -4,-275 1051,-275 1051,4 -4,4"/>
<g id="clust1" class="cluster">
<title>cluster_all</title>
<polygon fill="none" stroke="#000000" points="177,-8 177,-263 875,-263 875,-8 177,-8"/>
<text text-anchor="middle" x="285" y="-236.6" font-family="Sans-Serif" font-size="28.00" fill="#000000">VECTOR MASK</text>
</g>
<!-- Vector_base_axis -->
<g id="node1" class="node">
<title>Vector_base_axis</title>
<polygon fill="none" stroke="#000000" points="149,-134 0,-134 0,-98 149,-98 149,-134"/>
<text text-anchor="start" x="8" y="-119.8" font-family="Sans-Serif" font-size="14.00" fill="#000000"> VectorState</text>
<text text-anchor="start" x="82" y="-119.8" font-family="Sans-Serif" font-style="italic" baseline-shift="sub" font-size="14.00" fill="#000000">base axis</text>
<text text-anchor="start" x="133" y="-119.8" font-family="Sans-Serif" font-size="14.00" fill="#000000">  </text>
<text text-anchor="start" x="72.5" y="-105.8" font-family="Sans-Serif" font-size="14.00" fill="#000000"> </text>
</g>
<!-- V4 -->
<g id="node5" class="node">
<title>V4</title>
<g id="a_node5"><a xlink:href="#../DataAxesFormats.Queries.VECTOR_MASK_LOOKUP" xlink:title="VECTOR MASK LOOKUP">
<polygon fill="none" stroke="#000000" points="360,-134 185,-134 185,-130 181,-130 181,-126 185,-126 185,-106 181,-106 181,-102 185,-102 185,-98 360,-98 360,-134"/>
<polyline fill="none" stroke="#000000" points="185,-130 189,-130 189,-126 185,-126 "/>
<polyline fill="none" stroke="#000000" points="185,-106 189,-106 189,-102 185,-102 "/>
<text text-anchor="middle" x="272.5" y="-112.3" font-family="Sans-Serif" font-size="14.00" fill="#000000">VECTOR MASK LOOKUP</text>
</a>
</g>
</g>
<!-- Vector_base_axis&#45;&gt;V4 -->
<g id="edge10" class="edge">
<title>Vector_base_axis&#45;&gt;V4:w</title>
<path fill="none" stroke="#000000" d="M149.055,-116C157.4845,-116 166.052,-116 174.418,-116"/>
<polygon fill="#000000" stroke="#000000" points="174.5,-119.5001 184.5,-116 174.5,-112.5001 174.5,-119.5001"/>
</g>
<!-- Vector_final_axis -->
<g id="node2" class="node">
<title>Vector_final_axis</title>
<polygon fill="none" stroke="#000000" points="1047,-134 903,-134 903,-98 1047,-98 1047,-134"/>
<text text-anchor="start" x="911" y="-119.8" font-family="Sans-Serif" font-size="14.00" fill="#000000"> VectorState</text>
<text text-anchor="start" x="985" y="-119.8" font-family="Sans-Serif" font-style="italic" baseline-shift="sub" font-size="14.00" fill="#000000">final axis</text>
<text text-anchor="start" x="1031" y="-119.8" font-family="Sans-Serif" font-size="14.00" fill="#000000">  </text>
<text text-anchor="start" x="973" y="-105.8" font-family="Sans-Serif" font-size="14.00" fill="#000000"> </text>
</g>
<!-- V6 -->
<g id="node3" class="node">
<title>V6</title>
<g id="a_node3"><a xlink:href="#../DataAxesFormats.Queries.VECTOR_MASK_OPERATION" xlink:title="VECTOR MASK OPERATION">
<polygon fill="none" stroke="#000000" points="605.5,-52 408.5,-52 408.5,-48 404.5,-48 404.5,-44 408.5,-44 408.5,-24 404.5,-24 404.5,-20 408.5,-20 408.5,-16 605.5,-16 605.5,-52"/>
<polyline fill="none" stroke="#000000" points="408.5,-48 412.5,-48 412.5,-44 408.5,-44 "/>
<polyline fill="none" stroke="#000000" points="408.5,-24 412.5,-24 412.5,-20 408.5,-20 "/>
<text text-anchor="middle" x="507" y="-30.3" font-family="Sans-Serif" font-size="14.00" fill="#000000">VECTOR MASK OPERATION</text>
</a>
</g>
</g>
<!-- Vector_mask_values -->
<g id="node4" class="node">
<title>Vector_mask_values</title>
<polygon fill="none" stroke="#000000" points="618,-162 396,-162 396,-70 618,-70 618,-162"/>
<text text-anchor="start" x="446.5" y="-147.8" font-family="Sans-Serif" font-size="14.00" fill="#000000">VectorState</text>
<text text-anchor="start" x="516.5" y="-147.8" font-family="Sans-Serif" font-style="italic" baseline-shift="sub" font-size="14.00" fill="#000000">base axis</text>
<text text-anchor="start" x="505" y="-133.8" font-family="Sans-Serif" font-size="14.00" fill="#000000"> </text>
<text text-anchor="start" x="404" y="-119.8" font-family="Sans-Serif" font-size="14.00" fill="#000000">BeginMask </text>
<text text-anchor="start" x="476" y="-119.8" font-family="Sans-Serif" font-style="italic" baseline-shift="sub" font-size="14.00" fill="#000000">or</text>
<text text-anchor="start" x="487" y="-119.8" font-family="Sans-Serif" font-size="14.00" fill="#000000"> BeginNegatedMask</text>
<text text-anchor="start" x="505" y="-105.8" font-family="Sans-Serif" font-size="14.00" fill="#000000"> </text>
<text text-anchor="start" x="438.5" y="-91.8" font-family="Sans-Serif" font-size="14.00" fill="#000000">VectorState</text>
<text text-anchor="start" x="508.5" y="-91.8" font-family="Sans-Serif" font-style="italic" baseline-shift="sub" font-size="14.00" fill="#000000">mask values</text>
<text text-anchor="start" x="505" y="-77.8" font-family="Sans-Serif" font-size="14.00" fill="#000000"> </text>
</g>
<!-- V6&#45;&gt;Vector_mask_values -->
<g id="edge2" class="edge">
<title>V6&#45;&gt;Vector_mask_values</title>
<path fill="none" stroke="#000000" d="M456.176,-52.0977C449.7642,-55.2829 444.69,-58.4681 440.9534,-61.6534"/>
<polygon fill="#000000" stroke="#000000" points="438.0852,-59.6301 434.4203,-69.571 443.4844,-64.0853 438.0852,-59.6301"/>
</g>
<!-- Vector_mask_values&#45;&gt;V6 -->
<g id="edge1" class="edge">
<title>Vector_mask_values&#45;&gt;V6</title>
<path fill="none" stroke="#000000" d="M579.5797,-69.571C577.5821,-65.3846 573.2739,-61.1983 566.6552,-57.012"/>
<polygon fill="#000000" stroke="#000000" points="568.2641,-53.902 557.824,-52.0977 564.8602,-60.0187 568.2641,-53.902"/>
</g>
<!-- VG12 -->
<g id="node6" class="node">
<title>VG12</title>
<polygon fill="none" stroke="#000000" stroke-dasharray="1,5" points="745,-142.5 654,-142.5 654,-89.5 745,-89.5 745,-142.5"/>
<text text-anchor="start" x="695" y="-127.3" font-family="Courier,monospace" font-size="14.00" fill="#000000">]</text>
<text text-anchor="start" x="695" y="-112.3" font-family="Courier,monospace" font-size="14.00" fill="#000000"> </text>
<text text-anchor="start" x="662" y="-97.3" font-family="Courier,monospace" font-size="14.00" fill="#000000">EndMask()</text>
</g>
<!-- Vector_mask_values&#45;&gt;VG12 -->
<g id="edge5" class="edge">
<title>Vector_mask_values&#45;&gt;VG12</title>
<path fill="none" stroke="#000000" d="M618.1417,-116C626.9337,-116 635.5558,-116 643.705,-116"/>
<polygon fill="#000000" stroke="#000000" points="643.7515,-119.5001 653.7515,-116 643.7514,-112.5001 643.7515,-119.5001"/>
</g>
<!-- V5 -->
<g id="node8" class="node">
<title>V5</title>
<g id="a_node8"><a xlink:href="#../DataAxesFormats.Queries.VECTOR_OPERATION" xlink:title="VECTOR OPERATION">
<polygon fill="none" stroke="#000000" points="584,-216 430,-216 430,-212 426,-212 426,-208 430,-208 430,-188 426,-188 426,-184 430,-184 430,-180 584,-180 584,-216"/>
<polyline fill="none" stroke="#000000" points="430,-212 434,-212 434,-208 430,-208 "/>
<polyline fill="none" stroke="#000000" points="430,-188 434,-188 434,-184 430,-184 "/>
<text text-anchor="middle" x="507" y="-194.3" font-family="Sans-Serif" font-size="14.00" fill="#000000">VECTOR OPERATION</text>
</a>
</g>
</g>
<!-- Vector_mask_values&#45;&gt;V5 -->
<g id="edge7" class="edge">
<title>Vector_mask_values&#45;&gt;V5</title>
<path fill="none" stroke="#000000" d="M588.9492,-162.125C586.6906,-166.5743 581.4908,-171.0237 573.3498,-175.473"/>
<polygon fill="#000000" stroke="#000000" points="571.6816,-172.3925 564.2283,-179.9224 574.7505,-178.6839 571.6816,-172.3925"/>
</g>
<!-- V4&#45;&gt;V6 -->
<!-- V4&#45;&gt;Vector_mask_values -->
<g id="edge4" class="edge">
<title>V4:e&#45;&gt;Vector_mask_values</title>
<path fill="none" stroke="#000000" d="M360,-116C368.3461,-116 376.9588,-116 385.6337,-116"/>
<polygon fill="#000000" stroke="#000000" points="385.8336,-119.5001 395.8336,-116 385.8336,-112.5001 385.8336,-119.5001"/>
</g>
<!-- V4&#45;&gt;V5 -->
<!-- VG12_ -->
<g id="node7" class="node">
<title>VG12_</title>
<polygon fill="none" stroke="#000000" points="855,-128 781,-128 781,-104 855,-104 867,-116 855,-128"/>
<text text-anchor="middle" x="824" y="-112.3" font-family="Sans-Serif" font-size="14.00" fill="#000000">apply mask</text>
</g>
<!-- VG12&#45;&gt;VG12_ -->
<g id="edge6" class="edge">
<title>VG12:e&#45;&gt;VG12_:w</title>
<path fill="none" stroke="#000000" d="M745,-116C757,-116 762.25,-116 770.875,-116"/>
<polygon fill="#000000" stroke="#000000" points="771,-119.5001 781,-116 771,-112.5001 771,-119.5001"/>
</g>
<!-- VG12_&#45;&gt;Vector_final_axis -->
<g id="edge11" class="edge">
<title>VG12_:e&#45;&gt;Vector_final_axis</title>
<path fill="none" stroke="#000000" d="M867,-116C875.3555,-116 884.0746,-116 892.7775,-116"/>
<polygon fill="#000000" stroke="#000000" points="892.9638,-119.5001 902.9638,-116 892.9637,-112.5001 892.9638,-119.5001"/>
</g>
<!-- V5&#45;&gt;Vector_mask_values -->
<g id="edge8" class="edge">
<title>V5&#45;&gt;Vector_mask_values</title>
<path fill="none" stroke="#000000" d="M449.7717,-179.9224C442.1953,-176.5854 436.2733,-173.2484 432.0058,-169.9113"/>
<polygon fill="#000000" stroke="#000000" points="434.3228,-167.2514 425.0508,-162.125 429.1022,-171.9146 434.3228,-167.2514"/>
</g>
</g>
</svg>
