<?xml version="1.0" encoding="UTF-8" standalone="no"?>
<!DOCTYPE svg PUBLIC "-//W3C//DTD SVG 1.1//EN"
 "http://www.w3.org/Graphics/SVG/1.1/DTD/svg11.dtd">
<!-- Generated by graphviz version 2.40.1 (0)
 -->
<!-- Title: %3 Pages: 1 -->
<svg width="1103pt" height="485pt"
 viewBox="0.00 0.00 1103.00 485.00" xmlns="http://www.w3.org/2000/svg" xmlns:xlink="http://www.w3.org/1999/xlink">
<g id="graph0" class="graph" transform="scale(1 1) rotate(0) translate(4 481)">
<title>%3</title>
<polygon fill="#ffffff" stroke="transparent" points="-4,4 -4,-481 1099,-481 1099,4 -4,4"/>
<g id="clust1" class="cluster">
<title>cluster_all</title>
<polygon fill="none" stroke="#000000" points="190,-8 190,-469 909,-469 909,-8 190,-8"/>
<text text-anchor="middle" x="339.5" y="-442.6" font-family="Sans-Serif" font-size="28.00" fill="#000000">VECTOR OPERATION</text>
</g>
<!-- Vector_base_values -->
<g id="node1" class="node">
<title>Vector_base_values</title>
<polygon fill="none" stroke="#000000" points="162,-307 0,-307 0,-271 162,-271 162,-307"/>
<text text-anchor="start" x="8" y="-292.8" font-family="Sans-Serif" font-size="14.00" fill="#000000"> VectorState</text>
<text text-anchor="start" x="82" y="-292.8" font-family="Sans-Serif" font-style="italic" baseline-shift="sub" font-size="14.00" fill="#000000">base values</text>
<text text-anchor="start" x="146" y="-292.8" font-family="Sans-Serif" font-size="14.00" fill="#000000">  </text>
<text text-anchor="start" x="79" y="-278.8" font-family="Sans-Serif" font-size="14.00" fill="#000000"> </text>
</g>
<!-- VO1 -->
<g id="node3" class="node">
<title>VO1</title>
<polygon fill="none" stroke="#000000" stroke-dasharray="1,5" points="484,-314 243,-314 243,-264 484,-264 484,-314"/>
<text text-anchor="start" x="260" y="-299.8" font-family="Courier,monospace" font-size="14.00" fill="#000000">% Eltwise </text>
<text text-anchor="start" x="343" y="-299.8" font-family="Courier,monospace" font-size="14.00" fill="#c0c0c0">param value ...</text>
<text text-anchor="start" x="359" y="-285.8" font-family="Courier,monospace" font-size="14.00" fill="#000000"> </text>
<text text-anchor="start" x="251" y="-271.8" font-family="Courier,monospace" font-size="14.00" fill="#000000">Eltwise(</text>
<text text-anchor="start" x="318" y="-271.8" font-family="Courier,monospace" font-size="14.00" fill="#c0c0c0">param = value, ...</text>
<text text-anchor="start" x="467" y="-271.8" font-family="Courier,monospace" font-size="14.00" fill="#000000">)</text>
</g>
<!-- Vector_base_values&#45;&gt;VO1 -->
<g id="edge10" class="edge">
<title>Vector_base_values&#45;&gt;VO1:w</title>
<path fill="none" stroke="#000000" d="M162.3308,-289C184.6743,-289 209.1378,-289 232.3091,-289"/>
<polygon fill="#000000" stroke="#000000" points="232.5,-292.5001 242.5,-289 232.5,-285.5001 232.5,-292.5001"/>
</g>
<!-- VO2 -->
<g id="node5" class="node">
<title>VO2</title>
<polygon fill="none" stroke="#000000" stroke-dasharray="1,5" points="529,-246 198,-246 198,-70 529,-70 529,-246"/>
<text text-anchor="start" x="206" y="-231.8" font-family="Courier,monospace" font-size="14.00" fill="#000000">&lt;</text>
<text text-anchor="start" x="215" y="-231.8" font-family="Courier,monospace" font-style="italic" baseline-shift="sub" font-size="14.00" fill="#000000">or </text>
<text text-anchor="start" x="238" y="-231.8" font-family="Courier,monospace" font-size="14.00" fill="#000000">&lt;=</text>
<text text-anchor="start" x="255" y="-231.8" font-family="Courier,monospace" font-style="italic" baseline-shift="sub" font-size="14.00" fill="#000000">or </text>
<text text-anchor="start" x="278" y="-231.8" font-family="Courier,monospace" font-size="14.00" fill="#000000">=</text>
<text text-anchor="start" x="287" y="-231.8" font-family="Courier,monospace" font-style="italic" baseline-shift="sub" font-size="14.00" fill="#000000">or </text>
<text text-anchor="start" x="310" y="-231.8" font-family="Courier,monospace" font-size="14.00" fill="#000000">!=</text>
<text text-anchor="start" x="327" y="-231.8" font-family="Courier,monospace" font-style="italic" baseline-shift="sub" font-size="14.00" fill="#000000">or </text>
<text text-anchor="start" x="350" y="-231.8" font-family="Courier,monospace" font-size="14.00" fill="#000000">&gt;=</text>
<text text-anchor="start" x="367" y="-231.8" font-family="Courier,monospace" font-style="italic" baseline-shift="sub" font-size="14.00" fill="#000000">or </text>
<text text-anchor="start" x="390" y="-231.8" font-family="Courier,monospace" font-size="14.00" fill="#000000">&gt;</text>
<text text-anchor="start" x="399" y="-231.8" font-family="Courier,monospace" font-style="italic" baseline-shift="sub" font-size="14.00" fill="#000000">or </text>
<text text-anchor="start" x="422" y="-231.8" font-family="Courier,monospace" font-size="14.00" fill="#000000">~</text>
<text text-anchor="start" x="431" y="-231.8" font-family="Courier,monospace" font-style="italic" baseline-shift="sub" font-size="14.00" fill="#000000">or </text>
<text text-anchor="start" x="454" y="-231.8" font-family="Courier,monospace" font-size="14.00" fill="#000000">!~ value</text>
<text text-anchor="start" x="359" y="-217.8" font-family="Courier,monospace" font-size="14.00" fill="#000000"> </text>
<text text-anchor="start" x="359" y="-203.8" font-family="Courier,monospace" font-size="14.00" fill="#000000"> </text>
<text text-anchor="start" x="277" y="-189.8" font-family="Courier,monospace" font-size="14.00" fill="#000000">IsLess</text>
<text text-anchor="start" x="327" y="-189.8" font-family="Courier,monospace" font-style="italic" baseline-shift="sub" font-size="14.00" fill="#000000">or</text>
<text text-anchor="start" x="343" y="-189.8" font-family="Courier,monospace" font-size="14.00" fill="#000000">IsLessEqual</text>
<text text-anchor="start" x="434" y="-189.8" font-family="Courier,monospace" font-style="italic" baseline-shift="sub" font-size="14.00" fill="#000000">or</text>
<text text-anchor="start" x="359" y="-175.8" font-family="Courier,monospace" font-size="14.00" fill="#000000"> </text>
<text text-anchor="start" x="277" y="-161.8" font-family="Courier,monospace" font-size="14.00" fill="#000000">IsEqual</text>
<text text-anchor="start" x="335" y="-161.8" font-family="Courier,monospace" font-style="italic" baseline-shift="sub" font-size="14.00" fill="#000000">or</text>
<text text-anchor="start" x="351" y="-161.8" font-family="Courier,monospace" font-size="14.00" fill="#000000">IsNotEqual</text>
<text text-anchor="start" x="434" y="-161.8" font-family="Courier,monospace" font-style="italic" baseline-shift="sub" font-size="14.00" fill="#000000">or</text>
<text text-anchor="start" x="359" y="-147.8" font-family="Courier,monospace" font-size="14.00" fill="#000000"> </text>
<text text-anchor="start" x="252" y="-133.8" font-family="Courier,monospace" font-size="14.00" fill="#000000">IsGreaterEqual</text>
<text text-anchor="start" x="368" y="-133.8" font-family="Courier,monospace" font-style="italic" baseline-shift="sub" font-size="14.00" fill="#000000">or</text>
<text text-anchor="start" x="384" y="-133.8" font-family="Courier,monospace" font-size="14.00" fill="#000000">IsGreater</text>
<text text-anchor="start" x="459" y="-133.8" font-family="Courier,monospace" font-style="italic" baseline-shift="sub" font-size="14.00" fill="#000000">or</text>
<text text-anchor="start" x="359" y="-119.8" font-family="Courier,monospace" font-size="14.00" fill="#000000"> </text>
<text text-anchor="start" x="285" y="-105.8" font-family="Courier,monospace" font-size="14.00" fill="#000000">IsMatch</text>
<text text-anchor="start" x="343" y="-105.8" font-family="Courier,monospace" font-style="italic" baseline-shift="sub" font-size="14.00" fill="#000000">or</text>
<text text-anchor="start" x="359" y="-105.8" font-family="Courier,monospace" font-size="14.00" fill="#000000">IsNotMatch</text>
<text text-anchor="start" x="359" y="-91.8" font-family="Courier,monospace" font-size="14.00" fill="#000000"> </text>
<text text-anchor="start" x="334.5" y="-77.8" font-family="Courier,monospace" font-size="14.00" fill="#000000">(value)</text>
</g>
<!-- Vector_base_values&#45;&gt;VO2 -->
<g id="edge11" class="edge">
<title>Vector_base_values&#45;&gt;VO2:w</title>
<path fill="none" stroke="#000000" d="M87.3682,-270.785C100.4339,-236.8989 133.6353,-166.8587 187.2514,-158.7673"/>
<polygon fill="#000000" stroke="#000000" points="187.7892,-162.2369 197.5,-158 187.2666,-155.2564 187.7892,-162.2369"/>
</g>
<!-- VO3_ -->
<g id="node7" class="node">
<title>VO3_</title>
<g id="a_node7"><a xlink:href="#../DataAxesFormats.Queries.VECTOR_GROUP" xlink:title="VECTOR GROUP  ">
<polygon fill="none" stroke="#000000" points="430.5,-52 296.5,-52 296.5,-48 292.5,-48 292.5,-44 296.5,-44 296.5,-24 292.5,-24 292.5,-20 296.5,-20 296.5,-16 430.5,-16 430.5,-52"/>
<polyline fill="none" stroke="#000000" points="296.5,-48 300.5,-48 300.5,-44 296.5,-44 "/>
<polyline fill="none" stroke="#000000" points="296.5,-24 300.5,-24 300.5,-20 296.5,-20 "/>
<text text-anchor="middle" x="363.5" y="-30.3" font-family="Sans-Serif" font-size="14.00" fill="#000000">VECTOR GROUP  </text>
</a>
</g>
</g>
<!-- Vector_base_values&#45;&gt;VO3_ -->
<g id="edge12" class="edge">
<title>Vector_base_values&#45;&gt;VO3_:w</title>
<path fill="none" stroke="#000000" d="M84.2238,-270.9884C92.9382,-227.7429 121.1151,-117.4568 190,-61 225.0377,-32.2837 244.6994,-33.6109 286.3492,-33.9527"/>
<polygon fill="#000000" stroke="#000000" points="286.4838,-37.4533 296.5,-34 286.5164,-30.4534 286.4838,-37.4533"/>
</g>
<!-- VO4 -->
<g id="node8" class="node">
<title>VO4</title>
<g id="a_node8"><a xlink:href="#../DataAxesFormats.Queries.VECTOR_AS_AXIS" xlink:title="VECTOR AS AXIS">
<polygon fill="none" stroke="#000000" points="427.5,-368 299.5,-368 299.5,-364 295.5,-364 295.5,-360 299.5,-360 299.5,-340 295.5,-340 295.5,-336 299.5,-336 299.5,-332 427.5,-332 427.5,-368"/>
<polyline fill="none" stroke="#000000" points="299.5,-364 303.5,-364 303.5,-360 299.5,-360 "/>
<polyline fill="none" stroke="#000000" points="299.5,-340 303.5,-340 303.5,-336 299.5,-336 "/>
<text text-anchor="middle" x="363.5" y="-346.3" font-family="Sans-Serif" font-size="14.00" fill="#000000">VECTOR AS AXIS</text>
</a>
</g>
</g>
<!-- Vector_base_values&#45;&gt;VO4 -->
<g id="edge13" class="edge">
<title>Vector_base_values&#45;&gt;VO4:w</title>
<path fill="none" stroke="#000000" d="M120.7442,-307.1369C161.5663,-324.1698 227.6681,-347.3949 289.2605,-349.7971"/>
<polygon fill="#000000" stroke="#000000" points="289.4326,-353.3011 299.5,-350 289.5713,-346.3025 289.4326,-353.3011"/>
</g>
<!-- VO5_ -->
<g id="node9" class="node">
<title>VO5_</title>
<polygon fill="none" stroke="#000000" points="460.5,-416 254.5,-416 254.5,-392 460.5,-392 472.5,-404 460.5,-416"/>
<text text-anchor="start" x="262.5" y="-407.8" font-family="Sans-Serif" font-size="14.00" fill="#000000">vector property is an axis</text>
<text text-anchor="start" x="413.5" y="-407.8" font-family="Sans-Serif" font-style="italic" baseline-shift="sub" font-size="14.00" fill="#000000">implicit</text>
<text text-anchor="start" x="448.5" y="-407.8" font-family="Sans-Serif" font-size="14.00" fill="#000000">    </text>
<text text-anchor="start" x="361.5" y="-393.8" font-family="Sans-Serif" font-size="14.00" fill="#000000"> </text>
</g>
<!-- Vector_base_values&#45;&gt;VO5_ -->
<g id="edge14" class="edge">
<title>Vector_base_values&#45;&gt;VO5_:w</title>
<path fill="none" stroke="#000000" d="M95.3124,-307.2221C121.2123,-338.0656 179.253,-397.7918 244.4123,-403.5509"/>
<polygon fill="#000000" stroke="#000000" points="244.3542,-407.0517 254.5,-404 244.6656,-400.0586 244.3542,-407.0517"/>
</g>
<!-- Vector_final_values -->
<g id="node2" class="node">
<title>Vector_final_values</title>
<polygon fill="none" stroke="#000000" points="1095,-216 937,-216 937,-180 1095,-180 1095,-216"/>
<text text-anchor="start" x="945" y="-201.8" font-family="Sans-Serif" font-size="14.00" fill="#000000"> VectorState</text>
<text text-anchor="start" x="1019" y="-201.8" font-family="Sans-Serif" font-style="italic" baseline-shift="sub" font-size="14.00" fill="#000000">final values</text>
<text text-anchor="start" x="1079" y="-201.8" font-family="Sans-Serif" font-size="14.00" fill="#000000">  </text>
<text text-anchor="start" x="1014" y="-187.8" font-family="Sans-Serif" font-size="14.00" fill="#000000"> </text>
</g>
<!-- VO1_ -->
<g id="node4" class="node">
<title>VO1_</title>
<polygon fill="none" stroke="#000000" points="713,-263 565,-263 565,-239 713,-239 725,-251 713,-263"/>
<text text-anchor="middle" x="645" y="-247.3" font-family="Sans-Serif" font-size="14.00" fill="#000000">element&#45;wise of vector  </text>
</g>
<!-- VO1&#45;&gt;VO1_ -->
<g id="edge1" class="edge">
<title>VO1:e&#45;&gt;VO1_:w</title>
<path fill="none" stroke="#000000" d="M484.5,-289C520.3546,-289 524.8433,-257.791 554.8168,-251.9393"/>
<polygon fill="#000000" stroke="#000000" points="555.3638,-255.4038 565,-251 554.7208,-248.4334 555.3638,-255.4038"/>
</g>
<!-- VO1_&#45;&gt;Vector_final_values -->
<g id="edge6" class="edge">
<title>VO1_:e&#45;&gt;Vector_final_values</title>
<path fill="none" stroke="#000000" d="M725,-251C800.6067,-251 885.5008,-233.4692 943.991,-218.5724"/>
<polygon fill="#000000" stroke="#000000" points="945.0651,-221.9098 953.8701,-216.0173 943.3123,-215.1328 945.0651,-221.9098"/>
</g>
<!-- VO2_ -->
<g id="node6" class="node">
<title>VO2_</title>
<polygon fill="none" stroke="#000000" points="692,-177 586,-177 586,-153 692,-153 704,-165 692,-177"/>
<text text-anchor="middle" x="645" y="-161.3" font-family="Sans-Serif" font-size="14.00" fill="#000000">compare vector  </text>
</g>
<!-- VO2&#45;&gt;VO2_ -->
<g id="edge2" class="edge">
<title>VO2:e&#45;&gt;VO2_:w</title>
<path fill="none" stroke="#000000" d="M529,-158C550.735,-158 558.2779,-163.0761 575.7996,-164.5831"/>
<polygon fill="#000000" stroke="#000000" points="575.8654,-168.0886 586,-165 576.1513,-161.0944 575.8654,-168.0886"/>
</g>
<!-- VO2_&#45;&gt;Vector_final_values -->
<g id="edge7" class="edge">
<title>VO2_:e&#45;&gt;Vector_final_values</title>
<path fill="none" stroke="#000000" d="M704,-165C779.3308,-165 864.3278,-174.6313 926.5611,-183.4875"/>
<polygon fill="#000000" stroke="#000000" points="926.3398,-186.9917 936.7375,-184.9575 927.3406,-180.0636 926.3398,-186.9917"/>
</g>
<!-- VO3_&#45;&gt;Vector_final_values -->
<g id="edge8" class="edge">
<title>VO3_:e&#45;&gt;Vector_final_values</title>
<path fill="none" stroke="#000000" d="M430.5,-34C638.1396,-34 872.3607,-130.8216 969.7296,-175.6773"/>
<polygon fill="#000000" stroke="#000000" points="968.4514,-178.9427 978.9953,-179.98 971.3996,-172.5938 968.4514,-178.9427"/>
</g>
<!-- Vector_axis -->
<g id="node11" class="node">
<title>Vector_axis</title>
<polygon fill="none" stroke="#000000" points="705,-368 585,-368 585,-332 705,-332 705,-368"/>
<text text-anchor="start" x="593" y="-353.8" font-family="Sans-Serif" font-size="14.00" fill="#000000"> VectorState</text>
<text text-anchor="start" x="667" y="-353.8" font-family="Sans-Serif" font-style="italic" baseline-shift="sub" font-size="14.00" fill="#000000">axis</text>
<text text-anchor="start" x="689" y="-353.8" font-family="Sans-Serif" font-size="14.00" fill="#000000">  </text>
<text text-anchor="start" x="643" y="-339.8" font-family="Sans-Serif" font-size="14.00" fill="#000000"> </text>
</g>
<!-- VO4&#45;&gt;Vector_axis -->
<g id="edge4" class="edge">
<title>VO4:e&#45;&gt;Vector_axis</title>
<path fill="none" stroke="#000000" d="M427.5,-350C476.6866,-350 532.1301,-350 574.7285,-350"/>
<polygon fill="#000000" stroke="#000000" points="574.9929,-353.5001 584.9928,-350 574.9928,-346.5001 574.9929,-353.5001"/>
</g>
<!-- VO5_&#45;&gt;Vector_axis -->
<g id="edge3" class="edge">
<title>VO5_:e&#45;&gt;Vector_axis</title>
<path fill="none" stroke="#000000" d="M472.5,-404C517.3908,-404 565.9752,-387.1386 600.1083,-372.2598"/>
<polygon fill="#000000" stroke="#000000" points="601.6381,-375.4097 609.3372,-368.1314 598.7797,-369.0199 601.6381,-375.4097"/>
</g>
<!-- VO6_ -->
<g id="node10" class="node">
<title>VO6_</title>
<g id="a_node10"><a xlink:href="#../DataAxesFormats.Queries.VECTOR_LOOKUP" xlink:title="VECTOR LOOKUP  ">
<polygon fill="none" stroke="#000000" points="901,-348 761,-348 761,-344 757,-344 757,-340 761,-340 761,-320 757,-320 757,-316 761,-316 761,-312 901,-312 901,-348"/>
<polyline fill="none" stroke="#000000" points="761,-344 765,-344 765,-340 761,-340 "/>
<polyline fill="none" stroke="#000000" points="761,-320 765,-320 765,-316 761,-316 "/>
<text text-anchor="middle" x="831" y="-326.3" font-family="Sans-Serif" font-size="14.00" fill="#000000">VECTOR LOOKUP  </text>
</a>
</g>
</g>
<!-- VO6_&#45;&gt;Vector_final_values -->
<g id="edge9" class="edge">
<title>VO6_:e&#45;&gt;Vector_final_values</title>
<path fill="none" stroke="#000000" d="M901,-330C955.8247,-330 990.4841,-264.4648 1006.1764,-225.7482"/>
<polygon fill="#000000" stroke="#000000" points="1009.5744,-226.6661 1009.9297,-216.0773 1003.0487,-224.1334 1009.5744,-226.6661"/>
</g>
<!-- Vector_axis&#45;&gt;VO6_ -->
<g id="edge5" class="edge">
<title>Vector_axis&#45;&gt;VO6_:w</title>
<path fill="none" stroke="#000000" d="M705.1681,-335.6243C719.681,-333.0407 735.3938,-330.9425 750.5863,-330.2466"/>
<polygon fill="#000000" stroke="#000000" points="751.0857,-333.7358 761,-330 750.9199,-326.7378 751.0857,-333.7358"/>
</g>
</g>
</svg>
